<svg width="34" height="30" viewBox="0 0 34 30" fill="none" xmlns="http://www.w3.org/2000/svg">
<g clip-path="url(#clip0_235_16711)">
<path d="M6.43555 10.3974C7.32404 4.91042 13.0823 0.678223 20.0138 0.678223C27.5491 0.678223 33.3208 5.69717 33.3208 11.8827C33.3208 14.5956 32.568 17.0848 29.8551 19.0245C29.546 20.9204 29.6853 22.8623 30.262 24.6946C30.297 24.8148 30.298 24.9423 30.265 25.0631C30.232 25.1838 30.1662 25.2931 30.0749 25.3787C29.9836 25.4644 29.8704 25.5231 29.7478 25.5484C29.6252 25.5737 29.498 25.5646 29.3803 25.522L22.0486 22.9312C21.3459 23.0372 20.6363 23.0916 19.9257 23.0939" stroke="white" stroke-width="1.3" stroke-linecap="round" stroke-linejoin="round"/>
<path d="M22.1641 22.9311C23.7033 22.6317 25.1876 22.0988 26.5658 21.3508" stroke="white" stroke-width="1.3" stroke-linecap="round" stroke-linejoin="round"/>
<path d="M10.9734 9.53601C5.12024 9.53601 0.677794 13.4291 0.677794 18.231C0.631665 19.3077 0.855745 20.3787 1.32961 21.3466C1.80347 22.3145 2.51205 23.1483 3.39074 23.7722V23.7722C3.67951 25.1227 3.61172 26.5252 3.19405 27.8416C3.15481 27.9623 3.15022 28.0916 3.1808 28.2148C3.21139 28.338 3.27593 28.4501 3.36707 28.5384C3.45822 28.6267 3.57233 28.6877 3.69641 28.7144C3.82049 28.7411 3.94957 28.7324 4.06898 28.6894L9.39313 26.8039C9.93678 26.8824 10.4852 26.9232 11.0345 26.926C16.8876 26.926 21.5946 23.0329 21.5946 18.231C21.5946 13.4291 16.8266 9.53601 10.9734 9.53601Z" stroke="white" stroke-width="1.3" stroke-linecap="round" stroke-linejoin="round"/>
<path d="M9.30525 26.8039C8.11931 26.5684 6.97593 26.1545 5.91406 25.5763" stroke="white" stroke-width="1.3" stroke-linecap="round" stroke-linejoin="round"/>
<path d="M6.43649 19.7774C7.12197 19.7774 7.67766 19.2217 7.67766 18.5362C7.67766 17.8507 7.12197 17.295 6.43649 17.295C5.751 17.295 5.19531 17.8507 5.19531 18.5362C5.19531 19.2217 5.751 19.7774 6.43649 19.7774Z" fill="white"/>
<path d="M11.3056 19.7774C11.9911 19.7774 12.5468 19.2217 12.5468 18.5362C12.5468 17.8507 11.9911 17.295 11.3056 17.295C10.6201 17.295 10.0645 17.8507 10.0645 18.5362C10.0645 19.2217 10.6201 19.7774 11.3056 19.7774Z" fill="white"/>
<path d="M16.1748 19.7774C16.8602 19.7774 17.4159 19.2217 17.4159 18.5362C17.4159 17.8507 16.8602 17.295 16.1748 17.295C15.4893 17.295 14.9336 17.8507 14.9336 18.5362C14.9336 19.2217 15.4893 19.7774 16.1748 19.7774Z" fill="white"/>
<path d="M21.6084 12.6559C22.2938 12.6559 22.8495 12.1002 22.8495 11.4148C22.8495 10.7293 22.2938 10.1736 21.6084 10.1736C20.9229 10.1736 20.3672 10.7293 20.3672 11.4148C20.3672 12.1002 20.9229 12.6559 21.6084 12.6559Z" fill="white"/>
<path d="M26.4775 12.6559C27.163 12.6559 27.7187 12.1002 27.7187 11.4148C27.7187 10.7293 27.163 10.1736 26.4775 10.1736C25.792 10.1736 25.2363 10.7293 25.2363 11.4148C25.2363 12.1002 25.792 12.6559 26.4775 12.6559Z" fill="white"/>
</g>
<defs>
<clipPath id="clip0_235_16711">
<rect width="34" height="29.4083" fill="white"/>
</clipPath>
</defs>
</svg>
