<svg width="34" height="34" viewBox="0 0 34 34" fill="none" xmlns="http://www.w3.org/2000/svg">
<path d="M30.2817 3.71878C30.0091 3.44608 29.6649 3.256 29.2889 3.17047C28.913 3.08493 28.5205 3.10742 28.1567 3.23534L4.47889 11.6875C4.03521 11.8466 3.65945 12.1529 3.41423 12.5554C3.16901 12.9579 3.06914 13.4323 3.13127 13.8996C3.1934 14.3668 3.41378 14.7986 3.75567 15.123C4.09756 15.4475 4.54031 15.6449 5.01014 15.6825L17.3723 16.6282L18.3392 28.9903C18.3672 29.4636 18.5608 29.912 18.8862 30.2568C19.2116 30.6017 19.648 30.821 20.1189 30.8763H20.4111C20.8297 30.8769 21.2381 30.7467 21.5791 30.5038C21.9202 30.2609 22.1767 29.9175 22.313 29.5216L30.7704 5.84378C30.8977 5.47954 30.9193 5.08673 30.8329 4.71072C30.7464 4.3347 30.5553 3.99082 30.2817 3.71878ZM29.522 5.41878L21.0805 29.0753C21.0252 29.2347 20.9167 29.3701 20.7732 29.4587C20.6297 29.5474 20.4601 29.5839 20.2929 29.562C20.1256 29.5402 19.9711 29.4614 19.8552 29.3388C19.7393 29.2163 19.6692 29.0576 19.6567 28.8894L18.6526 15.9375C18.6356 15.787 18.568 15.6467 18.4608 15.5396C18.3537 15.4325 18.2135 15.3649 18.063 15.3478L5.11108 14.3438C4.94526 14.3287 4.78951 14.2576 4.66946 14.1422C4.54941 14.0269 4.47222 13.874 4.45058 13.709C4.42894 13.5439 4.46414 13.3763 4.55039 13.2339C4.63664 13.0915 4.76881 12.9827 4.92514 12.9253L28.5817 4.47846C28.7128 4.43277 28.8541 4.42497 28.9895 4.45595C29.1248 4.48693 29.2487 4.55544 29.3469 4.65362C29.445 4.75179 29.5135 4.87566 29.5445 5.011C29.5755 5.14634 29.5677 5.28767 29.522 5.41878Z" fill="white"/>
</svg>
