<svg width="34" height="34" viewBox="0 0 34 34" fill="none" xmlns="http://www.w3.org/2000/svg">
<path d="M23.5169 31.1667C23.3433 31.1667 23.1698 31.1596 22.9955 31.1468C20.1305 30.9282 17.3875 29.8961 15.0891 28.1718C11.5799 25.5397 8.46272 22.4221 5.83119 18.9125C4.10668 16.6142 3.07453 13.8711 2.85619 11.0061C2.78068 10.0332 2.91685 9.05568 3.25532 8.14051C3.59379 7.22541 4.12652 6.39445 4.81686 5.70491L6.59194 3.92771C7.29298 3.22789 8.24307 2.83484 9.23367 2.83484C10.2243 2.83484 11.1744 3.22789 11.8754 3.92771L13.4805 5.5335C13.8274 5.8804 14.1026 6.29224 14.2904 6.74551C14.4782 7.19878 14.5748 7.68463 14.5748 8.17522C14.5748 8.66581 14.4782 9.15166 14.2904 9.60492C14.1026 10.0582 13.8274 10.4701 13.4805 10.8169L12.5597 11.7378C12.1815 12.1175 11.9461 12.6163 11.8933 13.1496C11.8406 13.6829 11.9736 14.2181 12.2699 14.6646C14.1337 17.4654 16.5363 19.8673 19.3377 21.7302C19.7844 22.0261 20.3194 22.1589 20.8527 22.106C21.3858 22.0532 21.8845 21.8182 22.2645 21.4405L23.1854 20.5197C23.5322 20.1728 23.9441 19.8976 24.3974 19.7098C24.8507 19.522 25.3365 19.4254 25.8271 19.4254C26.3177 19.4254 26.8035 19.522 27.2568 19.7098C27.7101 19.8976 28.1219 20.1728 28.4688 20.5197L30.0746 22.1248C30.4216 22.4717 30.6967 22.8835 30.8845 23.3368C31.0723 23.7901 31.1689 24.2759 31.1689 24.7665C31.1689 25.2571 31.0723 25.7429 30.8845 26.1962C30.6967 26.6495 30.4216 27.0614 30.0746 27.4082L28.2953 29.1833C27.6682 29.8117 26.9234 30.3103 26.1035 30.6506C25.2836 30.9909 24.4046 31.1663 23.5169 31.1667ZM9.23332 4.25C8.9288 4.24961 8.62713 4.30935 8.34578 4.4258C8.06435 4.54224 7.80872 4.71311 7.59353 4.92858L5.81632 6.7065C5.27058 7.25169 4.84941 7.90867 4.58175 8.63216C4.31408 9.35566 4.20629 10.1286 4.26578 10.8977C4.46469 13.4941 5.40072 15.9798 6.96382 18.0625C9.51502 21.4637 12.5365 24.4852 15.9377 27.0364C18.0203 28.5997 20.506 29.5358 23.1025 29.7344C23.8715 29.7929 24.6441 29.6846 25.3675 29.417C26.0909 29.1495 26.7479 28.7288 27.2937 28.1839L29.0709 26.4067C29.5058 25.9716 29.7501 25.3817 29.7501 24.7665C29.7501 24.1514 29.5058 23.5614 29.0709 23.1264L27.4651 21.5213C27.0235 21.0991 26.4362 20.8635 25.8253 20.8635C25.2145 20.8635 24.6271 21.0991 24.1855 21.5213L23.2647 22.4421C22.653 23.0511 21.8498 23.43 20.9909 23.5151C20.1319 23.6002 19.27 23.386 18.5507 22.9089C15.5942 20.9422 13.0587 18.4067 11.092 15.4502C10.6147 14.7309 10.4005 13.8689 10.4856 13.01C10.5707 12.1511 10.9498 11.3478 11.5588 10.7362L12.4796 9.81536C12.9145 9.38045 13.1588 8.79062 13.1588 8.17557C13.1588 7.56053 12.9145 6.97069 12.4796 6.53579L10.8738 4.92929C10.6586 4.71366 10.4028 4.54267 10.1213 4.4261C9.83979 4.30953 9.53804 4.24968 9.23332 4.25Z" fill="white"/>
</svg>
