<svg width="34" height="34" viewBox="0 0 34 34" fill="none" xmlns="http://www.w3.org/2000/svg">
<path d="M7.67077 19.4737L7.88693 18.7863L7.67078 19.4737C7.79125 19.5116 7.91222 19.5496 8.03572 19.5898C8.47999 19.7342 9.00623 19.8927 9.50432 20.0176C9.98501 20.1381 10.4994 20.2432 10.894 20.2517C11.6611 20.2683 12.4293 19.953 13.1758 19.4409C14.43 18.5943 15.5191 17.8615 16.4434 17.2425C16.2562 17.4169 16.0801 17.5807 15.9214 17.7282L15.8586 17.7866C15.4934 18.1261 15.2053 18.3939 15.131 18.4711L15.6542 18.9749L15.131 18.4711C15.009 18.5979 14.8831 18.7193 14.7511 18.8466L14.7346 18.8625C14.5454 19.0448 14.33 19.2524 14.155 19.4647C13.9767 19.6808 13.7796 19.9715 13.7085 20.332C13.54 21.1857 14.1347 21.8257 14.8924 22.325C15.5814 22.779 16.1327 23.1545 16.6869 23.5319L16.6878 23.5325C17.2928 23.9445 17.9011 24.3587 18.6878 24.8744C18.8726 24.9956 19.0509 25.1226 19.2377 25.2558C19.2638 25.2744 19.2903 25.2933 19.3171 25.3125C19.9561 25.7696 20.797 26.3711 21.8607 26.2732C22.8525 26.182 23.4393 25.2668 23.691 23.9214C24.2537 20.9133 25.367 14.3587 25.6264 11.6324C25.657 11.3116 25.6206 10.9407 25.5906 10.7656C25.56 10.5865 25.4729 10.1666 25.082 9.84938C24.861 9.67004 24.6127 9.58406 24.4307 9.54056C24.2439 9.49593 24.0669 9.48196 23.9375 9.48423C23.483 9.49224 22.9761 9.62063 22.0547 9.95497C21.1205 10.294 19.679 10.877 17.3212 11.8577C15.6621 12.5477 12.3553 13.9721 7.40649 16.1282C6.98212 16.2977 6.61159 16.4828 6.32828 16.6932C6.06198 16.891 5.74394 17.2068 5.68631 17.6665C5.64776 17.974 5.7182 18.2673 5.8878 18.5167C6.04288 18.7448 6.25361 18.8965 6.43708 19.0009C6.77225 19.1916 7.22083 19.3324 7.61849 19.4573C7.63602 19.4628 7.65345 19.4683 7.67077 19.4737ZM33.25 17C33.25 25.9746 25.9746 33.25 17 33.25C8.02537 33.25 0.75 25.9746 0.75 17C0.75 8.02537 8.02537 0.75 17 0.75C25.9746 0.75 33.25 8.02537 33.25 17Z" stroke="black" stroke-width="1.5"/>
</svg>
