<svg width="34" height="34" viewBox="0 0 34 34" fill="none" xmlns="http://www.w3.org/2000/svg">
<path d="M33.25 17C33.25 25.9746 25.9746 33.25 17 33.25C8.02537 33.25 0.75 25.9746 0.75 17C0.75 8.02537 8.02537 0.75 17 0.75C25.9746 0.75 33.25 8.02537 33.25 17Z" stroke="#303031" stroke-width="1.5"/>
<path d="M17.8999 24.4875C11.0624 24.4875 7.1625 19.8 7 12H10.425C10.5375 17.725 13.0624 20.15 15.0624 20.65V12H18.2876V16.9375C20.2626 16.725 22.3373 14.475 23.0373 12H26.2624C25.7249 15.05 23.4749 17.3 21.8749 18.225C23.4749 18.975 26.0375 20.9375 27.0125 24.4875H23.4624C22.6999 22.1125 20.8001 20.275 18.2876 20.025V24.4875H17.8999Z" fill="#303031"/>
</svg>
