<svg width="39" height="39" viewBox="0 0 39 39" fill="none" xmlns="http://www.w3.org/2000/svg">
    <g clip-path="url(#clip0_332_4868)">
        <path fill-rule="evenodd" clip-rule="evenodd"
            d="M2.74148 2.74148C0 5.48296 0 9.89528 0 18.72V20.28C0 29.1047 0 33.517 2.74148 36.2585C5.48296 39 9.89528 39 18.72 39H20.28C29.1047 39 33.517 39 36.2585 36.2585C39 33.517 39 29.1047 39 20.28V18.72C39 9.89528 39 5.48296 36.2585 2.74148C33.517 0 29.1047 0 20.28 0H18.72C9.89528 0 5.48296 0 2.74148 2.74148ZM6.58135 11.8626C6.7926 22.0026 11.8626 28.0963 20.7513 28.0963H21.2552V22.2951C24.5214 22.6201 26.9912 25.0088 27.9825 28.0963H32.5976C31.3301 23.4813 27.9987 20.9301 25.9187 19.9551C27.9987 18.7526 30.9237 15.8276 31.6224 11.8626H27.4298C26.5198 15.0801 23.8227 18.0051 21.2552 18.2813V11.8626H17.0625V23.1076C14.4625 22.4576 11.1801 19.3051 11.0338 11.8626H6.58135Z"
            fill="#30A842" />
    </g>
    <defs>
        <clipPath id="clip0_332_4868">
            <rect width="39" height="39" fill="white" />
        </clipPath>
    </defs>
</svg>