<svg width="1911" height="584" viewBox="0 0 1911 584" fill="none" xmlns="http://www.w3.org/2000/svg">
<rect width="1920" height="584" fill="#1C376A"/>
<g opacity="0.2">
<path d="M718.464 512.717H1055.8C1056.02 514.377 1057.34 515.705 1059 515.705C1060.78 515.705 1062.21 514.156 1062.21 512.275C1062.21 510.393 1060.78 508.844 1059 508.844C1057.34 508.844 1056.02 510.172 1055.8 511.832H718.132L615.538 622.283H177.495C177.274 620.623 175.946 619.295 174.286 619.295C172.515 619.295 171.076 620.845 171.076 622.726C171.076 624.608 172.515 626.157 174.286 626.157C175.946 626.157 177.274 624.829 177.495 623.169H614.653L535.743 708.055H319.378C319.156 706.395 317.828 705.067 316.168 705.067C314.398 705.067 312.959 706.616 312.959 708.498C312.959 710.379 314.398 711.928 316.168 711.928C317.828 711.928 319.156 710.6 319.378 708.94H536.075L615.87 623.058H617.641V622.173H616.756L718.464 512.717ZM1059 509.729C1060.33 509.729 1061.33 510.836 1061.33 512.275C1061.33 513.603 1060.22 514.82 1059 514.82C1057.79 514.82 1056.9 513.935 1056.68 512.717H1057.23V511.832H1056.68C1056.9 510.615 1057.9 509.729 1059 509.729ZM174.175 625.161C172.847 625.161 171.851 624.054 171.851 622.615C171.851 621.287 172.958 620.07 174.175 620.07C175.503 620.07 176.499 621.177 176.499 622.615C176.61 624.054 175.503 625.161 174.175 625.161ZM316.168 711.043C314.84 711.043 313.844 709.936 313.844 708.498C313.844 707.169 314.951 705.952 316.168 705.952C317.496 705.952 318.492 707.059 318.492 708.498C318.603 709.936 317.496 711.043 316.168 711.043Z" fill="#252D4C"/>
<path d="M1086.56 467.342L1075.16 455.279H1203.21L1245.71 410.567L1265.52 429.602L1265.63 429.713H1601.96L1613.25 439.452L1613.36 439.563H1742.85L1804.27 375.041L1858.95 427.942H1939.96C1940.18 429.602 1941.51 430.931 1943.17 430.931C1944.94 430.931 1946.38 429.381 1946.38 427.5C1946.38 425.618 1944.94 424.069 1943.17 424.069C1941.51 424.069 1940.18 425.397 1939.96 427.057H1859.28L1804.83 374.487L1810.8 368.179H2014.66C2014.88 369.839 2016.21 371.167 2017.87 371.167C2019.64 371.167 2021.08 369.618 2021.08 367.736C2021.08 365.855 2019.64 364.305 2017.87 364.305C2016.21 364.305 2014.88 365.634 2014.66 367.294H1810.47L1742.52 438.678H1613.69L1602.3 428.828H1265.96L1246.26 409.903L1246.81 409.349L1246.15 408.685L1245.6 409.239L1215.49 380.353L1215.38 380.242H1132.6L1111.46 357.997L1110.8 358.661L1132.27 381.238H1215.05L1245.04 410.013L1202.77 454.393H1074.27L961.499 335.863L961.388 335.752H824.265C824.043 334.092 822.715 332.764 821.055 332.764C819.284 332.764 817.846 334.313 817.846 336.195C817.846 338.076 819.284 339.625 821.055 339.625C822.715 339.625 824.043 338.297 824.265 336.637H960.946L1072.95 454.393H881.151C880.929 452.733 879.601 451.405 877.941 451.405C876.17 451.405 874.732 452.954 874.732 454.836C874.732 456.717 876.17 458.267 877.941 458.267C879.601 458.267 880.929 456.939 881.151 455.279H1073.83L1086.01 468.117L1086.12 468.227H2062.8V467.342H1086.56ZM1943.17 425.065C1944.5 425.065 1945.49 426.172 1945.49 427.61C1945.49 428.938 1944.38 430.156 1943.17 430.156C1941.95 430.156 1940.84 429.049 1940.84 427.61C1940.84 426.172 1941.84 425.065 1943.17 425.065ZM2017.98 365.302C2019.31 365.302 2020.31 366.408 2020.31 367.847C2020.31 369.175 2019.2 370.392 2017.98 370.392C2016.65 370.392 2015.66 369.286 2015.66 367.847C2015.55 366.408 2016.65 365.302 2017.98 365.302ZM821.055 338.74C819.727 338.74 818.731 337.633 818.731 336.195C818.731 334.866 819.838 333.649 821.055 333.649C822.383 333.649 823.379 334.756 823.379 336.195C823.49 337.633 822.383 338.74 821.055 338.74ZM877.941 457.381C876.613 457.381 875.617 456.275 875.617 454.836C875.617 453.508 876.724 452.29 877.941 452.29C879.269 452.29 880.265 453.397 880.265 454.836C880.376 456.275 879.269 457.381 877.941 457.381Z" fill="#252D4C"/>
<path d="M420.087 453.729L419.423 453.064L383.012 491.247H241.683C241.461 489.586 240.133 488.258 238.473 488.258C236.702 488.258 235.264 489.808 235.264 491.689C235.264 493.571 236.702 495.12 238.473 495.12C240.133 495.12 241.461 493.792 241.683 492.132H383.455L420.087 453.729ZM238.473 494.235C237.145 494.235 236.149 493.128 236.149 491.689C236.149 490.361 237.256 489.144 238.473 489.144C239.691 489.144 240.797 490.251 240.797 491.689C240.908 493.128 239.801 494.235 238.473 494.235Z" fill="#252D4C"/>
<path d="M1846.11 605.351H1655.2L1596.43 538.062L1596.32 537.951H1005.77V538.837H1595.99L1654.87 606.236H1846.66L1891.26 539.279H2015.55V538.394H1890.82L1846.11 605.351Z" fill="#252D4C"/>
<path d="M668.329 -122.655C668.108 -124.315 666.78 -125.644 665.12 -125.644C663.349 -125.644 661.91 -124.094 661.91 -122.213C661.91 -120.331 663.349 -118.782 665.12 -118.782C666.78 -118.782 668.108 -120.11 668.329 -121.77H840.757L964.932 1.51955H1096.41V0.634178H965.264L841.089 -122.655H668.329ZM665.12 -119.667C663.792 -119.667 662.796 -120.774 662.796 -122.213C662.796 -123.541 663.902 -124.758 665.12 -124.758C666.226 -124.758 667.222 -123.873 667.444 -122.766H666.78V-121.881H667.444C667.222 -120.553 666.226 -119.667 665.12 -119.667Z" fill="#252D4C"/>
<path d="M1159.61 324.131C1159.39 322.471 1158.06 321.143 1156.4 321.143C1154.63 321.143 1153.19 322.692 1153.19 324.573C1153.19 326.455 1154.63 328.004 1156.4 328.004C1158.06 328.004 1159.39 326.676 1159.61 325.016H1517.08L1544.64 354.012L1545.3 353.348L1517.52 324.131H1159.61ZM1156.4 327.119C1155.07 327.119 1154.07 326.012 1154.07 324.573C1154.07 323.245 1155.18 322.028 1156.4 322.028C1157.73 322.028 1158.72 323.135 1158.72 324.573C1158.72 326.012 1157.62 327.119 1156.4 327.119Z" fill="#252D4C"/>
<path d="M1719.39 249.427L1655.75 197.19L1688.29 164.32H1804.28C1804.5 165.98 1805.83 167.308 1807.49 167.308C1809.26 167.308 1810.7 165.759 1810.7 163.877C1810.7 161.996 1809.26 160.446 1807.49 160.446C1805.83 160.446 1804.5 161.774 1804.28 163.434H1687.96L1586.69 266.028C1586.14 265.586 1585.48 265.253 1584.7 265.253C1582.93 265.253 1581.49 266.803 1581.49 268.684C1581.49 270.566 1582.93 272.115 1584.7 272.115C1586.47 272.115 1587.91 270.566 1587.91 268.684C1587.91 267.91 1587.69 267.246 1587.25 266.692L1655.09 197.964L1718.95 250.423L1719.06 250.534H2018.1C2018.32 252.194 2019.65 253.522 2021.31 253.522C2023.08 253.522 2024.52 251.973 2024.52 250.091C2024.52 248.21 2023.08 246.66 2021.31 246.66C2019.65 246.66 2018.32 247.989 2018.1 249.649H1719.39V249.427ZM1807.38 161.332C1808.7 161.332 1809.7 162.438 1809.7 163.877C1809.7 165.205 1808.59 166.423 1807.38 166.423C1806.05 166.423 1805.05 165.316 1805.05 163.877C1805.05 162.438 1806.05 161.332 1807.38 161.332ZM1586.92 268.684C1586.92 270.012 1585.81 271.23 1584.59 271.23C1583.26 271.23 1582.27 270.123 1582.27 268.684C1582.27 267.356 1583.37 266.139 1584.59 266.139C1585.14 266.139 1585.59 266.36 1585.92 266.582L1584.26 268.242L1584.92 268.906L1586.58 267.246C1586.8 267.688 1586.92 268.131 1586.92 268.684ZM2021.42 247.435C2022.74 247.435 2023.74 248.542 2023.74 249.981C2023.74 251.309 2022.63 252.526 2021.42 252.526C2020.09 252.526 2019.09 251.419 2019.09 249.981C2018.98 248.542 2020.09 247.435 2021.42 247.435Z" fill="#252D4C"/>
<path d="M305.433 123.924L344.722 165.205H696.219L729.974 129.789L811.54 215.561L811.65 215.671H990.387L1015.07 241.569L980.648 277.648H538.842L457.497 192.209L457.387 192.098H305.986C305.765 190.438 304.437 189.11 302.777 189.11C301.006 189.11 299.567 190.659 299.567 192.541C299.567 194.422 301.006 195.972 302.777 195.972C304.437 195.972 305.765 194.644 305.986 192.983H456.944L538.399 278.534H981.091L1015.73 242.122L1053.91 282.296L1054.02 282.407H1089.33L1058.12 315.277H709.831L672.313 354.677H213.574C213.353 353.016 212.025 351.688 210.365 351.688C208.594 351.688 207.155 353.238 207.155 355.119C207.155 357.001 208.594 358.55 210.365 358.55C212.025 358.55 213.353 357.222 213.574 355.562H672.756L710.274 316.162H1058.45L1090.55 282.407H1584.37L1607.94 305.538L1608.05 305.648H1666.93L1697.25 337.522H1825.41C1825.41 337.633 1825.41 337.744 1825.41 337.854C1825.41 339.736 1826.85 341.285 1828.62 341.285C1830.39 341.285 1831.83 339.736 1831.83 337.854C1831.83 335.973 1830.39 334.423 1828.62 334.423C1827.3 334.423 1826.08 335.309 1825.64 336.637H1697.7L1668.26 305.648H1957.56C1957.78 307.308 1959.11 308.637 1960.77 308.637C1962.54 308.637 1963.98 307.087 1963.98 305.206C1963.98 303.324 1962.54 301.775 1960.77 301.775C1959.11 301.775 1957.78 303.103 1957.56 304.763H1608.38L1584.81 281.632L1584.7 281.522H1091.32L1090.77 280.968L1090.21 281.522H1054.47L990.94 214.786L990.83 214.675H811.982L681.942 77.9943L681.831 77.8837H435.031C434.809 76.2236 433.481 74.8955 431.821 74.8955C430.05 74.8955 428.612 76.4449 428.612 78.3264C428.612 80.2078 430.05 81.7572 431.821 81.7572C433.481 81.7572 434.809 80.4292 435.031 78.7691H681.499L729.421 129.125L695.887 164.319H345.054L305.765 122.928H84.419C84.1977 121.267 82.8696 119.939 81.2095 119.939C79.4387 119.939 78 121.489 78 123.37C78 125.252 79.4387 126.801 81.2095 126.801C82.8696 126.801 84.1977 125.473 84.419 123.813H305.433V123.924ZM302.777 195.086C301.449 195.086 300.452 193.98 300.452 192.541C300.452 191.102 301.559 189.995 302.777 189.995C303.994 189.995 305.101 191.102 305.101 192.541C305.101 193.98 304.105 195.086 302.777 195.086ZM210.365 357.665C209.037 357.665 208.041 356.558 208.041 355.119C208.041 353.68 209.147 352.574 210.365 352.574C211.693 352.574 212.689 353.68 212.689 355.119C212.689 356.558 211.693 357.665 210.365 357.665ZM1828.62 335.53C1829.95 335.53 1830.95 336.637 1830.95 338.076C1830.95 339.514 1829.84 340.621 1828.62 340.621C1827.3 340.621 1826.3 339.514 1826.3 338.076C1826.3 336.637 1827.3 335.53 1828.62 335.53ZM1960.77 302.771C1962.09 302.771 1963.09 303.878 1963.09 305.316C1963.09 306.644 1961.98 307.862 1960.77 307.862C1959.44 307.862 1958.44 306.755 1958.44 305.316C1958.44 303.878 1959.44 302.771 1960.77 302.771ZM431.71 80.7612C430.382 80.7612 429.386 79.6544 429.386 78.2157C429.386 76.8876 430.493 75.6702 431.71 75.6702C432.817 75.6702 433.813 76.5556 434.035 77.6623H433.481V78.5477H434.035C433.924 79.8758 432.928 80.7612 431.71 80.7612ZM81.0988 125.916C79.7708 125.916 78.7747 124.809 78.7747 123.37C78.7747 122.042 79.8814 120.825 81.0988 120.825C82.4269 120.825 83.423 121.931 83.423 123.37C83.5336 124.809 82.4269 125.916 81.0988 125.916Z" fill="#252D4C"/>
<path d="M1461.41 2.84796L1422.34 50.2159H1285.66L1261.42 24.6505L1332.59 -53.5952H1702.79C1703.01 -51.9351 1704.34 -50.607 1706 -50.607C1707.77 -50.607 1709.21 -52.1564 1709.21 -54.0379C1709.21 -55.9193 1707.77 -57.4688 1706 -57.4688C1704.34 -57.4688 1703.01 -56.1407 1702.79 -54.4806H1332.25L1260.87 23.9865L1195.79 -44.4094L1195.68 -44.52H968.915C968.693 -46.1801 967.365 -47.5082 965.705 -47.5082C963.934 -47.5082 962.496 -45.9588 962.496 -44.0773C962.496 -42.1959 963.934 -40.6465 965.705 -40.6465C967.365 -40.6465 968.693 -41.9745 968.915 -43.6346H1195.13L1260.09 24.6505L1236.3 50.7693L1232.98 47.2278H1108.92L1073.61 85.1886H942.685C942.464 83.5285 941.136 82.2004 939.476 82.2004C937.705 82.2004 936.266 83.7498 936.266 85.6313C936.266 87.5127 937.705 89.0621 939.476 89.0621C941.136 89.0621 942.464 87.7341 942.685 86.074H1074.05L1109.36 48.1132H1232.65L1235.75 51.3227L1192.25 99.244H1082.35L1055.57 127.687H875.617L809.435 64.1607L809.324 64.05H717.134C717.134 63.9394 717.134 63.9394 717.134 63.8287C717.134 61.9473 715.695 60.3979 713.924 60.3979C712.154 60.3979 710.715 61.9473 710.715 63.8287C710.715 65.7102 712.154 67.2596 713.924 67.2596C715.363 67.2596 716.581 66.2635 717.023 64.9354H808.992L875.064 128.683L875.175 128.794H1055.79L1082.58 100.351H1192.47L1236.19 52.2081L1261.42 78.7696H1488.3L1448.02 132.003H1257.77L1243.38 116.841H1133.04L1083.13 170.96H822.052C821.83 169.3 820.502 167.972 818.842 167.972C817.071 167.972 815.633 169.521 815.633 171.403C815.633 173.284 817.071 174.834 818.842 174.834C820.502 174.834 821.83 173.506 822.052 171.845H1083.68L1133.6 117.726H1243.16L1257.55 132.889H1447.46L1425.55 161.885H1246.37L1224.13 185.237L1188.38 147.608H1140.79C1140.57 145.948 1139.24 144.62 1137.58 144.62C1135.81 144.62 1134.37 146.169 1134.37 148.051C1134.37 149.932 1135.81 151.482 1137.58 151.482C1139.24 151.482 1140.57 150.154 1140.79 148.493H1188.05L1223.57 185.901L1213.17 196.747H853.704C853.483 195.087 852.155 193.759 850.495 193.759C848.724 193.759 847.285 195.308 847.285 197.189C847.285 199.071 848.724 200.62 850.495 200.62C852.155 200.62 853.483 199.292 853.704 197.632H1213.5L1246.7 162.77H1425.99L1448.68 132.778H1948.92C1949.26 134.327 1950.58 135.434 1952.13 135.434C1953.9 135.434 1955.34 133.885 1955.34 132.003C1955.34 130.122 1953.9 128.572 1952.13 128.572C1950.36 128.572 1948.92 130.011 1948.92 131.782H1449.46L1489.74 78.5482H1789.55V77.6628H1490.41L1517.08 42.3582H1852.86L1907.42 105.995C1907.09 106.548 1906.98 107.102 1906.98 107.766C1906.98 109.647 1908.42 111.197 1910.19 111.197C1911.96 111.197 1913.4 109.647 1913.4 107.766C1913.4 105.884 1911.96 104.335 1910.19 104.335C1909.3 104.335 1908.53 104.667 1907.97 105.22L1853.3 41.3621H1516.75L1489.41 77.5522H1262.2L1237.19 51.3227L1260.98 25.2039L1285.33 50.88L1285.44 50.9907H1422.89L1461.96 3.62268H1948.92C1949.14 5.28278 1950.47 6.61083 1952.13 6.61083C1953.9 6.61083 1955.34 5.06141 1955.34 3.17997C1955.34 1.29853 1953.9 -0.250866 1952.13 -0.250866C1950.47 -0.250866 1949.14 1.07719 1948.92 2.73728H1461.41V2.84796ZM1705.89 -56.4727C1707.21 -56.4727 1708.21 -55.366 1708.21 -53.9272C1708.21 -52.4885 1707.1 -51.3817 1705.89 -51.3817C1704.56 -51.3817 1703.56 -52.4885 1703.56 -53.9272C1703.56 -55.366 1704.56 -56.4727 1705.89 -56.4727ZM965.705 -41.5319C964.377 -41.5319 963.381 -42.6386 963.381 -44.0773C963.381 -45.5161 964.488 -46.6228 965.705 -46.6228C967.033 -46.6228 968.029 -45.5161 968.029 -44.0773C968.029 -42.6386 967.033 -41.5319 965.705 -41.5319ZM939.476 88.2874C938.148 88.2874 937.152 87.1807 937.152 85.7419C937.152 84.4139 938.258 83.1965 939.476 83.1965C940.582 83.1965 941.578 84.0818 941.8 85.1886H941.578V86.074H941.8C941.578 87.4021 940.582 88.2874 939.476 88.2874ZM713.924 66.3742C712.596 66.3742 711.6 65.2675 711.6 63.8287C711.6 62.5006 712.707 61.2832 713.924 61.2832C715.252 61.2832 716.248 62.39 716.248 63.8287C716.248 63.9394 716.248 63.9394 716.248 64.05H715.584V64.9354H716.027C715.695 65.8208 714.81 66.3742 713.924 66.3742ZM818.842 173.948C817.514 173.948 816.518 172.841 816.518 171.403C816.518 169.964 817.625 168.857 818.842 168.857C819.949 168.857 820.945 169.743 821.166 170.849H821.056V171.735H821.166C820.945 173.063 820.06 173.948 818.842 173.948ZM1137.47 150.596C1136.14 150.596 1135.15 149.49 1135.15 148.051C1135.15 146.723 1136.25 145.505 1137.47 145.505C1138.58 145.505 1139.57 146.391 1139.79 147.497H1139.35V148.383H1139.79C1139.57 149.711 1138.58 150.596 1137.47 150.596ZM850.495 199.735C849.167 199.735 848.171 198.628 848.171 197.189C848.171 195.861 849.277 194.644 850.495 194.644C851.823 194.644 852.819 195.751 852.819 197.189C852.93 198.628 851.823 199.735 850.495 199.735ZM1952.02 129.679C1953.35 129.679 1954.35 130.786 1954.35 132.225C1954.35 133.663 1953.24 134.77 1952.02 134.77C1950.69 134.77 1949.7 133.663 1949.7 132.225C1949.7 130.786 1950.69 129.679 1952.02 129.679ZM1909.97 105.552C1911.29 105.552 1912.29 106.659 1912.29 108.098C1912.29 109.537 1911.18 110.643 1909.97 110.643C1908.64 110.643 1907.64 109.537 1907.64 108.098C1907.64 106.659 1908.64 105.552 1909.97 105.552ZM1952.02 0.855865C1953.35 0.855865 1954.35 1.96258 1954.35 3.40133C1954.35 4.7294 1953.24 5.94679 1952.02 5.94679C1950.92 5.94679 1949.92 5.06142 1949.7 3.95469H1949.81V3.06932H1949.7C1949.81 1.74125 1950.8 0.855865 1952.02 0.855865Z" fill="#252D4C"/>
<path d="M478.86 30.6264C480.52 30.6264 481.848 29.2983 482.069 27.6382H896.761L928.856 58.1839L929.409 57.5199L897.203 26.8635L897.093 26.7528H482.069C481.848 25.0927 480.52 23.7646 478.86 23.7646C477.089 23.7646 475.65 25.3141 475.65 27.1955C475.65 29.1876 477.089 30.6264 478.86 30.6264ZM478.86 24.7607C479.967 24.7607 480.963 25.6461 481.184 26.7528H480.299V27.6382H481.184C480.963 28.7449 479.967 29.6303 478.86 29.6303C477.532 29.6303 476.536 28.5236 476.536 27.0848C476.536 25.6461 477.642 24.7607 478.86 24.7607Z" fill="#252D4C"/>
<path d="M1789.66 77.9943C1789.66 79.8758 1791.1 81.4252 1792.87 81.4252C1794.64 81.4252 1796.08 79.8758 1796.08 77.9943C1796.08 76.1129 1794.64 74.5635 1792.87 74.5635C1791.1 74.5635 1789.66 76.1129 1789.66 77.9943ZM1795.31 77.9943C1795.31 79.3224 1794.2 80.5398 1792.98 80.5398C1791.66 80.5398 1790.66 79.4331 1790.66 77.9943C1790.66 76.5556 1791.77 75.4489 1792.98 75.4489C1794.31 75.4489 1795.31 76.6663 1795.31 77.9943Z" fill="#252D4C"/>
<path d="M927.635 61.3938C927.635 63.2752 929.074 64.8246 930.844 64.8246C932.615 64.8246 934.054 63.2752 934.054 61.3938C934.054 59.5123 932.615 57.9629 930.844 57.9629C929.074 57.9629 927.635 59.5123 927.635 61.3938ZM933.279 61.3938C933.279 62.7218 932.172 63.9393 930.955 63.9393C929.627 63.9393 928.631 62.8325 928.631 61.3938C928.631 60.0657 929.738 58.8483 930.955 58.8483C932.172 58.8483 933.279 59.955 933.279 61.3938Z" fill="#252D4C"/>
<path d="M1247.48 186.343H1584.15C1584.15 188.225 1585.59 189.774 1587.36 189.774C1589.13 189.774 1590.57 188.225 1590.57 186.343C1590.57 184.462 1589.13 182.912 1587.36 182.912C1585.81 182.912 1584.59 184.019 1584.26 185.458H1247.48C1247.26 183.798 1245.93 182.47 1244.27 182.47C1242.5 182.47 1241.06 184.019 1241.06 185.901C1241.06 187.782 1242.5 189.331 1244.27 189.331C1245.82 189.331 1247.26 188.003 1247.48 186.343ZM1587.36 183.798C1588.68 183.798 1589.68 184.905 1589.68 186.343C1589.68 187.671 1588.57 188.889 1587.36 188.889C1586.03 188.889 1585.03 187.782 1585.03 186.343C1585.03 185.015 1586.03 183.798 1587.36 183.798ZM1241.84 185.901C1241.84 184.573 1242.94 183.355 1244.16 183.355C1245.27 183.355 1246.26 184.24 1246.48 185.347V186.233C1246.26 187.339 1245.27 188.225 1244.16 188.225C1242.94 188.446 1241.84 187.339 1241.84 185.901Z" fill="#252D4C"/>
<path d="M1222.58 231.941C1220.81 231.941 1219.37 233.49 1219.37 235.371C1219.37 237.253 1220.81 238.802 1222.58 238.802C1224.24 238.802 1225.57 237.474 1225.79 235.814H1575.74L1641.92 167.308L1641.26 166.644L1575.29 234.929H1225.68C1225.57 233.269 1224.24 231.941 1222.58 231.941ZM1222.58 237.806C1221.25 237.806 1220.26 236.699 1220.26 235.261C1220.26 233.933 1221.36 232.715 1222.58 232.715C1223.69 232.715 1224.68 233.601 1224.9 234.707H1224.13V235.593H1224.9C1224.68 236.921 1223.69 237.806 1222.58 237.806Z" fill="#252D4C"/>
<path d="M1644.46 168.193C1646.23 168.193 1647.67 166.643 1647.67 164.762C1647.67 162.88 1646.23 161.331 1644.46 161.331C1642.69 161.331 1641.25 162.88 1641.25 164.762C1641.14 166.643 1642.69 168.193 1644.46 168.193ZM1644.46 162.216C1645.79 162.216 1646.78 163.323 1646.78 164.762C1646.78 166.201 1645.68 167.307 1644.46 167.307C1643.13 167.307 1642.14 166.201 1642.14 164.762C1642.14 163.323 1643.13 162.216 1644.46 162.216Z" fill="#252D4C"/>
<path d="M1105.04 355.451C1105.04 357.333 1106.48 358.882 1108.25 358.882C1110.03 358.882 1111.46 357.333 1111.46 355.451C1111.46 353.57 1110.03 352.021 1108.25 352.021C1106.48 352.021 1105.04 353.459 1105.04 355.451ZM1110.69 355.451C1110.69 356.779 1109.58 357.997 1108.37 357.997C1107.04 357.997 1106.04 356.89 1106.04 355.451C1106.04 354.123 1107.15 352.906 1108.37 352.906C1109.69 352.906 1110.69 354.013 1110.69 355.451Z" fill="#252D4C"/>
<path d="M1001.79 534.963C1000.02 534.963 998.578 536.512 998.578 538.394C998.578 540.275 1000.02 541.825 1001.79 541.825C1003.56 541.825 1005 540.275 1005 538.394C1005 536.512 1003.56 534.963 1001.79 534.963ZM1001.79 540.939C1000.46 540.939 999.463 539.833 999.463 538.394C999.463 537.066 1000.57 535.848 1001.79 535.848C1003.12 535.848 1004.11 536.955 1004.11 538.394C1004.11 539.833 1003.12 540.939 1001.79 540.939Z" fill="#252D4C"/>
<path d="M1587.36 567.169C1585.7 567.169 1584.37 568.497 1584.15 570.157H953.643L918.007 541.382L724.329 540.939C724.108 539.279 722.78 537.951 721.119 537.951C719.349 537.951 717.91 539.501 717.91 541.382C717.91 543.263 719.349 544.813 721.119 544.813C722.78 544.813 724.108 543.485 724.329 541.825L917.785 542.267L952.204 570.157H724.44C724.218 568.497 722.89 567.169 721.23 567.169C719.459 567.169 718.021 568.718 718.021 570.6C718.021 572.481 719.459 574.03 721.23 574.03C722.89 574.03 724.218 572.702 724.44 571.042H1000.35L881.595 695.771H789.847L755.207 659.359H667.554C667.554 659.138 667.554 659.027 667.554 658.806C667.554 656.925 666.115 655.375 664.344 655.375C662.574 655.375 661.135 656.925 661.135 658.806C661.135 660.687 662.574 662.237 664.344 662.237C665.672 662.237 666.779 661.462 667.332 660.245H754.875L789.515 696.656H881.927L1001.45 571.042H1584.15C1584.37 572.702 1585.7 574.03 1587.36 574.03C1589.13 574.03 1590.57 572.481 1590.57 570.6C1590.68 568.718 1589.13 567.169 1587.36 567.169ZM721.119 543.817C719.791 543.817 718.795 542.71 718.795 541.271C718.795 539.943 719.902 538.726 721.119 538.726C722.448 538.726 723.444 539.833 723.444 541.271C723.554 542.71 722.448 543.817 721.119 543.817ZM664.344 661.241C663.016 661.241 662.02 660.134 662.02 658.695C662.02 657.367 663.127 656.15 664.344 656.15C665.672 656.15 666.668 657.256 666.668 658.695C666.779 660.134 665.672 661.241 664.344 661.241ZM721.119 573.034C719.791 573.034 718.795 571.928 718.795 570.489C718.795 569.161 719.902 567.943 721.119 567.943C722.448 567.943 723.444 569.05 723.444 570.489C723.554 571.928 722.448 573.034 721.119 573.034ZM1587.36 573.034C1586.03 573.034 1585.03 571.928 1585.03 570.489C1585.03 569.161 1586.14 567.943 1587.36 567.943C1588.68 567.943 1589.68 569.05 1589.68 570.489C1589.79 571.928 1588.68 573.034 1587.36 573.034Z" fill="#252D4C"/>
<path d="M336.308 589.303C337.968 589.303 339.296 587.975 339.518 586.315H580.231L706.177 453.84H840.755L877.277 492.243H1144.11L1174.66 513.603H1930.55C1930.77 515.263 1932.1 516.591 1933.76 516.591C1935.53 516.591 1936.97 515.042 1936.97 513.16C1936.97 511.279 1935.53 509.73 1933.76 509.73C1932.1 509.73 1930.77 511.058 1930.55 512.718H1174.88L1144.33 491.247H877.609L782.652 391.42L782.541 391.31H574.587L519.029 449.745H198.853C198.521 448.195 197.193 446.978 195.643 446.978C193.872 446.978 192.434 448.527 192.434 450.409C192.434 452.29 193.872 453.84 195.643 453.84C197.303 453.84 198.742 452.401 198.853 450.63H519.361L574.919 392.195H782.099L839.87 452.844H705.845L602.698 561.192L546.808 502.536H410.459C410.238 500.876 408.91 499.548 407.25 499.548C405.479 499.548 404.04 501.097 404.04 502.979C404.04 504.86 405.479 506.409 407.25 506.409C408.91 506.409 410.238 505.081 410.459 503.421H546.476L602.145 561.856L579.789 585.319H339.518C339.296 583.659 337.968 582.331 336.308 582.331C334.538 582.331 333.099 583.88 333.099 585.762C333.099 587.643 334.427 589.303 336.308 589.303ZM1933.87 510.726C1935.2 510.726 1936.2 511.832 1936.2 513.271C1936.2 514.599 1935.09 515.817 1933.87 515.817C1932.54 515.817 1931.55 514.71 1931.55 513.271C1931.44 511.832 1932.54 510.726 1933.87 510.726ZM195.643 452.954C194.315 452.954 193.319 451.848 193.319 450.409C193.319 449.081 194.426 447.863 195.643 447.863C196.861 447.863 197.967 448.97 197.967 450.409C198.078 451.848 196.971 452.954 195.643 452.954ZM407.25 505.524C405.922 505.524 404.926 504.417 404.926 502.979C404.926 501.65 406.032 500.433 407.25 500.433C408.578 500.433 409.574 501.54 409.574 502.979C409.574 504.417 408.578 505.524 407.25 505.524ZM336.308 583.438C337.636 583.438 338.632 584.544 338.632 585.983C338.632 587.311 337.526 588.529 336.308 588.529C334.98 588.529 333.984 587.422 333.984 585.983C333.874 584.544 334.98 583.438 336.308 583.438Z" fill="#252D4C"/>
<path d="M305.987 296.574H492.914L547.033 353.46L547.697 352.796L493.357 295.688H305.987C305.766 294.028 304.438 292.7 302.778 292.7C301.007 292.7 299.568 294.25 299.568 296.131C299.568 298.012 301.007 299.562 302.778 299.562C304.438 299.562 305.766 298.234 305.987 296.574ZM300.454 296.131C300.454 294.803 301.56 293.586 302.778 293.586C303.995 293.586 305.102 294.692 305.102 296.131C305.102 297.459 303.995 298.676 302.778 298.676C301.56 298.676 300.454 297.459 300.454 296.131Z" fill="#252D4C"/>
<path d="M1276.14 398.946C1277.8 398.946 1279.13 397.618 1279.35 395.958H1731.78C1732 397.618 1733.33 398.946 1734.99 398.946C1736.76 398.946 1738.2 397.396 1738.2 395.515C1738.2 393.633 1736.76 392.084 1734.99 392.084C1733.33 392.084 1732 393.412 1731.78 395.072H1279.35C1279.13 393.412 1277.8 392.084 1276.14 392.084C1274.37 392.084 1272.93 393.633 1272.93 395.515C1272.93 397.507 1274.37 398.946 1276.14 398.946ZM1735.1 393.08C1736.43 393.08 1737.43 394.187 1737.43 395.626C1737.43 396.954 1736.32 398.171 1735.1 398.171C1733.77 398.171 1732.78 397.064 1732.78 395.626C1732.67 394.187 1733.77 393.08 1735.1 393.08ZM1276.14 393.08C1277.47 393.08 1278.47 394.187 1278.47 395.626C1278.47 396.954 1277.36 398.171 1276.14 398.171C1274.81 398.171 1273.82 397.064 1273.82 395.626C1273.82 394.187 1274.92 393.08 1276.14 393.08Z" fill="#252D4C"/>
<path d="M1547.74 360.321C1549.51 360.321 1550.95 358.771 1550.95 356.89C1550.95 355.008 1549.51 353.459 1547.74 353.459C1545.97 353.459 1544.53 355.008 1544.53 356.89C1544.42 358.771 1545.97 360.321 1547.74 360.321ZM1547.74 354.455C1549.06 354.455 1550.06 355.562 1550.06 357.001C1550.06 358.329 1548.95 359.546 1547.74 359.546C1546.41 359.546 1545.41 358.439 1545.41 357.001C1545.3 355.562 1546.41 354.455 1547.74 354.455Z" fill="#252D4C"/>
<path d="M1104.38 1.1877C1104.38 -0.693737 1102.94 -2.24316 1101.17 -2.24316C1099.4 -2.24316 1097.96 -0.693737 1097.96 1.1877C1097.96 3.06914 1099.4 4.61857 1101.17 4.61857C1102.94 4.61857 1104.38 3.06914 1104.38 1.1877ZM1098.74 1.1877C1098.74 -0.140373 1099.84 -1.35776 1101.06 -1.35776C1102.39 -1.35776 1103.39 -0.251046 1103.39 1.1877C1103.39 2.62645 1102.28 3.73316 1101.06 3.73316C1099.84 3.62249 1098.74 2.51578 1098.74 1.1877Z" fill="#252D4C"/>
</g>
<path d="M1073.72 60.7295C1056.46 68.8086 1040.3 79.1012 1025.69 91.3859L1027.46 93.5993C1041.96 81.536 1057.9 71.2434 1074.83 63.275L1073.72 60.7295Z" fill="#252D4C"/>
<path d="M1017.06 103.006L1015.07 100.903C1001.23 114.073 989.171 129.014 979.211 145.283L981.646 146.722C991.496 130.785 1003.34 116.065 1017.06 103.006Z" fill="#252D4C"/>
<path d="M1086.78 55.0854L1087.78 57.7416C1105.26 50.8799 1123.64 46.3423 1142.34 44.2395L1142.01 41.4727C1123.19 43.5754 1104.6 48.113 1086.78 55.0854Z" fill="#252D4C"/>
<path d="M1156.51 43.0217C1160.05 42.8003 1163.7 42.8004 1167.24 42.8004V39.9229C1163.59 39.9229 1159.94 40.0335 1156.29 40.1442L1156.51 43.0217Z" fill="#252D4C"/>
<path d="M1308.24 70.3586C1339.23 90.501 1365.01 118.28 1382.83 150.486C1401.31 183.798 1411.05 221.648 1411.05 259.941H1415.04C1415.04 340.843 1374.64 415.769 1307.02 460.259C1306.69 460.48 1306.58 460.812 1306.8 461.144C1306.91 461.476 1307.13 461.587 1307.46 461.587H1307.57L1308.13 461.477V461.255C1375.97 416.433 1416.48 341.175 1416.48 259.941H1416.25C1416.25 220.763 1406.29 182.027 1387.37 147.94C1369.11 114.96 1342.66 86.6275 1311 65.9316L1308.24 70.3586Z" fill="#252D4C"/>
<path d="M945.014 142.849L892.334 115.956C915.575 70.2477 950.105 30.5161 992.05 1.07715L1026.03 49.4412C991.829 73.5679 963.829 105.774 945.014 142.849Z" fill="#9CE8BA"/>
<path d="M1077.05 559.533C1030.68 544.592 987.734 518.584 952.762 484.164L994.264 441.998C1022.6 469.888 1057.46 491.026 1095.09 503.2L1077.05 559.533Z" fill="#9CE8BA"/>
<path d="M1173.44 574.584V515.484C1205.32 515.484 1236.31 509.729 1265.74 498.33L1287.1 553.445C1250.8 567.39 1212.62 574.584 1173.44 574.584Z" fill="#9CE8BA"/>
<path d="M1259.77 19.449C1251.69 16.5715 1243.28 14.1367 1234.98 12.1446L1248.7 -45.4053C1258.99 -42.9705 1269.29 -39.8716 1279.25 -36.4408L1259.77 19.449Z" fill="#9CE8BA"/>
<path d="M1113.02 12.366L1099.07 -45.0732C1114.57 -48.8361 1130.39 -51.3816 1146.33 -52.8203L1151.31 6.1683C1138.47 7.27504 1125.52 9.37783 1113.02 12.366Z" fill="#9CE8BA"/>
<path d="M1167.25 64.4932V65.9319C1217.27 65.9319 1264.75 84.857 1301.05 119.276C1301.16 119.387 1301.38 119.498 1301.49 119.498C1301.71 119.498 1301.82 119.387 1302.05 119.276L1302.16 119.166L1301.6 118.723L1302.05 118.28C1265.52 83.5289 1217.6 64.4932 1167.25 64.4932Z" fill="#9CE8BA"/>
<path d="M997.255 376.923C996.812 376.259 996.369 375.706 995.927 375.042L981.539 385.003C981.982 385.667 982.535 386.331 982.978 386.995L997.255 376.923Z" fill="#9CE8BA"/>
<path d="M1076.05 443.77C1075.39 443.438 1074.72 443.105 1074.06 442.773L1066.2 458.489C1066.98 458.821 1067.64 459.264 1068.41 459.596L1076.05 443.77Z" fill="#9CE8BA"/>
<path d="M991.385 368.291C990.943 367.627 990.611 366.963 990.168 366.409L975.338 375.706C975.781 376.37 976.223 377.144 976.666 377.808L991.385 368.291Z" fill="#9CE8BA"/>
<path d="M1017.17 401.05C1016.62 400.496 1016.18 399.943 1015.62 399.39L1002.9 411.453C1003.45 412.006 1004 412.67 1004.56 413.224L1017.17 401.05Z" fill="#9CE8BA"/>
<path d="M1032.45 415.326C1031.89 414.884 1031.34 414.33 1030.68 413.888L1019.17 427.168C1019.83 427.722 1020.38 428.275 1021.05 428.718L1032.45 415.326Z" fill="#9CE8BA"/>
<path d="M1049.05 427.943C1048.39 427.501 1047.83 427.058 1047.17 426.615L1037.1 440.892C1037.76 441.335 1038.43 441.777 1039.09 442.331L1049.05 427.943Z" fill="#9CE8BA"/>
<path d="M1057.79 433.698C1057.13 433.255 1056.47 432.923 1055.91 432.48L1046.51 447.311C1047.17 447.753 1047.94 448.196 1048.61 448.639L1057.79 433.698Z" fill="#9CE8BA"/>
<path d="M1024.7 408.354C1024.15 407.801 1023.59 407.358 1023.04 406.805L1010.87 419.421C1011.42 419.975 1012.08 420.528 1012.64 421.082L1024.7 408.354Z" fill="#9CE8BA"/>
<path d="M1003.45 385.334C1003.01 384.781 1002.57 384.117 1002.01 383.563L988.18 394.299C988.733 394.963 989.176 395.627 989.729 396.291L1003.45 385.334Z" fill="#9CE8BA"/>
<path d="M1010.2 393.302C1009.65 392.749 1009.21 392.195 1008.76 391.531L995.373 402.931C995.926 403.595 996.48 404.148 997.033 404.812L1010.2 393.302Z" fill="#9CE8BA"/>
<path d="M1040.64 421.856C1040.09 421.413 1039.42 420.97 1038.87 420.417L1028.13 434.251C1028.8 434.804 1029.46 435.247 1030.12 435.801L1040.64 421.856Z" fill="#9CE8BA"/>
<path d="M1066.76 438.9C1066.09 438.568 1065.43 438.125 1064.77 437.793L1056.13 453.066C1056.8 453.509 1057.57 453.841 1058.24 454.283L1066.76 438.9Z" fill="#9CE8BA"/>
<path d="M1166.81 482.062V464.576C1166.03 464.576 1165.26 464.576 1164.48 464.576L1164.26 482.062C1165.15 482.062 1165.92 482.062 1166.81 482.062Z" fill="#9CE8BA"/>
<path d="M1209.41 478.189C1210.19 478.078 1211.07 477.857 1211.85 477.746L1208.42 460.592C1207.64 460.702 1206.98 460.924 1206.2 461.035L1209.41 478.189Z" fill="#9CE8BA"/>
<path d="M1175.66 481.952C1176.43 481.952 1177.32 481.841 1178.09 481.841L1177.21 464.354C1176.43 464.354 1175.66 464.465 1174.99 464.465L1175.66 481.952Z" fill="#9CE8BA"/>
<path d="M1220.48 475.754C1221.26 475.533 1222.03 475.311 1222.92 475.201L1218.6 458.268C1217.83 458.489 1217.16 458.6 1216.39 458.821L1220.48 475.754Z" fill="#9CE8BA"/>
<path d="M1198.13 479.959C1198.9 479.849 1199.79 479.738 1200.56 479.627L1198.02 462.362C1197.24 462.473 1196.47 462.584 1195.8 462.694L1198.13 479.959Z" fill="#9CE8BA"/>
<path d="M1252.8 465.24C1253.57 464.908 1254.35 464.576 1255.12 464.244L1248.26 448.086C1247.6 448.418 1246.82 448.639 1246.16 448.971L1252.8 465.24Z" fill="#9CE8BA"/>
<path d="M1242.17 469.336C1242.95 469.114 1243.72 468.782 1244.5 468.45L1238.52 451.96C1237.86 452.181 1237.08 452.513 1236.42 452.735L1242.17 469.336Z" fill="#9CE8BA"/>
<path d="M1226.46 456.054L1231.44 472.877C1232.21 472.655 1232.99 472.434 1233.76 472.213L1228.56 455.501C1227.9 455.612 1227.12 455.833 1226.46 456.054Z" fill="#9CE8BA"/>
<path d="M1110.81 475.09L1115.12 458.157C1114.35 457.936 1113.68 457.825 1112.91 457.604L1108.37 474.536C1109.15 474.647 1110.03 474.868 1110.81 475.09Z" fill="#9CE8BA"/>
<path d="M1099.85 471.991L1105.05 455.279C1104.27 455.058 1103.61 454.837 1102.95 454.615L1097.52 471.327C1098.3 471.437 1099.07 471.659 1099.85 471.991Z" fill="#9CE8BA"/>
<path d="M970.803 367.959L985.966 359.326C985.633 358.662 985.191 357.998 984.859 357.334L969.586 365.856C969.918 366.52 970.361 367.295 970.803 367.959Z" fill="#9CE8BA"/>
<path d="M1089.22 468.339L1095.31 451.959C1094.65 451.738 1093.87 451.406 1093.21 451.185L1087.01 467.564C1087.67 467.786 1088.45 468.007 1089.22 468.339Z" fill="#9CE8BA"/>
<path d="M1078.71 464.133L1085.57 447.975C1084.91 447.643 1084.13 447.422 1083.47 447.09L1076.38 463.137C1077.16 463.469 1077.93 463.801 1078.71 464.133Z" fill="#9CE8BA"/>
<path d="M1144.12 480.955L1145.89 463.58C1145.12 463.469 1144.34 463.469 1143.68 463.358L1141.69 480.734C1142.57 480.845 1143.35 480.845 1144.12 480.955Z" fill="#9CE8BA"/>
<path d="M1121.76 477.525L1125.3 460.37C1124.53 460.26 1123.87 460.038 1123.09 459.928L1119.33 477.082C1120.21 477.193 1120.99 477.414 1121.76 477.525Z" fill="#9CE8BA"/>
<path d="M1155.4 481.841L1156.29 464.355C1155.52 464.355 1154.74 464.244 1153.97 464.244L1152.86 481.73C1153.86 481.73 1154.63 481.73 1155.4 481.841Z" fill="#9CE8BA"/>
<path d="M1132.94 479.517L1135.6 462.252C1134.82 462.141 1134.05 462.031 1133.38 461.92L1130.62 479.185C1131.28 479.296 1132.16 479.406 1132.94 479.517Z" fill="#9CE8BA"/>
<path d="M1186.95 481.287C1187.73 481.177 1188.61 481.177 1189.39 481.066L1187.73 463.69C1186.95 463.801 1186.18 463.801 1185.51 463.912L1186.95 481.287Z" fill="#9CE8BA"/>
<path d="M1275.49 454.505L1267.07 439.121C1266.41 439.453 1265.75 439.896 1265.08 440.228L1273.27 455.722C1273.94 455.279 1274.71 454.837 1275.49 454.505Z" fill="#9CE8BA"/>
<path d="M1329.27 413.445L1316.65 401.271C1316.1 401.825 1315.55 402.378 1315.11 402.932L1327.5 415.216C1328.16 414.663 1328.72 413.999 1329.27 413.445Z" fill="#9CE8BA"/>
<path d="M1285.23 448.749L1276.04 433.809C1275.38 434.251 1274.71 434.583 1274.05 435.026L1283.01 450.077C1283.79 449.635 1284.56 449.192 1285.23 448.749Z" fill="#9CE8BA"/>
<path d="M1336.91 405.145L1323.74 393.635C1323.19 394.188 1322.74 394.741 1322.19 395.295L1335.25 407.026C1335.8 406.362 1336.36 405.698 1336.91 405.145Z" fill="#9CE8BA"/>
<path d="M1265.42 459.707L1257.78 443.991C1257.11 444.323 1256.45 444.655 1255.68 444.987L1263.09 460.813C1263.87 460.371 1264.64 460.039 1265.42 459.707Z" fill="#9CE8BA"/>
<path d="M1312.67 428.829L1301.38 415.438C1300.83 415.88 1300.28 416.434 1299.61 416.876L1310.79 430.378C1311.46 429.936 1312.12 429.382 1312.67 428.829Z" fill="#9CE8BA"/>
<path d="M1294.74 442.553L1284.78 428.165C1284.12 428.608 1283.56 429.05 1282.9 429.493L1292.64 443.991C1293.41 443.549 1294.08 443.106 1294.74 442.553Z" fill="#9CE8BA"/>
<path d="M1307.58 410.125L1319.42 423.073C1319.98 422.52 1320.64 421.967 1321.19 421.413L1309.24 408.575C1308.69 409.129 1308.14 409.571 1307.58 410.125Z" fill="#9CE8BA"/>
<path d="M1303.93 436.022L1293.3 422.077C1292.75 422.52 1292.09 422.963 1291.53 423.405L1302.05 437.461C1302.6 436.907 1303.26 436.465 1303.93 436.022Z" fill="#9CE8BA"/>
<path d="M1282.01 375.152C1312.67 344.495 1329.49 303.768 1329.49 260.384C1329.49 210.802 1307.25 164.541 1268.4 133.553L1267.18 134.991C1305.59 165.648 1327.61 211.356 1327.61 260.384C1327.61 303.214 1310.9 343.499 1280.68 373.823C1250.36 404.148 1210.07 420.749 1167.24 420.749C1118.33 420.749 1072.73 398.836 1042.07 360.653L1040.63 361.871C1071.62 400.496 1117.77 422.741 1167.36 422.741C1210.63 422.63 1251.36 405.808 1282.01 375.152Z" fill="#252D4C"/>
<path d="M1555.59 58.5156H1549.39V73.4565H1555.59V58.5156Z" fill="#87C5F1"/>
<path d="M1520.84 58.5156H1514.64V73.4565H1520.84V58.5156Z" fill="#87C5F1"/>
<path d="M1538.22 58.5156H1532.02V73.4565H1538.22V58.5156Z" fill="#87C5F1"/>
<path d="M1573.08 58.5156H1566.88V73.4565H1573.08V58.5156Z" fill="#87C5F1"/>
<path d="M214.465 533.523H207.492V550.124H214.465V533.523Z" fill="#9CE8BA"/>
<path d="M253.197 533.523H246.225V550.124H253.197V533.523Z" fill="#9CE8BA"/>
<path d="M272.676 533.523H265.703V550.124H272.676V533.523Z" fill="#9CE8BA"/>
<path d="M195.093 533.523H188.121V550.124H195.093V533.523Z" fill="#9CE8BA"/>
<path d="M292.041 533.523H285.068V550.124H292.041V533.523Z" fill="#9CE8BA"/>
<path d="M330.777 533.523H323.805V550.124H330.777V533.523Z" fill="#9CE8BA"/>
<path d="M311.41 533.523H304.438V550.124H311.41V533.523Z" fill="#9CE8BA"/>
<path d="M175.726 533.523H168.754V550.124H175.726V533.523Z" fill="#9CE8BA"/>
<path d="M233.828 533.523H226.855V550.124H233.828V533.523Z" fill="#9CE8BA"/>
<path d="M741.813 447.42L757.418 431.483L741.813 415.436L737.275 419.862L748.564 431.483L737.275 442.993L741.813 447.42Z" fill="#9CE8BA"/>
<path d="M763.838 447.42L779.443 431.483L763.838 415.436L759.301 419.862L770.589 431.483L759.301 442.993L763.838 447.42Z" fill="#9CE8BA"/>
<path d="M785.747 447.42L801.462 431.483L785.747 415.436L781.209 419.862L792.608 431.483L781.32 442.993L785.747 447.42Z" fill="#9CE8BA"/>
<path d="M1555.59 347.926L1570.31 332.874L1555.59 317.712L1553.16 320.036L1565.67 332.874L1553.16 345.491L1555.59 347.926Z" fill="#9CE8BA"/>
<path d="M1577.73 347.926L1592.56 332.874L1577.73 317.712L1575.3 320.036L1587.8 332.874L1575.3 345.491L1577.73 347.926Z" fill="#9CE8BA"/>
<path d="M1599.98 347.926L1614.7 332.874L1599.98 317.712L1597.54 320.036L1609.94 332.874L1597.54 345.491L1599.98 347.926Z" fill="#9CE8BA"/>
<path d="M1622.11 347.926L1636.83 332.874L1622.11 317.712L1619.68 320.036L1632.07 332.874L1619.68 345.491L1622.11 347.926Z" fill="#9CE8BA"/>
<path d="M1644.25 347.926L1658.96 332.874L1644.25 317.712L1641.81 320.036L1654.32 332.874L1641.81 345.491L1644.25 347.926Z" fill="#9CE8BA"/>
<path d="M1666.38 347.926L1681.21 332.874L1666.38 317.712L1663.94 320.036L1676.45 332.874L1663.94 345.491L1666.38 347.926Z" fill="#9CE8BA"/>
<path d="M1688.62 347.926L1703.34 332.874L1688.62 317.712L1686.19 320.036L1698.58 332.874L1686.19 345.491L1688.62 347.926Z" fill="#9CE8BA"/>
<path d="M1494.84 538.392C1499.37 538.392 1503.03 534.74 1503.03 530.203C1503.03 525.665 1499.37 522.013 1494.84 522.013C1490.3 522.013 1486.65 525.665 1486.65 530.203C1486.65 534.74 1490.3 538.392 1494.84 538.392ZM1494.84 523.562C1498.49 523.562 1501.48 526.55 1501.48 530.203C1501.48 533.855 1498.49 536.843 1494.84 536.843C1491.18 536.843 1488.2 533.855 1488.2 530.203C1488.09 526.55 1491.07 523.562 1494.84 523.562Z" fill="#87C5F1"/>
<path d="M1511.44 530.203C1511.44 534.74 1515.09 538.392 1519.63 538.392C1524.16 538.392 1527.82 534.74 1527.82 530.203C1527.82 525.665 1524.16 522.013 1519.63 522.013C1515.09 522.123 1511.44 525.776 1511.44 530.203ZM1526.27 530.203C1526.27 533.855 1523.28 536.843 1519.63 536.843C1515.97 536.843 1512.99 533.855 1512.99 530.203C1512.99 526.55 1515.97 523.562 1519.63 523.562C1523.28 523.562 1526.27 526.55 1526.27 530.203Z" fill="#87C5F1"/>
<path d="M1536.23 530.203C1536.23 534.74 1539.88 538.392 1544.42 538.392C1548.95 538.392 1552.61 534.74 1552.61 530.203C1552.61 525.665 1548.95 522.013 1544.42 522.013C1539.88 522.013 1536.23 525.776 1536.23 530.203Z" fill="#87C5F1"/>
<path d="M1561.02 530.203C1561.02 534.74 1564.67 538.392 1569.21 538.392C1573.74 538.392 1577.4 534.74 1577.4 530.203C1577.4 525.665 1573.74 522.013 1569.21 522.013C1564.67 522.123 1561.02 525.776 1561.02 530.203Z" fill="#87C5F1"/>
<path d="M1585.81 530.203C1585.81 534.74 1589.46 538.392 1594 538.392C1598.54 538.392 1602.19 534.74 1602.19 530.203C1602.19 525.665 1598.54 522.013 1594 522.013C1589.46 522.123 1585.81 525.776 1585.81 530.203Z" fill="#87C5F1"/>
<path d="M1819.66 581.556C1819.66 577.24 1816.12 573.698 1811.8 573.698C1807.49 573.698 1803.95 577.24 1803.95 581.556C1803.95 585.872 1807.49 589.414 1811.8 589.414C1816.12 589.414 1819.66 585.872 1819.66 581.556ZM1805.27 581.556C1805.27 577.904 1808.26 575.026 1811.8 575.026C1815.34 575.026 1818.33 578.015 1818.33 581.556C1818.33 585.208 1815.34 588.086 1811.8 588.086C1808.26 588.086 1805.27 585.208 1805.27 581.556Z" fill="#9CE8BA"/>
<path d="M1843.79 581.556C1843.79 577.24 1840.25 573.698 1835.93 573.698C1831.61 573.698 1828.07 577.24 1828.07 581.556C1828.07 585.872 1831.61 589.414 1835.93 589.414C1840.25 589.414 1843.79 585.872 1843.79 581.556ZM1829.29 581.556C1829.29 577.904 1832.28 575.026 1835.82 575.026C1839.47 575.026 1842.35 578.015 1842.35 581.556C1842.35 585.208 1839.36 588.086 1835.82 588.086C1832.28 588.086 1829.29 585.208 1829.29 581.556Z" fill="#9CE8BA"/>
<path d="M1868.47 581.556C1868.47 577.24 1864.92 573.698 1860.61 573.698C1856.29 573.698 1852.75 577.24 1852.75 581.556C1852.75 585.872 1856.29 589.414 1860.61 589.414C1864.92 589.414 1868.47 585.872 1868.47 581.556ZM1853.97 581.556C1853.97 577.904 1856.96 575.026 1860.5 575.026C1864.15 575.026 1867.03 578.015 1867.03 581.556C1867.03 585.208 1864.04 588.086 1860.5 588.086C1856.96 588.086 1853.97 585.208 1853.97 581.556Z" fill="#9CE8BA"/>
<path d="M1892.48 581.556C1892.48 577.24 1888.94 573.698 1884.62 573.698C1880.31 573.698 1876.76 577.24 1876.76 581.556C1876.76 585.872 1880.31 589.414 1884.62 589.414C1888.94 589.414 1892.48 585.872 1892.48 581.556ZM1878.09 581.556C1878.09 577.904 1881.08 575.026 1884.62 575.026C1888.27 575.026 1891.15 578.015 1891.15 581.556C1891.15 585.208 1888.16 588.086 1884.62 588.086C1881.08 588.086 1878.09 585.208 1878.09 581.556Z" fill="#9CE8BA"/>
<path d="M1916.17 581.556C1916.17 577.24 1912.63 573.698 1908.31 573.698C1903.99 573.698 1900.45 577.24 1900.45 581.556C1900.45 585.872 1903.99 589.414 1908.31 589.414C1912.63 589.414 1916.17 585.872 1916.17 581.556ZM1901.78 581.556C1901.78 577.904 1904.77 575.026 1908.31 575.026C1911.96 575.026 1914.84 578.015 1914.84 581.556C1914.84 585.208 1911.85 588.086 1908.31 588.086C1904.66 588.086 1901.78 585.208 1901.78 581.556Z" fill="#9CE8BA"/>
<path d="M204.83 3.06836H201.51V42.1359H204.83V3.06836Z" fill="#87C5F1"/>
<path d="M212.91 3.06836H209.59V42.1359H212.91V3.06836Z" fill="#87C5F1"/>
<path d="M220.877 3.06836H217.557V42.1359H220.877V3.06836Z" fill="#87C5F1"/>
<path d="M228.957 3.06836H225.637V42.1359H228.957V3.06836Z" fill="#87C5F1"/>
<path d="M236.928 3.06836H233.607V42.1359H236.928V3.06836Z" fill="#87C5F1"/>
<path d="M245.004 3.06836H241.684V42.1359H245.004V3.06836Z" fill="#87C5F1"/>
<path d="M253.086 3.06836H249.766V42.1359H253.086V3.06836Z" fill="#87C5F1"/>
<path d="M261.055 3.06836H257.734V42.1359H261.055V3.06836Z" fill="#87C5F1"/>
<path d="M269.133 3.06836H265.812V42.1359H269.133V3.06836Z" fill="#87C5F1"/>
<path d="M277.209 3.06836H273.889V42.1359H277.209V3.06836Z" fill="#87C5F1"/>
<path d="M285.18 3.06836H281.859V42.1359H285.18V3.06836Z" fill="#87C5F1"/>
<path d="M293.26 3.06836H289.939V42.1359H293.26V3.06836Z" fill="#87C5F1"/>
<path d="M301.338 3.06836H298.018V42.1359H301.338V3.06836Z" fill="#87C5F1"/>
<path d="M309.307 3.06836H305.986V42.1359H309.307V3.06836Z" fill="#87C5F1"/>
<path d="M317.385 3.06836H314.064V42.1359H317.385V3.06836Z" fill="#87C5F1"/>
<path d="M325.353 3.06836H322.033V42.1359H325.353V3.06836Z" fill="#87C5F1"/>
<path d="M333.432 3.06836H330.111V42.1359H333.432V3.06836Z" fill="#87C5F1"/>
<path d="M341.512 3.06836H338.191V42.1359H341.512V3.06836Z" fill="#87C5F1"/>
<path d="M349.478 3.06836H346.158V42.1359H349.478V3.06836Z" fill="#87C5F1"/>
<path d="M357.558 3.06836H354.238V42.1359H357.558V3.06836Z" fill="#87C5F1"/>
<path d="M365.639 3.06836H362.318V42.1359H365.639V3.06836Z" fill="#87C5F1"/>
<path d="M373.605 3.06836H370.285V42.1359H373.605V3.06836Z" fill="#87C5F1"/>
<path d="M381.685 3.06836H378.365V42.1359H381.685V3.06836Z" fill="#87C5F1"/>
<path d="M389.764 3.06836H386.443V42.1359H389.764V3.06836Z" fill="#87C5F1"/>
<path d="M397.732 3.06836H394.412V42.1359H397.732V3.06836Z" fill="#87C5F1"/>
<path d="M405.81 3.06836H402.49V42.1359H405.81V3.06836Z" fill="#87C5F1"/>
<path d="M413.779 3.06836H410.459V42.1359H413.779V3.06836Z" fill="#87C5F1"/>
<path d="M1853.75 146.06C1852.31 146.06 1851.09 147.056 1850.76 148.384H1467.28C1466.94 147.056 1465.73 146.06 1464.29 146.06C1462.63 146.06 1461.19 147.388 1461.19 149.158C1461.19 150.819 1462.52 152.257 1464.29 152.257C1465.73 152.257 1466.94 151.261 1467.28 149.933H1850.76C1851.09 151.261 1852.31 152.257 1853.75 152.257C1855.41 152.257 1856.84 150.929 1856.84 149.158C1856.73 147.498 1855.41 146.06 1853.75 146.06Z" fill="#30A842"/>
<path d="M1606.39 190.992H1733.22C1733.56 192.32 1734.77 193.316 1736.21 193.316C1737.87 193.316 1739.31 191.988 1739.31 190.217C1739.31 188.557 1737.98 187.118 1736.21 187.118C1734.77 187.118 1733.56 188.114 1733.22 189.442H1605.84L1548.95 245.553L1548.73 245.775L1549.17 246.218H1466.06C1465.73 244.889 1464.51 243.893 1463.07 243.893C1461.41 243.893 1459.97 245.221 1459.97 246.992C1459.97 248.652 1461.3 250.091 1463.07 250.091C1464.51 250.091 1465.73 249.095 1466.06 247.767H1914.62C1914.95 249.095 1916.17 250.091 1917.6 250.091C1919.27 250.091 1920.7 248.763 1920.7 246.992C1920.7 245.332 1919.38 243.893 1917.6 243.893C1916.17 243.893 1914.95 244.889 1914.62 246.218H1550.39L1606.39 190.992Z" fill="#30A842"/>
<path d="M1532.9 442.773L1557.47 418.204L1638.93 484.386L1639.04 484.497H1906.42C1906.76 485.825 1907.97 486.821 1909.41 486.821C1911.07 486.821 1912.51 485.493 1912.51 483.722C1912.51 482.062 1911.18 480.623 1909.41 480.623C1907.97 480.623 1906.76 481.619 1906.42 482.947H1639.7L1558.47 417.208L1557.69 417.761L1573.08 402.377H1764.32C1764.65 403.706 1765.87 404.702 1767.31 404.702C1768.97 404.702 1770.41 403.373 1770.41 401.603C1770.41 399.943 1769.08 398.504 1767.31 398.504C1765.87 398.504 1764.65 399.5 1764.32 400.828H1572.52L1532.24 441.113H1443.59L1412.71 471.548C1412.27 471.327 1411.83 471.216 1411.27 471.216C1409.61 471.216 1408.17 472.544 1408.17 474.315C1408.17 475.975 1409.5 477.414 1411.27 477.414C1412.93 477.414 1414.37 476.086 1414.37 474.315C1414.37 473.651 1414.15 473.097 1413.82 472.544L1444.25 442.662H1532.9V442.773Z" fill="#30A842"/>
<path d="M1497.93 363.31C1496.27 363.31 1494.83 364.638 1494.83 366.408C1494.83 368.069 1496.16 369.507 1497.93 369.507C1499.15 369.507 1500.26 368.733 1500.7 367.737H1782.47L1816.67 324.463H1907.31C1907.64 325.791 1908.86 326.788 1910.3 326.788C1911.96 326.788 1913.4 325.46 1913.4 323.689C1913.4 322.029 1912.07 320.59 1910.3 320.59C1908.86 320.59 1907.64 321.586 1907.31 322.914H1815.9L1781.7 366.187H1500.92C1500.92 364.638 1499.59 363.31 1497.93 363.31Z" fill="#30A842"/>
<path d="M1736.66 291.483C1736.99 292.811 1738.21 293.807 1739.65 293.807C1741.31 293.807 1742.74 292.479 1742.74 290.708C1742.74 289.048 1741.42 287.609 1739.65 287.609C1738.21 287.609 1736.99 288.605 1736.66 289.934H1521.18L1492.73 318.376C1492.4 318.266 1492.07 318.155 1491.63 318.155C1489.97 318.155 1488.53 319.483 1488.53 321.254C1488.53 322.914 1489.86 324.353 1491.63 324.353C1493.29 324.353 1494.73 323.025 1494.73 321.254C1494.73 320.479 1494.39 319.705 1493.95 319.151L1521.73 291.372H1736.66V291.483Z" fill="#30A842"/>
<path d="M1438.28 37.1564C1439.72 37.1564 1440.94 36.1603 1441.27 34.8322H1695.82L1745.4 -24.2671H1849.98C1850.32 -22.939 1851.53 -21.9429 1852.97 -21.9429C1854.63 -21.9429 1856.07 -23.271 1856.07 -25.0418C1856.07 -26.8126 1854.74 -28.1406 1852.97 -28.1406C1851.53 -28.1406 1850.32 -27.1446 1849.98 -25.8165H1744.73L1695.15 33.2828H1441.27C1440.94 31.9547 1439.72 30.9587 1438.28 30.9587C1436.62 30.9587 1435.18 32.2868 1435.18 34.0575C1435.18 35.8283 1436.51 37.1564 1438.28 37.1564Z" fill="#30A842"/>
<path d="M1420.68 82.4216C1421.24 82.4216 1421.79 82.3109 1422.23 81.9789L1454.22 104.556H1454.33H1663.61C1663.94 105.884 1665.16 106.88 1666.6 106.88C1668.26 106.88 1669.7 105.552 1669.7 103.781C1669.7 102.121 1668.37 100.683 1666.6 100.683C1665.16 100.683 1663.94 101.679 1663.61 103.007H1454.88L1423.34 80.8722C1423.67 80.4295 1423.78 79.7655 1423.78 79.2121C1423.78 77.552 1422.46 76.1133 1420.68 76.1133C1419.02 76.1133 1417.59 77.4413 1417.59 79.2121C1417.59 80.9829 1418.91 82.4216 1420.68 82.4216Z" fill="#30A842"/>
<path d="M1938.85 532.972C1937.42 532.972 1936.2 533.968 1935.87 535.296H1628.42L1603.29 560.419H1369.77C1369.44 559.09 1368.23 558.094 1366.79 558.094C1365.13 558.094 1363.69 559.422 1363.69 561.193C1363.69 562.853 1365.02 564.292 1366.79 564.292C1368.23 564.292 1369.44 563.296 1369.77 561.968H1603.96L1629.08 536.845H1712.31L1791.55 620.846H1916.61C1916.94 622.174 1918.16 623.17 1919.6 623.17C1921.26 623.17 1922.7 621.842 1922.7 620.071C1922.7 618.411 1921.37 616.972 1919.6 616.972C1918.16 616.972 1916.94 617.968 1916.61 619.297H1792.1L1714.3 536.735H1935.98C1936.31 538.063 1937.53 539.059 1938.96 539.059C1940.62 539.059 1942.06 537.731 1942.06 535.96C1941.95 534.41 1940.63 532.972 1938.85 532.972Z" fill="#30A842"/>
<path d="M711.603 491.026C709.943 491.026 708.504 492.354 708.504 494.125C708.504 495.785 709.832 497.224 711.603 497.224C713.041 497.224 714.259 496.227 714.591 494.899H821.612L862.671 451.294C863.114 451.516 863.557 451.626 863.999 451.626C865.659 451.626 867.098 450.298 867.098 448.528C867.098 446.867 865.77 445.429 863.999 445.429C862.339 445.429 860.9 446.757 860.9 448.528C860.9 449.192 861.122 449.856 861.564 450.409L821.058 493.571H714.591C714.259 492.022 713.041 491.026 711.603 491.026Z" fill="#30A842"/>
<path d="M849.394 400.717H873.632C873.964 402.045 875.181 403.041 876.62 403.041C878.28 403.041 879.719 401.713 879.719 399.943C879.719 398.172 878.391 396.844 876.62 396.844C875.181 396.844 873.964 397.84 873.632 399.168H849.948L828.698 373.713L828.588 373.602H795.718C795.386 372.274 794.169 371.278 792.73 371.278C791.07 371.278 789.631 372.606 789.631 374.377C789.631 376.037 790.959 377.476 792.73 377.476C794.169 377.476 795.386 376.48 795.718 375.152H827.924L849.394 400.717Z" fill="#30A842"/>
<path d="M753.659 556.434C752.221 556.434 751.003 557.43 750.671 558.758H418.21C417.878 557.43 416.661 556.434 415.222 556.434C413.562 556.434 412.123 557.762 412.123 559.532C412.123 561.303 413.451 562.631 415.222 562.631C416.661 562.631 417.878 561.635 418.21 560.307H750.671C751.003 561.635 752.221 562.631 753.659 562.631C755.32 562.631 756.758 561.303 756.758 559.532C756.758 557.762 755.32 556.434 753.659 556.434Z" fill="#30A842"/>
<path d="M504.093 384.006C505.532 384.006 506.749 383.01 507.081 381.682H708.284L733.407 354.456C733.85 354.788 734.403 354.899 734.957 354.899C736.617 354.899 738.055 353.571 738.055 351.8C738.055 350.14 736.727 348.701 734.957 348.701C733.297 348.701 731.858 350.029 731.858 351.8C731.858 352.353 731.968 352.907 732.3 353.46L707.62 380.243H507.081C506.749 378.804 505.532 377.808 504.093 377.808C502.433 377.808 500.994 379.136 500.994 380.907C500.994 382.567 502.322 384.006 504.093 384.006Z" fill="#30A842"/>
<path d="M582.337 631.249C583.776 631.249 584.993 630.253 585.325 628.925H810.213L901.628 530.648C902.071 530.98 902.624 531.09 903.178 531.09C904.838 531.09 906.277 529.762 906.277 527.991C906.277 526.331 904.949 524.893 903.178 524.893C901.518 524.893 900.079 526.221 900.079 527.991C900.079 528.545 900.19 529.098 900.522 529.651L809.548 627.486H585.325C584.993 626.048 583.776 625.052 582.337 625.052C580.677 625.052 579.238 626.38 579.238 628.15C579.349 629.81 580.677 631.249 582.337 631.249Z" fill="#30A842"/>
<path d="M710.5 69.916C710.5 71.6867 711.939 73.2361 713.82 73.2361C715.37 73.2361 716.698 72.1294 717.03 70.6907H871.086L896.32 48.5561C896.873 49.1094 897.648 49.3308 898.533 49.3308C900.304 49.3308 901.853 47.8921 901.853 46.0106C901.853 44.2398 900.415 42.6904 898.533 42.6904C896.652 42.6904 895.213 44.1292 895.213 46.0106C895.213 46.4533 895.324 46.896 895.545 47.3387L870.644 69.2519H717.03C716.698 67.8132 715.37 66.7065 713.82 66.7065C711.939 66.5958 710.5 68.0345 710.5 69.916Z" fill="#30A842"/>
<path d="M166.762 -22.1637C168.311 -22.1637 169.639 -23.2704 169.971 -24.7091H637.121L688.363 19.4493C688.031 20.0027 687.92 20.5561 687.92 21.1094C687.92 22.8802 689.359 24.4296 691.24 24.4296C693.122 24.4296 694.56 22.9909 694.56 21.1094C694.56 19.3387 693.122 17.7892 691.24 17.7892C690.576 17.7892 689.912 18.0106 689.359 18.3426L637.675 -26.1479H169.971C169.639 -27.5866 168.311 -28.6934 166.762 -28.6934C164.991 -28.6934 163.441 -27.2546 163.441 -25.3732C163.441 -23.7131 164.991 -22.1637 166.762 -22.1637Z" fill="#30A842"/>
<path d="M477.198 418.646L509.846 451.295H687.698C688.14 452.512 689.247 453.287 690.575 453.287C692.235 453.287 693.674 451.959 693.674 450.188C693.674 448.528 692.346 447.089 690.575 447.089C689.026 447.089 687.698 448.196 687.476 449.745H510.4L477.751 417.097H291.267L270.461 437.903C270.129 437.792 269.686 437.682 269.244 437.682C267.583 437.682 266.145 439.01 266.145 440.781C266.145 442.441 267.473 443.88 269.244 443.88C270.904 443.88 272.342 442.551 272.342 440.781C272.342 440.006 272.121 439.342 271.568 438.789L291.821 418.535H460.154L370.177 516.924H141.416C141.306 515.374 139.978 514.046 138.318 514.046C136.657 514.046 135.219 515.374 135.219 517.145C135.219 518.805 136.547 520.244 138.318 520.244C139.535 520.244 140.642 519.469 141.195 518.362H370.731L461.814 418.646H477.198Z" fill="#30A842"/>
<path d="M306.433 103.671L306.211 103.45H203.286C202.954 102.011 201.625 100.904 200.076 100.904C198.305 100.904 196.756 102.343 196.756 104.224C196.756 105.995 198.195 107.545 200.076 107.545C201.625 107.545 202.954 106.438 203.286 104.999H305.658L353.801 150.818L354.022 151.039H571.052L581.676 138.201C582.008 138.312 582.34 138.422 582.783 138.422C584.554 138.422 586.103 136.984 586.103 135.102C586.103 133.331 584.664 131.782 582.783 131.782C581.012 131.782 579.463 133.221 579.463 135.102C579.463 135.988 579.795 136.873 580.459 137.537L570.387 149.711H354.575L306.433 103.671Z" fill="#30A842"/>
<path d="M1302.15 400.606L1303.15 401.602C1321.96 383.562 1336.68 362.313 1347.09 338.408C1357.82 313.728 1363.25 287.498 1363.25 260.384C1363.25 228.731 1355.5 197.189 1340.89 169.3L1339.67 169.964C1354.17 197.632 1361.92 228.842 1361.92 260.384C1361.92 287.277 1356.49 313.396 1345.87 337.855C1335.47 361.539 1320.75 382.566 1302.15 400.606Z" fill="#87C5F1"/>
<path d="M1278.69 392.97C1263.42 405.808 1246.26 415.879 1227.56 422.741C1208.3 429.934 1187.94 433.587 1167.24 433.587V436.464C1188.38 436.464 1208.97 432.812 1228.55 425.508C1247.48 418.425 1264.97 408.243 1280.46 395.183L1278.69 392.97Z" fill="#87C5F1"/>
<path d="M1222.24 100.683L1225.9 89.9476C1225.12 89.7262 1224.35 89.3942 1223.57 89.1729L1220.03 99.9081C1220.81 100.129 1221.47 100.351 1222.24 100.683Z" fill="#87C5F1"/>
<path d="M1212.18 97.4732L1215.16 86.5166C1214.39 86.2952 1213.62 86.0739 1212.84 85.8525L1209.96 96.8091C1210.74 97.1412 1211.4 97.3625 1212.18 97.4732Z" fill="#87C5F1"/>
<path d="M1259.99 119.165L1266.19 109.647C1265.52 109.205 1264.86 108.762 1264.09 108.319L1258 117.948C1258.66 118.28 1259.33 118.723 1259.99 119.165Z" fill="#87C5F1"/>
<path d="M1250.91 113.632L1256.56 103.782C1255.89 103.339 1255.12 103.007 1254.45 102.564L1248.92 112.525C1249.58 112.857 1250.25 113.3 1250.91 113.632Z" fill="#87C5F1"/>
<path d="M1232.09 104.335L1236.41 93.821C1235.64 93.4889 1234.86 93.1569 1234.2 92.9355L1229.99 103.449C1230.66 103.781 1231.32 104.114 1232.09 104.335Z" fill="#87C5F1"/>
<path d="M1241.61 108.761L1246.59 98.5794C1245.82 98.2474 1245.15 97.9153 1244.38 97.4727L1239.51 107.765C1240.28 107.987 1240.95 108.319 1241.61 108.761Z" fill="#87C5F1"/>
<path d="M1284.11 123.149C1283.45 122.596 1282.89 122.042 1282.23 121.6L1275.04 130.343C1275.59 130.785 1276.25 131.339 1276.81 131.782L1284.11 123.149Z" fill="#87C5F1"/>
<path d="M1292.41 130.675C1291.86 130.121 1291.2 129.568 1290.64 129.015L1282.9 137.315C1283.45 137.868 1284 138.311 1284.56 138.865L1292.41 130.675Z" fill="#87C5F1"/>
<path d="M1201.88 95.0383L1204.21 83.971C1203.43 83.7497 1202.66 83.639 1201.77 83.5283L1199.56 94.7063C1200.44 94.7063 1201.22 94.9276 1201.88 95.0383Z" fill="#87C5F1"/>
<path d="M1266.74 123.813C1267.4 124.255 1267.96 124.698 1268.62 125.141L1275.48 116.066C1274.82 115.623 1274.15 115.07 1273.49 114.627L1266.74 123.813Z" fill="#87C5F1"/>
<path d="M1095.42 107.545C1118 96.92 1142.12 91.497 1167.24 91.497C1175.1 91.497 1183.07 92.0503 1190.82 93.1571L1192.37 81.8684C1184.07 80.7617 1175.54 80.0977 1167.13 80.0977C1140.35 80.0977 1114.45 85.8527 1090.44 97.1413L1095.42 107.545Z" fill="#87C5F1"/>
<path d="M957.08 121.157L933.617 105.995C970.803 48.445 1027.47 6.38926 1093.1 -12.3145L1100.73 14.5791C1041.63 31.4013 990.614 69.2515 957.08 121.157Z" fill="#87C5F1"/>
<path d="M930.963 407.579C924.987 397.95 919.564 387.99 914.805 377.697L940.149 365.966C944.465 375.152 949.335 384.227 954.758 392.859L930.963 407.579Z" fill="#87C5F1"/>
<path d="M991.5 476.527C979.658 466.788 968.591 456.053 958.52 444.543L979.547 426.171C988.623 436.574 998.583 446.203 1009.32 455.056L991.5 476.527Z" fill="#87C5F1"/>
<path d="M1304.26 507.184L1290.98 482.615C1314 470.219 1335.03 454.282 1353.29 435.357L1373.32 454.725C1353.07 475.753 1329.82 493.35 1304.26 507.184Z" fill="#87C5F1"/>
<path d="M1445.37 322.139L1418.14 315.941C1422.46 297.348 1424.56 278.091 1424.56 258.834C1424.56 215.229 1413.38 172.288 1392.13 134.549L1416.48 120.825C1440.06 162.77 1452.45 210.47 1452.45 258.834C1452.56 280.194 1450.13 301.554 1445.37 322.139Z" fill="#87C5F1"/>
<path d="M1370.89 102.564C1367.34 98.0263 1363.47 93.4887 1359.6 89.1725L1380.4 70.4688C1384.72 75.2277 1388.93 80.3186 1392.91 85.4096L1370.89 102.564Z" fill="#87C5F1"/>
<path d="M1341.33 70.6902C1334.8 64.7139 1327.83 59.0696 1320.64 53.868L1337.13 31.4014C1345.1 37.1564 1352.73 43.4647 1360.04 50.1051L1341.33 70.6902Z" fill="#87C5F1"/>
<path d="M1281.13 30.0729C1274.82 26.9741 1268.29 24.2072 1261.65 21.6618L1271.72 -4.45703C1279.03 -1.69021 1286.22 1.5193 1293.3 4.95016L1281.13 30.0729Z" fill="#87C5F1"/>
<path d="M1230.33 11.8125C1210.85 7.16422 1190.82 4.72942 1170.57 4.72942V-23.1602C1192.92 -23.1602 1215.28 -20.504 1236.86 -15.3024L1230.33 11.8125Z" fill="#87C5F1"/>
</svg>
