<svg width="884" height="801" viewBox="0 0 884 801" fill="none" xmlns="http://www.w3.org/2000/svg">
<g opacity="0.4">
<path d="M811.503 276.837L810.808 276.374L739.008 234.918L811.503 193L812.198 193.463L883.998 234.918L811.503 276.837ZM744.103 234.918L811.503 273.826L878.902 234.918L811.503 196.011L744.103 234.918Z" fill="#96D99D"/>
<path d="M671.612 276.837L670.917 276.374L599.117 234.918L671.612 193L744.107 234.918L671.612 276.837ZM604.444 234.918L671.844 273.826L739.243 234.918L671.844 196.011L604.444 234.918Z" fill="#96D99D"/>
<path d="M741.558 317.134L669.062 275.215L741.558 233.297L742.252 233.76L814.053 275.215L741.558 317.134ZM674.158 275.447L741.558 314.355L808.957 275.447L741.558 236.539L674.158 275.447Z" fill="#96D99D"/>
<path d="M811.503 357.432L810.808 356.968L739.008 315.513L811.503 273.595L812.198 274.058L883.998 315.513L811.503 357.432ZM744.103 315.745L811.503 354.653L878.902 315.745L811.503 276.837L744.103 315.745Z" fill="#96D99D"/>
<path d="M531.948 276.837L459.453 234.918L531.948 193L532.643 193.463L604.443 234.918L531.948 276.837ZM464.549 234.918L531.948 273.826L599.348 234.918L531.948 196.011L464.549 234.918Z" fill="#96D99D"/>
<path d="M601.893 317.134L601.199 316.671L529.398 275.215L601.893 233.297L602.588 233.76L674.389 275.215L601.893 317.134ZM534.494 275.447L601.893 314.355L669.293 275.447L601.893 236.539L534.494 275.447Z" fill="#96D99D"/>
<path d="M671.612 357.431L670.917 356.967L599.117 315.512L671.612 273.594L744.107 315.512L671.612 357.431ZM604.444 315.744L671.844 354.652L739.243 315.744L671.844 276.836L604.444 315.744Z" fill="#96D99D"/>
<path d="M741.558 397.961L740.863 397.498L669.062 356.042L741.558 314.124L742.252 314.587L814.053 356.042L741.558 397.961ZM674.158 356.042L741.558 394.95L808.957 356.042L741.558 317.135L674.158 356.042Z" fill="#96D99D"/>
<path d="M811.503 438.258L739.008 396.339L811.503 354.421L812.198 354.884L883.998 396.339L811.503 438.258ZM744.103 396.339L811.503 435.247L878.902 396.339L811.503 357.432L744.103 396.339Z" fill="#96D99D"/>
<path d="M392.054 276.837L391.359 276.374L319.559 234.918L392.054 193L464.549 234.918L392.054 276.837ZM324.886 234.918L392.285 273.826L459.685 234.918L392.285 196.011L324.886 234.918Z" fill="#96D99D"/>
<path d="M462.003 317.134L389.508 275.215L462.003 233.297L534.498 275.215L462.003 317.134ZM394.603 275.447L462.003 314.355L529.402 275.447L462.003 236.539L394.603 275.447Z" fill="#96D99D"/>
<path d="M531.948 357.432L459.453 315.745L531.948 273.826L532.643 274.289L604.443 315.745L531.948 357.432ZM464.549 315.745L531.948 354.652L599.348 315.745L531.948 276.837L464.549 315.745Z" fill="#96D99D"/>
<path d="M601.893 397.961L601.199 397.498L529.398 356.042L601.893 314.124L602.588 314.587L674.389 356.042L601.893 397.961ZM534.494 356.042L601.893 394.95L669.293 356.042L601.893 317.135L534.494 356.042Z" fill="#96D99D"/>
<path d="M671.612 438.258L670.917 437.795L599.117 396.339L671.612 354.421L672.307 354.884L744.107 396.339L671.612 438.258ZM604.444 396.339L671.844 435.247L739.243 396.339L671.612 357.432L604.444 396.339Z" fill="#96D99D"/>
<path d="M741.558 478.556L740.863 478.092L669.062 436.637L741.558 394.719L814.053 436.637L741.558 478.556ZM674.158 436.869L741.558 475.777L808.957 436.869L741.558 397.961L674.158 436.869Z" fill="#96D99D"/>
<path d="M811.503 518.853L810.808 518.389L739.008 476.934L811.503 435.016L812.198 435.479L883.998 476.934L811.503 518.853ZM744.103 477.166L811.503 516.073L878.902 477.166L811.503 438.258L744.103 477.166Z" fill="#96D99D"/>
<path d="M252.39 276.837L251.695 276.374L179.895 234.918L252.39 193L253.084 193.463L324.885 234.918L252.39 276.837ZM184.99 234.918L252.39 273.826L319.789 234.918L252.39 196.011L184.99 234.918Z" fill="#96D99D"/>
<path d="M322.104 317.134L321.41 316.671L249.609 275.215L322.104 233.297L322.799 233.76L394.599 275.215L322.104 317.134ZM254.936 275.447L322.336 314.355L389.736 275.447L322.336 236.539L254.936 275.447Z" fill="#96D99D"/>
<path d="M392.054 357.432L319.559 315.745L392.054 273.826L464.549 315.745L392.054 357.432ZM324.886 315.745L392.285 354.652L459.685 315.745L392.285 276.837L324.886 315.745Z" fill="#96D99D"/>
<path d="M462.003 397.961L461.308 397.498L389.508 356.042L462.003 314.124L534.498 356.042L462.003 397.961ZM394.603 356.042L462.003 394.95L529.402 356.042L462.003 317.135L394.603 356.042Z" fill="#96D99D"/>
<path d="M531.948 438.258L459.453 396.339L531.948 354.421L532.643 354.884L604.443 396.339L531.948 438.258ZM464.549 396.339L531.948 435.247L599.348 396.339L531.948 357.432L464.549 396.339Z" fill="#96D99D"/>
<path d="M601.893 478.556L601.199 478.092L529.398 436.637L601.893 394.719L602.588 395.182L674.389 436.637L601.893 478.556ZM534.494 436.869L601.893 475.777L669.293 436.869L601.893 397.961L534.494 436.869Z" fill="#96D99D"/>
<path d="M671.612 518.853L670.917 518.389L599.117 476.934L671.612 435.016L672.307 435.479L744.107 476.934L671.612 518.853ZM604.444 477.166L671.844 516.073L739.243 477.166L671.844 438.258L604.444 477.166Z" fill="#96D99D"/>
<path d="M741.558 559.381L740.863 558.918L669.062 517.462L741.558 475.544L742.252 476.007L814.053 517.462L741.558 559.381ZM674.158 517.462L741.558 556.37L808.957 517.462L741.558 478.555L674.158 517.462Z" fill="#96D99D"/>
<path d="M811.503 599.678L810.808 599.215L739.008 557.759L811.503 515.841L883.998 557.759L811.503 599.678ZM744.103 557.759L811.503 596.667L878.902 557.759L811.503 518.852L744.103 557.759Z" fill="#96D99D"/>
<path d="M112.495 276.837L111.8 276.374L40 234.918L112.495 193L184.99 234.918L112.495 276.837ZM45.0955 234.918L112.495 273.826L179.895 234.918L112.495 196.011L45.0955 234.918Z" fill="#96D99D"/>
<path d="M182.444 317.134L181.749 316.671L109.949 275.215L182.444 233.297L183.139 233.76L254.939 275.215L182.444 317.134ZM115.045 275.447L182.444 314.355L249.844 275.447L182.444 236.539L115.045 275.447Z" fill="#96D99D"/>
<path d="M252.39 357.432L179.895 315.745L252.39 273.826L253.084 274.289L324.885 315.745L252.39 357.432ZM184.99 315.745L252.39 354.652L319.789 315.745L252.39 276.837L184.99 315.745Z" fill="#96D99D"/>
<path d="M322.104 397.961L249.609 356.042L322.104 314.124L394.599 356.042L322.104 397.961ZM254.936 356.042L322.336 394.95L389.736 356.042L322.336 317.135L254.936 356.042Z" fill="#96D99D"/>
<path d="M392.054 438.258L391.359 437.795L319.559 396.339L392.054 354.421L392.749 354.884L464.549 396.339L392.054 438.258ZM324.886 396.339L392.285 435.247L459.685 396.339L392.054 357.432L324.886 396.339Z" fill="#96D99D"/>
<path d="M462.003 478.556L461.308 478.092L389.508 436.637L462.003 394.719L534.498 436.637L462.003 478.556ZM394.603 436.637L462.003 475.545L529.402 436.637L462.003 397.961L394.603 436.637Z" fill="#96D99D"/>
<path d="M531.948 518.853L531.253 518.389L459.453 476.934L531.948 435.016L532.643 435.479L604.443 476.934L531.948 518.853ZM464.549 477.166L531.948 516.073L599.348 477.166L531.948 438.258L464.549 477.166Z" fill="#96D99D"/>
<path d="M601.893 559.381L529.398 517.462L601.893 475.544L602.588 476.007L674.389 517.462L601.893 559.381ZM534.494 517.462L601.893 556.37L669.293 517.462L601.893 478.555L534.494 517.462Z" fill="#96D99D"/>
<path d="M671.612 599.679L670.917 599.216L599.117 557.76L671.612 515.842L672.307 516.305L744.107 557.76L671.612 599.679ZM604.444 557.76L671.844 596.668L739.243 557.76L671.844 518.853L604.444 557.76Z" fill="#96D99D"/>
<path d="M741.558 639.976L740.863 639.512L669.062 598.057L741.558 556.139L742.252 556.602L814.053 598.057L741.558 639.976ZM674.158 598.057L741.558 636.965L808.957 598.057L741.558 559.149L674.158 598.057Z" fill="#96D99D"/>
<path d="M811.503 680.273L810.808 679.81L739.008 638.355L811.503 596.437L883.998 638.355L811.503 680.273ZM744.103 638.587L811.503 677.494L878.902 638.587L811.503 599.679L744.103 638.587Z" fill="#96D99D"/>
<path d="M112.495 357.432L111.8 356.968L40 315.513L112.495 273.595L113.19 274.058L184.99 315.513L112.495 357.432ZM45.0955 315.745L112.495 354.653L179.895 315.745L112.495 276.837L45.0955 315.745Z" fill="#96D99D"/>
<path d="M182.444 397.961L181.749 397.498L109.949 356.042L182.444 314.124L254.939 356.042L182.444 397.961ZM115.045 356.042L182.444 394.95L249.844 356.042L182.444 317.135L115.045 356.042Z" fill="#96D99D"/>
<path d="M252.39 438.258L251.695 437.795L179.895 396.339L252.39 354.421L324.885 396.339L252.39 438.258ZM184.99 396.339L252.39 435.247L319.789 396.339L252.39 357.432L184.99 396.339Z" fill="#96D99D"/>
<path d="M322.104 478.556L249.609 436.637L322.104 394.719L322.799 395.182L394.599 436.637L322.104 478.556ZM254.936 436.637L322.336 475.545L389.736 436.637L322.336 397.729L254.936 436.637Z" fill="#96D99D"/>
<path d="M392.054 518.853L391.359 518.389L319.559 476.934L392.054 435.016L392.749 435.479L464.549 476.934L392.054 518.853ZM324.886 477.166L392.285 516.073L459.685 477.166L392.285 438.258L324.886 477.166Z" fill="#96D99D"/>
<path d="M462.003 559.381L461.308 558.918L389.508 517.462L462.003 475.544L462.698 476.007L534.498 517.462L462.003 559.381ZM394.603 517.462L462.003 556.37L529.402 517.462L462.003 478.555L394.603 517.462Z" fill="#96D99D"/>
<path d="M531.948 599.679L531.253 599.216L459.453 557.76L531.948 515.842L604.443 557.76L531.948 599.679ZM464.549 557.76L531.948 596.668L599.348 557.76L531.948 518.853L464.549 557.76Z" fill="#96D99D"/>
<path d="M601.893 639.976L601.199 639.512L529.398 598.057L601.893 556.139L602.588 556.602L674.389 598.057L601.893 639.976ZM534.494 598.057L601.893 636.965L669.293 598.057L601.893 559.149L534.494 598.057Z" fill="#96D99D"/>
<path d="M671.612 680.273L599.117 638.355L671.612 596.437L672.307 596.9L744.107 638.355L671.612 680.273ZM604.444 638.587L671.844 677.494L739.243 638.587L671.844 599.679L604.444 638.587Z" fill="#96D99D"/>
<path d="M741.558 720.802L740.863 720.339L669.062 678.883L741.558 636.965L742.252 637.428L814.053 678.883L741.558 720.802ZM674.158 678.883L741.558 717.791L808.957 678.883L741.558 639.976L674.158 678.883Z" fill="#96D99D"/>
<path d="M811.503 761.099L739.008 719.18L811.503 677.262L883.998 719.18L811.503 761.099ZM744.103 719.18L811.503 758.088L878.902 719.18L811.503 680.272L744.103 719.18Z" fill="#96D99D"/>
<path d="M112.495 438.258L111.8 437.795L40 396.339L112.495 354.421L113.19 354.884L184.99 396.339L112.495 438.258ZM45.0955 396.339L112.495 435.247L179.895 396.339L112.495 357.432L45.0955 396.339Z" fill="#96D99D"/>
<path d="M182.444 478.556L181.749 478.092L109.949 436.637L182.444 394.719L183.139 395.182L254.939 436.637L182.444 478.556ZM115.045 436.637L182.444 475.545L249.844 436.637L182.444 397.729L115.045 436.637Z" fill="#96D99D"/>
<path d="M252.39 518.853L179.895 476.934L252.39 435.016L324.885 476.934L252.39 518.853ZM184.99 477.166L252.39 516.073L319.789 477.166L252.39 438.258L184.99 477.166Z" fill="#96D99D"/>
<path d="M322.104 559.381L249.609 517.462L322.104 475.544L322.799 476.007L394.599 517.462L322.104 559.381ZM254.936 517.462L322.336 556.37L389.736 517.462L322.336 478.555L254.936 517.462Z" fill="#96D99D"/>
<path d="M392.054 599.679L391.359 599.216L319.559 557.76L392.054 515.842L392.749 516.305L464.549 557.76L392.054 599.679ZM324.886 557.76L392.285 596.668L459.685 557.76L392.285 518.853L324.886 557.76Z" fill="#96D99D"/>
<path d="M462.003 639.976L461.308 639.512L389.508 598.057L462.003 556.139L462.698 556.602L534.498 598.057L462.003 639.976ZM394.603 598.057L462.003 636.965L529.402 598.057L462.003 559.381L394.603 598.057Z" fill="#96D99D"/>
<path d="M531.948 680.273L531.253 679.81L459.453 638.355L531.948 596.437L532.643 596.9L604.443 638.355L531.948 680.273ZM464.549 638.587L531.948 677.494L599.348 638.587L531.948 599.679L464.549 638.587Z" fill="#96D99D"/>
<path d="M601.893 720.57L601.199 720.107L529.398 678.652L601.893 636.733L674.389 678.652L601.893 720.57ZM534.494 678.883L601.893 717.791L669.293 678.883L601.893 639.976L534.494 678.883Z" fill="#96D99D"/>
<path d="M671.612 761.099L599.117 719.18L671.612 677.262L672.307 677.725L744.107 719.18L671.612 761.099ZM604.444 719.18L671.844 758.088L739.243 719.18L671.844 680.272L604.444 719.18Z" fill="#96D99D"/>
<path d="M112.495 518.853L111.8 518.389L40 476.934L112.495 435.016L113.19 435.479L184.99 476.934L112.495 518.853ZM45.0955 477.166L112.495 516.073L179.895 477.166L112.495 438.258L45.0955 477.166Z" fill="#96D99D"/>
<path d="M182.444 559.381L109.949 517.462L182.444 475.544L254.939 517.462L182.444 559.381ZM115.045 517.462L182.444 556.37L249.844 517.462L182.444 478.555L115.045 517.462Z" fill="#96D99D"/>
<path d="M252.39 599.679L251.695 599.216L179.895 557.76L252.39 515.842L324.885 557.76L252.39 599.679ZM184.99 557.76L252.39 596.668L319.789 557.76L252.39 518.853L184.99 557.76Z" fill="#96D99D"/>
<path d="M322.104 639.976L321.41 639.512L249.609 598.057L322.104 556.139L322.799 556.602L394.599 598.057L322.104 639.976ZM254.936 598.057L322.336 636.965L389.736 598.057L322.336 559.149L254.936 598.057Z" fill="#96D99D"/>
<path d="M392.054 680.273L319.559 638.355L392.054 596.437L392.749 596.9L464.549 638.355L392.054 680.273ZM324.886 638.587L392.285 677.494L459.685 638.587L392.285 599.679L324.886 638.587Z" fill="#96D99D"/>
<path d="M462.003 720.57L461.308 720.107L389.508 678.652L462.003 636.733L462.698 637.197L534.498 678.652L462.003 720.57ZM394.603 678.883L462.003 717.791L529.402 678.883L462.003 639.976L394.603 678.883Z" fill="#96D99D"/>
<path d="M531.948 761.099L531.253 760.635L459.453 719.18L531.948 677.262L532.643 677.725L604.443 719.18L531.948 761.099ZM464.549 719.18L531.948 758.088L599.348 719.18L531.948 680.272L464.549 719.18Z" fill="#96D99D"/>
<path d="M112.495 599.678L111.8 599.215L40 557.759L112.495 515.841L184.99 557.759L112.495 599.678ZM45.0955 557.759L112.495 596.667L179.895 557.759L112.495 518.852L45.0955 557.759Z" fill="#96D99D"/>
<path d="M182.444 639.976L109.949 598.057L182.444 556.139L183.139 556.602L254.939 598.057L182.444 639.976ZM115.045 598.057L182.444 636.965L249.844 598.057L182.444 559.149L115.045 598.057Z" fill="#96D99D"/>
<path d="M252.39 680.273L251.695 679.81L179.895 638.355L252.39 596.437L253.084 596.9L324.885 638.355L252.39 680.273ZM184.99 638.587L252.39 677.494L319.789 638.587L252.39 599.679L184.99 638.587Z" fill="#96D99D"/>
<path d="M322.104 720.57L321.41 720.107L249.609 678.652L322.104 636.733L394.599 678.652L322.104 720.57ZM254.936 678.883L322.336 717.791L389.736 678.883L322.104 639.976L254.936 678.883Z" fill="#96D99D"/>
<path d="M392.054 761.099L319.559 719.18L392.054 677.262L392.749 677.725L464.549 719.18L392.054 761.099ZM324.886 719.18L392.285 758.088L459.685 719.18L392.285 680.272L324.886 719.18Z" fill="#96D99D"/>
<path d="M112.495 680.273L40 638.355L112.495 596.437L184.99 638.355L112.495 680.273ZM45.0955 638.587L112.495 677.494L179.895 638.587L112.495 599.679L45.0955 638.587Z" fill="#96D99D"/>
<path d="M182.444 720.57L181.749 720.107L109.949 678.652L182.444 636.733L183.139 637.197L254.939 678.652L182.444 720.57ZM115.045 678.883L182.444 717.791L249.844 678.883L182.444 639.976L115.045 678.883Z" fill="#96D99D"/>
<path d="M252.39 761.099L251.695 760.635L179.895 719.18L252.39 677.262L253.084 677.725L324.885 719.18L252.39 761.099ZM184.99 719.18L252.39 758.088L319.789 719.18L252.39 680.272L184.99 719.18Z" fill="#96D99D"/>
<path d="M112.495 761.099L111.8 760.635L40 719.18L112.495 677.262L113.19 677.725L184.99 719.18L112.495 761.099ZM45.0955 719.18L112.495 758.088L179.895 719.18L112.495 680.272L45.0955 719.18Z" fill="#96D99D"/>
</g>
<path d="M648.107 501.169C646.417 501.169 644.728 500.747 643.25 499.903L614.531 482.812L616.221 479.858L644.939 496.949C646.84 498.004 649.163 498.004 651.063 496.949L697.731 469.73C698.576 469.308 698.998 468.464 698.998 467.62C698.998 466.776 698.576 465.932 697.731 465.51L635.437 432.172L637.126 429.218L699.42 462.556C701.321 463.611 702.377 465.299 702.377 467.409C702.377 469.519 701.321 471.418 699.631 472.473L652.964 499.692C651.485 500.747 649.796 501.169 648.107 501.169Z" fill="#B2D3EA"/>
<path d="M532.179 759.222C530.067 759.222 528.166 758.8 526.266 757.745L411.814 694.023C410.124 693.179 409.068 691.28 409.068 689.381C409.068 687.482 410.124 685.794 411.814 684.739L463.55 655.621C464.394 655.199 464.394 654.355 464.394 654.144C464.394 653.933 464.394 653.089 463.55 652.667L406.112 619.54C404.423 618.696 403.578 617.008 403.578 615.109C403.578 613.21 404.423 611.522 405.901 610.678L429.34 595.697L431.241 598.44L407.801 613.421C406.957 613.843 406.957 614.687 406.957 614.898C406.957 615.109 407.168 615.953 407.801 616.375L465.45 649.502C467.139 650.346 467.984 652.034 467.984 653.933C467.984 655.832 466.928 657.52 465.45 658.364L413.714 687.482C412.869 687.904 412.658 688.748 412.658 689.17C412.658 689.592 412.658 690.225 413.714 690.858L528.166 754.58C530.912 756.057 534.29 756.057 536.824 754.369L580.325 727.572C580.747 727.361 580.747 726.939 580.747 726.939C580.747 726.728 580.747 726.517 580.325 726.306L548.861 707.105L550.55 704.151L582.014 723.352C583.281 724.196 584.126 725.462 584.126 726.939C584.126 728.416 583.281 729.682 582.225 730.526L538.725 757.323C536.613 758.589 534.29 759.222 532.179 759.222Z" fill="#B2D3EA"/>
<path d="M581.589 502.857L526.475 470.996C523.096 469.097 523.518 465.721 527.319 463.4L580.533 432.594C584.545 430.273 590.458 430.062 593.837 431.961L648.951 463.822C652.33 465.721 651.908 469.097 648.107 471.418L594.893 502.224C590.88 504.545 584.968 504.967 581.589 502.857Z" fill="#B2D3EA"/>
<path d="M667.324 439.768V415.925H613.899L595.528 405.164C591.304 402.632 583.913 403.054 579.057 405.797L561.741 415.714H508.316V440.19C508.105 441.878 509.16 443.355 511.061 444.621L580.112 484.5C584.336 487.032 591.727 486.61 596.583 483.867L663.312 445.465C666.057 443.777 667.535 441.667 667.324 439.768Z" fill="#396CAA"/>
<path d="M587.715 403.687C584.547 403.687 581.38 404.531 578.846 406.008L561.53 415.925H508.105V440.401C507.894 442.089 508.949 443.566 510.85 444.832L579.901 484.711C582.013 485.977 584.758 486.399 587.503 486.399V403.687H587.715Z" fill="#396CAA"/>
<path d="M514.229 415.925H508.105V440.401C507.894 442.089 508.949 443.566 510.85 444.832L514.017 446.731V415.925H514.229Z" fill="#5793CE"/>
<path d="M581.168 485.133C584.758 486.61 590.037 486.61 594.472 484.922V457.07H581.168V485.133Z" fill="#5793CE"/>
<path d="M580.111 460.235L511.059 420.356C506.836 417.824 507.258 413.604 512.326 410.861L579.055 372.459C583.912 369.716 591.303 369.294 595.526 371.826L664.577 411.705C668.801 414.237 668.378 418.457 663.31 421.2L596.582 459.602C591.725 462.345 584.334 462.767 580.111 460.235Z" fill="#D4ECFF"/>
<path d="M581.378 453.061L523.518 419.723C519.928 417.613 520.351 414.026 524.574 411.705L580.533 379.422C584.545 377.101 590.88 376.89 594.47 378.789L652.33 412.127C655.919 414.237 655.497 417.824 651.274 420.145L595.315 452.428C591.091 454.749 584.968 455.171 581.378 453.061Z" fill="#5793CE"/>
<path d="M641.983 446.098C641.983 447.786 640.716 450.107 639.237 450.951C637.759 451.795 636.492 451.162 636.492 449.263C636.492 447.575 637.759 445.254 639.237 444.41C640.716 443.566 641.983 444.199 641.983 446.098Z" fill="#D4ECFF"/>
<path d="M650.85 440.823C650.85 442.511 649.583 444.832 648.105 445.676C646.626 446.52 645.359 445.887 645.359 443.988C645.359 442.3 646.626 439.979 648.105 439.135C649.583 438.291 650.85 439.135 650.85 440.823Z" fill="#D4ECFF"/>
<path d="M659.932 435.759C659.932 437.447 658.665 439.768 657.187 440.612C655.709 441.456 654.441 440.823 654.441 438.924C654.441 437.236 655.709 434.915 657.187 434.071C658.665 433.227 659.932 433.86 659.932 435.759Z" fill="#D4ECFF"/>
<path d="M667.324 401.788V377.945H613.899L595.528 367.184C591.304 364.652 583.913 365.074 579.057 367.817L561.741 377.734H508.316V402.21C508.105 403.898 509.16 405.375 511.061 406.641L580.112 446.52C584.336 449.052 591.727 448.63 596.583 445.887L663.312 407.485C666.057 405.797 667.535 403.687 667.324 401.788Z" fill="#396CAA"/>
<path d="M587.715 365.496C584.547 365.496 581.38 366.34 578.846 367.817L561.53 377.734H508.105V402.21C507.894 403.898 508.949 405.375 510.85 406.641L579.901 446.52C582.013 447.786 584.758 448.208 587.503 448.208V365.496H587.715Z" fill="#396CAA"/>
<path d="M514.229 377.734H508.105V402.21C507.894 403.898 508.949 405.375 510.85 406.641L514.017 408.54V377.734H514.229Z" fill="#5793CE"/>
<path d="M581.168 447.153C584.758 448.63 590.037 448.63 594.472 446.942V419.09H581.168V447.153Z" fill="#5793CE"/>
<path d="M580.111 422.255L511.059 382.376C506.836 379.844 507.258 375.624 512.326 372.881L579.055 334.479C583.912 331.736 591.303 331.314 595.526 333.846L664.577 373.725C668.801 376.257 668.378 380.477 663.31 383.22L596.582 421.622C591.725 424.365 584.334 424.576 580.111 422.255Z" fill="#D4ECFF"/>
<path d="M581.378 415.081L523.518 381.743C519.928 379.633 520.351 376.046 524.574 373.725L580.533 341.442C584.545 339.121 590.88 338.91 594.47 340.809L652.33 374.147C655.919 376.257 655.497 379.844 651.274 382.165L595.315 414.448C591.091 416.769 584.968 416.98 581.378 415.081Z" fill="#5793CE"/>
<path d="M641.983 407.907C641.983 409.595 640.716 411.916 639.237 412.76C637.759 413.604 636.492 412.971 636.492 411.072C636.492 409.384 637.759 407.063 639.237 406.219C640.716 405.375 641.983 406.219 641.983 407.907Z" fill="#D4ECFF"/>
<path d="M650.85 402.843C650.85 404.531 649.583 406.852 648.105 407.696C646.626 408.54 645.359 407.907 645.359 406.008C645.359 404.32 646.626 401.999 648.105 401.155C649.583 400.311 650.85 400.944 650.85 402.843Z" fill="#D4ECFF"/>
<path d="M659.932 397.568C659.932 399.256 658.665 401.577 657.187 402.421C655.709 403.265 654.441 402.632 654.441 400.733C654.441 399.045 655.709 396.724 657.187 395.88C658.665 395.036 659.932 395.88 659.932 397.568Z" fill="#D4ECFF"/>
<path d="M667.324 363.597V339.754H613.899L595.528 328.993C591.304 326.461 583.913 326.883 579.057 329.626L561.741 339.543H508.316V364.23C508.105 365.918 509.16 367.395 511.061 368.661L580.112 408.54C584.336 411.072 591.727 410.65 596.583 407.907L663.312 369.505C666.057 367.606 667.535 365.496 667.324 363.597Z" fill="#396CAA"/>
<path d="M587.715 327.516C584.547 327.516 581.38 328.36 578.846 329.837L561.53 339.754H508.105V364.23C507.894 365.918 508.949 367.395 510.85 368.661L579.901 408.54C582.013 409.806 584.758 410.228 587.503 410.228V327.516H587.715Z" fill="#396CAA"/>
<path d="M514.229 339.754H508.105V364.23C507.894 365.918 508.949 367.395 510.85 368.661L514.017 370.56V339.754H514.229Z" fill="#5793CE"/>
<path d="M581.168 408.961C584.758 410.438 590.037 410.438 594.472 408.75V381.109H581.168V408.961Z" fill="#5793CE"/>
<path d="M580.111 384.064L511.059 344.185C506.836 341.653 507.258 337.433 512.326 334.69L579.055 296.288C583.912 293.545 591.303 293.123 595.526 295.655L664.577 335.534C668.801 338.066 668.378 342.286 663.31 345.029L596.582 383.431C591.725 386.174 584.334 386.596 580.111 384.064Z" fill="#D4ECFF"/>
<path d="M663.31 340.176L596.581 378.578C591.724 381.321 584.333 381.743 580.11 379.211L511.059 339.332C510.214 338.699 509.369 338.066 508.947 337.433C507.469 339.754 508.102 342.286 511.059 343.974L580.11 383.853C584.333 386.385 591.724 385.963 596.581 383.22L663.31 344.818C667.111 342.708 668.167 339.543 666.688 337.222C666.055 338.277 664.788 339.332 663.31 340.176Z" fill="white"/>
<path d="M641.983 369.927C641.983 371.615 640.716 373.936 639.237 374.78C637.759 375.624 636.492 374.991 636.492 373.092C636.492 371.404 637.759 369.083 639.237 368.239C640.716 367.395 641.983 368.239 641.983 369.927Z" fill="#D4ECFF"/>
<path d="M650.85 364.652C650.85 366.34 649.583 368.661 648.105 369.505C646.626 370.349 645.359 369.716 645.359 367.817C645.359 366.129 646.626 363.808 648.105 362.964C649.583 362.331 650.85 362.964 650.85 364.652Z" fill="#D4ECFF"/>
<path d="M659.932 359.588C659.932 361.276 658.665 363.597 657.187 364.441C655.709 365.285 654.441 364.652 654.441 362.753C654.441 361.065 655.709 358.744 657.187 357.9C658.665 357.056 659.932 357.689 659.932 359.588Z" fill="#D4ECFF"/>
<path d="M584.126 359.376L551.818 340.808C549.918 339.753 550.129 337.643 552.451 336.377L583.704 318.442C586.027 317.176 589.406 316.965 591.517 318.02L623.826 336.588C625.726 337.643 625.515 339.753 623.192 341.019L591.94 358.954C589.617 360.431 586.238 360.431 584.126 359.376Z" fill="#5793CE"/>
<path d="M587.292 343.762L582.858 341.23C582.646 341.019 582.646 340.808 582.858 340.597L587.081 338.065C587.503 337.854 587.926 337.854 588.137 338.065L592.571 340.597C592.782 340.808 592.782 341.019 592.571 341.23L588.348 343.762C587.926 343.973 587.503 343.973 587.292 343.762Z" fill="#D4ECFF"/>
<path d="M551.818 340.808C552.029 340.808 552.24 340.598 552.451 340.598L583.704 322.663C586.027 321.397 589.406 321.186 591.517 322.241L623.826 340.808C625.726 339.542 625.726 337.643 623.826 336.588L591.517 318.021C589.617 316.966 586.027 316.966 583.704 318.443L552.451 336.378C550.129 337.644 549.918 339.542 551.818 340.808Z" fill="#396CAA"/>
<path d="M457.423 617.22L338.114 549.278C333.679 546.746 334.313 542.315 339.381 539.361L408.01 499.693C413.078 496.739 420.68 496.528 425.115 499.06L544.424 567.002C548.858 569.534 548.225 573.965 543.157 576.919L474.528 616.587C469.248 619.33 461.646 619.541 457.423 617.22Z" fill="#B2D3EA"/>
<path d="M554.77 544.213V265.904L444.119 236.997L423.636 225.181C418.99 222.438 410.755 222.86 405.475 226.025L386.47 236.997H327.344L344.871 505.6C344.659 507.499 345.715 509.187 348.038 510.453L458.478 593.798C463.124 596.541 471.359 596.119 476.639 592.954L550.336 550.543C553.503 548.644 554.981 546.323 554.77 544.213Z" fill="#396CAA"/>
<path d="M415.403 223.493C412.024 223.493 408.434 224.337 405.689 226.025L386.684 236.997H327.558V515.939C327.346 517.838 328.402 519.526 330.725 520.792L458.692 593.587C461.015 594.853 463.971 595.486 467.139 595.486L468.406 314.856L415.403 223.493Z" fill="#D4ECFF"/>
<path d="M459.746 594.22C463.758 595.908 469.671 595.908 474.317 594.009V311.48H459.746V594.22Z" fill="#5793CE"/>
<path d="M458.48 314.856L330.513 241.85C325.867 239.107 326.501 234.465 331.78 231.3L405.477 188.889C410.968 185.724 418.992 185.513 423.637 188.045L551.604 260.84C556.25 263.583 555.617 268.225 550.337 271.39L476.64 313.801C471.361 317.177 463.126 317.599 458.48 314.856Z" fill="#D4ECFF"/>
<path d="M550.336 266.538L476.639 308.949C471.148 312.114 463.124 312.325 458.478 309.793L330.511 236.998C329.456 236.365 328.611 235.732 328.189 234.888C326.499 237.42 327.344 240.374 330.511 242.062L458.478 314.857C463.124 317.6 471.36 317.178 476.639 314.013L550.336 271.602C554.559 269.281 555.826 265.694 553.926 263.162C553.292 264.428 552.025 265.483 550.336 266.538Z" fill="#FAFDFF"/>
<path d="M462.067 285.316L376.967 235.942C374.855 234.676 375.067 232.566 377.601 231.089L412.021 211.255C414.555 209.778 418.356 209.567 420.467 210.833L505.568 260.207C507.679 261.473 507.468 263.583 504.934 265.06L470.514 284.894C468.191 286.371 464.39 286.582 462.067 285.316Z" fill="#173D7A"/>
<path d="M416.242 238.264L411.385 235.521C411.174 235.31 411.174 235.099 411.385 234.888L416.242 232.145C416.664 231.934 417.086 231.934 417.509 232.145L422.366 234.888C422.577 235.099 422.577 235.31 422.366 235.521L417.509 238.264C417.086 238.264 416.453 238.264 416.242 238.264Z" fill="#D4ECFF"/>
<path d="M432.711 247.759L427.854 245.016C427.643 244.805 427.643 244.594 427.854 244.383L432.711 241.64C433.133 241.429 433.555 241.429 433.978 241.64L438.834 244.383C439.046 244.594 439.046 244.805 438.834 245.016L433.978 247.759C433.555 247.759 432.922 247.759 432.711 247.759Z" fill="#D4ECFF"/>
<path d="M449.183 257.043L444.326 254.3C444.115 254.089 444.115 253.878 444.326 253.667L449.183 250.924C449.605 250.713 450.028 250.713 450.45 250.924L455.307 253.667C455.518 253.878 455.518 254.089 455.307 254.3L450.45 257.043C450.028 257.254 449.394 257.254 449.183 257.043Z" fill="#D4ECFF"/>
<path d="M465.656 266.537L460.799 263.794C460.588 263.583 460.588 263.372 460.799 263.161L465.656 260.418C466.078 260.207 466.5 260.207 466.923 260.418L471.78 263.161C471.991 263.372 471.991 263.583 471.78 263.794L466.923 266.537C466.5 266.748 465.867 266.748 465.656 266.537Z" fill="#D4ECFF"/>
<path d="M376.967 235.942C377.178 235.942 377.389 235.731 377.601 235.731L412.021 215.897C414.555 214.42 418.356 214.209 420.467 215.475L505.568 264.849C507.679 263.372 507.679 261.473 505.568 260.207L420.467 210.833C418.356 209.567 414.555 209.778 412.021 211.255L377.601 231.089C375.067 232.566 374.855 234.676 376.967 235.942Z" fill="#5793CE"/>
<path d="M491.21 369.927L539.567 342.287C542.312 340.81 544.424 336.59 544.424 332.792V315.489C544.424 311.902 542.312 310.215 539.567 311.692L491.21 339.332C488.465 340.809 486.353 345.029 486.353 348.827V366.129C486.142 369.927 488.465 371.615 491.21 369.927Z" fill="#173D7A"/>
<path d="M541.891 311.27C542.736 311.903 543.158 313.169 543.158 314.857V332.159C543.158 335.746 541.046 339.966 538.301 341.654L489.944 369.295C489.099 369.717 488.255 369.928 487.621 369.717C488.466 370.561 489.733 370.772 491.422 369.928L539.779 342.287C542.524 340.81 544.636 336.59 544.636 332.792V315.49C544.425 312.958 543.58 311.481 541.891 311.27Z" fill="white"/>
<path d="M505.782 351.148L510.217 348.616C510.85 348.194 511.273 347.35 511.273 346.506V341.864C511.273 341.02 510.85 340.809 510.217 341.02L505.782 343.552C505.149 343.974 504.727 344.818 504.727 345.662V350.304C504.727 351.148 505.149 351.57 505.782 351.148Z" fill="#396CAA"/>
<path d="M520.564 342.497L524.998 339.965C525.632 339.543 526.054 338.699 526.054 337.855V333.213C526.054 332.369 525.632 332.158 524.998 332.369L520.564 334.901C519.93 335.323 519.508 336.167 519.508 337.011V341.653C519.508 342.497 519.93 342.919 520.564 342.497Z" fill="white"/>
<path d="M491.21 495.051L539.567 467.41C542.312 465.933 544.424 461.713 544.424 457.915V440.613C544.424 437.026 542.312 435.338 539.567 436.815L491.21 464.456C488.465 465.933 486.353 470.153 486.353 473.951V491.253C486.142 494.84 488.465 496.528 491.21 495.051Z" fill="#173D7A"/>
<path d="M541.891 436.393C542.736 437.026 543.158 438.292 543.158 439.98V457.282C543.158 460.869 541.046 465.089 538.301 466.777L489.944 494.418C489.099 494.84 488.255 495.051 487.621 494.84C488.466 495.684 489.733 495.895 491.422 495.051L539.779 467.41C542.524 465.933 544.636 461.713 544.636 457.915V440.613C544.425 438.081 543.58 436.604 541.891 436.393Z" fill="white"/>
<path d="M505.782 476.271L510.217 473.739C510.85 473.317 511.273 472.473 511.273 471.629V466.987C511.273 466.143 510.85 465.932 510.217 466.143L505.782 468.675C505.149 469.097 504.727 469.941 504.727 470.785V475.427C504.727 476.271 505.149 476.482 505.782 476.271Z" fill="#396CAA"/>
<path d="M520.564 467.62L524.998 465.088C525.632 464.666 526.054 463.822 526.054 462.978V458.336C526.054 457.492 525.632 457.281 524.998 457.492L520.564 460.024C519.93 460.446 519.508 461.29 519.508 462.134V466.776C519.508 467.62 519.93 468.042 520.564 467.62Z" fill="#396CAA"/>
<path d="M491.21 557.507L539.567 529.866C542.312 528.389 544.424 524.169 544.424 520.371V503.069C544.424 499.482 542.312 497.794 539.567 499.271L491.21 526.912C488.465 528.389 486.353 532.609 486.353 536.407V553.709C486.142 557.507 488.465 558.984 491.21 557.507Z" fill="#173D7A"/>
<path d="M541.891 498.849C542.736 499.482 543.158 500.748 543.158 502.436V519.738C543.158 523.325 541.046 527.545 538.301 529.233L489.944 556.874C489.099 557.296 488.255 557.507 487.621 557.296C488.466 558.14 489.733 558.351 491.422 557.507L539.779 529.866C542.524 528.389 544.636 524.169 544.636 520.371V503.069C544.425 500.537 543.58 499.06 541.891 498.849Z" fill="white"/>
<path d="M505.782 538.728L510.217 536.196C510.85 535.774 511.273 534.93 511.273 534.086V529.444C511.273 528.6 510.85 528.389 510.217 528.6L505.782 531.132C505.149 531.554 504.727 532.398 504.727 533.242V537.884C504.727 538.728 505.149 539.15 505.782 538.728Z" fill="white"/>
<path d="M520.564 530.076L524.998 527.544C525.632 527.122 526.054 526.278 526.054 525.434V520.792C526.054 519.948 525.632 519.737 524.998 519.948L520.564 522.48C519.93 522.902 519.508 523.746 519.508 524.59V529.232C519.508 530.076 519.93 530.498 520.564 530.076Z" fill="#396CAA"/>
<path d="M491.21 432.384L539.567 404.743C542.312 403.266 544.424 399.046 544.424 395.248V377.946C544.424 374.359 542.312 372.671 539.567 374.148L491.21 401.789C488.465 403.266 486.353 407.486 486.353 411.284V428.586C486.142 432.384 488.465 434.072 491.21 432.384Z" fill="#173D7A"/>
<path d="M541.891 373.726C542.736 374.359 543.158 375.625 543.158 377.313V394.615C543.158 398.202 541.046 402.422 538.301 404.11L489.944 431.751C489.099 432.173 488.255 432.384 487.621 432.173C488.466 433.017 489.733 433.228 491.422 432.384L539.779 404.743C542.524 403.266 544.636 399.046 544.636 395.248V377.946C544.425 375.625 543.58 374.148 541.891 373.726Z" fill="white"/>
<path d="M505.782 413.605L510.217 411.073C510.85 410.651 511.273 409.807 511.273 408.963V404.321C511.273 403.477 510.85 403.266 510.217 403.477L505.782 406.009C505.149 406.431 504.727 407.275 504.727 408.119V412.761C504.727 413.605 505.149 414.027 505.782 413.605Z" fill="white"/>
<path d="M520.564 405.165L524.998 402.633C525.632 402.211 526.054 401.367 526.054 400.523V395.881C526.054 395.037 525.632 394.826 524.998 395.037L520.564 397.569C519.93 397.991 519.508 398.835 519.508 399.679V404.321C519.508 405.165 519.93 405.376 520.564 405.165Z" fill="white"/>
<path d="M449.189 352.203L337.481 287.848C334.947 286.371 333.047 282.573 333.047 279.197V257.886C333.047 254.51 335.159 253.033 337.481 254.51L449.189 318.865C451.723 320.342 453.623 324.14 453.623 327.516V348.827C453.834 352.203 451.723 353.68 449.189 352.203Z" fill="#5793CE"/>
<path opacity="0.4" d="M446.019 344.818L340.647 284.05C339.38 283.417 338.324 281.307 338.324 279.619V263.583C338.324 261.895 339.38 261.051 340.647 261.895L446.019 322.663C447.286 323.296 448.342 325.406 448.342 327.094V343.13C448.342 344.818 447.286 345.451 446.019 344.818Z" fill="#D4ECFF"/>
<path d="M362.609 288.692L346.983 279.619C345.716 278.986 344.66 277.087 344.66 275.399C344.66 273.711 345.716 273.078 346.983 273.711L362.609 282.784C363.876 283.417 364.932 285.316 364.932 287.004C364.932 288.481 363.876 289.325 362.609 288.692Z" fill="#D4ECFF"/>
<path d="M376.127 293.334C376.127 295.022 375.071 295.655 373.593 294.811C372.114 293.967 371.059 292.068 371.059 290.38C371.059 288.692 372.114 288.059 373.593 288.903C374.86 289.747 376.127 291.646 376.127 293.334Z" fill="#173D7A"/>
<path d="M385.205 298.609C385.205 300.297 384.149 300.93 382.671 300.086C381.193 299.242 380.137 297.343 380.137 295.655C380.137 293.967 381.193 293.334 382.671 294.178C383.938 295.022 385.205 296.921 385.205 298.609Z" fill="#173D7A"/>
<path d="M394.287 303.884C394.287 305.572 393.231 306.205 391.753 305.361C390.275 304.517 389.219 302.618 389.219 300.93C389.219 299.242 390.275 298.609 391.753 299.453C393.02 300.297 394.287 302.196 394.287 303.884Z" fill="#D4ECFF"/>
<path d="M403.365 309.159C403.365 310.847 402.309 311.48 400.831 310.636C399.353 309.792 398.297 307.893 398.297 306.205C398.297 304.517 399.353 303.884 400.831 304.728C402.098 305.361 403.365 307.471 403.365 309.159Z" fill="#173D7A"/>
<path d="M441.585 335.956L436.306 333.002C435.462 332.58 434.828 331.314 434.828 330.259V324.562C434.828 323.507 435.462 323.085 436.306 323.507L441.585 326.461C442.43 326.883 443.064 328.149 443.064 329.204V334.901C443.064 335.745 442.43 336.378 441.585 335.956Z" fill="#173D7A"/>
<path d="M449.189 389.761L337.481 325.406C334.947 323.929 333.047 320.131 333.047 316.755V295.444C333.047 292.068 335.159 290.591 337.481 292.068L449.189 356.423C451.723 357.9 453.623 361.698 453.623 365.074V386.385C453.834 389.761 451.723 391.238 449.189 389.761Z" fill="#5793CE"/>
<path opacity="0.4" d="M446.019 382.375L340.647 321.607C339.38 320.974 338.324 318.864 338.324 317.176V301.14C338.324 299.452 339.38 298.608 340.647 299.452L446.019 360.22C447.286 360.853 448.342 362.963 448.342 364.651V380.687C448.342 382.164 447.286 383.008 446.019 382.375Z" fill="#D4ECFF"/>
<path d="M362.609 326.038L346.983 316.965C345.716 316.332 344.66 314.433 344.66 312.745C344.66 311.057 345.716 310.424 346.983 311.057L362.609 320.13C363.876 320.763 364.932 322.662 364.932 324.35C364.932 326.038 363.876 326.882 362.609 326.038Z" fill="#D4ECFF"/>
<path d="M376.127 330.892C376.127 332.58 375.071 333.213 373.593 332.369C372.114 331.525 371.059 329.626 371.059 327.938C371.059 326.25 372.114 325.617 373.593 326.461C374.86 327.305 376.127 329.204 376.127 330.892Z" fill="white"/>
<path d="M385.205 336.166C385.205 337.854 384.149 338.487 382.671 337.643C381.193 336.799 380.137 334.9 380.137 333.212C380.137 331.524 381.193 330.891 382.671 331.735C383.938 332.579 385.205 334.478 385.205 336.166Z" fill="#173D7A"/>
<path d="M394.287 341.442C394.287 343.13 393.231 343.763 391.753 342.919C390.275 342.075 389.219 340.176 389.219 338.488C389.219 336.8 390.275 336.167 391.753 337.011C393.02 337.644 394.287 339.754 394.287 341.442Z" fill="#D4ECFF"/>
<path d="M403.365 346.717C403.365 348.405 402.309 349.038 400.831 348.194C399.353 347.35 398.297 345.451 398.297 343.763C398.297 342.075 399.353 341.442 400.831 342.286C402.098 342.919 403.365 345.029 403.365 346.717Z" fill="#173D7A"/>
<path d="M441.585 373.303L436.306 370.349C435.462 369.927 434.828 368.661 434.828 367.606V362.12C434.828 361.065 435.462 360.643 436.306 361.065L441.585 364.019C442.43 364.441 443.064 365.707 443.064 366.762V372.459C443.064 373.303 442.43 373.936 441.585 373.303Z" fill="#173D7A"/>
<path d="M449.189 427.319L337.481 362.964C334.947 361.487 333.047 357.689 333.047 354.313V333.002C333.047 329.626 335.159 328.149 337.481 329.626L449.189 393.981C451.723 395.458 453.623 399.256 453.623 402.632V423.943C453.834 427.319 451.723 428.796 449.189 427.319Z" fill="#5793CE"/>
<path opacity="0.4" d="M446.019 419.934L340.647 359.166C339.38 358.533 338.324 356.423 338.324 354.735V338.699C338.324 337.011 339.38 336.167 340.647 337.011L446.019 397.779C447.286 398.412 448.342 400.522 448.342 402.21V418.246C448.342 419.723 447.286 420.567 446.019 419.934Z" fill="#D4ECFF"/>
<path d="M362.609 363.597L346.983 354.524C345.716 353.891 344.66 351.992 344.66 350.304C344.66 348.616 345.716 347.983 346.983 348.616L362.609 357.689C363.876 358.322 364.932 360.221 364.932 361.909C364.932 363.597 363.876 364.441 362.609 363.597Z" fill="#D4ECFF"/>
<path d="M376.127 368.451C376.127 370.139 375.071 370.772 373.593 369.928C372.114 369.084 371.059 367.185 371.059 365.497C371.059 363.809 372.114 363.176 373.593 364.02C374.86 364.864 376.127 366.763 376.127 368.451Z" fill="white"/>
<path d="M385.205 373.725C385.205 375.413 384.149 376.046 382.671 375.202C381.193 374.358 380.137 372.459 380.137 370.771C380.137 369.083 381.193 368.45 382.671 369.294C383.938 369.927 385.205 372.037 385.205 373.725Z" fill="#173D7A"/>
<path d="M394.287 379C394.287 380.688 393.231 381.321 391.753 380.477C390.275 379.633 389.219 377.734 389.219 376.046C389.219 374.358 390.275 373.725 391.753 374.569C393.02 375.202 394.287 377.312 394.287 379Z" fill="#D4ECFF"/>
<path d="M403.365 384.064C403.365 385.752 402.309 386.385 400.831 385.541C399.353 384.697 398.297 382.798 398.297 381.11C398.297 379.422 399.353 378.789 400.831 379.633C402.098 380.477 403.365 382.587 403.365 384.064Z" fill="#173D7A"/>
<path d="M441.585 410.861L436.306 407.907C435.462 407.485 434.828 406.219 434.828 405.164V399.467C434.828 398.412 435.462 397.99 436.306 398.412L441.585 401.366C442.43 401.788 443.064 403.054 443.064 404.109V409.806C443.064 410.861 442.43 411.494 441.585 410.861Z" fill="#173D7A"/>
<path d="M449.189 464.877L337.481 400.522C334.947 399.045 333.047 395.247 333.047 391.871V370.56C333.047 367.184 335.159 365.707 337.481 367.184L449.189 431.539C451.723 433.016 453.623 436.814 453.623 440.19V461.501C453.834 464.666 451.723 466.354 449.189 464.877Z" fill="#5793CE"/>
<path opacity="0.4" d="M446.019 457.491L340.647 396.723C339.38 396.09 338.324 393.98 338.324 392.292V376.256C338.324 374.568 339.38 373.724 340.647 374.568L446.019 435.336C447.286 435.969 448.342 438.079 448.342 439.767V455.803C448.342 457.28 447.286 458.124 446.019 457.491Z" fill="#D4ECFF"/>
<path d="M362.609 401.155L346.983 392.082C345.716 391.449 344.66 389.55 344.66 387.862C344.66 386.174 345.716 385.541 346.983 386.174L362.609 395.247C363.876 395.88 364.932 397.779 364.932 399.467C364.932 401.155 363.876 401.999 362.609 401.155Z" fill="#D4ECFF"/>
<path d="M376.127 406.008C376.127 407.696 375.071 408.329 373.593 407.485C372.114 406.641 371.059 404.742 371.059 403.054C371.059 401.366 372.114 400.733 373.593 401.577C374.86 402.421 376.127 404.32 376.127 406.008Z" fill="#173D7A"/>
<path d="M385.205 411.283C385.205 412.971 384.149 413.604 382.671 412.76C381.193 411.916 380.137 410.017 380.137 408.329C380.137 406.641 381.193 406.008 382.671 406.852C383.938 407.485 385.205 409.595 385.205 411.283Z" fill="#173D7A"/>
<path d="M394.287 416.347C394.287 418.035 393.231 418.668 391.753 417.824C390.275 416.98 389.219 415.081 389.219 413.393C389.219 411.705 390.275 411.072 391.753 411.916C393.02 412.76 394.287 414.87 394.287 416.347Z" fill="#D4ECFF"/>
<path d="M403.365 421.622C403.365 423.31 402.309 423.943 400.831 423.099C399.353 422.255 398.297 420.356 398.297 418.668C398.297 416.98 399.353 416.347 400.831 417.191C402.098 418.035 403.365 420.145 403.365 421.622Z" fill="#173D7A"/>
<path d="M441.585 448.419L436.306 445.465C435.462 445.043 434.828 443.777 434.828 442.722V437.025C434.828 435.97 435.462 435.548 436.306 435.97L441.585 438.924C442.43 439.346 443.064 440.612 443.064 441.667V447.364C443.064 448.419 442.43 448.841 441.585 448.419Z" fill="#D4ECFF"/>
<path d="M449.189 502.435L337.481 438.08C334.947 436.603 333.047 432.805 333.047 429.429V408.118C333.047 404.742 335.159 403.265 337.481 404.742L449.189 469.097C451.723 470.574 453.623 474.372 453.623 477.748V499.059C453.834 502.224 451.723 503.912 449.189 502.435Z" fill="#5793CE"/>
<path opacity="0.4" d="M446.019 494.839L340.647 434.071C339.38 433.438 338.324 431.328 338.324 429.64V413.604C338.324 411.916 339.38 411.072 340.647 411.916L446.019 472.684C447.286 473.317 448.342 475.427 448.342 477.115V493.151C448.342 494.839 447.286 495.683 446.019 494.839Z" fill="#D4ECFF"/>
<path d="M362.609 438.714L346.983 429.641C345.716 429.008 344.66 427.109 344.66 425.421C344.66 423.733 345.716 423.1 346.983 423.733L362.609 432.806C363.876 433.439 364.932 435.338 364.932 437.026C364.932 438.714 363.876 439.558 362.609 438.714Z" fill="#D4ECFF"/>
<path d="M376.127 443.567C376.127 445.255 375.071 445.888 373.593 445.044C372.114 444.2 371.059 442.301 371.059 440.613C371.059 438.925 372.114 438.292 373.593 439.136C374.86 439.769 376.127 441.879 376.127 443.567Z" fill="#173D7A"/>
<path d="M385.205 448.841C385.205 450.529 384.149 451.162 382.671 450.318C381.193 449.474 380.137 447.575 380.137 445.887C380.137 444.199 381.193 443.566 382.671 444.41C383.938 445.043 385.205 447.153 385.205 448.841Z" fill="white"/>
<path d="M394.287 453.906C394.287 455.594 393.231 456.227 391.753 455.383C390.275 454.539 389.219 452.64 389.219 450.952C389.219 449.264 390.275 448.631 391.753 449.475C393.02 450.319 394.287 452.429 394.287 453.906Z" fill="#D4ECFF"/>
<path d="M403.365 459.18C403.365 460.868 402.309 461.501 400.831 460.657C399.353 459.813 398.297 457.914 398.297 456.226C398.297 454.538 399.353 453.905 400.831 454.749C402.098 455.593 403.365 457.492 403.365 459.18Z" fill="white"/>
<path d="M441.585 485.978L436.306 483.024C435.462 482.602 434.828 481.336 434.828 480.281V474.584C434.828 473.529 435.462 473.107 436.306 473.529L441.585 476.483C442.43 476.905 443.064 478.171 443.064 479.226V484.923C443.064 485.978 442.43 486.4 441.585 485.978Z" fill="#D4ECFF"/>
<path d="M449.189 539.993L337.481 475.638C334.947 474.161 333.047 470.363 333.047 466.987V445.676C333.047 442.3 335.159 440.823 337.481 442.3L449.189 506.655C451.723 508.132 453.623 511.93 453.623 515.306V536.617C453.834 539.782 451.723 541.47 449.189 539.993Z" fill="#5793CE"/>
<path opacity="0.4" d="M446.019 532.397L340.647 471.629C339.38 470.996 338.324 468.886 338.324 467.198V451.162C338.324 449.474 339.38 448.63 340.647 449.474L446.019 510.242C447.286 510.875 448.342 512.985 448.342 514.673V530.709C448.342 532.397 447.286 533.241 446.019 532.397Z" fill="#D4ECFF"/>
<path d="M362.609 476.271L346.983 467.198C345.716 466.565 344.66 464.666 344.66 462.978C344.66 461.29 345.716 460.657 346.983 461.29L362.609 470.363C363.876 470.996 364.932 472.895 364.932 474.583C364.932 476.271 363.876 476.904 362.609 476.271Z" fill="#D4ECFF"/>
<path d="M376.127 481.124C376.127 482.812 375.071 483.446 373.593 482.602C372.114 481.758 371.059 479.858 371.059 478.17C371.059 476.482 372.114 475.85 373.593 476.694C374.86 477.327 376.127 479.436 376.127 481.124Z" fill="#173D7A"/>
<path d="M385.205 486.188C385.205 487.876 384.149 488.509 382.671 487.665C381.193 486.821 380.137 484.922 380.137 483.234C380.137 481.546 381.193 480.913 382.671 481.757C383.938 482.601 385.205 484.711 385.205 486.188Z" fill="#173D7A"/>
<path d="M394.287 491.463C394.287 493.151 393.231 493.784 391.753 492.94C390.275 492.096 389.219 490.197 389.219 488.509C389.219 486.821 390.275 486.188 391.753 487.032C393.02 487.876 394.287 489.775 394.287 491.463Z" fill="#D4ECFF"/>
<path d="M403.365 496.738C403.365 498.426 402.309 499.059 400.831 498.215C399.353 497.371 398.297 495.472 398.297 493.784C398.297 492.096 399.353 491.463 400.831 492.307C402.098 493.151 403.365 495.05 403.365 496.738Z" fill="#173D7A"/>
<path d="M441.585 523.535L436.306 520.581C435.462 520.159 434.828 518.893 434.828 517.838V512.141C434.828 511.086 435.462 510.664 436.306 511.086L441.585 514.04C442.43 514.462 443.064 515.728 443.064 516.783V522.48C443.064 523.535 442.43 523.957 441.585 523.535Z" fill="#173D7A"/>
<path d="M449.189 577.552L337.481 513.197C334.947 511.72 333.047 507.922 333.047 504.546V483.235C333.047 479.859 335.159 478.382 337.481 479.859L449.189 544.214C451.723 545.691 453.623 549.489 453.623 552.865V574.176C453.834 577.341 451.723 578.818 449.189 577.552Z" fill="#5793CE"/>
<path opacity="0.4" d="M446.019 569.955L340.647 509.187C339.38 508.554 338.324 506.444 338.324 504.756V488.72C338.324 487.032 339.38 486.188 340.647 487.032L446.019 547.8C447.286 548.433 448.342 550.543 448.342 552.231V568.267C448.342 569.955 447.286 570.799 446.019 569.955Z" fill="#D4ECFF"/>
<path d="M362.609 513.829L346.983 504.756C345.716 504.123 344.66 502.224 344.66 500.536C344.66 498.848 345.716 498.215 346.983 498.848L362.609 507.921C363.876 508.554 364.932 510.453 364.932 512.141C364.932 513.829 363.876 514.462 362.609 513.829Z" fill="#D4ECFF"/>
<path d="M376.127 518.472C376.127 520.16 375.071 520.793 373.593 519.949C372.114 519.105 371.059 517.206 371.059 515.518C371.059 513.83 372.114 513.197 373.593 514.041C374.86 514.885 376.127 516.995 376.127 518.472Z" fill="white"/>
<path d="M385.205 523.747C385.205 525.435 384.149 526.068 382.671 525.224C381.193 524.38 380.137 522.481 380.137 520.793C380.137 519.105 381.193 518.472 382.671 519.316C383.938 520.16 385.205 522.27 385.205 523.747Z" fill="#173D7A"/>
<path d="M394.287 529.022C394.287 530.71 393.231 531.343 391.753 530.499C390.275 529.655 389.219 527.756 389.219 526.068C389.219 524.38 390.275 523.747 391.753 524.591C393.02 525.435 394.287 527.334 394.287 529.022Z" fill="#D4ECFF"/>
<path d="M403.365 534.296C403.365 535.984 402.309 536.617 400.831 535.773C399.353 534.929 398.297 533.03 398.297 531.342C398.297 529.654 399.353 529.021 400.831 529.865C402.098 530.709 403.365 532.608 403.365 534.296Z" fill="#173D7A"/>
<path d="M441.585 561.093L436.306 558.139C435.462 557.717 434.828 556.451 434.828 555.396V549.699C434.828 548.644 435.462 548.222 436.306 548.644L441.585 551.598C442.43 552.02 443.064 553.286 443.064 554.341V560.038C443.064 561.093 442.43 561.515 441.585 561.093Z" fill="#D4ECFF"/>
<path d="M416.67 235.52C415.825 235.52 414.98 234.676 414.98 233.832V164.413C414.98 163.569 415.825 162.725 416.67 162.725C417.514 162.725 418.359 163.569 418.359 164.413V233.832C418.359 234.887 417.726 235.52 416.67 235.52Z" fill="#5793CE"/>
<path d="M422.798 160.192H410.762V186.145H422.798V160.192Z" fill="#5793CE"/>
<path d="M420.896 188.678C418.573 189.944 414.772 189.944 412.449 188.678C410.126 187.412 410.126 185.091 412.449 183.825C414.772 182.558 418.573 182.558 420.896 183.825C423.43 185.091 423.43 187.201 420.896 188.678Z" fill="#5793CE"/>
<path d="M426.596 123.9H406.957V164.623H426.596V123.9Z" fill="#5793CE"/>
<path d="M410.758 164.412V173.274C414.348 174.962 419.204 174.962 422.794 173.274V164.412C419.204 162.724 414.136 162.724 410.758 164.412Z" fill="#396CAA"/>
<path d="M423.639 168.633C419.838 170.743 413.714 170.743 409.913 168.633C406.112 166.523 406.112 162.936 409.913 160.615C413.714 158.505 419.838 158.505 423.639 160.615C427.44 162.725 427.44 166.523 423.639 168.633Z" fill="#5793CE"/>
<path d="M433.142 245.438C432.298 245.438 431.453 244.594 431.453 243.75V174.331C431.453 173.487 432.298 172.643 433.142 172.643C433.987 172.643 434.832 173.487 434.832 174.331V243.75C434.832 244.594 434.198 245.438 433.142 245.438Z" fill="#5793CE"/>
<path d="M439.271 169.899H427.234V195.852H439.271V169.899Z" fill="#5793CE"/>
<path d="M437.368 198.385C435.046 199.651 431.245 199.651 428.922 198.385C426.599 197.119 426.599 194.798 428.922 193.532C431.245 192.266 435.046 192.266 437.368 193.532C439.902 194.798 439.902 197.119 437.368 198.385Z" fill="#5793CE"/>
<path d="M443.068 133.607H423.43V174.33H443.068V133.607Z" fill="#5793CE"/>
<path d="M427.23 174.119V182.981C430.82 184.669 435.677 184.669 439.267 182.981V174.119C435.677 172.642 430.609 172.642 427.23 174.119Z" fill="#396CAA"/>
<path d="M440.112 178.551C436.311 180.661 430.187 180.661 426.386 178.551C422.585 176.441 422.585 172.854 426.386 170.533C430.187 168.423 436.311 168.423 440.112 170.533C443.913 172.643 443.913 176.23 440.112 178.551Z" fill="#5793CE"/>
<path d="M449.611 255.143C448.767 255.143 447.922 254.299 447.922 253.455V184.036C447.922 183.192 448.767 182.348 449.611 182.348C450.456 182.348 451.301 183.192 451.301 184.036V253.455C451.301 254.51 450.667 255.143 449.611 255.143Z" fill="#5793CE"/>
<path d="M455.736 179.815H443.699V205.768H455.736V179.815Z" fill="#5793CE"/>
<path d="M454.048 208.301C451.725 209.567 447.924 209.567 445.602 208.301C443.279 207.035 443.279 204.714 445.602 203.448C447.924 202.182 451.725 202.182 454.048 203.448C456.371 204.714 456.371 206.824 454.048 208.301Z" fill="#5793CE"/>
<path d="M459.537 143.523H439.898V184.246H459.537V143.523Z" fill="#5793CE"/>
<path d="M443.699 184.036V192.898C447.289 194.586 452.146 194.586 455.736 192.898V184.036C452.146 182.348 447.289 182.348 443.699 184.036Z" fill="#396CAA"/>
<path d="M456.58 188.256C452.779 190.366 446.656 190.366 442.855 188.256C439.054 186.146 439.054 182.559 442.855 180.238C446.656 178.128 452.779 178.128 456.58 180.238C460.381 182.559 460.381 186.146 456.58 188.256Z" fill="#5793CE"/>
<path d="M466.08 265.061C465.235 265.061 464.391 264.217 464.391 263.373V193.954C464.391 193.11 465.235 192.266 466.08 192.266C466.925 192.266 467.769 193.11 467.769 193.954V263.373C467.769 264.217 467.136 265.061 466.08 265.061Z" fill="#5793CE"/>
<path d="M472.204 189.522H460.168V215.475H472.204V189.522Z" fill="#5793CE"/>
<path d="M470.517 218.008C468.194 219.274 464.393 219.274 462.07 218.008C459.747 216.742 459.747 214.421 462.07 213.155C464.393 211.889 468.194 211.889 470.517 213.155C472.84 214.632 472.84 216.742 470.517 218.008Z" fill="#5793CE"/>
<path d="M476.006 153.441H456.367V194.164H476.006V153.441Z" fill="#5793CE"/>
<path d="M460.168 193.954V202.815C463.758 204.503 468.615 204.503 472.204 202.815V193.954C468.615 192.266 463.758 192.266 460.168 193.954Z" fill="#396CAA"/>
<path d="M473.049 198.174C469.248 200.284 463.124 200.284 459.323 198.174C455.522 196.064 455.522 192.477 459.323 190.156C463.124 188.046 469.248 188.046 473.049 190.156C476.85 192.266 476.85 195.853 473.049 198.174Z" fill="#5793CE"/>
<path d="M542.732 227.924L568.917 212.521L543.999 181.293L537.453 192.054L542.732 227.924Z" fill="#5793CE"/>
<path d="M352.473 57.014L394.284 32.96L392.806 57.014L368.732 64.61L352.473 57.014Z" fill="#5793CE"/>
<path d="M550.126 149.643C546.959 147.744 544.002 146.689 541.046 146.267C536.823 124.112 521.408 100.691 503.036 89.93C497.546 86.765 492.267 85.077 487.41 84.655C484.876 57.858 466.293 27.263 443.487 14.181C431.662 7.42901 420.892 6.58501 412.868 10.805L412.446 11.016C412.234 11.227 412.023 11.227 411.812 11.438L387.106 25.997L395.341 32.538C387.95 35.703 383.305 43.932 383.305 56.17C383.305 78.747 399.142 105.966 418.569 117.149L549.915 210.833C564.486 219.273 576.311 212.521 576.311 195.641C576.522 178.55 564.697 158.083 550.126 149.643Z" fill="#5793CE"/>
<path d="M384.781 46.2529L441.374 13.1259C430.393 7.4289 420.468 7.00689 413.078 10.8049L412.655 11.0159C412.444 11.2269 412.233 11.2269 412.022 11.4379L387.315 25.9969L395.551 32.5379C390.483 34.6479 386.682 39.2899 384.781 46.2529Z" fill="#5793CE"/>
<path d="M489.308 143.524L530.697 119.259C523.517 107.021 513.804 96.2603 503.034 90.1413C501.556 89.2973 500.289 88.6643 498.811 88.0312L446.23 118.626L489.308 143.524Z" fill="#5793CE"/>
<path d="M398.93 28.7401L417.301 39.2901L451.088 19.4561C448.554 17.5571 446.02 15.8691 443.486 14.3921C439.474 12.0711 435.462 10.3831 431.661 9.53906L398.93 28.7401Z" fill="#D4ECFF"/>
<path d="M526.051 112.085L493.109 131.497L504.512 144.368L534.498 126.644C532.175 121.58 529.219 116.727 526.051 112.085Z" fill="#D4ECFF"/>
<path d="M524.151 164.835C520.984 162.936 518.028 161.881 515.071 161.459C510.848 139.304 495.433 115.883 477.061 105.122C471.571 101.957 466.292 100.269 461.435 99.8465C458.901 73.0495 440.318 42.4545 417.512 29.3725C393.017 15.2355 373.378 26.6295 373.378 54.9035C373.378 55.9585 373.378 56.8025 373.378 57.8575C355.64 49.6285 341.492 58.9125 341.492 80.0125C341.492 102.59 357.33 129.809 376.757 140.992L523.94 225.814C538.511 234.254 550.336 227.502 550.336 210.622C550.758 193.953 538.722 173.275 524.151 164.835Z" fill="#D4ECFF"/>
<path d="M373.588 57.8579C373.588 56.8029 373.588 55.9589 373.588 54.9039C373.588 54.9039 373.588 54.9039 373.588 54.6929C363.663 50.8949 355.217 52.5829 349.938 58.7019C355.639 54.0599 364.086 53.4269 373.588 57.8579Z" fill="white"/>
<path d="M526.261 162.725C523.093 160.826 520.137 159.771 517.181 159.349C512.957 137.194 497.542 113.773 479.171 103.012C473.68 99.8471 468.401 98.1591 463.544 97.7371C461.01 70.9401 442.428 40.3451 419.622 27.2631C404.418 18.4011 391.114 19.6671 383.09 28.5291C391.114 21.5661 403.573 21.3551 417.51 29.3731C440.105 42.4551 458.899 73.0501 461.433 99.8471C466.29 100.269 471.569 101.957 477.059 105.122C495.431 115.672 510.846 139.304 515.069 161.459C517.814 161.881 520.982 162.936 524.149 164.835C538.72 173.275 550.545 193.742 550.545 210.622C550.545 216.741 549.067 221.383 546.322 224.759C550.334 221.805 552.657 216.108 552.657 208.512C552.868 191.843 541.042 171.165 526.261 162.725Z" fill="white"/>
<path d="M370.422 64.6105L381.402 69.6745L380.769 57.4365C380.769 56.5925 380.769 55.7485 380.769 54.9045C380.769 44.1435 384.147 36.1255 390.06 32.7495C395.973 29.3735 404.419 30.4285 413.922 35.9145C434.194 47.5195 451.932 76.0045 454.044 100.691L454.677 106.81L460.801 107.232C464.602 107.443 468.825 108.92 473.26 111.452C489.308 120.736 503.879 142.258 507.68 162.725L508.736 167.789L513.804 168.633C515.915 169.055 518.027 169.688 520.35 171.165C532.809 178.339 543.156 196.274 543.156 210.622C543.156 215.897 541.678 219.906 539.144 221.383C536.61 222.86 532.386 222.227 527.741 219.484L380.769 134.662C363.664 124.745 349.094 99.8475 349.094 80.0135C349.094 72.2065 351.417 66.2985 355.429 63.7665C357.118 62.7115 359.019 62.2895 361.341 62.2895C364.087 62.2895 367.043 63.1335 370.422 64.6105Z" fill="#396CAA"/>
<path d="M509.163 533.663H506.84V407.907L521.622 399.467V337.433H523.944V400.733L509.163 409.173V533.663Z" fill="white"/>
<path d="M152.078 560.882C150.811 560.882 149.544 560.46 148.277 559.827L107.311 536.617C106.044 535.984 105.41 534.718 105.41 533.241C105.41 531.764 106.044 530.498 107.311 529.865L209.726 470.785C215.639 467.409 222.819 467.409 228.731 470.785L345.718 538.305L344.029 541.259L227.042 473.739C222.185 470.996 216.273 470.996 211.416 473.739L109 532.819C108.789 533.03 108.789 533.241 108.789 533.241C108.789 533.452 108.789 533.663 109 533.663L149.966 556.873C151.445 557.717 153.134 557.717 154.401 556.662L171.716 545.479L173.617 548.222L156.301 559.405C154.823 560.46 153.345 560.882 152.078 560.882Z" fill="#B2D3EA"/>
<path d="M205.503 569.743L150.389 537.882C147.01 535.983 147.432 532.607 151.233 530.286L204.447 499.48C208.459 497.159 214.372 496.948 217.751 498.847L272.865 530.708C276.244 532.607 275.822 535.983 272.021 538.304L218.807 569.11C214.794 571.431 208.882 571.642 205.503 569.743Z" fill="#B2D3EA"/>
<path d="M291.238 506.654V482.811H237.813L219.442 472.05C215.218 469.518 207.827 469.94 202.971 472.683L185.655 482.6H132.23V507.076C132.019 508.764 133.074 510.241 134.975 511.507L204.026 551.386C208.25 553.919 215.641 553.496 220.497 550.753L287.226 512.351C289.971 510.663 291.238 508.553 291.238 506.654Z" fill="#396CAA"/>
<path d="M211.629 470.362C208.461 470.362 205.294 471.206 202.76 472.683L185.444 482.6H132.019V507.076C131.808 508.764 132.863 510.241 134.764 511.507L203.815 551.386C205.927 552.652 208.672 553.074 211.417 553.074V470.362H211.629Z" fill="#396CAA"/>
<path d="M137.932 482.601H131.808V507.077C131.597 508.765 132.653 510.242 134.553 511.508L137.721 513.407V482.601H137.932Z" fill="#5793CE"/>
<path d="M204.871 552.02C208.461 553.497 213.74 553.497 218.175 551.809V523.957H204.871V552.02Z" fill="#5793CE"/>
<path d="M203.814 527.122L134.762 487.243C130.539 484.711 130.961 480.491 136.029 477.748L202.758 439.346C207.615 436.603 215.006 436.181 219.229 438.713L288.281 478.592C292.504 481.124 292.082 485.344 287.014 488.087L220.285 526.489C215.428 529.232 208.037 529.443 203.814 527.122Z" fill="#D4ECFF"/>
<path d="M205.081 519.947L147.221 486.609C143.631 484.499 144.054 480.912 148.277 478.591L204.236 446.308C208.248 443.987 214.583 443.776 218.173 445.675L276.033 479.013C279.623 481.123 279.2 484.71 274.977 487.031L219.018 519.314C214.795 521.635 208.671 521.846 205.081 519.947Z" fill="#5793CE"/>
<path d="M265.686 512.984C265.686 514.672 264.419 516.993 262.941 517.837C261.462 518.681 260.195 518.048 260.195 516.149C260.195 514.461 261.462 512.14 262.941 511.296C264.419 510.452 265.686 511.085 265.686 512.984Z" fill="#D4ECFF"/>
<path d="M274.768 507.71C274.768 509.398 273.501 511.718 272.022 512.562C270.544 513.406 269.277 512.774 269.277 510.875C269.277 509.187 270.544 506.866 272.022 506.022C273.501 505.178 274.768 506.022 274.768 507.71Z" fill="#D4ECFF"/>
<path d="M283.635 502.435C283.635 504.123 282.368 506.444 280.89 507.288C279.412 508.132 278.145 507.499 278.145 505.6C278.145 503.912 279.412 501.591 280.89 500.747C282.368 500.114 283.635 500.747 283.635 502.435Z" fill="#D4ECFF"/>
<path d="M291.238 468.464V444.621H237.813L219.442 433.86C215.218 431.328 207.827 431.75 202.971 434.493L185.655 444.41H132.23V468.886C132.019 470.574 133.074 472.051 134.975 473.317L204.026 513.196C208.25 515.728 215.641 515.306 220.497 512.563L287.226 474.161C289.971 472.684 291.238 470.574 291.238 468.464Z" fill="#396CAA"/>
<path d="M211.629 432.383C208.461 432.383 205.294 433.227 202.76 434.704L185.444 444.621H132.019V469.097C131.808 470.785 132.863 472.262 134.764 473.528L203.815 513.407C205.927 514.673 208.672 515.095 211.417 515.095V432.383H211.629Z" fill="#396CAA"/>
<path d="M137.932 444.621H131.808V469.097C131.597 470.785 132.653 472.262 134.553 473.528L137.721 475.427V444.621H137.932Z" fill="#5793CE"/>
<path d="M204.871 514.04C208.461 515.517 213.74 515.517 218.175 513.829V485.977H204.871V514.04Z" fill="#5793CE"/>
<path d="M203.814 488.931L134.762 449.052C130.539 446.52 130.961 442.3 136.029 439.557L202.758 401.155C207.615 398.412 215.006 397.99 219.229 400.522L288.281 440.401C292.504 442.933 292.082 447.153 287.014 449.896L220.285 488.298C215.428 491.252 208.037 491.463 203.814 488.931Z" fill="#D4ECFF"/>
<path d="M205.081 481.757L147.221 448.419C143.631 446.309 144.054 442.722 148.277 440.401L204.236 408.118C208.248 405.797 214.583 405.586 218.173 407.485L276.033 440.823C279.623 442.933 279.2 446.52 274.977 448.841L219.018 481.124C214.795 483.656 208.671 483.867 205.081 481.757Z" fill="#5793CE"/>
<path d="M265.686 474.793C265.686 476.481 264.419 478.803 262.941 479.647C261.462 480.491 260.195 479.857 260.195 477.958C260.195 476.27 261.462 473.95 262.941 473.106C264.419 472.262 265.686 473.105 265.686 474.793Z" fill="#D4ECFF"/>
<path d="M274.768 469.73C274.768 471.418 273.501 473.739 272.022 474.583C270.544 475.427 269.277 474.794 269.277 472.895C269.277 471.207 270.544 468.886 272.022 468.042C273.501 467.198 274.768 467.831 274.768 469.73Z" fill="#D4ECFF"/>
<path d="M283.635 464.455C283.635 466.143 282.368 468.464 280.89 469.308C279.412 470.152 278.145 469.519 278.145 467.62C278.145 465.932 279.412 463.611 280.89 462.767C282.368 461.923 283.635 462.767 283.635 464.455Z" fill="#D4ECFF"/>
<path d="M291.238 430.484V406.641H237.813L219.442 395.88C215.218 393.348 207.827 393.77 202.971 396.513L185.655 406.43H132.23V430.906C132.019 432.594 133.074 434.071 134.975 435.337L204.026 475.216C208.25 477.748 215.641 477.326 220.497 474.583L287.226 436.181C289.971 434.493 291.238 432.383 291.238 430.484Z" fill="#396CAA"/>
<path d="M211.629 394.402C208.461 394.402 205.294 395.246 202.76 396.723L185.444 406.64H132.019V431.116C131.808 432.804 132.863 434.281 134.764 435.547L203.815 475.426C205.927 476.692 208.672 477.114 211.417 477.114V394.402H211.629Z" fill="#396CAA"/>
<path d="M137.932 406.641H131.808V431.117C131.597 432.805 132.653 434.282 134.553 435.548L137.721 437.447V406.641H137.932Z" fill="#5793CE"/>
<path d="M204.871 475.848C208.461 477.325 213.74 477.325 218.175 475.637V447.785H204.871V475.848Z" fill="#5793CE"/>
<path d="M203.814 450.951L134.762 411.072C130.539 408.54 130.961 404.32 136.029 401.577L202.758 363.175C207.615 360.432 215.006 360.01 219.229 362.542L288.281 402.421C292.504 404.953 292.082 409.173 287.014 411.916L220.285 450.318C215.428 453.061 208.037 453.483 203.814 450.951Z" fill="#D4ECFF"/>
<path d="M287.224 407.062L220.495 445.464C215.639 448.207 208.248 448.629 204.024 446.097L134.762 406.429C133.917 405.796 133.072 405.163 132.65 404.53C131.172 406.851 131.805 409.383 134.762 411.071L203.813 450.95C208.037 453.482 215.427 453.06 220.284 450.317L287.013 411.915C290.814 409.805 291.87 406.64 290.392 404.319C289.758 405.163 288.702 406.218 287.224 407.062Z" fill="white"/>
<path d="M265.686 436.814C265.686 438.502 264.419 440.823 262.941 441.667C261.462 442.511 260.195 441.878 260.195 439.979C260.195 438.291 261.462 435.97 262.941 435.126C264.419 434.282 265.686 434.915 265.686 436.814Z" fill="#D4ECFF"/>
<path d="M274.768 431.539C274.768 433.227 273.501 435.548 272.022 436.392C270.544 437.236 269.277 436.603 269.277 434.704C269.277 433.016 270.544 430.695 272.022 429.851C273.501 429.007 274.768 429.851 274.768 431.539Z" fill="#D4ECFF"/>
<path d="M283.635 426.475C283.635 428.163 282.368 430.484 280.89 431.328C279.412 432.172 278.145 431.539 278.145 429.64C278.145 427.952 279.412 425.631 280.89 424.787C282.368 423.943 283.635 424.576 283.635 426.475Z" fill="#D4ECFF"/>
<path d="M208.037 426.263L175.728 407.695C173.828 406.64 174.039 404.53 176.362 403.264L207.614 385.329C209.937 384.063 213.316 383.852 215.428 384.907L247.736 403.475C249.636 404.53 249.425 406.64 247.102 407.906L215.85 425.841C213.316 427.318 209.937 427.318 208.037 426.263Z" fill="#5793CE"/>
<path d="M210.991 410.649L206.557 408.117C206.346 407.906 206.346 407.695 206.557 407.484L210.78 404.952C211.202 404.741 211.625 404.741 211.836 404.952L216.27 407.484C216.482 407.695 216.482 407.906 216.27 408.117L212.047 410.649C211.836 410.649 211.414 410.86 210.991 410.649Z" fill="#D4ECFF"/>
<path d="M175.729 407.484C175.94 407.484 176.151 407.273 176.362 407.273L207.615 389.338C209.938 388.072 213.317 387.861 215.428 388.916L247.737 407.484C249.637 406.218 249.637 404.319 247.737 403.264L215.428 384.696C213.528 383.641 209.938 383.641 207.615 385.118L176.362 403.053C173.828 404.53 173.617 406.429 175.729 407.484Z" fill="#396CAA"/>
<path d="M199.379 457.914C199.379 459.18 198.535 459.602 197.479 458.969C196.423 458.336 195.578 456.859 195.578 455.804C195.578 454.538 196.423 454.116 197.479 454.749C198.535 455.171 199.379 456.648 199.379 457.914Z" fill="#D4ECFF"/>
<path d="M193.68 454.538C193.68 455.804 192.835 456.226 191.779 455.593C190.724 454.96 189.879 453.483 189.879 452.428C189.879 451.162 190.724 450.74 191.779 451.373C192.835 452.006 193.68 453.272 193.68 454.538Z" fill="#D4ECFF"/>
<path d="M199.379 464.877C199.379 466.143 198.535 466.565 197.479 465.932C196.423 465.299 195.578 463.822 195.578 462.767C195.578 461.712 196.423 461.079 197.479 461.712C198.535 462.345 199.379 463.822 199.379 464.877Z" fill="#D4ECFF"/>
<path d="M193.68 461.501C193.68 462.767 192.835 463.189 191.779 462.556C190.724 461.923 189.879 460.446 189.879 459.391C189.879 458.125 190.724 457.703 191.779 458.336C192.835 458.969 193.68 460.446 193.68 461.501Z" fill="#D4ECFF"/>
<path d="M199.379 495.682C199.379 496.948 198.535 497.37 197.479 496.737C196.423 496.104 195.578 494.627 195.578 493.572C195.578 492.306 196.423 491.884 197.479 492.517C198.535 493.15 199.379 494.627 199.379 495.682Z" fill="#D4ECFF"/>
<path d="M193.68 492.517C193.68 493.783 192.835 494.205 191.779 493.572C190.724 492.939 189.879 491.462 189.879 490.407C189.879 489.141 190.724 488.719 191.779 489.352C192.835 489.774 193.68 491.251 193.68 492.517Z" fill="#D4ECFF"/>
<path d="M199.379 502.856C199.379 504.122 198.535 504.544 197.479 503.911C196.423 503.278 195.578 501.801 195.578 500.746C195.578 499.691 196.423 499.058 197.479 499.691C198.535 500.113 199.379 501.59 199.379 502.856Z" fill="#D4ECFF"/>
<path d="M193.68 499.48C193.68 500.746 192.835 501.168 191.779 500.535C190.724 499.902 189.879 498.425 189.879 497.37C189.879 496.104 190.724 495.682 191.779 496.315C192.835 496.737 193.68 498.214 193.68 499.48Z" fill="#D4ECFF"/>
<path d="M199.379 533.663C199.379 534.929 198.535 535.351 197.479 534.718C196.423 534.085 195.578 532.608 195.578 531.553C195.578 530.287 196.423 529.865 197.479 530.498C198.535 530.92 199.379 532.397 199.379 533.663Z" fill="#D4ECFF"/>
<path d="M193.68 530.287C193.68 531.553 192.835 531.975 191.779 531.342C190.724 530.709 189.879 529.232 189.879 528.177C189.879 526.911 190.724 526.489 191.779 527.122C192.835 527.755 193.68 529.021 193.68 530.287Z" fill="#D4ECFF"/>
<path d="M199.379 540.626C199.379 541.892 198.535 542.314 197.479 541.681C196.423 541.048 195.578 539.571 195.578 538.516C195.578 537.25 196.423 536.828 197.479 537.461C198.535 538.094 199.379 539.571 199.379 540.626Z" fill="#D4ECFF"/>
<path d="M193.68 537.25C193.68 538.516 192.835 538.938 191.779 538.305C190.724 537.672 189.879 536.195 189.879 535.14C189.879 533.874 190.724 533.452 191.779 534.085C192.835 534.718 193.68 536.195 193.68 537.25Z" fill="#D4ECFF"/>
<path d="M212.472 598.018C210.571 598.018 208.46 597.596 206.77 596.541L171.928 576.285C170.661 575.652 170.027 574.386 170.027 572.909C170.027 571.432 170.661 570.377 171.928 569.533L194.734 556.24L196.423 559.194L173.617 572.487C173.406 572.487 173.406 572.698 173.406 572.909C173.406 573.12 173.406 573.12 173.617 573.331L208.46 593.587C210.994 595.064 213.95 595.064 216.484 593.587L284.691 554.763C288.281 552.864 292.504 552.864 296.094 554.763L353.32 587.679C355.854 589.156 358.81 589.156 361.344 587.679L388.796 571.854L390.485 574.808L363.034 590.633C359.444 592.743 355.22 592.743 351.631 590.633L294.616 557.717C292.082 556.24 289.125 556.24 286.591 557.717L218.173 596.541C216.273 597.596 214.372 598.018 212.472 598.018Z" fill="#B2D3EA"/>
<path d="M514.866 726.518L459.752 694.657C456.373 692.758 456.796 689.382 460.597 687.061L513.811 656.255C517.823 653.934 523.735 653.723 527.114 655.622L582.229 687.483C585.607 689.382 585.185 692.758 581.384 695.079L528.17 725.885C524.158 728.206 518.245 728.417 514.866 726.518Z" fill="#B2D3EA"/>
<path d="M600.598 663.428V639.585H547.172L528.801 628.824C524.578 626.292 517.187 626.714 512.33 629.457L495.014 639.374H441.589V663.85C441.378 665.538 442.434 667.015 444.334 668.281L513.386 708.16C517.609 710.692 525 710.27 529.857 707.527L596.586 669.125C599.331 667.437 600.809 665.327 600.598 663.428Z" fill="#396CAA"/>
<path d="M520.988 627.136C517.82 627.136 514.653 627.98 512.119 629.457L494.803 639.374H441.378V663.85C441.167 665.538 442.223 667.015 444.123 668.281L513.175 708.16C515.287 709.426 518.032 709.848 520.777 709.848V627.136H520.988Z" fill="#396CAA"/>
<path d="M447.502 639.374H441.378V663.85C441.167 665.538 442.223 667.015 444.123 668.281L447.291 670.18V639.374H447.502Z" fill="#5793CE"/>
<path d="M514.441 708.793C518.031 710.27 523.31 710.27 527.745 708.582V680.73H514.441V708.793Z" fill="#5793CE"/>
<path d="M513.384 683.895L444.333 644.016C440.109 641.484 440.532 637.264 445.6 634.521L512.328 596.119C517.185 593.376 524.576 592.954 528.799 595.486L597.851 635.365C602.074 637.897 601.652 642.117 596.584 644.86L529.855 683.262C524.998 686.005 517.607 686.216 513.384 683.895Z" fill="#D4ECFF"/>
<path d="M514.651 676.721L456.791 643.172C453.202 641.062 453.624 637.475 457.847 635.154L513.806 602.871C517.819 600.55 524.154 600.339 527.744 602.238L585.603 635.576C589.193 637.686 588.771 641.273 584.547 643.594L528.588 675.877C524.365 678.409 518.241 678.62 514.651 676.721Z" fill="#5793CE"/>
<path d="M575.256 669.758C575.256 671.446 573.989 673.767 572.511 674.611C571.033 675.455 569.766 674.822 569.766 672.923C569.766 671.235 571.033 668.914 572.511 668.07C573.989 667.226 575.256 667.859 575.256 669.758Z" fill="#D4ECFF"/>
<path d="M584.123 664.483C584.123 666.171 582.856 668.492 581.378 669.336C579.9 670.18 578.633 669.547 578.633 667.648C578.633 665.96 579.9 663.639 581.378 662.795C582.856 661.951 584.123 662.795 584.123 664.483Z" fill="#D4ECFF"/>
<path d="M593.205 659.208C593.205 660.896 591.938 663.217 590.46 664.061C588.982 664.905 587.715 664.272 587.715 662.373C587.715 660.685 588.982 658.364 590.46 657.52C591.938 656.887 593.205 657.52 593.205 659.208Z" fill="#D4ECFF"/>
<path d="M600.598 625.238V601.394H547.172L528.801 590.633C524.578 588.101 517.187 588.523 512.33 591.266L495.014 601.183H441.589V625.87C441.378 627.558 442.434 629.035 444.334 630.301L513.386 670.18C517.609 672.712 525 672.291 529.857 669.548L596.586 631.145C599.331 629.457 600.809 627.348 600.598 625.238Z" fill="#396CAA"/>
<path d="M520.988 589.156C517.82 589.156 514.653 590 512.119 591.477L494.803 601.394H441.378V625.87C441.167 627.558 442.223 629.035 444.123 630.301L513.175 670.18C515.287 671.446 518.032 671.868 520.777 671.868V589.156H520.988Z" fill="#396CAA"/>
<path d="M447.502 601.395H441.378V625.871C441.167 627.559 442.223 629.036 444.123 630.302L447.291 632.201V601.395H447.502Z" fill="#5793CE"/>
<path d="M514.441 670.813C518.031 672.29 523.31 672.29 527.745 670.602V642.75H514.441V670.813Z" fill="#5793CE"/>
<path d="M513.384 645.705L444.333 605.826C440.109 603.294 440.532 599.074 445.6 596.331L512.328 557.929C517.185 555.186 524.576 554.764 528.799 557.296L597.851 597.175C602.074 599.707 601.652 603.927 596.584 606.67L529.855 645.072C524.998 648.026 517.607 648.237 513.384 645.705Z" fill="#D4ECFF"/>
<path d="M514.651 638.53L456.791 605.192C453.202 603.082 453.624 599.495 457.847 597.174L513.806 564.891C517.819 562.57 524.154 562.359 527.744 564.258L585.603 597.596C589.193 599.706 588.771 603.293 584.547 605.614L528.588 637.897C524.365 640.429 518.241 640.64 514.651 638.53Z" fill="#5793CE"/>
<path d="M575.256 631.568C575.256 633.256 573.989 635.577 572.511 636.421C571.033 637.265 569.766 636.632 569.766 634.733C569.766 633.045 571.033 630.724 572.511 629.88C573.989 629.036 575.256 629.88 575.256 631.568Z" fill="#D4ECFF"/>
<path d="M584.123 626.504C584.123 628.192 582.856 630.513 581.378 631.357C579.9 632.201 578.633 631.568 578.633 629.669C578.633 627.981 579.9 625.66 581.378 624.816C582.856 623.972 584.123 624.605 584.123 626.504Z" fill="#D4ECFF"/>
<path d="M593.205 621.229C593.205 622.917 591.938 625.238 590.46 626.082C588.982 626.926 587.715 626.293 587.715 624.394C587.715 622.706 588.982 620.385 590.46 619.541C591.938 618.697 593.205 619.541 593.205 621.229Z" fill="#D4ECFF"/>
<path d="M600.598 587.257V563.414H547.172L528.801 552.653C524.578 550.121 517.187 550.543 512.33 553.286L495.014 563.203H441.589V587.89C441.378 589.578 442.434 591.055 444.334 592.321L513.386 632.2C517.609 634.732 525 634.31 529.857 631.567L596.586 593.165C599.331 591.266 600.809 589.156 600.598 587.257Z" fill="#396CAA"/>
<path d="M520.988 551.176C517.82 551.176 514.653 552.02 512.119 553.497L494.803 563.414H441.378V587.89C441.167 589.578 442.223 591.055 444.123 592.321L513.175 632.2C515.287 633.466 518.032 633.888 520.777 633.888V551.176H520.988Z" fill="#396CAA"/>
<path d="M447.502 563.414H441.378V587.89C441.167 589.578 442.223 591.055 444.123 592.321L447.291 594.22V563.414H447.502Z" fill="#5793CE"/>
<path d="M514.441 632.622C518.031 634.099 523.31 634.099 527.745 632.411V604.77H514.441V632.622Z" fill="#5793CE"/>
<path d="M513.384 607.724L444.333 567.845C440.109 565.313 440.532 561.093 445.6 558.35L512.328 519.948C517.185 517.205 524.576 516.783 528.799 519.315L597.851 559.194C602.074 561.726 601.652 565.946 596.584 568.689L529.855 607.091C524.998 609.834 517.607 610.256 513.384 607.724Z" fill="#D4ECFF"/>
<path d="M596.583 563.836L529.854 602.238C524.998 604.981 517.607 605.403 513.383 602.871L444.332 562.992C443.487 562.359 442.643 561.726 442.22 561.093C440.742 563.414 441.376 565.946 444.332 567.634L513.383 607.513C517.607 610.045 524.998 609.623 529.854 606.88L596.583 568.478C600.384 566.368 601.44 563.203 599.962 560.882C599.328 561.937 598.061 562.992 596.583 563.836Z" fill="white"/>
<path d="M575.256 593.587C575.256 595.275 573.989 597.596 572.511 598.44C571.033 599.284 569.766 598.651 569.766 596.752C569.766 594.853 571.033 592.743 572.511 591.899C573.989 591.055 575.256 591.688 575.256 593.587Z" fill="#D4ECFF"/>
<path d="M584.123 588.312C584.123 590 582.856 592.321 581.378 593.165C579.9 594.009 578.633 593.376 578.633 591.477C578.633 589.789 579.9 587.468 581.378 586.624C582.856 585.78 584.123 586.624 584.123 588.312Z" fill="#D4ECFF"/>
<path d="M593.205 583.248C593.205 584.936 591.938 587.257 590.46 588.101C588.982 588.945 587.715 588.312 587.715 586.413C587.715 584.725 588.982 582.404 590.46 581.56C591.938 580.716 593.205 581.349 593.205 583.248Z" fill="#D4ECFF"/>
<path d="M517.4 583.036L485.091 564.468C483.191 563.413 483.402 561.303 485.725 560.037L516.978 542.102C519.3 540.836 522.679 540.625 524.791 541.68L557.099 560.248C559 561.303 558.789 563.413 556.466 564.679L525.213 582.614C522.89 584.091 519.512 584.091 517.4 583.036Z" fill="#5793CE"/>
<path d="M520.566 567.423L516.131 564.891C515.92 564.68 515.92 564.469 516.131 564.258L520.354 561.726C520.777 561.515 521.199 561.515 521.41 561.726L525.845 564.258C526.056 564.469 526.056 564.68 525.845 564.891L521.621 567.423C521.199 567.423 520.777 567.634 520.566 567.423Z" fill="#D4ECFF"/>
<path d="M485.091 564.258C485.303 564.258 485.514 564.047 485.725 564.047L516.978 546.112C519.3 544.846 522.679 544.635 524.791 545.69L557.099 564.258C559 562.992 559 561.093 557.099 560.038L524.791 541.47C522.89 540.415 519.3 540.415 516.978 541.892L485.725 559.827C483.402 561.304 483.191 563.203 485.091 564.258Z" fill="#396CAA"/>
<path d="M414.77 181.503C414.77 182.769 413.925 183.191 412.869 182.558C411.813 181.925 410.969 180.448 410.969 179.393C410.969 178.338 411.813 177.705 412.869 178.338C413.925 178.971 414.77 180.448 414.77 181.503Z" fill="#D4ECFF"/>
<path d="M431.453 191.632C431.453 192.898 430.609 193.32 429.553 192.687C428.497 192.054 427.652 190.577 427.652 189.522C427.652 188.467 428.497 187.834 429.553 188.467C430.609 188.889 431.453 190.366 431.453 191.632Z" fill="#D4ECFF"/>
<path d="M447.922 201.548C447.922 202.814 447.077 203.236 446.022 202.603C444.966 201.97 444.121 200.493 444.121 199.438C444.121 198.383 444.966 197.75 446.022 198.383C447.077 199.016 447.922 200.493 447.922 201.548Z" fill="#D4ECFF"/>
<path d="M464.395 211.677C464.395 212.943 463.55 213.365 462.494 212.732C461.438 212.099 460.594 210.622 460.594 209.567C460.594 208.512 461.438 207.879 462.494 208.512C463.55 208.934 464.395 210.411 464.395 211.677Z" fill="#D4ECFF"/>
<path d="M426.386 201.549C426.386 202.393 425.542 203.237 424.697 203.237C423.852 203.237 423.008 202.393 423.008 201.549C423.008 200.705 423.852 199.861 424.697 199.861C425.542 199.861 426.386 200.705 426.386 201.549Z" fill="#D4ECFF"/>
<path d="M441.801 210.833C441.801 211.677 440.956 212.521 440.111 212.521C439.267 212.521 438.422 211.677 438.422 210.833C438.422 209.989 439.267 209.145 440.111 209.145C440.956 209.145 441.801 209.989 441.801 210.833Z" fill="#D4ECFF"/>
<path d="M455.525 221.805C456.458 221.805 457.215 221.049 457.215 220.117C457.215 219.184 456.458 218.429 455.525 218.429C454.592 218.429 453.836 219.184 453.836 220.117C453.836 221.049 454.592 221.805 455.525 221.805Z" fill="#D4ECFF"/>
<path d="M472.629 228.979C472.629 229.823 471.784 230.667 470.939 230.667C470.095 230.667 469.25 229.823 469.25 228.979C469.25 228.135 470.095 227.291 470.939 227.291C471.995 227.291 472.629 227.924 472.629 228.979Z" fill="#D4ECFF"/>
</svg>
