<svg width="850" height="790" viewBox="0 0 1100 790" fill="none" xmlns="http://www.w3.org/2000/svg">
    <path opacity="0.5"
        d="M140.093 674.682L49.2241 620.186C47.2468 618.99 47.5076 616.935 49.7674 615.558L76.4718 599.553L174.489 658.248L147.785 674.276C146.623 674.965 145.322 675.361 143.986 675.431C142.65 675.502 141.316 675.245 140.093 674.682Z"
        fill="#76AD7E" />
    <path
        d="M269.27 600.501V581.696H239.849L174.403 542.438C173.417 541.961 172.337 541.731 171.25 541.766C170.164 541.802 169.1 542.101 168.145 542.641L102.959 581.718H73.582V600.568C73.6172 600.901 73.7335 601.218 73.9198 601.491C74.1061 601.763 74.3563 601.982 74.6467 602.126L168.514 658.428C169.503 658.902 170.586 659.124 171.675 659.077C172.763 659.03 173.824 658.715 174.772 658.157L267.727 602.397C268.11 602.23 268.449 601.971 268.718 601.642C268.986 601.312 269.175 600.921 269.27 600.501Z"
        fill="url(#paint0_linear_61_9611)" />
    <path
        d="M168.536 639.713L74.7125 583.434C73.1046 582.463 73.3219 580.793 75.1688 579.686L168.145 523.926C169.093 523.369 170.155 523.053 171.243 523.006C172.331 522.959 173.414 523.182 174.403 523.655L268.271 579.957C269.879 580.905 269.661 582.599 267.814 583.705L174.859 639.465C173.9 640.023 172.826 640.337 171.727 640.38C170.628 640.423 169.534 640.194 168.536 639.713Z"
        fill="url(#paint1_linear_61_9611)" />
    <path
        d="M168.862 633.144L85.5761 583.276C84.1638 582.418 84.3376 581.018 85.9672 579.957L168.362 530.518C169.208 530.034 170.152 529.761 171.118 529.722C172.083 529.683 173.044 529.878 173.924 530.292L257.232 580.138C258.644 580.996 258.47 582.395 256.841 583.479L174.403 632.941C173.56 633.426 172.619 633.698 171.656 633.733C170.693 633.769 169.735 633.567 168.862 633.144Z"
        fill="#76AD7E" />
    <path
        d="M169.079 628.968L92.6375 583.118C91.3338 582.328 91.4859 580.861 93.0069 580.048L168.709 534.65C169.48 534.2 170.342 533.945 171.226 533.906C172.109 533.867 172.989 534.044 173.794 534.424L250.235 580.274C251.539 581.064 251.386 582.419 249.865 583.322L174.163 628.742C173.391 629.187 172.529 629.439 171.647 629.478C170.764 629.518 169.885 629.343 169.079 628.968Z"
        fill="#095729" />
    <path d="M169.689 578.716L160.736 573.343L165.625 570.408L174.556 575.781L169.689 578.716Z" fill="#CFDBAD" />
    <path d="M186.288 577.948L177.358 583.299L172.469 580.387L181.399 575.014L186.288 577.948Z" fill="#CFDBAD" />
    <path d="M167.645 579.912L162.778 582.847L157.889 579.912L162.778 577L167.645 579.912Z" fill="#CFDBAD" />
    <path d="M184.506 590.048L179.639 592.961L165.559 584.518L170.448 581.605L184.506 590.048Z" fill="#CFDBAD" />
    <path
        d="M362.269 652.202C343.431 652.202 325.722 647.687 312.294 639.808C298.583 631.591 291.043 620.529 291.043 608.677C291.043 596.826 298.583 585.786 312.294 577.569C339.78 561.067 384.519 561.067 412.006 577.569C425.717 585.786 433.256 596.826 433.256 608.677C433.256 620.529 425.717 631.591 412.006 639.808C398.795 647.8 381.086 652.202 362.269 652.202ZM362.269 567.862C344.691 567.862 327.112 571.88 313.728 579.917C300.864 587.638 293.781 597.841 293.781 608.677C293.781 619.513 300.864 629.74 313.728 637.461C326.591 645.181 343.887 649.47 362.291 649.47C380.695 649.47 397.904 645.204 410.833 637.461C423.761 629.717 430.779 619.536 430.779 608.677C430.779 597.819 423.696 587.638 410.833 579.917C397.47 571.88 379.848 567.862 362.247 567.862H362.269Z"
        fill="url(#paint2_linear_61_9611)" />
    <g opacity="0.67">
        <path
            d="M362.247 639.785C390.892 639.785 414.113 625.857 414.113 608.677C414.113 591.496 390.892 577.568 362.247 577.568C333.602 577.568 310.381 591.496 310.381 608.677C310.381 625.857 333.602 639.785 362.247 639.785Z"
            fill="#76AD7E" />
    </g>
    <path
        d="M425.715 585.222V570.571H420.848C417.152 565.52 412.472 561.336 407.115 558.29C382.301 543.39 342.082 543.39 317.268 558.29C311.91 561.336 307.231 565.52 303.535 570.571H298.668V585.222C298.668 594.974 304.861 604.727 317.268 612.176C342.082 627.053 382.301 627.053 407.115 612.176C419.587 604.727 425.715 594.974 425.715 585.222Z"
        fill="url(#paint3_linear_61_9611)" />
    <path
        d="M362.247 608.677C397.324 608.677 425.76 591.616 425.76 570.57C425.76 549.525 397.324 532.464 362.247 532.464C327.17 532.464 298.734 549.525 298.734 570.57C298.734 591.616 327.17 608.677 362.247 608.677Z"
        fill="#30A842" />
    <path
        d="M420.914 570.028V550.026H416.416C413 545.385 408.684 541.54 403.749 538.739C380.825 524.991 343.691 524.991 320.767 538.739C315.827 541.534 311.511 545.38 308.099 550.026H303.602V570.028C303.602 579.058 309.316 588.088 320.767 594.86C343.691 608.608 380.825 608.608 403.749 594.86C415.2 588.043 420.914 579.035 420.914 570.028Z"
        fill="#76AD7E" />
    <g opacity="0.51">
        <path
            d="M420.914 565.197V545.218H416.416C413 540.576 408.684 536.731 403.749 533.93C380.825 520.182 343.691 520.182 320.767 533.93C315.827 536.725 311.511 540.571 308.099 545.218H303.602V565.332C303.602 574.362 309.316 583.392 320.767 590.165C343.691 603.89 380.825 603.89 403.749 590.165C415.2 583.212 420.914 574.204 420.914 565.197Z"
            fill="#095729" />
    </g>
    <path
        d="M362.247 585.221C394.648 585.221 420.914 569.464 420.914 550.026C420.914 530.589 394.648 514.832 362.247 514.832C329.846 514.832 303.58 530.589 303.58 550.026C303.58 569.464 329.846 585.221 362.247 585.221Z"
        fill="#30A842" />
    <g opacity="0.51">
        <path
            d="M402.663 575.921C393.691 587.411 381.636 595.874 368.027 600.234C380.516 599.741 392.733 596.298 403.749 590.166C415.2 583.281 420.915 574.364 420.915 565.334V559.238C413.828 563.49 407.624 569.16 402.663 575.921Z"
            fill="#24635A" />
    </g>
    <path
        d="M425.715 549.711V535.082H420.848C417.16 530.017 412.479 525.824 407.115 522.779C382.301 507.902 342.082 507.902 317.268 522.779C311.903 525.824 307.223 530.017 303.535 535.082H298.668V549.711C298.668 559.463 304.861 569.216 317.268 576.665C342.082 591.542 382.301 591.542 407.115 576.665C419.587 569.216 425.715 559.463 425.715 549.711Z"
        fill="url(#paint4_linear_61_9611)" />
    <path
        d="M362.247 573.189C397.324 573.189 425.76 556.128 425.76 535.082C425.76 514.037 397.324 496.976 362.247 496.976C327.17 496.976 298.734 514.037 298.734 535.082C298.734 556.128 327.17 573.189 362.247 573.189Z"
        fill="#30A842" />
    <path
        d="M420.914 533.728V513.749H416.416C413.005 509.102 408.689 505.256 403.749 502.462C380.825 488.713 343.691 488.713 320.767 502.462C315.823 505.25 311.505 509.097 308.099 513.749H303.602V533.728C303.602 542.758 309.316 551.788 320.767 558.56C343.691 572.309 380.825 572.309 403.749 558.56C415.2 551.788 420.914 542.758 420.914 533.728Z"
        fill="#76AD7E" />
    <g opacity="0.51">
        <path
            d="M420.914 529.213V509.212H416.416C413 504.571 408.684 500.725 403.749 497.924C380.825 484.176 343.691 484.176 320.767 497.924C315.827 500.719 311.511 504.565 308.099 509.212H303.602V529.213C303.602 538.243 309.316 547.273 320.767 554.046C343.691 567.794 380.825 567.794 403.749 554.046C415.2 547.273 420.914 538.243 420.914 529.213Z"
            fill="#095729" />
    </g>
    <path
        d="M362.247 548.989C394.648 548.989 420.914 533.231 420.914 513.794C420.914 494.357 394.648 478.6 362.247 478.6C329.846 478.6 303.58 494.357 303.58 513.794C303.58 533.231 329.846 548.989 362.247 548.989Z"
        fill="#30A842" />
    <g opacity="0.51">
        <path
            d="M402.662 537.814C390.125 554.406 372.633 561.382 360.27 564.339C375.936 564.655 391.776 561.269 403.727 554.09C415.178 547.318 420.892 538.288 420.892 529.258V521.153C413.812 525.396 407.615 531.059 402.662 537.814Z"
            fill="#24635A" />
    </g>
    <path
        d="M425.715 513.41V498.759H420.848C417.154 493.7 412.475 489.508 407.115 486.456C382.301 471.579 342.082 471.579 317.268 486.456C311.908 489.508 307.229 493.7 303.535 498.759H298.668V513.41C298.668 523.163 304.861 532.915 317.268 540.342C342.082 555.219 382.301 555.219 407.115 540.342C419.587 532.983 425.715 523.23 425.715 513.41Z"
        fill="url(#paint5_linear_61_9611)" />
    <path
        d="M362.247 536.934C397.324 536.934 425.76 519.873 425.76 498.827C425.76 477.782 397.324 460.721 362.247 460.721C327.17 460.721 298.734 477.782 298.734 498.827C298.734 519.873 327.17 536.934 362.247 536.934Z"
        fill="#30A842" />
    <path
        d="M420.914 497.608V477.629H416.416C413 472.988 408.684 469.142 403.749 466.341C380.825 452.593 343.691 452.593 320.767 466.341C315.827 469.136 311.511 472.982 308.099 477.629H303.602V497.608C303.602 506.638 309.316 515.668 320.767 522.44C343.691 536.188 380.825 536.188 403.749 522.44C415.2 515.532 420.914 506.638 420.914 497.608Z"
        fill="#76AD7E" />
    <g opacity="0.51">
        <path
            d="M420.914 491.941V471.94H416.416C412.994 467.304 408.68 463.46 403.749 460.652C380.825 446.927 343.691 446.904 320.767 460.652C315.832 463.454 311.517 467.299 308.099 471.94H303.602V491.941C303.602 500.971 309.316 510.001 320.767 516.774C343.691 530.522 380.825 530.522 403.749 516.774C415.2 509.956 420.914 500.949 420.914 491.941Z"
            fill="#095729" />
    </g>
    <path
        d="M362.247 512.733C394.648 512.733 420.914 496.976 420.914 477.538C420.914 458.101 394.648 442.344 362.247 442.344C329.846 442.344 303.58 458.101 303.58 477.538C303.58 496.976 329.846 512.733 362.247 512.733Z"
        fill="#30A842" />
    <path
        d="M425.715 477.29V462.639H420.848C417.152 457.588 412.472 453.404 407.115 450.358C382.301 435.459 342.082 435.459 317.268 450.358C311.91 453.404 307.231 457.588 303.535 462.639H298.668V477.29C298.668 487.043 304.861 496.795 317.268 504.245C342.082 519.122 382.301 519.122 407.115 504.245C419.587 496.727 425.715 486.975 425.715 477.29Z"
        fill="url(#paint6_linear_61_9611)" />
    <path
        d="M362.247 500.678C397.324 500.678 425.76 483.617 425.76 462.571C425.76 441.526 397.324 424.465 362.247 424.465C327.17 424.465 298.734 441.526 298.734 462.571C298.734 483.617 327.17 500.678 362.247 500.678Z"
        fill="#30A842" />
    <path
        d="M362.247 500.678C397.324 500.678 425.76 483.617 425.76 462.571C425.76 441.526 397.324 424.465 362.247 424.465C327.17 424.465 298.734 441.526 298.734 462.571C298.734 483.617 327.17 500.678 362.247 500.678Z"
        fill="#30A842" />
    <g opacity="0.51">
        <path
            d="M402.662 499.685C388.908 517.903 369.135 524.518 356.793 526.978C373.567 527.904 390.885 524.518 403.748 516.82C415.199 510.047 420.914 501.017 420.914 491.987V482.957C413.818 487.214 407.613 492.902 402.662 499.685Z"
            fill="#24635A" />
    </g>
    <path
        d="M425.715 477.29V462.639H420.848C417.152 457.588 412.472 453.404 407.115 450.358C382.301 435.459 342.082 435.459 317.268 450.358C311.91 453.404 307.231 457.588 303.535 462.639H298.668V477.29C298.668 487.043 304.861 496.795 317.268 504.245C342.082 519.122 382.301 519.122 407.115 504.245C419.587 496.727 425.715 486.975 425.715 477.29Z"
        fill="url(#paint7_linear_61_9611)" />
    <path
        d="M362.247 500.678C397.324 500.678 425.76 483.617 425.76 462.571C425.76 441.526 397.324 424.465 362.247 424.465C327.17 424.465 298.734 441.526 298.734 462.571C298.734 483.617 327.17 500.678 362.247 500.678Z"
        fill="#30A842" />
    <path
        d="M362.247 500.678C397.324 500.678 425.76 483.617 425.76 462.571C425.76 441.526 397.324 424.465 362.247 424.465C327.17 424.465 298.734 441.526 298.734 462.571C298.734 483.617 327.17 500.678 362.247 500.678Z"
        fill="#30A842" />
    <path
        d="M407.529 488.374C382.737 503.251 342.517 503.251 317.703 488.374C302.493 479.344 296.627 466.68 300.06 454.873C295.888 466.996 301.646 480.112 317.442 489.526C342.257 504.403 382.476 504.403 407.29 489.526C416.894 483.746 422.761 476.59 424.934 469.208C422.413 476.184 416.655 482.889 407.529 488.374Z"
        fill="white" />
    <path
        d="M407.529 524.697C382.737 539.574 342.517 539.574 317.703 524.697C302.493 515.667 296.627 503.003 300.06 491.219C295.888 503.342 301.646 516.458 317.442 525.849C342.257 540.748 382.476 540.748 407.29 525.849C416.894 520.07 422.761 512.913 424.934 505.531C422.413 512.417 416.655 519.144 407.529 524.697Z"
        fill="white" />
    <path
        d="M407.529 560.818C382.737 575.695 342.517 575.695 317.703 560.818C302.493 551.788 296.627 539.123 300.06 527.316C295.888 539.462 301.646 552.555 317.442 561.969C342.257 576.846 382.476 576.846 407.29 561.969C416.894 556.212 422.761 549.056 424.934 541.652C422.413 548.672 416.655 555.4 407.529 560.818Z"
        fill="white" />
    <path
        d="M407.529 597.096C382.737 611.995 342.517 611.995 317.703 597.096C302.493 588.066 296.627 575.424 300.06 563.617C295.888 575.74 301.646 588.856 317.442 598.27C342.257 613.147 382.476 613.147 407.29 598.27C416.894 592.491 422.761 585.334 424.934 577.952C422.413 584.905 416.655 591.633 407.529 597.096Z"
        fill="white" />
    <path opacity="0.78" d="M304.58 478.577H362.247V443.247H307.513C296.888 454.06 295.91 467.312 304.58 478.577Z"
        fill="url(#paint8_linear_61_9611)" />
    <path
        d="M394.862 459.027V451.51H392.363C390.472 448.91 388.073 446.756 385.323 445.189C372.59 437.536 351.926 437.536 339.193 445.189C336.444 446.756 334.045 448.91 332.153 451.51H329.633V459.027C329.633 464.016 332.827 469.028 339.193 472.843C351.926 480.496 372.59 480.496 385.323 472.843C391.69 469.028 394.862 464.016 394.862 459.027Z"
        fill="url(#paint9_linear_61_9611)" />
    <path
        d="M385.322 465.325C372.589 472.978 351.925 472.978 339.192 465.325C326.459 457.672 326.459 445.301 339.192 437.671C351.925 430.04 372.589 430.018 385.322 437.671C398.055 445.324 398.055 457.695 385.322 465.325Z"
        fill="#30A842" />
    <path
        d="M385.322 465.325C372.589 472.978 351.925 472.978 339.192 465.325C326.459 457.672 326.459 445.301 339.192 437.671C351.925 430.04 372.589 430.018 385.322 437.671C398.055 445.324 398.055 457.695 385.322 465.325Z"
        fill="url(#paint10_linear_61_9611)" />
    <path
        d="M377.782 460.811C372.971 463.349 367.652 464.672 362.257 464.672C356.861 464.672 351.542 463.349 346.732 460.811C344.418 459.547 342.502 457.619 341.213 455.257C339.04 450.742 344.515 447.514 350.426 443.97C358.987 438.823 365.071 437.536 373.653 442.683C379.542 446.227 385.517 450.742 383.301 455.235C382.014 457.605 380.098 459.541 377.782 460.811Z"
        fill="#76AD7E" />
    <path
        d="M346.732 449.704C351.543 447.165 356.862 445.843 362.258 445.843C367.653 445.843 372.972 447.165 377.783 449.704C380.096 450.967 382.012 452.895 383.302 455.257C385.474 450.742 383.693 445.73 377.783 442.186C372.972 439.648 367.653 438.325 362.258 438.325C356.862 438.325 351.543 439.648 346.732 442.186C340.822 445.73 338.997 450.787 341.213 455.257C342.503 452.895 344.419 450.967 346.732 449.704Z"
        fill="url(#paint11_linear_61_9611)" />
    <g opacity="0.51">
        <path
            d="M398.013 518.197C393.667 519.935 390.538 519.461 390.886 517.135C391.233 514.81 394.949 511.492 399.23 509.731C403.51 507.97 406.704 508.467 406.378 510.792C406.052 513.117 402.293 516.436 398.013 518.197Z"
            fill="#76AD7E" />
    </g>
    <g opacity="0.51">
        <path
            d="M398.013 554.949C393.667 556.71 390.538 556.236 390.886 553.888C391.233 551.54 394.949 548.244 399.23 546.506C403.51 544.767 406.704 545.219 406.378 547.544C406.052 549.869 402.293 553.211 398.013 554.949Z"
            fill="#76AD7E" />
    </g>
    <g opacity="0.51">
        <path
            d="M398.25 591.948C393.904 593.709 390.775 593.235 391.101 590.91C391.427 588.585 395.186 585.243 399.467 583.505C403.747 581.767 406.942 582.218 406.594 584.566C406.246 586.914 402.531 590.165 398.25 591.948Z"
            fill="#76AD7E" />
    </g>
    <g opacity="0.51">
        <path
            d="M410.202 508.895C410.032 509.122 409.812 509.306 409.562 509.43C409.311 509.554 409.035 509.616 408.758 509.609C408.48 509.603 408.207 509.53 407.962 509.395C407.716 509.259 407.504 509.067 407.343 508.831C407.182 508.596 407.076 508.325 407.034 508.04C406.992 507.754 407.015 507.463 407.1 507.188C407.186 506.913 407.332 506.663 407.528 506.458C407.723 506.252 407.962 506.097 408.225 506.005C408.602 505.628 409.104 505.418 409.627 505.418C410.149 505.418 410.651 505.628 411.028 506.005C411.158 506.251 411.239 506.521 411.268 506.799C411.296 507.078 411.272 507.36 411.195 507.628C411.118 507.897 410.991 508.147 410.82 508.365C410.65 508.582 410.44 508.762 410.202 508.895Z"
            fill="#76AD7E" />
    </g>
    <g opacity="0.51">
        <path
            d="M410.202 545.897C410.032 546.125 409.812 546.308 409.562 546.432C409.311 546.556 409.035 546.618 408.758 546.611C408.48 546.605 408.207 546.532 407.962 546.397C407.716 546.261 407.504 546.069 407.343 545.833C407.182 545.598 407.076 545.327 407.034 545.041C406.992 544.756 407.015 544.464 407.1 544.19C407.186 543.915 407.332 543.665 407.528 543.46C407.723 543.254 407.962 543.099 408.225 543.007C408.602 542.63 409.104 542.42 409.627 542.42C410.149 542.42 410.651 542.63 411.028 543.007C411.158 543.253 411.239 543.523 411.268 543.801C411.296 544.08 411.272 544.362 411.195 544.631C411.118 544.899 410.991 545.149 410.82 545.367C410.65 545.584 410.44 545.764 410.202 545.897Z"
            fill="#76AD7E" />
    </g>
    <g opacity="0.51">
        <path
            d="M410.202 582.693C410.032 582.921 409.812 583.105 409.562 583.229C409.311 583.353 409.035 583.414 408.758 583.408C408.48 583.402 408.207 583.329 407.962 583.193C407.716 583.058 407.504 582.865 407.343 582.63C407.182 582.395 407.076 582.124 407.034 581.838C406.992 581.553 407.015 581.261 407.1 580.987C407.186 580.712 407.332 580.462 407.528 580.257C407.723 580.051 407.962 579.896 408.225 579.804C408.602 579.427 409.104 579.217 409.627 579.217C410.149 579.217 410.651 579.427 411.028 579.804C411.158 580.05 411.239 580.32 411.268 580.598C411.296 580.877 411.272 581.159 411.195 581.427C411.118 581.696 410.991 581.946 410.82 582.164C410.65 582.381 410.44 582.561 410.202 582.693Z"
            fill="#76AD7E" />
    </g>
    <path
        d="M435.776 742.367C428.496 742.368 421.342 740.392 415.025 736.633L282.611 657.485C282.41 657.37 282.243 657.199 282.128 656.992C282.013 656.785 281.954 656.55 281.959 656.311C281.959 656.073 282.019 655.839 282.134 655.633C282.248 655.427 282.413 655.256 282.611 655.137L312.401 637.574C312.549 637.482 312.713 637.421 312.883 637.396C313.054 637.372 313.227 637.383 313.393 637.429C313.56 637.475 313.715 637.556 313.851 637.666C313.986 637.776 314.099 637.914 314.183 638.07C314.268 638.225 314.324 638.395 314.346 638.571C314.369 638.748 314.357 638.927 314.313 639.099C314.269 639.271 314.192 639.432 314.088 639.573C313.983 639.714 313.853 639.833 313.705 639.922L285.892 656.424L416.264 734.398C422.186 737.927 428.894 739.784 435.722 739.784C442.549 739.784 449.257 737.927 455.179 734.398L640.424 612.313C640.625 612.202 640.848 612.145 641.076 612.145C641.303 612.145 641.527 612.202 641.728 612.313L703.132 648.704C703.283 648.791 703.415 648.908 703.521 649.049C703.628 649.19 703.705 649.351 703.75 649.524C703.794 649.697 703.805 649.877 703.781 650.054C703.757 650.231 703.699 650.402 703.611 650.555C703.525 650.709 703.411 650.845 703.275 650.953C703.139 651.061 702.984 651.141 702.819 651.187C702.653 651.233 702.481 651.245 702.311 651.222C702.141 651.199 701.977 651.141 701.829 651.052L641.097 615.067L456.483 736.746C450.17 740.462 443.032 742.4 435.776 742.367Z"
        fill="url(#paint12_linear_61_9611)" />
    <path
        d="M716.424 650.795C716.139 650.797 715.862 650.703 715.635 650.526C715.407 650.349 715.241 650.1 715.162 649.816C715.084 649.532 715.096 649.23 715.198 648.954C715.301 648.678 715.487 648.445 715.728 648.29L985.706 469.947L772.527 342.015C772.348 341.891 772.2 341.723 772.099 341.526C771.997 341.329 771.944 341.109 771.944 340.886C771.944 340.662 771.997 340.442 772.099 340.245C772.2 340.048 772.348 339.881 772.527 339.757L840.733 300.093C840.873 299.952 841.043 299.846 841.228 299.782C841.413 299.719 841.61 299.699 841.804 299.725C841.998 299.751 842.183 299.822 842.347 299.932C842.511 300.043 842.648 300.19 842.75 300.363C842.852 300.536 842.915 300.731 842.934 300.933C842.954 301.135 842.93 301.338 842.863 301.529C842.797 301.72 842.69 301.893 842.551 302.035C842.411 302.177 842.243 302.285 842.058 302.35L775.808 340.863L988.943 468.705C989.123 468.829 989.27 468.997 989.371 469.194C989.473 469.391 989.526 469.611 989.526 469.834C989.526 470.058 989.473 470.278 989.371 470.475C989.27 470.672 989.123 470.839 988.943 470.963L717.141 650.592C716.923 650.724 716.676 650.794 716.424 650.795Z"
        fill="url(#paint13_linear_61_9611)" />
    <path
        d="M671.512 724.977C652.673 724.977 634.964 720.575 621.645 712.583C607.956 704.366 600.416 693.327 600.416 681.475C600.416 669.623 607.956 658.561 621.645 650.344C649.153 633.864 693.892 633.864 721.379 650.344C735.068 658.561 742.629 669.623 742.629 681.475C742.629 693.327 735.068 704.366 721.379 712.583C708.059 720.575 690.351 724.977 671.512 724.977ZM671.512 640.659C653.933 640.659 636.355 644.678 622.949 652.692C610.107 660.413 603.023 670.617 603.023 681.475C603.023 692.334 610.107 702.515 622.949 710.236C635.79 717.956 653.13 722.246 671.512 722.246C689.894 722.246 707.147 717.979 720.075 710.213C733.004 702.447 740 692.289 740 681.453C740 670.617 732.917 660.39 720.075 652.669C706.69 644.678 689.09 640.659 671.512 640.659Z"
        fill="url(#paint14_linear_61_9611)" />
    <g opacity="0.67">
        <path
            d="M671.511 712.583C700.155 712.583 723.377 698.655 723.377 681.475C723.377 664.294 700.155 650.366 671.511 650.366C642.866 650.366 619.645 664.294 619.645 681.475C619.645 698.655 642.866 712.583 671.511 712.583Z"
            fill="#76AD7E" />
    </g>
    <path
        d="M735.045 657.996V643.367H730.156C726.468 638.303 721.787 634.109 716.424 631.064C691.631 616.187 651.39 616.187 626.598 631.064C621.234 634.109 616.553 638.303 612.865 643.367H607.998V657.996C607.998 667.748 614.191 677.501 626.598 684.951C651.412 699.827 691.631 699.827 716.424 684.951C728.831 677.501 735.045 667.748 735.045 657.996Z"
        fill="url(#paint15_linear_61_9611)" />
    <path
        d="M671.511 681.475C706.588 681.475 735.023 664.414 735.023 643.368C735.023 622.323 706.588 605.262 671.511 605.262C636.434 605.262 607.998 622.323 607.998 643.368C607.998 664.414 636.434 681.475 671.511 681.475Z"
        fill="#30A842" />
    <path
        d="M730.178 642.803V622.915H725.68C722.259 618.269 717.936 614.423 712.991 611.627C690.089 597.902 652.933 597.902 630.031 611.627C625.086 614.423 620.762 618.269 617.342 622.915H612.844V642.894C612.844 651.924 618.58 660.954 630.031 667.726C652.933 681.474 690.089 681.474 712.991 667.726C724.442 660.818 730.178 651.811 730.178 642.803Z"
        fill="#76AD7E" />
    <g opacity="0.51">
        <path
            d="M730.178 637.995V618.016H725.68C722.259 613.371 717.936 609.525 712.991 606.729C690.089 593.003 652.933 593.003 630.031 606.729C625.086 609.525 620.762 613.371 617.342 618.016H612.844V637.995C612.844 647.025 618.58 656.055 630.031 662.828C652.933 676.576 690.089 676.576 712.991 662.828C724.442 656.01 730.178 647.003 730.178 637.995Z"
            fill="#095729" />
    </g>
    <path
        d="M671.511 658.02C703.912 658.02 730.178 642.263 730.178 622.825C730.178 603.388 703.912 587.631 671.511 587.631C639.11 587.631 612.844 603.388 612.844 622.825C612.844 642.263 639.11 658.02 671.511 658.02Z"
        fill="#30A842" />
    <g opacity="0.51">
        <path
            d="M711.926 648.719C702.959 660.209 690.901 668.665 677.291 673.009C689.78 672.509 701.993 669.041 712.991 662.873C724.442 656.101 730.178 647.071 730.178 638.041V631.945C723.08 636.218 716.875 641.921 711.926 648.719Z"
            fill="#24635A" />
    </g>
    <path
        d="M735.045 622.486V607.858H730.156C726.468 602.793 721.787 598.6 716.424 595.554C691.631 580.677 651.39 580.677 626.598 595.554C621.234 598.6 616.553 602.793 612.865 607.858H607.998V622.509C607.998 632.239 614.191 641.991 626.598 649.441C651.412 664.318 691.631 664.318 716.424 649.441C728.831 641.991 735.045 632.239 735.045 622.486Z"
        fill="url(#paint16_linear_61_9611)" />
    <path
        d="M671.511 645.964C706.588 645.964 735.023 628.903 735.023 607.858C735.023 586.812 706.588 569.751 671.511 569.751C636.434 569.751 607.998 586.812 607.998 607.858C607.998 628.903 636.434 645.964 671.511 645.964Z"
        fill="#30A842" />
    <path
        d="M730.178 606.548V586.569H725.68C722.26 581.923 717.937 578.077 712.991 575.282C690.089 561.534 652.933 561.534 630.031 575.282C625.085 578.077 620.762 581.923 617.342 586.569H612.844V606.548C612.844 615.578 618.58 624.608 630.031 631.381C652.933 645.106 690.089 645.106 712.991 631.381C724.442 624.563 730.178 615.556 730.178 606.548Z"
        fill="#76AD7E" />
    <g opacity="0.51">
        <path
            d="M730.178 601.988V582.009H725.68C722.259 577.364 717.936 573.518 712.991 570.722C690.089 556.996 652.933 556.996 630.031 570.722C625.086 573.518 620.762 577.364 617.342 582.009H612.844V601.988C612.844 611.018 618.58 620.048 630.031 626.821C652.933 640.569 690.089 640.569 712.991 626.821C724.442 620.003 730.178 610.996 730.178 601.988Z"
            fill="#095729" />
    </g>
    <path
        d="M671.511 621.764C703.912 621.764 730.178 606.007 730.178 586.569C730.178 567.132 703.912 551.375 671.511 551.375C639.11 551.375 612.844 567.132 612.844 586.569C612.844 606.007 639.11 621.764 671.511 621.764Z"
        fill="#30A842" />
    <g opacity="0.51">
        <path
            d="M711.926 610.589C699.388 627.182 681.875 634.18 669.533 637.115C685.2 637.431 701.04 634.044 712.99 626.865C724.441 620.093 730.178 611.063 730.178 602.033V593.951C723.09 598.182 716.885 603.838 711.926 610.589Z"
            fill="#24635A" />
    </g>
    <path
        d="M735.045 586.253V571.602H730.156C726.467 566.545 721.786 562.359 716.424 559.321C691.631 544.422 651.39 544.422 626.598 559.321C621.238 562.373 616.559 566.566 612.865 571.625H607.998V586.276C607.998 596.028 614.191 605.781 626.598 613.208C651.412 628.107 691.631 628.107 716.424 613.208C728.831 605.758 735.045 596.006 735.045 586.253Z"
        fill="url(#paint17_linear_61_9611)" />
    <path
        d="M671.511 609.709C706.588 609.709 735.023 592.648 735.023 571.603C735.023 550.557 706.588 533.496 671.511 533.496C636.434 533.496 607.998 550.557 607.998 571.603C607.998 592.648 636.434 609.709 671.511 609.709Z"
        fill="#30A842" />
    <path
        d="M730.178 570.315V550.337H725.68C722.259 545.691 717.936 541.845 712.991 539.049C690.089 525.323 652.933 525.323 630.031 539.049C625.086 541.845 620.762 545.691 617.342 550.337H612.844V570.315C612.844 579.345 618.58 588.375 630.031 595.148C652.933 608.896 690.089 608.896 712.991 595.148C724.442 588.33 730.178 579.323 730.178 570.315Z"
        fill="#76AD7E" />
    <g opacity="0.51">
        <path
            d="M730.178 564.716V544.737H725.68C722.266 540.085 717.941 536.237 712.991 533.45C690.089 519.702 652.933 519.702 630.031 533.45C625.08 536.237 620.755 540.085 617.342 544.737H612.844V564.716C612.844 573.746 618.58 582.776 630.031 589.549C652.933 603.297 690.089 603.297 712.991 589.549C724.442 582.731 730.178 573.724 730.178 564.716Z"
            fill="#095729" />
    </g>
    <path
        d="M671.511 585.531C703.912 585.531 730.178 569.774 730.178 550.337C730.178 530.9 703.912 515.143 671.511 515.143C639.11 515.143 612.844 530.9 612.844 550.337C612.844 569.774 639.11 585.531 671.511 585.531Z"
        fill="#30A842" />
    <path
        d="M735.045 549.998V535.369H730.156C726.468 530.305 721.787 526.111 716.424 523.066C691.631 508.189 651.39 508.189 626.598 523.066C621.234 526.111 616.553 530.305 612.865 535.369H607.998V549.998C607.998 559.75 614.191 569.503 626.598 576.952C651.412 591.829 691.631 591.829 716.424 576.952C728.831 569.503 735.045 559.705 735.045 549.998Z"
        fill="url(#paint18_linear_61_9611)" />
    <path
        d="M671.511 573.476C706.588 573.476 735.023 556.415 735.023 535.369C735.023 514.324 706.588 497.263 671.511 497.263C636.434 497.263 607.998 514.324 607.998 535.369C607.998 556.415 636.434 573.476 671.511 573.476Z"
        fill="#30A842" />
    <path
        d="M671.511 573.476C706.588 573.476 735.023 556.415 735.023 535.369C735.023 514.324 706.588 497.263 671.511 497.263C636.434 497.263 607.998 514.324 607.998 535.369C607.998 556.415 636.434 573.476 671.511 573.476Z"
        fill="#30A842" />
    <g opacity="0.51">
        <path
            d="M711.926 572.461C698.15 590.679 678.398 597.293 666.057 599.754C682.831 600.679 700.149 597.316 712.99 589.595C724.441 582.822 730.178 573.792 730.178 564.762V555.732C723.087 559.997 716.883 565.683 711.926 572.461Z"
            fill="#24635A" />
    </g>
    <path
        d="M735.045 549.998V535.369H730.156C726.468 530.305 721.787 526.111 716.424 523.066C691.631 508.189 651.39 508.189 626.598 523.066C621.234 526.111 616.553 530.305 612.865 535.369H607.998V549.998C607.998 559.75 614.191 569.503 626.598 576.952C651.412 591.829 691.631 591.829 716.424 576.952C728.831 569.503 735.045 559.705 735.045 549.998Z"
        fill="url(#paint19_linear_61_9611)" />
    <path
        d="M671.511 573.476C706.588 573.476 735.023 556.415 735.023 535.369C735.023 514.324 706.588 497.263 671.511 497.263C636.434 497.263 607.998 514.324 607.998 535.369C607.998 556.415 636.434 573.476 671.511 573.476Z"
        fill="#30A842" />
    <path
        d="M671.511 573.476C706.588 573.476 735.023 556.415 735.023 535.369C735.023 514.324 706.588 497.263 671.511 497.263C636.434 497.263 607.998 514.324 607.998 535.369C607.998 556.415 636.434 573.476 671.511 573.476Z"
        fill="#30A842" />
    <path
        d="M716.794 561.15C691.98 576.027 651.76 576.027 626.946 561.15C611.736 552.12 605.891 539.455 609.303 527.648C605.153 539.794 610.911 552.887 626.686 562.301C651.5 577.178 691.719 577.178 716.512 562.301C726.137 556.544 732.004 549.388 734.155 541.984C731.656 548.959 725.92 555.687 716.794 561.15Z"
        fill="white" />
    <path
        d="M716.794 597.406C691.98 612.283 651.76 612.283 626.946 597.406C611.736 588.376 605.891 575.711 609.303 563.904C605.153 576.027 610.911 589.143 626.686 598.557C651.5 613.434 691.719 613.434 716.512 598.557C726.137 592.778 732.004 585.621 734.155 578.239C731.656 585.215 725.92 591.92 716.794 597.406Z"
        fill="white" />
    <path
        d="M716.794 633.638C691.98 648.515 651.76 648.515 626.946 633.638C611.736 624.608 605.891 611.943 609.303 600.159C605.153 612.282 610.911 625.375 626.686 634.789C651.5 649.689 691.719 649.689 716.512 634.789C726.137 629.033 732.004 621.876 734.155 614.472C731.656 621.447 725.92 628.175 716.794 633.638Z"
        fill="white" />
    <path
        d="M716.794 669.894C691.98 684.771 651.76 684.771 626.946 669.894C611.736 660.864 605.891 648.199 609.303 636.393C605.153 648.515 610.911 661.631 626.686 671.045C651.5 685.922 691.719 685.922 716.512 671.045C726.137 665.266 732.004 658.11 734.155 650.728C731.656 657.703 725.92 664.408 716.794 669.894Z"
        fill="white" />
    <path opacity="0.78" d="M613.909 551.352H671.576V516.022H616.82C606.13 526.836 605.217 540.11 613.909 551.352Z"
        fill="url(#paint20_linear_61_9611)" />
    <path
        d="M704.126 531.802V524.285H701.627C699.733 521.68 697.325 519.525 694.565 517.964C681.832 510.334 661.19 510.334 648.457 517.964C645.697 519.525 643.289 521.68 641.395 524.285H638.896V531.802C638.896 536.814 642.091 541.826 648.457 545.641C661.19 553.271 681.832 553.271 694.565 545.641C700.953 541.826 704.126 536.814 704.126 531.802Z"
        fill="url(#paint21_linear_61_9611)" />
    <path
        d="M671.511 543.858C689.524 543.858 704.126 535.095 704.126 524.285C704.126 513.476 689.524 504.713 671.511 504.713C653.499 504.713 638.896 513.476 638.896 524.285C638.896 535.095 653.499 543.858 671.511 543.858Z"
        fill="#30A842" />
    <path
        d="M671.511 543.858C689.524 543.858 704.126 535.095 704.126 524.285C704.126 513.476 689.524 504.713 671.511 504.713C653.499 504.713 638.896 513.476 638.896 524.285C638.896 535.095 653.499 543.858 671.511 543.858Z"
        fill="url(#paint22_linear_61_9611)" />
    <path
        d="M687.046 533.609C682.228 536.135 676.907 537.451 671.51 537.451C666.114 537.451 660.792 536.135 655.974 533.609C653.664 532.331 651.75 530.397 650.455 528.033C648.283 523.518 653.78 520.312 659.668 516.745C668.251 511.598 674.335 510.334 682.918 515.481C688.806 519.003 694.782 523.54 692.565 528.01C691.275 530.383 689.36 532.325 687.046 533.609Z"
        fill="#76AD7E" />
    <path
        d="M655.975 522.479C660.793 519.952 666.114 518.636 671.511 518.636C676.908 518.636 682.229 519.952 687.047 522.479C689.368 523.763 691.284 525.714 692.566 528.1C694.739 523.585 692.935 518.55 687.047 515.006C682.229 512.48 676.908 511.164 671.511 511.164C666.114 511.164 660.793 512.48 655.975 515.006C650.087 518.55 648.24 523.607 650.456 528.077C651.752 525.708 653.665 523.768 655.975 522.479Z"
        fill="url(#paint23_linear_61_9611)" />
    <g opacity="0.51">
        <path
            d="M707.342 590.972C702.996 592.733 699.867 592.259 700.193 589.911C700.519 587.563 704.278 584.267 708.559 582.506C712.839 580.745 716.033 581.242 715.686 583.567C715.338 585.893 711.557 589.211 707.342 590.972Z"
            fill="#76AD7E" />
    </g>
    <g opacity="0.51">
        <path
            d="M707.342 627.724C702.996 629.484 699.867 629.01 700.193 626.685C700.519 624.36 704.278 621.019 708.559 619.281C712.839 617.542 716.033 617.994 715.686 620.342C715.338 622.689 711.557 625.985 707.342 627.724Z"
            fill="#76AD7E" />
    </g>
    <g opacity="0.51">
        <path
            d="M707.516 664.746C703.17 666.485 700.041 666.011 700.367 663.685C700.693 661.36 704.452 658.042 708.733 656.281C713.013 654.52 716.207 655.017 715.86 657.342C715.512 659.667 711.688 662.985 707.516 664.746Z"
            fill="#76AD7E" />
    </g>
    <g opacity="0.51">
        <path
            d="M719.466 581.738C719.158 581.856 718.824 581.882 718.503 581.813C718.181 581.744 717.885 581.583 717.647 581.349C717.408 581.114 717.238 580.815 717.155 580.485C717.072 580.155 717.079 579.808 717.176 579.482C717.273 579.156 717.456 578.865 717.703 578.642C717.951 578.418 718.254 578.271 718.578 578.217C718.902 578.162 719.234 578.203 719.537 578.335C719.84 578.467 720.101 578.683 720.291 578.961C720.525 579.445 720.569 580.005 720.416 580.522C720.262 581.039 719.921 581.475 719.466 581.738Z"
            fill="#76AD7E" />
    </g>
    <g opacity="0.51">
        <path
            d="M719.466 618.671C719.158 618.788 718.824 618.814 718.503 618.746C718.181 618.677 717.885 618.516 717.647 618.281C717.408 618.047 717.238 617.748 717.155 617.418C717.072 617.088 717.079 616.741 717.176 616.415C717.273 616.089 717.456 615.798 717.703 615.574C717.951 615.351 718.254 615.203 718.578 615.149C718.902 615.095 719.234 615.136 719.537 615.268C719.84 615.399 720.101 615.616 720.291 615.894C720.525 616.378 720.569 616.937 720.416 617.455C720.262 617.972 719.921 618.408 719.466 618.671Z"
            fill="#76AD7E" />
    </g>
    <g opacity="0.51">
        <path
            d="M719.466 655.468C719.158 655.586 718.824 655.612 718.503 655.543C718.181 655.475 717.885 655.314 717.647 655.079C717.408 654.845 717.238 654.546 717.155 654.216C717.072 653.886 717.079 653.538 717.176 653.213C717.273 652.887 717.456 652.596 717.703 652.372C717.951 652.148 718.254 652.001 718.578 651.947C718.902 651.893 719.234 651.934 719.537 652.065C719.84 652.197 720.101 652.414 720.291 652.692C720.525 653.176 720.569 653.735 720.416 654.253C720.262 654.77 719.921 655.206 719.466 655.468Z"
            fill="#76AD7E" />
    </g>
    <path
        d="M505.874 369.849C505.655 369.854 505.438 369.799 505.244 369.691L449.489 337.432C449.27 337.32 449.087 337.146 448.96 336.93C448.833 336.714 448.767 336.465 448.772 336.213C448.772 335.969 448.835 335.73 448.953 335.52C449.071 335.31 449.241 335.136 449.445 335.016L724.725 175.93C724.923 175.813 725.148 175.752 725.376 175.752C725.605 175.752 725.829 175.813 726.028 175.93L847.708 250.044C847.897 250.105 848.069 250.21 848.213 250.35C848.357 250.49 848.468 250.663 848.538 250.855C848.609 251.046 848.636 251.252 848.619 251.456C848.601 251.66 848.539 251.858 848.438 252.034C848.336 252.209 848.198 252.359 848.032 252.471C847.867 252.583 847.679 252.655 847.484 252.68C847.288 252.706 847.089 252.686 846.902 252.62C846.715 252.554 846.545 252.445 846.405 252.301L725.29 178.594L452.813 336.213L506.505 367.253C506.763 367.396 506.968 367.624 507.086 367.902C507.204 368.181 507.229 368.492 507.156 368.786C507.084 369.081 506.918 369.342 506.685 369.526C506.453 369.711 506.167 369.809 505.874 369.804V369.849Z"
        fill="url(#paint24_linear_61_9611)" />
    <path opacity="0.5"
        d="M850.923 358.901L760.054 304.404C758.077 303.208 758.338 301.154 760.597 299.889L787.302 283.884L885.319 342.579L858.615 358.607C857.444 359.278 856.139 359.654 854.803 359.705C853.467 359.756 852.138 359.481 850.923 358.901Z"
        fill="#76AD7E" />
    <path
        d="M980.1 284.719V265.914H950.701L885.254 226.656C884.264 226.189 883.181 225.971 882.094 226.018C881.008 226.065 879.947 226.376 878.997 226.927L813.811 266.004H784.412V284.854C784.447 285.187 784.564 285.504 784.75 285.777C784.936 286.049 785.186 286.268 785.477 286.412L879.344 342.714C880.333 343.188 881.417 343.41 882.505 343.363C883.593 343.316 884.654 343.001 885.602 342.443L978.557 286.683C978.95 286.513 979.296 286.245 979.565 285.902C979.834 285.559 980.018 285.153 980.1 284.719Z"
        fill="url(#paint25_linear_61_9611)" />
    <path
        d="M879.366 323.955L785.564 267.653C783.956 266.682 784.173 265.011 786.02 263.905L878.997 208.145C879.945 207.587 881.006 207.272 882.094 207.225C883.183 207.178 884.266 207.4 885.255 207.874L978.948 264.176C980.556 265.124 980.339 266.817 978.492 267.923L885.537 323.684C884.598 324.22 883.553 324.523 882.482 324.57C881.412 324.617 880.345 324.407 879.366 323.955Z"
        fill="url(#paint26_linear_61_9611)" />
    <path
        d="M879.693 317.363L796.43 267.449C795.017 266.591 795.191 265.192 796.842 264.131L879.237 214.691C880.08 214.207 881.02 213.935 881.982 213.896C882.944 213.856 883.901 214.052 884.778 214.466L968.085 264.356C969.498 265.214 969.324 266.614 967.694 267.698L885.299 317.114C884.451 317.615 883.5 317.898 882.525 317.941C881.551 317.985 880.58 317.786 879.693 317.363Z"
        fill="#76AD7E" />
    <path
        d="M879.911 313.186L803.47 267.336C802.166 266.546 802.318 265.079 803.839 264.266L879.541 218.823C880.312 218.373 881.174 218.118 882.058 218.079C882.941 218.039 883.821 218.217 884.626 218.597L961.067 264.447C962.371 265.237 962.218 266.704 960.697 267.494L884.995 312.96C884.223 313.405 883.361 313.657 882.479 313.696C881.596 313.736 880.717 313.561 879.911 313.186Z"
        fill="#095729" />
    <path opacity="0.5"
        d="M880.519 300.769L824.155 266.907C823.177 266.342 823.307 265.326 824.416 264.649L880.258 231.17C880.828 230.837 881.466 230.648 882.119 230.621C882.773 230.593 883.423 230.727 884.017 231.012L940.381 264.875C941.359 265.462 941.228 266.478 940.12 267.132L884.278 300.634C883.706 300.964 883.067 301.149 882.414 301.172C881.76 301.196 881.111 301.058 880.519 300.769Z"
        fill="#76AD7E" />
    <path d="M880.519 262.912L871.566 257.562L876.455 254.627L885.386 260L880.519 262.912Z" fill="#CFDBAD" />
    <path d="M897.118 262.166L888.188 267.517L883.299 264.604L892.251 259.231L897.118 262.166Z" fill="#CFDBAD" />
    <path d="M878.475 264.131L873.608 267.066L868.719 264.131L873.608 261.219L878.475 264.131Z" fill="#CFDBAD" />
    <path d="M895.36 274.267L890.471 277.179L876.391 268.736L881.28 265.824L895.36 274.267Z" fill="#CFDBAD" />
    <path d="M882.257 112.291L805.859 66.4415L882.257 20.6143L958.655 66.4641L882.257 112.291Z" fill="#30A842" />
    <path d="M882.257 288.195L805.859 242.368L882.257 196.541L958.655 242.368L882.257 288.195Z" fill="white" />
    <path d="M958.653 66.4639V242.368L882.256 288.195V112.291L958.653 66.4639Z" fill="url(#paint27_linear_61_9611)" />
    <path d="M805.859 66.4414V242.368L882.257 288.196V112.291L805.859 66.4414Z" fill="#76AD7E" />
    <g opacity="0.51">
        <path d="M824.74 78.1123V236.25L893.357 275.869V117.754L824.74 78.1123Z" fill="#095729" />
    </g>
    <path d="M947.203 108.95V113.601L893.729 145.68V141.029L947.203 108.95Z" fill="#095729" />
    <path d="M947.203 128.613V133.264L893.729 165.343V160.692L947.203 128.613Z" fill="#095729" />
    <path d="M947.203 148.275V152.926L893.729 185.005V180.354L947.203 148.275Z" fill="#095729" />
    <path d="M947.203 167.938V172.589L893.729 204.668V200.018L947.203 167.938Z" fill="#095729" />
    <path d="M947.203 187.602V192.252L893.729 224.331V219.681L947.203 187.602Z" fill="#095729" />
    <path d="M947.203 207.264V211.914L893.729 243.993V239.343L947.203 207.264Z" fill="#095729" />
    <path
        d="M882.257 110.711L807.163 65.6738L805.859 66.4414L882.257 112.291L958.655 66.4639L957.373 65.6738L882.257 110.711Z"
        fill="white" />
    <path opacity="0.78" d="M882.257 100.236H862.18L805.859 66.4415L867.156 29.6895H882.257V100.236Z"
        fill="url(#paint28_linear_61_9611)" />
    <path d="M882.256 96.1954L826.826 62.9424L882.256 29.6895L937.707 62.9424L882.256 96.1954Z"
        fill="url(#paint29_linear_61_9611)" />
    <path d="M937.707 62.9424V66.9833L882.256 100.236V96.1954L937.707 62.9424Z" fill="url(#paint30_linear_61_9611)" />
    <path d="M826.826 62.9424V66.9833L882.256 100.236V96.1954L826.826 62.9424Z" fill="url(#paint31_linear_61_9611)" />
    <path
        d="M860.768 63.4845L858.312 61.9946L858.508 60.7981L881.28 47.0273L884.452 48.6076L883.865 49.6235L860.768 63.4845Z"
        fill="#76AD7E" />
    <path
        d="M881.408 48.1561L883.864 49.6235L885.428 48.6753L881.408 46.2598L856.725 61.0464L858.311 61.9945L881.408 48.1561Z"
        fill="url(#paint32_linear_61_9611)" />
    <path
        d="M868.219 67.9307L865.764 66.4633L865.959 65.2669L888.731 51.4961L891.903 53.0538L891.316 54.0696L868.219 67.9307Z"
        fill="#76AD7E" />
    <path
        d="M888.861 52.6033L891.317 54.0707L892.881 53.1226L888.861 50.707L864.178 65.5162L865.764 66.4644L888.861 52.6033Z"
        fill="url(#paint33_linear_61_9611)" />
    <path
        d="M875.672 72.378L873.217 70.9106L873.412 69.7141L896.184 55.9434L899.356 57.5236L898.769 58.5395L875.672 72.378Z"
        fill="#76AD7E" />
    <path
        d="M896.314 57.0732L898.77 58.5405L900.334 57.5924L896.314 55.1543L871.631 69.9635L873.217 70.9117L896.314 57.0732Z"
        fill="url(#paint34_linear_61_9611)" />
    <path
        d="M883.125 76.8487L880.67 75.3587L880.865 74.1848L903.637 60.4141L906.809 61.9717L906.223 62.9876L883.125 76.8487Z"
        fill="#76AD7E" />
    <path
        d="M903.768 61.5193L906.223 62.9867L907.787 62.0386L903.768 59.623L879.084 74.4322L880.67 75.3804L903.768 61.5193Z"
        fill="url(#paint35_linear_61_9611)" />
    <g opacity="0.51">
        <path d="M805.859 214.579L882.257 166.652V112.291L805.859 66.4414V214.579Z" fill="#095729" />
    </g>
    <path
        d="M879.235 120.192C879.177 119.097 878.872 118.032 878.343 117.083C877.814 116.134 877.078 115.327 876.193 114.729C875.883 114.496 875.518 114.352 875.136 114.312C874.754 114.272 874.37 114.338 874.021 114.503L871.848 115.813H873.173C873.151 116.045 873.151 116.28 873.173 116.512C873.233 117.607 873.539 118.672 874.068 119.621C874.596 120.57 875.332 121.376 876.215 121.976C876.42 122.102 876.639 122.2 876.867 122.269L876.237 123.488L878.41 122.201C878.7 121.966 878.928 121.659 879.072 121.307C879.216 120.956 879.273 120.572 879.235 120.192Z"
        fill="url(#paint36_linear_61_9611)" />
    <path
        d="M877.062 121.502C877.062 123.534 875.715 124.346 874.021 123.33C873.136 122.732 872.399 121.926 871.871 120.977C871.342 120.028 871.037 118.962 870.979 117.867C870.979 115.858 872.347 115.023 874.021 116.039C874.906 116.636 875.644 117.442 876.172 118.391C876.701 119.341 877.006 120.407 877.062 121.502Z"
        fill="url(#paint37_linear_61_9611)" />
    <path
        d="M875.782 120.734C875.782 121.885 874.999 122.359 874.022 121.795C873.514 121.446 873.092 120.979 872.79 120.43C872.489 119.881 872.315 119.266 872.283 118.635C872.283 117.483 873.066 117.009 874.022 117.596C874.534 117.936 874.961 118.398 875.267 118.944C875.573 119.49 875.749 120.103 875.782 120.734Z"
        fill="#76AD7E" />
    <path
        d="M815.159 79.286C815.101 78.191 814.795 77.1257 814.267 76.1765C813.738 75.2273 813.002 74.4209 812.117 73.8228C811.806 73.5893 811.442 73.4454 811.06 73.4057C810.678 73.3661 810.293 73.4321 809.944 73.5971L807.771 74.9064H809.097C809.074 75.1391 809.074 75.3735 809.097 75.6062C809.157 76.7008 809.463 77.7654 809.991 78.7143C810.52 79.6633 811.255 80.47 812.139 81.0694C812.343 81.1953 812.562 81.2939 812.791 81.3629L812.161 82.5819L814.333 81.2951C814.624 81.0602 814.851 80.7526 814.996 80.4012C815.14 80.0498 815.196 79.6661 815.159 79.286Z"
        fill="url(#paint38_linear_61_9611)" />
    <path
        d="M812.986 80.5955C812.986 82.6273 811.639 83.44 809.944 82.4241C809.06 81.826 808.323 81.0196 807.795 80.0704C807.266 79.1212 806.96 78.0559 806.902 76.961C806.902 74.9518 808.271 74.1391 809.944 75.1324C810.83 75.7291 811.568 76.5352 812.096 77.4847C812.625 78.4342 812.93 79.5001 812.986 80.5955Z"
        fill="url(#paint39_linear_61_9611)" />
    <path
        d="M811.639 79.8277C811.639 80.9791 810.857 81.4531 809.879 80.8888C809.371 80.54 808.95 80.0723 808.648 79.5234C808.346 78.9745 808.172 78.3596 808.141 77.7283C808.141 76.5769 808.923 76.1029 809.879 76.6898C810.391 77.0299 810.818 77.4919 811.124 78.0376C811.43 78.5833 811.607 79.197 811.639 79.8277Z"
        fill="#76AD7E" />
    <path
        d="M879.235 277.743C879.177 276.648 878.872 275.583 878.343 274.634C877.814 273.684 877.078 272.878 876.193 272.28C875.883 272.046 875.518 271.902 875.136 271.863C874.754 271.823 874.37 271.889 874.021 272.054L871.848 273.363H873.173C873.151 273.589 873.151 273.816 873.173 274.041C873.231 275.139 873.537 276.207 874.065 277.16C874.593 278.113 875.33 278.923 876.215 279.526C876.42 279.652 876.639 279.751 876.867 279.82L876.237 281.039L878.41 279.752C878.7 279.517 878.928 279.21 879.072 278.858C879.216 278.507 879.273 278.123 879.235 277.743Z"
        fill="url(#paint40_linear_61_9611)" />
    <path
        d="M877.062 279.053C877.062 281.084 875.715 281.897 874.021 280.881C873.136 280.283 872.399 279.477 871.871 278.528C871.342 277.578 871.037 276.513 870.979 275.418C870.979 273.409 872.347 272.574 874.021 273.59C874.906 274.186 875.644 274.992 876.172 275.942C876.701 276.891 877.006 277.957 877.062 279.053Z"
        fill="url(#paint41_linear_61_9611)" />
    <path
        d="M875.782 278.285C875.782 279.436 874.999 279.91 874.022 279.346C873.516 278.994 873.097 278.526 872.795 277.978C872.493 277.429 872.318 276.816 872.283 276.185C872.283 275.034 873.066 274.56 874.022 275.147C874.534 275.487 874.961 275.949 875.267 276.495C875.573 277.04 875.749 277.654 875.782 278.285Z"
        fill="#76AD7E" />
    <path
        d="M815.159 236.883C815.101 235.788 814.795 234.722 814.267 233.773C813.738 232.824 813.002 232.018 812.117 231.419C811.806 231.186 811.442 231.042 811.06 231.002C810.678 230.963 810.293 231.029 809.944 231.194L807.771 232.503H809.097C809.076 232.728 809.076 232.955 809.097 233.18C809.155 234.278 809.461 235.347 809.989 236.3C810.517 237.253 811.254 238.063 812.139 238.666C812.343 238.792 812.562 238.891 812.791 238.96L812.161 240.179L814.333 238.892C814.624 238.657 814.851 238.349 814.996 237.998C815.14 237.647 815.196 237.263 815.159 236.883Z"
        fill="url(#paint42_linear_61_9611)" />
    <path
        d="M812.986 238.146C812.986 240.178 811.639 240.991 809.944 239.975C809.06 239.377 808.323 238.571 807.795 237.621C807.266 236.672 806.96 235.607 806.902 234.512C806.902 232.503 808.271 231.667 809.944 232.683C810.83 233.28 811.568 234.086 812.096 235.036C812.625 235.985 812.93 237.051 812.986 238.146Z"
        fill="url(#paint43_linear_61_9611)" />
    <path
        d="M811.639 237.379C811.639 238.53 810.857 239.004 809.879 238.44C809.374 238.088 808.954 237.62 808.652 237.072C808.351 236.523 808.176 235.91 808.141 235.279C808.141 234.128 808.923 233.654 809.879 234.241C810.391 234.581 810.818 235.043 811.124 235.588C811.43 236.134 811.607 236.748 811.639 237.379Z"
        fill="#76AD7E" />
    <path opacity="0.5"
        d="M514.544 490.49L423.675 435.971C421.698 434.797 421.959 432.721 424.219 431.456L450.945 415.36L548.962 474.055L522.258 490.061C521.095 490.757 519.791 491.159 518.45 491.234C517.11 491.308 515.772 491.053 514.544 490.49Z"
        fill="#76AD7E" />
    <path
        d="M643.721 416.309V397.481H614.235L548.723 358.269C547.734 357.795 546.651 357.572 545.563 357.619C544.475 357.667 543.413 357.982 542.466 358.539L477.28 397.594H448.033V416.467C448.07 416.799 448.187 417.115 448.374 417.387C448.56 417.66 448.809 417.879 449.098 418.025L542.965 474.327C543.957 474.788 545.039 475.004 546.125 474.957C547.211 474.91 548.272 474.601 549.223 474.056L642.156 418.318C642.557 418.145 642.911 417.871 643.184 417.52C643.457 417.169 643.642 416.753 643.721 416.309Z"
        fill="url(#paint44_linear_61_9611)" />
    <path
        d="M542.986 455.522L449.119 399.242C447.511 398.271 447.728 396.578 449.575 395.472L542.53 339.712C543.482 339.166 544.542 338.858 545.628 338.811C546.714 338.764 547.796 338.98 548.788 339.441L642.655 395.743C644.263 396.714 644.046 398.384 642.199 399.513L549.244 455.273C548.293 455.822 547.231 456.131 546.144 456.174C545.057 456.217 543.975 455.993 542.986 455.522Z"
        fill="url(#paint45_linear_61_9611)" />
    <path
        d="M543.312 448.929L460.113 399.038C458.701 398.18 458.875 396.781 460.526 395.697L542.921 346.28C543.76 345.788 544.699 345.508 545.662 345.465C546.625 345.422 547.585 345.616 548.462 346.032L631.66 395.945C633.094 396.803 632.899 398.203 631.269 399.264L548.874 448.703C548.028 449.188 547.084 449.46 546.119 449.499C545.153 449.538 544.192 449.343 543.312 448.929Z"
        fill="#76AD7E" />
    <path
        d="M543.53 444.753L467.089 398.903C465.785 398.113 465.937 396.645 467.458 395.855L543.16 350.434C543.933 349.988 544.796 349.737 545.679 349.702C546.563 349.666 547.442 349.848 548.245 350.231L624.773 396.058C626.077 396.848 625.925 398.316 624.404 399.129L548.723 444.572C547.937 445.039 547.053 445.3 546.148 445.331C545.243 445.363 544.344 445.164 543.53 444.753Z"
        fill="#095729" />
    <path opacity="0.5"
        d="M544.138 432.36L487.774 398.497C486.796 397.91 486.927 396.894 488.035 396.24L543.877 362.738C544.449 362.41 545.086 362.224 545.739 362.197C546.391 362.169 547.041 362.301 547.636 362.58L604 396.443C604.978 397.03 604.847 398.023 603.739 398.7L547.897 432.179C547.327 432.511 546.691 432.701 546.038 432.732C545.385 432.763 544.735 432.636 544.138 432.36Z"
        fill="#76AD7E" />
    <path d="M544.138 394.501L535.186 389.151L540.074 386.216L549.005 391.566L544.138 394.501Z" fill="#CFDBAD" />
    <path d="M560.739 393.756L551.809 399.106L546.92 396.172L555.872 390.821L560.739 393.756Z" fill="#CFDBAD" />
    <path d="M542.096 395.72L537.229 398.655L532.34 395.72L537.229 392.785L542.096 395.72Z" fill="#CFDBAD" />
    <path d="M558.979 405.834L554.09 408.768L540.01 400.325L544.899 397.391L558.979 405.834Z" fill="#CFDBAD" />
    <path d="M545.876 243.858L469.479 198.03L545.876 152.203L622.296 198.03L545.876 243.858Z" fill="#30A842" />
    <path d="M545.876 419.785L469.479 373.958L545.876 328.131L622.296 373.958L545.876 419.785Z" fill="white" />
    <path d="M622.296 198.031V373.958L545.877 419.786V243.859L622.296 198.031Z" fill="url(#paint46_linear_61_9611)" />
    <path d="M469.479 198.031V373.958L545.876 419.786V243.859L469.479 198.031Z" fill="#76AD7E" />
    <g opacity="0.51">
        <path d="M474.65 209.702V367.817L540.705 407.459V249.321L474.65 209.702Z" fill="#095729" />
    </g>
    <path d="M610.824 240.539V245.19L557.35 277.269V272.618L610.824 240.539Z" fill="#095729" />
    <path d="M610.824 260.202V264.853L557.35 296.932V292.281L610.824 260.202Z" fill="#095729" />
    <path d="M610.824 279.865V284.516L557.35 316.595V311.944L610.824 279.865Z" fill="#095729" />
    <path d="M610.824 299.528V304.179L557.35 336.258V331.607L610.824 299.528Z" fill="#095729" />
    <path d="M610.824 319.191V323.819L557.35 355.898V351.248L610.824 319.191Z" fill="#095729" />
    <path d="M610.824 338.831V343.481L557.35 375.561V370.91L610.824 338.831Z" fill="#095729" />
    <path d="M545.876 242.3L470.782 197.24L469.479 198.03L545.876 243.858L622.296 198.03L620.97 197.24L545.876 242.3Z"
        fill="white" />
    <path opacity="0.78" d="M545.876 231.825H525.799L469.479 198.031L530.775 161.256H545.876V231.825Z"
        fill="url(#paint47_linear_61_9611)" />
    <path d="M545.877 227.784L490.447 194.531L545.877 161.256L601.328 194.531L545.877 227.784Z"
        fill="url(#paint48_linear_61_9611)" />
    <path d="M601.328 194.531V198.572L545.877 231.825V227.784L601.328 194.531Z" fill="url(#paint49_linear_61_9611)" />
    <path d="M490.447 194.531V198.572L545.877 231.825V227.784L490.447 194.531Z" fill="url(#paint50_linear_61_9611)" />
    <path
        d="M524.387 195.051L521.932 193.583L522.127 192.387L544.899 178.616L548.071 180.174L547.484 181.19L524.387 195.051Z"
        fill="#76AD7E" />
    <path
        d="M545.029 179.722L547.485 181.19L549.049 180.242L545.029 177.826L520.346 192.635L521.932 193.584L545.029 179.722Z"
        fill="url(#paint51_linear_61_9611)" />
    <path
        d="M531.84 199.498L529.385 198.031L529.58 196.834L552.352 183.063L555.524 184.644L554.938 185.66L531.84 199.498Z"
        fill="#76AD7E" />
    <path
        d="M552.483 184.192L554.938 185.66L556.502 184.711L552.483 182.296L527.799 197.083L529.385 198.031L552.483 184.192Z"
        fill="url(#paint52_linear_61_9611)" />
    <path
        d="M539.293 203.968L536.838 202.5L537.033 201.304L559.805 187.533L562.977 189.091L562.391 190.107L539.293 203.968Z"
        fill="#76AD7E" />
    <path
        d="M559.936 188.639L562.391 190.107L563.955 189.159L559.936 186.743L535.252 201.552L536.838 202.501L559.936 188.639Z"
        fill="url(#paint53_linear_61_9611)" />
    <path
        d="M546.746 208.415L544.291 206.948L544.487 205.751L567.258 191.98L570.43 193.561L569.844 194.577L546.746 208.415Z"
        fill="#76AD7E" />
    <path
        d="M567.387 193.087L569.842 194.577L571.407 193.629L567.387 191.19L542.703 206L544.289 206.948L567.387 193.087Z"
        fill="url(#paint54_linear_61_9611)" />
    <g opacity="0.51">
        <path d="M469.479 346.146L545.876 298.219V243.859L469.479 198.031V346.146Z" fill="#095729" />
    </g>
    <path
        d="M542.856 251.782C542.798 250.684 542.493 249.616 541.964 248.663C541.436 247.71 540.7 246.899 539.814 246.296C539.502 246.066 539.136 245.927 538.754 245.891C538.373 245.855 537.989 245.925 537.642 246.093L535.469 247.403H536.794C536.771 247.628 536.771 247.855 536.794 248.08C536.852 249.175 537.158 250.24 537.686 251.189C538.215 252.138 538.952 252.945 539.836 253.543C540.04 253.676 540.259 253.782 540.488 253.859L539.858 255.055L542.031 253.769C542.318 253.536 542.543 253.232 542.688 252.885C542.832 252.538 542.89 252.159 542.856 251.782Z"
        fill="url(#paint55_linear_61_9611)" />
    <path
        d="M540.684 253.091C540.684 255.101 539.336 255.913 537.642 254.92C536.756 254.317 536.02 253.507 535.492 252.554C534.963 251.601 534.658 250.532 534.6 249.434C534.6 247.425 535.968 246.612 537.642 247.628C538.53 248.222 539.269 249.028 539.798 249.978C540.327 250.928 540.631 251.995 540.684 253.091Z"
        fill="url(#paint56_linear_61_9611)" />
    <path
        d="M539.401 252.324C539.401 253.476 538.618 253.95 537.641 253.363C537.136 253.016 536.716 252.552 536.414 252.007C536.113 251.463 535.937 250.852 535.902 250.225C535.902 249.051 536.685 248.599 537.641 249.164C538.153 249.509 538.58 249.975 538.886 250.524C539.192 251.074 539.368 251.69 539.401 252.324Z"
        fill="#76AD7E" />
    <path
        d="M478.778 210.876C478.72 209.778 478.415 208.709 477.886 207.756C477.358 206.804 476.621 205.993 475.736 205.39C475.424 205.16 475.058 205.02 474.676 204.985C474.295 204.949 473.911 205.019 473.563 205.187L471.391 206.496H472.716C472.693 206.721 472.693 206.948 472.716 207.174C472.774 208.268 473.08 209.334 473.608 210.283C474.137 211.232 474.873 212.039 475.758 212.637C475.962 212.769 476.181 212.876 476.41 212.953L475.78 214.149L477.953 212.885C478.243 212.65 478.471 212.343 478.615 211.991C478.759 211.64 478.816 211.256 478.778 210.876Z"
        fill="url(#paint57_linear_61_9611)" />
    <path
        d="M476.605 212.185C476.605 214.194 475.258 215.007 473.563 214.014C472.678 213.411 471.942 212.6 471.414 211.647C470.885 210.695 470.58 209.626 470.521 208.528C470.521 206.519 471.89 205.706 473.563 206.722C474.452 207.316 475.191 208.122 475.72 209.072C476.249 210.022 476.553 211.089 476.605 212.185Z"
        fill="url(#paint58_linear_61_9611)" />
    <path
        d="M475.325 211.418C475.325 212.569 474.542 213.043 473.564 212.456C473.06 212.11 472.64 211.646 472.338 211.101C472.036 210.556 471.861 209.946 471.826 209.318C471.826 208.145 472.608 207.693 473.564 208.257C474.077 208.602 474.504 209.069 474.81 209.618C475.116 210.167 475.292 210.784 475.325 211.418Z"
        fill="#76AD7E" />
    <path
        d="M542.856 409.333C542.798 408.235 542.493 407.166 541.964 406.214C541.436 405.261 540.7 404.45 539.814 403.847C539.502 403.617 539.136 403.477 538.754 403.442C538.373 403.406 537.989 403.476 537.642 403.644L535.469 404.953H536.794C536.771 405.178 536.771 405.405 536.794 405.631C536.852 406.726 537.158 407.791 537.686 408.74C538.215 409.689 538.952 410.496 539.836 411.094C540.04 411.226 540.259 411.333 540.488 411.41L539.858 412.606L542.031 411.319C542.318 411.087 542.543 410.783 542.688 410.436C542.832 410.089 542.89 409.709 542.856 409.333Z"
        fill="url(#paint59_linear_61_9611)" />
    <path
        d="M540.684 410.71C540.684 412.719 539.336 413.532 537.642 412.538C536.756 411.935 536.02 411.125 535.492 410.172C534.963 409.219 534.658 408.151 534.6 407.053C534.6 405.043 535.968 404.231 537.642 405.247C538.53 405.841 539.269 406.646 539.798 407.596C540.327 408.546 540.631 409.613 540.684 410.71Z"
        fill="url(#paint60_linear_61_9611)" />
    <path
        d="M539.401 409.875C539.401 411.026 538.618 411.5 537.641 410.913C537.136 410.567 536.716 410.103 536.414 409.558C536.113 409.013 535.937 408.403 535.902 407.776C535.902 406.602 536.685 406.15 537.641 406.715C538.153 407.059 538.58 407.526 538.886 408.075C539.192 408.624 539.368 409.241 539.401 409.875Z"
        fill="#76AD7E" />
    <path
        d="M478.778 368.428C478.72 367.33 478.415 366.261 477.886 365.308C477.358 364.355 476.621 363.545 475.736 362.942C475.424 362.712 475.058 362.572 474.676 362.536C474.295 362.501 473.911 362.571 473.563 362.739L471.391 364.048H472.716C472.693 364.273 472.693 364.5 472.716 364.725C472.774 365.82 473.08 366.886 473.608 367.835C474.137 368.784 474.873 369.59 475.758 370.188C475.962 370.321 476.181 370.427 476.41 370.505L475.78 371.701L477.953 370.414C478.239 370.181 478.465 369.877 478.609 369.53C478.754 369.183 478.812 368.804 478.778 368.428Z"
        fill="url(#paint61_linear_61_9611)" />
    <path
        d="M476.605 369.737C476.605 371.746 475.258 372.559 473.563 371.566C472.678 370.963 471.942 370.152 471.414 369.199C470.885 368.246 470.58 367.178 470.521 366.08C470.521 364.071 471.89 363.258 473.563 364.274C474.452 364.868 475.191 365.673 475.72 366.623C476.249 367.573 476.553 368.641 476.605 369.737Z"
        fill="url(#paint62_linear_61_9611)" />
    <path
        d="M475.325 368.969C475.325 370.12 474.542 370.594 473.564 370.007C473.06 369.661 472.64 369.197 472.338 368.652C472.036 368.107 471.861 367.497 471.826 366.869C471.826 365.695 472.608 365.244 473.564 365.808C474.077 366.153 474.504 366.619 474.81 367.169C475.116 367.718 475.292 368.335 475.325 368.969Z"
        fill="#76AD7E" />
    <path opacity="0.5"
        d="M789.301 551.059L698.432 496.495C696.476 495.299 696.715 493.244 698.997 491.98L725.68 475.975L823.697 534.67L796.993 550.675C795.829 551.361 794.527 551.752 793.191 551.819C791.855 551.886 790.522 551.625 789.301 551.059Z"
        fill="#76AD7E" />
    <path
        d="M918.479 476.877V458.117H888.993L823.568 418.837C822.574 418.37 821.488 418.152 820.398 418.199C819.307 418.246 818.243 418.557 817.289 419.108L752.103 458.185H722.77V477.035C722.796 477.37 722.909 477.692 723.096 477.966C723.284 478.24 723.539 478.456 723.834 478.593L817.745 534.872C818.736 535.339 819.818 535.558 820.905 535.511C821.992 535.464 823.053 535.152 824.003 534.602L916.979 478.841C917.363 478.664 917.7 478.392 917.961 478.05C918.222 477.708 918.4 477.306 918.479 476.877Z"
        fill="url(#paint63_linear_61_9611)" />
    <path
        d="M817.745 516.113L723.9 459.811C722.292 458.84 722.487 457.17 724.334 456.041L817.289 400.281C818.245 399.735 819.309 399.426 820.398 399.379C821.488 399.332 822.573 399.548 823.569 400.01L917.414 456.312C919.022 457.282 918.827 458.976 916.98 460.082L824.003 515.842C823.051 516.388 821.991 516.696 820.905 516.743C819.819 516.79 818.737 516.574 817.745 516.113Z"
        fill="url(#paint64_linear_61_9611)" />
    <path
        d="M817.745 516.113L723.9 459.811C722.292 458.84 722.487 457.17 724.334 456.041L817.289 400.281C818.245 399.735 819.309 399.426 820.398 399.379C821.488 399.332 822.573 399.548 823.569 400.01L917.414 456.312C919.022 457.282 918.827 458.976 916.98 460.082L824.003 515.842C823.051 516.388 821.991 516.696 820.905 516.743C819.819 516.79 818.737 516.574 817.745 516.113Z"
        fill="url(#paint65_linear_61_9611)" />
    <path
        d="M818.158 509.521L734.959 459.608C733.546 458.75 733.72 457.35 735.372 456.289L817.766 406.85C818.607 406.361 819.548 406.085 820.511 406.046C821.474 406.007 822.432 406.205 823.307 406.624L906.506 456.515C907.94 457.373 907.766 458.772 906.115 459.856L823.72 509.273C822.875 509.759 821.932 510.035 820.967 510.078C820.002 510.121 819.04 509.93 818.158 509.521Z"
        fill="#76AD7E" />
    <path
        d="M818.288 505.321L741.847 459.471C740.543 458.704 740.717 457.327 742.216 456.424L817.919 411.025C818.692 410.57 819.558 410.312 820.446 410.273C821.333 410.234 822.217 410.414 823.025 410.8L899.466 456.65C900.77 457.417 900.596 458.907 899.097 459.697L823.394 505.118C822.618 505.565 821.751 505.816 820.864 505.851C819.978 505.886 819.095 505.705 818.288 505.321Z"
        fill="#095729" />
    <path d="M818.895 455.07L809.965 449.72L814.832 446.785L823.784 452.158L818.895 455.07Z" fill="#CFDBAD" />
    <path d="M835.519 454.325L826.566 459.676L821.699 456.763L830.63 451.391L835.519 454.325Z" fill="#CFDBAD" />
    <path d="M816.876 456.289L811.987 459.224L807.098 456.289L811.987 453.377L816.876 456.289Z" fill="#CFDBAD" />
    <path d="M833.736 466.402L828.847 469.337L814.789 460.894L819.656 457.959L833.736 466.402Z" fill="#CFDBAD" />
    <path opacity="0.4"
        d="M918.5 432.766L878.585 433.015L823.568 400.032C822.575 399.561 821.49 399.337 820.4 399.38C819.309 399.423 818.243 399.732 817.288 400.281L761.533 433.737L722.812 433.985V458.411C722.88 458.709 723.011 458.987 723.195 459.225C723.379 459.463 723.612 459.656 723.877 459.788L817.723 516.091C818.715 516.552 819.797 516.768 820.882 516.721C821.968 516.674 823.029 516.365 823.981 515.82L916.957 460.059C917.302 459.883 917.608 459.636 917.858 459.334C918.109 459.031 918.297 458.679 918.413 458.299L918.5 432.766Z"
        fill="#CFDBAD" />
    <path
        d="M918.479 435.204V416.376H888.993L823.568 377.141C822.576 376.669 821.491 376.446 820.4 376.489C819.31 376.532 818.244 376.84 817.289 377.389L752.103 416.467H722.77V435.339C722.798 435.674 722.912 435.994 723.099 436.268C723.286 436.541 723.54 436.758 723.834 436.897L817.68 493.199C818.672 493.66 819.754 493.876 820.84 493.829C821.925 493.782 822.986 493.474 823.938 492.928L916.914 437.168C917.309 436.997 917.658 436.729 917.931 436.387C918.203 436.045 918.391 435.639 918.479 435.204Z"
        fill="url(#paint66_linear_61_9611)" />
    <path
        d="M817.745 474.417L723.9 418.114C722.292 417.166 722.487 415.473 724.334 414.367L817.289 358.607C818.245 358.061 819.309 357.753 820.398 357.706C821.488 357.659 822.573 357.874 823.569 358.336L917.414 414.638C919.022 415.609 918.827 417.279 916.98 418.385L824.003 474.146C823.055 474.703 821.994 475.019 820.906 475.066C819.818 475.113 818.734 474.89 817.745 474.417Z"
        fill="url(#paint67_linear_61_9611)" />
    <path
        d="M818.158 467.825L734.959 417.935C733.546 417.077 733.72 415.677 735.372 414.594L817.766 365.177C818.606 364.684 819.545 364.405 820.508 364.361C821.471 364.318 822.43 364.513 823.307 364.929L906.506 414.842C907.94 415.7 907.766 417.099 906.115 418.16L823.72 467.6C822.874 468.084 821.93 468.357 820.964 468.396C819.999 468.435 819.038 468.24 818.158 467.825Z"
        fill="#76AD7E" />
    <path
        d="M818.288 463.648L741.847 417.798C740.543 417.008 740.717 415.654 742.216 414.751L817.919 369.33C818.695 368.884 819.56 368.632 820.446 368.593C821.332 368.554 822.215 368.729 823.025 369.104L899.466 414.954C900.77 415.744 900.596 417.211 899.097 418.024L823.394 463.422C822.62 463.872 821.754 464.127 820.867 464.167C819.98 464.206 819.097 464.028 818.288 463.648Z"
        fill="#095729" />
    <path d="M818.895 413.396L809.965 408.023L814.832 405.111L823.784 410.462L818.895 413.396Z" fill="#CFDBAD" />
    <path d="M835.519 412.629L826.566 418.002L821.699 415.067L830.63 409.717L835.519 412.629Z" fill="#CFDBAD" />
    <path d="M816.876 414.615L811.987 417.55L807.098 414.615L811.987 411.681L816.876 414.615Z" fill="#CFDBAD" />
    <path d="M833.736 424.729L828.847 427.664L814.789 419.221L819.656 416.286L833.736 424.729Z" fill="#CFDBAD" />
    <defs>
        <linearGradient id="paint0_linear_61_9611" x1="227.464" y1="544.898" x2="70.4517" y2="666.07"
            gradientUnits="userSpaceOnUse">
            <stop stop-color="#BEECD0" />
            <stop offset="0.15" stop-color="#96D99D" />
            <stop offset="0.39" stop-color="#1F9941" />
            <stop offset="0.61" stop-color="#0F6723" />
            <stop offset="0.82" stop-color="#24635A" />
            <stop offset="1" stop-color="#21555F" />
        </linearGradient>
        <linearGradient id="paint1_linear_61_9611" x1="257.529" y1="587.97" x2="43.1446" y2="524.393"
            gradientUnits="userSpaceOnUse">
            <stop stop-color="#76AD7E" />
            <stop offset="0.3" stop-color="#96D99D" />
            <stop offset="0.65" stop-color="#BEECD0" />
            <stop offset="1" stop-color="#E9FFFF" />
        </linearGradient>
        <linearGradient id="paint2_linear_61_9611" x1="291.152" y1="608.7" x2="433.365" y2="608.7"
            gradientUnits="userSpaceOnUse">
            <stop stop-color="#BEECD0" />
            <stop offset="0.15" stop-color="#96D99D" />
            <stop offset="0.33" stop-color="#96D99D" />
            <stop offset="0.52" stop-color="#30A842" />
            <stop offset="0.72" stop-color="#30A842" />
            <stop offset="0.93" stop-color="#095729" />
            <stop offset="1" stop-color="#095729" />
        </linearGradient>
        <linearGradient id="paint3_linear_61_9611" x1="298.733" y1="585.222" x2="425.78" y2="585.222"
            gradientUnits="userSpaceOnUse">
            <stop stop-color="#24635A" />
            <stop offset="0.18" stop-color="#095729" />
            <stop offset="0.39" stop-color="#30A842" />
            <stop offset="0.61" stop-color="#30A842" />
            <stop offset="0.85" stop-color="#96D99D" />
            <stop offset="1" stop-color="#BEECD0" />
        </linearGradient>
        <linearGradient id="paint4_linear_61_9611" x1="298.733" y1="549.711" x2="425.78" y2="549.711"
            gradientUnits="userSpaceOnUse">
            <stop stop-color="#21555F" />
            <stop offset="0.18" stop-color="#24635A" />
            <stop offset="0.39" stop-color="#0F6723" />
            <stop offset="0.61" stop-color="#1F9941" />
            <stop offset="0.85" stop-color="#96D99D" />
            <stop offset="1" stop-color="#BEECD0" />
        </linearGradient>
        <linearGradient id="paint5_linear_61_9611" x1="298.733" y1="513.478" x2="425.78" y2="513.478"
            gradientUnits="userSpaceOnUse">
            <stop stop-color="#21555F" />
            <stop offset="0.18" stop-color="#24635A" />
            <stop offset="0.39" stop-color="#0F6723" />
            <stop offset="0.61" stop-color="#1F9941" />
            <stop offset="0.85" stop-color="#96D99D" />
            <stop offset="1" stop-color="#BEECD0" />
        </linearGradient>
        <linearGradient id="paint6_linear_61_9611" x1="298.733" y1="477.222" x2="425.78" y2="477.222"
            gradientUnits="userSpaceOnUse">
            <stop stop-color="#095729" />
            <stop offset="0.18" stop-color="#24635A" />
            <stop offset="0.39" stop-color="#2F7729" />
            <stop offset="0.61" stop-color="#1F9941" />
            <stop offset="0.85" stop-color="#30A842" />
            <stop offset="1" stop-color="#76AD7E" />
        </linearGradient>
        <linearGradient id="paint7_linear_61_9611" x1="298.733" y1="477.222" x2="425.78" y2="477.222"
            gradientUnits="userSpaceOnUse">
            <stop stop-color="#095729" />
            <stop offset="0.18" stop-color="#24635A" />
            <stop offset="0.39" stop-color="#2F7729" />
            <stop offset="0.61" stop-color="#1F9941" />
            <stop offset="0.85" stop-color="#30A842" />
            <stop offset="1" stop-color="#76AD7E" />
        </linearGradient>
        <linearGradient id="paint8_linear_61_9611" x1="298.735" y1="460.923" x2="362.247" y2="460.923"
            gradientUnits="userSpaceOnUse">
            <stop stop-color="#BEECD0" />
            <stop offset="0.04" stop-color="#BEECD0" />
            <stop offset="0.11" stop-color="#96D99D" />
            <stop offset="0.18" stop-color="#1EC15F" />
            <stop offset="0.27" stop-color="#1F9941" />
            <stop offset="0.36" stop-color="#1F9941" />
            <stop offset="0.48" stop-color="#1F9941" />
            <stop offset="0.64" stop-color="#2F7729" />
            <stop offset="1" stop-color="#0F6723" />
        </linearGradient>
        <linearGradient id="paint9_linear_61_9611" x1="329.633" y1="459.027" x2="394.862" y2="459.027"
            gradientUnits="userSpaceOnUse">
            <stop stop-color="#095729" />
            <stop offset="0.18" stop-color="#095729" />
            <stop offset="0.359375" stop-color="#30A842" />
            <stop offset="0.61" stop-color="#30A842" />
            <stop offset="0.85" stop-color="#96D99D" />
            <stop offset="1" stop-color="#BEECD0" />
        </linearGradient>
        <linearGradient id="paint10_linear_61_9611" x1="329.632" y1="451.509" x2="394.861" y2="451.509"
            gradientUnits="userSpaceOnUse">
            <stop stop-color="#76AD7E" />
            <stop offset="0.3" stop-color="#96D99D" />
            <stop offset="0.65" stop-color="#BEECD0" />
            <stop offset="1" stop-color="#E9FFFF" />
        </linearGradient>
        <linearGradient id="paint11_linear_61_9611" x1="340.301" y1="446.791" x2="384.214" y2="446.791"
            gradientUnits="userSpaceOnUse">
            <stop stop-color="#BEECD0" />
            <stop offset="0.15" stop-color="#96D99D" />
            <stop offset="0.39" stop-color="#1F9941" />
            <stop offset="0.61" stop-color="#0F6723" />
            <stop offset="0.82" stop-color="#24635A" />
            <stop offset="1" stop-color="#246659" />
        </linearGradient>
        <linearGradient id="paint12_linear_61_9611" x1="281.959" y1="665.792" x2="760.422" y2="665.792"
            gradientUnits="userSpaceOnUse">
            <stop stop-color="#BEECD0" />
            <stop offset="0.15" stop-color="#96D99D" />
            <stop offset="0.33" stop-color="#30A842" />
            <stop offset="0.52" stop-color="#30A842" />
            <stop offset="0.72" stop-color="#76AD7E" />
            <stop offset="0.93" stop-color="#095729" />
            <stop offset="1" stop-color="#095729" />
        </linearGradient>
        <linearGradient id="paint13_linear_61_9611" x1="715.12" y1="475.297" x2="989.552" y2="475.297"
            gradientUnits="userSpaceOnUse">
            <stop stop-color="#BEECD0" />
            <stop offset="0.15" stop-color="#96D99D" />
            <stop offset="0.33" stop-color="#9EDF94" />
            <stop offset="0.52" stop-color="#1EC15F" />
            <stop offset="0.72" stop-color="#00B71B" />
            <stop offset="0.93" stop-color="#0F6723" />
            <stop offset="1" stop-color="#0F6723" />
        </linearGradient>
        <linearGradient id="paint14_linear_61_9611" x1="600.416" y1="681.475" x2="742.629" y2="681.475"
            gradientUnits="userSpaceOnUse">
            <stop stop-color="#BEECD0" />
            <stop offset="0.15" stop-color="#BEECD0" />
            <stop offset="0.33" stop-color="#96D99D" />
            <stop offset="0.52" stop-color="#96D99D" />
            <stop offset="0.72" stop-color="#30A842" />
            <stop offset="0.93" stop-color="#095729" />
            <stop offset="1" stop-color="#095729" />
        </linearGradient>
        <linearGradient id="paint15_linear_61_9611" x1="607.998" y1="657.996" x2="735.045" y2="657.996"
            gradientUnits="userSpaceOnUse">
            <stop stop-color="#095729" />
            <stop offset="0.18" stop-color="#246659" />
            <stop offset="0.39" stop-color="#1F9941" />
            <stop offset="0.61" stop-color="#96D99D" />
            <stop offset="0.85" stop-color="#96D99D" />
            <stop offset="1" stop-color="#BEECD0" />
        </linearGradient>
        <linearGradient id="paint16_linear_61_9611" x1="607.998" y1="622.509" x2="735.045" y2="622.509"
            gradientUnits="userSpaceOnUse">
            <stop stop-color="#24635A" />
            <stop offset="0.18" stop-color="#095729" />
            <stop offset="0.39" stop-color="#30A842" />
            <stop offset="0.61" stop-color="#30A842" />
            <stop offset="0.85" stop-color="#96D99D" />
            <stop offset="1" stop-color="#BEECD0" />
        </linearGradient>
        <linearGradient id="paint17_linear_61_9611" x1="607.998" y1="586.253" x2="735.045" y2="586.253"
            gradientUnits="userSpaceOnUse">
            <stop stop-color="#24635A" />
            <stop offset="0.18" stop-color="#095729" />
            <stop offset="0.39" stop-color="#095729" />
            <stop offset="0.61" stop-color="#30A842" />
            <stop offset="0.85" stop-color="#96D99D" />
            <stop offset="1" stop-color="#BEECD0" />
        </linearGradient>
        <linearGradient id="paint18_linear_61_9611" x1="607.998" y1="549.998" x2="735.045" y2="549.998"
            gradientUnits="userSpaceOnUse">
            <stop stop-color="#095729" />
            <stop offset="0.18" stop-color="#246659" />
            <stop offset="0.39" stop-color="#1F9941" />
            <stop offset="0.61" stop-color="#96D99D" />
            <stop offset="0.85" stop-color="#96D99D" />
            <stop offset="1" stop-color="#BEECD0" />
        </linearGradient>
        <linearGradient id="paint19_linear_61_9611" x1="607.998" y1="549.998" x2="735.045" y2="549.998"
            gradientUnits="userSpaceOnUse">
            <stop stop-color="#095729" />
            <stop offset="0.18" stop-color="#246659" />
            <stop offset="0.39" stop-color="#1F9941" />
            <stop offset="0.61" stop-color="#96D99D" />
            <stop offset="0.85" stop-color="#96D99D" />
            <stop offset="1" stop-color="#BEECD0" />
        </linearGradient>
        <linearGradient id="paint20_linear_61_9611" x1="607.998" y1="533.699" x2="671.511" y2="533.699"
            gradientUnits="userSpaceOnUse">
            <stop stop-color="#BEECD0" />
            <stop offset="0.04" stop-color="#BEECD0" />
            <stop offset="0.11" stop-color="#96D99D" />
            <stop offset="0.18" stop-color="#96D99D" />
            <stop offset="0.27" stop-color="#1F9941" />
            <stop offset="0.36" stop-color="#1F9941" />
            <stop offset="0.48" stop-color="#0F6723" />
            <stop offset="0.64" stop-color="#0F6723" />
            <stop offset="1" stop-color="#22575E" />
        </linearGradient>
        <linearGradient id="paint21_linear_61_9611" x1="638.896" y1="531.802" x2="704.126" y2="531.802"
            gradientUnits="userSpaceOnUse">
            <stop stop-color="#095729" />
            <stop offset="0.18" stop-color="#095729" />
            <stop offset="0.39" stop-color="#30A842" />
            <stop offset="0.61" stop-color="#30A842" />
            <stop offset="0.85" stop-color="#96D99D" />
            <stop offset="1" stop-color="#BEECD0" />
        </linearGradient>
        <linearGradient id="paint22_linear_61_9611" x1="638.896" y1="524.285" x2="704.126" y2="524.285"
            gradientUnits="userSpaceOnUse">
            <stop stop-color="#76AD7E" />
            <stop offset="0.3" stop-color="#96D99D" />
            <stop offset="0.65" stop-color="#BEECD0" />
            <stop offset="1" stop-color="#E9FFFF" />
        </linearGradient>
        <linearGradient id="paint23_linear_61_9611" x1="649.543" y1="519.566" x2="693.479" y2="519.566"
            gradientUnits="userSpaceOnUse">
            <stop stop-color="#BEECD0" />
            <stop offset="0.15" stop-color="#96D99D" />
            <stop offset="0.39" stop-color="#1F9941" />
            <stop offset="0.61" stop-color="#0F6723" />
            <stop offset="0.82" stop-color="#24635A" />
            <stop offset="1" stop-color="#073245" />
        </linearGradient>
        <linearGradient id="paint24_linear_61_9611" x1="448.815" y1="272.754" x2="848.382" y2="272.754"
            gradientUnits="userSpaceOnUse">
            <stop stop-color="#E5FFD6" />
            <stop offset="0.15" stop-color="#BEECD0" />
            <stop offset="0.33" stop-color="#BEECD0" />
            <stop offset="0.52" stop-color="#96D99D" />
            <stop offset="0.72" stop-color="#1F9941" />
            <stop offset="0.93" stop-color="#1F9941" />
            <stop offset="1" stop-color="#095729" />
        </linearGradient>
        <linearGradient id="paint25_linear_61_9611" x1="938.294" y1="229.117" x2="781.282" y2="350.288"
            gradientUnits="userSpaceOnUse">
            <stop stop-color="#BEECD0" />
            <stop offset="0.15" stop-color="#96D99D" />
            <stop offset="0.39" stop-color="#1F9941" />
            <stop offset="0.61" stop-color="#0F6723" />
            <stop offset="0.82" stop-color="#24635A" />
            <stop offset="1" stop-color="#21555F" />
        </linearGradient>
        <linearGradient id="paint26_linear_61_9611" x1="969.249" y1="270.513" x2="754.892" y2="206.883"
            gradientUnits="userSpaceOnUse">
            <stop stop-color="#76AD7E" />
            <stop offset="0.3" stop-color="#96D99D" />
            <stop offset="0.65" stop-color="#BEECD0" />
            <stop offset="1" stop-color="#E9FFFF" />
        </linearGradient>
        <linearGradient id="paint27_linear_61_9611" x1="920.455" y1="238.666" x2="920.455" y2="71.1595"
            gradientUnits="userSpaceOnUse">
            <stop stop-color="#76AD7E" />
            <stop offset="0.3" stop-color="#96D99D" />
            <stop offset="0.65" stop-color="#BEECD0" />
            <stop offset="1" stop-color="#E9FFFF" />
        </linearGradient>
        <linearGradient id="paint28_linear_61_9611" x1="805.859" y1="64.9742" x2="882.257" y2="64.9742"
            gradientUnits="userSpaceOnUse">
            <stop stop-color="#BEECD0" />
            <stop offset="0.04" stop-color="#BEECD0" />
            <stop offset="0.11" stop-color="#96D99D" />
            <stop offset="0.18" stop-color="#96D99D" />
            <stop offset="0.27" stop-color="#1F9941" />
            <stop offset="0.36" stop-color="#1F9941" />
            <stop offset="0.48" stop-color="#0F6723" />
            <stop offset="0.64" stop-color="#0F6723" />
            <stop offset="1" stop-color="#24635A" />
        </linearGradient>
        <linearGradient id="paint29_linear_61_9611" x1="826.826" y1="62.9424" x2="937.707" y2="62.9424"
            gradientUnits="userSpaceOnUse">
            <stop stop-color="#76AD7E" />
            <stop offset="0.3" stop-color="#96D99D" />
            <stop offset="0.65" stop-color="#BEECD0" />
            <stop offset="1" stop-color="#E9FFFF" />
        </linearGradient>
        <linearGradient id="paint30_linear_61_9611" x1="917.13" y1="94.57" x2="902.868" y2="70.5913"
            gradientUnits="userSpaceOnUse">
            <stop stop-color="#76AD7E" />
            <stop offset="0.3" stop-color="#96D99D" />
            <stop offset="0.65" stop-color="#BEECD0" />
            <stop offset="1" stop-color="#E9FFFF" />
        </linearGradient>
        <linearGradient id="paint31_linear_61_9611" x1="854.552" y1="82.9664" x2="854.552" y2="45.6725"
            gradientUnits="userSpaceOnUse">
            <stop stop-color="#095729" />
            <stop offset="0.18" stop-color="#095729" />
            <stop offset="0.39" stop-color="#1F9941" />
            <stop offset="0.61" stop-color="#96D99D" />
            <stop offset="0.85" stop-color="#BEECD0" />
            <stop offset="1" stop-color="#EFFFF6" />
        </linearGradient>
        <linearGradient id="paint32_linear_61_9611" x1="856.725" y1="54.1384" x2="885.428" y2="54.1384"
            gradientUnits="userSpaceOnUse">
            <stop stop-color="#095729" />
            <stop offset="0.18" stop-color="#095729" />
            <stop offset="0.39" stop-color="#30A842" />
            <stop offset="0.61" stop-color="#30A842" />
            <stop offset="0.85" stop-color="#96D99D" />
            <stop offset="1" stop-color="#BEECD0" />
        </linearGradient>
        <linearGradient id="paint33_linear_61_9611" x1="864.178" y1="58.5857" x2="892.881" y2="58.5857"
            gradientUnits="userSpaceOnUse">
            <stop stop-color="#095729" />
            <stop offset="0.18" stop-color="#0F6723" />
            <stop offset="0.39" stop-color="#2F7729" />
            <stop offset="0.61" stop-color="#1F9941" />
            <stop offset="0.85" stop-color="#96D99D" />
            <stop offset="1" stop-color="#BEECD0" />
        </linearGradient>
        <linearGradient id="paint34_linear_61_9611" x1="871.631" y1="63.033" x2="900.334" y2="63.033"
            gradientUnits="userSpaceOnUse">
            <stop stop-color="#095729" />
            <stop offset="0.18" stop-color="#0F6723" />
            <stop offset="0.39" stop-color="#2F7729" />
            <stop offset="0.61" stop-color="#1F9941" />
            <stop offset="0.85" stop-color="#96D99D" />
            <stop offset="1" stop-color="#BEECD0" />
        </linearGradient>
        <linearGradient id="paint35_linear_61_9611" x1="879.084" y1="67.5017" x2="907.787" y2="67.5017"
            gradientUnits="userSpaceOnUse">
            <stop stop-color="#095729" />
            <stop offset="0.18" stop-color="#0F6723" />
            <stop offset="0.39" stop-color="#2F7729" />
            <stop offset="0.61" stop-color="#1F9941" />
            <stop offset="0.85" stop-color="#96D99D" />
            <stop offset="1" stop-color="#BEECD0" />
        </linearGradient>
        <linearGradient id="paint36_linear_61_9611" x1="871.891" y1="118.905" x2="879.235" y2="118.905"
            gradientUnits="userSpaceOnUse">
            <stop stop-color="#76AD7E" />
            <stop offset="0.3" stop-color="#A8FFBB" />
            <stop offset="0.65" stop-color="#BEECD0" />
            <stop offset="1" stop-color="#F8FFE9" />
        </linearGradient>
        <linearGradient id="paint37_linear_61_9611" x1="870.979" y1="119.696" x2="877.062" y2="119.696"
            gradientUnits="userSpaceOnUse">
            <stop stop-color="#095729" />
            <stop offset="0.18" stop-color="#095729" />
            <stop offset="0.39" stop-color="#76AD7E" />
            <stop offset="0.61" stop-color="#76AD7E" />
            <stop offset="0.85" stop-color="#96D99D" />
            <stop offset="1" stop-color="#BEECD0" />
        </linearGradient>
        <linearGradient id="paint38_linear_61_9611" x1="807.815" y1="77.9992" x2="815.159" y2="77.9992"
            gradientUnits="userSpaceOnUse">
            <stop stop-color="#76AD7E" />
            <stop offset="0.3" stop-color="#A8FFBB" />
            <stop offset="0.65" stop-color="#BEECD0" />
            <stop offset="1" stop-color="#F8FFE9" />
        </linearGradient>
        <linearGradient id="paint39_linear_61_9611" x1="806.902" y1="78.7895" x2="812.986" y2="78.7895"
            gradientUnits="userSpaceOnUse">
            <stop stop-color="#21555F" />
            <stop offset="0.18" stop-color="#0F6723" />
            <stop offset="0.39" stop-color="#24635A" />
            <stop offset="0.61" stop-color="#1F9941" />
            <stop offset="0.85" stop-color="#96D99D" />
            <stop offset="1" stop-color="#BEECD0" />
        </linearGradient>
        <linearGradient id="paint40_linear_61_9611" x1="871.891" y1="276.456" x2="879.235" y2="276.456"
            gradientUnits="userSpaceOnUse">
            <stop stop-color="#76AD7E" />
            <stop offset="0.3" stop-color="#A8FFBB" />
            <stop offset="0.65" stop-color="#BEECD0" />
            <stop offset="1" stop-color="#F8FFE9" />
        </linearGradient>
        <linearGradient id="paint41_linear_61_9611" x1="870.979" y1="277.247" x2="877.062" y2="277.247"
            gradientUnits="userSpaceOnUse">
            <stop stop-color="#095729" />
            <stop offset="0.18" stop-color="#095729" />
            <stop offset="0.39" stop-color="#76AD7E" />
            <stop offset="0.61" stop-color="#76AD7E" />
            <stop offset="0.85" stop-color="#96D99D" />
            <stop offset="1" stop-color="#BEECD0" />
        </linearGradient>
        <linearGradient id="paint42_linear_61_9611" x1="807.815" y1="235.551" x2="815.159" y2="235.551"
            gradientUnits="userSpaceOnUse">
            <stop stop-color="#76AD7E" />
            <stop offset="0.3" stop-color="#96D99D" />
            <stop offset="0.65" stop-color="#BEECD0" />
            <stop offset="1" stop-color="#E9FFFF" />
        </linearGradient>
        <linearGradient id="paint43_linear_61_9611" x1="806.902" y1="236.34" x2="812.986" y2="236.34"
            gradientUnits="userSpaceOnUse">
            <stop stop-color="#073245" />
            <stop offset="0.18" stop-color="#24635A" />
            <stop offset="0.39" stop-color="#0F6723" />
            <stop offset="0.61" stop-color="#1F9941" />
            <stop offset="0.85" stop-color="#96D99D" />
            <stop offset="1" stop-color="#BEECD0" />
        </linearGradient>
        <linearGradient id="paint44_linear_61_9611" x1="601.915" y1="360.684" x2="444.902" y2="481.878"
            gradientUnits="userSpaceOnUse">
            <stop stop-color="#BEECD0" />
            <stop offset="0.15" stop-color="#96D99D" />
            <stop offset="0.39" stop-color="#1F9941" />
            <stop offset="0.61" stop-color="#0F6723" />
            <stop offset="0.82" stop-color="#24635A" />
            <stop offset="1" stop-color="#21555F" />
        </linearGradient>
        <linearGradient id="paint45_linear_61_9611" x1="632.593" y1="402.848" x2="418.236" y2="339.219"
            gradientUnits="userSpaceOnUse">
            <stop stop-color="#76AD7E" />
            <stop offset="0.3" stop-color="#96D99D" />
            <stop offset="0.65" stop-color="#BEECD0" />
            <stop offset="1" stop-color="#E9FFFF" />
        </linearGradient>
        <linearGradient id="paint46_linear_61_9611" x1="584.076" y1="370.256" x2="584.076" y2="202.727"
            gradientUnits="userSpaceOnUse">
            <stop stop-color="#76AD7E" />
            <stop offset="0.3" stop-color="#96D99D" />
            <stop offset="0.65" stop-color="#BEECD0" />
            <stop offset="1" stop-color="#E9FFFF" />
        </linearGradient>
        <linearGradient id="paint47_linear_61_9611" x1="469.479" y1="196.541" x2="545.876" y2="196.541"
            gradientUnits="userSpaceOnUse">
            <stop stop-color="#BEECD0" />
            <stop offset="0.04" stop-color="#96D99D" />
            <stop offset="0.11" stop-color="#96D99D" />
            <stop offset="0.18" stop-color="#1F9941" />
            <stop offset="0.27" stop-color="#1F9941" />
            <stop offset="0.36" stop-color="#0F6723" />
            <stop offset="0.48" stop-color="#0F6723" />
            <stop offset="0.64" stop-color="#246659" />
            <stop offset="1" stop-color="#246659" />
        </linearGradient>
        <linearGradient id="paint48_linear_61_9611" x1="490.447" y1="194.531" x2="601.328" y2="194.531"
            gradientUnits="userSpaceOnUse">
            <stop stop-color="#76AD7E" />
            <stop offset="0.3" stop-color="#96D99D" />
            <stop offset="0.65" stop-color="#BEECD0" />
            <stop offset="1" stop-color="#E9FFFF" />
        </linearGradient>
        <linearGradient id="paint49_linear_61_9611" x1="580.751" y1="226.159" x2="566.489" y2="202.18"
            gradientUnits="userSpaceOnUse">
            <stop stop-color="#76AD7E" />
            <stop offset="0.3" stop-color="#96D99D" />
            <stop offset="0.65" stop-color="#BEECD0" />
            <stop offset="1" stop-color="#E9FFFF" />
        </linearGradient>
        <linearGradient id="paint50_linear_61_9611" x1="518.173" y1="214.555" x2="518.173" y2="177.261"
            gradientUnits="userSpaceOnUse">
            <stop stop-color="#095729" />
            <stop offset="0.18" stop-color="#095729" />
            <stop offset="0.39" stop-color="#1F9941" />
            <stop offset="0.61" stop-color="#96D99D" />
            <stop offset="0.85" stop-color="#BEECD0" />
            <stop offset="1" stop-color="#EFFFF6" />
        </linearGradient>
        <linearGradient id="paint51_linear_61_9611" x1="520.346" y1="185.705" x2="549.049" y2="185.705"
            gradientUnits="userSpaceOnUse">
            <stop stop-color="#095729" />
            <stop offset="0.18" stop-color="#0F6723" />
            <stop offset="0.39" stop-color="#2F7729" />
            <stop offset="0.61" stop-color="#1F9941" />
            <stop offset="0.85" stop-color="#96D99D" />
            <stop offset="1" stop-color="#BEECD0" />
        </linearGradient>
        <linearGradient id="paint52_linear_61_9611" x1="527.799" y1="190.175" x2="556.502" y2="190.175"
            gradientUnits="userSpaceOnUse">
            <stop stop-color="#095729" />
            <stop offset="0.18" stop-color="#095729" />
            <stop offset="0.39" stop-color="#30A842" />
            <stop offset="0.61" stop-color="#30A842" />
            <stop offset="0.85" stop-color="#96D99D" />
            <stop offset="1" stop-color="#BEECD0" />
        </linearGradient>
        <linearGradient id="paint53_linear_61_9611" x1="535.252" y1="194.622" x2="563.955" y2="194.622"
            gradientUnits="userSpaceOnUse">
            <stop stop-color="#095729" />
            <stop offset="0.18" stop-color="#0F6723" />
            <stop offset="0.39" stop-color="#2F7729" />
            <stop offset="0.61" stop-color="#1F9941" />
            <stop offset="0.85" stop-color="#96D99D" />
            <stop offset="1" stop-color="#BEECD0" />
        </linearGradient>
        <linearGradient id="paint54_linear_61_9611" x1="542.703" y1="199.069" x2="571.407" y2="199.069"
            gradientUnits="userSpaceOnUse">
            <stop stop-color="#095729" />
            <stop offset="0.18" stop-color="#0F6723" />
            <stop offset="0.39" stop-color="#2F7729" />
            <stop offset="0.61" stop-color="#1F9941" />
            <stop offset="0.85" stop-color="#96D99D" />
            <stop offset="1" stop-color="#BEECD0" />
        </linearGradient>
        <linearGradient id="paint55_linear_61_9611" x1="535.512" y1="250.495" x2="542.856" y2="250.495"
            gradientUnits="userSpaceOnUse">
            <stop stop-color="#96D99D" />
            <stop offset="0.3" stop-color="#BEECD0" />
            <stop offset="0.65" stop-color="#E5FFD6" />
            <stop offset="1" stop-color="#F0FFE9" />
        </linearGradient>
        <linearGradient id="paint56_linear_61_9611" x1="534.6" y1="251.263" x2="540.684" y2="251.263"
            gradientUnits="userSpaceOnUse">
            <stop stop-color="#073245" />
            <stop offset="0.18" stop-color="#095729" />
            <stop offset="0.39" stop-color="#30A842" />
            <stop offset="0.61" stop-color="#30A842" />
            <stop offset="0.85" stop-color="#96D99D" />
            <stop offset="1" stop-color="#BEECD0" />
        </linearGradient>
        <linearGradient id="paint57_linear_61_9611" x1="471.434" y1="209.589" x2="478.778" y2="209.589"
            gradientUnits="userSpaceOnUse">
            <stop stop-color="#76AD7E" />
            <stop offset="0.3" stop-color="#96D99D" />
            <stop offset="0.65" stop-color="#BEECD0" />
            <stop offset="1" stop-color="#E9FFFF" />
        </linearGradient>
        <linearGradient id="paint58_linear_61_9611" x1="470.521" y1="210.357" x2="476.605" y2="210.357"
            gradientUnits="userSpaceOnUse">
            <stop stop-color="#095729" />
            <stop offset="0.18" stop-color="#095729" />
            <stop offset="0.39" stop-color="#76AD7E" />
            <stop offset="0.61" stop-color="#76AD7E" />
            <stop offset="0.85" stop-color="#96D99D" />
            <stop offset="1" stop-color="#BEECD0" />
        </linearGradient>
        <linearGradient id="paint59_linear_61_9611" x1="535.512" y1="408.046" x2="542.856" y2="408.046"
            gradientUnits="userSpaceOnUse">
            <stop stop-color="#96D99D" />
            <stop offset="0.3" stop-color="#BEECD0" />
            <stop offset="0.65" stop-color="#E5FFD6" />
            <stop offset="1" stop-color="#F0FFE9" />
        </linearGradient>
        <linearGradient id="paint60_linear_61_9611" x1="534.6" y1="408.813" x2="540.684" y2="408.813"
            gradientUnits="userSpaceOnUse">
            <stop stop-color="#24635A" />
            <stop offset="0.18" stop-color="#095729" />
            <stop offset="0.39" stop-color="#30A842" />
            <stop offset="0.61" stop-color="#30A842" />
            <stop offset="0.85" stop-color="#96D99D" />
            <stop offset="1" stop-color="#BEECD0" />
        </linearGradient>
        <linearGradient id="paint61_linear_61_9611" x1="471.434" y1="367.141" x2="478.778" y2="367.141"
            gradientUnits="userSpaceOnUse">
            <stop stop-color="#96D99D" />
            <stop offset="0.3" stop-color="#BEECD0" />
            <stop offset="0.65" stop-color="#E5FFD6" />
            <stop offset="1" stop-color="#F0FFE9" />
        </linearGradient>
        <linearGradient id="paint62_linear_61_9611" x1="470.521" y1="367.908" x2="476.605" y2="367.908"
            gradientUnits="userSpaceOnUse">
            <stop stop-color="#095729" />
            <stop offset="0.18" stop-color="#095729" />
            <stop offset="0.39" stop-color="#76AD7E" />
            <stop offset="0.61" stop-color="#76AD7E" />
            <stop offset="0.85" stop-color="#96D99D" />
            <stop offset="1" stop-color="#BEECD0" />
        </linearGradient>
        <linearGradient id="paint63_linear_61_9611" x1="876.695" y1="421.253" x2="719.682" y2="542.446"
            gradientUnits="userSpaceOnUse">
            <stop stop-color="#BEECD0" />
            <stop offset="0.15" stop-color="#96D99D" />
            <stop offset="0.39" stop-color="#1F9941" />
            <stop offset="0.61" stop-color="#0F6723" />
            <stop offset="0.82" stop-color="#246659" />
            <stop offset="1" stop-color="#073245" />
        </linearGradient>
        <linearGradient id="paint64_linear_61_9611" x1="908.223" y1="463.182" x2="693.872" y2="399.581"
            gradientUnits="userSpaceOnUse">
            <stop stop-color="#76AD7E" />
            <stop offset="0.3" stop-color="#96D99D" />
            <stop offset="0.65" stop-color="#BEECD0" />
            <stop offset="1" stop-color="#E9FFFF" />
        </linearGradient>
        <linearGradient id="paint65_linear_61_9611" x1="908.223" y1="463.182" x2="693.872" y2="399.581"
            gradientUnits="userSpaceOnUse">
            <stop stop-color="#76AD7E" />
            <stop offset="0.3" stop-color="#96D99D" />
            <stop offset="0.65" stop-color="#BEECD0" />
            <stop offset="1" stop-color="#E9FFFF" />
        </linearGradient>
        <linearGradient id="paint66_linear_61_9611" x1="876.695" y1="379.579" x2="719.682" y2="500.773"
            gradientUnits="userSpaceOnUse">
            <stop stop-color="#BEECD0" />
            <stop offset="0.15" stop-color="#96D99D" />
            <stop offset="0.39" stop-color="#1F9941" />
            <stop offset="0.61" stop-color="#0F6723" />
            <stop offset="0.82" stop-color="#24635A" />
            <stop offset="1" stop-color="#073245" />
        </linearGradient>
        <linearGradient id="paint67_linear_61_9611" x1="908.071" y1="421.408" x2="693.714" y2="357.779"
            gradientUnits="userSpaceOnUse">
            <stop stop-color="#76AD7E" />
            <stop offset="0.3" stop-color="#96D99D" />
            <stop offset="0.65" stop-color="#BEECD0" />
            <stop offset="1" stop-color="#E9FFFF" />
        </linearGradient>
    </defs>
</svg>