<svg width="1920" height="1000" viewBox="0 0 1920 1000" fill="none" xmlns="http://www.w3.org/2000/svg">
<g clip-path="url(#clip0_153_4042)">
<g opacity="0.41">
<path d="M749.287 878.217L863.177 911.53L1122.61 651.119C1120.65 648.338 1120.82 644.415 1123.26 641.966C1126.02 639.191 1130.58 639.196 1133.34 641.978C1136.11 644.76 1136.11 649.336 1133.34 652.112C1130.9 654.561 1127 654.72 1124.23 652.755L863.991 914.146L750.101 880.834L541.907 1089.65C543.86 1092.43 543.698 1096.36 541.258 1098.8C538.493 1101.58 533.938 1101.58 531.171 1098.79C528.405 1096.01 528.404 1091.43 531.169 1088.66C533.609 1086.21 537.513 1086.05 540.279 1088.02L749.287 878.217Z" fill="url(#paint0_linear_153_4042)"/>
<path d="M826.224 713.9L678.69 861.994C680.643 864.775 680.481 868.698 678.041 871.147C675.276 873.923 670.72 873.918 667.954 871.136C665.187 868.354 665.186 863.776 667.951 861.001C670.391 858.552 674.296 858.393 677.062 860.357L821.832 715.039L737.548 691.893L974.872 453.668L975.197 453.342L1072.17 463.915L1159.84 375.908C1157.89 373.127 1158.05 369.204 1160.49 366.754C1163.26 363.979 1167.81 363.984 1170.58 366.766C1173.35 369.548 1173.35 374.125 1170.58 376.901C1168.14 379.35 1164.24 379.509 1161.47 377.545L1073.31 466.042L1072.98 466.368L976.011 455.795L741.941 690.753L826.224 713.9Z" fill="url(#paint1_linear_153_4042)"/>
<path d="M1157.57 180.953L1157.08 181.443L975.362 150.507L734.971 391.803L734.483 392.292L581.718 361.88L961.334 -19.1644C959.381 -21.9452 959.543 -25.8676 961.983 -28.3165C964.748 -31.0919 969.303 -31.0866 972.069 -28.3049C974.835 -25.5232 974.836 -20.9468 972.071 -18.1714C969.632 -15.7226 965.727 -15.5636 962.961 -17.5281L586.273 360.578L733.507 389.84L973.897 148.544L974.385 148.054L1156.43 178.827L1540.77 -206.952C1538.81 -209.733 1538.97 -213.655 1541.41 -216.104C1544.18 -218.879 1548.73 -218.874 1551.5 -216.092C1554.27 -213.311 1554.27 -208.734 1551.5 -205.959C1549.06 -203.51 1545.16 -203.351 1542.39 -205.316L1157.57 180.953Z" fill="url(#paint2_linear_153_4042)"/>
<path d="M1154.29 98.2867L1153.8 98.7764L1020.71 79.4981L1386.69 -287.865C1384.73 -290.646 1384.9 -294.569 1387.34 -297.018C1390.1 -299.794 1394.66 -299.788 1397.42 -297.006C1400.19 -294.224 1400.19 -289.647 1397.42 -286.872C1394.98 -284.423 1391.08 -284.264 1388.31 -286.228L1025.59 77.8691L1152.98 96.3235L1470.65 -222.547C1470.49 -222.711 1470.16 -222.712 1470 -223.039C1467.23 -225.821 1467.23 -230.397 1470 -233.173C1472.76 -235.949 1477.32 -235.944 1480.08 -233.161C1482.85 -230.379 1482.85 -225.803 1480.09 -223.027C1478.14 -221.068 1475.21 -220.581 1472.6 -221.401L1154.29 98.2867Z" fill="url(#paint3_linear_153_4042)"/>
<path d="M610.685 711.707L941.556 379.581L941.882 379.255L1065.54 386.917L1128.33 323.888L1126.2 237.408L985.613 214.523C985.287 215.34 984.799 216.157 983.986 216.973C981.221 219.749 976.665 219.744 973.898 216.962C971.132 214.179 971.13 209.602 973.896 206.826C976.661 204.05 981.217 204.055 983.984 206.838C985.448 208.311 986.1 210.437 985.938 212.398L1127.34 235.448L1128.31 235.612L1130.61 324.545L1130.61 325.035L1066.84 389.044L1066.52 389.371L942.858 381.708L615.078 710.568L716.776 740.274L510.022 947.812C511.976 950.593 511.814 954.516 509.374 956.966C506.608 959.741 502.053 959.736 499.286 956.954C496.519 954.172 496.518 949.594 499.284 946.819C501.724 944.369 505.629 944.21 508.395 946.175L712.384 741.413L610.685 711.707Z" fill="url(#paint4_linear_153_4042)"/>
<path d="M940.421 283.762L940.909 283.272L1044.04 299.893C1044.37 298.913 1044.86 297.933 1045.67 297.117C1048.43 294.342 1052.99 294.347 1055.75 297.128C1058.52 299.909 1058.52 304.485 1055.76 307.26C1052.99 310.035 1048.44 310.029 1045.67 307.248C1044.21 305.776 1043.56 303.978 1043.56 302.18L941.723 285.724L725.092 503.15L491.819 464.486C491.494 465.793 491.006 467.1 490.031 468.243C487.266 471.018 482.711 471.013 479.945 468.232C477.179 465.451 477.179 460.875 479.943 458.1C482.708 455.325 487.263 455.33 490.029 458.111C491.168 459.256 491.819 460.728 491.982 462.199L724.116 500.698L940.421 283.762Z" fill="url(#paint5_linear_153_4042)"/>
<path d="M261.066 745.841L367.303 753.646L511.901 608.501C509.461 605.719 509.459 601.47 512.225 598.694C514.99 595.918 519.545 595.924 522.311 598.706C525.078 601.488 525.079 606.064 522.314 608.84C520.037 611.126 516.457 611.448 513.691 609.811L368.117 755.935L261.88 748.131L29.612 981.277C31.5649 984.058 31.4031 987.981 28.9633 990.43C26.1982 993.206 21.643 993.2 18.8766 990.418C16.1103 987.636 16.1093 983.06 18.8744 980.284C21.3141 977.835 25.2186 977.676 27.9848 979.641L261.066 745.841Z" fill="url(#paint6_linear_153_4042)"/>
<path d="M1206.02 -500.18L1355.56 -349.805L1033.52 -26.5559C1035.47 -23.7751 1035.31 -19.8527 1032.87 -17.4038C1030.11 -14.6285 1025.55 -14.6337 1022.78 -17.4154C1020.02 -20.1971 1020.02 -24.7734 1022.78 -27.5488C1025.22 -29.9976 1029.13 -30.1566 1031.89 -28.1922L1352.3 -349.808L1206.18 -496.748L847.551 -136.766L847.063 -136.276L664.2 -177.183L415.027 72.7629C416.98 75.5437 416.818 79.4663 414.379 81.9152C411.614 84.6905 407.059 84.6853 404.292 81.9036C401.526 79.1219 401.525 74.5454 404.29 71.77C406.73 69.3212 410.634 69.1622 413.4 71.1266L662.898 -179.309L663.386 -179.799L846.086 -139.056L1206.02 -500.18Z" fill="url(#paint7_linear_153_4042)"/>
<path d="M862.66 -56.2133L1209.45 -404.321L1265.43 -348.024C1268.2 -349.982 1272.1 -349.814 1274.54 -347.36C1277.31 -344.578 1277.31 -340.001 1274.55 -337.225C1271.78 -334.449 1267.23 -334.454 1264.46 -337.237C1262.02 -339.691 1261.85 -343.615 1263.81 -346.391L1209.45 -401.051L863.474 -53.7603L674.573 -95.3352L465.554 114.313L659.828 172.24L406.729 426.463L405.101 424.827L655.436 173.543L461.162 115.616L673.759 -97.7881L862.66 -56.2133Z" fill="url(#paint8_linear_153_4042)"/>
<path d="M695.499 114.944L565.835 83.2504L672.205 -23.5201C670.252 -26.3009 670.414 -30.2233 672.854 -32.6722C675.619 -35.4476 680.174 -35.4423 682.94 -32.6606C685.706 -29.8789 685.707 -25.3025 682.942 -22.5272C680.502 -20.0783 676.598 -19.9193 673.832 -21.8838L570.389 81.948L694.847 112.328L791.622 15.1895C789.669 12.4087 789.831 8.4863 792.27 6.03744C794.71 3.58857 798.614 3.42956 801.38 5.39406L801.543 5.23084L803.17 6.86715L803.008 7.03037C804.96 9.81115 804.798 13.7336 802.359 16.1824C799.919 18.6313 796.015 18.7903 793.249 16.8258L695.987 114.454L695.499 114.944Z" fill="url(#paint9_linear_153_4042)"/>
<path d="M386.359 501.186L280.752 465.263L518.58 226.535C516.626 223.753 516.788 219.83 519.228 217.381C521.994 214.605 526.55 214.61 529.316 217.392C532.083 220.175 532.084 224.752 529.319 227.528C526.878 229.977 522.973 230.136 520.207 228.171L284.982 464.451L390.589 500.374L-29.4326 921.986C-27.4794 924.768 -27.6411 928.691 -30.0812 931.14C-32.8466 933.916 -37.4026 933.911 -40.1693 931.129C-42.936 928.346 -42.9371 923.769 -40.1716 920.993C-37.7315 918.544 -33.8266 918.385 -31.0601 920.35L386.359 501.186Z" fill="url(#paint10_linear_153_4042)"/>
<path d="M268.472 540.793L83.9295 472.899L322.753 233.175C320.8 230.394 320.962 226.47 323.402 224.021C326.168 221.245 330.724 221.25 333.491 224.032C336.258 226.815 336.259 231.392 333.493 234.168C331.053 236.618 327.148 236.777 324.381 234.812L88.16 471.922L272.702 539.817L-68.6143 882.419C-66.6611 885.201 -66.823 889.124 -69.2633 891.573C-72.0289 894.35 -76.5851 894.344 -79.352 891.562C-82.1189 888.779 -82.1199 884.202 -79.3542 881.426C-76.9139 878.976 -73.0086 878.817 -70.2419 880.782L268.472 540.793Z" fill="url(#paint11_linear_153_4042)"/>
<path d="M-111.671 828.801C-109.718 831.582 -109.88 835.505 -112.32 837.954C-115.085 840.73 -119.641 840.724 -122.407 837.942C-125.173 835.16 -125.175 830.583 -122.409 827.808C-119.969 825.359 -116.065 825.2 -113.299 827.164L126.297 586.661L1.98371 525.382L-205.893 734.047C-204.266 736.828 -204.428 740.424 -206.867 742.873C-209.307 745.322 -212.887 745.482 -215.653 743.844L-215.815 744.007L-217.443 742.371L-217.28 742.207C-219.559 739.426 -219.559 735.176 -216.957 732.563C-214.354 729.951 -210.124 729.792 -207.358 732.248L1.00706 523.092L1.65773 522.439L130.364 585.848L-111.671 828.801Z" fill="url(#paint12_linear_153_4042)"/>
<path d="M9.65981 609.095C7.54409 606.313 7.70593 602.227 10.1459 599.777C12.9111 597.002 17.4666 597.007 20.2332 599.789C22.9997 602.571 23.0007 607.148 20.2355 609.924C17.7955 612.373 14.0535 612.532 11.2872 610.731L-158.857 781.521C-156.904 784.302 -157.066 788.226 -159.506 790.675C-161.946 793.124 -165.851 793.283 -168.617 791.318L-168.78 791.481L-169.593 790.663L-170.407 789.845L-170.245 789.681C-172.198 786.9 -172.036 782.977 -169.596 780.528C-167.156 778.079 -163.251 777.92 -160.485 779.885L9.65981 609.095Z" fill="url(#paint13_linear_153_4042)"/>
<path d="M848.783 789.941C846.017 792.717 841.462 792.712 838.695 789.93C835.928 787.148 835.927 782.57 838.693 779.794C841.133 777.345 845.038 777.186 847.804 779.151L1220.16 405.216L1213.61 214.267L1213.61 213.777L1586.62 -160.648C1583.85 -163.43 1583.85 -168.008 1586.62 -170.784C1589.38 -173.56 1593.94 -173.554 1596.71 -170.772C1599.47 -167.99 1599.47 -163.412 1596.71 -160.637C1594.43 -158.35 1591.18 -158.027 1588.57 -159.338L1216.05 214.597L1222.6 405.545L1222.6 406.036L849.432 780.624C851.385 783.405 851.223 787.329 848.783 789.941Z" fill="url(#paint14_linear_153_4042)"/>
<path d="M258.629 835.754C255.863 832.973 255.863 828.399 258.627 825.625C261.392 822.851 265.946 822.856 268.712 825.636C270.013 826.944 270.664 828.578 270.664 830.212L462.595 849.691C462.92 848.548 463.408 847.568 464.221 846.752C466.986 843.978 471.54 843.983 474.305 846.763C477.071 849.543 477.071 854.117 474.307 856.892C471.542 859.666 466.988 859.661 464.222 856.881C462.921 855.573 462.27 853.775 462.107 851.978L270.339 832.499C270.014 833.642 269.526 834.785 268.55 835.764C265.948 838.538 261.557 838.534 258.629 835.754Z" fill="url(#paint15_linear_153_4042)"/>
<path d="M107.02 1058.84L254.065 911.234L254.39 910.907L446.053 936.466L600.742 781.189L475.947 750.314L655.198 570.383L467.602 542.051L339.588 670.549C341.541 673.331 341.38 677.254 338.94 679.703C336.175 682.478 331.619 682.473 328.853 679.691C326.086 676.909 326.085 672.332 328.85 669.556C331.29 667.107 335.195 666.948 337.961 668.913L466.462 539.924L466.95 539.434L660.241 568.754L480.502 749.175L605.298 780.05L447.355 938.592L447.03 938.919L255.367 913.36L108.322 1060.96C109.462 1063.58 108.974 1066.68 106.86 1068.81C104.095 1071.58 99.5392 1071.58 96.7727 1068.8C94.0062 1066.01 94.0051 1061.44 96.7704 1058.66C99.5356 1055.89 104.091 1055.89 106.858 1058.67L107.02 1058.84Z" fill="url(#paint16_linear_153_4042)"/>
<path d="M79.2281 192.157C76.7883 194.606 72.8837 194.765 70.1174 192.801L-95.9559 359.504L-45.0065 474.476L220.939 207.523C218.986 204.742 219.148 200.819 221.587 198.37C224.353 195.594 228.908 195.599 231.674 198.382C234.441 201.164 234.442 205.74 231.677 208.516C229.237 210.965 225.332 211.124 222.566 209.159L-45.819 478.562L-98.8846 359.01L68.3274 191.164C66.3745 188.383 66.5361 184.46 68.976 182.011C71.7411 179.235 76.2967 179.241 79.0632 182.023C81.9923 184.805 81.9933 189.382 79.2281 192.157Z" fill="url(#paint17_linear_153_4042)"/>
<path d="M-24.5193 379.839C-27.2845 382.615 -31.84 382.61 -34.6065 379.828C-37.373 377.045 -37.3741 372.468 -34.6088 369.693C-32.1689 367.244 -28.2642 367.085 -25.4979 369.049L151.966 190.912C150.501 188.131 150.663 184.699 153.103 182.413C155.869 179.637 160.424 179.642 163.191 182.424C165.957 185.207 165.958 189.784 163.193 192.56C160.428 195.335 156.198 195.33 153.431 192.712L-23.8705 370.686C-21.7548 373.467 -21.9166 377.39 -24.5193 379.839Z" fill="url(#paint18_linear_153_4042)"/>
<path d="M210.829 436.369C208.064 439.145 203.509 439.14 200.742 436.358C197.976 433.576 197.974 428.999 200.74 426.223C203.505 423.447 208.061 423.452 210.827 426.235C213.594 428.853 213.595 433.43 210.829 436.369Z" fill="url(#paint19_linear_153_4042)"/>
<path d="M896.671 118.663C899.436 115.888 903.992 115.893 906.759 118.675C909.525 121.457 909.526 126.034 906.761 128.81C904.321 131.259 900.416 131.418 897.65 129.453L719.209 308.734C721.162 311.515 721.001 315.438 718.561 317.887C715.795 320.663 711.24 320.658 708.473 317.876C705.707 315.094 705.706 310.517 708.471 307.741C710.911 305.292 714.816 305.133 717.582 307.098L896.023 127.98C894.07 125.035 894.231 121.276 896.671 118.663Z" fill="url(#paint20_linear_153_4042)"/>
<path d="M1407.52 -225.573C1405.08 -223.124 1401.18 -222.965 1398.41 -224.929L1149.86 24.5612C1151.81 27.3424 1151.65 31.2655 1149.21 33.7147C1146.45 36.4905 1141.89 36.4852 1139.13 33.7031C1136.36 30.9209 1136.36 26.3437 1139.12 23.568C1141.56 21.1188 1145.47 20.9598 1148.23 22.9246L1396.78 -226.566C1394.83 -229.347 1394.99 -233.27 1397.43 -235.719C1400.2 -238.495 1404.75 -238.49 1407.52 -235.708C1410.28 -232.926 1410.29 -228.349 1407.52 -225.573Z" fill="url(#paint21_linear_153_4042)"/>
<path d="M871.283 646.423C868.517 649.199 863.962 649.193 861.195 646.411C858.429 643.629 858.428 639.052 861.193 636.276C863.633 633.827 867.538 633.668 870.304 635.633L979.287 526.237C977.334 523.456 977.495 519.533 979.935 517.084C982.701 514.308 987.256 514.313 990.023 517.095C992.789 519.877 992.79 524.454 990.025 527.23C987.585 529.679 983.68 529.838 980.914 527.873L871.931 637.269C873.884 640.051 873.722 643.974 871.283 646.423Z" fill="url(#paint22_linear_153_4042)"/>
</g>
</g>
<defs>
<linearGradient id="paint0_linear_153_4042" x1="1441.49" y1="262.003" x2="522.458" y2="1171.25" gradientUnits="userSpaceOnUse">
<stop stop-color="#BEECD0"/>
<stop offset="0.1504" stop-color="#96D99D"/>
<stop offset="0.3554" stop-color="#30A842"/>
<stop offset="0.524" stop-color="#0084D6"/>
<stop offset="0.6754" stop-color="#0084D6"/>
<stop offset="0.8554" stop-color="#00E4E7"/>
<stop offset="1" stop-color="#D7FFFF"/>
</linearGradient>
<linearGradient id="paint1_linear_153_4042" x1="1335.22" y1="154.365" x2="416.127" y2="1063.67" gradientUnits="userSpaceOnUse">
<stop stop-color="#BEECD0"/>
<stop offset="0.1504" stop-color="#96D99D"/>
<stop offset="0.3554" stop-color="#30A842"/>
<stop offset="0.524" stop-color="#0084D6"/>
<stop offset="0.6754" stop-color="#0084D6"/>
<stop offset="0.8554" stop-color="#00E4E7"/>
<stop offset="1" stop-color="#D7FFFF"/>
</linearGradient>
<linearGradient id="paint2_linear_153_4042" x1="1161.23" y1="-21.7867" x2="242.251" y2="887.432" gradientUnits="userSpaceOnUse">
<stop stop-color="#BEECD0"/>
<stop offset="0.1504" stop-color="#96D99D"/>
<stop offset="0.3554" stop-color="#30A842"/>
<stop offset="0.524" stop-color="#0084D6"/>
<stop offset="0.6754" stop-color="#0084D6"/>
<stop offset="0.8554" stop-color="#00E4E7"/>
<stop offset="1" stop-color="#D7FFFF"/>
</linearGradient>
<linearGradient id="paint3_linear_153_4042" x1="1178.15" y1="-4.80567" x2="259.091" y2="904.467" gradientUnits="userSpaceOnUse">
<stop stop-color="#BEECD0"/>
<stop offset="0.1504" stop-color="#96D99D"/>
<stop offset="0.3554" stop-color="#30A842"/>
<stop offset="0.524" stop-color="#0084D6"/>
<stop offset="0.6754" stop-color="#0084D6"/>
<stop offset="0.8554" stop-color="#00E4E7"/>
<stop offset="1" stop-color="#D7FFFF"/>
</linearGradient>
<linearGradient id="paint4_linear_153_4042" x1="1253" y1="71.1722" x2="333.858" y2="980.525" gradientUnits="userSpaceOnUse">
<stop stop-color="#BEECD0"/>
<stop offset="0.1504" stop-color="#96D99D"/>
<stop offset="0.3554" stop-color="#30A842"/>
<stop offset="0.524" stop-color="#0084D6"/>
<stop offset="0.6754" stop-color="#0084D6"/>
<stop offset="0.8554" stop-color="#00E4E7"/>
<stop offset="1" stop-color="#D7FFFF"/>
</linearGradient>
<linearGradient id="paint5_linear_153_4042" x1="1166.85" y1="-15.8052" x2="248.008" y2="893.357" gradientUnits="userSpaceOnUse">
<stop stop-color="#BEECD0"/>
<stop offset="0.1504" stop-color="#96D99D"/>
<stop offset="0.3554" stop-color="#30A842"/>
<stop offset="0.524" stop-color="#0084D6"/>
<stop offset="0.6754" stop-color="#0084D6"/>
<stop offset="0.8554" stop-color="#00E4E7"/>
<stop offset="1" stop-color="#D7FFFF"/>
</linearGradient>
<linearGradient id="paint6_linear_153_4042" x1="1124.72" y1="-58.2793" x2="205.688" y2="850.975" gradientUnits="userSpaceOnUse">
<stop stop-color="#BEECD0"/>
<stop offset="0.1504" stop-color="#96D99D"/>
<stop offset="0.3554" stop-color="#30A842"/>
<stop offset="0.524" stop-color="#0084D6"/>
<stop offset="0.6754" stop-color="#0084D6"/>
<stop offset="0.8554" stop-color="#00E4E7"/>
<stop offset="1" stop-color="#D7FFFF"/>
</linearGradient>
<linearGradient id="paint7_linear_153_4042" x1="965.635" y1="-219.722" x2="46.6588" y2="689.495" gradientUnits="userSpaceOnUse">
<stop stop-color="#BEECD0"/>
<stop offset="0.1504" stop-color="#96D99D"/>
<stop offset="0.3554" stop-color="#30A842"/>
<stop offset="0.524" stop-color="#0084D6"/>
<stop offset="0.6754" stop-color="#0084D6"/>
<stop offset="0.8554" stop-color="#00E4E7"/>
<stop offset="1" stop-color="#D7FFFF"/>
</linearGradient>
<linearGradient id="paint8_linear_153_4042" x1="970.915" y1="-214.256" x2="51.8268" y2="695.043" gradientUnits="userSpaceOnUse">
<stop stop-color="#BEECD0"/>
<stop offset="0.1504" stop-color="#96D99D"/>
<stop offset="0.3554" stop-color="#30A842"/>
<stop offset="0.524" stop-color="#0084D6"/>
<stop offset="0.6754" stop-color="#0084D6"/>
<stop offset="0.8554" stop-color="#00E4E7"/>
<stop offset="1" stop-color="#D7FFFF"/>
</linearGradient>
<linearGradient id="paint9_linear_153_4042" x1="957.425" y1="-227.839" x2="38.4497" y2="681.375" gradientUnits="userSpaceOnUse">
<stop stop-color="#BEECD0"/>
<stop offset="0.1504" stop-color="#96D99D"/>
<stop offset="0.3554" stop-color="#30A842"/>
<stop offset="0.524" stop-color="#0084D6"/>
<stop offset="0.6754" stop-color="#0084D6"/>
<stop offset="0.8554" stop-color="#00E4E7"/>
<stop offset="1" stop-color="#D7FFFF"/>
</linearGradient>
<linearGradient id="paint10_linear_153_4042" x1="1002.28" y1="-182.389" x2="83.1289" y2="726.98" gradientUnits="userSpaceOnUse">
<stop stop-color="#BEECD0"/>
<stop offset="0.1504" stop-color="#96D99D"/>
<stop offset="0.3554" stop-color="#30A842"/>
<stop offset="0.524" stop-color="#0084D6"/>
<stop offset="0.6754" stop-color="#0084D6"/>
<stop offset="0.8554" stop-color="#00E4E7"/>
<stop offset="1" stop-color="#D7FFFF"/>
</linearGradient>
<linearGradient id="paint11_linear_153_4042" x1="935.684" y1="-249.864" x2="16.4728" y2="659.58" gradientUnits="userSpaceOnUse">
<stop stop-color="#BEECD0"/>
<stop offset="0.1504" stop-color="#96D99D"/>
<stop offset="0.3554" stop-color="#30A842"/>
<stop offset="0.524" stop-color="#0084D6"/>
<stop offset="0.6754" stop-color="#0084D6"/>
<stop offset="0.8554" stop-color="#00E4E7"/>
<stop offset="1" stop-color="#D7FFFF"/>
</linearGradient>
<linearGradient id="paint12_linear_153_4042" x1="903.791" y1="-281.775" x2="-15.281" y2="627.508" gradientUnits="userSpaceOnUse">
<stop stop-color="#BEECD0"/>
<stop offset="0.1504" stop-color="#96D99D"/>
<stop offset="0.3554" stop-color="#30A842"/>
<stop offset="0.524" stop-color="#0084D6"/>
<stop offset="0.6754" stop-color="#0084D6"/>
<stop offset="0.8554" stop-color="#00E4E7"/>
<stop offset="1" stop-color="#D7FFFF"/>
</linearGradient>
<linearGradient id="paint13_linear_153_4042" x1="903.697" y1="-281.919" x2="-15.4016" y2="627.388" gradientUnits="userSpaceOnUse">
<stop stop-color="#BEECD0"/>
<stop offset="0.1504" stop-color="#96D99D"/>
<stop offset="0.3554" stop-color="#30A842"/>
<stop offset="0.524" stop-color="#0084D6"/>
<stop offset="0.6754" stop-color="#0084D6"/>
<stop offset="0.8554" stop-color="#00E4E7"/>
<stop offset="1" stop-color="#D7FFFF"/>
</linearGradient>
<linearGradient id="paint14_linear_153_4042" x1="1354.1" y1="173.287" x2="434.945" y2="1082.66" gradientUnits="userSpaceOnUse">
<stop stop-color="#BEECD0"/>
<stop offset="0.1504" stop-color="#96D99D"/>
<stop offset="0.3554" stop-color="#30A842"/>
<stop offset="0.524" stop-color="#0084D6"/>
<stop offset="0.6754" stop-color="#0084D6"/>
<stop offset="0.8554" stop-color="#00E4E7"/>
<stop offset="1" stop-color="#D7FFFF"/>
</linearGradient>
<linearGradient id="paint15_linear_153_4042" x1="1195.47" y1="13.7886" x2="276.879" y2="922.917" gradientUnits="userSpaceOnUse">
<stop offset="0.0001" stop-color="#BEECD0"/>
<stop offset="0.1504" stop-color="#96D99D"/>
<stop offset="0.3554" stop-color="#30A842"/>
<stop offset="0.524" stop-color="#0084D6"/>
<stop offset="0.6754" stop-color="#0084D6"/>
<stop offset="0.8554" stop-color="#00E4E7"/>
<stop offset="1" stop-color="#D7FFFF"/>
</linearGradient>
<linearGradient id="paint16_linear_153_4042" x1="1187.7" y1="5.30834" x2="268.616" y2="914.603" gradientUnits="userSpaceOnUse">
<stop stop-color="#BEECD0"/>
<stop offset="0.1504" stop-color="#96D99D"/>
<stop offset="0.3554" stop-color="#30A842"/>
<stop offset="0.524" stop-color="#0084D6"/>
<stop offset="0.6754" stop-color="#0084D6"/>
<stop offset="0.8554" stop-color="#00E4E7"/>
<stop offset="1" stop-color="#D7FFFF"/>
</linearGradient>
<linearGradient id="paint17_linear_153_4042" x1="766.875" y1="-420.382" x2="-152.195" y2="488.899" gradientUnits="userSpaceOnUse">
<stop stop-color="#BEECD0"/>
<stop offset="0.1504" stop-color="#96D99D"/>
<stop offset="0.3554" stop-color="#30A842"/>
<stop offset="0.524" stop-color="#0084D6"/>
<stop offset="0.6754" stop-color="#0084D6"/>
<stop offset="0.8554" stop-color="#00E4E7"/>
<stop offset="1" stop-color="#D7FFFF"/>
</linearGradient>
<linearGradient id="paint18_linear_153_4042" x1="766.849" y1="-420.476" x2="-152.248" y2="488.83" gradientUnits="userSpaceOnUse">
<stop stop-color="#BEECD0"/>
<stop offset="0.1503" stop-color="#96D99D"/>
<stop offset="0.3554" stop-color="#30A842"/>
<stop offset="0.524" stop-color="#0084D6"/>
<stop offset="0.6754" stop-color="#0084D6"/>
<stop offset="0.8554" stop-color="#00E4E7"/>
<stop offset="1" stop-color="#D7FFFF"/>
</linearGradient>
<linearGradient id="paint19_linear_153_4042" x1="911.765" y1="-273.877" x2="-7.32462" y2="635.428" gradientUnits="userSpaceOnUse">
<stop stop-color="#BEECD0"/>
<stop offset="0.1504" stop-color="#96D99D"/>
<stop offset="0.3554" stop-color="#30A842"/>
<stop offset="0.524" stop-color="#0084D6"/>
<stop offset="0.6754" stop-color="#0084D6"/>
<stop offset="0.8554" stop-color="#00E4E7"/>
<stop offset="1" stop-color="#D7FFFF"/>
</linearGradient>
<linearGradient id="paint20_linear_153_4042" x1="1104.96" y1="-78.641" x2="185.867" y2="830.667" gradientUnits="userSpaceOnUse">
<stop stop-color="#BEECD0"/>
<stop offset="0.1504" stop-color="#96D99D"/>
<stop offset="0.3554" stop-color="#30A842"/>
<stop offset="0.524" stop-color="#0084D6"/>
<stop offset="0.6754" stop-color="#0084D6"/>
<stop offset="0.8554" stop-color="#00E4E7"/>
<stop offset="1" stop-color="#D7FFFF"/>
</linearGradient>
<linearGradient id="paint21_linear_153_4042" x1="1177.59" y1="-5.36352" x2="258.488" y2="903.944" gradientUnits="userSpaceOnUse">
<stop stop-color="#BEECD0"/>
<stop offset="0.1504" stop-color="#96D99D"/>
<stop offset="0.3554" stop-color="#30A842"/>
<stop offset="0.524" stop-color="#0084D6"/>
<stop offset="0.6754" stop-color="#0084D6"/>
<stop offset="0.8554" stop-color="#00E4E7"/>
<stop offset="1" stop-color="#D7FFFF"/>
</linearGradient>
<linearGradient id="paint22_linear_153_4042" x1="1344.35" y1="163.572" x2="425.258" y2="1072.87" gradientUnits="userSpaceOnUse">
<stop stop-color="#BEECD0"/>
<stop offset="0.1504" stop-color="#96D99D"/>
<stop offset="0.3554" stop-color="#30A842"/>
<stop offset="0.524" stop-color="#0084D6"/>
<stop offset="0.6754" stop-color="#0084D6"/>
<stop offset="0.8554" stop-color="#00E4E7"/>
<stop offset="1" stop-color="#D7FFFF"/>
</linearGradient>
<clipPath id="clip0_153_4042">
<rect width="1920" height="1000" fill="white"/>
</clipPath>
</defs>
</svg>
