<svg width="135" height="132" viewBox="0 0 135 132" fill="none" xmlns="http://www.w3.org/2000/svg">
<g clip-path="url(#clip0_150_4034)">
<rect width="135" height="132" fill="#0E0E0E"/>
<path d="M111.248 19.4695C95.6556 5.20954 81.8549 -0.881879 60.77 0.102307C44.1142 0.879757 33.2581 4.25389 20.9401 15.517C9.58953 25.8956 5.47907 35.2111 2.40536 50.299C0.248681 60.8854 2.67615 67.165 2.40536 77.9664C2.06438 91.5672 -1.14374 104.843 0.433577 112.748C1.99237 120.561 5.94157 124.52 12.2643 129.349C20.5454 135.673 63.6973 130.638 90.3467 114.725C112.445 101.529 133.465 91.8496 134.909 66.1089C136.054 45.708 126.307 33.2426 111.248 19.4695Z" fill="white"/>
</g>
<defs>
<clipPath id="clip0_150_4034">
<rect width="135" height="132" fill="white"/>
</clipPath>
</defs>
</svg>
