<svg width="1331" height="798" viewBox="0 0 1331 798" fill="none" xmlns="http://www.w3.org/2000/svg">
<g clip-path="url(#clip0_61_8900)">
<path opacity="0.8" d="M1294.2 0.836367C1291.54 -0.712383 1286.89 -0.712383 1284.23 0.836367C1282.23 1.94262 1281.57 3.71262 1282.68 5.26137L1128.62 93.9826V206.156L1091.16 227.839V349.748L962.59 423.866L942.64 412.361L1041.72 355.279V288.461L1041.28 288.24L928.453 223.193V200.625L992.293 163.898C994.953 165.004 998.943 165.004 1001.38 163.455C1004.04 161.906 1004.04 159.251 1001.38 157.703C998.722 156.154 994.067 156.154 991.407 157.703C988.968 159.03 988.747 161.243 990.742 163.013L926.902 199.74V224.299L927.345 224.52L1040.17 289.568V354.615L965.028 397.538V369.66L999.387 349.969C1002.05 351.075 1006.04 351.075 1008.47 349.526C1011.13 347.978 1011.13 345.323 1008.47 343.774C1005.81 342.225 1001.16 342.225 998.5 343.774C996.062 345.101 995.84 347.314 997.835 349.084L963.477 368.775V398.423L940.867 411.476L914.045 395.989V347.535L964.585 318.33V284.7L964.142 284.479L857.742 223.193C859.737 221.644 859.515 219.431 857.077 217.883C854.417 216.334 849.762 216.334 847.102 217.883C844.442 219.431 844.442 222.086 847.102 223.635C849.54 224.963 853.53 225.184 856.19 224.078L963.033 285.585V317.224L914.045 345.544V312.135L913.602 311.914L848.432 274.301C850.427 272.753 850.205 270.54 847.767 268.991C845.107 267.443 840.452 267.443 837.792 268.991C835.132 270.54 835.132 273.195 837.792 274.744C840.23 276.071 844.22 276.293 846.88 275.186L912.272 313.02V394.883L893.43 384.041L862.397 401.963L834.245 385.811V346.429L833.802 346.208L759.543 303.506V266.336C761.095 266.336 762.647 265.894 763.755 265.23C766.415 263.681 766.415 261.026 763.755 259.478C761.095 257.929 756.44 257.929 753.78 259.478C751.12 261.026 751.12 263.681 753.78 265.23C754.888 265.894 756.44 266.336 757.992 266.336V304.391L758.435 304.613L832.693 347.314V384.926L711.885 315.233V241.335L777.498 203.501H837.57H837.792L941.088 143.985C943.748 145.091 947.738 145.091 950.177 143.543C952.837 141.994 952.837 139.339 950.177 137.79C947.517 136.241 942.862 136.241 940.202 137.79C937.763 139.118 937.542 141.551 939.537 143.1L837.348 201.953H780.38L969.905 92.6551C972.565 93.7614 976.555 93.7614 978.993 92.2126C981.653 90.6639 981.653 88.0089 978.993 86.4601C976.333 84.9114 971.678 84.9114 969.018 86.4601C966.58 87.7876 966.358 90.2214 968.353 91.7701L710.333 240.671V316.339L710.777 316.56L860.845 403.069L830.698 420.548L574.452 272.753V184.695L574.008 184.474L486.893 134.25C488.888 132.701 488.667 130.489 486.228 128.94C483.568 127.391 478.913 127.391 476.253 128.94C473.593 130.489 473.593 133.144 476.253 134.693C478.692 136.02 482.682 136.241 485.342 135.135L572.9 185.58V273.638L573.343 273.859L829.368 421.433L800.552 438.026L546.965 292.001H395.788L301.358 237.574V153.941C302.245 153.72 303.353 153.499 304.018 153.056C306.678 151.508 306.678 148.853 304.018 147.304C301.358 145.755 296.703 145.755 294.043 147.304C291.383 148.853 291.383 151.508 294.043 153.056C295.595 153.941 297.59 154.384 299.585 154.163V238.459L300.028 238.68L395.345 293.55H546.522L760.43 416.786H717.427L644.498 374.749H588.195H587.973L509.947 419.663C507.287 418.556 503.297 418.556 500.858 420.105C498.198 421.654 498.198 424.309 500.858 425.858C503.518 427.406 508.173 427.406 510.833 425.858C513.272 424.53 513.493 422.096 511.498 420.548L588.638 376.076H644.055L716.983 418.114H763.09L798.778 438.69L722.082 482.94L700.137 470.329V437.363L644.72 405.503C646.715 403.954 646.493 401.741 644.055 400.193C641.395 398.644 636.74 398.644 634.08 400.193C631.42 401.741 631.42 404.396 634.08 405.945C636.518 407.273 640.508 407.494 643.168 406.388L698.585 438.248V469.444L639.4 435.593H611.47H611.248L577.777 454.841C575.117 453.735 571.127 453.735 568.688 455.284C566.028 456.833 566.028 459.488 568.688 461.036C571.348 462.585 576.003 462.585 578.663 461.036C581.102 459.709 581.323 457.275 579.328 455.726L611.692 437.141H638.957L720.308 484.046L705.457 492.675L752.672 519.889L730.505 532.721H697.033L673.093 519.004C675.088 517.455 674.645 515.243 672.207 513.915C669.547 512.366 664.892 512.366 662.232 513.915C659.572 515.464 659.572 518.119 662.232 519.668C664.67 521.216 668.66 521.216 671.32 520.11L696.368 534.491H727.402L671.098 567.015L538.542 490.684H443.225H443.003L389.36 521.659C386.7 520.553 382.71 520.553 380.272 522.101C377.612 523.65 377.612 526.305 380.272 527.854C382.932 529.403 387.587 529.403 390.247 527.854C392.685 526.526 392.907 524.093 390.912 522.544L443.668 492.233H538.32L640.508 551.085H596.84L554.28 525.863C556.275 524.314 556.053 522.101 553.615 520.553C550.955 519.004 546.3 519.004 543.64 520.553C540.98 522.101 540.98 524.756 543.64 526.305C546.078 527.633 550.068 527.854 552.728 526.748L596.618 551.97H643.612L669.99 567.236L602.603 605.955H387.365L220.45 509.933C222.445 508.384 222.223 506.171 219.785 504.623C217.125 503.074 212.47 503.074 209.81 504.623C207.15 506.171 207.15 508.826 209.81 510.375C212.248 511.703 216.238 511.924 218.898 510.818L387.143 607.725H599.943L573.343 623.213H413.965H413.743L335.273 668.569C332.613 667.463 328.623 667.463 326.185 669.011C323.525 670.56 323.525 673.215 326.185 674.764C328.845 676.313 333.5 676.313 336.16 674.764C338.598 673.436 338.82 671.003 336.825 669.454L414.408 624.761H573.787H574.008L754.445 520.774L774.395 532.279L584.648 641.576H445.885H445.663L278.083 738.263H45.7767L1 712.376V714.146L45.555 739.811H278.527H278.748L384.04 679.189V715.031L314.658 755.078C311.998 753.971 308.008 753.971 305.57 755.52C302.91 757.069 302.91 759.724 305.57 761.273C308.23 762.821 312.885 762.821 315.545 761.273C317.983 759.945 318.205 757.511 316.21 755.963L385.592 715.916V678.525H385.148L446.328 643.346H585.092H585.313L775.947 533.385L798.778 546.439L428.595 759.724V798.221H430.147V760.609L800.33 547.324L828.482 563.475L637.627 673.436V693.128L603.712 712.598V757.733L538.098 795.566C535.438 794.46 531.448 794.46 529.01 796.009C527.902 796.673 527.458 797.336 527.015 798H540.758C540.537 797.558 540.093 796.894 539.65 796.451L605.263 758.618V713.483L637.627 694.898V767.246L656.69 778.309L622.332 798H625.435L658.242 779.194L691.048 798H694.152L639.178 766.361V674.321L830.033 564.36L855.747 579.184L720.752 657.064C718.092 655.958 714.102 655.958 711.663 657.506C709.003 659.055 709.003 661.71 711.663 663.259C714.323 664.808 718.978 664.808 721.638 663.259C724.077 661.931 724.298 659.719 722.303 657.949L857.298 580.069L882.125 594.229L720.53 687.375H676.64C676.418 686.711 675.753 685.826 674.645 685.384C671.985 683.835 667.33 683.835 664.67 685.384C662.01 686.933 662.01 689.588 664.67 691.136C667.33 692.685 671.985 692.685 674.645 691.136C675.753 690.473 676.418 689.809 676.64 689.145H720.973H721.195L883.677 595.556L893.652 601.309L901.41 596.884L940.202 619.23V650.205L908.282 668.569H858.185H857.963L802.99 700.208C800.33 699.101 796.34 699.101 793.902 700.65C791.242 702.199 791.242 704.854 793.902 706.403C796.562 707.951 801.217 707.951 803.877 706.403C806.315 705.075 806.537 702.641 804.542 701.093L858.628 669.896H905.4L811.413 724.103C808.753 722.775 804.763 722.996 802.103 724.324C799.443 725.873 799.443 728.528 802.103 730.076C804.763 731.625 809.418 731.625 812.078 730.076C814.517 728.749 814.738 726.536 812.965 724.988L930.227 657.285V672.33L860.402 712.598V740.918L803.655 773.663C800.995 772.556 797.005 772.556 794.567 774.105C791.907 775.654 791.907 778.309 794.567 779.858C797.227 781.406 801.882 781.406 804.542 779.858C806.98 778.53 807.202 776.096 805.207 774.548L861.953 741.803V713.483L931.778 673.215V656.4L941.532 650.869V617.903L902.74 595.556L928.232 580.954L1007.81 626.974V679.189L953.723 710.385C951.063 709.058 947.073 709.279 944.413 710.606C941.753 712.155 941.753 714.81 944.413 716.359C947.073 717.908 951.728 717.908 954.388 716.359C956.827 715.031 957.048 712.819 955.275 711.27L1007.81 680.959V723.218L966.358 747.113V798.221H967.91V747.998L1007.81 724.988V798.221H1009.36V626.089L929.783 579.848L958.378 563.475L1062.56 623.434V766.361L1112.66 795.124V798H1114.21V794.239L1064.11 765.476V622.549L959.93 562.59L981.21 550.421L1121.75 631.399V753.308L1199.55 798H1202.65L1123.3 752.423V630.514L982.762 549.536L1017.12 529.845L1250.98 664.586V725.209L1331.22 771.45V769.68L1252.75 724.324V663.701L1121.3 587.813H1225.26L1331.22 648.878V647.108L1225.49 586.264H1118.2L1018.67 528.96L1058.57 505.95L1144.13 555.289H1281.57L1331 583.83V582.06L1320.14 575.865H1331V574.316H1317.48L1282.01 553.961H1144.58L1120.64 540.244H1179.16H1179.38L1208.64 523.429H1330.78L1331.22 523.65V521.88H1211.52L1244.55 502.853C1247.21 503.959 1251.2 503.959 1253.64 502.41C1256.3 500.861 1256.3 498.206 1253.64 496.658C1250.98 495.109 1246.32 495.109 1243.66 496.658C1241.22 497.985 1241 500.419 1243 501.968L1178.94 538.916H1118.2L1060.34 505.729L1081.62 493.339L1067.88 485.374H1107.78L1159.87 515.464C1157.88 517.013 1158.1 519.225 1160.54 520.774C1163.2 522.323 1167.85 522.323 1170.51 520.774C1173.17 519.225 1173.17 516.57 1170.51 515.021C1168.07 513.694 1164.08 513.473 1161.42 514.579L1108 483.825H1065L1035.74 467.01L1053.69 456.611H1085.61L1113.54 440.46H1134.38L1181.6 467.674C1179.38 469.223 1179.6 471.435 1182.26 472.984C1184.92 474.533 1189.58 474.533 1192.24 472.984C1194.9 471.435 1194.9 468.78 1192.24 467.231C1189.8 465.904 1186.03 465.683 1183.37 466.789L1135.05 438.911H1113.32L1085.39 455.063H1056.58L1113.99 421.875H1145.02L1209.75 459.045H1331.22V457.496H1210.19L1145.24 419.663H1113.32H1113.1L1033.97 465.24L1013.13 453.293L1102.46 401.741H1165.41L1217.51 431.61H1330.78V430.061H1217.95L1168.74 401.741H1330.78V400.193H1102.24H1102.02L1011.8 452.408L988.303 438.911L1112.88 367.005H1331V365.456H1172.06L1331 273.859V272.089L1168.96 365.456H1113.99L1232.14 297.311V282.266L1288.66 249.743C1291.32 250.849 1295.31 250.849 1297.75 249.3C1300.41 247.751 1300.41 245.096 1297.75 243.548C1295.09 241.999 1290.43 241.999 1287.77 243.548C1285.34 244.875 1285.11 247.088 1287.11 248.858L1256.3 266.558V225.405L1331 182.483V180.713L1254.75 224.52V267.443L1230.58 281.381V296.426L1111.55 365.014L1111.99 365.678L986.752 437.805L963.92 424.751L1092.49 350.633V228.724L1331 91.3276V89.5576L1130.17 205.271V95.0889L1284.01 6.58886L1284.23 6.81012C1286.89 8.35887 1291.54 8.35887 1294.2 6.81012C1296.86 5.04012 1296.86 2.38512 1294.2 0.836367ZM1078.3 492.454L893.652 598.875L709.003 492.454L893.652 386.033L1078.3 492.454Z" fill="url(#paint0_radial_61_8900)"/>
<path opacity="0.1" d="M1331 191.554L1298.19 210.581V271.646L1006.48 439.796L984.313 426.964L1134.82 340.234V324.746L1161.42 309.48V273.859L1213.07 243.99C1215.29 244.875 1218.17 244.875 1220.17 243.769C1222.38 242.441 1222.38 240.45 1220.17 239.344C1217.95 238.016 1214.4 238.016 1212.41 239.344C1210.41 240.45 1210.19 242.22 1211.74 243.548L1160.09 273.416V309.038L1134.6 323.64V266.558L1134.38 266.336L1119.75 257.929L1207.97 207.041V149.959L1270.71 113.895C1272.92 114.78 1275.8 114.78 1277.8 113.674C1280.02 112.346 1280.02 110.355 1277.8 109.249C1275.58 107.921 1272.04 107.921 1270.04 109.249C1268.05 110.355 1267.82 112.125 1269.38 113.453L1206.64 149.516V206.599L1118.42 257.486L975.003 174.075V110.134C976.111 110.134 977.441 109.691 978.328 109.249C980.544 107.921 980.544 105.93 978.328 104.824C976.111 103.496 972.564 103.496 970.569 104.824C968.353 106.151 968.353 108.143 970.569 109.249C971.456 109.691 972.564 110.134 973.894 110.134V174.739L974.116 174.96L1060.34 224.741H997.391L946.629 195.536C948.181 194.209 947.959 192.439 945.964 191.333C943.748 190.005 940.201 190.005 938.206 191.333C935.989 192.66 935.989 194.651 938.206 195.758C940.201 196.864 943.304 197.085 945.299 195.979L996.948 225.848H1062.34L1133.27 266.779V339.349L982.983 426.079L962.811 414.353L1069.21 353.066C1071.43 353.951 1074.31 353.951 1076.3 352.845C1078.52 351.518 1078.52 349.526 1076.3 348.42C1074.09 347.093 1070.54 347.093 1068.55 348.42C1066.55 349.526 1066.33 351.296 1067.88 352.624L961.481 413.91L941.974 402.626L1069.43 329.171H1104.01C1104.23 329.835 1104.68 330.278 1105.56 330.72C1107.78 332.048 1111.33 332.048 1113.32 330.72C1115.54 329.393 1115.54 327.401 1113.32 326.295C1111.11 324.968 1107.56 324.968 1105.56 326.295C1104.68 326.738 1104.23 327.401 1104.01 327.844H1068.99H1068.77L940.866 401.963L933.108 397.538L932.886 397.759L927.123 401.078L896.533 383.599V359.04L921.803 344.438H961.259L1004.93 319.436C1007.14 320.321 1010.03 320.321 1012.02 319.215C1014.24 317.888 1014.24 315.896 1012.02 314.79C1009.8 313.463 1006.26 313.463 1004.26 314.79C1002.27 315.896 1002.05 317.666 1003.6 318.994L960.816 343.11H923.576L997.613 300.409C999.829 301.294 1002.93 301.294 1004.93 300.188C1007.14 298.86 1007.14 296.869 1004.93 295.763C1002.71 294.435 999.164 294.435 997.169 295.763C995.174 296.869 994.953 298.639 996.504 299.745L904.069 353.066V341.34L959.043 309.701V287.355L1003.82 261.469C1006.04 262.354 1008.92 262.354 1010.91 261.247C1013.13 259.92 1013.13 257.929 1010.91 256.822C1008.7 255.495 1005.15 255.495 1003.15 256.822C1001.16 257.929 1000.94 259.699 1002.49 261.026L957.713 286.913V309.259L902.739 340.897V354.173L894.981 358.598V384.484L925.571 401.963L905.621 413.467L842.889 377.183V336.03L885.449 311.25C887.666 312.135 890.769 312.135 892.764 311.029C894.981 309.701 894.981 307.71 892.764 306.604C890.548 305.276 887.001 305.276 885.006 306.604C883.011 307.71 882.789 309.48 884.341 310.586L842.889 334.481V301.294L875.696 282.488V219.874C876.804 219.874 878.134 219.431 879.021 218.989C881.238 217.661 881.238 215.67 879.021 214.564C876.804 213.236 873.258 213.236 871.263 214.564C869.046 215.891 869.046 217.883 871.263 218.989C872.149 219.431 873.258 219.874 874.588 219.874V281.603L843.111 299.745V189.563H841.781V377.846L904.513 414.131L881.903 427.185L799.886 379.838V267.221L760.429 244.433V201.953L725.628 181.819C727.179 180.491 726.958 178.721 724.963 177.615C722.746 176.288 719.199 176.288 717.204 177.615C714.988 178.943 714.988 180.934 717.204 182.04C719.199 183.146 722.303 183.368 724.298 182.261L759.099 202.395V244.875L798.556 267.664V380.28L880.573 427.628L863.948 437.141L753.114 373.2V277.178L752.893 276.956L654.916 220.538C656.468 219.21 656.246 217.44 654.251 216.334C652.034 215.006 648.488 215.006 646.493 216.334C644.276 217.661 644.276 219.653 646.493 220.759C648.488 221.865 651.591 222.086 653.586 220.98L752.006 277.62V373.643L752.228 373.864L862.618 437.584L835.574 453.071L651.369 346.871V299.081L651.148 298.86L496.868 209.918C498.419 208.59 498.198 206.82 496.203 205.714C493.986 204.386 490.439 204.386 488.444 205.714C486.228 207.041 486.228 209.033 488.444 210.139C490.439 211.245 493.543 211.466 495.538 210.36L650.039 299.524V347.314L650.261 347.535L753.558 407.051H671.541L576.668 352.403C578.219 351.075 577.998 349.305 576.003 348.199C573.786 346.871 570.239 346.871 568.244 348.199C566.028 349.526 566.028 351.518 568.244 352.624C570.239 353.73 573.343 353.951 575.338 352.845L671.098 408.158H755.553L834.023 453.293L802.546 471.435L735.159 432.495H626.764L503.518 361.474H435.244L407.314 345.322C408.866 343.995 408.644 342.225 406.649 341.119C404.433 339.791 400.886 339.791 398.891 341.119C396.674 342.446 396.674 344.438 398.891 345.544C400.886 346.65 403.989 346.871 405.984 345.765L434.801 362.359H503.074L596.174 415.901H515.709L477.583 394.883C479.134 393.555 478.913 391.785 476.918 390.679C474.701 389.351 471.154 389.351 469.159 390.679C466.943 392.006 466.943 393.997 469.159 395.104C471.154 396.21 474.258 396.431 476.253 395.325L515.931 418.114H598.834L626.764 434.265H735.159L754.001 445.106H708.116H707.894L684.841 458.381H588.638L561.594 442.673H507.064C506.843 442.009 506.399 441.566 505.513 441.124C503.296 439.796 499.749 439.796 497.754 441.124C495.538 442.451 495.538 444.443 497.754 445.549C499.971 446.876 503.518 446.876 505.513 445.549C506.399 445.106 506.843 444.443 507.064 444H561.151L588.194 459.709H682.624L656.689 474.754C654.473 473.869 651.591 473.869 649.596 474.975C647.379 476.303 647.379 478.294 649.596 479.4C651.813 480.728 655.359 480.728 657.354 479.4C659.349 478.294 659.571 476.524 658.019 475.196L708.559 445.991H756.439L801.881 472.32L785.034 482.055L785.921 482.497L795.896 488.25H764.419L723.189 464.576C724.741 463.249 724.519 461.479 722.524 460.372C720.308 459.045 716.761 459.045 714.766 460.372C712.549 461.7 712.549 463.691 714.766 464.798C716.761 465.904 719.864 466.125 721.859 465.019L763.976 489.356H797.891L820.944 502.631L806.758 510.818H781.709H781.488L759.543 523.429H743.139L705.899 501.968C707.673 500.64 707.451 498.87 705.456 497.764C703.239 496.436 699.693 496.436 697.698 497.764C695.481 499.091 695.481 501.082 697.698 502.189C699.693 503.295 702.574 503.516 704.791 502.631L742.918 524.535H759.986H760.208L782.153 511.924H804.763L759.543 538.031H735.159L684.176 508.605H530.561L435.244 453.735C436.796 452.408 436.796 450.638 434.801 449.531C432.584 448.204 429.038 448.204 427.043 449.531C424.826 450.859 424.826 452.85 427.043 453.956C429.038 455.062 431.919 455.284 434.136 454.399L530.339 509.932H683.733L734.716 539.359H759.764H759.986L822.274 503.516L838.678 513.03L768.188 553.519H718.534L677.526 529.845H572.234C572.013 529.181 571.569 528.739 570.683 528.296C568.466 526.969 564.919 526.969 562.924 528.296C560.708 529.624 560.708 531.615 562.924 532.721C565.141 534.049 568.688 534.049 570.683 532.721C571.569 532.279 572.013 531.615 572.234 531.173H677.083L715.874 553.519H567.579H567.358L426.156 634.939C423.939 634.054 421.058 634.054 419.063 635.16C416.846 636.487 416.846 638.479 419.063 639.585C421.279 640.913 424.826 640.913 426.821 639.585C428.816 638.479 429.038 636.709 427.486 635.381L568.023 554.404H768.409H768.631L839.786 513.473L858.406 524.093L760.208 580.732H587.308H587.086L435.688 667.905H259.241L156.166 609.716C157.718 608.389 157.496 606.619 155.501 605.513C153.284 604.185 149.738 604.185 147.743 605.513C145.526 606.84 145.526 608.831 147.743 609.938C149.738 611.044 152.841 611.265 154.836 610.159L258.576 669.896H435.688H435.909L587.308 582.724H713.214L528.566 689.366V717.465L454.751 759.945C452.534 759.06 449.653 759.06 447.658 760.166C445.441 761.494 445.441 763.485 447.658 764.591C449.874 765.919 453.421 765.919 455.416 764.591C457.411 763.485 457.633 761.715 456.081 760.388L529.896 717.907V689.809L716.096 582.503H759.321L666.221 636.266V647.993L621.444 674.1C619.228 673.215 616.346 673.215 614.351 674.321C612.134 675.649 612.134 677.64 614.351 678.746C616.568 680.074 620.114 680.074 622.109 678.746C624.104 677.64 624.326 675.87 622.774 674.543L646.936 660.604V692.906L506.843 773.663C504.626 772.778 501.744 772.778 499.749 773.884C497.533 775.211 497.533 777.203 499.749 778.309C501.966 779.636 505.513 779.636 507.508 778.309C509.503 777.203 509.724 775.433 508.173 774.105L648.266 693.349V659.497L667.329 648.435V636.709L761.316 582.503L761.094 582.06L859.736 525.199L877.691 535.598L776.168 594.45V690.473L589.746 798H592.184L746.464 709.057V796.009L742.918 798H745.356L747.573 796.673V708.394L777.054 691.357V595.335L878.356 536.925L894.094 545.996L815.846 591.131V643.789L816.068 644.01L904.956 695.119V713.04L854.638 742.024C852.421 741.139 849.539 741.139 847.544 742.245C845.328 743.573 845.328 745.564 847.544 746.67C849.761 747.997 853.308 747.997 855.303 746.67C857.298 745.564 857.519 743.794 855.968 742.466L906.286 713.482V694.234L906.064 694.013L817.176 642.904V591.574L876.139 557.501V579.405L849.096 595.114C846.879 594.229 843.998 594.229 842.003 595.335C839.786 596.663 839.786 598.654 842.003 599.76C844.219 601.087 847.766 601.087 849.761 599.76C851.756 598.654 851.978 596.884 850.426 595.556L877.469 579.848V556.395L895.424 545.996L916.483 558.165V596.441L876.583 619.451V645.78L876.804 646.001L960.594 694.234C959.043 695.561 959.264 697.331 961.259 698.438C963.476 699.765 967.023 699.765 969.018 698.438C971.234 697.11 971.234 695.119 969.018 694.013C967.023 692.906 963.919 692.685 961.924 693.791L877.691 645.338V620.336L916.261 597.99V624.319L967.909 653.966C966.358 655.294 966.579 657.064 968.574 658.17C970.791 659.497 974.338 659.497 976.333 658.17C978.549 656.842 978.549 654.851 976.333 653.745C974.338 652.639 971.234 652.418 969.239 653.524L917.591 623.876V559.271L932.443 567.9L932.664 567.679L956.826 553.74L978.993 566.573V597.548L1037.73 631.399V660.604C1036.63 660.604 1035.3 661.046 1034.41 661.489C1032.19 662.816 1032.19 664.807 1034.41 665.914C1036.63 667.241 1040.17 667.241 1042.17 665.914C1044.38 664.586 1044.38 662.595 1042.17 661.489C1041.28 661.046 1040.17 660.604 1038.84 660.604V630.735L980.766 596.884V567.236L1076.08 622.106V680.295L1024.43 710.164H976.998H976.776L895.424 757.069C893.208 756.184 890.326 756.184 888.331 757.29C886.114 758.618 886.114 760.609 888.331 761.715C890.548 763.043 894.094 763.043 896.089 761.715C898.084 760.609 898.306 758.839 896.754 757.511L977.441 711.049H1022.44L873.036 797.115C870.819 796.23 867.938 796.23 865.943 797.336H875.031L1077.63 680.516V621L1077.41 620.779L959.043 552.634L982.761 538.916L1184.7 655.294V724.766L1253.64 764.591C1252.09 765.919 1252.31 767.689 1254.3 768.795C1256.52 770.122 1260.07 770.122 1262.06 768.795C1264.28 767.468 1264.28 765.476 1262.06 764.37C1260.07 763.264 1256.96 763.043 1254.97 764.149L1186.03 724.324V654.851L1185.81 654.63L984.091 538.474L1006.7 525.42L1206.42 640.47H1325.68L1331.22 643.789V642.461L1325.9 639.364H1206.64L1037.96 542.235H1071.87L1129.5 575.423H1173.84H1174.06L1235.46 540.022C1237.68 540.908 1240.56 540.908 1242.55 539.801C1244.77 538.474 1244.77 536.482 1242.55 535.376C1240.34 534.049 1236.79 534.049 1234.8 535.376C1232.8 536.482 1232.58 538.253 1234.13 539.58L1173.39 574.538H1129.73L1072.09 541.35H1035.74L1007.59 525.199L1068.1 490.241L1085.39 500.198V526.305L1129.06 551.528C1127.51 552.855 1127.73 554.625 1129.73 555.731C1131.94 557.059 1135.49 557.059 1137.48 555.731C1139.7 554.404 1139.7 552.413 1137.48 551.306C1135.49 550.2 1132.39 549.979 1130.39 551.085L1086.72 525.863V501.304L1133.27 528.075H1155.44H1155.66L1182.04 512.809C1184.26 513.694 1187.14 513.694 1189.13 512.588C1191.35 511.26 1191.35 509.269 1189.13 508.163C1186.92 506.835 1183.37 506.835 1181.37 508.163C1179.38 509.269 1179.16 511.039 1180.71 512.366L1155.22 527.19H1133.72L1069.43 489.356L1081.18 482.719L1080.29 482.276L1043.94 461.479L1061.45 451.522H1087.83L1106.67 462.364C1105.12 463.691 1105.34 465.24 1107.34 466.346C1109.55 467.674 1113.1 467.674 1115.1 466.346C1117.31 465.019 1117.31 463.028 1115.1 461.921C1113.1 460.815 1110 460.594 1107.78 461.7L1088.05 450.416H1063.45L1107.78 424.751L1212.41 484.931H1287.55H1287.77L1330.11 460.594C1330.33 460.815 1330.78 460.815 1331 460.815V455.062C1330.33 455.284 1329.89 455.505 1329.45 455.726C1327.45 456.833 1327.23 458.603 1328.78 459.93L1287.11 483.825H1212.63L1131.94 437.363H1166.52L1200.22 456.833C1198.66 458.16 1198.89 459.93 1200.88 461.036C1203.1 462.364 1206.64 462.364 1208.64 461.036C1210.86 459.709 1210.86 457.717 1208.64 456.611C1206.64 455.505 1203.54 455.284 1201.55 456.39L1166.97 436.478H1129.95L1109.11 424.53L1162.09 393.997H1330.78V392.67H1164.08L1185.14 380.501H1310.61H1310.83L1330.78 368.996V367.669L1310.38 379.395H1184.92H1184.7L1042.39 461.479L1026.65 452.408L1176.28 366.12H1285.56H1285.78L1330.78 340.234V337.8L1285.34 364.129H1176.05H1175.83L1025.54 450.638L1007.59 440.239L1299.3 272.089V211.024L1331 192.881V191.554ZM1078.74 482.719L933.108 566.573L787.473 482.719L933.108 398.865L1078.74 482.719Z" fill="#30A842"/>
<g opacity="0.67">
<path d="M893.431 735.607L511.721 515.463L893.431 295.541L1275.14 515.685L893.431 735.607Z" fill="#21555F"/>
</g>
<g opacity="0.67">
<path d="M893.431 701.535L570.906 515.463L893.431 329.613L1215.96 515.685L893.431 701.535Z" fill="#21555F"/>
</g>
<g opacity="0.9">
<path d="M893.431 661.71L639.623 515.463L893.431 369.438L1147.24 515.685L893.431 661.71Z" fill="#095729"/>
</g>
<path d="M893.43 627.416C883.012 627.416 872.593 625.204 864.835 620.558L710.777 531.836C703.018 527.411 698.807 521.438 698.807 515.021C698.807 508.605 703.018 502.631 710.777 498.206L864.613 409.485C880.352 400.414 906.065 400.414 921.803 409.485L1075.86 498.206C1083.62 502.631 1087.83 508.605 1087.83 515.021C1087.83 521.438 1083.62 527.411 1075.86 531.836L922.025 620.558C914.045 624.983 903.848 627.416 893.43 627.416ZM893.43 403.733C883.233 403.733 873.037 405.945 865.278 410.37L711.442 499.091C704.127 503.295 699.915 509.048 699.915 515.021C699.915 520.995 703.905 526.526 711.442 530.951L865.5 619.673C881.017 628.523 906.065 628.523 921.582 619.673L1075.42 530.951C1082.73 526.748 1086.95 520.995 1086.95 515.021C1086.95 509.048 1082.96 503.516 1075.42 499.091L921.36 410.37C913.823 405.945 903.627 403.733 893.43 403.733Z" fill="#30A842"/>
<path opacity="0.4" d="M1093.59 486.259V468.338L1083.84 472.763C1087.39 450.859 1055.47 500.861 1045.49 502.189L935.103 566.573L887.001 569.891L733.386 504.844L736.933 502.853C723.855 496.658 716.761 482.719 709.668 469.887L699.25 476.082L693.043 469.002V486.923C693.043 493.781 697.476 500.64 706.565 505.729L860.623 594.45C878.578 604.849 908.06 604.849 926.015 594.45L1079.85 505.729C1088.72 500.64 1093.15 494.003 1093.37 487.144C1093.59 486.702 1093.59 486.48 1093.59 486.259Z" fill="#30A842"/>
<path d="M1093.59 469.887V449.089L1083.84 443.779C1081.18 460.152 1061.67 470.993 1045.49 473.205L935.103 537.589L887.001 554.847L733.386 475.639L736.933 473.648C723.855 467.453 716.761 453.514 709.668 440.682L699.25 446.877L693.043 448.647V470.329C693.043 477.188 697.476 484.047 706.565 489.135L860.623 577.857C878.578 588.255 908.06 588.255 926.015 577.857L1079.85 489.135C1088.72 484.047 1093.15 477.409 1093.37 470.55C1093.59 470.55 1093.59 470.108 1093.59 469.887Z" fill="url(#paint1_linear_61_8900)"/>
<path d="M1093.59 469.887V449.089L1083.84 443.779C1081.18 460.152 1061.67 470.993 1045.49 473.205L935.103 537.589L887.001 554.847L733.386 475.639L736.933 473.648C723.855 467.453 716.761 453.514 709.668 440.682L699.25 446.877L693.043 448.647V470.329C693.043 477.188 697.476 484.047 706.565 489.135L860.623 577.857C878.578 588.255 908.06 588.255 926.015 577.857L1079.85 489.135C1088.72 484.047 1093.15 477.409 1093.37 470.55C1093.59 470.55 1093.59 470.108 1093.59 469.887Z" fill="url(#paint2_linear_61_8900)"/>
<path opacity="0.3" d="M1045.71 473.205L935.325 537.589L893.43 552.634V585.6C905.178 585.6 917.148 582.945 926.015 577.857L1079.85 489.135C1088.72 484.047 1093.15 477.409 1093.37 470.55C1093.37 470.329 1093.37 469.887 1093.37 469.665V483.825V449.089L1084.51 444.222H1083.62C1080.74 460.373 1061.67 470.993 1045.71 473.205Z" fill="#21555F"/>
<path d="M860.622 556.617L706.564 467.896C688.609 457.497 688.609 440.682 706.564 430.283L860.401 341.562C878.356 331.163 907.837 331.163 925.792 341.562L1079.85 430.283C1097.81 440.682 1097.81 457.497 1079.85 467.896L926.014 556.617C908.059 567.015 878.799 567.015 860.622 556.617Z" fill="url(#paint3_linear_61_8900)"/>
<path d="M876.362 505.065L796.34 458.824C787.03 453.514 787.03 444.664 796.34 439.133L876.362 392.892C885.672 387.582 900.967 387.582 910.277 392.892L990.298 439.133C999.608 444.443 999.608 453.293 990.298 458.824L910.277 505.065C900.967 510.375 885.893 510.375 876.362 505.065Z" fill="#21555F"/>
<path d="M876.362 505.065L796.34 458.824C787.03 453.514 787.03 444.664 796.34 439.133L876.362 392.892C885.672 387.582 900.967 387.582 910.277 392.892L990.298 439.133C999.608 444.443 999.608 453.293 990.298 458.824L910.277 505.065C900.967 510.375 885.893 510.375 876.362 505.065Z" fill="url(#paint4_radial_61_8900)"/>
<path d="M793.237 456.612C794.123 455.948 795.232 455.063 796.34 454.4L876.362 408.158C885.672 402.848 900.967 402.848 910.277 408.158L990.298 454.4C991.407 455.063 992.515 455.727 993.402 456.612C999.609 451.302 998.5 444.001 990.298 439.133L910.498 393.113C901.188 387.803 885.893 387.803 876.583 393.113L796.562 439.355C788.138 444.001 787.03 451.302 793.237 456.612Z" fill="url(#paint5_radial_61_8900)"/>
<path d="M893.429 559.493C882.124 559.493 870.598 557.06 861.953 551.971L715.209 467.453C706.786 462.586 702.131 456.17 702.131 449.09C702.131 442.231 706.786 435.593 715.209 430.726L861.953 346.208C879.243 336.252 907.394 336.252 924.684 346.208L1071.43 430.726C1079.85 435.593 1084.51 442.01 1084.51 449.09C1084.51 455.948 1079.85 462.586 1071.43 467.453L924.684 551.971C916.039 556.838 904.734 559.493 893.429 559.493ZM862.396 551.307C879.464 561.042 907.173 561.042 924.241 551.307L1070.98 466.79C1079.19 462.143 1083.62 455.948 1083.62 449.311C1083.62 442.673 1079.19 436.478 1070.98 431.832L924.241 347.315C907.173 337.58 879.464 337.58 862.396 347.315L715.653 431.832C707.451 436.478 703.018 442.673 703.018 449.311C703.018 455.948 707.451 462.143 715.653 466.79L862.396 551.307Z" fill="#1F9941"/>
<path d="M893.43 534.27C884.563 534.27 875.918 532.279 869.268 528.518L756.218 463.249C749.568 459.488 746.021 454.399 746.021 449.089C746.021 443.779 749.568 438.69 756.218 434.929L869.268 369.66C882.568 361.917 904.291 361.917 917.813 369.66L1030.86 434.929C1037.51 438.69 1041.06 443.779 1041.06 449.089C1041.06 454.399 1037.51 459.488 1030.86 463.249L917.813 528.518C910.941 532.279 902.296 534.27 893.43 534.27ZM893.43 364.793C884.785 364.793 876.14 366.784 869.711 370.545L756.661 435.814C750.455 439.354 746.908 444.222 746.908 449.31C746.908 454.399 750.455 459.267 756.661 462.807L869.711 528.075C882.79 535.598 904.291 535.598 917.37 528.075L1030.42 462.807C1036.63 459.267 1040.17 454.399 1040.17 449.31C1040.17 444.222 1036.63 439.354 1030.42 435.814L917.37 370.545C910.72 366.563 902.075 364.793 893.43 364.793Z" fill="#1F9941"/>
<g opacity="0.4">
<path d="M876.362 505.065L796.34 458.824C787.03 453.514 787.03 444.664 796.34 439.133L876.362 392.892C885.672 387.582 900.967 387.582 910.277 392.892L990.298 439.133C999.608 444.443 999.608 453.293 990.298 458.824L910.277 505.065C900.967 510.375 885.893 510.375 876.362 505.065Z" fill="#30A842"/>
</g>
<path d="M1080.07 467.896L926.237 556.617C908.282 567.015 878.8 567.015 860.845 556.617L706.787 467.896C698.807 463.249 694.373 457.276 693.487 451.302C692.378 458.824 696.812 466.568 706.787 472.321L860.845 561.042C878.8 571.44 908.282 571.44 926.237 561.042L1080.07 472.321C1090.05 466.568 1094.48 458.824 1093.37 451.302C1092.49 457.276 1088.05 463.249 1080.07 467.896Z" fill="white"/>
<path opacity="0.4" d="M1080.07 370.324L926.015 281.603C908.06 271.204 878.578 271.204 860.623 281.603L706.787 370.324C688.832 380.723 688.832 397.538 706.787 407.937L860.845 496.658C878.8 507.057 908.282 507.057 926.237 496.658L1080.07 407.937C1098.03 397.538 1098.03 380.723 1080.07 370.324Z" fill="#30A842"/>
<path d="M892.1 487.365C883.898 487.365 875.475 485.595 869.268 481.834L842.668 466.347C836.462 462.807 833.137 457.939 833.137 452.85C833.137 447.761 836.462 442.894 842.668 439.354L871.485 422.318C884.12 415.016 904.735 415.016 917.37 422.318L943.97 437.805C950.177 441.345 953.502 446.213 953.502 451.301C953.502 456.39 950.177 461.258 943.97 464.798L915.153 481.834C908.725 485.595 900.523 487.365 892.1 487.365ZM869.712 481.17C882.125 488.25 902.297 488.25 914.71 481.17L943.527 464.134C949.512 460.815 952.615 456.169 952.615 451.523C952.615 446.655 949.29 442.23 943.527 438.911L916.927 423.424C904.513 416.344 884.342 416.344 871.928 423.424L843.112 440.46C837.127 443.779 834.023 448.425 834.023 453.072C834.023 457.939 837.348 462.364 843.112 465.683L869.712 481.17Z" fill="#30A842"/>
<path opacity="0.4" d="M958.156 428.514V414.133L950.398 417.673C953.28 400.194 927.566 440.24 919.808 441.346L925.793 438.913L887.223 441.568L860.845 445.108L863.726 443.559C853.308 438.691 847.545 427.408 841.781 417.23L833.58 422.098L828.703 416.345V430.726C828.703 436.258 832.25 441.568 839.565 445.771L866.165 461.259C880.573 469.666 904.07 469.666 918.478 461.259L947.295 444.223C954.388 440.24 957.935 434.709 958.156 429.399C958.156 428.956 958.156 428.735 958.156 428.514Z" fill="#30A842"/>
<path d="M958.156 415.238V398.644L950.398 394.441C948.181 407.494 932.665 416.344 919.808 418.114L925.793 415.681L887.223 429.619L860.845 421.876L863.726 420.327C853.308 415.459 847.545 404.176 841.781 393.998L833.58 398.866L828.703 400.193V417.451C828.703 422.982 832.25 428.292 839.565 432.496L866.165 447.983C880.573 456.391 904.07 456.391 918.478 447.983L947.295 430.947C954.388 426.964 957.935 421.433 958.156 416.123C958.156 415.902 958.156 415.459 958.156 415.238Z" fill="url(#paint6_linear_61_8900)"/>
<path d="M958.156 415.238V398.644L950.398 394.441C948.181 407.494 932.665 416.344 919.808 418.114L925.793 415.681L887.223 429.619L860.845 421.876L863.726 420.327C853.308 415.459 847.545 404.176 841.781 393.998L833.58 398.866L828.703 400.193V417.451C828.703 422.982 832.25 428.292 839.565 432.496L866.165 447.983C880.573 456.391 904.07 456.391 918.478 447.983L947.295 430.947C954.388 426.964 957.935 421.433 958.156 416.123C958.156 415.902 958.156 415.459 958.156 415.238Z" fill="url(#paint7_linear_61_8900)"/>
<path opacity="0.3" d="M919.809 418.115L925.794 415.681L892.322 427.849V454.399C901.854 454.399 911.386 452.408 918.479 448.204L947.296 431.168C954.389 427.186 957.936 421.655 958.157 416.345C958.157 416.123 958.157 415.902 958.157 415.681V426.965V399.087L951.064 395.104H950.399C947.961 407.716 932.666 416.345 919.809 418.115Z" fill="#21555F"/>
<path d="M865.943 430.726L839.343 415.239C824.935 406.831 824.935 393.335 839.343 385.149L868.16 368.112C882.568 359.705 906.065 359.705 920.473 368.112L947.073 383.6C961.482 392.007 961.482 405.504 947.073 413.69L918.257 430.726C903.848 439.134 880.352 439.134 865.943 430.726Z" fill="url(#paint8_linear_61_8900)"/>
<path d="M892.321 432.938C883.898 432.938 875.474 431.168 869.046 427.407L845.771 413.911C839.564 410.371 836.018 405.503 836.018 400.415C836.018 395.326 839.564 390.458 845.771 386.918L871.263 371.873C884.119 364.572 904.956 364.572 917.591 371.873L940.866 385.37C947.073 388.91 950.619 393.777 950.619 398.866C950.619 403.955 947.073 408.822 940.866 412.362L915.374 427.407C909.168 430.947 900.744 432.938 892.321 432.938ZM869.489 426.743C882.124 434.045 902.518 434.045 915.153 426.743L940.644 411.698C946.629 408.158 949.954 403.512 949.954 398.645C949.954 393.777 946.629 389.131 940.644 385.591L917.369 372.095C904.734 364.793 884.341 364.793 871.706 372.095L846.214 387.14C840.229 390.68 836.904 395.326 836.904 400.193C836.904 405.061 840.229 409.707 846.214 413.247L869.489 426.743Z" fill="#1F9941"/>
<path d="M947.296 413.69L918.479 430.726C904.071 439.134 880.574 439.134 866.166 430.726L839.566 415.239C833.138 411.478 829.591 406.831 828.926 401.964C828.039 407.938 831.586 414.133 839.566 418.779L866.166 434.266C880.574 442.674 904.071 442.674 918.479 434.266L947.296 417.23C955.276 412.584 958.823 406.389 957.936 400.415C957.271 405.283 953.724 410.15 947.296 413.69Z" fill="white"/>
<path opacity="0.4" d="M860.846 430.284L863.284 430.063C862.841 429.841 862.619 429.62 862.397 429.62L860.846 430.284Z" fill="#30A842"/>
<path opacity="0.4" d="M921.359 425.859L919.586 426.523C920.251 426.523 920.916 426.302 921.359 425.859Z" fill="#30A842"/>
<path opacity="0.4" d="M950.62 402.849C950.62 402.406 950.62 401.743 950.62 401.521C950.62 401.964 950.398 402.406 950.62 402.849Z" fill="#30A842"/>
<path opacity="0.8" d="M958.156 413.69C958.156 413.912 958.156 414.133 958.156 414.354C957.935 419.664 954.388 425.195 947.295 429.178L918.478 446.214C904.07 454.622 880.573 454.622 866.165 446.214L839.565 430.727C832.25 426.523 828.703 420.992 828.703 415.682V417.23C828.703 422.762 832.25 428.072 839.565 432.275L866.165 447.763C880.573 456.17 904.07 456.17 918.478 447.763L947.295 430.727C954.388 426.744 957.935 421.213 958.156 415.903C958.156 415.682 958.156 415.46 958.156 415.239V413.69Z" fill="#30A842"/>
<path opacity="0.4" d="M958.156 401.741V387.36L950.398 390.9C953.28 373.421 927.566 413.468 919.808 414.574L925.793 412.14L887.223 414.795L860.845 418.335L863.726 416.786C853.308 411.919 847.545 400.635 841.781 390.458L833.58 395.325L828.703 389.573V403.954C828.703 409.485 832.25 414.795 839.565 418.999L866.165 434.486C880.573 442.894 904.07 442.894 918.478 434.486L947.295 417.45C954.388 413.468 957.935 407.936 958.156 402.626C958.156 402.184 958.156 401.963 958.156 401.741Z" fill="#30A842"/>
<path d="M958.156 388.687V372.094L950.398 367.89C948.181 380.944 932.665 389.794 919.808 391.564L925.793 389.13L887.223 403.069L860.845 395.325L863.726 393.776C853.308 388.909 847.545 377.625 841.781 367.447L833.58 372.315L828.703 373.642V390.9C828.703 396.431 832.25 401.741 839.565 405.945L866.165 421.432C880.573 429.84 904.07 429.84 918.478 421.432L947.295 404.396C954.388 400.414 957.935 394.882 958.156 389.572C958.156 389.13 958.156 388.909 958.156 388.687Z" fill="url(#paint9_linear_61_8900)"/>
<path d="M958.156 388.687V372.094L950.398 367.89C948.181 380.944 932.665 389.794 919.808 391.564L925.793 389.13L887.223 403.069L860.845 395.325L863.726 393.776C853.308 388.909 847.545 377.625 841.781 367.447L833.58 372.315L828.703 373.642V390.9C828.703 396.431 832.25 401.741 839.565 405.945L866.165 421.432C880.573 429.84 904.07 429.84 918.478 421.432L947.295 404.396C954.388 400.414 957.935 394.882 958.156 389.572C958.156 389.13 958.156 388.909 958.156 388.687Z" fill="url(#paint10_linear_61_8900)"/>
<path opacity="0.3" d="M919.809 391.343L925.794 388.909L892.322 401.078V427.628C901.854 427.628 911.386 425.637 918.479 421.433L947.296 404.397C954.389 400.414 957.936 394.883 958.157 389.573C958.157 389.352 958.157 389.131 958.157 388.909V400.193V372.316L951.064 368.333H950.399C947.961 380.944 932.666 389.573 919.809 391.343Z" fill="#21555F"/>
<path d="M865.943 404.175L839.343 388.688C824.935 380.28 824.935 366.784 839.343 358.598L868.16 341.561C882.568 333.154 906.065 333.154 920.473 341.561L947.073 357.049C961.482 365.456 961.482 378.953 947.073 387.139L918.257 404.175C903.848 412.361 880.352 412.361 865.943 404.175Z" fill="url(#paint11_linear_61_8900)"/>
<path d="M892.321 406.167C883.898 406.167 875.474 404.397 869.046 400.636L845.771 387.139C839.564 383.599 836.018 378.732 836.018 373.643C836.018 368.554 839.564 363.687 845.771 360.147L871.263 345.102C884.119 337.801 904.956 337.801 917.591 345.102L940.866 358.598C947.073 362.138 950.619 367.006 950.619 372.094C950.619 377.183 947.073 382.051 940.866 385.591L915.374 400.636C909.168 404.176 900.744 406.167 892.321 406.167ZM869.489 399.972C882.124 407.273 902.518 407.273 915.153 399.972L940.644 384.927C946.629 381.387 949.954 376.741 949.954 371.873C949.954 367.006 946.629 362.359 940.644 358.819L917.369 345.323C904.734 338.022 884.341 338.022 871.706 345.323L846.214 360.368C840.229 363.908 836.904 368.554 836.904 373.422C836.904 378.289 840.229 382.936 846.214 386.476L869.489 399.972Z" fill="#1F9941"/>
<path d="M947.296 387.139L918.479 404.176C904.071 412.583 880.574 412.583 866.166 404.176L839.566 388.688C833.138 384.927 829.591 380.281 828.926 375.413C828.039 381.387 831.586 387.582 839.566 392.228L866.166 407.716C880.574 416.123 904.071 416.123 918.479 407.716L947.296 390.679C955.276 386.033 958.823 379.838 957.936 373.864C957.271 378.511 953.724 383.378 947.296 387.139Z" fill="white"/>
<path opacity="0.4" d="M860.846 403.511L863.284 403.29C862.841 403.069 862.619 402.848 862.397 402.848L860.846 403.511Z" fill="#30A842"/>
<path opacity="0.4" d="M921.359 399.308L919.586 399.971C920.251 399.75 920.916 399.529 921.359 399.308Z" fill="#30A842"/>
<path opacity="0.4" d="M950.62 376.077C950.62 375.634 950.62 374.97 950.62 374.749C950.62 375.192 950.398 375.634 950.62 376.077Z" fill="#30A842"/>
<path opacity="0.8" d="M958.156 387.139C958.156 387.36 958.156 387.581 958.156 387.802C957.935 393.112 954.388 398.644 947.295 402.626L918.478 419.662C904.07 428.07 880.573 428.07 866.165 419.662L839.565 404.175C832.25 399.971 828.703 394.44 828.703 389.13V390.679C828.703 396.21 832.25 401.52 839.565 405.724L866.165 421.211C880.573 429.619 904.07 429.619 918.478 421.211L947.295 404.175C954.388 400.192 957.935 394.661 958.156 389.351C958.156 389.13 958.156 388.909 958.156 388.687V387.139Z" fill="#30A842"/>
<path opacity="0.4" d="M958.156 374.971V360.59L950.398 364.13C953.28 346.651 927.566 386.697 919.808 387.803L925.793 385.37L887.223 388.025L860.845 391.565L863.726 390.016C853.308 385.148 847.545 373.865 841.781 363.687L833.58 368.555L828.703 362.802V377.183C828.703 382.715 832.25 388.025 839.565 392.228L866.165 407.716C880.573 416.123 904.07 416.123 918.478 407.716L947.295 390.68C954.388 386.697 957.935 381.166 958.156 375.856C958.156 375.413 958.156 375.192 958.156 374.971Z" fill="#30A842"/>
<path d="M958.156 361.917V345.323L950.398 341.119C948.181 354.173 932.665 363.023 919.808 364.793L925.793 362.359L887.223 376.298L860.845 368.554L863.726 367.005C853.308 362.138 847.545 350.854 841.781 340.677L833.58 345.544L828.703 346.872V364.129C828.703 369.66 832.25 374.97 839.565 379.174L866.165 394.662C880.573 403.069 904.07 403.069 918.478 394.662L947.295 377.625C954.388 373.643 957.935 368.112 958.156 362.802C958.156 362.359 958.156 362.138 958.156 361.917Z" fill="url(#paint12_linear_61_8900)"/>
<path d="M958.156 361.917V345.323L950.398 341.119C948.181 354.173 932.665 363.023 919.808 364.793L925.793 362.359L887.223 376.298L860.845 368.554L863.726 367.005C853.308 362.138 847.545 350.854 841.781 340.677L833.58 345.544L828.703 346.872V364.129C828.703 369.66 832.25 374.97 839.565 379.174L866.165 394.662C880.573 403.069 904.07 403.069 918.478 394.662L947.295 377.625C954.388 373.643 957.935 368.112 958.156 362.802C958.156 362.359 958.156 362.138 958.156 361.917Z" fill="url(#paint13_linear_61_8900)"/>
<path opacity="0.3" d="M919.809 364.573L925.794 362.139L892.322 374.308V400.858C901.854 400.858 911.386 398.866 918.479 394.662L947.296 377.626C954.389 373.644 957.936 368.113 958.157 362.803C958.157 362.581 958.157 362.36 958.157 362.139V373.423V345.545L951.064 341.562H950.399C947.961 354.395 932.666 362.803 919.809 364.573Z" fill="#21555F"/>
<path d="M865.943 377.405L839.343 361.917C824.935 353.51 824.935 340.013 839.343 331.827L868.16 314.791C882.568 306.383 906.065 306.383 920.473 314.791L947.073 330.278C961.482 338.686 961.482 352.182 947.073 360.368L918.257 377.405C903.848 385.591 880.352 385.591 865.943 377.405Z" fill="url(#paint14_linear_61_8900)"/>
<path d="M892.321 379.396C883.898 379.396 875.474 377.626 869.046 373.865L845.771 360.369C839.564 356.829 836.018 351.961 836.018 346.873C836.018 341.784 839.564 336.916 845.771 333.376L871.263 318.331C884.119 311.03 904.956 311.03 917.591 318.331L940.866 331.828C947.073 335.368 950.619 340.235 950.619 345.324C950.619 350.413 947.073 355.28 940.866 358.82L915.374 373.865C909.168 377.626 900.744 379.396 892.321 379.396ZM869.489 373.201C882.124 380.503 902.518 380.503 915.153 373.201L940.644 358.156C946.629 354.616 949.954 349.97 949.954 345.103C949.954 340.235 946.629 335.589 940.644 332.049L917.369 318.553C904.734 311.251 884.341 311.251 871.706 318.553L846.214 333.598C840.229 337.138 836.904 341.784 836.904 346.651C836.904 351.519 840.229 356.165 846.214 359.705L869.489 373.201Z" fill="#1F9941"/>
<path d="M947.296 360.369L918.479 377.405C904.071 385.812 880.574 385.812 866.166 377.405L839.566 361.917C833.138 358.156 829.591 353.51 828.926 348.642C828.039 354.616 831.586 360.811 839.566 365.458L866.166 380.945C880.574 389.353 904.071 389.353 918.479 380.945L947.296 363.909C955.276 359.263 958.823 353.068 957.936 347.094C957.271 351.961 953.724 356.608 947.296 360.369Z" fill="white"/>
<path opacity="0.4" d="M860.846 376.742L863.284 376.521C862.841 376.299 862.619 376.078 862.397 376.078L860.846 376.742Z" fill="#30A842"/>
<path opacity="0.4" d="M921.359 372.538L919.586 373.202C920.251 373.202 920.916 372.981 921.359 372.538Z" fill="#30A842"/>
<path opacity="0.4" d="M950.62 349.528C950.62 349.085 950.62 348.421 950.62 348.2C950.62 348.421 950.398 349.085 950.62 349.528Z" fill="#30A842"/>
<path opacity="0.8" d="M958.156 360.369C958.156 360.59 958.156 360.812 958.156 361.033C957.935 366.343 954.388 371.874 947.295 375.857L918.478 392.893C904.07 401.3 880.573 401.3 866.165 392.893L839.565 377.405C832.25 373.202 828.703 367.67 828.703 362.36V363.909C828.703 369.44 832.25 374.75 839.565 378.954L866.165 394.442C880.573 402.849 904.07 402.849 918.478 394.442L947.295 377.405C954.388 373.423 957.935 367.892 958.156 362.582C958.156 362.36 958.156 362.139 958.156 361.918V360.369Z" fill="#30A842"/>
<path opacity="0.4" d="M958.156 348.199V333.818L950.398 337.358C953.28 319.879 927.566 359.926 919.808 361.032L925.793 358.598L887.223 361.253L860.845 364.793L863.726 363.244C853.308 358.377 847.545 347.093 841.781 336.916L833.58 341.783L828.703 336.031V350.412C828.703 355.943 832.25 361.253 839.565 365.457L866.165 380.944C880.573 389.352 904.07 389.352 918.478 380.944L947.295 363.908C954.388 359.926 957.935 354.394 958.156 349.084C958.156 348.863 958.156 348.642 958.156 348.199Z" fill="#30A842"/>
<path d="M958.156 335.145V318.552L950.398 314.348C948.181 327.402 932.665 336.252 919.808 338.022L925.793 335.588L887.223 349.527L860.845 341.783L863.726 340.234C853.308 335.367 847.545 324.083 841.781 313.905L833.58 318.773L828.703 320.1V337.358C828.703 342.889 832.25 348.199 839.565 352.403L866.165 367.89C880.573 376.298 904.07 376.298 918.478 367.89L947.295 350.854C954.388 346.872 957.935 341.34 958.156 336.03C958.156 335.588 958.156 335.367 958.156 335.145Z" fill="url(#paint15_linear_61_8900)"/>
<path d="M958.156 335.145V318.552L950.398 314.348C948.181 327.402 932.665 336.252 919.808 338.022L925.793 335.588L887.223 349.527L860.845 341.783L863.726 340.234C853.308 335.367 847.545 324.083 841.781 313.905L833.58 318.773L828.703 320.1V337.358C828.703 342.889 832.25 348.199 839.565 352.403L866.165 367.89C880.573 376.298 904.07 376.298 918.478 367.89L947.295 350.854C954.388 346.872 957.935 341.34 958.156 336.03C958.156 335.588 958.156 335.367 958.156 335.145Z" fill="url(#paint16_linear_61_8900)"/>
<path opacity="0.3" d="M919.809 338.022L925.794 335.588L892.322 347.757V374.307C901.854 374.307 911.386 372.315 918.479 368.112L947.296 351.075C954.389 347.093 957.936 341.562 958.157 336.252C958.157 336.03 958.157 335.809 958.157 335.588V346.872V318.994L951.064 315.012H950.399C947.961 327.623 932.666 336.03 919.809 338.022Z" fill="#21555F"/>
<path d="M865.943 350.633L839.343 335.146C824.935 326.738 824.935 313.242 839.343 305.056L868.16 288.019C882.568 279.612 906.065 279.612 920.473 288.019L947.073 303.507C961.482 311.914 961.482 325.411 947.073 333.597L918.257 350.633C903.848 359.041 880.352 359.041 865.943 350.633Z" fill="url(#paint17_linear_61_8900)"/>
<path d="M892.321 352.625C883.898 352.625 875.474 350.855 869.046 347.094L845.771 333.597C839.564 330.057 836.018 325.19 836.018 320.101C836.018 315.012 839.564 310.145 845.771 306.605L871.263 291.56C884.119 284.259 904.956 284.259 917.591 291.56L940.866 305.056C947.073 308.596 950.619 313.464 950.619 318.552C950.619 323.641 947.073 328.509 940.866 332.049L915.374 347.094C909.168 350.855 900.744 352.625 892.321 352.625ZM869.489 346.651C882.124 353.952 902.518 353.952 915.153 346.651L940.644 331.606C946.629 328.066 949.954 323.42 949.954 318.552C949.954 313.685 946.629 309.039 940.644 305.499L917.369 292.002C904.734 284.701 884.341 284.701 871.706 292.002L846.214 307.047C840.229 310.587 836.904 315.234 836.904 320.101C836.904 324.969 840.229 329.615 846.214 333.155L869.489 346.651Z" fill="#1F9941"/>
<path d="M947.296 333.597L918.479 350.634C904.071 359.041 880.574 359.041 866.166 350.634L839.566 335.146C833.138 331.385 829.591 326.739 828.926 321.871C828.039 327.845 831.586 334.04 839.566 338.686L866.166 354.173C880.574 362.581 904.071 362.581 918.479 354.173L947.296 337.137C955.276 332.491 958.823 326.296 957.936 320.322C957.271 325.19 953.724 329.836 947.296 333.597Z" fill="white"/>
<path opacity="0.4" d="M860.846 350.191L863.284 349.97C862.841 349.749 862.619 349.527 862.397 349.527L860.846 350.191Z" fill="#30A842"/>
<path opacity="0.4" d="M921.359 345.767L919.586 346.43C920.251 346.43 920.916 346.209 921.359 345.767Z" fill="#30A842"/>
<path opacity="0.4" d="M950.62 322.756C950.62 322.314 950.62 321.65 950.62 321.429C950.62 321.871 950.398 322.314 950.62 322.756Z" fill="#30A842"/>
<path opacity="0.8" d="M958.156 333.598C958.156 333.819 958.156 334.04 958.156 334.261C957.935 339.571 954.388 345.103 947.295 349.085L918.478 366.121C904.07 374.529 880.573 374.529 866.165 366.121L839.565 350.634C832.25 346.43 828.703 340.899 828.703 335.589V337.138C828.703 342.669 832.25 347.979 839.565 352.183L866.165 367.67C880.573 376.078 904.07 376.078 918.478 367.67L947.295 350.634C954.388 346.651 957.935 341.12 958.156 335.81C958.156 335.589 958.156 335.368 958.156 335.146V333.598Z" fill="#30A842"/>
<path opacity="0.4" d="M958.156 321.65V307.268L950.398 310.808C953.28 293.33 927.566 333.376 919.808 334.482L925.793 332.048L887.223 334.703L860.845 338.243L863.726 336.695C853.308 331.827 847.545 320.543 841.781 310.366L833.58 315.233L828.703 309.481V323.862C828.703 329.393 832.25 334.703 839.565 338.907L866.165 354.395C880.573 362.802 904.07 362.802 918.478 354.395L947.295 337.358C954.388 333.155 957.935 327.845 958.156 322.535C958.156 322.092 958.156 321.871 958.156 321.65Z" fill="#30A842"/>
<path d="M958.156 308.595V292.002L950.398 287.798C948.181 300.852 932.665 309.702 919.808 311.472L925.793 309.038L887.223 322.977L860.845 315.233L863.726 313.684C853.308 308.817 847.545 297.533 841.781 287.355L833.58 292.223L828.703 293.55V310.808C828.703 316.339 832.25 321.649 839.565 325.853L866.165 341.34C880.573 349.748 904.07 349.748 918.478 341.34L947.295 324.304C954.388 320.1 957.935 314.79 958.156 309.48C958.156 309.038 958.156 308.817 958.156 308.595Z" fill="url(#paint18_linear_61_8900)"/>
<path d="M958.156 308.595V292.002L950.398 287.798C948.181 300.852 932.665 309.702 919.808 311.472L925.793 309.038L887.223 322.977L860.845 315.233L863.726 313.684C853.308 308.817 847.545 297.533 841.781 287.355L833.58 292.223L828.703 293.55V310.808C828.703 316.339 832.25 321.649 839.565 325.853L866.165 341.34C880.573 349.748 904.07 349.748 918.478 341.34L947.295 324.304C954.388 320.1 957.935 314.79 958.156 309.48C958.156 309.038 958.156 308.817 958.156 308.595Z" fill="url(#paint19_linear_61_8900)"/>
<path opacity="0.3" d="M919.809 311.25L925.794 308.816L892.322 320.985V347.535C901.854 347.535 911.386 345.544 918.479 341.34L947.296 324.304C954.389 320.1 957.936 314.79 958.157 309.48C958.157 309.259 958.157 309.038 958.157 308.816V320.1V292.223L951.064 288.24H950.399C947.961 300.851 932.666 309.48 919.809 311.25Z" fill="#21555F"/>
<path d="M865.943 323.862L839.343 308.374C824.935 299.967 824.935 286.471 839.343 278.284L868.16 261.248C882.568 252.841 906.065 252.841 920.473 261.248L947.073 276.736C961.482 285.143 961.482 298.639 947.073 306.826L918.257 323.862C903.848 332.269 880.352 332.269 865.943 323.862Z" fill="url(#paint20_linear_61_8900)"/>
<path d="M892.321 326.074C883.898 326.074 875.474 324.304 869.046 320.543L845.771 307.047C839.564 303.507 836.018 298.639 836.018 293.55C836.018 288.462 839.564 283.594 845.771 280.054L871.263 265.009C884.119 257.708 904.956 257.708 917.591 265.009L940.866 278.505C947.073 282.045 950.619 286.913 950.619 292.002C950.619 297.09 947.073 301.958 940.866 305.498L915.374 320.543C909.168 324.083 900.744 326.074 892.321 326.074ZM869.489 319.879C882.124 327.18 902.518 327.18 915.153 319.879L940.644 304.834C946.629 301.294 949.954 296.648 949.954 291.78C949.954 286.913 946.629 282.267 940.644 278.727L917.369 265.23C904.734 257.929 884.341 257.929 871.706 265.23L846.214 280.275C840.229 283.815 836.904 288.462 836.904 293.329C836.904 298.197 840.229 302.843 846.214 306.383L869.489 319.879Z" fill="#1F9941"/>
<path d="M947.296 307.046L918.479 324.083C904.071 332.49 880.574 332.49 866.166 324.083L839.566 308.595C833.138 304.834 829.591 300.188 828.926 295.32C828.039 301.294 831.586 307.489 839.566 312.135L866.166 327.623C880.574 336.03 904.071 336.03 918.479 327.623L947.296 310.586C955.276 305.94 958.823 299.745 957.936 293.771C957.271 298.418 953.724 303.285 947.296 307.046Z" fill="white"/>
<path opacity="0.4" d="M860.846 323.42L863.284 323.198C862.841 322.977 862.619 322.756 862.397 322.756L860.846 323.42Z" fill="#30A842"/>
<path opacity="0.4" d="M921.359 319.216L919.586 319.88C920.251 319.658 920.916 319.437 921.359 319.216Z" fill="#30A842"/>
<path opacity="0.4" d="M950.62 295.985C950.62 295.542 950.62 294.878 950.62 294.657C950.62 295.1 950.398 295.542 950.62 295.985Z" fill="#30A842"/>
<path opacity="0.8" d="M958.156 307.047C958.156 307.268 958.156 307.489 958.156 307.711C957.935 313.021 954.388 318.552 947.295 322.534L918.478 339.571C904.07 347.978 880.573 347.978 866.165 339.571L839.565 324.083C832.25 319.879 828.703 314.348 828.703 309.038V310.587C828.703 316.118 832.25 321.428 839.565 325.632L866.165 341.119C880.573 349.527 904.07 349.527 918.478 341.119L947.295 324.083C954.388 320.101 957.935 314.569 958.156 309.259C958.156 309.038 958.156 308.817 958.156 308.596V307.047Z" fill="#30A842"/>
<path opacity="0.4" d="M958.156 294.878V280.497L950.398 284.037C953.28 266.558 927.566 306.604 919.808 307.711L925.793 305.277L887.223 307.932L860.845 311.472L863.726 309.923C853.308 305.056 847.545 293.772 841.781 283.594L833.58 288.462L828.703 282.709V297.091C828.703 302.622 832.25 307.932 839.565 312.136L866.165 327.623C880.573 336.031 904.07 336.031 918.478 327.623L947.295 310.587C954.388 306.383 957.935 301.073 958.156 295.763C958.156 295.321 958.156 295.099 958.156 294.878Z" fill="#30A842"/>
<path d="M958.156 281.825V265.231L950.398 261.027C948.181 274.081 932.665 282.931 919.808 284.701L925.793 282.267L887.223 296.206L860.845 288.462L863.726 286.914C853.308 282.046 847.545 270.762 841.781 260.585L833.58 265.452L828.703 266.78V284.037C828.703 289.569 832.25 294.879 839.565 299.082L866.165 314.57C880.573 322.977 904.07 322.977 918.478 314.57L947.295 297.534C954.388 293.33 957.935 288.02 958.156 282.71C958.156 282.267 958.156 282.046 958.156 281.825Z" fill="url(#paint21_linear_61_8900)"/>
<path d="M958.156 281.825V265.231L950.398 261.027C948.181 274.081 932.665 282.931 919.808 284.701L925.793 282.267L887.223 296.206L860.845 288.462L863.726 286.914C853.308 282.046 847.545 270.762 841.781 260.585L833.58 265.452L828.703 266.78V284.037C828.703 289.569 832.25 294.879 839.565 299.082L866.165 314.57C880.573 322.977 904.07 322.977 918.478 314.57L947.295 297.534C954.388 293.33 957.935 288.02 958.156 282.71C958.156 282.267 958.156 282.046 958.156 281.825Z" fill="url(#paint22_linear_61_8900)"/>
<path opacity="0.3" d="M919.809 284.48L925.794 282.046L892.322 294.215V320.765C901.854 320.765 911.386 318.773 918.479 314.57L947.296 297.533C954.389 293.33 957.936 288.02 958.157 282.71C958.157 282.488 958.157 282.267 958.157 282.046V293.33V265.452L951.064 261.47H950.399C947.961 274.302 932.666 282.71 919.809 284.48Z" fill="#21555F"/>
<path d="M865.943 297.312L839.343 281.824C824.935 273.417 824.935 259.921 839.343 251.734L868.16 234.698C882.568 226.291 906.065 226.291 920.473 234.698L947.073 250.186C961.482 258.593 961.482 272.089 947.073 280.276L918.257 297.312C903.848 305.498 880.352 305.498 865.943 297.312Z" fill="url(#paint23_linear_61_8900)"/>
<path d="M892.321 299.304C883.898 299.304 875.474 297.534 869.046 293.772L845.771 280.276C839.564 276.736 836.018 271.869 836.018 266.78C836.018 261.691 839.564 256.824 845.771 253.284L871.263 238.239C884.119 230.937 904.956 230.937 917.591 238.239L940.866 251.735C947.073 255.275 950.619 260.142 950.619 265.231C950.619 270.32 947.073 275.187 940.866 278.727L915.374 293.772C909.168 297.534 900.744 299.304 892.321 299.304ZM869.489 293.109C882.124 300.41 902.518 300.41 915.153 293.109L940.644 278.064C946.629 274.524 949.954 269.877 949.954 265.01C949.954 260.142 946.629 255.496 940.644 251.956L917.369 238.46C904.734 231.159 884.341 231.159 871.706 238.46L846.214 253.505C840.229 257.045 836.904 261.691 836.904 266.559C836.904 271.426 840.229 276.072 846.214 279.612L869.489 293.109Z" fill="#1F9941"/>
<path d="M947.296 280.276L918.479 297.312C904.071 305.72 880.574 305.72 866.166 297.312L839.566 281.825C833.138 278.063 829.591 273.417 828.926 268.55C828.039 274.523 831.586 280.718 839.566 285.365L866.166 300.852C880.574 309.26 904.071 309.26 918.479 300.852L947.296 283.816C955.276 279.17 958.823 272.975 957.936 267.001C957.271 271.868 953.724 276.515 947.296 280.276Z" fill="white"/>
<path opacity="0.4" d="M860.846 296.649L863.284 296.428C862.841 296.207 862.619 295.985 862.397 295.985L860.846 296.649Z" fill="#30A842"/>
<path opacity="0.4" d="M921.359 292.445L919.586 293.109C920.251 293.109 920.916 292.888 921.359 292.445Z" fill="#30A842"/>
<path opacity="0.4" d="M950.62 269.435C950.62 268.992 950.62 268.329 950.62 268.107C950.62 268.329 950.398 268.992 950.62 269.435Z" fill="#30A842"/>
<path opacity="0.8" d="M958.156 280.276C958.156 280.498 958.156 280.719 958.156 280.94C957.935 286.25 954.388 291.781 947.295 295.764L918.478 312.8C904.07 321.208 880.573 321.208 866.165 312.8L839.565 297.313C832.25 293.109 828.703 287.578 828.703 282.268V283.816C828.703 289.348 832.25 294.658 839.565 298.861L866.165 314.349C880.573 322.756 904.07 322.756 918.478 314.349L947.295 297.313C954.388 293.33 957.935 287.799 958.156 282.489C958.156 282.268 958.156 282.046 958.156 281.825V280.276Z" fill="#30A842"/>
<path opacity="0.4" d="M1093.59 452.85V280.718L1083.84 285.143C1087.39 263.239 1055.47 313.241 1045.49 314.569L935.103 378.953L887.001 382.271L733.386 317.224L736.933 315.233C723.855 309.038 716.761 295.099 709.668 282.266L699.25 288.461L693.043 281.381V453.514C693.043 460.373 697.476 467.231 706.565 472.32L860.623 561.041C878.578 571.44 908.06 571.44 926.015 561.041L1079.85 472.32C1088.72 467.231 1093.15 460.594 1093.37 453.735C1093.37 453.514 1093.37 453.514 1093.37 453.071L1093.59 452.85Z" fill="#30A842"/>
<path opacity="0.4" d="M1093.59 388.245C1093.59 388.466 1093.59 388.909 1093.59 389.13C1093.37 395.768 1088.94 402.626 1080.07 407.715L926.235 496.436C908.28 506.835 878.799 506.835 860.844 496.436L706.785 407.715C697.697 402.626 693.264 395.768 693.264 388.909V453.514C693.264 460.373 697.697 467.231 706.785 472.32L860.844 561.041C878.799 571.44 908.28 571.44 926.235 561.041L1080.07 472.32C1088.94 467.231 1093.37 460.594 1093.59 453.735C1093.59 453.514 1093.59 453.071 1093.59 452.85V388.245Z" fill="#96D99D"/>
<path opacity="0.8" d="M1093.59 388.024C1093.59 388.246 1093.59 388.688 1093.59 388.909C1093.37 395.547 1088.94 402.406 1080.07 407.494L926.235 496.216C908.28 506.614 878.799 506.614 860.844 496.216L706.785 407.494C697.697 402.406 693.264 395.547 693.264 388.688V392.449C693.264 399.308 697.697 406.167 706.785 411.256L860.844 499.977C878.799 510.376 908.28 510.376 926.235 499.977L1080.07 411.256C1088.94 406.167 1093.37 399.529 1093.59 392.671C1093.59 392.449 1093.59 392.007 1093.59 391.786V388.024Z" fill="#96D99D"/>
<path d="M1093.59 282.267V261.469L1083.84 256.159C1081.18 272.532 1061.67 283.373 1045.49 285.585L935.103 349.969L887.001 367.227L733.386 288.019L736.933 286.028C723.855 279.833 716.761 265.894 709.668 253.062L699.25 259.257L693.043 261.027V282.709C693.043 289.568 697.476 296.427 706.565 301.515L860.623 390.237C878.578 400.635 908.06 400.635 926.015 390.237L1079.85 301.515C1088.72 296.427 1093.15 289.789 1093.37 282.93C1093.59 282.709 1093.59 282.488 1093.59 282.267Z" fill="url(#paint24_linear_61_8900)"/>
<path d="M1093.59 282.267V261.469L1083.84 256.159C1081.18 272.532 1061.67 283.373 1045.49 285.585L935.103 349.969L887.001 367.227L733.386 288.019L736.933 286.028C723.855 279.833 716.761 265.894 709.668 253.062L699.25 259.257L693.043 261.027V282.709C693.043 289.568 697.476 296.427 706.565 301.515L860.623 390.237C878.578 400.635 908.06 400.635 926.015 390.237L1079.85 301.515C1088.72 296.427 1093.15 289.789 1093.37 282.93C1093.59 282.709 1093.59 282.488 1093.59 282.267Z" fill="url(#paint25_linear_61_8900)"/>
<path opacity="0.3" d="M1045.71 285.585L935.325 349.969L893.43 365.014V397.98C905.178 397.98 917.148 395.325 926.015 390.237L1079.85 301.515C1088.72 296.427 1093.15 289.789 1093.37 282.93C1093.37 282.709 1093.37 282.267 1093.37 282.045V450.859V261.469L1084.51 256.602H1083.62C1080.74 272.753 1061.67 283.373 1045.71 285.585Z" fill="#21555F"/>
<path d="M793.236 268.992C794.123 268.328 795.231 267.443 796.34 266.779L876.361 220.538C885.671 215.228 900.966 215.228 910.276 220.538L990.298 266.779C991.406 267.443 992.515 268.107 993.401 268.992C999.608 263.682 998.5 256.38 990.298 251.513L910.276 205.272C900.966 199.962 885.671 199.962 876.361 205.272L796.34 251.513C788.138 256.38 787.03 263.682 793.236 268.992Z" fill="url(#paint26_radial_61_8900)"/>
<path d="M1080.07 242.663L926.015 153.942C908.06 143.543 878.578 143.543 860.623 153.942L706.787 242.663C688.832 253.062 688.832 269.877 706.787 280.275L860.845 368.997C878.8 379.395 908.282 379.395 926.237 368.997L1080.07 280.275C1098.03 269.877 1098.03 253.062 1080.07 242.663ZM990.52 271.204L910.498 317.445C901.188 322.755 885.893 322.755 876.583 317.445L796.562 271.204C787.252 265.894 787.252 257.044 796.562 251.513L876.583 205.272C885.893 199.962 901.188 199.962 910.498 205.272L990.52 251.513C999.83 257.044 999.83 265.894 990.52 271.204Z" fill="url(#paint27_linear_61_8900)"/>
<path d="M1062.78 244.433L923.133 163.898C906.729 154.384 880.129 154.384 863.726 163.898L724.076 244.433C707.673 253.947 707.673 269.213 724.076 278.727L863.726 359.262C880.129 368.775 906.729 368.775 923.133 359.262L1062.78 278.727C1079.19 268.992 1079.19 253.726 1062.78 244.433ZM1012.46 273.417L914.266 330.057C902.739 336.694 884.119 336.694 872.593 330.057L774.394 273.417C762.868 266.779 762.868 255.938 774.394 249.3L872.593 192.661C884.119 186.023 902.739 186.023 914.266 192.661L1012.46 249.3C1023.77 255.938 1023.77 266.779 1012.46 273.417Z" fill="#095729"/>
<path opacity="0.4" d="M1062.78 244.433L923.133 163.898C906.729 154.384 880.129 154.384 863.726 163.898L724.076 244.433C707.673 253.947 707.673 269.213 724.076 278.727L863.726 359.262C880.129 368.775 906.729 368.775 923.133 359.262L1062.78 278.727C1079.19 268.992 1079.19 253.726 1062.78 244.433ZM1012.46 273.417L914.266 330.057C902.739 336.694 884.119 336.694 872.593 330.057L774.394 273.417C762.868 266.779 762.868 255.938 774.394 249.3L872.593 192.661C884.119 186.023 902.739 186.023 914.266 192.661L1012.46 249.3C1023.77 255.938 1023.77 266.779 1012.46 273.417Z" fill="#30A842"/>
<path d="M1080.07 280.275L926.237 368.997C908.282 379.395 878.8 379.395 860.845 368.997L706.787 280.275C698.807 275.629 694.373 269.655 693.487 263.682C692.378 271.204 696.812 278.948 706.787 284.7L860.845 373.422C878.8 383.82 908.282 383.82 926.237 373.422L1080.07 284.7C1090.05 278.948 1094.48 271.204 1093.37 263.682C1092.49 269.655 1088.05 275.629 1080.07 280.275Z" fill="white"/>
<path d="M893.43 351.518C884.12 351.518 874.81 349.527 867.717 345.323L748.017 276.514C741.145 272.532 737.377 267.222 737.377 261.469C737.377 255.717 741.145 250.407 748.017 246.424L867.717 177.615C881.904 169.429 904.735 169.429 918.922 177.615L1038.62 246.645C1045.49 250.628 1049.26 255.938 1049.26 261.69C1049.26 267.443 1045.49 272.753 1038.62 276.735L918.922 345.544C912.05 349.527 902.74 351.518 893.43 351.518ZM893.43 172.305C884.342 172.305 875.254 174.297 868.16 178.279L748.46 247.088C741.81 250.849 738.264 255.938 738.264 261.248C738.264 266.558 741.81 271.647 748.46 275.408L868.16 344.217C882.125 352.182 904.735 352.182 918.479 344.217L1038.18 275.408C1044.83 271.647 1048.38 266.558 1048.38 261.248C1048.38 255.938 1044.83 250.849 1038.18 247.088L918.479 178.279C911.607 174.297 902.519 172.305 893.43 172.305Z" fill="#30A842"/>
<g opacity="0.4">
<path d="M876.362 317.445L796.34 271.204C787.03 265.894 787.03 257.044 796.34 251.513L876.362 205.272C885.672 199.962 900.967 199.962 910.277 205.272L990.298 251.513C999.608 256.823 999.608 265.673 990.298 271.204L910.277 317.445C900.967 322.755 885.893 322.755 876.362 317.445Z" fill="#30A842"/>
</g>
<path opacity="0.6" d="M958.156 380.944C958.156 381.166 958.156 381.387 958.156 381.608C957.935 386.918 954.388 392.449 947.295 396.432L918.478 413.468C904.07 421.876 880.573 421.876 866.165 413.468L839.565 397.981C832.25 393.777 828.703 388.246 828.703 382.936V388.909V389.131V390.458V399.751V403.512V415.681V415.902V417.229V430.283C828.703 435.814 832.25 441.124 839.565 445.328L866.165 460.816C880.573 469.223 904.07 469.223 918.478 460.816L947.295 443.779C954.388 439.576 957.935 434.266 958.156 428.956C958.156 428.734 958.156 428.513 958.156 428.292V426.522V415.238V413.689V401.521V399.751V398.644V388.467V386.918V380.944Z" fill="#96D99D"/>
<path d="M945.3 372.094L924.464 384.041C923.799 384.484 923.355 384.041 923.355 383.156C923.355 382.271 923.799 381.386 924.464 381.165L945.3 369.218C945.965 368.775 946.409 369.218 946.409 370.103C946.409 370.766 945.965 371.651 945.3 372.094Z" fill="#30A842"/>
<path d="M988.304 347.314L967.468 359.261C966.803 359.704 966.359 359.261 966.359 358.376C966.359 357.491 966.803 356.606 967.468 356.385L988.304 344.437C988.969 343.995 989.413 344.437 989.413 345.322C989.413 345.986 988.969 346.871 988.304 347.314Z" fill="#30A842"/>
<path d="M1031.31 322.534L1010.47 334.482C1009.8 334.924 1009.36 334.482 1009.36 333.597C1009.36 332.712 1009.8 331.827 1010.47 331.605L1031.31 319.658C1031.97 319.215 1032.41 319.658 1032.41 320.543C1032.41 321.207 1031.97 322.313 1031.31 322.534Z" fill="#30A842"/>
<path d="M1074.31 297.754L1053.47 309.701C1052.81 310.144 1052.37 309.701 1052.37 308.816C1052.37 307.931 1052.81 307.046 1053.47 306.825L1074.31 294.878C1074.98 294.435 1075.42 294.878 1075.42 295.763C1075.42 296.648 1074.75 297.533 1074.31 297.754Z" fill="#30A842"/>
<path d="M945.3 560.157L924.464 572.105C923.799 572.547 923.355 572.105 923.355 571.22C923.355 570.335 923.799 569.45 924.464 569.229L945.3 557.281C945.965 556.839 946.409 557.281 946.409 558.166C946.409 559.051 945.965 559.936 945.3 560.157Z" fill="#30A842"/>
<path d="M988.304 535.598L967.468 547.545C966.803 547.988 966.359 547.545 966.359 546.66C966.359 545.775 966.803 544.89 967.468 544.669L988.304 532.721C988.969 532.279 989.413 532.721 989.413 533.606C989.413 534.27 988.969 535.155 988.304 535.598Z" fill="#30A842"/>
<path d="M1031.31 510.818L1010.47 522.766C1009.8 523.208 1009.36 522.766 1009.36 521.881C1009.36 520.996 1009.8 520.111 1010.47 519.89L1031.31 507.942C1031.97 507.5 1032.41 507.942 1032.41 508.827C1032.41 509.491 1031.97 510.376 1031.31 510.818Z" fill="#30A842"/>
<path d="M1074.31 486.038L1053.47 497.986C1052.81 498.428 1052.37 497.986 1052.37 497.101C1052.37 496.216 1052.81 495.331 1053.47 495.109L1074.31 483.162C1074.98 482.719 1075.42 483.162 1075.42 484.047C1075.42 484.711 1074.75 485.596 1074.31 486.038Z" fill="#30A842"/>
<path d="M840.893 372.094L861.73 384.041C862.395 384.484 862.838 384.041 862.838 383.156C862.838 382.271 862.395 381.386 861.73 381.165L840.893 369.218C840.228 368.775 839.785 369.218 839.785 370.103C839.785 370.766 840.228 371.651 840.893 372.094Z" fill="#30A842"/>
<path d="M797.89 347.314L818.726 359.261C819.391 359.704 819.835 359.261 819.835 358.376C819.835 357.491 819.391 356.606 818.726 356.385L797.89 344.437C797.225 343.995 796.781 344.437 796.781 345.322C796.781 345.986 797.225 346.871 797.89 347.314Z" fill="#30A842"/>
<path d="M754.888 322.534L775.724 334.482C776.389 334.924 776.833 334.482 776.833 333.597C776.833 332.712 776.389 331.827 775.724 331.605L754.888 319.658C754.223 319.215 753.779 319.658 753.779 320.543C753.779 321.207 754.223 322.313 754.888 322.534Z" fill="#30A842"/>
<path d="M711.884 297.754L732.72 309.701C733.385 310.144 733.829 309.701 733.829 308.816C733.829 307.931 733.385 307.046 732.72 306.825L711.884 294.878C711.219 294.435 710.775 294.878 710.775 295.763C710.997 296.648 711.44 297.533 711.884 297.754Z" fill="#30A842"/>
<path d="M840.893 560.157L861.73 572.105C862.395 572.547 862.838 572.105 862.838 571.22C862.838 570.335 862.395 569.45 861.73 569.229L840.893 557.281C840.228 556.839 839.785 557.281 839.785 558.166C839.785 559.051 840.228 559.936 840.893 560.157Z" fill="#30A842"/>
<path d="M797.89 535.598L818.726 547.545C819.391 547.988 819.835 547.545 819.835 546.66C819.835 545.775 819.391 544.89 818.726 544.669L797.89 532.721C797.225 532.279 796.781 532.721 796.781 533.606C796.781 534.27 797.225 535.155 797.89 535.598Z" fill="#30A842"/>
<path d="M754.888 510.818L775.724 522.766C776.389 523.208 776.833 522.766 776.833 521.881C776.833 520.996 776.389 520.111 775.724 519.89L754.888 507.942C754.223 507.5 753.779 507.942 753.779 508.827C753.779 509.491 754.223 510.376 754.888 510.818Z" fill="#30A842"/>
<path d="M711.884 486.038L732.72 497.986C733.385 498.428 733.829 497.986 733.829 497.101C733.829 496.216 733.385 495.331 732.72 495.109L711.884 483.162C711.219 482.719 710.775 483.162 710.775 484.047C710.997 484.711 711.44 485.596 711.884 486.038Z" fill="#30A842"/>
<g opacity="0.3">
<path d="M1285.78 390.901V378.289L1282.23 376.298C1281.35 382.272 1274.25 386.033 1268.49 386.918L1228.81 410.149L1211.52 416.344L1156.33 387.803L1157.66 387.139C1153 384.927 1150.34 379.838 1147.9 375.413L1144.13 377.626L1141.92 378.289V391.122C1141.92 393.556 1143.47 395.989 1146.79 397.981L1202.21 429.841C1208.64 433.602 1219.28 433.602 1225.71 429.841L1281.12 397.981C1284.23 396.211 1286 393.777 1286 391.343C1285.78 391.122 1285.78 391.122 1285.78 390.901Z" fill="url(#paint28_linear_61_8900)"/>
<path opacity="0.3" d="M1268.49 387.139L1228.81 410.37L1213.74 415.901V432.716C1217.95 432.716 1222.16 431.831 1225.49 429.84L1280.9 397.98C1284.01 396.21 1285.78 393.776 1285.78 391.343V391.121V378.51L1282.68 376.74H1282.23C1281.13 382.493 1274.25 386.254 1268.49 387.139Z" fill="#21555F"/>
<path d="M1201.99 417.008L1146.57 385.148C1140.14 381.387 1140.14 375.413 1146.57 371.652L1201.99 339.792C1208.42 336.03 1219.06 336.03 1225.49 339.792L1280.9 371.652C1287.33 375.413 1287.33 381.387 1280.9 385.148L1225.49 417.008C1219.06 420.769 1208.42 420.769 1201.99 417.008Z" fill="url(#paint29_linear_61_8900)"/>
<g opacity="0.3">
<path d="M1201.99 417.008L1146.57 385.148C1140.14 381.387 1140.14 375.413 1146.57 371.652L1201.99 339.792C1208.42 336.03 1219.06 336.03 1225.49 339.792L1280.9 371.652C1287.33 375.413 1287.33 381.387 1280.9 385.148L1225.49 417.008C1219.06 420.769 1208.42 420.769 1201.99 417.008Z" fill="#21555F"/>
</g>
</g>
<path d="M1213.74 395.989C1209.97 395.989 1206.2 395.104 1203.32 393.555L1147.9 361.695C1145.02 360.146 1143.47 357.713 1143.47 355.5C1143.47 353.066 1145.02 350.854 1147.9 349.305L1203.32 317.445C1209.08 314.126 1218.39 314.126 1224.16 317.445L1279.57 349.305C1282.46 350.854 1284.01 353.288 1284.01 355.5C1284.01 357.934 1282.46 360.146 1279.57 361.695L1224.16 393.555C1221.28 395.104 1217.51 395.989 1213.74 395.989ZM1203.76 392.67C1209.31 395.768 1218.17 395.768 1223.71 392.67L1279.13 360.81C1281.79 359.261 1283.12 357.491 1283.12 355.279C1283.12 353.288 1281.79 351.296 1279.13 349.748L1223.71 317.888C1218.17 314.79 1209.31 314.79 1203.76 317.888L1148.35 349.748C1145.69 351.296 1144.36 353.066 1144.36 355.279C1144.36 357.27 1145.69 359.261 1148.35 360.81L1203.76 392.67Z" fill="#30A842"/>
<path opacity="0.4" d="M1285.78 343.11V324.304L1282.23 322.313C1281.35 328.286 1274.25 332.048 1268.49 332.933L1228.81 356.164L1211.52 362.359L1156.33 333.818L1157.66 333.154C1153 330.941 1150.34 325.853 1147.9 321.428L1144.13 323.64L1141.92 324.304V343.553C1141.92 345.986 1143.47 348.42 1146.79 350.411L1202.21 382.271C1208.64 386.033 1219.28 386.033 1225.71 382.271L1281.12 350.411C1284.23 348.641 1286 346.208 1286 343.774C1285.78 343.331 1285.78 343.331 1285.78 343.11Z" fill="#30A842"/>
<path d="M1285.78 326.295V313.684L1282.23 311.693C1281.35 317.666 1274.25 321.428 1268.49 322.313L1228.81 345.544L1211.52 351.739L1156.33 323.198L1157.66 322.534C1153 320.321 1150.34 315.233 1147.9 310.808L1144.13 313.02L1141.92 313.684V326.516C1141.92 328.95 1143.47 331.384 1146.79 333.375L1202.21 365.235C1208.64 368.996 1219.28 368.996 1225.71 365.235L1281.12 333.375C1284.23 331.605 1286 329.171 1286 326.738C1285.78 326.516 1285.78 326.516 1285.78 326.295Z" fill="url(#paint30_linear_61_8900)"/>
<path opacity="0.3" d="M1268.49 322.534L1228.81 345.765L1213.74 351.296V368.111C1217.95 368.111 1222.16 367.226 1225.49 365.235L1280.9 333.375C1284.01 331.605 1285.78 329.171 1285.78 326.737V326.516V313.905L1282.68 312.135H1282.23C1281.13 317.887 1274.25 321.649 1268.49 322.534Z" fill="#21555F"/>
<path d="M1201.99 352.402L1146.57 320.542C1140.14 316.781 1140.14 310.807 1146.57 307.046L1201.99 275.186C1208.42 271.425 1219.06 271.425 1225.49 275.186L1280.9 307.046C1287.33 310.807 1287.33 316.781 1280.9 320.542L1225.49 352.402C1219.06 356.164 1208.42 356.164 1201.99 352.402Z" fill="url(#paint31_linear_61_8900)"/>
<path d="M1280.9 320.542L1225.49 352.402C1219.06 356.163 1208.42 356.163 1201.99 352.402L1146.57 320.542C1143.69 318.772 1142.14 316.781 1141.7 314.568C1141.25 317.223 1142.8 320.1 1146.57 322.091L1201.99 353.951C1208.42 357.712 1219.06 357.712 1225.49 353.951L1280.9 322.091C1284.45 320.1 1286 317.223 1285.78 314.568C1285.34 316.781 1283.79 318.993 1280.9 320.542Z" fill="white"/>
<g opacity="0.3">
<path d="M609.475 653.081V640.47L605.928 638.479C605.042 644.452 597.948 648.214 592.185 649.099L552.507 672.33L535.217 678.525L480.022 649.984L481.352 649.32C476.697 647.107 474.037 642.019 471.598 637.594L467.83 639.806L465.613 640.47V653.303C465.613 655.736 467.165 658.17 470.49 660.161L525.907 692.021C532.335 695.783 542.975 695.783 549.403 692.021L604.82 660.161C607.923 658.391 609.697 655.958 609.697 653.524C609.475 653.303 609.475 653.081 609.475 653.081Z" fill="url(#paint32_linear_61_8900)"/>
<path opacity="0.3" d="M592.185 649.32L552.507 672.551L537.434 678.082V694.897C541.645 694.897 545.857 694.012 549.182 692.021L604.599 660.161C607.702 658.391 609.475 655.957 609.475 653.523V653.302V640.691L606.372 638.921H606.15C604.82 644.673 597.949 648.435 592.185 649.32Z" fill="#21555F"/>
<path d="M525.685 679.189L470.269 647.329C463.84 643.567 463.84 637.594 470.269 633.832L525.685 601.972C532.114 598.211 542.754 598.211 549.182 601.972L604.599 633.832C611.027 637.594 611.027 643.567 604.599 647.329L549.182 679.189C542.754 682.95 532.335 682.95 525.685 679.189Z" fill="url(#paint33_linear_61_8900)"/>
<g opacity="0.3">
<path d="M525.685 679.189L470.269 647.329C463.84 643.567 463.84 637.594 470.269 633.832L525.685 601.972C532.114 598.211 542.754 598.211 549.182 601.972L604.599 633.832C611.027 637.594 611.027 643.567 604.599 647.329L549.182 679.189C542.754 682.95 532.335 682.95 525.685 679.189Z" fill="#21555F"/>
</g>
</g>
<path d="M537.434 658.171C533.666 658.171 529.898 657.286 527.016 655.737L471.599 623.877C468.718 622.328 467.166 619.894 467.166 617.682C467.166 615.248 468.718 613.036 471.599 611.487L527.016 579.627C532.779 576.308 542.089 576.308 547.853 579.627L603.269 611.487C606.151 613.036 607.703 615.469 607.703 617.682C607.703 620.116 606.151 622.328 603.269 623.877L547.853 655.737C544.971 657.286 541.203 658.171 537.434 658.171ZM527.681 654.852C533.223 657.949 542.089 657.949 547.631 654.852L603.048 622.992C605.708 621.443 607.038 619.673 607.038 617.461C607.038 615.469 605.708 613.478 603.048 611.929L547.631 580.069C542.089 576.972 533.223 576.972 527.681 580.069L472.264 611.929C469.604 613.478 468.274 615.248 468.274 617.461C468.274 619.452 469.604 621.443 472.264 622.992L527.681 654.852Z" fill="#30A842"/>
<path opacity="0.4" d="M609.475 605.292V586.486L605.928 584.494C605.042 590.468 597.948 594.229 592.185 595.114L552.507 618.346L535.217 624.541L480.022 595.999L481.352 595.336C476.697 593.123 474.037 588.034 471.598 583.609L467.83 585.822L465.613 586.486V605.734C465.613 608.168 467.165 610.602 470.49 612.593L525.907 644.453C532.335 648.214 542.975 648.214 549.403 644.453L604.82 612.593C607.923 610.823 609.697 608.389 609.697 605.956C609.475 605.513 609.475 605.292 609.475 605.292Z" fill="#30A842"/>
<path d="M609.475 588.476V575.865L605.928 573.874C605.042 579.848 597.948 583.609 592.185 584.494L552.507 607.725L535.217 613.92L480.022 585.6L481.352 584.936C476.697 582.724 474.037 577.635 471.598 573.21L467.83 575.422L465.613 576.086V588.919C465.613 591.352 467.165 593.786 470.49 595.777L525.907 627.637C532.335 631.399 542.975 631.399 549.403 627.637L604.82 595.777C607.923 594.007 609.697 591.574 609.697 589.14C609.475 588.697 609.475 588.476 609.475 588.476Z" fill="url(#paint34_linear_61_8900)"/>
<path opacity="0.3" d="M592.185 584.494L552.507 607.726L537.434 613.257V630.072C541.645 630.072 545.857 629.187 549.182 627.196L604.599 595.336C607.702 593.566 609.475 591.132 609.475 588.698V588.477V575.866L606.372 574.096H606.15C604.82 580.069 597.949 583.831 592.185 584.494Z" fill="#21555F"/>
<path d="M525.685 614.584L470.269 582.724C463.84 578.963 463.84 572.989 470.269 569.228L525.685 537.368C532.114 533.607 542.754 533.607 549.182 537.368L604.599 569.228C611.027 572.989 611.027 578.963 604.599 582.724L549.182 614.584C542.754 618.345 532.335 618.345 525.685 614.584Z" fill="url(#paint35_linear_61_8900)"/>
<path d="M604.599 582.724L549.182 614.584C542.754 618.345 532.114 618.345 525.685 614.584L470.269 582.724C467.387 580.954 465.835 578.963 465.392 576.75C464.949 579.405 466.5 582.281 470.269 584.272L525.685 616.132C532.114 619.894 542.754 619.894 549.182 616.132L604.599 584.272C608.145 582.281 609.697 579.405 609.475 576.75C609.032 578.963 607.48 580.954 604.599 582.724Z" fill="white"/>
<path d="M538.321 609.495C535.217 609.495 531.892 608.61 529.011 607.061L479.357 578.52C478.249 577.856 477.584 576.75 477.584 575.423C477.584 574.095 478.249 572.989 479.357 572.325L526.129 545.775C532.557 542.014 540.537 542.014 546.966 545.775L595.289 573.653C596.397 574.316 597.062 575.423 597.062 576.75C597.062 578.078 596.397 579.184 595.289 579.848L547.409 607.061C544.749 608.61 541.646 609.495 538.321 609.495ZM536.547 544.448C533.222 544.448 529.897 545.333 526.794 547.103L480.022 573.653C479.357 574.095 478.914 574.759 478.914 575.423C478.914 576.086 479.357 576.75 480.022 577.193L529.676 605.734C534.996 608.831 541.424 608.831 546.744 605.734L594.624 578.52C595.289 578.078 595.732 577.414 595.732 576.75C595.732 576.086 595.289 575.423 594.624 574.98L546.301 547.103C543.419 545.333 540.094 544.448 536.547 544.448Z" fill="#30A842"/>
<g opacity="0.11">
<path d="M546.744 518.561C540.538 515.021 532.779 515.021 526.573 518.561L479.801 545.111C477.806 546.218 477.806 548.872 479.801 549.979L529.454 578.52C534.996 581.617 541.646 581.617 547.188 578.52L595.068 551.306C597.063 550.2 597.063 547.545 595.068 546.439L546.744 518.561Z" fill="url(#paint36_linear_61_8900)"/>
</g>
<g opacity="0.11">
<path d="M546.744 498.427C540.538 494.887 532.779 494.887 526.573 498.427L479.801 524.977C477.806 526.084 477.806 528.739 479.801 529.845L529.454 558.386C534.996 561.484 541.646 561.484 547.188 558.386L595.068 531.172C597.063 530.066 597.063 527.411 595.068 526.305L546.744 498.427Z" fill="url(#paint37_linear_61_8900)"/>
</g>
<g opacity="0.11">
<path d="M546.744 478.294C540.538 474.754 532.779 474.754 526.573 478.294L479.801 504.844C477.806 505.95 477.806 508.605 479.801 509.711L529.454 538.252C534.996 541.35 541.646 541.35 547.188 538.252L595.068 511.039C597.063 509.932 597.063 507.277 595.068 506.171L546.744 478.294Z" fill="url(#paint38_linear_61_8900)"/>
</g>
<g opacity="0.11">
<path d="M546.744 458.16C540.538 454.62 532.779 454.62 526.573 458.16L479.801 484.71C477.806 485.816 477.806 488.471 479.801 489.577L529.454 518.119C534.996 521.216 541.646 521.216 547.188 518.119L595.068 490.905C597.063 489.799 597.063 487.144 595.068 486.037L546.744 458.16Z" fill="url(#paint39_linear_61_8900)"/>
</g>
<path opacity="0.5" d="M595.067 486.037L546.744 458.16C540.537 454.62 532.779 454.62 526.572 458.16L479.801 484.71C478.914 485.152 478.471 486.259 478.471 487.144V547.545C478.471 548.43 478.914 549.536 479.801 549.979L529.454 578.52C534.996 581.617 541.646 581.617 547.187 578.52L595.067 551.306C595.954 550.864 596.397 549.757 596.397 548.872V488.471C596.619 487.365 596.176 486.48 595.067 486.037Z" fill="url(#paint40_linear_61_8900)"/>
<g opacity="0.11">
<path d="M546.744 458.16C540.538 454.62 532.779 454.62 526.573 458.16L479.801 484.71C477.806 485.816 477.806 488.471 479.801 489.577L529.454 518.119C534.996 521.216 541.646 521.216 547.188 518.119L595.068 490.905C597.063 489.799 597.063 487.144 595.068 486.037L546.744 458.16Z" fill="url(#paint41_linear_61_8900)"/>
</g>
<path d="M595.068 488.028L547.188 515.242C541.647 518.34 534.997 518.34 529.455 515.242L479.802 486.701C479.358 486.48 478.915 486.037 478.693 485.595C478.028 486.922 478.25 488.692 479.802 489.356L529.455 517.897C534.997 520.995 541.647 520.995 547.188 517.897L595.068 490.684C596.398 489.799 596.842 488.028 596.177 486.922C595.955 487.365 595.512 487.807 595.068 488.028Z" fill="url(#paint42_linear_61_8900)"/>
<path opacity="0.7" d="M537.434 504.401L507.287 486.922L537.434 469.443L567.802 486.922L537.434 504.401Z" fill="#30A842"/>
<path d="M537.434 505.95C537.212 505.95 536.769 505.95 536.547 505.729L506.4 488.25C505.957 488.029 505.514 487.365 505.514 486.922C505.514 486.259 505.735 485.816 506.4 485.595L536.547 468.116C536.99 467.895 537.655 467.895 538.099 468.116L568.245 485.595C568.689 485.816 569.132 486.48 569.132 486.922C569.132 487.586 568.91 488.029 568.245 488.25L538.099 505.729C538.099 505.95 537.877 505.95 537.434 505.95ZM510.612 486.922L537.655 502.41L564.699 486.922L537.655 471.435L510.612 486.922Z" fill="#30A842"/>
</g>
<defs>
<radialGradient id="paint0_radial_61_8900" cx="0" cy="0" r="1" gradientUnits="userSpaceOnUse" gradientTransform="translate(1359.82 120.077) rotate(180) scale(973.874 972.044)">
<stop stop-color="#BEECD0"/>
<stop offset="0.0300632" stop-color="#96D99D"/>
<stop offset="0.2023" stop-color="#96D99D"/>
<stop offset="0.3737" stop-color="#30A842"/>
<stop offset="0.5413" stop-color="#1F9941"/>
<stop offset="0.7039" stop-color="#095729"/>
<stop offset="0.8594" stop-color="#095729"/>
<stop offset="1" stop-color="#21555F"/>
</radialGradient>
<linearGradient id="paint1_linear_61_8900" x1="736.128" y1="374.637" x2="1047.35" y2="554.658" gradientUnits="userSpaceOnUse">
<stop stop-color="#BEECD0"/>
<stop offset="0.2271" stop-color="#96D99D"/>
<stop offset="0.6802" stop-color="#1F9941"/>
<stop offset="1" stop-color="#095729"/>
</linearGradient>
<linearGradient id="paint2_linear_61_8900" x1="736.128" y1="374.637" x2="1047.35" y2="554.658" gradientUnits="userSpaceOnUse">
<stop stop-color="#96D99D"/>
<stop offset="0.0880899" stop-color="#96D99D"/>
<stop offset="0.2288" stop-color="#30A842"/>
<stop offset="0.3734" stop-color="#30A842"/>
<stop offset="0.5206" stop-color="#1F9941"/>
<stop offset="0.6715" stop-color="#0F6723"/>
<stop offset="0.8281" stop-color="#095729"/>
<stop offset="1" stop-color="#24635A"/>
</linearGradient>
<linearGradient id="paint3_linear_61_8900" x1="693.253" y1="449.091" x2="1093.56" y2="449.091" gradientUnits="userSpaceOnUse">
<stop stop-color="#E9FFFF"/>
<stop offset="0.3601" stop-color="#BEECD0"/>
<stop offset="0.7062" stop-color="#96D99D"/>
<stop offset="1" stop-color="#76AD7E"/>
</linearGradient>
<radialGradient id="paint4_radial_61_8900" cx="0" cy="0" r="1" gradientUnits="userSpaceOnUse" gradientTransform="translate(891.681 519.931) scale(182.236 181.894)">
<stop stop-color="#BEECD0"/>
<stop offset="0.0795527" stop-color="#96D99D"/>
<stop offset="0.2064" stop-color="#96D99D"/>
<stop offset="0.3361" stop-color="#30A842"/>
<stop offset="0.4662" stop-color="#30A842"/>
<stop offset="0.597" stop-color="#095729"/>
<stop offset="0.7289" stop-color="#095729"/>
<stop offset="0.8623" stop-color="#24635A"/>
<stop offset="1" stop-color="#24635A"/>
</radialGradient>
<radialGradient id="paint5_radial_61_8900" cx="0" cy="0" r="1" gradientUnits="userSpaceOnUse" gradientTransform="translate(891.681 462.821) scale(181.585 181.244)">
<stop stop-color="#BEECD0"/>
<stop offset="0.0795527" stop-color="#BEECD0"/>
<stop offset="0.2064" stop-color="#96D99D"/>
<stop offset="0.3361" stop-color="#96D99D"/>
<stop offset="0.4662" stop-color="#30A842"/>
<stop offset="0.597" stop-color="#30A842"/>
<stop offset="0.7289" stop-color="#1F9941"/>
<stop offset="0.8623" stop-color="#095729"/>
<stop offset="1" stop-color="#21555F"/>
</radialGradient>
<linearGradient id="paint6_linear_61_8900" x1="839.423" y1="381.406" x2="944.777" y2="442.347" gradientUnits="userSpaceOnUse">
<stop stop-color="#BEECD0"/>
<stop offset="0.2271" stop-color="#96D99D"/>
<stop offset="0.6802" stop-color="#1F9941"/>
<stop offset="1" stop-color="#095729"/>
</linearGradient>
<linearGradient id="paint7_linear_61_8900" x1="839.423" y1="381.406" x2="944.777" y2="442.347" gradientUnits="userSpaceOnUse">
<stop stop-color="#BEECD0"/>
<stop offset="0.0222208" stop-color="#96D99D"/>
<stop offset="0.2509" stop-color="#30A842"/>
<stop offset="0.4865" stop-color="#1F9941"/>
<stop offset="0.7314" stop-color="#095729"/>
<stop offset="1" stop-color="#21555F"/>
</linearGradient>
<linearGradient id="paint8_linear_61_8900" x1="828.683" y1="399.466" x2="958.134" y2="399.466" gradientUnits="userSpaceOnUse">
<stop stop-color="#E9FFFF"/>
<stop offset="0.3601" stop-color="#BEECD0"/>
<stop offset="0.7062" stop-color="#96D99D"/>
<stop offset="1" stop-color="#76AD7E"/>
</linearGradient>
<linearGradient id="paint9_linear_61_8900" x1="839.423" y1="354.7" x2="944.777" y2="415.641" gradientUnits="userSpaceOnUse">
<stop stop-color="#BEECD0"/>
<stop offset="0.2271" stop-color="#96D99D"/>
<stop offset="0.6802" stop-color="#1F9941"/>
<stop offset="1" stop-color="#095729"/>
</linearGradient>
<linearGradient id="paint10_linear_61_8900" x1="839.423" y1="354.7" x2="944.777" y2="415.641" gradientUnits="userSpaceOnUse">
<stop stop-color="#BEECD0"/>
<stop offset="0.0222208" stop-color="#BEECD0"/>
<stop offset="0.2509" stop-color="#96D99D"/>
<stop offset="0.4865" stop-color="#1F9941"/>
<stop offset="0.7314" stop-color="#095729"/>
<stop offset="1" stop-color="#21555F"/>
</linearGradient>
<linearGradient id="paint11_linear_61_8900" x1="828.683" y1="372.76" x2="958.134" y2="372.76" gradientUnits="userSpaceOnUse">
<stop stop-color="#E9FFFF"/>
<stop offset="0.3601" stop-color="#BEECD0"/>
<stop offset="0.7062" stop-color="#96D99D"/>
<stop offset="1" stop-color="#76AD7E"/>
</linearGradient>
<linearGradient id="paint12_linear_61_8900" x1="839.422" y1="327.995" x2="944.777" y2="388.936" gradientUnits="userSpaceOnUse">
<stop stop-color="#BEECD0"/>
<stop offset="0.2271" stop-color="#96D99D"/>
<stop offset="0.6802" stop-color="#1F9941"/>
<stop offset="1" stop-color="#095729"/>
</linearGradient>
<linearGradient id="paint13_linear_61_8900" x1="839.422" y1="327.995" x2="944.777" y2="388.936" gradientUnits="userSpaceOnUse">
<stop stop-color="#BEECD0"/>
<stop offset="0.0222208" stop-color="#BEECD0"/>
<stop offset="0.2509" stop-color="#96D99D"/>
<stop offset="0.4865" stop-color="#1F9941"/>
<stop offset="0.7314" stop-color="#095729"/>
<stop offset="1" stop-color="#21555F"/>
</linearGradient>
<linearGradient id="paint14_linear_61_8900" x1="828.683" y1="346.055" x2="958.134" y2="346.055" gradientUnits="userSpaceOnUse">
<stop stop-color="#E9FFFF"/>
<stop offset="0.3601" stop-color="#BEECD0"/>
<stop offset="0.7062" stop-color="#96D99D"/>
<stop offset="1" stop-color="#76AD7E"/>
</linearGradient>
<linearGradient id="paint15_linear_61_8900" x1="839.422" y1="301.289" x2="944.777" y2="362.23" gradientUnits="userSpaceOnUse">
<stop stop-color="#BEECD0"/>
<stop offset="0.2271" stop-color="#96D99D"/>
<stop offset="0.6802" stop-color="#1F9941"/>
<stop offset="1" stop-color="#095729"/>
</linearGradient>
<linearGradient id="paint16_linear_61_8900" x1="839.422" y1="301.289" x2="944.777" y2="362.23" gradientUnits="userSpaceOnUse">
<stop stop-color="#BEECD0"/>
<stop offset="0.0222208" stop-color="#BEECD0"/>
<stop offset="0.2509" stop-color="#96D99D"/>
<stop offset="0.4865" stop-color="#1F9941"/>
<stop offset="0.7314" stop-color="#095729"/>
<stop offset="1" stop-color="#21555F"/>
</linearGradient>
<linearGradient id="paint17_linear_61_8900" x1="828.683" y1="319.349" x2="958.134" y2="319.349" gradientUnits="userSpaceOnUse">
<stop stop-color="#E9FFFF"/>
<stop offset="0.3601" stop-color="#BEECD0"/>
<stop offset="0.7062" stop-color="#96D99D"/>
<stop offset="1" stop-color="#76AD7E"/>
</linearGradient>
<linearGradient id="paint18_linear_61_8900" x1="839.422" y1="274.583" x2="944.777" y2="335.524" gradientUnits="userSpaceOnUse">
<stop stop-color="#BEECD0"/>
<stop offset="0.2271" stop-color="#96D99D"/>
<stop offset="0.6802" stop-color="#1F9941"/>
<stop offset="1" stop-color="#095729"/>
</linearGradient>
<linearGradient id="paint19_linear_61_8900" x1="839.422" y1="274.583" x2="944.777" y2="335.524" gradientUnits="userSpaceOnUse">
<stop stop-color="#BEECD0"/>
<stop offset="0.0222208" stop-color="#96D99D"/>
<stop offset="0.2509" stop-color="#1F9941"/>
<stop offset="0.4865" stop-color="#1F9941"/>
<stop offset="0.7314" stop-color="#095729"/>
<stop offset="1" stop-color="#095729"/>
</linearGradient>
<linearGradient id="paint20_linear_61_8900" x1="828.683" y1="292.643" x2="958.134" y2="292.643" gradientUnits="userSpaceOnUse">
<stop stop-color="#E9FFFF"/>
<stop offset="0.3601" stop-color="#BEECD0"/>
<stop offset="0.7062" stop-color="#96D99D"/>
<stop offset="1" stop-color="#76AD7E"/>
</linearGradient>
<linearGradient id="paint21_linear_61_8900" x1="839.422" y1="247.878" x2="944.777" y2="308.819" gradientUnits="userSpaceOnUse">
<stop stop-color="#BEECD0"/>
<stop offset="0.2271" stop-color="#96D99D"/>
<stop offset="0.6802" stop-color="#1F9941"/>
<stop offset="1" stop-color="#095729"/>
</linearGradient>
<linearGradient id="paint22_linear_61_8900" x1="839.422" y1="247.878" x2="944.777" y2="308.819" gradientUnits="userSpaceOnUse">
<stop stop-color="#BEECD0"/>
<stop offset="0.0222208" stop-color="#96D99D"/>
<stop offset="0.2509" stop-color="#1F9941"/>
<stop offset="0.4865" stop-color="#1F9941"/>
<stop offset="0.7314" stop-color="#095729"/>
<stop offset="1" stop-color="#24635A"/>
</linearGradient>
<linearGradient id="paint23_linear_61_8900" x1="828.683" y1="265.937" x2="958.134" y2="265.937" gradientUnits="userSpaceOnUse">
<stop stop-color="#E9FFFF"/>
<stop offset="0.3601" stop-color="#BEECD0"/>
<stop offset="0.7062" stop-color="#96D99D"/>
<stop offset="1" stop-color="#76AD7E"/>
</linearGradient>
<linearGradient id="paint24_linear_61_8900" x1="736.128" y1="186.968" x2="1047.35" y2="366.99" gradientUnits="userSpaceOnUse">
<stop stop-color="#BEECD0"/>
<stop offset="0.2271" stop-color="#96D99D"/>
<stop offset="0.6802" stop-color="#1F9941"/>
<stop offset="1" stop-color="#095729"/>
</linearGradient>
<linearGradient id="paint25_linear_61_8900" x1="736.128" y1="186.968" x2="1047.35" y2="366.99" gradientUnits="userSpaceOnUse">
<stop stop-color="#BEECD0"/>
<stop offset="0.0880899" stop-color="#96D99D"/>
<stop offset="0.2288" stop-color="#96D99D"/>
<stop offset="0.3734" stop-color="#30A842"/>
<stop offset="0.5206" stop-color="#30A842"/>
<stop offset="0.6715" stop-color="#095729"/>
<stop offset="0.8281" stop-color="#24635A"/>
<stop offset="1" stop-color="#24635A"/>
</linearGradient>
<radialGradient id="paint26_radial_61_8900" cx="0" cy="0" r="1" gradientUnits="userSpaceOnUse" gradientTransform="translate(891.681 275.152) scale(181.585 181.243)">
<stop stop-color="#BEECD0"/>
<stop offset="0.151042" stop-color="#96D99D"/>
<stop offset="0.2064" stop-color="#96D99D"/>
<stop offset="0.3361" stop-color="#76AD7E"/>
<stop offset="0.4662" stop-color="#30A842"/>
<stop offset="0.597" stop-color="#30A842"/>
<stop offset="0.7289" stop-color="#095729"/>
<stop offset="0.8623" stop-color="#095729"/>
<stop offset="1" stop-color="#21555F"/>
</radialGradient>
<linearGradient id="paint27_linear_61_8900" x1="693.254" y1="261.423" x2="1093.56" y2="261.423" gradientUnits="userSpaceOnUse">
<stop stop-color="#E9FFFF"/>
<stop offset="0.3601" stop-color="#BEECD0"/>
<stop offset="0.7062" stop-color="#96D99D"/>
<stop offset="1" stop-color="#76AD7E"/>
</linearGradient>
<linearGradient id="paint28_linear_61_8900" x1="1156.09" y1="353.565" x2="1270.17" y2="419.549" gradientUnits="userSpaceOnUse">
<stop stop-color="#BEECD0"/>
<stop offset="0.2271" stop-color="#96D99D"/>
<stop offset="0.6802" stop-color="#1F9941"/>
<stop offset="1" stop-color="#095729"/>
</linearGradient>
<linearGradient id="paint29_linear_61_8900" x1="1141.78" y1="378.436" x2="1285.69" y2="378.436" gradientUnits="userSpaceOnUse">
<stop stop-color="#E9FFFF"/>
<stop offset="0.3601" stop-color="#BEECD0"/>
<stop offset="0.7062" stop-color="#96D99D"/>
<stop offset="1" stop-color="#76AD7E"/>
</linearGradient>
<linearGradient id="paint30_linear_61_8900" x1="1156.09" y1="288.928" x2="1270.17" y2="354.912" gradientUnits="userSpaceOnUse">
<stop stop-color="#BEECD0"/>
<stop offset="0.2271" stop-color="#96D99D"/>
<stop offset="0.6802" stop-color="#1F9941"/>
<stop offset="1" stop-color="#095729"/>
</linearGradient>
<linearGradient id="paint31_linear_61_8900" x1="1141.78" y1="313.799" x2="1285.69" y2="313.799" gradientUnits="userSpaceOnUse">
<stop stop-color="#E9FFFF"/>
<stop offset="0.3601" stop-color="#BEECD0"/>
<stop offset="0.7062" stop-color="#96D99D"/>
<stop offset="1" stop-color="#76AD7E"/>
</linearGradient>
<linearGradient id="paint32_linear_61_8900" x1="479.881" y1="615.684" x2="593.954" y2="681.667" gradientUnits="userSpaceOnUse">
<stop stop-color="#BEECD0"/>
<stop offset="0.2271" stop-color="#96D99D"/>
<stop offset="0.6802" stop-color="#1F9941"/>
<stop offset="1" stop-color="#095729"/>
</linearGradient>
<linearGradient id="paint33_linear_61_8900" x1="465.564" y1="640.555" x2="609.474" y2="640.555" gradientUnits="userSpaceOnUse">
<stop stop-color="#E9FFFF"/>
<stop offset="0.3601" stop-color="#BEECD0"/>
<stop offset="0.7062" stop-color="#96D99D"/>
<stop offset="1" stop-color="#76AD7E"/>
</linearGradient>
<linearGradient id="paint34_linear_61_8900" x1="479.881" y1="551.047" x2="593.954" y2="617.031" gradientUnits="userSpaceOnUse">
<stop stop-color="#BEECD0"/>
<stop offset="0.2271" stop-color="#96D99D"/>
<stop offset="0.6802" stop-color="#1F9941"/>
<stop offset="1" stop-color="#095729"/>
</linearGradient>
<linearGradient id="paint35_linear_61_8900" x1="465.564" y1="575.918" x2="609.474" y2="575.918" gradientUnits="userSpaceOnUse">
<stop stop-color="#E9FFFF"/>
<stop offset="0.3601" stop-color="#BEECD0"/>
<stop offset="0.7062" stop-color="#96D99D"/>
<stop offset="1" stop-color="#76AD7E"/>
</linearGradient>
<linearGradient id="paint36_linear_61_8900" x1="478.492" y1="548.438" x2="596.548" y2="548.438" gradientUnits="userSpaceOnUse">
<stop stop-color="#095729"/>
<stop offset="0.0725775" stop-color="#095729"/>
<stop offset="0.2791" stop-color="#1F9941"/>
<stop offset="0.4801" stop-color="#1F9941"/>
<stop offset="0.6715" stop-color="#96D99D"/>
<stop offset="0.8493" stop-color="#96D99D"/>
<stop offset="1" stop-color="#BEECD0"/>
</linearGradient>
<linearGradient id="paint37_linear_61_8900" x1="478.492" y1="528.275" x2="596.548" y2="528.275" gradientUnits="userSpaceOnUse">
<stop stop-color="#095729"/>
<stop offset="0.0725775" stop-color="#095729"/>
<stop offset="0.2791" stop-color="#1F9941"/>
<stop offset="0.4801" stop-color="#1F9941"/>
<stop offset="0.6715" stop-color="#96D99D"/>
<stop offset="0.8493" stop-color="#96D99D"/>
<stop offset="1" stop-color="#BEECD0"/>
</linearGradient>
<linearGradient id="paint38_linear_61_8900" x1="478.492" y1="508.112" x2="596.548" y2="508.112" gradientUnits="userSpaceOnUse">
<stop stop-color="#095729"/>
<stop offset="0.0725775" stop-color="#095729"/>
<stop offset="0.2791" stop-color="#1F9941"/>
<stop offset="0.4801" stop-color="#1F9941"/>
<stop offset="0.6715" stop-color="#96D99D"/>
<stop offset="0.8493" stop-color="#96D99D"/>
<stop offset="1" stop-color="#BEECD0"/>
</linearGradient>
<linearGradient id="paint39_linear_61_8900" x1="478.492" y1="487.95" x2="596.548" y2="487.95" gradientUnits="userSpaceOnUse">
<stop stop-color="#24635A"/>
<stop offset="0.0725775" stop-color="#24635A"/>
<stop offset="0.2791" stop-color="#1F9941"/>
<stop offset="0.4801" stop-color="#1F9941"/>
<stop offset="0.6715" stop-color="#96D99D"/>
<stop offset="0.8493" stop-color="#96D99D"/>
<stop offset="1" stop-color="#BEECD0"/>
</linearGradient>
<linearGradient id="paint40_linear_61_8900" x1="478.492" y1="518.194" x2="596.547" y2="518.194" gradientUnits="userSpaceOnUse">
<stop stop-color="#5761D7"/>
<stop offset="0.0001" stop-color="#095729"/>
<stop offset="0.0725775" stop-color="#095729"/>
<stop offset="0.2791" stop-color="#1F9941"/>
<stop offset="0.4801" stop-color="#1F9941"/>
<stop offset="0.6715" stop-color="#96D99D"/>
<stop offset="0.8493" stop-color="#96D99D"/>
<stop offset="1" stop-color="#BEECD0"/>
</linearGradient>
<linearGradient id="paint41_linear_61_8900" x1="478.492" y1="487.95" x2="596.548" y2="487.95" gradientUnits="userSpaceOnUse">
<stop stop-color="#24635A"/>
<stop offset="0.0725775" stop-color="#24635A"/>
<stop offset="0.2791" stop-color="#1F9941"/>
<stop offset="0.4801" stop-color="#1F9941"/>
<stop offset="0.6715" stop-color="#96D99D"/>
<stop offset="0.8493" stop-color="#96D99D"/>
<stop offset="1" stop-color="#BEECD0"/>
</linearGradient>
<linearGradient id="paint42_linear_61_8900" x1="478.494" y1="503.069" x2="596.547" y2="503.069" gradientUnits="userSpaceOnUse">
<stop stop-color="#095729"/>
<stop offset="0.0725775" stop-color="#095729"/>
<stop offset="0.2791" stop-color="#1F9941"/>
<stop offset="0.4801" stop-color="#1F9941"/>
<stop offset="0.6715" stop-color="#96D99D"/>
<stop offset="0.8493" stop-color="#96D99D"/>
<stop offset="1" stop-color="#BEECD0"/>
</linearGradient>
<clipPath id="clip0_61_8900">
<rect width="1331" height="798" fill="white"/>
</clipPath>
</defs>
</svg>
