<svg width="790" height="765" viewBox="0 0 790 765" fill="none" xmlns="http://www.w3.org/2000/svg">
    <g filter="url(#filter0_dd_313_804)">
        <path
            d="M431.81 642.199C426.467 638.86 425.021 638.415 423.462 639.528C417.675 643.646 416.785 643.645 412.221 639.194C408.66 635.855 407.658 633.851 407.102 629.4C405.766 620.385 399.756 616.489 391.632 619.606C388.515 620.83 388.738 620.941 380.613 611.37L377.831 608.031L368.593 609.923C363.474 611.036 358.688 611.926 357.909 611.926C357.13 611.926 356.017 609.923 355.349 607.586C354.793 605.137 353.346 602.132 352.233 600.685C350.452 598.571 349.896 598.459 347.781 599.572C346.446 600.24 344.887 600.574 344.331 600.24C343.774 599.906 342.55 595.009 341.437 589.333C340.324 583.657 338.989 578.203 338.543 577.202C337.987 576.089 335.316 574.308 332.533 573.084C327.636 570.858 327.525 570.747 327.525 565.404C327.525 558.17 326.412 557.28 318.065 558.17L311.165 558.727L310.497 555.165C309.384 549.934 309.273 550.046 314.17 548.599C316.841 547.82 319.623 545.928 321.181 543.813C322.739 541.698 326.969 538.916 332.533 536.245C340.213 532.572 342.661 530.791 350.675 521.999C355.683 516.434 359.801 510.981 359.801 509.868C359.801 508.643 361.359 510.09 363.696 513.652C367.258 518.883 367.592 520.107 367.703 527.564C367.703 534.575 368.371 537.358 373.045 548.933C377.942 560.953 378.276 562.511 377.386 567.185C376.05 574.419 376.718 575.532 382.06 574.865C384.509 574.531 386.735 574.642 387.069 575.198C387.959 576.534 385.622 581.987 383.507 583.546C381.838 584.77 381.949 585.215 384.064 588.665C386.178 592.227 386.289 592.783 384.843 595.677C382.06 600.908 382.728 602.577 387.402 603.356C393.746 604.469 397.419 604.247 399.868 602.689C401.76 601.576 402.65 601.909 406.434 605.694C411.665 610.702 413.334 610.479 416.562 604.135C417.786 601.687 419.678 599.684 420.68 599.684C425.132 599.684 436.595 602.355 436.595 603.468C436.595 604.135 435.816 607.029 434.703 609.923L432.811 615.154L439.044 624.391C448.504 638.748 448.281 637.858 444.275 642.421C442.383 644.647 440.268 646.428 439.6 646.317C438.821 646.317 435.371 644.536 431.81 642.199Z"
            fill="#ECF0F3" />
        <path
            d="M406.213 601.687C402.541 598.682 401.65 598.348 399.202 599.461C396.308 600.796 388.517 601.242 387.404 600.129C387.071 599.795 387.293 597.791 387.961 595.677C388.74 593.228 388.74 591.114 388.072 589.444C387.293 587.663 387.516 585.326 388.963 580.986C391.856 572.082 391.856 571.859 385.512 571.859H380.059L380.615 565.961C381.172 560.73 380.615 558.726 376.052 548.042C371.934 538.248 370.933 534.798 370.933 529.456C370.933 523.446 371.378 522.11 376.164 514.987C379.836 509.422 381.617 505.527 382.062 501.965L382.619 496.735L390.966 494.175C400.983 491.058 401.873 490.391 399.981 486.829C397.755 482.823 398.757 481.71 406.213 478.816L413.114 476.256L415.896 479.929C418.122 482.934 419.68 483.713 424.243 484.381C430.142 485.16 432.591 487.386 436.597 495.399C437.488 497.18 439.491 499.072 441.049 499.628C442.607 500.296 444.833 501.632 446.057 502.745C450.287 506.529 463.308 513.095 465.534 512.539C468.317 511.759 468.317 513.54 465.646 521.22L463.642 526.784L457.298 527.118C450.621 527.452 446.057 525.56 441.606 520.663C440.493 519.439 438.935 518.437 438.044 518.437C435.262 518.437 424.355 526.451 424.355 528.454C424.355 531.904 430.142 543.924 432.034 544.481C439.602 546.706 450.287 548.487 454.627 548.265C457.521 548.153 460.303 548.376 460.637 548.71C461.082 549.155 460.081 551.715 458.411 554.497C455.629 559.283 455.406 559.394 452.179 558.281C450.287 557.614 447.727 557.391 446.28 557.725C443.386 558.504 432.145 568.854 432.145 570.746C432.145 571.525 429.92 577.535 427.026 584.102C423.019 593.673 421.461 596.233 419.569 596.567C418.122 596.678 416.23 598.459 414.895 601.019C413.67 603.356 412.223 605.248 411.556 605.137C410.999 605.137 408.551 603.579 406.213 601.687Z"
            fill="#ECF0F3" />
        <path regionid="64" region="саратовская область"
            d="M247.616 565.515C247.059 564.402 246.169 561.731 245.724 559.617C245.278 557.391 243.164 551.047 240.938 545.371C237.488 536.356 236.597 534.909 233.926 534.353C232.034 534.019 230.142 532.349 228.584 529.456C226.803 526.228 225.245 525.004 222.574 524.447L218.901 523.779L219.013 514.097C219.013 507.864 218.567 503.635 217.677 502.633C216.898 501.743 212.446 500.073 207.772 498.849C200.092 496.957 199.091 496.401 197.532 493.173C196.197 490.279 196.086 488.944 197.087 486.94C197.755 485.605 198.534 482.489 198.645 480.04C198.979 475.699 199.202 475.477 207.326 471.359C211.89 469.133 216.23 467.241 216.898 467.241C217.454 467.241 220.014 469.244 222.463 471.804C224.8 474.253 230.253 479.372 234.371 483.045C241.272 489.166 242.83 490.057 251.734 492.394C259.302 494.397 262.529 495.955 265.868 498.849C268.205 501.075 272.323 503.635 275.106 504.525C277.999 505.527 280.893 506.751 281.783 507.085C286.124 509.311 303.486 547.374 300.815 549.044C299.368 549.934 276.775 553.718 267.204 554.72C258.968 555.499 256.631 557.168 254.627 563.29C253.292 567.407 249.285 568.632 247.616 565.515Z"
            fill="#ECF0F3" />
        <path regionid="63" region="самарская область"
            d="M302.04 539.361C299.814 532.127 291.355 514.765 288.239 510.869C287.349 509.756 287.794 509.2 289.686 508.755C292.023 508.087 292.134 507.753 291.355 500.296C290.465 490.836 290.688 490.613 301.483 490.613C308.94 490.613 309.608 490.836 315.284 495.065C318.623 497.514 321.517 499.517 321.739 499.517C321.962 499.517 324.744 497.291 327.972 494.509L333.87 489.5L336.319 492.839C339.101 496.735 340.882 496.957 343.664 493.952C346.224 491.058 347.782 491.059 351.121 494.286C352.902 495.956 354.349 499.072 355.35 503.635L356.797 510.535L348.561 519.773C338.767 530.68 339.88 529.79 330.865 533.685C326.414 535.577 321.85 538.582 319.068 541.476C316.174 544.369 313.392 546.261 311.834 546.261C310.387 546.261 308.161 546.484 306.937 546.818C304.933 547.374 304.266 546.484 302.04 539.361Z"
            fill="#ECF0F3" />
        <path regionid="16" region="республика татарстан"
            d="M365.368 510.535C362.808 506.862 360.359 504.191 359.803 504.525C358.912 505.082 356.464 498.515 356.464 495.399C356.464 493.952 349.452 488.387 347.56 488.387C346.781 488.387 344.889 489.389 343.331 490.613L340.326 492.95L337.877 489.834C336.431 488.053 335.318 486.161 335.318 485.494C335.318 484.826 334.093 483.156 332.758 481.821C331.311 480.485 329.53 477.369 328.751 474.921C327.638 471.025 327.082 470.58 323.854 470.58C319.736 470.469 318.623 469.912 316.063 465.906C314.505 463.346 313.281 462.789 308.384 462.567C304.266 462.344 302.374 461.676 302.151 460.563C301.929 459.339 302.819 458.783 304.934 458.783C306.715 458.783 310.499 458.671 313.392 458.56L318.846 458.337L318.401 453.663L318.067 448.989L324.188 446.985C327.527 445.872 334.872 443.535 340.549 441.754L350.677 438.527L354.683 441.198C357.354 443.09 359.469 443.646 361.361 443.201C364.255 442.533 364.477 442.979 367.148 457.67C368.039 462.567 371.6 471.248 373.047 472.138C373.603 472.472 378.389 471.248 383.731 469.467C389.074 467.575 393.971 466.462 394.416 466.685C396.419 467.909 395.306 471.693 392.079 475.366C387.961 480.04 387.961 481.264 391.522 482.155C395.084 483.045 397.977 488.387 395.418 489.278C394.527 489.612 390.743 490.947 387.07 492.171L380.393 494.509L379.836 499.628C379.391 502.967 377.833 506.974 375.05 511.092C372.824 514.431 370.71 517.324 370.376 517.324C370.153 517.324 367.816 514.319 365.368 510.535Z"
            fill="#ECF0F3" />
        <path regionid="73" regioin="ульяновская область"
            d="M280.448 503.412C277.443 502.522 272.991 500.519 270.543 498.849L265.979 495.956L272.435 490.168L279.001 484.381L277.554 477.703C276.775 474.03 276.33 469.133 276.553 466.685L276.886 462.233L282.896 461.899C288.35 461.565 288.906 461.231 290.019 458.226C290.687 456.445 291.8 454.999 292.468 454.999C295.028 454.999 298.478 458.449 298.812 461.342C299.034 463.012 299.925 464.459 300.815 464.57C313.169 466.239 313.058 466.239 314.727 469.467C316.174 472.138 317.176 472.806 320.403 472.806C323.853 472.806 324.521 473.251 326.079 476.924C326.97 479.261 328.862 482.266 330.086 483.713L332.535 486.273L327.304 491.281L321.961 496.289L316.063 491.726C310.498 487.608 309.608 487.274 302.93 487.274C299.034 487.274 293.915 487.831 291.466 488.499L287.237 489.612L287.905 497.291C288.795 505.972 289.129 505.75 280.448 503.412Z"
            fill="#ECF0F3" />
        <path
            d="M441.605 496.401C440.937 495.956 438.711 492.839 436.708 489.5C434.705 486.05 432.924 483.268 432.813 483.045C432.59 482.934 429.808 482.266 426.469 481.71C421.794 480.819 419.791 479.706 417.343 476.924C414.56 473.696 410.554 466.128 411.221 465.46C411.444 465.349 413.447 464.459 415.784 463.457C418.01 462.567 419.902 461.12 419.902 460.229C419.902 459.45 421.906 454.553 424.354 449.545C427.137 443.758 428.806 438.749 428.806 436.078C428.806 429.4 430.03 425.171 432.701 422.389C434.037 421.053 435.929 418.382 436.819 416.601C438.378 413.708 438.378 412.817 436.931 408.811C435.484 404.47 435.484 404.248 437.932 402.244C442.162 398.905 449.618 391.782 450.509 390.447C450.843 389.779 448.394 386.329 444.944 382.767C438.823 376.201 438.711 376.09 439.045 370.191C439.379 364.515 439.602 364.292 442.607 363.847C444.388 363.736 447.504 363.847 449.618 364.181C452.735 364.849 453.848 365.851 455.851 370.191C458.3 375.199 458.522 375.422 467.537 378.093L476.663 380.764L487.793 378.761C500.147 376.424 501.705 376.646 517.064 382.211C521.738 383.88 525.634 385.995 525.634 386.774C525.634 387.553 524.632 390.113 523.408 392.339C522.183 394.676 521.182 397.792 521.182 399.462C521.182 404.582 505.044 422.723 498.366 424.949L494.248 426.284L494.805 431.515C495.139 434.409 496.251 438.527 497.364 440.753C499.145 444.537 499.145 444.982 497.476 447.653C496.474 449.211 495.584 451.882 495.584 453.774C495.584 456.779 495.027 457.225 489.24 459.339C482.117 462.01 480.002 464.014 480.002 468.132C480.002 470.803 479.891 470.803 473.324 470.135L466.758 469.356L463.976 474.921L461.082 480.485L454.738 480.819L448.283 481.153L446.613 488.833C444.944 496.401 443.831 498.07 441.605 496.401Z"
            fill="#ECF0F3" />
        <path regionid="58" region="пензенская область"
            d="M253.181 489.723C243.053 486.829 242.385 486.384 232.368 477.258C226.692 472.027 221.684 467.019 221.35 466.239C220.905 465.349 221.461 464.125 222.352 463.457C223.799 462.344 224.021 459.896 223.799 448.877L223.465 435.633L226.47 434.52C230.81 432.962 243.053 441.087 248.061 448.989C252.624 456 253.181 456.445 255.852 454.442C257.633 453.218 258.746 453.329 264.088 455.666C273.325 459.784 273.77 460.563 274.438 473.14L274.883 483.936L269.764 488.387C266.981 490.836 264.422 492.728 264.088 492.728C263.754 492.728 258.857 491.281 253.181 489.723Z"
            fill="#ECF0F3" />
        <path
            d="M395.194 476.924C397.086 474.92 397.643 472.917 397.643 468.577C397.643 461.565 397.531 461.565 384.51 465.794C375.383 468.799 375.161 468.799 373.603 466.685C371.488 463.791 371.599 461.676 374.382 454.442C375.94 450.101 377.275 448.321 378.722 448.321C381.505 448.321 382.84 446.317 383.731 440.53C384.844 433.741 385.289 433.296 390.297 433.296C394.526 433.296 394.86 432.962 399.869 424.949C405.99 415.377 405.433 415.488 417.676 421.387L426.023 425.505L425.689 433.296C425.467 438.193 424.688 442.311 423.463 444.425C422.35 446.206 420.347 450.435 419.011 453.886C416.897 459.005 415.784 460.229 412 461.899C407.993 463.568 407.548 464.125 408.216 466.351C410.33 472.917 409.774 474.141 402.651 476.813C393.97 480.263 392.078 480.263 395.194 476.924Z"
            fill="#ECF0F3" />
        <path
            d="M266.537 453.552C259.637 450.213 256.965 449.434 256.075 450.324C253.96 452.327 253.404 451.993 250.176 446.54C248.173 443.09 244.834 439.862 239.603 436.412L231.812 431.292L236.042 426.729C238.379 424.169 241.94 420.163 244.055 417.826C249.731 411.593 251.067 411.148 257.522 413.262L262.975 415.043V422.834C262.975 429.4 263.532 431.404 266.426 436.635C268.318 439.973 270.21 442.978 270.766 443.201C271.211 443.535 275.218 441.977 279.559 439.862C284.01 437.748 287.794 436.078 288.017 436.078C288.24 436.078 289.464 438.081 290.688 440.53L293.025 444.982L289.686 451.66L286.348 458.337L281.005 458.226C277.221 458.115 273.215 456.89 266.537 453.552Z"
            fill="#ECF0F3" />
        <path
            d="M297.365 453.886C294.137 451.215 293.915 450.658 294.916 447.542C295.696 445.538 295.696 443.535 295.139 442.645C293.47 439.974 294.026 438.861 297.81 437.191C301.038 435.633 301.372 434.965 301.706 429.734C302.039 424.058 302.151 423.836 305.935 423.168C308.049 422.723 312.501 423.168 316.063 424.058L322.518 425.616L324.521 431.626C325.523 434.965 326.747 438.527 327.081 439.64C327.526 441.087 326.191 442.311 321.182 444.648C315.061 447.542 314.727 447.987 315.061 451.326C315.395 455.444 314.95 455.666 306.714 456.334C301.706 456.779 300.481 456.445 297.365 453.886Z"
            fill="#ECF0F3" />
        <path
            d="M369.374 453.663C369.04 452.884 367.482 444.425 365.812 435.077C364.031 425.616 362.028 417.269 361.36 416.601C359.913 415.155 342.44 410.925 339.88 411.482C338.99 411.593 336.875 412.817 335.206 414.042C333.425 415.377 331.867 416.156 331.644 415.934C331.422 415.711 330.865 413.151 330.531 410.369C329.975 405.806 330.197 405.027 333.87 401.243C336.207 398.683 338.433 397.236 339.658 397.57C340.659 397.792 342.663 398.349 343.998 398.794C345.89 399.351 347.893 398.683 351.01 396.457C353.347 394.787 355.35 393.007 355.35 392.561C355.35 392.005 352.679 389.445 349.34 386.885C346.001 384.214 343.219 381.543 343.219 380.764C343.108 380.096 345.556 377.982 348.45 376.09C353.236 372.973 354.794 372.639 361.805 372.639H369.819V365.517C369.819 359.507 370.264 358.171 372.601 355.945C374.159 354.498 375.384 352.606 375.384 351.827C375.384 350.937 376.497 348.154 377.721 345.595C379.613 342.033 379.835 340.586 378.834 339.028C377.721 337.247 378.5 336.58 385.4 333.129C389.629 331.015 393.636 329.234 394.193 329.234C394.749 329.234 396.085 330.57 397.086 332.239C398.978 335.021 398.978 335.578 397.198 342.478C395.751 347.82 394.193 350.937 391.188 353.942L387.181 358.171L388.405 363.958C390.631 374.754 393.302 382.656 394.749 382.656C395.528 382.656 398.756 380.319 401.983 377.648C405.211 374.865 407.882 372.639 407.993 372.639C408.105 372.639 412 373.641 416.563 374.865C421.126 376.09 427.47 377.091 430.475 377.091C435.817 377.203 436.263 377.425 441.605 383.435L447.17 389.668L439.379 396.791L431.699 403.914L433.48 408.811C435.261 413.596 435.261 413.596 431.922 418.16C430.141 420.608 428.361 422.723 428.138 422.723C427.804 422.723 425.244 421.498 422.239 419.94C412.556 415.043 405.211 412.595 403.653 413.93C402.874 414.487 400.203 418.493 397.754 422.723C393.191 430.291 393.08 430.402 387.96 430.736L382.618 431.07L381.171 437.97C379.947 443.424 379.168 444.982 377.61 444.982C375.161 444.982 373.603 446.763 372.601 450.769C371.711 454.331 370.041 455.778 369.374 453.663Z"
            fill="#ECF0F3" />
        <path
            d="M330.531 440.864C330.308 440.308 328.861 436.078 327.526 431.293C325.968 425.951 324.298 422.5 323.185 422.278C322.184 421.944 318.511 421.165 314.949 420.497L308.494 419.162L308.828 412.929L309.162 406.808L314.17 405.361C318.399 404.025 319.512 404.137 321.627 405.472C322.963 406.362 324.855 407.142 325.634 407.142C326.747 407.142 327.526 409.145 327.971 413.819C328.861 421.61 329.863 421.944 336.429 417.269L340.881 414.042L350.008 416.157C355.016 417.381 359.356 418.494 359.468 418.716C359.69 418.828 360.581 423.168 361.471 428.288C362.918 436.524 362.918 437.859 361.471 439.306C360.024 440.753 359.468 440.642 356.685 438.527C354.905 437.303 352.79 436.079 351.9 435.856C350.564 435.633 338.321 438.972 332.645 441.198C331.866 441.532 330.865 441.309 330.531 440.864Z"
            fill="#ECF0F3" />
        <path
            d="M268.539 434.075C266.759 430.513 265.646 426.173 265.2 420.497L264.644 412.261L257.855 410.258C251.066 408.254 246.503 404.248 247.727 401.131C248.061 400.464 255.406 396.679 264.088 392.673C276.441 386.997 280.225 384.771 281.45 382.322C283.342 378.872 283.119 378.872 288.684 380.542C292.579 381.655 293.136 381.543 296.141 379.095C298.923 376.757 301.038 376.201 308.829 375.644C314.059 375.311 319.29 374.42 320.626 373.53C322.852 372.194 323.631 372.417 328.194 374.865C330.976 376.424 337.209 380.875 342.106 384.771C350.787 391.56 350.898 391.894 349.006 394.008C347.114 396.012 343.219 396.123 338.211 394.231C337.32 393.897 334.315 396.123 331.422 399.239L326.191 404.804L323.186 402.578C320.403 400.464 320.069 400.464 313.058 402.356L305.824 404.359L305.49 411.927C305.156 419.161 305.044 419.495 301.928 420.608C298.812 421.721 298.589 422.166 298.589 427.62C298.589 432.739 298.255 433.63 295.696 434.965C293.136 436.412 292.691 436.301 291.355 434.631C289.574 432.072 288.795 432.183 280.559 436.078C276.775 437.859 272.991 439.417 272.435 439.417C271.767 439.417 269.986 436.969 268.539 434.075Z"
            fill="#ECF0F3" />
        <path
            d="M121.629 471.025C120.85 470.135 119.626 463.902 118.958 457.224C118.29 450.435 117.177 444.536 116.621 443.98C115.953 443.424 113.059 442.088 110.166 440.975C105.714 439.417 104.044 437.859 100.817 432.85C97.144 427.063 97.0327 426.506 98.2569 422.389C98.9247 420.051 100.149 417.825 100.928 417.603C103.154 416.712 111.279 420.163 116.843 424.281C120.294 426.952 123.187 428.287 125.636 428.287C128.641 428.287 129.976 429.178 133.204 433.073C136.877 437.525 137.211 438.526 137.211 445.093C137.099 455.777 135.764 460.007 130.421 466.017C124.634 472.472 123.299 473.14 121.629 471.025Z"
            fill="#ECF0F3" />
        <path
            d="M110.722 379.428C109.497 378.649 109.497 377.647 110.61 373.975C112.614 366.963 111.723 365.961 103.487 365.961H96.3645L95.5855 360.285C94.9177 355.277 94.4725 354.498 91.0223 352.828C88.9077 351.827 87.127 350.38 87.127 349.49C87.127 347.598 95.808 334.798 97.1436 334.798C97.7001 334.798 98.4791 335.8 98.813 336.913C99.926 340.363 114.84 343.813 117.845 341.365C118.846 340.475 123.855 339.584 129.531 339.25C138.657 338.694 139.325 338.805 139.881 340.92C141.106 345.372 140.438 348.599 137.655 352.383C134.094 356.835 132.091 365.516 133.983 367.742C134.984 368.966 134.762 369.3 132.981 369.3C131.645 369.3 128.863 371.526 126.081 374.865C121.851 379.873 120.961 380.43 116.843 380.43C114.283 380.319 111.501 379.985 110.722 379.428Z"
            fill="#ECF0F3" />
        <path
            d="M331.533 371.86L323.853 366.741L319.735 369.189C313.614 372.639 307.715 372.194 300.926 367.854C296.252 364.849 295.362 363.847 295.696 361.51C296.029 359.506 294.805 357.392 290.242 352.717C284.566 346.819 284.232 346.596 281.561 348.043C278.667 349.49 272.88 349.045 269.764 347.152C267.426 345.594 274.104 340.03 284.121 334.91C288.684 332.461 294.026 329.79 295.807 328.789C298.144 327.564 302.039 327.008 308.383 327.008C319.847 327.008 324.966 329.234 330.086 336.691C337.654 347.598 340.103 349.601 349.674 352.495C358.133 354.943 358.8 355.055 360.692 353.274C363.252 351.048 368.706 350.825 368.706 352.94C368.706 353.83 367.927 355.166 367.036 355.945C365.923 356.835 365.367 359.284 365.367 363.179V369.078L359.134 368.521C353.903 368.076 352.234 368.41 348.784 370.636C338.099 377.759 339.991 377.648 331.533 371.86Z"
            fill="#ECF0F3" />
        <path
            d="M141.329 367.297C136.098 365.516 135.875 365.294 136.432 361.955C136.766 359.951 138.546 356.279 140.438 353.719C143.555 349.378 143.777 348.488 143.221 342.589C142.553 337.136 142.776 336.134 144.445 335.466C145.781 334.91 147.45 335.578 149.453 337.47C152.236 340.252 152.792 340.363 162.92 339.696C168.708 339.362 174.606 338.916 176.164 338.694C178.39 338.36 179.392 339.028 180.839 341.476C181.952 343.368 183.51 344.815 184.4 344.815C186.849 344.815 189.52 349.267 189.52 353.496C189.52 356.279 188.63 358.059 186.07 360.508C182.174 364.181 179.726 364.403 172.603 361.955L167.483 360.174L160.249 364.737C152.458 369.745 149.787 370.079 141.329 367.297Z"
            fill="#ECF0F3" />
        <path
            d="M269.875 375.533C261.416 364.737 255.74 359.284 253.292 359.284C252.067 359.284 250.398 358.505 249.619 357.614C248.506 356.167 248.617 355.5 250.287 353.608C251.956 351.715 252.067 350.936 250.954 349.156C248.951 345.928 250.175 344.815 255.629 344.815C258.856 344.815 261.416 345.594 264.087 347.486C268.984 351.159 278.89 353.496 281.338 351.493C282.785 350.269 283.453 350.38 285.456 352.161C291.021 356.946 292.913 359.729 292.245 362.734C291.8 365.294 292.356 366.073 296.252 368.187C301.371 371.081 302.039 372.639 298.366 372.639C297.031 372.639 294.805 373.641 293.469 374.976C291.466 376.757 290.576 376.98 288.795 376.089C284.566 373.752 281.004 374.531 279.112 378.093C278.222 379.873 276.998 381.654 276.441 381.988C275.885 382.322 272.88 379.428 269.875 375.533Z"
            fill="#ECF0F3" />
        <path
            d="M135.207 430.624C132.425 427.174 130.644 426.061 126.971 425.505C124.078 424.948 119.96 423.056 116.621 420.496C113.616 418.27 108.941 415.822 106.382 415.043C102.486 413.93 101.596 413.151 101.596 411.148C101.596 409.701 100.594 405.694 99.37 402.132C96.4763 393.674 96.4763 393.34 101.039 391.225C103.154 390.224 105.714 387.775 106.604 385.883C108.385 382.433 108.719 382.322 114.172 382.878C119.515 383.435 120.294 383.991 125.858 390.001C134.094 399.128 134.873 400.352 136.209 407.475C137.211 412.928 138.101 414.598 143.443 419.829C146.782 423.167 149.453 426.395 149.453 426.952C149.453 427.508 148.118 428.844 146.448 429.957C137.99 435.41 138.991 435.299 135.207 430.624Z"
            fill="#ECF0F3" />
        <path
            d="M172.603 444.87C169.82 443.423 168.151 441.531 167.26 438.86C166.593 436.746 165.368 434.52 164.701 434.075C163.922 433.629 162.475 431.96 161.473 430.291C160.36 428.621 158.023 427.063 156.131 426.618C154.239 426.173 151.345 424.058 149.453 421.721L146.114 417.714L150.01 417.38C153.349 417.046 154.684 416.045 158.579 410.702C161.028 407.141 163.476 403.913 164.033 403.357C164.478 402.8 166.148 403.802 167.594 405.471L170.266 408.588L175.163 406.584C177.834 405.583 180.616 404.47 181.284 404.136C182.397 403.691 193.972 417.603 193.972 419.272C193.972 419.606 191.189 421.943 187.85 424.392L181.729 428.844L181.952 437.08C182.285 445.093 182.174 445.427 179.392 446.095C177.611 446.651 175.163 446.206 172.603 444.87Z"
            fill="#ECF0F3" />
        <path regionid="77" region="москва"
            d="M203.543 355.5C203.209 354.164 202.875 351.493 202.875 349.601C202.875 346.262 203.209 346.039 207.772 345.26C214.116 344.37 215.118 345.038 215.118 350.38C215.118 355.277 214.895 355.388 208.774 356.835C204.544 357.725 204.099 357.614 203.543 355.5Z"
            fill="#ECF0F3" />
        <path regionid="50" region="московская область"
            d="M196.865 385.216C196.643 384.882 197.088 383.101 197.867 381.209C199.203 377.981 198.98 377.091 195.419 369.3C192.191 362.177 191.634 360.174 192.302 355.722C193.081 349.601 190.299 342.589 187.183 342.589C186.181 342.589 184.178 340.809 182.842 338.694L180.505 334.799L184.178 328.121C187.183 322.667 188.518 321.22 191.746 320.33C198.09 318.549 200.316 318.995 203.209 322.667C205.658 325.784 207.105 326.34 216.787 328.232C230.699 330.903 238.379 336.357 230.699 338.137C228.696 338.583 227.583 340.363 225.58 346.373C223.243 353.051 223.131 354.609 224.244 358.393C224.912 360.731 226.915 363.958 228.696 365.405C232.369 368.41 232.48 369.412 229.698 375.422C227.694 379.873 227.472 379.985 219.458 381.432C214.895 382.211 208.106 383.546 204.322 384.325C200.538 385.104 197.199 385.438 196.865 385.216ZM210.666 359.395L217.9 357.392L218.234 351.382C218.679 342.589 217.455 341.476 207.884 342.367L200.093 343.146L200.427 350.937C200.761 359.172 201.206 361.51 202.541 361.51C203.098 361.51 206.659 360.508 210.666 359.395Z"
            fill="#ECF0F3" />
        <path
            d="M140.995 412.483C140.438 411.704 139.437 408.031 138.658 404.47C137.545 399.016 136.321 397.013 130.533 390.78C126.638 386.551 124.078 383.101 124.634 382.322C127.528 377.091 131.98 372.75 133.538 373.418C134.54 373.752 135.875 373.307 136.766 372.083C138.101 370.302 138.88 370.302 146.003 371.638L153.794 373.084L154.462 378.538C155.018 382.211 156.354 385.104 158.468 387.553C163.365 393.118 163.032 399.35 157.467 407.141C153.46 413.04 153.126 413.262 147.561 413.596C143.777 413.819 141.551 413.374 140.995 412.483Z"
            fill="#ECF0F3" />
        <path regionid="62" region="рязанская область"
            d="M224.132 424.614C220.681 421.164 220.57 421.164 215.451 422.5C211.778 423.502 209.997 423.613 209.774 422.722C208.884 420.163 205.879 418.271 202.54 418.271C197.977 418.159 197.421 417.825 191.299 409.923C185.735 402.689 185.401 402.021 187.849 401.131C188.74 400.797 190.743 398.015 192.301 394.898C194.082 391.337 195.974 389.111 197.643 388.777C203.542 387.33 223.686 383.769 225.801 383.769C228.138 383.769 237.153 394.119 243.386 404.025L246.613 409.367L238.378 418.048C233.814 422.945 229.585 427.063 228.806 427.508C228.138 427.842 226.024 426.506 224.132 424.614Z"
            fill="#ECF0F3" />
        <path
            d="M120.182 335.689C116.843 333.797 117.733 321.554 122.074 308.199C125.636 297.514 126.415 296.068 132.536 289.946C139.102 283.38 139.214 283.38 142.998 284.715C146.114 285.828 148.117 288.054 153.237 296.513L159.692 306.975H167.928H176.164L180.616 312.651C183.064 315.767 185.068 318.661 185.068 319.217C185.068 320.441 178.501 332.684 176.832 334.465C175.941 335.355 171.156 336.245 164.255 336.579L153.014 337.358L150.232 334.131L147.45 330.903L142.107 333.352C136.209 335.911 123.076 337.358 120.182 335.689Z"
            fill="#ECF0F3" />
        <path
            d="M191.077 466.907C182.841 458.003 180.949 455.555 180.17 452.439C179.613 449.879 179.836 449.322 182.396 448.766C185.178 447.987 185.178 447.875 184.956 439.306C184.733 434.52 184.844 430.402 185.178 430.179C193.192 423.613 196.976 421.61 200.871 421.61C204.321 421.61 205.434 422.055 206.436 424.392C207.883 427.508 207.994 427.62 214.672 425.839C219.346 424.726 220.014 424.837 222.129 427.063L224.577 429.512L221.461 431.738L218.344 434.075L219.124 447.208L219.903 460.341L208.662 466.017C202.429 469.133 196.976 471.693 196.419 471.693C195.974 471.693 193.525 469.578 191.077 466.907Z"
            fill="#ECF0F3" />
        <path regionid="69" region="тверская область"
            d="M231.7 329.902C229.586 328.01 225.802 326.785 218.233 325.45C208.551 323.669 207.549 323.224 204.655 319.551C201.65 315.767 201.316 315.656 196.531 316.435C193.748 316.769 190.855 317.325 190.187 317.659C189.408 317.882 186.514 315.099 183.62 311.426L178.389 304.749H170.933C166.703 304.637 162.808 304.303 162.14 303.858C160.471 302.745 150.565 286.719 150.565 285.161C150.565 284.381 152.124 283.157 153.904 282.489C158.022 280.709 158.913 279.151 160.026 271.916C161.361 262.456 164.144 259.896 167.482 264.905C168.707 266.797 171.712 267.91 180.17 269.69C186.18 271.026 192.747 272.807 194.75 273.586C197.866 274.921 198.979 274.81 205.768 271.916L213.225 268.689L219.68 275.589C225.245 281.599 226.469 282.378 228.361 281.376C231.7 279.596 233.592 279.93 239.268 283.602C243.164 286.051 245.835 286.941 249.73 286.941C254.293 286.941 255.072 287.275 255.629 289.612C256.631 293.619 254.627 297.626 248.729 303.413C242.162 309.757 238.267 318.995 240.604 322.667C241.828 324.671 241.606 325.45 239.046 328.677C237.488 330.792 235.818 332.573 235.373 332.461C234.928 332.461 233.258 331.348 231.7 329.902Z"
            fill="#ECF0F3" />
        <path
            d="M168.596 401.465C167.594 399.684 166.37 398.237 165.924 398.237C165.368 398.237 165.034 396.457 165.034 394.342C165.034 391.56 164.032 389.334 161.584 386.551C158.579 383.101 158.022 381.654 157.911 376.201L157.8 369.968L162.808 366.852L167.816 363.736L174.383 365.628C180.838 367.408 181.061 367.408 185.067 365.071L189.297 362.623L192.413 369.634C195.974 377.648 195.974 377.87 193.748 383.435C187.182 399.35 187.516 398.905 176.831 402.578L170.488 404.804L168.596 401.465Z"
            fill="#ECF0F3" />
        <path
            d="M237.933 391.337C229.697 380.987 230.031 382.322 233.37 374.865L236.264 368.187L232.257 364.515C226.47 359.284 225.802 356.724 228.028 348.488C229.03 344.593 230.254 341.476 230.588 341.476C230.922 341.476 232.702 343.257 234.483 345.483C237.488 349.267 237.933 349.378 242.385 348.711C248.061 347.932 249.731 349.378 246.726 352.717C244.834 354.721 244.834 355.166 246.392 357.948C247.282 359.618 249.731 361.51 251.734 362.177C256.742 363.736 273.437 382.545 271.545 384.437C270.432 385.55 244.834 397.124 243.609 397.013C242.942 397.013 240.382 394.453 237.933 391.337Z"
            fill="#ECF0F3" />
        <path
            d="M138.324 490.613C135.541 488.832 132.87 487.385 132.202 487.274C131.312 487.274 126.971 480.93 125.191 477.146C125.079 476.701 127.862 473.139 131.535 469.133C138.769 461.12 140.55 456.111 140.55 443.98V437.525L146.782 433.295C153.794 428.621 157.689 428.621 159.47 433.295C160.026 434.854 161.028 436.078 161.696 436.078C162.364 436.078 163.81 438.304 165.035 440.975C166.593 444.648 168.151 446.428 170.933 447.541C174.94 449.211 178.39 453.106 178.39 456C178.39 457.002 181.952 461.453 186.181 466.128C193.193 473.696 193.972 474.92 193.972 479.149C193.972 484.937 192.191 485.382 186.404 480.93C182.842 478.259 182.063 478.037 174.272 478.704C169.709 479.038 165.702 479.595 165.369 479.817C165.035 480.151 164.478 482.154 164.033 484.158C163.365 487.385 162.475 488.164 156.799 490.39C146.893 494.286 144.111 494.397 138.324 490.613Z"
            fill="#ECF0F3" />
        <path
            d="M236.932 343.702C234.483 341.031 235.263 338.026 240.16 332.016C245.168 325.672 245.39 325.116 243.944 322.333C241.829 318.438 244.723 311.649 251.4 304.971C258.857 297.626 261.306 297.514 267.204 303.858L271.656 308.533L274.773 306.418C277.555 304.526 277.889 304.526 279.224 306.307C280.56 308.199 283.009 322.222 283.009 328.566C283.009 331.46 282.452 332.461 280.449 332.907C279.113 333.24 275.329 335.912 271.99 338.694C267.316 342.701 265.424 343.702 263.643 343.035C259.636 341.699 246.17 342.589 244.389 344.259C242.163 346.485 239.158 346.262 236.932 343.702Z"
            fill="#ECF0F3" />
        <path
            d="M38.046 602.131C37.267 600.462 36.3766 598.681 36.154 598.236C35.9314 597.791 36.9331 597.457 38.3799 597.457C39.8268 597.345 41.7188 596.9 42.6092 596.344C43.9447 595.453 44.056 594.897 42.9431 593.005C40.6059 589.332 41.2736 587.885 45.8368 585.771C50.066 583.879 53.2936 579.427 52.0693 577.312C51.6242 576.756 49.7321 576.31 47.6175 576.31C43.3883 576.31 38.6025 572.192 37.4896 567.629C36.4879 563.734 37.7122 563.4 41.4962 566.628C44.056 568.742 46.282 569.633 49.3982 569.633C53.4049 569.633 53.9614 569.967 55.5195 573.528C57.7454 578.87 58.8584 591.002 57.3003 593.673C56.1873 595.565 55.9647 595.453 54.8517 592.114C54.0727 590.111 52.9597 588.553 52.1806 588.553C51.5129 588.553 48.7305 592.226 45.9481 596.9C43.277 601.463 40.7171 605.247 40.272 605.247C39.9381 605.247 38.9364 603.801 38.046 602.131Z"
            fill="#ECF0F3" />
        <path regionid="30" region="астраханская область"
            d="M184.511 647.985C177.165 647.206 170.265 646.761 169.263 647.095C168.15 647.429 166.592 647.206 165.591 646.65C164.255 645.87 164.812 644.869 168.818 640.862L173.827 636.076L171.601 631.736C169.152 626.839 168.818 627.173 178.612 625.281C182.174 624.502 185.29 623.611 185.513 623.166C185.735 622.832 185.513 619.938 184.956 616.933C183.955 611.814 184.177 611.257 187.85 605.804C189.964 602.688 191.745 599.794 191.745 599.349C191.745 598.904 189.185 598.57 186.069 598.57H180.282L181.061 589.666C181.506 583.99 181.283 579.093 180.393 575.865C179.725 573.083 179.391 570.412 179.837 569.967C180.393 569.521 184.622 569.187 189.297 569.299C196.642 569.41 198.089 569.855 199.759 571.859C202.207 574.864 202.318 576.978 200.092 579.204C198.312 580.985 198.089 584.435 199.425 587.996C199.981 589.332 199.536 592.448 198.312 596.121C195.863 603.244 196.308 604.357 203.32 609.588C206.102 611.703 208.662 614.151 208.885 615.153C209.219 616.154 209.775 621.385 210.109 626.95L210.888 637.078L206.214 638.97C201.539 640.751 201.428 640.751 202.207 645.203C202.986 650.434 204.656 650.211 184.511 647.985Z"
            fill="#ECF0F3" />
        <path
            d="M95.8075 691.613C94.8059 689.61 94.3607 687.384 94.6946 686.827C95.1398 686.16 100.927 682.153 107.716 677.812C119.736 670.022 119.959 669.91 121.962 672.025C123.075 673.249 124.967 674.251 126.08 674.251C129.975 674.251 128.751 678.48 124.411 680.595C121.406 682.042 120.181 683.488 118.846 687.606L117.065 692.837L109.052 693.616C104.711 694.062 100.259 694.618 99.2577 694.841C98.1448 695.175 96.9205 694.062 95.8075 691.613Z"
            fill="#ECF0F3" />
        <path
            d="M107.828 741.808C107.494 740.472 107.16 735.798 107.16 731.568C107.16 724.223 106.938 723.555 101.484 715.319C96.4759 707.64 96.0307 706.304 96.6985 702.631C97.5889 697.623 100.037 696.51 110.499 696.51C118.846 696.51 118.958 696.399 121.629 689.276C122.63 686.827 124.411 684.268 125.747 683.6C130.644 681.263 131.757 679.482 131.423 675.475C131.2 672.025 130.644 671.357 128.084 671.135C125.079 670.689 123.521 669.02 118.513 660.673L116.064 656.666L125.635 651.435L135.207 646.093L141.217 652.103C147.783 658.558 148.229 659.448 145.335 660.561C139.881 662.453 139.436 663.789 140.215 676.477C140.994 689.832 141.106 689.276 132.647 700.405L128.418 706.082L128.084 723.778L127.75 741.585L122.185 742.809C119.18 743.588 114.84 744.145 112.614 744.256C109.275 744.367 108.385 743.922 107.828 741.808Z"
            fill="#ECF0F3" />
        <path
            d="M90.9098 682.598C90.4646 681.485 91.1324 679.704 92.6905 678.146C94.9165 675.809 95.1391 674.696 94.4713 669.243L93.6922 663.121H101.928C111.945 663.121 116.842 664.012 117.621 665.904C118.066 667.128 113.503 670.356 94.1374 682.932C91.9115 684.268 91.5776 684.268 90.9098 682.598Z"
            fill="#ECF0F3" />
        <path
            d="M66.6476 653.884C65.5346 650.1 63.7539 645.87 62.4183 644.535L60.1924 642.086L65.7572 639.304L71.322 636.41L77.332 639.749C80.5596 641.53 86.5695 644.757 90.6875 646.983L98.1443 650.879L95.9184 654.663C93.6925 658.336 93.6925 658.447 87.2373 657.779C82.7855 657.445 79.0014 657.779 75.3286 659.003C72.4349 660.005 69.7638 660.895 69.3187 660.895C68.8735 660.895 67.7605 657.779 66.6476 653.884Z"
            fill="#ECF0F3" />
        <path
            d="M144.667 651.658C139.213 646.65 137.878 644.535 135.986 638.636C134.761 634.741 132.09 627.841 129.976 623.277C127.861 618.714 125.746 612.927 125.413 610.367C124.633 605.581 118.178 592.894 114.728 589.443C113.615 588.219 111.167 587.44 108.941 587.44C105.824 587.44 105.045 586.995 104.711 584.88C104.489 582.877 103.821 582.432 100.927 582.766C98.9241 582.877 96.9207 582.321 96.253 581.43C95.14 580.206 95.9191 579.761 100.705 579.093C103.932 578.648 107.494 577.535 108.496 576.644C110.165 575.086 110.61 575.42 113.281 579.649C114.951 582.209 116.843 585.882 117.622 587.885C120.182 594.786 121.072 595.565 127.416 596.01C133.426 596.566 133.537 596.455 134.984 593.005C136.431 589.555 136.542 589.443 141.662 590.222L147.004 590.89L151.122 584.213C153.348 580.428 154.906 576.867 154.461 576.31C154.127 575.643 151.79 575.198 149.341 575.198C145.668 575.198 144.889 574.864 145.223 573.194C145.557 571.636 147.004 571.191 153.904 570.968C160.359 570.634 162.808 570.078 164.589 568.408C167.149 565.96 168.373 566.516 168.373 570.078C168.373 573.639 170.487 575.309 173.159 573.862C176.943 571.859 177.833 574.418 177.833 587.774V600.239L182.062 600.573C184.288 600.796 186.18 601.352 186.18 601.909C186.18 602.465 184.956 604.691 183.398 606.917C181.617 609.699 180.949 611.925 181.283 613.929C182.73 621.274 182.841 621.274 175.051 622.721C171.155 623.611 167.371 624.724 166.815 625.281C166.147 625.837 166.592 628.063 167.816 630.846L169.931 635.409L164.589 640.528C159.247 645.759 159.247 645.759 161.584 647.651C164.7 650.211 164.589 650.99 160.359 653.884C153.459 658.447 151.79 658.113 144.667 651.658Z"
            fill="#ECF0F3" />
        <path
            d="M55.6293 638.525C53.0695 636.521 39.8252 615.486 40.6043 614.707C40.8269 614.485 43.498 613.149 46.503 611.925L51.9565 609.588L55.4067 613.706L58.9681 617.824L62.6409 615.932C67.6492 613.483 68.5396 613.595 70.6542 617.267C72.435 620.161 72.435 620.384 70.6542 621.497C68.8735 622.609 68.8735 623.055 70.6542 627.729L72.435 632.849L69.0961 634.184C67.3153 634.963 64.0878 636.744 62.0844 638.191C58.4117 640.639 58.3004 640.639 55.6293 638.525Z"
            fill="#ECF0F3" />
        <path
            d="M56.5201 610.256C54.8507 608.141 52.9586 606.36 52.1796 606.36C51.5118 606.36 48.0616 607.807 44.6114 609.477C41.0499 611.146 37.8224 612.259 37.3772 611.814C36.932 611.369 34.7061 610.478 32.4802 609.81C27.6944 608.252 27.0266 606.026 27.0266 590.556C27.0266 582.654 26.4702 579.204 23.5765 571.079C19.1246 558.392 17.2326 551.603 16.3422 544.925C15.6745 540.139 15.897 539.583 17.7891 539.583C18.902 539.583 20.7941 541.029 21.7957 542.922C24.3555 547.151 26.025 547.04 32.1463 542.699C36.7094 539.36 37.3772 539.249 44.1662 539.917C52.6247 540.696 53.5151 540.028 53.9603 532.237C54.2942 526.227 53.9603 526.45 63.4204 527.897C66.648 528.453 66.9819 528.787 66.4254 531.569C65.5351 535.799 68.4288 538.692 71.9902 537.357C74.1049 536.578 75.1065 536.912 76.776 538.804C81.8956 544.702 81.8956 544.702 79.8923 550.712L78.0002 556.277L82.1182 562.398C85.3458 567.184 86.1248 569.41 85.7909 572.638C85.4571 576.756 85.3458 576.867 80.7826 576.867C76.5534 576.867 75.7743 577.312 73.2145 580.985C69.9869 585.771 69.8756 586.995 72.2128 593.005C73.9936 597.234 73.8823 597.457 71.6564 599.349C70.4321 600.462 68.6514 603.355 67.8723 605.804C66.8706 608.586 65.0899 610.923 62.864 612.259L59.5251 614.262L56.5201 610.256ZM47.0599 601.018L51.8457 593.561L53.4038 597.123C55.4071 602.02 57.5218 601.686 59.7477 596.01C61.1945 592.003 61.3058 589.777 60.5268 582.877C58.746 569.187 56.6314 566.294 48.3955 566.294C46.8373 566.294 44.1662 564.958 42.3855 563.289C39.7144 560.729 38.9353 560.506 36.4868 561.619C32.7027 563.4 32.9253 567.852 37.1546 573.528C39.4918 576.533 41.6064 578.091 43.9436 578.536C49.2859 579.315 48.8407 581.319 42.4968 583.879C36.7094 586.327 36.4868 586.772 38.6014 592.003C39.2692 593.339 38.6014 593.895 36.0416 594.452C33.927 594.897 32.5914 595.787 32.5914 596.9C32.5914 600.016 38.2675 608.586 40.3822 608.586C41.6064 608.586 44.1662 605.804 47.0599 601.018Z"
            fill="#ECF0F3" />
        <path
            d="M80.4483 675.475C73.1028 673.583 71.9898 672.47 69.9865 665.793C69.43 663.678 69.9865 663.233 75.1061 662.008C78.3337 661.341 83.2307 660.895 86.0131 661.007L91.0215 661.452L91.3553 667.907C91.6892 673.806 90.465 677.812 88.3504 677.479C88.0165 677.367 84.455 676.477 80.4483 675.475Z"
            fill="#ECF0F3" />
        <path
            d="M99.7025 659.894C96.5862 659.56 96.5862 659.003 99.3686 654.774C102.374 650.1 102.262 649.321 97.4766 647.095C95.1394 645.982 89.2407 642.865 84.2324 640.083C75.8851 635.297 75.2174 634.63 74.2157 630.066C73.214 625.837 73.3253 625.281 74.9948 625.281C78.5562 625.281 78.3337 623.166 74.4383 617.267C72.2124 614.04 70.4316 610.478 70.4316 609.365C70.4316 606.583 72.435 602.799 75.1061 600.684C77.332 598.903 77.332 598.792 75.44 592.671C73.5479 586.772 73.5479 586.327 75.3287 583.545C76.6642 581.541 77.9998 580.762 80.2257 580.874C81.8951 580.985 84.4549 580.54 85.9018 579.761C88.239 578.425 88.9068 578.648 93.136 582.877C96.4749 586.104 98.4782 587.217 99.8138 586.772C101.149 586.216 101.928 586.661 102.374 588.33C102.819 590.334 103.82 590.779 107.605 590.779C111.945 590.779 112.39 591.001 116.508 597.568C119.402 601.909 121.405 606.806 122.296 611.146C122.963 614.93 125.412 621.608 127.527 625.948C132.646 636.299 134.316 642.086 132.424 643.756C131.756 644.424 127.638 646.872 123.297 649.209C113.281 654.551 112.502 655.219 113.169 658.002C113.726 660.116 113.281 660.339 107.938 660.339C104.711 660.339 101.038 660.116 99.7025 659.894Z"
            fill="#ECF0F3" />
        <path
            d="M126.637 593.228C122.519 592.671 120.515 591.113 120.515 588.331C120.515 585.437 112.947 571.859 110.944 571.08C110.053 570.746 108.273 571.747 107.048 573.417C104.823 576.199 104.155 576.311 97.3657 576.088L89.9089 575.754L89.3524 571.302C89.0185 568.854 87.0152 564.402 85.0118 561.397L81.3391 555.943L83.2311 550.156L85.2344 544.257L81.1165 539.138C76.7759 533.907 76.2195 533.573 71.7676 533.907C69.7643 534.129 69.2078 533.684 69.5417 532.126C69.8756 530.457 70.9885 530.123 75.1065 530.123C78.0002 530.123 81.0052 529.455 81.7843 528.565C83.3424 527.006 81.8956 525.448 74.3274 519.884C71.0998 517.546 71.0998 517.435 73.1032 515.209C74.6613 513.428 76.5533 512.872 80.1148 512.872C84.4554 512.872 85.6796 513.54 91.8009 519.104L98.59 525.448L102.04 521.553C103.932 519.438 107.271 515.209 109.386 512.315C112.279 508.309 114.394 506.528 117.733 505.638C124.856 503.523 126.97 501.965 128.306 497.513C130.421 491.169 131.088 490.947 137.432 494.953C142.329 497.958 143.887 498.403 147.226 497.847C155.574 496.177 155.351 496.066 157.132 503.746C159.024 511.536 159.135 511.314 151.122 516.879C148.896 518.437 148.896 518.437 151.456 523.222C154.015 528.008 154.015 528.119 152.123 532.126C150.231 536.021 149.897 536.244 144.778 536.244C139.213 536.244 132.758 538.693 132.758 540.696C132.758 541.364 133.537 543.478 134.539 545.259C135.985 548.153 136.097 549.6 135.095 553.606C133.426 559.95 135.318 566.628 139.436 569.633C141.773 571.302 142.329 572.415 141.884 575.086C141.439 578.425 141.55 578.536 146.113 578.536H150.677L148.117 583.1C145.557 587.663 145.557 587.663 140.326 586.995C135.318 586.439 134.872 586.55 133.314 589.666C131.311 593.45 130.866 593.673 126.637 593.228Z"
            fill="#ECF0F3" />
        <path regionid="34" region="волгоградская обсласть"
            d="M203.542 571.413C201.872 567.518 199.869 566.739 188.962 565.96C185.289 565.626 174.605 567.518 173.158 568.742C171.711 569.967 171.377 569.41 170.153 563.734C169.263 559.727 167.927 559.95 163.809 564.624C160.47 568.297 160.025 568.52 152.791 568.52C142.663 568.52 139.992 567.295 138.322 562.287C137.321 559.171 137.321 557.168 138.322 553.495C139.435 549.488 139.324 548.153 137.766 545.148C135.206 540.139 136.542 539.249 147.003 539.026C151.567 539.026 151.9 538.692 154.794 533.573L157.688 528.231L155.351 524.001L152.902 519.772L157.465 515.988L162.14 512.093L160.693 505.526C159.914 501.853 159.023 497.958 158.801 496.734C158.356 495.064 159.246 493.951 162.362 492.282C166.369 490.056 167.593 488.72 168.817 484.714C169.263 483.156 170.709 482.822 176.052 482.822C179.724 482.822 183.063 483.378 183.509 484.046C183.842 484.603 185.734 486.161 187.626 487.274C189.407 488.387 192.301 491.726 193.859 494.619C196.641 499.739 197.087 500.073 204.877 502.299C209.329 503.523 213.447 505.304 214.115 506.194C215.339 508.309 215.45 515.765 214.115 520.217C212.779 524.78 214.226 526.895 219.123 527.785C222.017 528.342 223.686 529.566 225.356 532.46C226.691 534.686 229.251 537.134 231.032 537.913C233.369 538.804 234.816 540.584 235.818 543.478C236.597 545.815 237.042 548.153 236.708 548.598C236.485 549.043 232.034 551.714 226.914 554.496C216.23 560.284 215.45 561.063 214.894 566.071C214.671 568.965 213.67 570.189 209.886 572.415L205.211 575.197L203.542 571.413Z"
            fill="#ECF0F3" />
        <path
            d="M409.884 331.46C408.326 330.903 405.655 330.458 403.986 330.458C401.982 330.347 399.868 329.234 398.532 327.453C396.529 325.005 395.75 324.671 391.966 325.339L387.625 326.006V321.666C387.625 318.216 387.18 317.103 385.51 316.657C384.286 316.324 382.283 313.986 381.059 311.538C378.721 306.975 376.495 305.973 373.268 307.976C372.489 308.422 370.485 308.533 368.816 308.088C366.479 307.531 365.811 306.53 365.366 302.968C364.921 299.407 364.364 298.628 362.583 298.85C361.359 299.073 358.132 299.518 355.349 299.852C350.563 300.52 350.118 300.297 347.336 296.624C345.444 294.176 341.326 291.393 335.984 288.833C329.528 285.717 327.414 284.159 326.857 281.933C326.412 280.264 325.188 278.817 323.518 278.483C320.402 277.704 306.379 263.124 306.379 260.676C306.379 259.785 307.603 256.001 309.161 252.44C310.719 248.767 311.944 245.094 311.944 244.092C311.944 243.202 313.947 241.421 316.284 240.197C320.18 238.305 320.847 237.303 321.849 232.295C322.517 229.067 324.298 225.061 325.856 223.28C328.416 220.164 328.527 219.941 326.969 214.822C324.186 205.695 324.743 202.802 330.753 194.788C333.09 191.783 334.203 191.227 338.21 191.227C341.882 191.227 342.995 191.672 343.441 193.341C343.886 195.345 350.23 200.131 352.233 200.131C353.457 200.131 360.914 193.341 362.138 191.116C362.806 189.78 362.695 187.443 361.804 184.215C360.246 178.316 361.582 170.303 364.475 168.522C367.48 166.63 368.593 168.634 369.706 178.762L370.708 187.999L377.831 195.456C387.18 205.25 388.961 205.473 391.966 197.126C397.53 181.655 399.534 180.209 416.006 180.209C430.363 180.32 430.697 180.431 434.481 189.557C439.044 200.131 440.157 201.132 444.386 198.684L447.614 196.68L455.516 211.705L463.418 226.73L470.318 226.062C475.326 225.617 477.775 225.951 479.333 227.064C481.225 228.511 481.114 228.956 476.996 237.415L472.544 246.318L474.992 254.332C477.107 261.009 477.218 262.679 476.105 264.348C474.77 266.018 474.102 266.129 469.539 264.905C466.757 264.126 462.416 263.569 459.856 263.569C456.072 263.569 454.625 262.79 449.951 258.227C446.946 255.333 441.27 251.215 437.263 249.101C430.474 245.539 429.806 245.428 425.577 246.652C423.017 247.431 421.014 248.767 421.014 249.546C421.014 250.325 422.572 254.332 424.353 258.227C427.246 264.46 427.58 265.906 426.579 268.689C425.8 270.47 425.577 274.142 425.911 277.036C426.69 282.712 426.913 282.49 419.79 283.936C417.452 284.493 416.562 285.828 414.336 293.063L411.665 301.521L415.004 304.192C419.456 307.865 421.236 307.642 425.354 302.523C428.359 298.739 429.584 298.071 433.145 298.071C436.484 298.071 437.82 298.628 439.155 300.631C440.825 303.191 440.602 303.525 431.476 312.651C423.351 320.553 422.127 322.445 422.572 324.893C423.796 331.126 418.12 334.02 409.884 331.46Z"
            fill="#ECF0F3" />
        <path
            d="M586.066 257.003C565.699 247.988 558.464 244.204 544.107 234.632C530.974 226.062 526.077 223.391 524.185 223.836C521.959 224.393 490.462 224.504 472.989 224.059C468.871 223.948 465.087 223.391 464.53 222.835C463.974 222.278 460.413 215.823 456.628 208.589C450.952 198.016 449.951 195.233 451.175 194.343C452.065 193.786 454.403 192.34 456.517 191.004L460.19 188.667L459.522 180.987L458.743 173.419L463.529 171.305C470.095 168.522 480.001 157.615 480.001 153.275C480.001 151.605 480.446 149.825 481.002 149.491C482.783 148.378 488.014 153.609 490.129 158.617C492.8 164.961 492.8 169.19 490.129 171.639C488.014 173.531 487.68 173.531 482.227 171.639C476.773 169.635 476.662 169.635 471.653 172.084C468.871 173.419 466.311 175.311 465.866 176.313C465.198 178.205 467.424 195.567 468.648 197.571C469.539 198.906 480.78 203.469 483.339 203.469C484.341 203.469 487.791 200.687 491.13 197.348L497.14 191.227H528.637C546.11 191.227 560.245 191.672 560.579 192.228C561.024 192.785 558.464 194.788 555.125 196.68C551.675 198.572 548.67 200.909 548.225 201.911C547.557 203.692 554.792 211.928 558.464 213.375C559.911 213.931 562.916 213.486 566.7 212.15C574.268 209.59 576.494 209.591 583.506 212.373C588.069 214.154 590.518 214.376 597.529 213.82L605.988 213.152L605.209 218.272C604.43 223.169 604.541 223.503 607.546 224.727C612.888 226.953 618.342 226.285 623.573 222.835L628.358 219.607L627.69 212.15C627.134 206.252 627.468 204.248 628.803 202.913C630.584 201.021 630.362 201.021 647.724 210.926C650.395 212.484 653.845 215.823 655.96 219.162L659.521 224.727L657.184 227.954C654.179 231.961 654.179 231.516 657.74 239.863C659.299 243.758 660.3 247.209 659.855 247.654C659.41 248.099 657.518 247.765 655.514 246.986C652.064 245.65 651.842 245.762 647.835 250.214C644.941 253.441 642.27 255.111 639.043 255.89C636.483 256.446 632.365 258.672 629.805 260.675C627.023 263.013 622.682 265.127 618.453 266.24C614.669 267.242 611.441 267.91 611.219 267.91C610.996 267.91 599.644 262.901 586.066 257.003Z"
            fill="#ECF0F3" />
        <path
            d="M602.315 156.725C597.529 153.052 593.523 148.934 593.189 147.599C592.855 146.152 591.519 139.474 590.295 132.685C588.18 121.889 588.18 119.775 589.405 115.991C590.629 112.429 591.742 111.316 595.192 110.203C597.752 109.313 603.428 104.972 609.994 98.7398C619.343 89.9474 621.013 88.8344 623.684 89.3909C626.355 89.9474 627.245 89.2796 631.92 83.2696C634.702 79.5969 639.377 75.0337 642.27 73.0304C645.164 71.027 652.287 65.9074 658.074 61.5669C663.862 57.1151 669.983 52.7745 671.541 51.6616C674.991 49.4356 697.473 45.8742 718.619 44.2047C727.412 43.5369 737.651 41.9788 742.214 40.7545C746.666 39.419 751.006 38.7512 752.008 39.0851C755.124 40.3093 754.011 46.0967 749.894 50.2147C745.664 54.4439 745.664 54.444 720.845 57.1151C702.815 59.0071 697.696 60.8991 682.782 70.8045C679.332 73.0304 673.433 76.1467 669.872 77.5935C666.31 79.1517 659.966 83.047 655.96 86.2746C651.953 89.6135 644.607 95.2896 639.71 98.9624C630.362 105.863 618.675 118.328 613.89 126.452C611.107 131.127 611.107 131.683 611.664 144.816C611.998 152.273 612.443 159.285 612.665 160.509C613.333 164.293 610.885 163.403 602.315 156.725Z"
            fill="#ECF0F3" />
        <path
            d="M37.3763 198.238C35.5956 195.901 30.6986 189.001 26.4693 182.991C18.2334 171.082 18.2334 170.081 26.1354 170.081C29.5856 170.081 30.5873 170.637 32.4793 173.753C33.7036 175.757 35.8182 178.317 37.0424 179.541C39.2684 181.544 39.3797 181.544 42.6072 179.207C44.6106 177.649 46.0574 177.204 46.5026 177.871C47.7269 179.763 52.6239 196.013 52.6239 198.127C52.6239 200.464 52.0674 200.798 45.8348 201.8C40.9378 202.468 40.6039 202.356 37.3763 198.238Z"
            fill="#ECF0F3" />
        <path regionid="47" region="ленинградская область"
            d="M242.05 260.008C241.271 259.229 240.714 258.227 240.714 257.782C240.714 257.225 238.6 252.328 236.04 246.875L231.477 236.858H227.136C223.241 236.858 222.796 236.524 223.463 234.632C223.908 233.185 223.241 230.848 221.794 228.511C219.345 224.504 217.565 223.948 211.777 225.617C207.437 226.841 199.757 224.949 196.641 221.833C193.97 219.162 193.747 219.051 190.631 220.72C188.85 221.611 187.181 222.39 186.847 222.39C186.624 222.39 186.068 219.496 185.734 215.934C185.289 212.484 183.953 206.14 182.618 202.022C179.724 193.341 179.947 193.007 187.96 191.783C191.521 191.227 194.081 191.672 198.31 193.453C204.209 196.012 205.211 197.571 206.88 207.031C207.548 210.926 207.771 211.149 213.335 211.816C216.452 212.15 220.792 212.373 222.907 212.15C226.357 211.816 227.025 211.149 229.696 205.695C231.365 202.245 232.478 199.129 232.144 198.684C231.922 198.238 228.583 196.124 224.576 194.009C219.345 191.004 217.231 189.112 216.34 186.552C214.56 181.321 214.782 180.32 218.9 176.09C222.239 172.529 223.241 172.195 227.581 172.529C232.256 172.863 232.478 173.085 235.595 179.207C237.375 182.768 241.827 192.451 245.611 200.909L252.4 216.268L258.855 217.159C264.865 218.049 265.533 217.938 268.204 215.489L270.987 212.929L273.658 216.268C275.105 218.049 277.887 221.611 279.668 224.17L283.007 228.845L279 230.18C276.774 230.959 271.321 234.743 266.869 238.639C260.414 244.315 258.633 246.541 258.299 249.323C258.076 252.217 256.852 253.441 251.287 257.003C243.608 261.788 243.83 261.677 242.05 260.008Z"
            fill="#ECF0F3" />
        <path
            d="M307.603 235.3C304.375 231.85 303.151 231.405 295.917 230.737L287.792 229.958L280.113 219.496C275.883 213.82 271.765 209.034 271.098 209.034C270.319 209.034 268.538 210.258 267.202 211.817C264.865 214.488 261.526 215.156 256.741 213.931C254.848 213.375 252.289 208.812 245.834 194.121C241.159 183.659 237.375 174.421 237.375 173.642C237.375 172.64 239.601 172.307 244.943 172.307C254.069 172.307 283.006 167.187 284.787 165.295C285.566 164.516 286.902 158.728 287.903 152.273C288.905 145.818 290.129 140.253 290.575 139.697C291.131 139.252 293.691 138.25 296.473 137.471C301.148 136.135 301.704 135.468 307.492 125.117C313.056 115.212 314.169 113.876 320.291 110.315C328.86 105.306 331.198 103.08 336.651 95.1784C338.988 91.7282 341.437 88.8345 341.993 88.8345C342.661 88.8345 345.666 90.6153 348.782 92.8412C354.013 96.6253 354.347 97.1817 353.679 100.409C352.01 107.421 353.568 111.094 358.243 111.094C361.247 111.094 361.359 111.65 363.251 124.894L364.586 134.911L361.47 137.137C354.904 141.811 350.007 146.82 343.663 155.167L337.096 163.625L339.211 173.753C340.324 179.318 341.437 184.772 341.771 185.885C342.216 187.554 341.548 187.888 337.208 187.888C332.533 187.888 331.977 188.222 327.636 193.787C323.296 199.351 323.073 200.131 323.184 206.92C323.296 210.815 323.629 215.267 324.075 216.825C324.742 218.828 324.297 220.386 322.516 222.501C321.07 224.171 319.623 227.843 319.289 230.626C318.621 234.744 317.842 236.079 315.282 237.415C313.501 238.305 311.832 239.084 311.721 239.084C311.498 239.084 309.606 237.303 307.603 235.3Z"
            fill="#ECF0F3" />
        <path
            d="M515.058 377.314C503.706 372.751 498.475 372.305 485.342 374.754C477.329 376.201 476.216 376.201 469.204 374.197C461.97 372.194 461.525 371.86 458.742 366.518L455.96 360.953L447.613 360.174C436.038 359.172 435.482 359.395 435.482 366.073C435.482 373.975 433.144 374.643 418.565 370.97C406.656 368.076 405.654 368.187 401.091 373.084C399.533 374.643 397.752 375.978 397.084 375.978C395.749 375.978 392.076 364.96 392.076 360.953C392.076 359.84 393.746 357.058 395.86 354.832C398.754 351.604 400.089 348.488 401.648 342.033L403.651 333.463L407.658 334.131C419.9 336.468 420.568 336.357 423.573 332.35C425.465 329.902 426.244 327.676 425.91 325.895C425.465 323.558 426.912 321.443 434.925 313.652C440.156 308.421 444.385 303.747 444.385 303.302C444.385 302.745 443.05 300.631 441.38 298.516C438.598 295.177 437.708 294.732 433.033 294.732C428.359 294.732 427.58 295.066 424.129 299.295C420.679 303.413 420.011 303.747 417.897 302.634C415.003 301.076 415.003 300.408 417.563 293.063C419.344 287.832 419.9 287.386 424.463 286.273L429.36 285.049L429.026 278.371C428.804 274.81 429.249 270.358 429.917 268.577C430.918 265.906 430.585 264.348 427.691 258.227C425.02 252.551 424.575 250.659 425.688 249.991C428.247 248.433 430.807 248.989 436.817 252.551C446.055 258.004 448.948 260.23 450.061 263.124C450.84 265.35 451.731 265.795 455.96 265.795C458.631 265.795 464.085 266.797 467.98 268.021C471.875 269.134 475.103 270.136 475.214 270.247C475.326 270.247 476.661 268.466 478.219 266.24L480.89 262.234L478.219 254.443L475.66 246.652L478.553 240.865C480.111 237.748 482.56 233.408 484.007 231.182L486.566 227.064L507.045 227.287L527.523 227.398L544.663 238.639C556.794 246.541 566.254 251.772 576.828 256.224C585.063 259.785 593.856 263.569 596.304 264.571C612.442 271.805 610.55 271.471 619.12 269.134C624.351 267.798 628.246 265.906 631.363 263.235C634.256 260.787 637.484 259.117 640.266 258.783C643.383 258.338 645.497 257.114 648.168 254.22C653.288 248.322 658.742 249.212 654.178 255.222C651.841 258.449 652.175 261.121 655.403 263.903L658.185 266.352L655.069 270.803C653.399 273.363 649.727 277.481 646.944 279.93C642.27 284.159 640.934 284.715 631.363 286.385C620.901 288.166 615.447 290.614 610.662 295.956C609.66 297.069 605.319 299.073 601.201 300.297C596.972 301.521 590.517 304.637 586.844 307.197C580.723 311.426 579.944 311.76 578.942 309.98C577.161 306.863 575.492 307.642 568.035 315.099C562.025 321.22 561.024 322.89 560.578 327.008C560.356 329.679 560.022 331.905 559.911 331.905C559.688 332.016 556.572 334.465 552.788 337.358C546.221 342.367 545.776 343.034 540.768 355.611C532.754 375.31 529.861 380.875 527.301 381.098C526.077 381.209 520.623 379.54 515.058 377.314Z"
            fill="#ECF0F3" />
        <path regionid="51" region="мурманская область"
            d="M406.88 160.732C399.868 157.838 397.642 155.835 391.41 147.153C385.066 138.25 380.28 125.006 377.943 109.647C376.162 98.5171 375.717 97.0702 373.602 96.8476C371.933 96.625 369.929 98.0719 366.591 102.079C363.252 105.974 361.026 107.755 359.134 107.755C355.572 107.755 354.905 105.751 357.019 100.743C358.577 96.8476 358.577 96.7363 355.572 94.1765C353.903 92.7297 350.564 90.2812 348.338 88.8343C343.886 85.8293 343.552 84.8277 345.556 80.4871C346.891 77.4821 347.225 77.2595 357.019 75.3675C365.923 73.6981 368.26 72.0286 369.15 66.909C371.933 50.8824 373.268 46.7644 376.273 45.4289C387.18 40.4206 390.853 39.7528 404.209 40.977C424.019 42.7578 424.353 42.8691 424.353 45.9854C424.353 48.3226 423.797 48.7678 421.014 48.7678C419.122 48.7678 417.342 49.4355 417.008 50.3259C415.895 53.1083 419.79 64.3492 425.577 75.4788C430.808 85.3842 431.254 86.831 432.812 99.9639C433.702 107.532 435.483 116.77 436.707 120.442C439.267 128.344 439.267 133.687 436.818 148.378L434.926 159.507L428.249 161.288C419.345 163.848 413.78 163.625 406.88 160.732Z"
            fill="#ECF0F3" />
        <path
            d="M239.045 278.483C235.707 276.368 233.592 275.812 230.698 276.257C227.137 276.813 226.246 276.257 220.459 270.47L214.004 264.126L209.329 266.018C206.658 267.019 202.986 268.466 201.093 269.245C198.2 270.358 196.976 270.358 193.859 268.8C191.745 267.91 186.291 266.463 181.728 265.684C175.05 264.571 172.602 263.681 169.819 261.009L166.258 257.559L173.603 249.323L180.949 241.199L179.613 236.858C178.946 234.632 178.389 231.405 178.389 229.847C178.389 227.398 178.946 226.953 182.618 226.508C184.844 226.285 188.294 225.395 190.186 224.504C193.303 223.28 193.971 223.28 196.085 225.395C199.09 228.066 206.77 229.513 213.113 228.4C218.456 227.509 220.57 229.624 220.682 235.968C220.682 240.086 220.793 240.197 225.133 240.197H229.585L234.148 249.88C239.936 262.456 240.27 264.014 237.932 267.687C236.04 270.47 236.04 270.692 238.155 272.362C239.491 273.363 241.271 274.588 242.384 275.255C243.497 275.923 244.165 277.37 243.942 278.817L243.497 281.154L239.045 278.483Z"
            fill="#ECF0F3" />
        <path
            d="M141.883 277.147C136.986 267.576 128.416 244.649 129.084 242.757C130.085 239.863 143.886 216.602 145.889 214.265C146.78 213.263 149.117 212.373 151.009 212.373C155.683 212.373 158.466 210.258 162.695 203.581C166.145 198.238 170.263 195.679 175.049 195.679C177.72 195.679 181.504 205.807 182.395 215.378L183.174 223.503H180.391C176.273 223.503 174.715 226.062 175.383 231.516C175.717 234.187 176.273 237.303 176.718 238.528C177.164 240.086 175.939 242.2 172.267 246.318C158.688 261.009 157.464 262.79 156.24 269.579C155.572 273.252 155.016 276.368 155.016 276.591C155.016 277.481 147.67 281.377 146.001 281.377C144.999 281.377 143.107 279.485 141.883 277.147Z"
            fill="#ECF0F3" />
        <path regionid="78" region="санкт-петербург"
            d="M210.331 208.144C209.552 206.92 208.327 199.018 208.773 199.018C209.106 199.018 211.11 199.797 213.447 200.687C218.678 202.913 221.126 202.134 220.459 198.461C220.125 196.903 220.347 195.679 220.904 195.679C221.683 195.679 225.801 197.905 228.361 199.797C228.583 199.908 227.915 202.134 226.803 204.582L224.799 209.034H217.788C214.003 209.034 210.553 208.589 210.331 208.144Z"
            fill="#ECF0F3" />
        <path
            d="M348.782 347.709C341.882 345.483 341.214 344.926 335.649 337.024C330.863 330.235 328.637 328.121 323.407 325.45C317.285 322.333 316.617 322.222 306.378 323.001C298.921 323.558 294.803 324.337 292.132 325.895C290.018 327.119 288.014 327.898 287.792 327.676C287.458 327.342 286.568 322.333 285.788 316.323C284.564 308.088 283.674 304.971 281.782 302.857C278.999 299.963 277.33 299.629 273.991 301.632C271.988 302.857 271.32 302.634 268.315 298.739C266.423 296.401 263.641 294.064 262.194 293.508C260.19 292.729 259.634 291.727 259.634 288.833C259.634 283.936 257.964 282.489 252.177 282.489C247.503 282.489 247.391 282.378 247.391 278.817C247.391 276.146 246.501 274.476 243.83 272.25C240.268 269.356 240.157 269.245 242.383 266.908C243.496 265.572 247.503 262.679 251.287 260.564C260.524 254.999 261.86 253.664 261.86 250.102C261.86 247.765 263.418 245.65 268.871 240.865C272.767 237.526 277.219 234.187 278.666 233.63C280.446 232.963 285.677 232.963 291.91 233.408C302.038 234.298 302.483 234.41 306.044 238.305L309.717 242.312L306.378 251.327C304.597 256.335 303.039 261.009 303.039 261.677C303.039 263.569 319.956 281.376 321.737 281.376C322.516 281.376 323.629 282.601 324.186 284.048C324.853 285.94 327.97 288.166 333.868 291.171C339.544 294.064 343.774 297.069 346.111 299.963L349.672 304.415L355.348 303.302C361.692 302.078 363.139 302.857 363.139 307.754C363.139 310.759 366.923 311.983 373.045 310.981C377.051 310.313 377.496 310.536 378.721 313.764C379.5 315.544 381.392 317.882 382.839 318.883C385.398 320.553 386.066 323.892 384.731 327.453C384.397 328.343 381.058 330.458 377.496 332.127C370.707 335.132 369.483 337.358 372.822 339.807C374.38 340.92 374.603 341.81 373.601 344.37C372.599 347.264 372.154 347.486 367.814 347.264C364.92 347.041 362.249 347.486 360.691 348.599C357.686 350.714 357.686 350.714 348.782 347.709Z"
            fill="#ECF0F3" />
        <path
            d="M554.569 583.323C542.661 581.987 537.318 581.876 533.979 582.766C530.641 583.657 526.523 583.434 517.063 581.987C510.273 580.985 504.263 579.761 503.818 579.316C503.484 578.871 504.486 576.756 506.155 574.53C507.825 572.416 508.938 569.967 508.604 569.188C508.27 568.409 504.709 566.851 500.702 565.738C496.695 564.736 493.356 563.401 493.356 563.067C493.356 561.286 500.034 552.16 503.818 548.487C507.714 544.703 507.825 544.48 507.825 536.244V527.675L511.72 525.894C513.946 524.781 516.84 524.002 518.287 524.002C522.85 524.002 531.308 527.563 533.089 530.234C535.204 533.573 536.428 533.573 540.657 530.234C545.332 526.45 548.225 528.009 547.224 533.796C546.222 539.917 553.122 553.718 557.686 554.608C563.473 555.832 570.039 559.505 571.931 562.622C573.044 564.291 576.049 567.741 578.609 570.19C585.064 576.2 585.621 578.76 581.392 581.764C576.717 585.103 573.378 585.215 554.569 583.323Z"
            fill="#ECF0F3" />
        <path
            d="M534.425 527.229C532.867 524.892 521.96 520.663 517.286 520.663C516.061 520.663 513.056 521.665 510.497 523L506.045 525.449L501.704 522.444C499.256 520.886 496.696 519.55 496.028 519.55C494.915 519.55 491.576 518.103 478.11 512.093C475.772 511.092 474.437 509.756 474.437 508.42C474.437 505.193 472.433 504.636 467.87 506.64L463.641 508.532L456.296 504.525C448.282 500.073 448.282 500.073 450.397 491.169L451.621 485.605L457.742 485.048C463.752 484.492 463.864 484.38 466.535 479.15C469.206 473.585 469.985 473.251 476.663 474.809C482.116 476.145 483.229 475.477 484.008 470.357C484.787 465.683 484.231 466.128 496.473 461.008C499.59 459.673 500.035 458.894 499.812 455.777C499.701 453.663 500.48 450.88 501.482 449.322C503.93 445.872 503.819 443.646 501.148 438.526C498.032 432.739 498.254 429.623 502.038 428.065C504.932 426.729 513.056 418.827 520.513 409.923C522.628 407.364 524.631 403.468 525.076 401.02C525.967 395.789 528.638 390.224 530.753 389C531.643 388.443 532.311 387.219 532.311 386.106C532.311 384.993 532.978 383.212 533.869 381.988C535.427 379.873 535.538 379.985 536.651 383.212C538.655 388.777 539.545 389.779 544.887 392.672C549.116 394.898 551.12 397.236 556.351 405.917L562.695 416.267L560.246 426.729L557.909 437.08L560.357 441.977C562.583 446.762 562.583 447.208 561.025 453.774L559.244 460.563L562.583 463.345C564.364 464.792 566.256 466.128 566.59 466.128C567.035 466.128 568.816 467.352 570.485 468.91C573.045 471.359 573.49 472.583 573.49 478.148C573.602 481.598 574.269 485.716 575.16 487.274C576.05 488.721 576.829 492.616 576.829 495.733V501.409L572.711 502.077C566.256 503.189 561.804 502.967 560.469 501.52C558.465 499.628 551.231 516.1 551.231 522.444C551.231 525.115 551.008 527.341 550.675 527.341C550.341 527.341 548.56 526.562 546.668 525.56C543.552 524.002 543.218 524.002 539.656 526.784L535.983 529.567L534.425 527.229Z"
            fill="#ECF0F3" />
        <path
            d="M440.379 610.256C440.045 609.366 440.268 607.029 440.936 605.025C442.494 600.574 441.27 598.904 435.148 597.902C426.69 596.567 426.245 595.899 429.138 589.889C430.585 586.995 432.922 581.542 434.369 577.647C437.597 568.743 445.165 561.175 449.728 562.288C457.296 564.18 458.075 563.846 461.859 556.834C467.758 545.927 466.422 541.921 457.63 543.924C453.846 544.703 450.618 544.48 443.384 542.922C438.265 541.809 433.813 540.474 433.368 539.917C432.922 539.361 431.587 536.801 430.474 534.13L428.359 529.344L431.142 527.229C435.927 523.445 438.376 523.445 442.939 527.007C446.5 529.901 448.504 530.457 456.183 531.125C466.645 532.127 466.422 532.238 469.984 521.442C471.319 517.324 472.766 513.985 473.1 513.985C475.437 513.985 498.81 524.224 501.592 526.45C504.263 528.565 504.931 530.012 505.376 535.243C505.821 541.475 505.821 541.475 500.256 547.708C494.58 553.941 490.017 561.397 490.017 564.402C490.017 565.404 492.688 566.74 497.251 567.964C501.258 569.077 504.486 570.19 504.486 570.412C504.486 570.746 503.373 572.861 502.148 575.198C499.255 580.318 498.142 580.318 483.562 574.976C473.212 571.191 470.652 571.525 467.202 576.645C465.532 579.316 465.532 579.984 468.203 588.108C471.097 597.346 470.54 599.015 465.643 596.344C462.416 594.564 453.735 594.897 451.731 596.901C450.841 597.791 449.728 600.796 449.283 603.579C448.949 606.361 447.836 609.366 446.946 610.256C444.831 612.371 441.158 612.371 440.379 610.256Z"
            fill="#ECF0F3" />
    </g>
    <defs>
        <filter id="filter0_dd_313_804" x="0" y="0" width="789.797" height="764.272" filterUnits="userSpaceOnUse"
            color-interpolation-filters="sRGB">
            <feFlood flood-opacity="0" result="BackgroundImageFix" />
            <feColorMatrix in="SourceAlpha" type="matrix" values="0 0 0 0 0 0 0 0 0 0 0 0 0 0 0 0 0 0 127 0"
                result="hardAlpha" />
            <feOffset dx="10" dy="-13" />
            <feGaussianBlur stdDeviation="13" />
            <feComposite in2="hardAlpha" operator="out" />
            <feColorMatrix type="matrix" values="0 0 0 0 1 0 0 0 0 1 0 0 0 0 1 0 0 0 1 0" />
            <feBlend mode="normal" in2="BackgroundImageFix" result="effect1_dropShadow_313_804" />
            <feColorMatrix in="SourceAlpha" type="matrix" values="0 0 0 0 0 0 0 0 0 0 0 0 0 0 0 0 0 0 127 0"
                result="hardAlpha" />
            <feOffset dx="-4" dy="8" />
            <feGaussianBlur stdDeviation="6" />
            <feComposite in2="hardAlpha" operator="out" />
            <feColorMatrix type="matrix" values="0 0 0 0 0.819608 0 0 0 0 0.85098 0 0 0 0 0.901961 0 0 0 1 0" />
            <feBlend mode="normal" in2="effect1_dropShadow_313_804" result="effect2_dropShadow_313_804" />
            <feBlend mode="normal" in="SourceGraphic" in2="effect2_dropShadow_313_804" result="shape" />
        </filter>
    </defs>
</svg>