<svg width="750" height="673" viewBox="0 0 750 673" fill="none" xmlns="http://www.w3.org/2000/svg">
    <g opacity="0.5">
        <path d="M590.457 252.305L558.396 233.752L590.457 215.198L622.518 233.752L590.457 252.305Z" fill="#03515E" />
        <path
            d="M590.458 204.669C590.207 204.669 590.207 204.669 589.957 204.669L516.567 162.297C516.317 162.046 516.066 161.795 516.066 161.545C516.066 161.294 516.317 160.792 516.567 160.792L589.706 118.42C589.957 118.17 590.458 118.17 590.708 118.42L664.097 160.792C664.348 161.043 664.598 161.294 664.598 161.545C664.598 161.795 664.348 162.297 664.097 162.297L590.959 204.669C590.959 204.669 590.708 204.669 590.458 204.669ZM519.072 161.545L590.458 202.914L661.843 161.545L590.458 120.176L519.072 161.545Z"
            fill="#1C3F72" />
        <path d="M590.459 149.509L532.85 116.163L590.459 82.8174L648.068 116.163L590.459 149.509Z"
            fill="url(#paint0_linear_223_8507)" />
        <path opacity="0.5"
            d="M590.459 145.999L536.106 114.408L532.85 116.163L590.459 149.509L648.068 116.163L645.063 114.408L590.459 145.999Z"
            fill="#1C3F72" />
        <path d="M648.066 116.164V145.499L590.457 178.845V149.51L648.066 116.164Z"
            fill="url(#paint1_linear_223_8507)" />
        <g opacity="0.5">
            <path data-light
                d="M613.001 151.516C613.001 154.023 611.247 156.781 609.243 158.035C607.24 159.288 605.486 158.285 605.486 155.778C605.486 153.271 607.24 150.513 609.243 149.259C611.247 148.006 613.001 149.009 613.001 151.516Z"
                fill="#1C3F72" />
            <path data-light
                d="M624.522 144.746C624.522 147.253 622.769 150.011 620.765 151.265C618.761 152.518 617.008 151.515 617.008 149.008C617.008 146.501 618.761 143.743 620.765 142.489C622.769 141.486 624.522 142.489 624.522 144.746Z"
                fill="#1C3F72" />
            <path data-light
                d="M635.794 137.976C635.794 140.484 634.04 143.241 632.036 144.495C630.033 145.749 628.279 144.746 628.279 142.239C628.279 139.731 630.033 136.973 632.036 135.72C634.291 134.717 635.794 135.72 635.794 137.976Z"
                fill="#1C3F72" />
        </g>
        <path d="M532.85 116.164V145.499L590.459 178.845V149.51L532.85 116.164Z" fill="url(#paint2_linear_223_8507)" />
        <path d="M590.457 135.218L557.395 116.163L590.457 97.1084L623.52 116.163L590.457 135.218Z" fill="#1C3F72" />
        <path
            d="M590.457 101.12L620.264 118.169L623.52 116.163L590.457 97.1084L557.395 116.163L560.901 118.169L590.457 101.12Z"
            fill="#96D99D" />
    </g>
    <path
        d="M386.823 404.744C386.572 404.744 386.572 404.744 386.322 404.744L271.855 338.554C267.096 335.796 259.331 335.796 254.572 338.554L185.19 378.669C184.689 378.92 184.188 378.669 183.938 378.419C183.687 377.917 183.938 377.416 184.188 377.165L253.57 337.049C258.83 334.041 267.346 334.041 272.606 337.049L387.073 403.24C387.574 403.491 387.574 403.992 387.324 404.494C387.574 404.744 387.073 404.744 386.823 404.744Z"
        fill="#1C3F72" />
    <path
        d="M464.217 483.471L345.742 551.918L464.217 620.365L503.792 597.549L550.882 570.22L582.442 551.918L464.217 483.471Z"
        fill="#BEECD0" />
    <path d="M464.219 261.833L326.457 182.354L464.219 102.875L601.73 182.354L464.219 261.833Z"
        fill="url(#paint3_linear_223_8507)" />
    <path opacity="0.5"
        d="M464.219 259.325L328.962 181.1L326.457 182.353L464.219 261.832L601.73 182.353L599.475 181.1L464.219 259.325Z"
        fill="#1C3F72" />
    <path
        d="M464.218 532.613C462.464 532.613 460.711 532.112 459.208 531.359L308.672 444.359C307.42 443.607 306.418 442.102 306.418 440.598C306.418 439.094 307.169 437.589 308.672 436.837L459.208 349.837C462.214 348.082 465.971 348.082 469.227 349.837L619.763 436.837C621.015 437.589 622.017 439.094 622.017 440.598C622.017 442.102 621.266 443.607 619.763 444.359L469.227 531.359C467.724 532.112 465.971 532.613 464.218 532.613ZM460.21 529.604C462.715 531.109 465.72 531.109 468.225 529.604L618.761 442.604C619.512 442.102 620.013 441.35 620.013 440.347C620.013 439.345 619.512 438.592 618.761 438.091L468.225 351.09C465.72 349.586 462.715 349.586 460.21 351.09L309.674 438.091C308.923 438.592 308.422 439.345 308.422 440.347C308.422 441.35 308.923 442.102 309.674 442.604L460.21 529.604Z"
        fill="#1C3F72" />
    <path d="M464.219 496.508L326.457 416.779L464.219 337.3L601.73 416.779L464.219 496.508Z" fill="#1C3F72" />
    <path d="M601.73 182.354V416.779L464.219 496.509V261.833L601.73 182.354Z" fill="url(#paint4_linear_223_8507)" />
    <path d="M569.167 241.272V388.948L494.525 432.072V284.397L569.167 241.272Z" fill="url(#paint5_linear_223_8507)" />
    <path d="M569.167 241.273V388.948L494.525 432.072V443.104L578.685 394.464V235.757L569.167 241.273Z"
        fill="#96D99D" />
    <path opacity="0.5" d="M569.167 241.273V388.948L494.525 432.072V443.104L578.685 394.464V235.757L569.167 241.273Z"
        fill="#1C3F72" />
    <path d="M326.457 182.354V416.779L464.219 496.509V261.833L326.457 182.354Z" fill="url(#paint6_linear_223_8507)" />
    <path d="M333.721 195.642V412.265L456.955 483.47V266.847L333.721 195.642Z" fill="url(#paint7_linear_223_8507)" />
    <path opacity="0.5" d="M336.726 410.761V197.397L333.721 195.642V412.265L456.955 483.47V480.211L336.726 410.761Z"
        fill="#1C3F72" />
    <mask id="mask0_223_8507" style="mask-type:luminance" maskUnits="userSpaceOnUse" x="494" y="315" width="220"
        height="220">
        <path d="M494.525 315.486V354.098V481.715L565.41 534.868L670.359 516.064L713.692 443.354L494.525 315.486Z"
            fill="white" />
    </mask>
    <g mask="url(#mask0_223_8507)">
        <path
            d="M611.499 507.789L492.523 439.843L474.238 381.425L593.214 434.327C593.214 434.327 642.057 470.933 642.558 471.685C643.059 472.437 616.508 506.034 616.508 506.034L611.499 507.789Z"
            fill="url(#paint8_linear_223_8507)" />
        <path d="M487.262 436.083L555.892 396.469L554.89 395.968L486.26 435.582L487.262 436.083Z" fill="#036F77" />
        <path d="M590.208 416.527L589.207 415.774L520.576 455.389L521.829 456.141L590.208 416.527Z" fill="#036F77" />
        <path d="M555.141 475.196L556.143 475.949L624.522 436.334L623.52 435.833L555.141 475.196Z" fill="#036F77" />
        <path d="M588.955 495.254L589.957 496.006L658.838 456.141L657.836 455.64L588.955 495.254Z" fill="#036F77" />
        <path
            d="M687.893 458.147C687.893 448.118 681.882 436.835 674.368 432.322L486.761 323.509C483.004 321.503 496.029 330.78 493.023 332.535C489.767 334.541 487.763 338.803 487.763 344.319C487.763 354.348 479.247 360.616 486.761 365.129L486.26 371.397L471.482 394.212L588.955 462.158L606.489 473.19L616.007 482.467L617.51 489.988L618.762 497.761L615.756 508.792L682.633 470.181C685.889 467.925 687.893 463.662 687.893 458.147Z"
            fill="url(#paint9_linear_223_8507)" />
        <path d="M498.281 409.506L566.911 369.892L565.91 369.391L497.279 409.005L498.281 409.506Z" fill="#76AD7E" />
        <path d="M601.226 389.95L600.224 389.198L531.594 428.812L532.846 429.314L601.226 389.95Z" fill="#76AD7E" />
        <path d="M532.597 350.085L531.595 349.333L463.215 388.947L464.217 389.449L532.597 350.085Z" fill="#76AD7E" />
        <path d="M566.16 448.619L567.162 449.371L635.542 409.757L634.54 409.005L566.16 448.619Z" fill="#76AD7E" />
        <path d="M599.975 468.677L600.976 469.429L669.857 429.564L668.855 429.062L599.975 468.677Z" fill="#76AD7E" />
        <path
            d="M619.012 493.748C619.012 501.771 613.502 505.031 606.489 501.019C599.475 497.008 593.965 487.23 593.965 479.206C593.965 471.183 599.475 467.924 606.489 471.935C613.502 475.947 619.012 485.725 619.012 493.748Z"
            fill="url(#paint10_linear_223_8507)" />
        <path
            d="M614.254 490.99C614.254 496.005 610.747 498.011 606.489 495.503C602.231 492.996 598.725 486.979 598.725 482.215C598.725 477.451 602.231 475.195 606.489 477.702C610.747 480.209 614.254 485.976 614.254 490.99Z"
            fill="white" />
        <path
            d="M609.245 493.498C604.987 490.99 601.48 484.973 601.48 480.209C601.48 478.705 601.73 477.451 602.231 476.699C599.977 476.95 598.725 478.956 598.725 482.215C598.725 487.229 602.231 492.996 606.489 495.503C609.495 497.258 612 496.757 613.252 494.751C612.25 494.751 610.747 494.5 609.245 493.498Z"
            fill="url(#paint11_linear_223_8507)" />
        <path
            d="M611.497 509.545C609.493 509.545 607.489 509.044 605.485 507.79L434.41 408.504C426.896 403.991 420.885 392.709 420.885 382.68C420.885 377.164 422.889 372.651 426.145 370.896C429.15 369.141 432.657 369.392 436.164 371.648L607.239 470.934C614.753 475.447 620.764 486.729 620.764 496.758C620.764 502.274 618.76 506.787 615.504 508.542C614.502 509.044 613 509.545 611.497 509.545ZM607.489 504.531C609.242 505.533 611.747 506.536 614.001 505.283C616.256 504.029 617.508 500.77 617.508 496.508C617.508 487.732 612.248 477.703 605.736 473.943L434.661 374.657C432.908 373.654 430.403 372.651 428.149 373.905C425.894 375.158 424.642 378.418 424.642 382.68C424.642 391.455 429.902 401.484 436.414 405.245L607.489 504.531Z"
            fill="url(#paint12_linear_223_8507)" />
    </g>
    <path d="M384.567 197.146L489.767 136.472L483.254 132.711L378.055 193.386L384.567 197.146Z" fill="white" />
    <path d="M399.845 205.922L504.794 145.247L498.282 141.486L393.082 202.161L399.845 205.922Z" fill="white" />
    <path d="M369.538 188.371L474.738 127.696L467.975 123.936L363.025 184.61L369.538 188.371Z" fill="white" />
    <path
        d="M467.975 126.443L472.233 128.95L474.738 127.696L467.975 123.936L363.025 184.61L365.28 185.864L467.975 126.443Z"
        fill="#96D99D" />
    <path
        d="M483.254 135.218L487.513 137.725L489.767 136.472L483.254 132.711L378.055 193.386L380.309 194.639L483.254 135.218Z"
        fill="#96D99D" />
    <path d="M414.874 214.697L520.073 154.022L513.561 150.011L408.361 210.936L414.874 214.697Z" fill="white" />
    <path d="M430.153 223.472L535.103 162.547L528.59 158.786L423.391 219.712L430.153 223.472Z" fill="white" />
    <path d="M445.18 232.247L550.38 171.321L543.617 167.561L438.668 228.235L445.18 232.247Z" fill="white" />
    <path d="M460.21 241.022L565.409 180.097L558.897 176.336L453.697 237.011L460.21 241.022Z" fill="white" />
    <path
        d="M498.282 143.994L502.54 146.501L504.794 145.247L498.282 141.486L393.082 202.161L395.587 203.415L498.282 143.994Z"
        fill="#96D99D" />
    <path
        d="M513.561 152.769L517.819 155.276L520.073 154.022L513.561 150.011L408.361 210.936L410.616 212.19L513.561 152.769Z"
        fill="#96D99D" />
    <path
        d="M528.59 161.544L532.848 164.051L535.103 162.547L528.59 158.786L423.391 219.712L425.645 220.965L528.59 161.544Z"
        fill="#96D99D" />
    <path
        d="M543.617 170.319L547.875 172.826L550.38 171.321L543.617 167.561L438.668 228.235L440.922 229.74L543.617 170.319Z"
        fill="#96D99D" />
    <path
        d="M558.897 179.094L563.155 181.601L565.409 180.097L558.897 176.336L453.697 237.011L455.952 238.515L558.897 179.094Z"
        fill="#96D99D" />
    <path opacity="0.4" d="M464.216 246.538L351.252 181.1L464.216 115.912L577.181 181.1L464.216 246.538Z"
        fill="#03515E" />
    <path d="M600.98 121.428V143.742L464.221 222.719V200.656L600.98 121.428Z" fill="url(#paint13_linear_223_8507)" />
    <path d="M464.221 200.656L327.461 121.428L464.221 42.4502L600.98 121.428L464.221 200.656Z"
        fill="url(#paint14_linear_223_8507)" />
    <path opacity="0.5"
        d="M464.221 192.131L334.725 117.165L327.461 121.427L464.221 200.655L600.98 121.427L593.716 117.165L464.221 192.131Z"
        fill="#1C3F72" />
    <path d="M327.461 121.428V143.742L464.221 222.719V200.656L327.461 121.428Z" fill="url(#paint15_linear_223_8507)" />
    <path d="M464.22 167.059L385.57 121.428L464.22 76.0469L542.869 121.428L464.22 167.059Z" fill="#1C3F72" />
    <path
        d="M464.22 85.5743L534.603 126.191L542.869 121.428L464.22 76.0469L385.57 121.428L393.836 126.191L464.22 85.5743Z"
        fill="#96D99D" />
    <path opacity="0.5" d="M602.483 458.398L550.635 428.562L602.483 398.727L654.081 428.562L602.483 458.398Z"
        fill="white" />
    <path d="M602.482 407.502L545.123 374.407L602.482 341.312L659.841 374.407L602.482 407.502Z"
        fill="url(#paint16_linear_223_8507)" />
    <path opacity="0.5"
        d="M602.482 403.993L548.129 372.652L545.123 374.407L602.482 407.503L659.841 374.407L656.585 372.652L602.482 403.993Z"
        fill="#1C3F72" />
    <path d="M659.841 374.406V403.741L602.482 436.836V407.502L659.841 374.406Z" fill="url(#paint17_linear_223_8507)" />
    <g opacity="0.5">
        <path data-light
            d="M624.774 409.509C624.774 412.016 623.021 414.774 621.017 416.028C619.013 417.281 617.26 416.279 617.26 413.771C617.26 411.264 619.013 408.506 621.017 407.253C623.021 405.999 624.774 407.002 624.774 409.509Z"
            fill="#1C3F72" />
        <path data-light
            d="M636.046 402.738C636.046 405.245 634.292 408.003 632.288 409.257C630.285 410.51 628.531 409.508 628.531 407C628.531 404.493 630.285 401.735 632.288 400.482C634.543 399.479 636.046 400.482 636.046 402.738Z"
            fill="#1C3F72" />
        <path data-light
            d="M647.567 396.22C647.567 398.727 645.814 401.485 643.81 402.739C641.806 403.992 640.053 402.989 640.053 400.482C640.053 397.975 641.806 395.217 643.81 393.964C645.814 392.71 647.567 393.713 647.567 396.22Z"
            fill="#1C3F72" />
    </g>
    <path d="M545.123 374.406V403.741L602.482 436.836V407.502L545.123 374.406Z" fill="url(#paint18_linear_223_8507)" />
    <path d="M602.482 345.072L545.123 311.977L602.482 278.882L659.841 311.977L602.482 345.072Z"
        fill="url(#paint19_linear_223_8507)" />
    <path d="M602.483 331.032L569.42 311.977L602.483 292.922L635.295 311.977L602.483 331.032Z" fill="#1C3F72" />
    <path
        d="M602.483 296.933L632.039 313.983L635.295 311.977L602.483 292.922L569.42 311.977L572.927 313.983L602.483 296.933Z"
        fill="#96D99D" />
    <path opacity="0.5"
        d="M602.482 341.562L548.129 310.222L545.123 311.977L602.482 345.072L659.841 311.977L656.585 310.222L602.482 341.562Z"
        fill="#1C3F72" />
    <path d="M659.841 311.978V341.312L602.482 374.407V345.073L659.841 311.978Z" fill="url(#paint20_linear_223_8507)" />
    <path d="M545.123 311.978V341.312L602.482 374.407V345.073L545.123 311.978Z" fill="url(#paint21_linear_223_8507)" />
    <g opacity="0.2">
        <path d="M545.123 341.312V374.407L602.482 407.502V374.407L545.123 341.312Z" fill="#1C3F72" />
    </g>
    <g opacity="0.2">
        <path d="M659.841 341.312V374.407L602.482 407.502V374.407L659.841 341.312Z" fill="#1C3F72" />
    </g>
    <g opacity="0.2">
        <path d="M659.841 341.312V374.407L602.482 407.502V374.407L659.841 341.312Z" fill="#1C3F72" />
    </g>
    <path opacity="0.5" d="M494.525 381.927L540.112 354.348L494.525 327.771V381.927Z" fill="#036F77" />
    <g opacity="0.2">
        <path d="M336.727 374.407L456.955 297.937V266.847L336.727 197.397V374.407Z" fill="#1C3F72" />
    </g>
    <path data-light
        d="M179.43 380.675C182.185 382.179 186.693 382.179 189.449 380.675C192.204 379.171 192.204 376.413 189.449 374.909C186.693 373.404 182.185 373.404 179.43 374.909C176.674 376.413 176.674 379.171 179.43 380.675Z"
        fill="#1C3F72" />
    <path data-light opacity="0.6"
        d="M164.652 389.2C167.408 390.704 171.916 390.704 174.671 389.2C177.427 387.695 177.427 384.937 174.671 383.433C171.916 381.929 167.408 381.929 164.652 383.433C161.897 384.937 161.897 387.695 164.652 389.2Z"
        fill="#1C3F72" />
    <path data-light opacity="0.4"
        d="M149.873 397.724C152.628 399.228 157.137 399.228 159.892 397.724C162.647 396.22 162.647 393.462 159.892 391.957C157.137 390.453 152.628 390.453 149.873 391.957C147.118 393.462 147.118 396.22 149.873 397.724Z"
        fill="#1C3F72" />
    <path data-light opacity="0.2"
        d="M135.096 406.248C137.851 407.753 142.36 407.753 145.115 406.248C147.87 404.744 147.87 401.986 145.115 400.482C142.36 398.977 137.851 398.977 135.096 400.482C132.34 402.237 132.34 404.744 135.096 406.248Z"
        fill="#1C3F72" />
    <path data-light opacity="0.1"
        d="M120.066 415.024C122.822 416.528 127.33 416.528 130.085 415.024C132.841 413.519 132.841 410.761 130.085 409.257C127.33 407.753 122.822 407.753 120.066 409.257C117.311 410.761 117.311 413.269 120.066 415.024Z"
        fill="#1C3F72" />
    <path d="M206.231 633.653L174.17 615.099L206.231 596.546L238.292 615.099L206.231 633.653Z" fill="#BEECD0" />
    <path
        d="M206.231 586.016C205.981 586.016 205.981 586.016 205.73 586.016L132.341 543.644C132.09 543.394 131.84 543.143 131.84 542.892C131.84 542.642 132.09 542.14 132.341 542.14L205.48 499.768C205.73 499.517 206.231 499.517 206.482 499.768L279.871 542.14C280.121 542.391 280.372 542.642 280.372 542.892C280.372 543.143 280.121 543.644 279.871 543.644L206.732 586.016C206.482 586.016 206.231 586.016 206.231 586.016ZM134.846 542.892L206.231 584.261L277.617 542.892L206.231 501.523L134.846 542.892Z"
        fill="#1C3F72" />
    <path d="M206.232 530.856L148.623 497.51L206.232 464.415L263.842 497.51L206.232 530.856Z"
        fill="url(#paint22_linear_223_8507)" />
    <path opacity="0.5"
        d="M206.232 527.347L151.629 495.756L148.623 497.511L206.232 530.857L263.842 497.511L260.586 495.756L206.232 527.347Z"
        fill="#1C3F72" />
    <path d="M263.84 497.512V527.097L206.23 560.192V530.858L263.84 497.512Z" fill="url(#paint23_linear_223_8507)" />
    <g opacity="0.5">
        <path data-light
            d="M228.522 532.863C228.522 535.37 226.769 538.128 224.765 539.381C222.761 540.635 221.008 539.632 221.008 537.125C221.008 534.618 222.761 531.86 224.765 530.606C226.769 529.352 228.522 530.355 228.522 532.863Z"
            fill="#1C3F72" />
        <path data-light
            d="M240.044 526.092C240.044 528.599 238.29 531.357 236.286 532.61C234.283 533.864 232.529 532.861 232.529 530.354C232.529 527.847 234.283 525.089 236.286 523.835C238.29 522.832 240.044 523.835 240.044 526.092Z"
            fill="#1C3F72" />
        <path data-light
            d="M251.565 519.574C251.565 522.081 249.812 524.839 247.808 526.092C245.804 527.346 244.051 526.343 244.051 523.836C244.051 521.329 245.804 518.571 247.808 517.317C249.812 516.063 251.565 517.066 251.565 519.574Z"
            fill="#1C3F72" />
    </g>
    <path d="M148.623 497.512V527.097L206.232 560.192V530.858L148.623 497.512Z" fill="url(#paint24_linear_223_8507)" />
    <path d="M206.232 468.176L148.623 434.83L206.232 401.484L263.842 434.83L206.232 468.176Z"
        fill="url(#paint25_linear_223_8507)" />
    <path d="M206.231 454.136L173.168 434.83L206.231 415.775L239.294 434.83L206.231 454.136Z" fill="#1C3F72" />
    <path
        d="M206.231 419.787L235.787 436.836L239.294 434.83L206.231 415.775L173.168 434.83L176.424 436.836L206.231 419.787Z"
        fill="#96D99D" />
    <path opacity="0.5"
        d="M206.232 464.666L151.629 433.075L148.623 434.83L206.232 468.176L263.842 434.83L260.586 433.075L206.232 464.666Z"
        fill="#1C3F72" />
    <path d="M263.84 434.831V464.416L206.23 497.512V468.177L263.84 434.831Z" fill="url(#paint26_linear_223_8507)" />
    <path d="M148.623 434.831V464.416L206.232 497.512V468.177L148.623 434.831Z" fill="url(#paint27_linear_223_8507)" />
    <g opacity="0.2">
        <path d="M148.623 464.415V497.51L206.232 530.856V497.51L148.623 464.415Z" fill="#1C3F72" />
    </g>
    <g opacity="0.2">
        <path d="M263.84 464.415V497.51L206.23 530.856V497.51L263.84 464.415Z" fill="#1C3F72" />
    </g>
    <g opacity="0.2">
        <path d="M263.84 464.415V497.51L206.23 530.856V497.51L263.84 464.415Z" fill="#1C3F72" />
    </g>
    <g opacity="0.8">
        <path d="M198.215 331.532L166.154 313.229L198.215 294.676L230.026 313.229L198.215 331.532Z" fill="#BEECD0" />
        <path
            d="M198.215 284.146C197.965 284.146 197.965 284.146 197.715 284.146L124.325 241.774C124.075 241.524 123.824 241.273 123.824 241.022C123.824 240.771 124.075 240.27 124.325 240.27L197.464 197.898C197.714 197.647 198.216 197.647 198.466 197.898L271.855 240.27C272.106 240.521 272.356 240.771 272.356 241.022C272.356 241.273 272.106 241.774 271.855 241.774L198.716 284.146C198.466 283.896 198.215 284.146 198.215 284.146ZM126.579 240.771L197.965 282.141L269.351 240.771L197.965 199.402L126.579 240.771Z"
            fill="#1C3F72" />
        <path d="M198.217 228.736L140.607 195.641L198.217 162.295L255.576 195.641L198.217 228.736Z"
            fill="url(#paint28_linear_223_8507)" />
        <path opacity="0.5"
            d="M198.217 225.226L143.613 193.886L140.607 195.641L198.217 228.736L255.576 195.641L252.57 193.886L198.217 225.226Z"
            fill="#1C3F72" />
        <path d="M255.574 195.642V224.976L198.215 258.322V228.737L255.574 195.642Z"
            fill="url(#paint29_linear_223_8507)" />
        <g opacity="0.5">
            <path data-light
                d="M220.508 230.743C220.508 233.25 218.755 236.008 216.751 237.262C214.747 238.515 212.994 237.512 212.994 235.005C212.994 232.498 214.747 229.74 216.751 228.486C218.755 227.484 220.508 228.486 220.508 230.743Z"
                fill="#1C3F72" />
            <path data-light
                d="M232.03 224.224C232.03 226.731 230.277 229.489 228.273 230.743C226.269 231.996 224.516 230.993 224.516 228.486C224.516 225.979 226.269 223.221 228.273 221.967C230.277 220.714 232.03 221.717 232.03 224.224Z"
                fill="#1C3F72" />
            <path data-light
                d="M243.553 217.454C243.553 219.962 241.8 222.72 239.796 223.973C237.792 225.227 236.039 224.224 236.039 221.717C236.039 219.209 237.792 216.452 239.796 215.198C241.8 213.944 243.553 214.947 243.553 217.454Z"
                fill="#1C3F72" />
        </g>
        <path d="M140.607 195.642V224.976L198.217 258.322V228.737L140.607 195.642Z"
            fill="url(#paint30_linear_223_8507)" />
        <path d="M198.216 214.695L164.902 195.641L198.216 176.335L231.278 195.641L198.216 214.695Z" fill="#1C3F72" />
        <path
            d="M198.216 180.347L227.772 197.646L231.278 195.641L198.216 176.335L164.902 195.641L168.409 197.646L198.216 180.347Z"
            fill="#96D99D" />
    </g>
    <g opacity="0.2">
        <mask id="mask1_223_8507" style="mask-type:luminance" maskUnits="userSpaceOnUse" x="333" y="195" width="124"
            height="289">
            <path d="M333.721 195.643V412.266L456.955 483.471V266.848L333.721 195.643Z" fill="white" />
        </mask>
        <g mask="url(#mask1_223_8507)">
            <path
                d="M440.924 446.866C440.674 446.866 440.674 446.866 440.423 446.866L367.034 404.494C366.784 404.243 366.533 403.993 366.533 403.742C366.533 403.491 366.784 402.99 367.034 402.99L440.173 360.618C440.424 360.367 440.924 360.367 441.175 360.618L514.564 402.99C514.815 403.24 515.065 403.491 515.065 403.742C515.065 403.993 514.815 404.494 514.564 404.494L441.425 446.866C441.175 446.615 441.175 446.866 440.924 446.866ZM369.539 403.491L440.924 444.86L512.31 403.491L440.924 362.122L369.539 403.491Z"
                fill="#1C3F72" />
            <path d="M440.926 391.456L383.316 358.361L440.926 325.015L498.535 358.361L440.926 391.456Z"
                fill="url(#paint31_linear_223_8507)" />
            <path opacity="0.5"
                d="M440.926 387.946L386.322 356.605L383.316 358.361L440.926 391.456L498.535 358.361L495.529 356.605L440.926 387.946Z"
                fill="#1C3F72" />
            <path d="M498.533 358.361V387.696L440.924 421.042V391.457L498.533 358.361Z"
                fill="url(#paint32_linear_223_8507)" />
            <g opacity="0.5">
                <path
                    d="M463.217 393.462C463.217 395.969 461.464 398.727 459.46 399.98C457.456 401.234 455.703 400.231 455.703 397.724C455.703 395.217 457.456 392.459 459.46 391.205C461.715 390.202 463.217 391.205 463.217 393.462Z"
                    fill="#1C3F72" />
            </g>
            <path d="M383.316 358.361V387.696L440.926 421.042V391.457L383.316 358.361Z"
                fill="url(#paint33_linear_223_8507)" />
            <path d="M440.926 328.775L383.316 295.68L440.926 262.334L498.535 295.68L440.926 328.775Z"
                fill="url(#paint34_linear_223_8507)" />
            <path d="M440.924 314.735L407.861 295.681L440.924 276.375L473.987 295.681L440.924 314.735Z"
                fill="#1C3F72" />
            <path
                d="M440.924 280.387L470.48 297.686L473.987 295.681L440.924 276.375L407.861 295.681L411.368 297.686L440.924 280.387Z"
                fill="#96D99D" />
            <path opacity="0.5"
                d="M440.926 325.265L386.322 293.674L383.316 295.68L440.926 328.775L498.535 295.68L495.529 293.674L440.926 325.265Z"
                fill="#1C3F72" />
            <path d="M498.533 295.681V325.015L440.924 358.361V328.776L498.533 295.681Z"
                fill="url(#paint35_linear_223_8507)" />
            <path d="M383.316 295.681V325.015L440.926 358.361V328.776L383.316 295.681Z"
                fill="url(#paint36_linear_223_8507)" />
            <g opacity="0.2">
                <path d="M383.316 325.015V358.361L440.926 391.456V358.361L383.316 325.015Z" fill="#1C3F72" />
            </g>
            <g opacity="0.2">
                <path d="M498.533 325.015V358.361L440.924 391.456V358.361L498.533 325.015Z" fill="#1C3F72" />
            </g>
            <g opacity="0.2">
                <path d="M498.533 325.015V358.361L440.924 391.456V358.361L498.533 325.015Z" fill="#1C3F72" />
            </g>
        </g>
    </g>
    <defs>
        <linearGradient id="paint0_linear_223_8507" x1="532.93" y1="116.207" x2="648.12" y2="116.207"
            gradientUnits="userSpaceOnUse">
            <stop stop-color="#96D99D" />
            <stop offset="1" stop-color="#259789" />
        </linearGradient>
        <linearGradient id="paint1_linear_223_8507" x1="746.823" y1="147.451" x2="547.318" y2="147.616"
            gradientUnits="userSpaceOnUse">
            <stop stop-color="#96D99D" />
            <stop offset="1" stop-color="#259789" />
        </linearGradient>
        <linearGradient id="paint2_linear_223_8507" x1="532.93" y1="147.556" x2="590.525" y2="147.556"
            gradientUnits="userSpaceOnUse">
            <stop stop-color="#76AD7E" />
            <stop offset="1" stop-color="#036F77" />
        </linearGradient>
        <linearGradient id="paint3_linear_223_8507" x1="326.518" y1="182.396" x2="601.842" y2="182.396"
            gradientUnits="userSpaceOnUse">
            <stop stop-color="#96D99D" />
            <stop offset="1" stop-color="#259789" />
        </linearGradient>
        <linearGradient id="paint4_linear_223_8507" x1="838.063" y1="339.156" x2="360.745" y2="339.549"
            gradientUnits="userSpaceOnUse">
            <stop stop-color="#96D99D" />
            <stop offset="1" stop-color="#259789" />
        </linearGradient>
        <linearGradient id="paint5_linear_223_8507" x1="579.731" y1="352.329" x2="439.343" y2="306.515"
            gradientUnits="userSpaceOnUse">
            <stop stop-color="#76AD7E" />
            <stop offset="1" stop-color="#036F77" />
        </linearGradient>
        <linearGradient id="paint6_linear_223_8507" x1="326.518" y1="339.407" x2="464.182" y2="339.407"
            gradientUnits="userSpaceOnUse">
            <stop stop-color="#76AD7E" />
            <stop offset="1" stop-color="#036F77" />
        </linearGradient>
        <linearGradient id="paint7_linear_223_8507" x1="333.599" y1="339.618" x2="456.874" y2="339.618"
            gradientUnits="userSpaceOnUse">
            <stop stop-color="#96D99D" />
            <stop offset="1" stop-color="#2F98A3" />
        </linearGradient>
        <linearGradient id="paint8_linear_223_8507" x1="474.303" y1="444.427" x2="642.657" y2="444.427"
            gradientUnits="userSpaceOnUse">
            <stop stop-color="#76AD7E" />
            <stop offset="1" stop-color="#036F77" />
        </linearGradient>
        <linearGradient id="paint9_linear_223_8507" x1="472.19" y1="388.106" x2="684.783" y2="462.526"
            gradientUnits="userSpaceOnUse">
            <stop stop-color="#96D99D" />
            <stop offset="1" stop-color="#259789" />
        </linearGradient>
        <linearGradient id="paint10_linear_223_8507" x1="593.988" y1="479.288" x2="619.043" y2="479.288"
            gradientUnits="userSpaceOnUse">
            <stop stop-color="#96D99D" />
            <stop offset="1" stop-color="#259789" />
        </linearGradient>
        <linearGradient id="paint11_linear_223_8507" x1="598.827" y1="486.557" x2="613.341" y2="486.557"
            gradientUnits="userSpaceOnUse">
            <stop stop-color="#96D99D" />
            <stop offset="1" stop-color="#259789" />
        </linearGradient>
        <linearGradient id="paint12_linear_223_8507" x1="421.051" y1="381.826" x2="621.078" y2="381.826"
            gradientUnits="userSpaceOnUse">
            <stop stop-color="#76AD7E" />
            <stop offset="1" stop-color="#036F77" />
        </linearGradient>
        <linearGradient id="paint13_linear_223_8507" x1="835.311" y1="171.897" x2="361.62" y2="172.286"
            gradientUnits="userSpaceOnUse">
            <stop stop-color="#96D99D" />
            <stop offset="1" stop-color="#259789" />
        </linearGradient>
        <linearGradient id="paint14_linear_223_8507" x1="327.393" y1="121.506" x2="600.971" y2="121.506"
            gradientUnits="userSpaceOnUse">
            <stop stop-color="#96D99D" />
            <stop offset="1" stop-color="#259789" />
        </linearGradient>
        <linearGradient id="paint15_linear_223_8507" x1="327.393" y1="172.145" x2="464.184" y2="172.145"
            gradientUnits="userSpaceOnUse">
            <stop stop-color="#76AD7E" />
            <stop offset="1" stop-color="#036F77" />
        </linearGradient>
        <linearGradient id="paint16_linear_223_8507" x1="545.081" y1="374.337" x2="659.764" y2="374.337"
            gradientUnits="userSpaceOnUse">
            <stop stop-color="#96D99D" />
            <stop offset="1" stop-color="#036F77" />
        </linearGradient>
        <linearGradient id="paint17_linear_223_8507" x1="758.036" y1="405.443" x2="559.409" y2="405.607"
            gradientUnits="userSpaceOnUse">
            <stop stop-color="#96D99D" />
            <stop offset="1" stop-color="#259789" />
        </linearGradient>
        <linearGradient id="paint18_linear_223_8507" x1="545.081" y1="405.548" x2="602.423" y2="405.548"
            gradientUnits="userSpaceOnUse">
            <stop stop-color="#76AD7E" />
            <stop offset="1" stop-color="#036F77" />
        </linearGradient>
        <linearGradient id="paint19_linear_223_8507" x1="545.081" y1="311.916" x2="659.764" y2="311.916"
            gradientUnits="userSpaceOnUse">
            <stop stop-color="#96D99D" />
            <stop offset="1" stop-color="#259789" />
        </linearGradient>
        <linearGradient id="paint20_linear_223_8507" x1="758.036" y1="343.023" x2="559.409" y2="343.186"
            gradientUnits="userSpaceOnUse">
            <stop stop-color="#96D99D" />
            <stop offset="1" stop-color="#2F98A3" />
        </linearGradient>
        <linearGradient id="paint21_linear_223_8507" x1="545.081" y1="343.127" x2="602.423" y2="343.127"
            gradientUnits="userSpaceOnUse">
            <stop stop-color="#76AD7E" />
            <stop offset="1" stop-color="#036F77" />
        </linearGradient>
        <linearGradient id="paint22_linear_223_8507" x1="148.558" y1="497.592" x2="263.748" y2="497.592"
            gradientUnits="userSpaceOnUse">
            <stop stop-color="#96D99D" />
            <stop offset="1" stop-color="#2F98A3" />
        </linearGradient>
        <linearGradient id="paint23_linear_223_8507" x1="362.452" y1="528.837" x2="162.947" y2="529.002"
            gradientUnits="userSpaceOnUse">
            <stop stop-color="#259789" />
            <stop offset="1" stop-color="#30A842" />
        </linearGradient>
        <linearGradient id="paint24_linear_223_8507" x1="148.558" y1="528.942" x2="206.154" y2="528.942"
            gradientUnits="userSpaceOnUse">
            <stop stop-color="#76AD7E" />
            <stop offset="1" stop-color="#036F77" />
        </linearGradient>
        <linearGradient id="paint25_linear_223_8507" x1="148.558" y1="434.895" x2="263.748" y2="434.895"
            gradientUnits="userSpaceOnUse">
            <stop stop-color="#96D99D" />
            <stop offset="1" stop-color="#259789" />
        </linearGradient>
        <linearGradient id="paint26_linear_223_8507" x1="362.452" y1="466.14" x2="162.947" y2="466.304"
            gradientUnits="userSpaceOnUse">
            <stop stop-color="#96D99D" />
            <stop offset="1" stop-color="#259789" />
        </linearGradient>
        <linearGradient id="paint27_linear_223_8507" x1="148.558" y1="466.244" x2="206.154" y2="466.244"
            gradientUnits="userSpaceOnUse">
            <stop stop-color="#76AD7E" />
            <stop offset="1" stop-color="#036F77" />
        </linearGradient>
        <linearGradient id="paint28_linear_223_8507" x1="140.508" y1="195.572" x2="255.698" y2="195.572"
            gradientUnits="userSpaceOnUse">
            <stop stop-color="#96D99D" />
            <stop offset="1" stop-color="#259789" />
        </linearGradient>
        <linearGradient id="paint29_linear_223_8507" x1="354.401" y1="226.817" x2="154.896" y2="226.982"
            gradientUnits="userSpaceOnUse">
            <stop stop-color="#96D99D" />
            <stop offset="1" stop-color="#259789" />
        </linearGradient>
        <linearGradient id="paint30_linear_223_8507" x1="140.508" y1="226.922" x2="198.104" y2="226.922"
            gradientUnits="userSpaceOnUse">
            <stop stop-color="#76AD7E" />
            <stop offset="1" stop-color="#036F77" />
        </linearGradient>
        <linearGradient id="paint31_linear_223_8507" x1="383.322" y1="358.264" x2="498.512" y2="358.264"
            gradientUnits="userSpaceOnUse">
            <stop stop-color="#96D99D" />
            <stop offset="1" stop-color="#259789" />
        </linearGradient>
        <linearGradient id="paint32_linear_223_8507" x1="597.215" y1="389.509" x2="397.71" y2="389.673"
            gradientUnits="userSpaceOnUse">
            <stop stop-color="#96D99D" />
            <stop offset="1" stop-color="#259789" />
        </linearGradient>
        <linearGradient id="paint33_linear_223_8507" x1="383.322" y1="389.613" x2="440.918" y2="389.613"
            gradientUnits="userSpaceOnUse">
            <stop stop-color="#76AD7E" />
            <stop offset="1" stop-color="#036F77" />
        </linearGradient>
        <linearGradient id="paint34_linear_223_8507" x1="383.322" y1="295.566" x2="498.512" y2="295.566"
            gradientUnits="userSpaceOnUse">
            <stop stop-color="#96D99D" />
            <stop offset="1" stop-color="#259789" />
        </linearGradient>
        <linearGradient id="paint35_linear_223_8507" x1="597.215" y1="326.811" x2="397.71" y2="326.975"
            gradientUnits="userSpaceOnUse">
            <stop stop-color="#96D99D" />
            <stop offset="1" stop-color="#259789" />
        </linearGradient>
        <linearGradient id="paint36_linear_223_8507" x1="383.322" y1="326.916" x2="440.918" y2="326.916"
            gradientUnits="userSpaceOnUse">
            <stop stop-color="#76AD7E" />
            <stop offset="1" stop-color="#036F77" />
        </linearGradient>
    </defs>
</svg>