<svg width="38" height="38" viewBox="0 0 38 38" fill="none" xmlns="http://www.w3.org/2000/svg">
<rect x="1" y="1" width="36" height="36" rx="18" stroke="#30A842" stroke-width="2"/>
<path d="M15.1953 15.765C15.423 15.0633 15.8405 14.4383 16.4014 13.959C16.9622 13.4797 17.6444 13.165 18.373 13.0494C19.1017 12.9338 19.8486 13.022 20.5303 13.3042C21.2119 13.5864 21.8016 14.0517 22.2354 14.6484C22.6691 15.2452 22.9295 15.9501 22.9875 16.6855C23.0455 17.421 22.8985 18.1581 22.5636 18.8154C22.2287 19.4728 21.7192 20.0251 21.0901 20.4106C20.4611 20.7961 19.7377 21.0002 19 21.0002V21.9998M19.0498 26V26.1L18.9502 26.1002V26H19.0498Z" stroke="#30A842" stroke-width="2" stroke-linecap="round" stroke-linejoin="round"/>
</svg>
