<svg width="685" height="471" viewBox="0 0 685 471" fill="none" xmlns="http://www.w3.org/2000/svg">
    <path
        d="M156.392 257.895C154.079 257.895 151.944 257.362 149.987 256.118L76.8613 213.994C75.7937 213.283 75.082 212.217 75.082 210.795C75.082 209.551 75.7937 208.307 76.8613 207.596L209.235 131.347C209.413 131.169 209.769 131.169 209.947 131.347L210.481 131.703L288.944 177.025C290.012 177.736 290.724 178.803 290.724 180.225C290.724 181.469 290.012 182.713 288.944 183.424L162.62 256.295C160.84 257.362 158.705 257.895 156.392 257.895ZM209.591 132.769L77.5729 208.84C76.8612 209.195 76.5054 209.906 76.5054 210.795C76.5054 211.506 76.8612 212.395 77.5729 212.75L150.699 254.874C154.079 256.829 158.527 256.829 161.908 254.874L288.233 182.002C288.944 181.646 289.3 180.935 289.3 180.047C289.3 179.336 288.944 178.447 288.233 178.092L209.591 132.769Z"
        fill="#42E8E0" />
    <path
        d="M298.555 156.407L290.904 160.495L213.864 116.061C212.618 115.35 210.305 115.35 208.882 116.238L76.152 192.843C74.9066 192.132 69.0352 189.288 69.0352 189.288L71.8819 196.575C72.0598 196.931 72.2378 197.286 72.5936 197.464L153.726 244.208C154.972 244.919 157.285 244.919 158.708 244.031L294.64 165.649C295.174 165.294 295.708 164.938 295.708 164.405L298.555 156.407Z"
        fill="url(#paint0_linear_367_4095)" />
    <path
        d="M297.485 157.651L158.172 237.988C156.571 238.876 154.258 238.876 153.012 238.165L69.9227 190.177C68.6773 189.466 68.8552 188.044 70.2786 187.155L209.592 106.819C211.193 105.93 213.506 105.93 214.751 106.641L297.841 154.629C299.086 155.518 298.908 156.94 297.485 157.651Z"
        fill="url(#paint1_linear_367_4095)" />
    <path
        d="M297.487 156.939L158.174 237.276C156.572 238.165 154.259 238.165 153.014 237.454L69.9243 189.465C69.5684 189.287 69.2126 188.932 69.0347 188.576C68.8567 189.287 69.0347 189.821 69.9243 190.354L153.014 238.165C154.259 238.876 156.572 238.876 158.174 237.987L297.487 157.65C298.554 157.117 298.91 156.229 298.732 155.518C298.376 156.051 298.02 156.584 297.487 156.939Z"
        fill="white" />
    <path
        d="M116.184 220.747V219.147C116.184 218.97 116.184 218.97 116.362 218.97L121.699 221.991C121.877 221.991 121.877 222.169 121.877 222.347V223.946C121.877 224.124 121.877 224.124 121.699 224.124L116.362 221.103C116.184 220.925 116.184 220.747 116.184 220.747Z"
        fill="#30A842" />
    <path
        d="M124.191 225.369V223.77C124.191 223.592 124.191 223.592 124.369 223.592L129.707 226.613C129.885 226.613 129.885 226.791 129.885 226.969V228.568C129.885 228.746 129.885 228.746 129.707 228.746L124.369 225.725C124.369 225.547 124.191 225.547 124.191 225.369Z"
        fill="#30A842" />
    <path
        d="M116.717 201.196L232.366 134.545C233.078 134.012 234.145 134.012 234.857 134.545L276.135 158.362C276.669 158.718 276.669 159.606 276.135 159.962L160.486 226.613C159.774 227.146 158.706 227.146 157.995 226.613L116.717 202.796C116.183 202.441 116.183 201.552 116.717 201.196Z"
        fill="#96D99D" />
    <path
        d="M116.715 202.796L117.071 202.974L232.364 136.501C233.076 135.967 234.144 135.967 234.855 136.501L275.599 160.139L275.955 159.962C276.489 159.606 276.489 158.718 275.955 158.362L234.677 134.545C233.966 134.012 232.898 134.012 232.186 134.545L116.537 201.196C116.181 201.552 116.181 202.441 116.715 202.796Z"
        fill="#96D99D" />
    <path d="M238.058 140.589L131.482 201.908L126.145 199.953L233.609 137.923L238.058 140.589Z" fill="#073245" />
    <path d="M249.09 146.809L154.792 201.196L150.344 198.707L244.642 144.32L249.09 146.809Z" fill="#073245" />
    <path d="M256.206 150.898L145.182 215.061L140.734 212.395L251.758 148.41L256.206 150.898Z" fill="#073245" />
    <path d="M263.319 155.163L152.296 219.148L147.848 216.482L258.871 152.497L263.319 155.163Z" fill="#073245" />
    <path d="M270.436 159.251L159.413 223.236L154.965 220.57L265.988 156.585L270.436 159.251Z" fill="#073245" />
    <path d="M131.482 201.907L127.034 204.573L122.586 201.907L127.034 199.419L131.482 201.907Z" fill="#073245" />
    <path d="M160.128 198.175L138.065 210.972L133.617 208.306L155.857 195.331L160.128 198.175Z" fill="#073245" />
    <path
        d="M157.998 171.336L189.135 153.385C190.38 152.674 190.38 151.608 189.135 150.897L167.784 138.633C166.539 137.922 164.582 137.922 163.336 138.633L132.2 156.406C130.954 157.117 130.954 158.184 132.2 158.895L153.55 171.158C154.796 172.047 156.753 172.047 157.998 171.336Z"
        fill="url(#paint2_linear_367_4095)" />
    <path
        d="M132.196 157.474L163.332 139.522C164.578 138.812 166.535 138.812 167.78 139.522L189.131 151.786C189.487 151.964 189.665 152.319 189.843 152.497C190.199 151.964 189.843 151.253 189.131 150.72L167.78 138.456C166.535 137.745 164.578 137.745 163.332 138.456L132.196 156.407C131.306 156.941 131.128 157.652 131.484 158.185C131.662 158.007 131.84 157.652 132.196 157.474Z"
        fill="#96D99D" />
    <path
        d="M298.376 154.452L280.762 50.1215L282.185 49.5883L280.05 48.3441C279.694 47.9887 278.982 48.1664 278.449 48.5219L137.712 129.569C136.645 130.28 135.755 131.88 135.933 133.124L153.725 238.344C153.903 238.877 154.081 239.232 154.437 239.41L156.572 240.654L156.928 238.699H156.75L296.597 158.007C297.664 157.296 298.554 155.519 298.376 154.452Z"
        fill="url(#paint3_linear_367_4095)" />
    <path
        d="M138.599 132.412L136.286 131.346C136.108 131.879 135.93 132.59 135.93 133.123L153.722 238.343C153.9 238.876 154.078 239.231 154.434 239.409L156.569 240.653L156.924 238.698H156.747L163.863 234.61L138.599 132.412Z"
        fill="url(#paint4_linear_367_4095)" />
    <path
        d="M298.729 159.251L157.993 240.299C156.926 241.01 156.036 240.477 155.858 239.41L138.066 134.191C137.888 132.946 138.777 131.347 139.845 130.636L280.581 49.5884C281.649 48.8774 282.538 49.4106 282.716 50.477L300.509 155.697C300.864 156.941 299.975 158.54 298.729 159.251Z"
        fill="#21555F" />
    <path
        d="M553.161 257.894C550.848 257.894 548.713 257.361 546.756 256.117L420.432 183.245C419.364 182.534 418.652 181.468 418.652 180.046C418.652 178.802 419.364 177.558 420.432 176.847L499.607 131.168C499.785 130.991 500.141 130.991 500.319 131.168L632.693 207.417C633.76 208.128 634.472 209.194 634.472 210.616C634.472 211.861 633.76 213.105 632.693 213.816L559.567 255.939C557.609 257.361 555.474 257.894 553.161 257.894ZM547.646 254.873C551.026 256.828 555.474 256.828 558.855 254.873L631.981 212.749C632.693 212.394 633.048 211.683 633.048 210.794C633.048 210.083 632.693 209.372 631.981 208.839L499.963 132.768L499.785 132.946L421.321 178.268C420.609 178.624 420.254 179.335 420.254 180.224C420.254 180.934 420.609 181.645 421.321 182.179L547.646 254.873Z"
        fill="#42E8E0" />
    <path
        d="M411.004 156.407L418.655 160.495L495.695 116.061C496.94 115.35 499.253 115.35 500.677 116.238L633.407 192.843C634.652 192.132 640.523 189.288 640.523 189.288L637.677 196.575C637.499 196.931 637.321 197.286 636.965 197.464L555.832 244.208C554.587 244.919 552.274 244.919 550.851 244.031L414.918 165.649C414.384 165.294 413.851 164.938 413.851 164.405L411.004 156.407Z"
        fill="url(#paint5_linear_367_4095)" />
    <path
        d="M412.247 157.651L551.56 237.988C553.161 238.876 555.474 238.876 556.719 238.165L639.809 190.177C641.055 189.466 640.877 188.044 639.453 187.155L500.14 106.819C498.539 105.93 496.226 105.93 494.981 106.641L411.891 154.629C410.468 155.518 410.645 156.94 412.247 157.651Z"
        fill="url(#paint6_linear_367_4095)" />
    <path
        d="M412.25 156.94L551.563 237.277C553.164 238.166 555.477 238.166 556.723 237.455L639.812 189.466C640.168 189.288 640.524 188.933 640.702 188.577C640.88 189.288 640.702 189.822 639.812 190.355L556.723 238.343C555.477 239.054 553.164 239.054 551.563 238.166L412.25 157.829C411.183 157.296 410.827 156.407 411.005 155.696C411.183 156.052 411.538 156.585 412.25 156.94Z"
        fill="white" />
    <path
        d="M593.373 220.747V219.147C593.373 218.97 593.373 218.97 593.195 218.97L587.858 221.991C587.68 221.991 587.68 222.169 587.68 222.347V223.946C587.68 224.124 587.68 224.124 587.858 224.124L593.195 221.103C593.373 220.925 593.373 220.747 593.373 220.747Z"
        fill="#30A842" />
    <path
        d="M585.365 225.369V223.77C585.365 223.592 585.365 223.592 585.187 223.592L579.85 226.613C579.672 226.613 579.672 226.791 579.672 226.969V228.568C579.672 228.746 579.672 228.746 579.85 228.746L585.187 225.725C585.365 225.547 585.365 225.547 585.365 225.369Z"
        fill="#30A842" />
    <path
        d="M592.838 201.196L477.189 134.545C476.477 134.012 475.409 134.012 474.698 134.545L433.42 158.362C432.886 158.718 432.886 159.606 433.42 159.962L549.069 226.613C549.781 227.146 550.848 227.146 551.56 226.613L592.838 202.796C593.372 202.441 593.372 201.552 592.838 201.196Z"
        fill="#96D99D" />
    <path
        d="M592.84 202.796L592.484 202.974L477.19 136.501C476.479 135.967 475.411 135.967 474.7 136.501L433.955 160.139L433.6 159.962C433.066 159.606 433.066 158.718 433.6 158.362L474.877 134.545C475.589 134.012 476.657 134.012 477.368 134.545L593.018 201.196C593.374 201.552 593.374 202.441 592.84 202.796Z"
        fill="#96D99D" />
    <path d="M471.492 140.589L578.068 201.908L583.405 199.953L475.94 137.923L471.492 140.589Z" fill="#073245" />
    <path d="M460.645 146.809L554.943 201.196L559.391 198.707L465.093 144.32L460.645 146.809Z" fill="#073245" />
    <path d="M453.527 150.898L564.373 215.061L568.999 212.395L457.975 148.41L453.527 150.898Z" fill="#073245" />
    <path d="M446.23 155.163L557.254 219.148L561.702 216.482L450.856 152.497L446.23 155.163Z" fill="#073245" />
    <path d="M439.113 159.251L550.137 223.236L554.585 220.57L443.561 156.585L439.113 159.251Z" fill="#073245" />
    <path d="M578.074 201.907L582.522 204.573L586.97 201.907L582.522 199.419L578.074 201.907Z" fill="#073245" />
    <path d="M549.426 198.175L571.666 210.972L576.114 208.306L553.696 195.331L549.426 198.175Z" fill="#073245" />
    <path
        d="M551.738 171.336L520.602 153.385C519.357 152.674 519.357 151.608 520.602 150.897L541.953 138.633C543.198 137.922 545.155 137.922 546.401 138.633L577.537 156.584C578.783 157.295 578.783 158.361 577.537 159.072L556.186 171.336C554.763 172.047 552.806 172.047 551.738 171.336Z"
        fill="url(#paint7_linear_367_4095)" />
    <path
        d="M577.357 157.474L546.22 139.522C544.975 138.812 543.018 138.812 541.772 139.522L520.422 151.786C520.066 151.964 519.888 152.319 519.71 152.497C519.354 151.964 519.71 151.253 520.422 150.72L541.772 138.456C543.018 137.745 544.975 137.745 546.22 138.456L577.357 156.407C578.246 156.941 578.424 157.652 578.068 158.185C578.068 158.007 577.712 157.652 577.357 157.474Z"
        fill="#96D99D" />
    <path
        d="M411.175 154.452L428.789 50.1215L427.366 49.5883L429.501 48.3441C429.857 47.9887 430.569 48.1664 431.102 48.5219L571.839 129.569C572.906 130.28 573.796 131.88 573.618 133.124L555.826 238.344C555.648 238.877 555.47 239.232 555.114 239.41L552.979 240.654L552.623 238.699H552.801L412.954 158.007C411.887 157.296 410.997 155.519 411.175 154.452Z"
        fill="url(#paint8_linear_367_4095)" />
    <path
        d="M571.132 132.412L573.445 131.346C573.623 131.879 573.801 132.59 573.801 133.123L556.009 238.343C555.831 238.876 555.653 239.231 555.297 239.409L553.162 240.653L552.806 238.698H552.984L545.867 234.61L571.132 132.412Z"
        fill="url(#paint9_linear_367_4095)" />
    <path
        d="M410.822 159.251L551.558 240.299C552.625 241.01 553.515 240.477 553.693 239.41L571.485 134.191C571.663 132.946 570.774 131.347 569.706 130.636L428.97 49.5884C427.902 48.8774 427.012 49.4106 426.835 50.477L409.042 155.697C408.864 156.941 409.754 158.54 410.822 159.251Z"
        fill="#21555F" />
    <path d="M354.779 282.956L223.828 207.419L354.779 131.881L485.729 207.419L354.779 282.956Z" fill="#BEECD0" />
    <path d="M354.782 262.338L259.594 207.417L354.782 152.497L449.97 207.417L354.782 262.338Z" fill="#21555F" />
    <path
        d="M354.782 156.23L446.768 209.373L449.97 207.417L354.782 152.497L259.594 207.417L262.796 209.373L354.782 156.23Z"
        fill="white" />
    <path d="M485.732 207.419V250.253L354.781 325.791V282.957L485.732 207.419Z" fill="url(#paint10_linear_367_4095)" />
    <path d="M223.828 207.419V250.253L354.779 325.791V282.957L223.828 207.419Z" fill="#073245" />
    <g opacity="0.51">
        <path d="M232.723 226.793V240.301L345.881 305.53V292.022L232.723 226.793Z" fill="#21555F" />
    </g>
    <path
        d="M354.779 280.646L225.963 206.353L223.828 207.419L354.779 283.134L485.729 207.419L483.594 206.353L354.779 280.646Z"
        fill="white" />
    <path d="M466.157 237.457V245.1L374.527 298.065V290.422L466.157 237.457Z" fill="#21555F" />
    <path opacity="0.51" d="M223.828 207.419V250.253L354.779 325.791V282.957L223.828 207.419Z" fill="#21555F" />
    <path d="M316.527 280.822L292.863 267.137V269.98L316.527 283.666V280.822Z" fill="#42E8E0" />
    <path d="M289.483 265.184L283.078 261.451V264.295L289.483 268.027V265.184Z" fill="#42E8E0" />
    <path d="M259.416 247.766L246.25 240.123V242.967L259.416 250.609V247.766Z" fill="#42E8E0" />
    <path d="M271.332 254.696L261.902 249.187V252.03L271.332 257.54V254.696Z" fill="#42E8E0" />
    <path d="M280.233 259.852L273.828 256.119V258.963L280.233 262.695V259.852Z" fill="#42E8E0" />
    <path d="M354.963 171.516L350.871 169.027L354.963 166.717L359.056 169.027L354.963 171.516Z" fill="#42E8E0" />
    <path opacity="0.1" d="M363.329 176.314L359.059 173.826L363.329 171.516L367.421 173.826L363.329 176.314Z"
        fill="#42E8E0" />
    <path opacity="0.4" d="M371.51 181.114L367.418 178.626L371.51 176.315L375.78 178.626L371.51 181.114Z"
        fill="#42E8E0" />
    <path d="M379.873 185.911L375.781 183.423L379.873 181.112L384.144 183.423L379.873 185.911Z" fill="#42E8E0" />
    <path opacity="0.4" d="M388.233 190.711L384.141 188.223L388.233 185.912L392.325 188.223L388.233 190.711Z"
        fill="#42E8E0" />
    <path d="M396.598 195.51L392.328 193.022L396.598 190.711L400.69 193.022L396.598 195.51Z" fill="#42E8E0" />
    <path d="M404.78 200.309L400.688 197.82L404.78 195.51L409.05 197.82L404.78 200.309Z" fill="#42E8E0" />
    <path d="M413.143 205.108L409.051 202.62L413.143 200.31L417.413 202.62L413.143 205.108Z" fill="#42E8E0" />
    <path opacity="0.1" d="M421.502 209.906L417.41 207.418L421.502 205.107L425.595 207.418L421.502 209.906Z"
        fill="#42E8E0" />
    <path d="M346.596 176.314L342.504 173.826L346.596 171.516L350.688 173.826L346.596 176.314Z" fill="#42E8E0" />
    <path d="M354.962 181.113L350.691 178.625L354.962 176.314L359.054 178.625L354.962 181.113Z" fill="#42E8E0" />
    <path d="M363.321 185.913L359.051 183.425L363.321 181.114L367.413 183.425L363.321 185.913Z" fill="#42E8E0" />
    <path d="M371.506 190.71L367.414 188.222L371.506 185.911L375.776 188.222L371.506 190.71Z" fill="#42E8E0" />
    <path d="M379.866 195.51L375.773 193.022L379.866 190.711L383.958 193.022L379.866 195.51Z" fill="#42E8E0" />
    <path d="M388.231 200.309L383.961 197.82L388.231 195.51L392.323 197.82L388.231 200.309Z" fill="#42E8E0" />
    <path d="M396.59 205.107L392.32 202.619L396.59 200.309L400.683 202.619L396.59 205.107Z" fill="#42E8E0" />
    <path d="M404.776 209.907L400.684 207.419L404.776 205.108L409.046 207.419L404.776 209.907Z" fill="#42E8E0" />
    <path d="M413.135 214.705L409.043 212.217L413.135 209.906L417.227 212.217L413.135 214.705Z" fill="#42E8E0" />
    <path d="M338.233 181.114L334.141 178.626L338.233 176.315L342.325 178.626L338.233 181.114Z" fill="#42E8E0" />
    <path d="M346.598 185.913L342.328 183.425L346.598 181.114L350.69 183.425L346.598 185.913Z" fill="#42E8E0" />
    <path d="M354.958 190.713L350.688 188.225L354.958 185.914L359.05 188.225L354.958 190.713Z" fill="#42E8E0" />
    <path opacity="0.1" d="M363.143 195.51L359.051 193.022L363.143 190.711L367.413 193.022L363.143 195.51Z"
        fill="#42E8E0" />
    <path opacity="0.4" d="M371.502 200.31L367.41 197.821L371.502 195.511L375.595 197.821L371.502 200.31Z"
        fill="#42E8E0" />
    <path opacity="0.4" d="M379.868 205.108L375.598 202.62L379.868 200.31L383.96 202.62L379.868 205.108Z"
        fill="#42E8E0" />
    <path d="M388.227 209.907L383.957 207.419L388.227 205.108L392.319 207.419L388.227 209.907Z" fill="#42E8E0" />
    <path d="M396.413 214.707L392.32 212.219L396.413 209.908L400.683 212.219L396.413 214.707Z" fill="#42E8E0" />
    <path d="M404.772 219.505L400.68 217.017L404.772 214.706L408.864 217.017L404.772 219.505Z" fill="#42E8E0" />
    <path opacity="0.4" d="M329.873 185.911L325.781 183.423L329.873 181.112L334.144 183.423L329.873 185.911Z"
        fill="#42E8E0" />
    <path opacity="0.4" d="M338.233 190.71L334.141 188.222L338.233 185.911L342.325 188.222L338.233 190.71Z"
        fill="#42E8E0" />
    <path opacity="0.1" d="M346.598 195.51L342.328 193.022L346.598 190.711L350.69 193.022L346.598 195.51Z"
        fill="#42E8E0" />
    <path d="M354.784 200.307L350.691 197.818L354.784 195.508L359.054 197.818L354.784 200.307Z" fill="#42E8E0" />
    <path d="M363.143 205.106L359.051 202.618L363.143 200.308L367.413 202.618L363.143 205.106Z" fill="#42E8E0" />
    <path d="M371.506 209.905L367.414 207.417L371.506 205.106L375.598 207.417L371.506 209.905Z" fill="#42E8E0" />
    <path opacity="0.4" d="M379.868 214.704L375.598 212.216L379.868 209.905L383.96 212.216L379.868 214.704Z"
        fill="#42E8E0" />
    <path d="M388.053 219.504L383.961 217.016L388.053 214.705L392.323 217.016L388.053 219.504Z" fill="#42E8E0" />
    <path d="M396.413 224.302L392.32 221.814L396.413 219.503L400.683 221.814L396.413 224.302Z" fill="#42E8E0" />
    <path d="M321.51 190.711L317.418 188.223L321.51 185.912L325.78 188.223L321.51 190.711Z" fill="#42E8E0" />
    <path d="M329.87 195.51L325.777 193.022L329.87 190.711L333.962 193.022L329.87 195.51Z" fill="#42E8E0" />
    <path d="M338.235 200.31L333.965 197.821L338.235 195.511L342.327 197.821L338.235 200.31Z" fill="#42E8E0" />
    <path d="M346.42 205.106L342.328 202.618L346.42 200.308L350.69 202.618L346.42 205.106Z" fill="#42E8E0" />
    <path d="M354.78 209.906L350.688 207.418L354.78 205.107L359.05 207.418L354.78 209.906Z" fill="#42E8E0" />
    <path d="M363.143 214.705L359.051 212.217L363.143 209.906L367.235 212.217L363.143 214.705Z" fill="#42E8E0" />
    <path d="M371.505 219.504L367.234 217.016L371.505 214.705L375.597 217.016L371.505 219.504Z" fill="#42E8E0" />
    <path d="M379.69 224.304L375.598 221.815L379.69 219.505L383.96 221.815L379.69 224.304Z" fill="#42E8E0" />
    <path d="M388.049 229.102L383.957 226.613L388.049 224.303L392.319 226.613L388.049 229.102Z" fill="#42E8E0" />
    <path d="M313.151 195.51L309.059 193.199L313.151 190.711L317.421 193.199L313.151 195.51Z" fill="#42E8E0" />
    <path d="M321.51 200.309L317.418 197.998L321.51 195.51L325.602 197.998L321.51 200.309Z" fill="#42E8E0" />
    <path opacity="0.4" d="M329.876 205.108L325.605 202.798L329.876 200.31L333.968 202.798L329.876 205.108Z"
        fill="#42E8E0" />
    <path d="M338.239 209.905L333.969 207.595L338.239 205.106L342.331 207.595L338.239 209.905Z" fill="#42E8E0" />
    <path opacity="0.1" d="M346.42 214.705L342.328 212.395L346.42 209.906L350.69 212.395L346.42 214.705Z"
        fill="#42E8E0" />
    <path d="M354.784 219.504L350.691 217.193L354.784 214.705L358.876 217.193L354.784 219.504Z" fill="#42E8E0" />
    <path d="M363.145 224.303L358.875 221.992L363.145 219.504L367.237 221.992L363.145 224.303Z" fill="#42E8E0" />
    <path d="M371.508 229.103L367.238 226.792L371.508 224.304L375.601 226.792L371.508 229.103Z" fill="#42E8E0" />
    <path d="M379.69 233.9L375.598 231.59L379.69 229.102L383.96 231.59L379.69 233.9Z" fill="#42E8E0" />
    <path d="M304.784 200.31L300.691 197.999L304.784 195.511L309.054 197.999L304.784 200.31Z" fill="#42E8E0" />
    <path d="M313.143 205.108L309.051 202.798L313.143 200.31L317.235 202.798L313.143 205.108Z" fill="#42E8E0" />
    <path opacity="0.4" d="M321.508 209.908L317.238 207.598L321.508 205.109L325.601 207.598L321.508 209.908Z"
        fill="#42E8E0" />
    <path d="M329.872 214.705L325.602 212.395L329.872 209.906L333.964 212.395L329.872 214.705Z" fill="#42E8E0" />
    <path d="M338.053 219.505L333.961 217.194L338.053 214.706L342.323 217.194L338.053 219.505Z" fill="#42E8E0" />
    <path opacity="0.1" d="M346.416 224.304L342.324 221.993L346.416 219.505L350.509 221.993L346.416 224.304Z"
        fill="#42E8E0" />
    <path opacity="0.4" d="M354.778 229.103L350.508 226.792L354.778 224.304L358.87 226.792L354.778 229.103Z"
        fill="#42E8E0" />
    <path d="M363.141 233.902L358.871 231.592L363.141 229.104L367.233 231.592L363.141 233.902Z" fill="#42E8E0" />
    <path opacity="0.1" d="M371.323 238.7L367.23 236.39L371.323 233.901L375.593 236.39L371.323 238.7Z" fill="#42E8E0" />
    <path d="M296.42 205.108L292.328 202.798L296.42 200.31L300.69 202.798L296.42 205.108Z" fill="#42E8E0" />
    <path opacity="0.4" d="M304.78 209.907L300.688 207.597L304.78 205.108L309.05 207.597L304.78 209.907Z"
        fill="#42E8E0" />
    <path d="M313.143 214.707L309.051 212.396L313.143 209.908L317.235 212.396L313.143 214.707Z" fill="#42E8E0" />
    <path d="M321.508 219.504L317.238 217.193L321.508 214.705L325.601 217.193L321.508 219.504Z" fill="#42E8E0" />
    <path d="M329.69 224.304L325.598 221.993L329.69 219.505L333.96 221.993L329.69 224.304Z" fill="#42E8E0" />
    <path d="M338.053 229.103L333.961 226.792L338.053 224.304L342.323 226.792L338.053 229.103Z" fill="#42E8E0" />
    <path d="M346.42 233.902L342.328 231.592L346.42 229.104L350.513 231.592L346.42 233.902Z" fill="#42E8E0" />
    <path opacity="0.4" d="M354.778 238.701L350.508 236.391L354.778 233.902L358.87 236.391L354.778 238.701Z"
        fill="#42E8E0" />
    <path d="M362.959 243.499L358.867 241.188L362.959 238.7L367.23 241.188L362.959 243.499Z" fill="#42E8E0" />
    <path d="M288.061 209.906L283.969 207.596L288.061 205.107L292.331 207.596L288.061 209.906Z" fill="#42E8E0" />
    <path opacity="0.1" d="M296.42 214.705L292.328 212.395L296.42 209.906L300.69 212.395L296.42 214.705Z"
        fill="#42E8E0" />
    <path d="M304.784 219.505L300.691 217.194L304.784 214.706L308.876 217.194L304.784 219.505Z" fill="#42E8E0" />
    <path d="M313.149 224.302L308.879 221.991L313.149 219.503L317.241 221.991L313.149 224.302Z" fill="#42E8E0" />
    <path d="M321.33 229.102L317.238 226.791L321.33 224.303L325.601 226.791L321.33 229.102Z" fill="#42E8E0" />
    <path d="M329.694 233.9L325.602 231.59L329.694 229.102L333.964 231.59L329.694 233.9Z" fill="#42E8E0" />
    <path opacity="0.4" d="M338.061 238.7L333.969 236.39L338.061 233.901L342.153 236.39L338.061 238.7Z"
        fill="#42E8E0" />
    <path d="M346.419 243.499L342.148 241.188L346.419 238.7L350.511 241.188L346.419 243.499Z" fill="#42E8E0" />
    <path d="M354.6 248.297L350.508 245.986L354.6 243.498L358.87 245.986L354.6 248.297Z" fill="#42E8E0" />
    <path d="M354.779 208.84L223.828 133.302L354.779 57.7646L485.729 133.302L354.779 208.84Z" fill="#BEECD0" />
    <path d="M354.782 188.222L259.594 133.301L354.782 78.3809L449.97 133.301L354.782 188.222Z" fill="#21555F" />
    <path
        d="M354.782 82.1133L446.768 135.256L449.97 133.301L354.782 78.3809L259.594 133.301L262.796 135.256L354.782 82.1133Z"
        fill="white" />
    <path d="M485.732 133.303V176.137L354.781 251.675V208.84L485.732 133.303Z" fill="url(#paint11_linear_367_4095)" />
    <path d="M223.828 133.303V176.137L354.779 251.675V208.84L223.828 133.303Z" fill="#073245" />
    <g opacity="0.51">
        <path d="M232.723 152.677V166.007L345.881 231.414V217.906L232.723 152.677Z" fill="#21555F" />
    </g>
    <path
        d="M354.779 206.53L225.963 132.059L223.828 133.303L354.779 208.84L485.729 133.303L483.594 132.059L354.779 206.53Z"
        fill="white" />
    <path d="M466.157 163.341V170.983L374.527 223.949V216.306L466.157 163.341Z" fill="#21555F" />
    <path opacity="0.51" d="M223.828 133.303V176.137L354.779 251.675V208.84L223.828 133.303Z" fill="#21555F" />
    <path d="M316.527 206.706L292.863 193.021V195.687L316.527 209.372V206.706Z" fill="#42E8E0" />
    <path data-light="cloud-canvas" d="M289.483 191.067L283.078 187.335V190.179L289.483 193.911V191.067Z"
        fill="#42E8E0" />
    <path d="M259.416 173.649L246.25 166.007V168.851L259.416 176.493V173.649Z" fill="#42E8E0" />
    <path d="M271.332 180.58L261.902 175.07V177.914L271.332 183.424V180.58Z" fill="#42E8E0" />
    <path data-light="cloud-canvas" d="M280.233 185.735L273.828 182.003V184.847L280.233 188.579V185.735Z"
        fill="#42E8E0" />
    <g toflash="toflash">
        <path data-light d="M354.963 97.2217L350.871 94.9111L354.963 92.4229L359.056 94.9111L354.963 97.2217Z"
            fill="#42E8E0" />
        <path data-light opacity="0.1" d="M363.329 102.021L359.059 99.71L363.329 97.2217L367.421 99.71L363.329 102.021Z"
            fill="#42E8E0" />
        <path data-light opacity="0.4" d="M371.51 106.82L367.418 104.51L371.51 102.021L375.78 104.51L371.51 106.82Z"
            fill="#42E8E0" />
        <path data-light d="M379.873 111.617L375.781 109.307L379.873 106.818L384.144 109.307L379.873 111.617Z"
            fill="#42E8E0" />
        <path data-light opacity="0.4"
            d="M388.233 116.417L384.141 114.106L388.233 111.618L392.325 114.106L388.233 116.417Z" fill="#42E8E0" />
        <path data-light d="M396.598 121.216L392.328 118.905L396.598 116.417L400.69 118.905L396.598 121.216Z"
            fill="#42E8E0" />
        <path data-light d="M404.78 126.015L400.688 123.704L404.78 121.216L409.05 123.704L404.78 126.015Z"
            fill="#42E8E0" />
        <path data-light d="M413.143 130.815L409.051 128.504L413.143 126.016L417.413 128.504L413.143 130.815Z"
            fill="#42E8E0" />
        <path data-light opacity="0.1"
            d="M421.502 135.612L417.41 133.302L421.502 130.813L425.595 133.302L421.502 135.612Z" fill="#42E8E0" />
        <path data-light d="M346.596 102.198L342.504 99.71L346.596 97.3994L350.688 99.71L346.596 102.198Z"
            fill="#42E8E0" />
        <path data-light d="M354.962 106.997L350.691 104.509L354.962 102.198L359.054 104.509L354.962 106.997Z"
            fill="#42E8E0" />
        <path data-light d="M363.321 111.797L359.051 109.309L363.321 106.998L367.413 109.309L363.321 111.797Z"
            fill="#42E8E0" />
        <path data-light d="M371.506 116.594L367.414 114.105L371.506 111.795L375.776 114.105L371.506 116.594Z"
            fill="#42E8E0" />
        <path data-light d="M379.866 121.394L375.773 118.905L379.866 116.595L383.958 118.905L379.866 121.394Z"
            fill="#42E8E0" />
        <path data-light d="M388.231 126.192L383.961 123.704L388.231 121.394L392.323 123.704L388.231 126.192Z"
            fill="#42E8E0" />
        <path data-light d="M396.59 130.991L392.32 128.503L396.59 126.192L400.683 128.503L396.59 130.991Z"
            fill="#42E8E0" />
        <path data-light d="M404.776 135.613L400.684 133.303L404.776 130.992L409.046 133.303L404.776 135.613Z"
            fill="#42E8E0" />
        <path data-light d="M413.135 140.411L409.043 138.101L413.135 135.612L417.227 138.101L413.135 140.411Z"
            fill="#42E8E0" />
        <path data-light d="M338.233 106.997L334.141 104.509L338.233 102.198L342.325 104.509L338.233 106.997Z"
            fill="#42E8E0" />
        <path data-light d="M346.598 111.796L342.328 109.308L346.598 106.997L350.69 109.308L346.598 111.796Z"
            fill="#42E8E0" />
        <path data-light d="M354.958 116.596L350.688 114.107L354.958 111.797L359.05 114.107L354.958 116.596Z"
            fill="#42E8E0" />
        <path data-light opacity="0.1"
            d="M363.143 121.393L359.051 118.904L363.143 116.594L367.413 118.904L363.143 121.393Z" fill="#42E8E0" />
        <path data-light opacity="0.4"
            d="M371.502 126.192L367.41 123.704L371.502 121.394L375.595 123.704L371.502 126.192Z" fill="#42E8E0" />
        <pathdata-light opacity="0.4"
            d="M379.868 130.991L375.598 128.503L379.868 126.192L383.96 128.503L379.868 130.991Z" fill="#42E8E0" />
        <path data-light d="M388.227 135.79L383.957 133.302L388.227 130.991L392.319 133.302L388.227 135.79Z"
            fill="#42E8E0" />
        <path data-light d="M396.413 140.59L392.32 138.102L396.413 135.791L400.683 138.102L396.413 140.59Z"
            fill="#42E8E0" />
        <path data-light d="M404.772 145.388L400.68 142.899L404.772 140.589L408.864 142.899L404.772 145.388Z"
            fill="#42E8E0" />
        <path data-light opacity="0.4"
            d="M329.873 111.796L325.781 109.308L329.873 106.997L334.144 109.308L329.873 111.796Z" fill="#42E8E0" />
        <path data-light opacity="0.4"
            d="M338.233 116.595L334.141 114.106L338.233 111.796L342.325 114.106L338.233 116.595Z" fill="#42E8E0" />
        <path data-light opacity="0.1"
            d="M346.598 121.395L342.328 118.906L346.598 116.596L350.69 118.906L346.598 121.395Z" fill="#42E8E0" />
        <path data-light d="M354.784 126.191L350.691 123.703L354.784 121.393L359.054 123.703L354.784 126.191Z"
            fill="#42E8E0" />
        <path data-light d="M363.143 130.991L359.051 128.503L363.143 126.192L367.413 128.503L363.143 130.991Z"
            fill="#42E8E0" />
        <path data-light d="M371.506 135.79L367.414 133.302L371.506 130.991L375.598 133.302L371.506 135.79Z"
            fill="#42E8E0" />
        <path data-light opacity="0.4"
            d="M379.868 140.589L375.598 138.101L379.868 135.79L383.96 138.101L379.868 140.589Z" fill="#42E8E0" />
        <path data-light d="M388.053 145.389L383.961 142.9L388.053 140.59L392.323 142.9L388.053 145.389Z"
            fill="#42E8E0" />
        <path data-light d="M396.413 150.187L392.32 147.698L396.413 145.388L400.683 147.698L396.413 150.187Z"
            fill="#42E8E0" />
        <path data-light d="M321.51 116.596L317.418 114.107L321.51 111.797L325.78 114.107L321.51 116.596Z"
            fill="#42E8E0" />
        <path data-light d="M329.87 121.395L325.777 118.906L329.87 116.596L333.962 118.906L329.87 121.395Z"
            fill="#42E8E0" />
        <path data-light d="M338.235 126.194L333.965 123.706L338.235 121.396L342.327 123.706L338.235 126.194Z"
            fill="#42E8E0" />
        <path data-light d="M346.42 130.991L342.328 128.503L346.42 126.192L350.69 128.503L346.42 130.991Z"
            fill="#42E8E0" />
        <path data-light d="M354.78 135.791L350.688 133.303L354.78 130.992L359.05 133.303L354.78 135.791Z"
            fill="#42E8E0" />
        <path data-light d="M363.143 140.59L359.051 138.102L363.143 135.791L367.235 138.102L363.143 140.59Z"
            fill="#42E8E0" />
        <path data-light d="M371.505 145.389L367.234 142.9L371.505 140.59L375.597 142.9L371.505 145.389Z"
            fill="#42E8E0" />
        <path data-light d="M379.69 150.189L375.598 147.7L379.69 145.39L383.96 147.7L379.69 150.189Z" fill="#42E8E0" />
        <path data-light d="M388.049 154.986L383.957 152.498L388.049 150.188L392.319 152.498L388.049 154.986Z"
            fill="#42E8E0" />
        <path data-light d="M313.151 121.393L309.059 118.904L313.151 116.594L317.421 118.904L313.151 121.393Z"
            fill="#42E8E0" />
        <path data-light d="M321.51 126.191L317.418 123.703L321.51 121.393L325.602 123.703L321.51 126.191Z"
            fill="#42E8E0" />
        <path data-light opacity="0.4"
            d="M329.876 130.991L325.605 128.503L329.876 126.192L333.968 128.503L329.876 130.991Z" fill="#42E8E0" />
        <path data-light d="M338.239 135.788L333.969 133.3L338.239 130.989L342.331 133.3L338.239 135.788Z"
            fill="#42E8E0" />
        <path data-light opacity="0.1" d="M346.42 140.588L342.328 138.1L346.42 135.789L350.69 138.1L346.42 140.588Z"
            fill="#42E8E0" />
        <path data-light d="M354.784 145.387L350.691 142.898L354.784 140.588L358.876 142.898L354.784 145.387Z"
            fill="#42E8E0" />
        <path data-light d="M363.145 150.186L358.875 147.697L363.145 145.387L367.237 147.697L363.145 150.186Z"
            fill="#42E8E0" />
        <path data-light d="M371.508 154.985L367.238 152.497L371.508 150.187L375.601 152.497L371.508 154.985Z"
            fill="#42E8E0" />
        <path data-light d="M379.69 159.783L375.598 157.295L379.69 154.984L383.96 157.295L379.69 159.783Z"
            fill="#42E8E0" />
        <path data-light d="M304.784 126.192L300.691 123.882L304.784 121.394L309.054 123.882L304.784 126.192Z"
            fill="#42E8E0" />
        <path data-light d="M313.143 130.991L309.051 128.681L313.143 126.192L317.235 128.681L313.143 130.991Z"
            fill="#42E8E0" />
        <path data-light opacity="0.4"
            d="M321.508 135.791L317.238 133.481L321.508 130.992L325.601 133.481L321.508 135.791Z" fill="#42E8E0" />
        <path data-light d="M329.872 140.588L325.602 138.277L329.872 135.789L333.964 138.277L329.872 140.588Z"
            fill="#42E8E0" />
        <path data-light d="M338.053 145.388L333.961 143.077L338.053 140.589L342.323 143.077L338.053 145.388Z"
            fill="#42E8E0" />
        <path data-light opacity="0.1"
            d="M346.416 150.187L342.324 147.876L346.416 145.388L350.509 147.876L346.416 150.187Z" fill="#42E8E0" />
        <path data-light opacity="0.4"
            d="M354.778 154.985L350.508 152.675L354.778 150.187L358.87 152.675L354.778 154.985Z" fill="#42E8E0" />
        <path data-light d="M363.141 159.785L358.871 157.475L363.141 154.986L367.233 157.475L363.141 159.785Z"
            fill="#42E8E0" />
        <path data-light opacity="0.1"
            d="M371.323 164.583L367.23 162.272L371.323 159.784L375.593 162.272L371.323 164.583Z" fill="#42E8E0" />
        <path data-light d="M296.42 130.991L292.328 128.681L296.42 126.192L300.69 128.681L296.42 130.991Z"
            fill="#42E8E0" />
        <path data-light opacity="0.4" d="M304.78 135.79L300.688 133.48L304.78 130.991L309.05 133.48L304.78 135.79Z"
            fill="#42E8E0" />
        <path data-light d="M313.143 140.59L309.051 138.279L313.143 135.791L317.235 138.279L313.143 140.59Z"
            fill="#42E8E0" />
        <path data-light d="M321.508 145.387L317.238 143.076L321.508 140.588L325.601 143.076L321.508 145.387Z"
            fill="#42E8E0" />
        <path data-light d="M329.69 150.187L325.598 147.876L329.69 145.388L333.96 147.876L329.69 150.187Z"
            fill="#42E8E0" />
        <path data-light d="M338.053 154.985L333.961 152.675L338.053 150.187L342.323 152.675L338.053 154.985Z"
            fill="#42E8E0" />
        <path data-light d="M346.42 159.785L342.328 157.475L346.42 154.986L350.513 157.475L346.42 159.785Z"
            fill="#42E8E0" />
        <path data-light opacity="0.4"
            d="M354.778 164.584L350.508 162.273L354.778 159.785L358.87 162.273L354.778 164.584Z" fill="#42E8E0" />
        <path data-light d="M362.959 169.382L358.867 167.071L362.959 164.583L367.23 167.071L362.959 169.382Z"
            fill="#42E8E0" />
        <path data-light d="M288.061 135.79L283.969 133.48L288.061 130.991L292.331 133.48L288.061 135.79Z"
            fill="#42E8E0" />
        <path data-light opacity="0.1" d="M296.42 140.589L292.328 138.278L296.42 135.79L300.69 138.278L296.42 140.589Z"
            fill="#42E8E0" />
        <path data-light d="M304.784 145.389L300.691 143.078L304.784 140.59L308.876 143.078L304.784 145.389Z"
            fill="#42E8E0" />
        <path data-light d="M313.149 150.186L308.879 147.875L313.149 145.387L317.241 147.875L313.149 150.186Z"
            fill="#42E8E0" />
        <path data-light d="M321.33 154.985L317.238 152.675L321.33 150.187L325.601 152.675L321.33 154.985Z"
            fill="#42E8E0" />
        <path data-light d="M329.694 159.784L325.602 157.474L329.694 154.985L333.964 157.474L329.694 159.784Z"
            fill="#42E8E0" />
        <path data-light opacity="0.4"
            d="M338.061 164.584L333.969 162.273L338.061 159.785L342.153 162.273L338.061 164.584Z" fill="#42E8E0" />
        <path data-light d="M346.419 169.383L342.148 167.072L346.419 164.584L350.511 167.072L346.419 169.383Z"
            fill="#42E8E0" />
        <path data-light d="M354.6 174.181L350.508 171.87L354.6 169.382L358.87 171.87L354.6 174.181Z" fill="#42E8E0" />
    </g>
    <path
        d="M495.861 439.363C493.548 439.363 491.412 438.83 489.455 437.586L415.084 394.573C413.838 393.863 413.305 392.618 413.305 391.374C413.305 389.952 414.016 388.886 415.084 388.175L549.771 310.504C549.949 310.327 550.305 310.327 550.483 310.504L631.081 356.893C632.327 357.604 632.861 358.849 632.861 360.093C632.861 361.515 632.149 362.581 631.081 363.292L502.444 437.408C500.309 438.83 497.996 439.363 495.861 439.363ZM549.949 312.104L415.618 389.597C414.906 389.952 414.55 390.663 414.55 391.552C414.55 392.441 414.906 393.152 415.618 393.507L489.989 436.519C493.37 438.474 497.996 438.474 501.376 436.519L630.014 362.403C630.725 362.048 631.081 361.337 631.081 360.448C631.081 359.559 630.725 358.849 630.014 358.493L549.949 312.104Z"
        fill="#42E8E0" />
    <path
        d="M550.13 280.645L532.16 174.537L533.584 174.003L531.449 172.759C531.093 172.404 530.381 172.581 529.847 172.937L386.62 255.584C385.375 256.295 384.485 258.072 384.841 259.139L402.811 366.136C402.989 366.669 403.167 367.024 403.523 367.202L405.658 368.446L406.014 366.491H405.836L548.173 284.377C549.419 283.489 550.308 281.889 550.13 280.645Z"
        fill="url(#paint12_linear_367_4095)" />
    <path
        d="M387.509 258.251L385.196 257.185C385.018 257.718 384.84 258.429 384.84 258.962L402.81 365.959C402.988 366.492 403.166 366.848 403.522 367.025L405.657 368.27L406.013 366.314H405.835L412.952 362.226L387.509 258.251Z"
        fill="url(#paint13_linear_367_4095)" />
    <path
        d="M550.488 285.444L407.439 368.092C406.371 368.802 405.304 368.447 405.126 367.203L387.156 260.206C386.978 258.962 387.867 257.184 388.935 256.651L532.162 174.004C533.23 173.293 534.297 173.648 534.475 174.893L552.445 281.89C552.623 283.134 551.733 284.911 550.488 285.444Z"
        fill="#073245" />
    <g opacity="0.51">
        <path d="M530.204 180.758L392.137 260.383L409.395 361.16L547.285 281.712L530.204 180.758Z" fill="#21555F" />
    </g>
    <path
        d="M640.52 336.275L632.691 340.363L554.405 295.218C553.16 294.507 550.847 294.507 549.246 295.396L414.203 373.244C412.957 372.533 407.086 369.689 407.086 369.689L409.933 377.154C410.111 377.51 410.289 377.865 410.644 378.043L493.2 425.676C494.446 426.387 496.759 426.387 498.36 425.498L636.605 345.695C637.139 345.339 637.673 344.984 637.851 344.451L640.52 336.275Z"
        fill="url(#paint14_linear_367_4095)" />
    <path
        d="M639.272 337.519L497.646 419.278C496.044 420.166 493.731 420.344 492.486 419.455L407.973 370.756C406.55 370.045 406.728 368.623 408.329 367.734L549.955 285.976C551.556 285.087 553.869 284.909 555.115 285.798L639.628 334.498C641.051 335.209 640.873 336.631 639.272 337.519Z"
        fill="url(#paint15_linear_367_4095)" />
    <path
        d="M639.27 336.631L497.644 418.389C496.043 419.278 493.73 419.456 492.484 418.567L407.971 369.867C407.615 369.69 407.259 369.334 407.082 368.979C406.904 369.69 407.082 370.223 407.971 370.756L492.484 419.456C493.907 420.167 496.221 420.167 497.644 419.278L639.27 337.52C640.337 336.986 640.693 336.098 640.515 335.387C640.337 335.742 639.982 336.275 639.27 336.631Z"
        fill="white" />
    <path
        d="M454.77 401.504V399.904C454.77 399.727 454.947 399.727 454.947 399.727L460.463 402.926C460.641 402.926 460.641 403.104 460.641 403.281V404.881C460.641 405.059 460.463 405.059 460.463 405.059L454.947 401.859C454.947 401.859 454.77 401.682 454.77 401.504Z"
        fill="#30A842" />
    <path
        d="M463.129 406.304V404.704C463.129 404.526 463.307 404.526 463.307 404.526L468.822 407.726C469 407.726 469 407.903 469 408.081V409.681C469 409.858 468.822 409.858 468.822 409.858L463.307 406.659C463.129 406.481 463.129 406.304 463.129 406.304Z"
        fill="#30A842" />
    <path
        d="M429.856 366.135L547.641 298.24C548.352 297.707 549.42 297.707 550.131 298.24L592.121 322.412C592.655 322.767 592.655 323.656 592.121 324.011L474.337 391.907C473.625 392.44 472.557 392.44 471.846 391.907L429.856 367.734C429.322 367.379 429.144 366.49 429.856 366.135Z"
        fill="#96D99D" />
    <path
        d="M429.856 367.557L430.212 367.734L547.463 300.017C548.174 299.484 549.242 299.484 549.954 300.017L591.409 324.011L591.765 323.834C592.299 323.478 592.299 322.59 591.765 322.234L549.776 298.062C549.064 297.529 547.996 297.529 547.285 298.062L429.856 366.135C429.144 366.49 429.322 367.379 429.856 367.557Z"
        fill="#96D99D" />
    <path d="M553.334 304.282L451.028 363.291L446.402 360.625L548.708 301.616L553.334 304.282Z" fill="#073245" />
    <path d="M564.36 310.681L468.46 366.134L464.012 363.468L559.912 308.192L564.36 310.681Z" fill="#073245" />
    <path d="M571.655 314.946L458.675 379.998L454.227 377.509L567.207 312.28L571.655 314.946Z" fill="#073245" />
    <path d="M578.952 319.035L465.971 384.264L461.523 381.598L574.504 316.547L578.952 319.035Z" fill="#073245" />
    <path d="M586.247 323.3L473.267 388.529L468.641 385.863L581.621 320.634L586.247 323.3Z" fill="#073245" />
    <path d="M444.801 366.846L440.353 369.512L435.727 366.846L440.353 364.18L444.801 366.846Z" fill="#073245" />
    <path d="M460.815 370.399L451.386 375.909L446.938 373.243L456.367 367.911L460.815 370.399Z" fill="#073245" />
    <path
        d="M552.089 382.487L583.759 364.18C585.004 363.469 585.004 362.225 583.759 361.514L562.052 349.072C560.807 348.361 558.85 348.361 557.604 349.072L525.934 367.379C524.689 368.09 524.689 369.334 525.934 370.045L547.641 382.487C548.886 383.198 550.843 383.198 552.089 382.487Z"
        fill="url(#paint16_linear_367_4095)" />
    <path
        d="M525.938 368.445L557.608 350.139C558.854 349.428 560.811 349.428 562.056 350.139L583.763 362.58C584.119 362.758 584.475 363.113 584.475 363.291C584.83 362.58 584.475 362.047 583.763 361.514L562.056 349.072C560.811 348.361 558.854 348.361 557.608 349.072L525.938 367.379C525.049 367.912 524.871 368.623 525.227 369.156C525.227 368.979 525.582 368.623 525.938 368.445Z"
        fill="#96D99D" />
    <g opacity="0.11">
        <mask id="mask0_367_4095" style="mask-type:luminance" maskUnits="userSpaceOnUse" x="392" y="180" width="156"
            height="182">
            <path d="M530.204 180.758L392.137 260.383L409.395 361.16L547.285 281.712L530.204 180.758Z" fill="white" />
        </mask>
        <g mask="url(#mask0_367_4095)">
            <path
                d="M549.957 285.8L408.331 367.558C406.73 368.447 404.417 368.624 403.172 367.736L318.481 318.858C317.057 318.147 317.235 316.726 318.837 315.837L460.463 234.078C462.064 233.19 464.377 233.012 465.622 233.901L550.135 282.6C551.737 283.489 551.559 284.911 549.957 285.8Z"
                fill="url(#paint17_linear_367_4095)" />
            <path
                d="M407.975 300.374L439.645 282.068C440.891 281.357 440.891 280.112 439.645 279.401L417.939 266.96C416.694 266.249 414.736 266.249 413.491 266.96L381.821 285.267C380.575 285.978 380.575 287.222 381.821 287.933L403.527 300.374C404.595 301.085 406.73 301.085 407.975 300.374Z"
                fill="url(#paint18_linear_367_4095)" />
            <path
                d="M381.645 286.333L413.315 268.026C414.561 267.315 416.518 267.315 417.763 268.026L439.47 280.468C439.826 280.646 440.182 281.001 440.182 281.179C440.537 280.468 440.182 279.935 439.47 279.401L417.763 266.96C416.518 266.249 414.561 266.249 413.315 266.96L381.645 285.267C380.756 285.8 380.578 286.511 380.934 287.044C381.111 286.866 381.289 286.511 381.645 286.333Z"
                fill="#96D99D" />
            <path
                d="M367.764 328.988L485.549 261.093C486.26 260.56 487.328 260.56 488.04 261.093L530.029 285.265C530.563 285.621 530.563 286.509 530.029 286.865L412.245 354.76C411.533 355.293 410.466 355.293 409.754 354.76L367.764 330.588C367.053 330.233 367.053 329.344 367.764 328.988Z"
                fill="#96D99D" />
            <path
                d="M367.765 330.588L368.121 330.766L485.372 263.048C486.084 262.515 487.151 262.515 487.863 263.048L529.319 287.043L529.674 286.865C530.208 286.509 530.208 285.621 529.674 285.265L487.685 261.093C486.973 260.56 485.906 260.56 485.194 261.093L367.41 328.988C367.054 329.344 367.054 330.233 367.765 330.588Z"
                fill="#96D99D" />
            <path d="M519.001 283.665L416.34 342.851L420.432 345.162L523.093 285.976L519.001 283.665Z" fill="#073245" />
            <path d="M508.15 277.444L410.648 333.609L414.741 336.097L512.242 279.755L508.15 277.444Z" fill="#073245" />
            <path d="M403.347 337.875L394.273 343.207L398.366 345.518L407.44 340.186L403.347 337.875Z" fill="#073245" />
            <path d="M411.356 345.696L405.129 349.429L409.221 351.739L415.448 348.007L411.356 345.696Z"
                fill="#073245" />
            <path d="M501.386 273.536L387.516 339.298L391.608 341.609L505.478 275.847L501.386 273.536Z"
                fill="#073245" />
            <path d="M494.624 269.625L380.754 335.387L384.846 337.698L498.716 271.936L494.624 269.625Z"
                fill="#073245" />
            <path d="M487.862 265.715L373.992 331.477L378.084 333.788L491.955 268.025L487.862 265.715Z"
                fill="#073245" />
        </g>
    </g>
    <path d="M444.086 322.769L455.295 316.37L455.651 318.325L444.442 324.724L444.086 322.769Z" fill="#42E8E0" />
    <path d="M457.078 315.303L463.127 311.748L463.483 313.703L457.434 317.258L457.078 315.303Z" fill="#42E8E0" />
    <path d="M472.734 306.416L477.004 303.75L477.36 305.705L472.912 308.193L472.734 306.416Z" fill="#42E8E0" />
    <path d="M469.531 308.193L470.955 307.305L471.31 309.26L469.709 310.148L469.531 308.193Z" fill="#42E8E0" />
    <path d="M465.082 310.683L467.751 309.261L468.107 311.038L465.438 312.638L465.082 310.683Z" fill="#42E8E0" />
    <path d="M452.984 308.017L457.432 305.351L457.788 307.306L453.34 309.972L452.984 308.017Z" fill="#42E8E0" />
    <path d="M442.664 313.882L451.204 308.905L451.56 310.86L443.02 315.837L442.664 313.882Z" fill="#42E8E0" />
    <path d="M455.117 282.601L463.657 277.624L464.013 279.579L455.295 284.556L455.117 282.601Z" fill="#42E8E0" />
    <path d="M450.668 285.089L453.337 283.489L453.693 285.444L450.846 287.044L450.668 285.089Z" fill="#42E8E0" />
    <path d="M456.543 291.487L465.083 286.511L465.439 288.288L456.721 293.265L456.543 291.487Z" fill="#42E8E0" />
    <path d="M452.094 293.976L454.763 292.376L455.118 294.331L452.272 295.931L452.094 293.976Z" fill="#42E8E0" />
    <path d="M448.715 244.386L432.346 253.628L432.168 251.673L448.359 242.431L448.715 244.386Z" fill="#42E8E0" />
    <path d="M454.409 241.01L450.317 243.32L449.961 241.365L454.053 239.055L454.409 241.01Z" fill="#42E8E0" />
    <path d="M482.875 239.056L466.684 248.476L466.328 246.521L482.697 237.278L482.875 239.056Z" fill="#42E8E0" />
    <path d="M488.749 235.855L484.657 238.166L484.301 236.211L488.393 233.9L488.749 235.855Z" fill="#42E8E0" />
    <path d="M437.501 255.585L433.231 258.073L432.875 256.118L437.323 253.63L437.501 255.585Z" fill="#42E8E0" />
    <path d="M464.37 249.897L459.922 252.386L459.566 250.431L464.014 247.942L464.37 249.897Z" fill="#42E8E0" />
    <path d="M447.826 249.541L439.285 254.518L438.93 252.74L447.648 247.764L447.826 249.541Z" fill="#42E8E0" />
    <path d="M452.275 247.053L449.606 248.652L449.25 246.697L452.097 245.098L452.275 247.053Z" fill="#42E8E0" />
    <path d="M462.771 241.011L454.053 245.987L453.875 244.032L462.415 239.056L462.771 241.011Z" fill="#42E8E0" />
    <path d="M467.22 238.521L464.373 240.121L464.195 238.166L466.864 236.566L467.22 238.521Z" fill="#42E8E0" />
    <path d="M463.659 245.453L459.211 247.941L458.855 245.986L463.304 243.498L463.659 245.453Z" fill="#42E8E0" />
    <path d="M473.976 239.41L465.258 244.387L464.902 242.432L473.621 237.455L473.976 239.41Z" fill="#42E8E0" />
    <path d="M478.425 236.923L475.578 238.522L475.223 236.567L478.069 234.968L478.425 236.923Z" fill="#42E8E0" />
    <path d="M442.846 257.362L433.95 262.517L433.594 260.562L442.668 255.407L442.846 257.362Z" fill="#42E8E0" />
    <path d="M451.208 252.564L444.625 256.296L444.27 254.341L450.853 250.608L451.208 252.564Z" fill="#42E8E0" />
    <path d="M457.253 249.009L452.805 251.675L452.449 249.72L456.897 247.054L457.253 249.009Z" fill="#42E8E0" />
    <path d="M499.957 229.278L490.883 234.61L490.527 232.655L499.601 227.323L499.957 229.278Z" fill="#42E8E0" />
    <path d="M508.136 224.658L501.553 228.391L501.375 226.436L507.78 222.703L508.136 224.658Z" fill="#42E8E0" />
    <path d="M514.188 221.104L509.918 223.592L509.562 221.637L514.011 219.148L514.188 221.104Z" fill="#42E8E0" />
    <path d="M496.402 287.755L505.476 282.601L505.832 284.556L496.758 289.71L496.402 287.755Z" fill="#42E8E0" />
    <path d="M488.215 292.554L494.798 288.821L494.976 290.776L488.571 294.509L488.215 292.554Z" fill="#42E8E0" />
    <path d="M482.168 296.107L486.438 293.441L486.794 295.396L482.346 298.063L482.168 296.107Z" fill="#42E8E0" />
    <path d="M493.371 294.331L502.445 289.177L502.801 291.132L493.727 296.286L493.371 294.331Z" fill="#42E8E0" />
    <path d="M485.191 299.13L491.774 295.397L492.13 297.353L485.547 301.085L485.191 299.13Z" fill="#42E8E0" />
    <path d="M479.137 302.684L483.585 300.195L483.763 301.973L479.493 304.639L479.137 302.684Z" fill="#42E8E0" />
    <path d="M457.078 286.155L460.103 284.378L460.459 286.333L457.434 288.11L457.078 286.155Z" fill="#42E8E0" />
    <path d="M451.387 289.531L455.301 287.221L455.657 289.176L451.743 291.486L451.387 289.531Z" fill="#42E8E0" />
    <path d="M443.732 261.806L434.658 266.96L434.48 265.005L443.377 259.851L443.732 261.806Z" fill="#42E8E0" />
    <path d="M451.917 257.007L445.512 260.739L445.156 258.784L451.561 255.052L451.917 257.007Z" fill="#42E8E0" />
    <path d="M457.966 253.452L453.696 255.94L453.34 254.163L457.788 251.497L457.966 253.452Z" fill="#42E8E0" />
    <path d="M438.572 269.625L435.547 271.402L435.191 269.447L438.216 267.67L438.572 269.625Z" fill="#42E8E0" />
    <path d="M444.268 266.249L440.176 268.56L439.82 266.605L443.912 264.294L444.268 266.249Z" fill="#42E8E0" />
    <path d="M452.452 261.627L445.869 265.359L445.691 263.404L452.097 259.672L452.452 261.627Z" fill="#42E8E0" />
    <path d="M461.172 298.418L464.197 296.641L464.552 298.596L461.528 300.373L461.172 298.418Z" fill="#42E8E0" />
    <path d="M455.48 301.795L459.573 299.307L459.751 301.262L455.836 303.572L455.48 301.795Z" fill="#42E8E0" />
    <path d="M447.293 306.417L453.698 302.685L454.054 304.64L447.649 308.372L447.293 306.417Z" fill="#42E8E0" />
    <path d="M465.793 291.31L472.376 287.399L472.554 289.355L466.149 293.087L465.793 291.31Z" fill="#42E8E0" />
    <path d="M455.297 296.997L464.015 292.021L464.371 293.976L455.653 298.952L455.297 296.997Z" fill="#42E8E0" />
    <path d="M450.852 299.485L453.52 298.063L453.876 299.841L451.207 301.44L450.852 299.485Z" fill="#42E8E0" />
    <path d="M446.582 301.974L449.251 300.374L449.607 302.329L446.938 303.929L446.582 301.974Z" fill="#42E8E0" />
    <path d="M447.117 277.09L455.835 272.113L456.013 273.891L447.473 278.867L447.117 277.09Z" fill="#42E8E0" />
    <path d="M442.668 279.577L445.515 277.978L445.693 279.933L443.024 281.532L442.668 279.577Z" fill="#42E8E0" />
    <path d="M447.652 271.757L450.855 269.979L451.033 271.935L448.008 273.712L447.652 271.757Z" fill="#42E8E0" />
    <path d="M458.5 275.312L461.525 273.534L461.881 275.489L458.856 277.267L458.5 275.312Z" fill="#42E8E0" />
    <path d="M462.773 272.825L470.068 268.737L470.424 270.515L463.129 274.78L462.773 272.825Z" fill="#42E8E0" />
    <path d="M471.309 267.848L475.757 265.359L476.113 267.314L471.664 269.803L471.309 267.848Z" fill="#42E8E0" />
    <path d="M441.953 275.135L446.045 272.824L446.401 274.779L442.309 277.09L441.953 275.135Z" fill="#42E8E0" />
    <path d="M441.598 270.515L444.622 268.737L444.978 270.692L441.953 272.47L441.598 270.515Z" fill="#42E8E0" />
    <path d="M435.906 273.891L439.998 271.58L440.176 273.535L436.262 275.846L435.906 273.891Z" fill="#42E8E0" />
    <path d="M454.055 277.979L456.724 276.379L457.079 278.334L454.41 279.756L454.055 277.979Z" fill="#42E8E0" />
    <path d="M449.785 280.288L452.454 278.866L452.81 280.644L450.141 282.243L449.785 280.288Z" fill="#42E8E0" />
    <path d="M470.777 302.685L480.029 297.175L480.385 299.13L471.133 304.462L470.777 302.685Z" fill="#42E8E0" />
    <path d="M460.281 308.55L468.999 303.573L469.355 305.528L460.637 310.505L460.281 308.55Z" fill="#42E8E0" />
    <path d="M455.832 311.216L458.679 309.616L459.035 311.571L456.188 313.171L455.832 311.216Z" fill="#42E8E0" />
    <path d="M451.559 313.703L454.405 312.104L454.761 314.059L451.914 315.658L451.559 313.703Z" fill="#42E8E0" />
    <path d="M449.25 314.949L443.379 318.326L443.735 320.281L449.606 316.904L449.25 314.949Z" fill="#42E8E0" />
    <path
        d="M213.861 439.363C211.548 439.363 209.413 438.83 207.456 437.586L78.8183 363.47C77.5728 362.759 77.0391 361.515 77.0391 360.27C77.0391 358.849 77.7508 357.782 78.8183 357.071L159.417 310.682C159.595 310.504 159.951 310.504 160.129 310.682L294.816 388.353C296.061 389.064 296.595 390.308 296.595 391.552C296.595 392.974 295.883 394.04 294.816 394.751L220.444 437.763C218.309 438.83 215.996 439.363 213.861 439.363ZM208.168 436.341C211.548 438.296 216.174 438.296 219.555 436.341L293.926 393.329C294.638 392.974 294.994 392.263 294.994 391.374C294.994 390.486 294.638 389.775 293.926 389.419L159.595 311.926L159.417 312.104L79.53 358.138C78.8183 358.493 78.4624 359.204 78.4624 360.093C78.4624 360.981 78.8183 361.692 79.53 362.048L208.168 436.341Z"
        fill="#42E8E0" />
    <path
        d="M159.413 280.645L177.383 174.537L175.96 174.003L178.095 172.759C178.451 172.404 179.163 172.581 179.696 172.937L322.924 255.584C324.169 256.295 325.059 258.072 324.703 259.139L306.733 366.136C306.555 366.669 306.377 367.024 306.021 367.202L303.886 368.446L303.53 366.491H303.708L161.37 284.377C160.125 283.489 159.235 281.889 159.413 280.645Z"
        fill="url(#paint19_linear_367_4095)" />
    <path
        d="M322.216 258.251L324.529 257.185C324.707 257.718 324.885 258.429 324.885 258.962L306.915 365.959C306.737 366.492 306.559 366.848 306.203 367.025L304.068 368.27L303.712 366.314H303.89L296.773 362.226L322.216 258.251Z"
        fill="url(#paint20_linear_367_4095)" />
    <path
        d="M159.06 285.444L302.287 368.092C303.355 368.802 304.422 368.447 304.6 367.203L322.57 260.206C322.748 258.962 321.859 257.184 320.791 256.651L177.564 174.004C176.496 173.293 175.429 173.648 175.251 174.893L157.281 281.89C157.103 283.134 157.992 284.911 159.06 285.444Z"
        fill="#073245" />
    <g opacity="0.51">
        <path d="M179.344 180.758L317.412 260.383L300.331 361.16L162.441 281.712L179.344 180.758Z" fill="#21555F" />
    </g>
    <path
        d="M69.207 336.275L77.0356 340.363L155.321 295.218C156.567 294.507 158.88 294.507 160.481 295.396L295.524 373.244C296.769 372.533 302.641 369.689 302.641 369.689L299.794 377.154C299.616 377.51 299.438 377.865 299.082 378.043L216.527 425.676C215.281 426.387 212.968 426.387 211.367 425.498L73.1213 345.695C72.5875 345.339 72.0538 344.984 71.8759 344.451L69.207 336.275Z"
        fill="url(#paint21_linear_367_4095)" />
    <path
        d="M70.2786 337.519L211.905 419.278C213.506 420.166 215.819 420.344 217.064 419.455L301.577 370.756C303.001 370.045 302.823 368.623 301.221 367.734L159.595 285.976C157.994 285.087 155.681 284.909 154.436 285.798L69.9227 334.498C68.6773 335.209 68.8552 336.631 70.2786 337.519Z"
        fill="url(#paint22_linear_367_4095)" />
    <path
        d="M70.2792 336.63L211.905 418.388C213.506 419.277 215.819 419.455 217.065 418.566L301.578 369.866C301.934 369.689 302.29 369.333 302.467 368.978C302.645 369.689 302.467 370.222 301.578 370.755L217.243 419.455C215.819 420.166 213.506 420.166 212.083 419.277L70.4571 337.519C69.3896 336.985 69.0337 336.097 69.2117 335.386C69.2117 335.741 69.7454 336.274 70.2792 336.63Z"
        fill="white" />
    <path
        d="M254.782 401.504V399.904C254.782 399.727 254.604 399.727 254.604 399.727L249.088 402.926C248.91 402.926 248.91 403.104 248.91 403.281V404.881C248.91 405.059 249.088 405.059 249.088 405.059L254.604 401.859C254.604 401.859 254.782 401.682 254.782 401.504Z"
        fill="#30A842" />
    <path
        d="M246.602 406.304V404.704C246.602 404.526 246.424 404.526 246.424 404.526L240.908 407.726C240.73 407.726 240.73 407.903 240.73 408.081V409.681C240.73 409.858 240.908 409.858 240.908 409.858L246.424 406.659C246.424 406.481 246.602 406.304 246.602 406.304Z"
        fill="#30A842" />
    <path
        d="M279.872 366.135L162.088 298.24C161.376 297.707 160.309 297.707 159.597 298.24L117.607 322.412C117.074 322.767 117.074 323.656 117.607 324.011L235.392 391.907C236.103 392.44 237.171 392.44 237.883 391.907L279.872 367.734C280.406 367.379 280.406 366.49 279.872 366.135Z"
        fill="#96D99D" />
    <path
        d="M279.874 367.557L279.34 367.912L162.09 300.195C161.378 299.662 160.31 299.662 159.599 300.195L118.143 324.189L117.787 324.011C117.253 323.656 117.253 322.767 117.787 322.412L159.777 298.24C160.488 297.707 161.556 297.707 162.268 298.24L280.052 366.135C280.408 366.49 280.408 367.379 279.874 367.557Z"
        fill="#96D99D" />
    <path d="M166.176 309.97L265.812 367.556L270.082 364.712L170.802 307.304L166.176 309.97Z" fill="#073245" />
    <path d="M159.766 319.034L250.15 371.289L253.353 367.912L164.214 316.546L159.766 319.034Z" fill="#073245" />
    <path d="M137.887 314.946L250.867 379.998L255.493 377.509L142.513 312.28L137.887 314.946Z" fill="#073245" />
    <path d="M130.59 319.034L243.57 384.263L248.196 381.597L135.216 316.546L130.59 319.034Z" fill="#073245" />
    <path d="M123.473 323.3L236.275 388.529L240.901 385.863L127.921 320.634L123.473 323.3Z" fill="#073245" />
    <path d="M264.738 366.845L269.364 369.511L273.812 366.845L269.364 364.179L264.738 366.845Z" fill="#073245" />
    <path d="M248.727 370.399L258.156 375.909L262.782 373.243L253.353 367.911L248.727 370.399Z" fill="#073245" />
    <path
        d="M157.46 382.487L125.79 364.18C124.544 363.469 124.544 362.225 125.79 361.514L147.496 349.072C148.742 348.361 150.699 348.361 151.944 349.072L183.614 367.379C184.86 368.09 184.86 369.334 183.614 370.045L161.908 382.487C160.84 383.198 158.705 383.198 157.46 382.487Z"
        fill="url(#paint23_linear_367_4095)" />
    <path
        d="M183.795 368.445L151.947 350.139C150.702 349.428 148.745 349.428 147.499 350.139L125.793 362.58C125.437 362.758 125.081 363.113 125.081 363.291C124.725 362.58 125.081 362.047 125.793 361.514L147.499 349.072C148.745 348.361 150.702 348.361 151.947 349.072L183.617 367.379C184.507 367.912 184.685 368.623 184.329 369.156C184.329 368.979 184.151 368.623 183.795 368.445Z"
        fill="#96D99D" />
    <g opacity="0.11">
        <mask id="mask1_367_4095" style="mask-type:luminance" maskUnits="userSpaceOnUse" x="162" y="180" width="156"
            height="182">
            <path d="M179.344 180.758L317.412 260.383L300.331 361.16L162.441 281.712L179.344 180.758Z" fill="white" />
        </mask>
        <g mask="url(#mask1_367_4095)">
            <path
                d="M159.591 285.799L301.217 367.557C302.818 368.446 305.131 368.623 306.376 367.735L390.889 319.035C392.313 318.324 392.135 316.902 390.533 316.014L248.907 234.255C247.306 233.366 244.993 233.189 243.748 234.077L159.235 282.777C157.811 283.488 157.989 284.91 159.591 285.799Z"
                fill="url(#paint24_linear_367_4095)" />
            <path
                d="M301.749 300.372L270.079 282.066C268.833 281.355 268.833 280.11 270.079 279.4L291.785 266.958C293.031 266.247 294.988 266.247 296.233 266.958L327.903 285.265C329.149 285.976 329.149 287.22 327.903 287.931L306.197 300.372C304.951 301.083 302.994 301.083 301.749 300.372Z"
                fill="url(#paint25_linear_367_4095)" />
            <path
                d="M327.903 286.331L296.232 268.024C294.987 267.313 293.03 267.313 291.784 268.024L270.078 280.466C269.722 280.644 269.366 280.999 269.366 281.177C269.01 280.466 269.366 279.933 270.078 279.4L291.784 266.958C293.03 266.247 294.987 266.247 296.232 266.958L327.903 285.265C328.792 285.798 328.97 286.509 328.614 287.042C328.614 286.864 328.258 286.509 327.903 286.331Z"
                fill="#96D99D" />
            <path
                d="M341.958 328.988L224.174 261.093C223.462 260.56 222.395 260.56 221.683 261.093L179.693 285.265C179.16 285.621 179.16 286.509 179.693 286.865L297.478 354.76C298.189 355.293 299.257 355.293 299.969 354.76L341.958 330.588C342.492 330.233 342.492 329.344 341.958 328.988Z"
                fill="#96D99D" />
            <path
                d="M341.96 330.588L341.604 330.766L224.176 263.048C223.464 262.515 222.396 262.515 221.685 263.048L180.229 287.043L179.873 286.865C179.339 286.509 179.339 285.621 179.873 285.265L221.863 261.093C222.574 260.56 223.642 260.56 224.354 261.093L342.138 328.988C342.494 329.344 342.494 330.233 341.96 330.588Z"
                fill="#96D99D" />
            <path d="M190.725 283.665L293.208 342.851L289.116 345.162L186.633 285.976L190.725 283.665Z"
                fill="#073245" />
            <path d="M201.401 277.444L298.902 333.609L294.988 336.097L197.309 279.755L201.401 277.444Z"
                fill="#073245" />
            <path d="M306.194 337.875L315.268 343.207L311.354 345.518L302.102 340.186L306.194 337.875Z"
                fill="#073245" />
            <path d="M298.186 345.696L304.591 349.429L300.499 351.739L294.094 348.007L298.186 345.696Z"
                fill="#073245" />
            <path d="M208.16 273.536L322.208 339.298L318.116 341.609L204.246 275.847L208.16 273.536Z" fill="#073245" />
            <path d="M214.922 269.625L328.97 335.387L324.878 337.698L211.008 271.936L214.922 269.625Z" fill="#073245" />
            <path d="M221.862 265.715L335.732 331.477L331.64 333.788L217.77 268.025L221.862 265.715Z" fill="#073245" />
        </g>
    </g>
    <path d="M210.305 218.26L221.514 224.658L221.87 222.703L210.661 216.305L210.305 218.26Z" fill="#42E8E0" />
    <path d="M223.293 225.725L229.342 229.102L229.698 227.324L223.649 223.77L223.293 225.725Z" fill="#42E8E0" />
    <path d="M238.77 234.611L243.218 237.1L243.573 235.322L239.125 232.656L238.77 234.611Z" fill="#42E8E0" />
    <path d="M235.566 232.834L237.168 233.723L237.524 231.768L235.922 230.879L235.566 232.834Z" fill="#42E8E0" />
    <path d="M231.117 230.168L233.964 231.768L234.32 229.813L231.473 228.213L231.117 230.168Z" fill="#42E8E0" />
    <path d="M219.199 233.012L223.469 235.5L223.825 233.545L219.555 231.057L219.199 233.012Z" fill="#42E8E0" />
    <path d="M208.879 226.969L217.419 231.945L217.775 230.168L209.235 225.191L208.879 226.969Z" fill="#42E8E0" />
    <path d="M221.152 258.43L229.871 263.406L230.226 261.451L221.508 256.475L221.152 258.43Z" fill="#42E8E0" />
    <path d="M216.703 255.94L219.55 257.362L219.728 255.585L217.059 253.985L216.703 255.94Z" fill="#42E8E0" />
    <path d="M222.578 249.541L231.296 254.518L231.652 252.563L222.934 247.586L222.578 249.541Z" fill="#42E8E0" />
    <path d="M218.129 247.054L220.976 248.653L221.331 246.698L218.485 245.099L218.129 247.054Z" fill="#42E8E0" />
    <path d="M214.75 296.642L198.559 287.222L198.203 289.177L214.572 298.597L214.75 296.642Z" fill="#42E8E0" />
    <path d="M220.624 300.018L216.532 297.707L216.176 299.662L220.268 301.973L220.624 300.018Z" fill="#42E8E0" />
    <path d="M249.09 301.796L232.899 292.554L232.543 294.331L248.734 303.751L249.09 301.796Z" fill="#42E8E0" />
    <path d="M254.778 305.173L250.864 302.862L250.508 304.817L254.422 307.128L254.778 305.173Z" fill="#42E8E0" />
    <path d="M203.714 285.444L199.266 282.778L198.91 284.733L203.358 287.399L203.714 285.444Z" fill="#42E8E0" />
    <path d="M230.585 291.132L226.137 288.644L225.781 290.599L230.229 293.087L230.585 291.132Z" fill="#42E8E0" />
    <path d="M214.037 291.31L205.496 286.333L205.141 288.288L213.681 293.265L214.037 291.31Z" fill="#42E8E0" />
    <path d="M218.486 293.975L215.817 292.375L215.461 294.33L218.13 295.93L218.486 293.975Z" fill="#42E8E0" />
    <path d="M228.984 300.019L220.266 294.864L219.91 296.819L228.628 301.796L228.984 300.019Z" fill="#42E8E0" />
    <path d="M233.255 302.506L230.586 300.906L230.23 302.861L233.077 304.461L233.255 302.506Z" fill="#42E8E0" />
    <path d="M229.696 295.575L225.426 293.087L225.07 295.042L229.518 297.53L229.696 295.575Z" fill="#42E8E0" />
    <path d="M240.013 301.618L231.473 296.642L231.117 298.419L239.835 303.396L240.013 301.618Z" fill="#42E8E0" />
    <path d="M244.466 304.106L241.797 302.507L241.441 304.462L244.288 306.062L244.466 304.106Z" fill="#42E8E0" />
    <path d="M209.053 283.667L200.157 278.513L199.801 280.29L208.697 285.622L209.053 283.667Z" fill="#42E8E0" />
    <path d="M217.238 288.466L210.832 284.556L210.477 286.511L216.882 290.243L217.238 288.466Z" fill="#42E8E0" />
    <path d="M223.468 291.842L219.02 289.354L218.664 291.309L223.112 293.797L223.468 291.842Z" fill="#42E8E0" />
    <path d="M266.168 311.571L257.094 306.417L256.738 308.372L265.812 313.526L266.168 311.571Z" fill="#42E8E0" />
    <path d="M274.349 316.37L267.766 312.638L267.41 314.593L273.993 318.325L274.349 316.37Z" fill="#42E8E0" />
    <path d="M280.402 319.926L275.954 317.438L275.598 319.393L280.046 321.881L280.402 319.926Z" fill="#42E8E0" />
    <path d="M262.609 253.274L271.505 258.429L271.861 256.474L262.965 251.319L262.609 253.274Z" fill="#42E8E0" />
    <path d="M254.43 248.475L260.835 252.207L261.191 250.252L254.608 246.52L254.43 248.475Z" fill="#42E8E0" />
    <path d="M248.203 244.92L252.651 247.408L253.007 245.453L248.559 242.965L248.203 244.92Z" fill="#42E8E0" />
    <path d="M259.586 246.52L268.66 251.852L268.838 249.897L259.942 244.742L259.586 246.52Z" fill="#42E8E0" />
    <path d="M251.398 241.898L257.804 245.631L258.159 243.676L251.754 239.943L251.398 241.898Z" fill="#42E8E0" />
    <path d="M245.172 238.344L249.62 240.832L249.976 238.877L245.528 236.389L245.172 238.344Z" fill="#42E8E0" />
    <path d="M223.293 254.695L226.318 256.473L226.673 254.518L223.471 252.918L223.293 254.695Z" fill="#42E8E0" />
    <path d="M217.422 251.497L221.514 253.808L221.87 251.853L217.778 249.542L217.422 251.497Z" fill="#42E8E0" />
    <path d="M209.946 279.223L200.871 274.068L200.516 276.023L209.59 281.178L209.946 279.223Z" fill="#42E8E0" />
    <path d="M218.13 284.023L211.547 280.29L211.191 282.245L217.775 285.978L218.13 284.023Z" fill="#42E8E0" />
    <path d="M224.181 287.576L219.733 284.91L219.555 286.865L223.825 289.531L224.181 287.576Z" fill="#42E8E0" />
    <path d="M204.607 271.402L201.582 269.625L201.227 271.58L204.429 273.357L204.607 271.402Z" fill="#42E8E0" />
    <path d="M210.475 274.602L206.383 272.291L206.027 274.246L210.12 276.557L210.475 274.602Z" fill="#42E8E0" />
    <path d="M218.666 279.401L212.082 275.669L211.727 277.624L218.31 281.356L218.666 279.401Z" fill="#42E8E0" />
    <path d="M227.379 242.61L230.404 244.388L230.759 242.433L227.735 240.655L227.379 242.61Z" fill="#42E8E0" />
    <path d="M221.688 239.232L225.602 241.543L225.958 239.588L222.043 237.277L221.688 239.232Z" fill="#42E8E0" />
    <path d="M213.508 234.611L219.913 238.344L220.269 236.389L213.864 232.656L213.508 234.611Z" fill="#42E8E0" />
    <path d="M232.008 249.719L238.413 253.451L238.769 251.496L232.364 247.764L232.008 249.719Z" fill="#42E8E0" />
    <path d="M221.332 244.031L230.05 249.008L230.406 247.053L221.688 242.076L221.332 244.031Z" fill="#42E8E0" />
    <path d="M216.887 241.365L219.733 242.965L220.089 241.01L217.243 239.41L216.887 241.365Z" fill="#42E8E0" />
    <path d="M212.793 239.056L215.462 240.478L215.818 238.7L212.971 237.101L212.793 239.056Z" fill="#42E8E0" />
    <path d="M213.328 263.939L221.868 268.915L222.224 266.96L213.684 261.983L213.328 263.939Z" fill="#42E8E0" />
    <path d="M208.879 261.449L211.548 263.049L211.904 261.094L209.235 259.494L208.879 261.449Z" fill="#42E8E0" />
    <path d="M213.863 269.093L216.888 270.87L217.244 268.915L214.219 267.315L213.863 269.093Z" fill="#42E8E0" />
    <path d="M224.539 265.538L227.742 267.315L227.92 265.36L224.895 263.761L224.539 265.538Z" fill="#42E8E0" />
    <path d="M228.984 268.203L236.279 272.291L236.635 270.336L229.34 266.248L228.984 268.203Z" fill="#42E8E0" />
    <path d="M237.52 273.001L241.968 275.667L242.146 273.712L237.875 271.224L237.52 273.001Z" fill="#42E8E0" />
    <path d="M208.164 265.893L212.256 268.203L212.434 266.248L208.52 263.938L208.164 265.893Z" fill="#42E8E0" />
    <path d="M207.809 270.337L210.833 272.114L211.189 270.159L208.164 268.56L207.809 270.337Z" fill="#42E8E0" />
    <path d="M202.117 267.137L206.031 269.447L206.387 267.492L202.295 265.182L202.117 267.137Z" fill="#42E8E0" />
    <path d="M220.266 263.05L222.934 264.649L223.29 262.694L220.621 261.095L220.266 263.05Z" fill="#42E8E0" />
    <path d="M215.996 260.561L218.665 262.16L219.021 260.205L216.352 258.605L215.996 260.561Z" fill="#42E8E0" />
    <path d="M236.992 238.344L246.244 243.854L246.6 241.898L237.348 236.389L236.992 238.344Z" fill="#42E8E0" />
    <path d="M226.488 232.302L235.206 237.456L235.562 235.501L226.844 230.347L226.488 232.302Z" fill="#42E8E0" />
    <path d="M222.043 229.813L224.712 231.412L225.068 229.457L222.399 227.857L222.043 229.813Z" fill="#42E8E0" />
    <path d="M217.773 227.323L220.442 228.923L220.798 226.968L218.129 225.368L217.773 227.323Z" fill="#42E8E0" />
    <path d="M215.457 226.08L209.586 222.525L209.942 220.748L215.813 224.125L215.457 226.08Z" fill="#42E8E0" />
    <defs>
        <linearGradient id="paint0_linear_367_4095" x1="69.0996" y1="180.193" x2="298.61" y2="180.193"
            gradientUnits="userSpaceOnUse">
            <stop stop-color="#1C376A" />
            <stop offset="0.1779" stop-color="#1C376A" />
            <stop offset="0.3876" stop-color="#5793CE" />
            <stop offset="0.6134" stop-color="#5793CE" />
            <stop offset="0.849" stop-color="#87C5F1" />
            <stop offset="1" stop-color="#BCBEFF" />
            <stop offset="1" stop-color="#87C5F1" />
        </linearGradient>
        <linearGradient id="paint1_linear_367_4095" x1="146.214" y1="172.548" x2="375.847" y2="172.548"
            gradientUnits="userSpaceOnUse">
            <stop stop-color="#5793CE" />
            <stop offset="0.2938" stop-color="#C5C4F7" />
            <stop offset="0.6399" stop-color="#D3D2F9" />
            <stop offset="1" stop-color="#E9E9FD" />
        </linearGradient>
        <linearGradient id="paint2_linear_367_4095" x1="131.319" y1="154.896" x2="190.098" y2="154.896"
            gradientUnits="userSpaceOnUse">
            <stop stop-color="#5793CE" />
            <stop offset="0.2938" stop-color="#87C5F1" />
            <stop offset="0.6399" stop-color="#D4ECFF" />
            <stop offset="1" stop-color="#E9E9FD" />
        </linearGradient>
        <linearGradient id="paint3_linear_367_4095" x1="135.912" y1="144.316" x2="298.417" y2="144.316"
            gradientUnits="userSpaceOnUse">
            <stop stop-color="#5793CE" />
            <stop offset="0.2938" stop-color="#87C5F1" />
            <stop offset="0.6399" stop-color="#D4ECFF" />
            <stop offset="1" stop-color="#E9E9FD" />
        </linearGradient>
        <linearGradient id="paint4_linear_367_4095" x1="135.91" y1="185.946" x2="163.813" y2="185.946"
            gradientUnits="userSpaceOnUse">
            <stop stop-color="#1C376A" />
            <stop offset="0.1779" stop-color="#1C376A" />
            <stop offset="0.3876" stop-color="#173D7A" />
            <stop offset="0.6134" stop-color="#4E9CDB" />
            <stop offset="0.849" stop-color="#6EABDD" />
            <stop offset="1" stop-color="#87C5F1" />
        </linearGradient>
        <linearGradient id="paint5_linear_367_4095" x1="640.536" y1="180.193" x2="411.025" y2="180.193"
            gradientUnits="userSpaceOnUse">
            <stop stop-color="#173D7A" />
            <stop offset="0.1779" stop-color="#173D7A" />
            <stop offset="0.3876" stop-color="#115DA1" />
            <stop offset="0.6134" stop-color="#72ADDE" />
            <stop offset="0.849" stop-color="#6EABDD" />
            <stop offset="1" stop-color="#B2D3EA" />
        </linearGradient>
        <linearGradient id="paint6_linear_367_4095" x1="563.417" y1="172.548" x2="333.784" y2="172.548"
            gradientUnits="userSpaceOnUse">
            <stop stop-color="#5793CE" />
            <stop offset="0.2938" stop-color="#87C5F1" />
            <stop offset="0.6399" stop-color="#D4ECFF" />
            <stop offset="1" stop-color="#D4ECFF" />
        </linearGradient>
        <linearGradient id="paint7_linear_367_4095" x1="578.317" y1="154.896" x2="519.537" y2="154.896"
            gradientUnits="userSpaceOnUse">
            <stop stop-color="#87C5F1" />
            <stop offset="0.0001" stop-color="#5793CE" />
            <stop offset="0.2938" stop-color="#87C5F1" />
            <stop offset="0.6399" stop-color="#D4ECFF" />
            <stop offset="1" stop-color="#E9E9FD" />
        </linearGradient>
        <linearGradient id="paint8_linear_367_4095" x1="573.716" y1="144.316" x2="411.211" y2="144.316"
            gradientUnits="userSpaceOnUse">
            <stop stop-color="#5793CE" />
            <stop offset="0.2938" stop-color="#87C5F1" />
            <stop offset="0.6399" stop-color="#D4ECFF" />
            <stop offset="1" stop-color="#E9E9FD" />
        </linearGradient>
        <linearGradient id="paint9_linear_367_4095" x1="573.72" y1="185.946" x2="545.816" y2="185.946"
            gradientUnits="userSpaceOnUse">
            <stop stop-color="#1C376A" />
            <stop offset="0.1779" stop-color="#1C376A" />
            <stop offset="0.3876" stop-color="#396CAA" />
            <stop offset="0.6134" stop-color="#396CAA" />
            <stop offset="0.849" stop-color="#5793CE" />
            <stop offset="1" stop-color="#BCBEFF" />
            <stop offset="1" stop-color="#87C5F1" />
        </linearGradient>
        <linearGradient id="paint10_linear_367_4095" x1="420.311" y1="299.428" x2="420.311" y2="210.014"
            gradientUnits="userSpaceOnUse">
            <stop stop-color="#5793CE" />
            <stop offset="0.2938" stop-color="#87C5F1" />
            <stop offset="0.6399" stop-color="#D4ECFF" />
            <stop offset="1" stop-color="#E9E9FD" />
        </linearGradient>
        <linearGradient id="paint11_linear_367_4095" x1="420.311" y1="225.287" x2="420.311" y2="135.873"
            gradientUnits="userSpaceOnUse">
            <stop stop-color="#5793CE" />
            <stop offset="0.2938" stop-color="#87C5F1" />
            <stop offset="0.6399" stop-color="#D4ECFF" />
            <stop offset="1" stop-color="#E9E9FD" />
        </linearGradient>
        <linearGradient id="paint12_linear_367_4095" x1="384.775" y1="270.332" x2="550.154" y2="270.332"
            gradientUnits="userSpaceOnUse">
            <stop stop-color="#C0BFF6" />
            <stop offset="0.2938" stop-color="#C5C4F7" />
            <stop offset="0.6399" stop-color="#D3D2F9" />
            <stop offset="1" stop-color="#E9E9FD" />
        </linearGradient>
        <linearGradient id="paint13_linear_367_4095" x1="384.775" y1="312.701" x2="413.173" y2="312.701"
            gradientUnits="userSpaceOnUse">
            <stop stop-color="#173D7A" />
            <stop offset="0.1779" stop-color="#173D7A" />
            <stop offset="0.3876" stop-color="#5793CE" />
            <stop offset="0.6134" stop-color="#5793CE" />
            <stop offset="0.849" stop-color="#87C5F1" />
            <stop offset="1" stop-color="#87C5F1" />
        </linearGradient>
        <linearGradient id="paint14_linear_367_4095" x1="406.937" y1="360.325" x2="640.506" y2="360.325"
            gradientUnits="userSpaceOnUse">
            <stop stop-color="#03515E" />
            <stop offset="0.1779" stop-color="#21555F" />
            <stop offset="0.3876" stop-color="#5793CE" />
            <stop offset="0.6134" stop-color="#5793CE" />
            <stop offset="0.849" stop-color="#87C5F1" />
            <stop offset="1" stop-color="#87C5F1" />
        </linearGradient>
        <linearGradient id="paint15_linear_367_4095" x1="485.414" y1="352.545" x2="719.107" y2="352.545"
            gradientUnits="userSpaceOnUse">
            <stop stop-color="#5793CE" />
            <stop offset="0.2938" stop-color="#87C5F1" />
            <stop offset="0.6399" stop-color="#D4ECFF" />
            <stop offset="1" stop-color="#D4ECFF" />
        </linearGradient>
        <linearGradient id="paint16_linear_367_4095" x1="524.989" y1="365.798" x2="584.808" y2="365.798"
            gradientUnits="userSpaceOnUse">
            <stop stop-color="#5793CE" />
            <stop offset="0.2938" stop-color="#87C5F1" />
            <stop offset="0.6399" stop-color="#D4ECFF" />
            <stop offset="1" stop-color="#E9E9FD" />
        </linearGradient>
        <linearGradient id="paint17_linear_367_4095" x1="396.133" y1="300.804" x2="629.826" y2="300.804"
            gradientUnits="userSpaceOnUse">
            <stop stop-color="#C0BFF6" />
            <stop offset="0.2938" stop-color="#C5C4F7" />
            <stop offset="0.6399" stop-color="#D3D2F9" />
            <stop offset="1" stop-color="#E9E9FD" />
        </linearGradient>
        <linearGradient id="paint18_linear_367_4095" x1="380.752" y1="283.667" x2="440.571" y2="283.667"
            gradientUnits="userSpaceOnUse">
            <stop stop-color="#5793CE" />
            <stop offset="0.2938" stop-color="#87C5F1" />
            <stop offset="0.6399" stop-color="#D4ECFF" />
            <stop offset="1" stop-color="#E9E9FD" />
        </linearGradient>
        <linearGradient id="paint19_linear_367_4095" x1="324.846" y1="270.332" x2="159.467" y2="270.332"
            gradientUnits="userSpaceOnUse">
            <stop stop-color="#5793CE" />
            <stop offset="0.2938" stop-color="#87C5F1" />
            <stop offset="0.6399" stop-color="#D4ECFF" />
            <stop offset="1" stop-color="#E9E9FD" />
        </linearGradient>
        <linearGradient id="paint20_linear_367_4095" x1="324.849" y1="312.701" x2="296.452" y2="312.701"
            gradientUnits="userSpaceOnUse">
            <stop stop-color="#1C376A" />
            <stop offset="0.1779" stop-color="#1C3F72" />
            <stop offset="0.3876" stop-color="#5793CE" />
            <stop offset="0.6134" stop-color="#5793CE" />
            <stop offset="0.849" stop-color="#87C5F1" />
            <stop offset="1" stop-color="#87C5F1" />
        </linearGradient>
        <linearGradient id="paint21_linear_367_4095" x1="302.689" y1="360.325" x2="69.1204" y2="360.325"
            gradientUnits="userSpaceOnUse">
            <stop stop-color="#003D42" />
            <stop offset="0.1779" stop-color="#003D42" />
            <stop offset="0.3876" stop-color="#138BBD" />
            <stop offset="0.6134" stop-color="#87C5F1" />
            <stop offset="0.849" stop-color="#87C5F1" />
            <stop offset="1" stop-color="#6EABDD" stop-opacity="0.2" />
        </linearGradient>
        <linearGradient id="paint22_linear_367_4095" x1="224.213" y1="352.545" x2="-9.47999" y2="352.545"
            gradientUnits="userSpaceOnUse">
            <stop stop-color="#5793CE" />
            <stop offset="0.2938" stop-color="#87C5F1" />
            <stop offset="0.6399" stop-color="#D4ECFF" />
            <stop offset="1" stop-color="#E9E9FD" />
        </linearGradient>
        <linearGradient id="paint23_linear_367_4095" x1="184.637" y1="365.798" x2="124.818" y2="365.798"
            gradientUnits="userSpaceOnUse">
            <stop stop-color="#5793CE" />
            <stop offset="0.2938" stop-color="#87C5F1" />
            <stop offset="0.6399" stop-color="#D4ECFF" />
            <stop offset="1" stop-color="#D1D9E6" />
        </linearGradient>
        <linearGradient id="paint24_linear_367_4095" x1="313.492" y1="300.803" x2="79.7992" y2="300.803"
            gradientUnits="userSpaceOnUse">
            <stop stop-color="#5793CE" />
            <stop offset="0.2938" stop-color="#87C5F1" />
            <stop offset="0.6399" stop-color="#D4ECFF" />
            <stop offset="1" stop-color="#D1D9E6" />
        </linearGradient>
        <linearGradient id="paint25_linear_367_4095" x1="328.872" y1="283.665" x2="269.053" y2="283.665"
            gradientUnits="userSpaceOnUse">
            <stop stop-color="#C0BFF6" />
            <stop offset="0.2938" stop-color="#C5C4F7" />
            <stop offset="0.6399" stop-color="#D3D2F9" />
            <stop offset="1" stop-color="#E9E9FD" />
        </linearGradient>
    </defs>
</svg>