<svg width="34" height="34" viewBox="0 0 34 34" fill="none" xmlns="http://www.w3.org/2000/svg">
<g clip-path="url(#clip0_447_34)">
<path d="M11.56 0.679993C5.56103 0.679993 0.679993 5.56103 0.679993 11.56C0.679993 17.559 5.56103 22.44 11.56 22.44C14.3154 22.44 16.8273 21.4023 18.7462 19.7078L32.1592 33.1208L33.1208 32.1592L19.7078 18.7462C21.4023 16.8273 22.44 14.3154 22.44 11.56C22.44 5.56103 17.559 0.679993 11.56 0.679993ZM11.56 21.08C6.31039 21.08 2.03999 16.8096 2.03999 11.56C2.03999 6.31039 6.31039 2.03999 11.56 2.03999C16.8096 2.03999 21.08 6.31039 21.08 11.56C21.08 16.8096 16.8096 21.08 11.56 21.08Z" fill="black"/>
</g>
<defs>
<clipPath id="clip0_447_34">
<rect width="34" height="34" fill="white"/>
</clipPath>
</defs>
</svg>
