<svg width="36" height="36" viewBox="0 0 36 36" fill="none" xmlns="http://www.w3.org/2000/svg">
<path d="M35.8264 2.46091C35.6652 2.30391 35.4272 2.25532 35.2176 2.33688L0.366527 15.8719C0.159387 15.9524 0.0172858 16.145 0.00146551 16.3665C-0.0143548 16.5881 0.0989185 16.7989 0.292418 16.9079L7.51483 20.9773L10.0215 33.2298C10.0372 33.3164 10.0724 33.3971 10.1229 33.4663C10.128 33.4733 10.1321 33.4787 10.1364 33.484C10.2247 33.5945 10.3499 33.6716 10.4959 33.6949C10.5145 33.6979 10.5332 33.7 10.5518 33.7011C10.5638 33.7019 10.5757 33.7022 10.5877 33.7022C10.6973 33.7022 10.8012 33.671 10.8897 33.6159C10.9196 33.5973 10.9481 33.5759 10.9746 33.5516C10.9828 33.544 10.99 33.5372 10.9969 33.5301L16.4337 28.0794C16.6577 27.8548 16.6573 27.491 16.4326 27.267C16.2078 27.0428 15.8442 27.0434 15.6202 27.268L11.3495 31.5496L12.2722 23.6469L25.3148 30.8057C25.4462 30.8774 25.5921 30.8928 25.7259 30.8606C25.7406 30.857 25.754 30.8532 25.7673 30.8489C25.8993 30.8061 26.0152 30.7169 26.0889 30.589C26.0926 30.5823 26.0959 30.5764 26.0992 30.5704C26.1141 30.542 26.126 30.5141 26.1355 30.4859L35.9662 3.06623C36.0421 2.85445 35.9875 2.61778 35.8264 2.46091ZM1.91474 16.5032L30.4005 5.44019L8.00456 19.9344L1.91474 16.5032ZM11.4412 22.2846C11.3875 22.3277 11.3407 22.3812 11.3042 22.444C11.2994 22.4522 11.2949 22.4605 11.2905 22.4689C11.2557 22.5363 11.2354 22.6075 11.2287 22.6788L10.4319 29.5031L8.66655 20.8745L28.0098 8.35597L11.4412 22.2846ZM25.2778 29.4746L12.8125 22.6328L34.1667 4.68103L25.2778 29.4746Z" fill="#30A842"/>
</svg>
