<svg width="664" height="664" viewBox="0 0 664 664" fill="none" xmlns="http://www.w3.org/2000/svg">
    <path d="M450.328 460.019L449.93 459.886L435.72 467.987L436.119 468.252L450.328 460.019Z" fill="#015C6B" />
    <path d="M566.926 392.689L566.527 392.557L552.318 400.657L552.716 400.923L566.926 392.689Z" fill="#015C6B" />
    <path d="M436.914 452.316L436.516 452.051L422.306 460.284L422.704 460.55L436.914 452.316Z" fill="#015C6B" />
    <path
        d="M332.004 547.136C333.863 547.136 335.855 546.604 337.449 545.675L615.001 385.12C618.453 383.128 620.445 379.542 620.445 375.558C620.445 371.574 618.453 367.988 615.001 365.996L374.898 226.424C371.445 224.432 367.196 224.432 363.876 226.424L318.325 253.116C315.271 254.843 311.553 254.843 308.498 253.116L262.948 226.291C259.495 224.299 255.245 224.299 251.925 226.291L29.8839 354.841C26.431 356.833 24.439 360.419 24.439 364.403C24.439 368.387 26.431 371.972 29.8839 373.964L326.559 545.675C328.153 546.737 330.145 547.136 332.004 547.136ZM374.234 227.752L614.337 367.324C617.391 369.051 619.117 372.238 619.117 375.691C619.117 379.144 617.258 382.331 614.337 384.057L336.917 544.612C333.996 546.339 330.277 546.339 327.223 544.612L30.5479 372.902C27.4934 371.176 25.767 367.988 25.767 364.536C25.767 361.083 27.6262 357.896 30.5479 356.169L252.589 227.619C255.644 225.892 259.362 225.892 262.284 227.619L307.834 254.444C311.287 256.436 315.537 256.436 318.989 254.444L364.54 227.752C367.461 226.025 371.18 226.025 374.234 227.752Z"
        fill="url(#paint0_linear_216_5250)" />
    <path
        d="M357.234 530.27C359.093 530.27 360.952 529.739 362.678 528.809L634.653 371.441C637.973 369.449 640.098 365.996 640.098 362.145C640.098 358.294 638.106 354.708 634.786 352.849L399.331 216.065C396.011 214.073 391.762 214.073 388.442 216.065L343.821 242.227C340.899 243.953 337.181 243.953 334.259 242.227L289.639 215.932C286.319 213.94 282.069 213.94 278.749 215.932L61.0897 341.96C57.7697 343.952 55.6449 347.404 55.6449 351.256C55.6449 355.107 57.6369 358.692 61.0897 360.552L351.922 528.809C353.515 529.872 355.374 530.27 357.234 530.27ZM398.535 217.128L633.989 353.912C636.91 355.638 638.637 358.692 638.637 362.145C638.637 365.598 636.91 368.652 633.856 370.379L361.882 527.747C358.96 529.473 355.374 529.473 352.453 527.747L61.6209 359.489C58.6993 357.763 56.8401 354.708 56.8401 351.256C56.8401 347.803 58.5665 344.748 61.6209 343.022L279.28 216.995C282.202 215.268 285.92 215.268 288.842 216.995L333.462 243.289C336.783 245.281 341.032 245.281 344.352 243.289L389.106 217.128C392.027 215.401 395.613 215.401 398.535 217.128Z"
        fill="url(#paint1_linear_216_5250)" />
    <path
        d="M443.953 503.046C446.609 503.046 449.265 502.382 451.655 501.054L606.633 412.343C608.094 411.547 609.023 409.953 609.023 408.227C609.023 406.5 608.094 404.907 606.633 404.11L564.668 379.807C559.223 376.62 552.318 376.62 546.873 379.807L394.153 467.987C392.559 468.916 391.63 470.51 391.63 472.236C391.63 474.095 392.559 475.689 394.153 476.486L436.251 500.788C438.508 502.382 441.297 503.046 443.953 503.046ZM605.969 405.172C607.031 405.836 607.695 406.899 607.695 408.094C607.695 409.289 607.031 410.484 605.969 411.015L450.991 499.726C446.609 502.249 441.164 502.249 436.782 499.726L394.684 475.423C393.489 474.759 392.825 473.564 392.825 472.236C392.825 470.908 393.489 469.713 394.684 469.049L547.404 380.87C552.451 377.948 558.825 377.948 563.871 380.87L605.969 405.172Z"
        fill="#259789" />
    <path
        d="M454.841 490.563C457.364 490.563 459.887 489.899 462.145 488.704L584.852 418.452C586.313 417.656 587.242 416.062 587.242 414.336C587.242 412.609 586.313 411.148 584.852 410.219L551.652 391.096C547.535 388.705 542.356 388.705 538.106 391.096L414.602 462.409C413.274 463.206 412.477 464.534 412.477 465.995C412.477 467.456 413.274 468.916 414.602 469.58L447.537 488.704C449.794 489.899 452.317 490.563 454.841 490.563ZM545.012 390.697C547.137 390.697 549.261 391.228 551.121 392.291L584.321 411.414C585.383 412.078 586.047 413.14 586.047 414.336C586.047 415.531 585.383 416.593 584.321 417.257L461.613 487.508C457.497 489.899 452.45 489.899 448.333 487.508L415.532 468.518C414.602 467.987 414.071 467.057 414.071 465.995C414.071 464.932 414.602 464.003 415.532 463.472L539.036 392.158C540.762 391.228 542.887 390.697 545.012 390.697Z"
        fill="#259789" />
    <path
        d="M443.687 244.883C446.21 244.883 448.866 244.219 451.124 242.891L476.488 228.416C477.816 227.619 478.613 226.291 478.613 224.83C478.613 223.369 477.816 222.041 476.621 221.244L414.205 185.256C409.557 182.6 403.847 182.6 399.199 185.256L374.232 199.731C372.904 200.528 372.24 201.856 372.24 203.316C372.24 204.777 373.037 206.105 374.232 206.902L436.25 243.024C438.375 244.219 441.031 244.883 443.687 244.883ZM406.636 184.592C409.026 184.592 411.416 185.256 413.408 186.451L475.824 222.44C476.754 222.971 477.285 223.9 477.152 224.83C477.152 225.892 476.621 226.689 475.692 227.22L450.327 241.696C446.077 244.086 440.898 244.086 436.648 241.696L374.631 205.574C373.701 205.043 373.303 204.113 373.303 203.184C373.303 202.121 373.834 201.324 374.631 200.793L399.73 186.318C401.855 185.123 404.245 184.592 406.636 184.592Z"
        fill="url(#paint0_linear_216_5250)" />
    <path
        d="M442.491 251.656C444.882 251.656 447.405 250.992 449.53 249.796L473.434 236.118C474.629 235.454 475.426 234.126 475.426 232.665C475.426 231.204 474.762 230.009 473.434 229.212L414.736 195.348C410.354 192.825 404.909 192.825 400.527 195.348L377.021 208.894C375.826 209.558 375.029 210.886 375.029 212.214C375.029 213.675 375.693 214.87 377.021 215.534L435.453 249.664C437.578 250.992 440.101 251.656 442.491 251.656ZM407.698 194.95C409.955 194.95 412.08 195.481 414.072 196.676L472.77 230.408C473.567 230.939 474.098 231.736 474.098 232.665C474.098 233.595 473.567 234.392 472.77 234.923L448.866 248.601C444.882 250.859 439.968 250.859 435.984 248.601L377.685 214.604C376.888 214.073 376.357 213.276 376.357 212.347C376.357 211.417 376.888 210.62 377.685 210.089L401.323 196.544C403.315 195.481 405.44 194.95 407.698 194.95Z"
        fill="#259789" />
    <path
        d="M441.429 257.499C443.686 257.499 445.944 256.968 448.069 255.772L470.379 243.024C471.574 242.36 472.238 241.164 472.238 239.836C472.238 238.508 471.574 237.313 470.379 236.649L415.665 205.043C411.549 202.652 406.502 202.652 402.385 205.043L380.473 217.659C379.278 218.323 378.614 219.518 378.614 220.846C378.614 222.174 379.278 223.369 380.473 224.033L434.921 255.772C436.781 256.835 439.038 257.499 441.429 257.499ZM408.893 204.512C411.017 204.512 413.009 205.043 414.869 206.105L469.582 237.712C470.379 238.11 470.777 238.907 470.777 239.704C470.777 240.5 470.379 241.297 469.582 241.696L447.272 254.444C443.553 256.569 439.038 256.569 435.32 254.444L380.872 222.705C380.075 222.307 379.677 221.51 379.677 220.713C379.677 219.916 380.075 219.12 380.872 218.721L402.784 206.105C404.776 205.043 406.768 204.512 408.893 204.512Z"
        fill="#259789" />
    <path
        d="M108.234 481.532C110.89 481.532 113.546 480.868 115.803 479.54L139.442 465.862C140.902 464.932 141.832 463.472 141.832 461.612C141.832 459.886 140.902 458.292 139.442 457.363L96.1488 432.396C91.2352 429.608 85.2593 429.608 80.4785 432.662L57.7696 446.606C56.3088 447.536 55.3792 449.129 55.512 450.856C55.512 452.582 56.4417 454.176 57.9025 454.972L100.398 479.54C102.922 480.868 105.578 481.532 108.234 481.532ZM138.91 458.558C139.973 459.222 140.637 460.284 140.637 461.612C140.637 462.94 139.973 464.003 138.91 464.667L115.272 478.345C111.022 480.868 105.578 480.868 101.328 478.345L58.832 453.777C57.7696 453.113 57.1056 452.051 57.1056 450.723C57.1056 449.528 57.7696 448.332 58.832 447.668L81.5408 433.724C85.9232 431.068 91.3681 430.936 95.7505 433.592L138.91 458.558Z"
        fill="url(#paint2_linear_216_5250)" />
    <path
        d="M257.898 531.598C260.554 531.598 263.21 530.934 265.467 529.606L289.106 515.927C290.567 514.998 291.496 513.537 291.496 511.678C291.496 509.951 290.567 508.358 289.106 507.428L245.813 482.462C240.899 479.673 234.923 479.673 230.142 482.727L207.434 496.671C205.973 497.601 205.043 499.195 205.176 500.921C205.176 502.648 206.106 504.241 207.566 505.038L250.062 529.606C252.718 530.934 255.375 531.598 257.898 531.598ZM288.574 508.623C289.637 509.287 290.301 510.35 290.301 511.678C290.301 513.006 289.637 514.068 288.574 514.732L264.936 528.411C260.686 530.934 255.242 530.934 250.992 528.411L208.496 503.843C207.434 503.179 206.77 502.116 206.77 500.788C206.77 499.593 207.434 498.398 208.496 497.734L231.072 483.79C235.454 481.134 240.899 481.001 245.282 483.657L288.574 508.623Z"
        fill="#259789" />
    <path
        d="M150.464 327.617C153.12 327.617 155.776 326.953 158.034 325.625L181.672 311.947C183.133 311.017 184.062 309.557 184.062 307.697C184.062 305.971 183.133 304.377 181.672 303.448L138.379 278.481C133.466 275.693 127.49 275.693 122.709 278.747L100 292.691C98.5393 293.621 97.6097 295.214 97.7425 296.941C97.7425 298.667 98.6721 300.261 100.133 301.057L142.629 325.625C145.152 326.953 147.808 327.617 150.464 327.617ZM181.141 304.643C182.203 305.307 182.867 306.369 182.867 307.697C182.867 309.025 182.203 310.088 181.141 310.752L157.502 324.43C153.253 326.953 147.808 326.953 143.558 324.43L101.062 299.862C100 299.198 99.3361 298.136 99.3361 296.808C99.3361 295.613 100 294.417 101.062 293.753L123.771 279.809C128.154 277.153 133.598 277.021 137.981 279.677L181.141 304.643Z"
        fill="#259789" />
    <path
        d="M168.126 345.147C172.11 345.147 176.094 344.084 179.68 342.092L216.2 320.977C218.457 319.649 219.785 317.391 219.785 314.735C219.785 312.212 218.457 309.822 216.2 308.494L149.534 269.982C142.097 265.732 133.067 265.865 125.763 270.247L90.8363 291.761C88.7115 293.089 87.3835 295.347 87.3835 298.003C87.3835 300.526 88.7115 302.783 90.9691 304.111L156.572 341.959C160.158 344.084 164.142 345.147 168.126 345.147ZM215.668 309.689C217.528 310.751 218.59 312.611 218.59 314.735C218.59 316.86 217.528 318.719 215.668 319.782L179.148 340.897C172.376 344.748 164.009 344.748 157.369 340.897L91.766 303.049C90.0396 301.987 88.8443 300.127 88.8443 298.135C88.8443 296.011 89.9068 294.151 91.6331 293.089L126.56 271.575C133.332 267.326 141.964 267.193 148.87 271.31L215.668 309.689Z"
        fill="#259789" />
    <path
        d="M569.981 379.808C573.566 379.808 577.152 378.878 580.206 377.019L612.477 358.427C614.469 357.232 615.664 355.24 615.664 352.849C615.664 350.459 614.469 348.467 612.477 347.272L553.514 313.142C547.006 309.424 538.906 309.424 532.398 313.408L501.456 332.398C499.464 333.593 498.402 335.718 498.402 337.976C498.402 340.233 499.597 342.225 501.589 343.421L559.622 376.886C562.942 378.878 566.528 379.808 569.981 379.808ZM543.288 311.814C546.608 311.814 549.928 312.611 552.85 314.337L611.813 348.467C613.406 349.397 614.336 350.99 614.336 352.849C614.336 354.709 613.406 356.302 611.813 357.232L579.542 375.824C573.566 379.277 566.262 379.277 560.286 375.824L502.253 342.358C500.659 341.429 499.73 339.835 499.73 337.976C499.73 336.117 500.659 334.523 502.12 333.593L533.195 314.736C536.382 312.744 539.835 311.814 543.288 311.814Z"
        fill="#259789" />
    <path
        d="M238.775 578.344C241.431 578.344 244.219 577.68 246.61 576.352L290.699 551.385C291.895 550.721 292.691 549.393 292.691 548.065C292.691 546.605 292.027 545.409 290.832 544.745L190.967 486.977C186.053 484.189 180.077 484.189 175.163 486.977L131.605 512.209C130.41 512.873 129.746 514.201 129.746 515.529C129.746 516.857 130.41 518.185 131.738 518.849L231.205 576.219C233.33 577.68 235.986 578.344 238.775 578.344ZM182.866 486.181C185.389 486.181 187.912 486.845 190.037 488.173L289.903 545.808C290.699 546.206 291.231 547.136 291.098 548.065C291.098 548.995 290.567 549.792 289.77 550.19L245.68 575.157C241.298 577.68 235.72 577.68 231.338 575.157L131.871 517.787C131.074 517.389 130.543 516.459 130.543 515.662C130.543 514.733 131.074 513.936 131.738 513.537L175.296 488.305C177.819 486.845 180.343 486.181 182.866 486.181Z"
        fill="#259789" />
    <path
        d="M245.416 589.366C248.736 589.366 252.056 588.569 254.978 586.843L309.559 555.901C311.02 555.104 311.949 553.643 311.949 551.917C311.949 550.19 311.152 548.729 309.692 547.933L185.922 476.486C179.946 473.033 172.509 473.033 166.533 476.486L112.484 507.694C111.023 508.491 110.226 510.084 110.226 511.678C110.226 513.404 111.156 514.865 112.484 515.662L235.722 586.71C238.644 588.436 241.964 589.366 245.416 589.366ZM176.095 475.158C179.282 475.158 182.336 475.955 185.125 477.549L308.895 548.995C309.957 549.526 310.488 550.721 310.488 551.917C310.488 553.112 309.824 554.174 308.762 554.705L254.181 585.648C248.604 588.835 241.698 588.702 236.253 585.648L113.015 514.6C111.952 514.069 111.421 513.006 111.421 511.811C111.421 510.616 112.085 509.553 113.015 509.022L167.064 477.814C169.853 475.955 172.908 475.158 176.095 475.158Z"
        fill="#259789" />
    <path
        d="M341.165 226.556C343.821 226.556 346.344 226.025 348.336 224.83C350.461 223.635 351.523 222.041 351.523 220.315C351.523 218.588 350.461 216.995 348.336 215.8C344.352 213.542 337.978 213.542 333.994 215.8C332.002 216.995 330.807 218.588 330.807 220.315C330.807 222.041 331.869 223.635 333.994 224.83C335.853 225.892 338.509 226.556 341.165 226.556ZM341.165 215.268C343.555 215.268 345.946 215.8 347.672 216.862C349.266 217.792 350.195 218.987 350.195 220.182C350.195 221.377 349.266 222.705 347.672 223.635C344.087 225.76 338.243 225.76 334.658 223.635C333.064 222.705 332.135 221.51 332.135 220.315C332.135 219.12 333.064 217.792 334.658 216.862C336.384 215.8 338.775 215.268 341.165 215.268Z"
        fill="#259789" />
    <path
        d="M164.805 435.583C166.399 435.583 168.125 435.185 169.321 434.521C170.649 433.724 171.445 432.662 171.445 431.466C171.445 430.271 170.649 429.209 169.321 428.412C166.797 426.951 162.813 426.951 160.29 428.412C158.962 429.209 158.165 430.271 158.165 431.466C158.165 432.662 158.829 433.724 160.29 434.521C161.485 435.185 163.079 435.583 164.805 435.583ZM164.805 428.545C166.266 428.545 167.594 428.81 168.657 429.474C169.586 430.006 170.117 430.67 170.117 431.334C170.117 431.998 169.586 432.662 168.657 433.193C166.532 434.388 163.079 434.388 160.954 433.193C160.025 432.662 159.493 431.998 159.493 431.334C159.493 430.67 160.025 430.006 160.954 429.474C162.017 428.943 163.345 428.545 164.805 428.545Z"
        fill="#259789" />
    <path
        d="M145.552 428.147C148.075 428.147 150.598 427.616 152.457 426.554C154.449 425.359 155.512 423.898 155.512 422.171C155.512 420.445 154.449 418.984 152.457 417.789C148.606 415.531 142.497 415.531 138.646 417.789C136.654 418.984 135.592 420.445 135.592 422.171C135.592 423.898 136.654 425.359 138.646 426.554C140.638 427.616 143.029 428.147 145.552 428.147ZM145.685 417.39C147.942 417.39 150.2 417.922 151.926 418.851C153.52 419.781 154.317 420.843 154.317 422.038C154.317 423.234 153.52 424.429 151.926 425.226C148.473 427.218 142.896 427.218 139.443 425.226C137.849 424.296 137.053 423.234 137.053 422.038C137.053 420.843 137.849 419.648 139.443 418.851C141.169 417.922 143.427 417.39 145.685 417.39Z"
        fill="#259789" />
    <path
        d="M145.551 425.225C146.746 425.225 147.809 424.959 148.738 424.428C149.668 423.897 150.332 423.1 150.332 422.171C150.332 421.241 149.801 420.444 148.871 419.913C147.145 418.851 144.223 418.851 142.497 419.913C141.567 420.444 140.903 421.241 140.903 422.171C140.903 423.1 141.434 423.897 142.364 424.428C143.294 424.959 144.489 425.225 145.551 425.225ZM145.684 420.444C146.614 420.444 147.543 420.577 148.207 420.975C148.738 421.241 149.004 421.639 149.004 422.038C149.004 422.436 148.738 422.835 148.074 423.1C146.746 423.897 144.356 423.897 143.028 423.1C142.497 422.835 142.231 422.436 142.231 422.038C142.231 421.639 142.497 421.241 143.161 420.975C143.825 420.71 144.754 420.444 145.684 420.444Z"
        fill="#259789" />
    <path
        d="M353.782 552.713C355.375 552.713 357.102 552.315 358.297 551.651C359.625 550.854 360.422 549.792 360.422 548.596C360.422 547.401 359.625 546.339 358.297 545.542C355.774 544.081 351.79 544.081 349.267 545.542C347.939 546.339 347.142 547.401 347.142 548.596C347.142 549.792 347.806 550.854 349.267 551.651C350.462 552.447 352.055 552.713 353.782 552.713ZM353.782 545.808C355.243 545.808 356.571 546.073 357.633 546.737C358.563 547.268 359.094 547.932 359.094 548.596C359.094 549.26 358.563 549.924 357.633 550.456C355.508 551.651 352.055 551.651 349.931 550.456C349.001 549.924 348.47 549.26 348.47 548.596C348.47 547.932 349.001 547.268 349.931 546.737C350.993 546.206 352.321 545.808 353.782 545.808Z"
        fill="#259789" />
    <path
        d="M375.294 541.292C376.887 541.292 378.614 540.894 379.809 540.23C381.137 539.433 381.934 538.371 381.934 537.175C381.934 535.98 381.137 534.918 379.809 534.121C377.286 532.66 373.302 532.66 370.778 534.121C369.45 534.918 368.654 535.98 368.654 537.175C368.654 538.371 369.318 539.433 370.778 540.23C371.974 540.894 373.567 541.292 375.294 541.292ZM375.294 534.254C376.754 534.254 378.082 534.519 379.145 535.183C380.074 535.715 380.606 536.379 380.606 537.043C380.606 537.707 380.074 538.371 379.145 538.902C377.02 540.097 373.567 540.097 371.442 538.902C370.513 538.371 369.982 537.707 369.982 537.043C369.982 536.379 370.513 535.715 371.442 535.183C372.505 534.652 373.833 534.254 375.294 534.254Z"
        fill="#259789" />
    <path
        d="M341.033 230.142C345.282 230.142 349.399 229.212 352.719 227.353C355.906 225.494 357.766 222.97 357.766 220.182C357.766 217.526 356.039 215.002 352.852 213.143C346.478 209.425 335.986 209.425 329.612 213.143C326.425 215.002 324.566 217.526 324.566 220.314C324.566 222.97 326.292 225.494 329.479 227.353C332.666 229.212 336.916 230.142 341.033 230.142ZM341.166 211.682C345.15 211.682 349.134 212.612 352.055 214.338C354.844 215.932 356.438 218.057 356.438 220.314C356.438 222.572 354.844 224.697 352.055 226.29C345.946 229.743 336.119 229.743 330.143 226.29C327.354 224.697 325.894 222.572 325.894 220.314C325.894 218.057 327.487 215.932 330.276 214.338C333.198 212.479 337.182 211.682 341.166 211.682Z"
        fill="url(#paint3_linear_216_5250)" />
    <path
        d="M421.907 275.161C424.298 275.161 426.821 274.63 428.68 273.567C430.672 272.505 431.734 270.911 431.734 269.318C431.734 267.724 430.672 266.131 428.813 265.068C425.094 262.943 419.118 262.943 415.4 265.068C413.408 266.131 412.346 267.724 412.346 269.318C412.346 270.911 413.408 272.505 415.267 273.567C417.126 274.63 419.517 275.161 421.907 275.161ZM422.04 264.67C424.298 264.67 426.422 265.201 428.149 266.131C429.61 266.927 430.406 268.123 430.406 269.185C430.406 270.38 429.61 271.443 428.016 272.372C424.696 274.364 419.251 274.364 415.931 272.372C414.47 271.575 413.674 270.38 413.674 269.318C413.674 268.123 414.47 267.06 416.064 266.131C417.658 265.201 419.782 264.67 422.04 264.67Z"
        fill="#259789" />
    <path
        d="M515.798 300.925C517.657 300.925 519.383 300.527 520.844 299.73C522.305 298.933 523.102 297.738 523.102 296.41C523.102 295.082 522.305 294.019 520.844 293.09C518.055 291.496 513.673 291.496 510.884 293.09C509.423 293.887 508.626 295.082 508.626 296.41C508.626 297.738 509.423 298.8 510.884 299.73C512.212 300.527 513.938 300.925 515.798 300.925ZM515.798 293.355C517.391 293.355 518.985 293.754 520.18 294.418C521.242 294.949 521.774 295.746 521.774 296.543C521.774 297.339 521.242 298.136 520.18 298.667C517.79 299.995 513.938 299.995 511.548 298.667C510.486 298.136 509.954 297.339 509.954 296.543C509.954 295.746 510.486 294.949 511.548 294.418C512.743 293.621 514.337 293.355 515.798 293.355Z"
        fill="#259789" />
    <path
        d="M501.454 290.699C502.383 290.699 503.446 290.433 504.11 290.035C504.906 289.504 505.438 288.84 505.438 288.043C505.438 287.246 505.039 286.582 504.11 286.051C502.649 285.121 500.258 285.121 498.798 286.051C498.001 286.582 497.47 287.246 497.47 288.043C497.47 288.84 498.001 289.504 498.798 290.035C499.462 290.433 500.524 290.699 501.454 290.699ZM501.454 286.848C502.25 286.848 502.914 286.98 503.446 287.379C503.844 287.644 504.11 287.91 504.11 288.176C504.11 288.441 503.844 288.707 503.446 288.972C502.383 289.636 500.524 289.636 499.462 288.972C499.063 288.707 498.798 288.441 498.798 288.176C498.798 287.91 499.063 287.644 499.462 287.379C499.993 286.98 500.79 286.848 501.454 286.848Z"
        fill="#259789" />
    <path
        d="M491.758 284.723C492.688 284.723 493.75 284.458 494.414 284.059C495.211 283.528 495.742 282.864 495.742 282.067C495.742 281.27 495.344 280.606 494.414 280.075C492.953 279.146 490.563 279.146 489.102 280.075C488.305 280.606 487.774 281.27 487.774 282.067C487.774 282.864 488.173 283.528 489.102 284.059C489.899 284.458 490.829 284.723 491.758 284.723ZM491.758 280.872C492.555 280.872 493.219 281.005 493.75 281.403C494.149 281.669 494.414 281.934 494.414 282.2C494.414 282.466 494.149 282.731 493.75 282.997C492.688 283.661 490.829 283.661 489.766 282.997C489.368 282.731 489.102 282.466 489.102 282.2C489.102 281.934 489.368 281.669 489.766 281.403C490.297 281.005 491.094 280.872 491.758 280.872Z"
        fill="#259789" />
    <path d="M404.11 432.396V459.753L415.93 466.526V439.169L404.11 432.396Z" fill="#259789" />
    <path d="M404.111 432.397L415.93 439.17L421.906 435.85L410.087 428.944L404.111 432.397Z" fill="#259789" />
    <path d="M409.556 415V418.586L421.906 425.491V422.171L409.556 415Z" fill="#76AD7E" />
    <path d="M409.556 408.228V411.813L421.906 418.719V415.266L409.556 408.228Z" fill="#76AD7E" />
    <path d="M409.556 401.322V404.908L421.906 411.946V408.493L409.556 401.322Z" fill="#76AD7E" />
    <path d="M409.556 394.549V398.134L421.906 405.04V401.587L409.556 394.549Z" fill="#76AD7E" />
    <path d="M409.556 387.644V391.229L421.906 398.268V394.815L409.556 387.644Z" fill="#76AD7E" />
    <path
        d="M409.556 415L421.907 422.038V425.491L409.556 418.585V415ZM409.556 411.813V408.227L421.907 415.265V418.718L409.556 411.813ZM409.556 404.907V401.321L421.907 408.493V411.945L409.556 404.907ZM409.556 398.134V394.549L421.907 401.587V405.04L409.556 398.134ZM409.556 391.229V387.643L421.907 394.814V398.267L409.556 391.229ZM409.556 384.456V380.87L421.907 387.909V391.361L409.556 384.456ZM404.112 459.753V487.11L410.088 490.563V470.112L421.907 476.885V497.336L427.883 500.789V384.589L404.244 370.91V432.397L410.22 428.944L422.04 435.717V463.073L416.064 466.526L404.112 459.753Z"
        fill="#259789" />
    <path d="M409.556 380.87V384.456L421.906 391.361V388.041L409.556 380.87Z" fill="#76AD7E" />
    <path d="M410.087 490.431L421.906 497.336V476.752L410.087 469.979V490.431Z" fill="#76AD7E" />
    <path d="M415.93 439.17V466.526L421.906 463.206V435.85L415.93 439.17Z" fill="#259789" />
    <path
        d="M427.749 384.589V500.657L581.664 411.946V295.746L427.749 384.589ZM433.725 490.431V387.909L575.688 305.972V408.493L433.725 490.431Z"
        fill="#76AD7E" />
    <path d="M433.724 388.042V490.431L575.688 408.493V305.972L433.724 388.042Z" fill="#008EA2" />
    <path d="M564.27 330.406L565.863 329.609V380.87L564.27 381.667V330.406Z" fill="#036F77" />
    <path d="M560.418 332.664L561.879 331.867V383.128L560.418 383.925V332.664Z" fill="#036F77" />
    <path d="M556.434 334.922L557.895 333.992V385.253L556.434 386.183V334.922Z" fill="#036F77" />
    <path d="M552.453 337.179L553.914 336.249V387.51L552.453 388.307V337.179Z" fill="#036F77" />
    <path d="M548.469 339.304L550.062 338.507V389.768L548.469 390.564V339.304Z" fill="#036F77" />
    <path d="M544.617 341.561L546.078 340.765V391.893L544.617 392.822V341.561Z" fill="#036F77" />
    <path d="M540.633 343.819L542.094 342.89V394.15L540.633 395.08V343.819Z" fill="#036F77" />
    <path d="M536.649 346.076L538.109 345.146V396.407L536.649 397.204V346.076Z" fill="#036F77" />
    <path d="M532.664 348.201L534.258 347.404V398.665L532.664 399.462V348.201Z" fill="#036F77" />
    <path d="M528.813 350.459L530.273 349.662V400.923L528.813 401.72V350.459Z" fill="#036F77" />
    <path d="M524.828 352.717L526.289 351.787V403.048L524.828 403.978V352.717Z" fill="#036F77" />
    <path
        d="M451.52 343.554L558.026 282.067L569.845 288.973L581.664 295.746L427.749 384.589L404.11 370.911L451.52 343.554Z"
        fill="#96D99D" />
    <path d="M418.055 435.186L421.906 437.443V430.803L418.055 428.546V435.186Z" fill="#173D7A" />
    <path d="M418.055 448.333L421.906 450.591V443.951L418.055 441.693V448.333Z" fill="#D4ECFF" data-tochange />
    <path d="M93.7583 169.453V278.748L141.035 306.104V196.81L93.7583 169.453Z" fill="#259789" />
    <path d="M93.7567 169.453L141.033 196.81L164.672 183.131L117.395 155.774L93.7567 169.453Z" fill="#96D99D" />
    <path d="M101.862 234.79V240.766L132.938 258.694V252.718L101.862 234.79Z" fill="#76AD7E" />
    <path d="M101.862 222.839V228.815L132.938 246.743V240.767L101.862 222.839Z" fill="#76AD7E" />
    <path d="M103.854 250.062V269.584L130.945 285.254V265.733L103.854 250.062Z" fill="#036F77" />
    <path
        d="M117.398 155.774L164.675 183.131L176.494 176.226L164.675 169.453L170.651 166L182.47 172.773L188.446 169.453L176.627 162.547L182.47 159.227L194.289 166L200.265 162.547L188.446 155.774L194.289 152.322L206.108 159.227L212.084 155.774L200.265 148.869L206.108 145.549L217.927 152.322L223.903 148.869L212.084 142.096L218.06 138.643L229.879 145.549L235.723 142.096L188.446 114.739L117.398 155.774Z"
        fill="#259789" />
    <path d="M101.864 210.887V216.863L107.043 219.784V213.808L101.864 210.887Z" fill="#036F77" />
    <path d="M101.864 198.935V204.911L107.043 207.832V201.856L101.864 198.935Z" fill="#036F77" />
    <path d="M101.864 186.85V192.826L107.043 195.88V189.904L101.864 186.85Z" fill="#036F77" />
    <path d="M110.493 215.8V221.776L115.672 224.83V218.854L110.493 215.8Z" fill="#036F77" />
    <path d="M110.493 203.848V209.824L115.672 212.878V206.902L110.493 203.848Z" fill="#036F77" />
    <path d="M110.493 191.896V197.872L115.672 200.927V194.951L110.493 191.896Z" fill="#036F77" />
    <path d="M119.125 220.847V226.823L124.305 229.744V223.768L119.125 220.847Z" fill="#036F77" />
    <path d="M119.125 208.895V214.871L124.305 217.792V211.816L119.125 208.895Z" fill="#036F77" />
    <path d="M119.125 196.942V202.918L124.305 205.84V199.864L119.125 196.942Z" fill="#036F77" />
    <path d="M127.758 225.76V231.736L132.938 234.79V228.814L127.758 225.76Z" fill="#036F77" />
    <path d="M127.758 213.808V219.784L132.938 222.838V216.862L127.758 213.808Z" fill="#036F77" />
    <path d="M127.758 201.856V207.832L132.938 210.887V204.911L127.758 201.856Z" fill="#036F77" />
    <path
        d="M130.946 265.733V285.254L103.722 269.584V250.195L130.946 265.733ZM132.938 288.574V264.67L101.862 246.742V270.646L132.938 288.574Z"
        fill="#76AD7E" />
    <path d="M164.674 169.453L176.493 176.226L182.469 172.773L170.65 166L164.674 169.453Z" fill="#96D99D" />
    <path d="M176.627 162.548L188.446 169.453L194.289 166L182.47 159.228L176.627 162.548Z" fill="#96D99D" />
    <path d="M188.447 155.774L200.266 162.547L206.109 159.227L194.29 152.321L188.447 155.774Z" fill="#96D99D" />
    <path d="M200.267 148.869L212.086 155.774L217.93 152.322L206.11 145.549L200.267 148.869Z" fill="#96D99D" />
    <path d="M212.084 142.096L223.903 148.869L229.879 145.549L218.06 138.644L212.084 142.096Z" fill="#96D99D" />
    <path d="M141.036 196.809V306.104L164.675 292.425L235.723 251.39V142.096L141.036 196.809Z" fill="#76AD7E" />
    <path d="M124.168 237.181V240.368L126.824 241.961V238.774L124.168 237.181Z" fill="#D4ECFF" />
    <path d="M128.684 239.837V243.024L131.473 244.618V241.431L128.684 239.837Z" fill="#D4ECFF" data-tochange />
    <path d="M183.93 267.592L182.469 268.521V217.261L183.93 216.464V267.592Z" fill="#036F77" />
    <path d="M187.914 265.467L186.453 266.264V215.003L187.914 214.206V265.467Z" fill="#036F77" />
    <path d="M191.898 263.209L190.438 264.006V212.878L191.898 211.948V263.209Z" fill="#036F77" />
    <path d="M195.883 260.951L194.289 261.881V210.62L195.883 209.69V260.951Z" fill="#036F77" />
    <path d="M199.734 258.694L198.274 259.624V208.363L199.734 207.566V258.694Z" fill="#036F77" />
    <path d="M203.719 256.569L202.258 257.366V206.105L203.719 205.309V256.569Z" fill="#036F77" />
    <path d="M207.703 254.312L206.242 255.108V203.98L207.703 203.051V254.312Z" fill="#036F77" />
    <path d="M211.684 252.054L210.09 252.983V201.723L211.684 200.793V252.054Z" fill="#036F77" />
    <path d="M215.535 249.797L214.074 250.727V199.466L215.535 198.669V249.797Z" fill="#036F77" />
    <path d="M219.52 247.672L218.059 248.469V197.208L219.52 196.411V247.672Z" fill="#036F77" />
    <path d="M223.504 245.414L222.043 246.211V195.083L223.504 194.153V245.414Z" fill="#036F77" />
    <path
        d="M235.453 488.571L214.869 500.523C215.135 500.39 215.666 500.39 216.197 500.655L236.781 488.703C236.25 488.438 235.719 488.438 235.453 488.571Z"
        fill="#268287" />
    <path d="M251.389 521.106L271.973 509.154L236.781 488.703L216.197 500.788L251.389 521.106Z" fill="#96D99D" />
    <path
        d="M252.717 525.356L273.301 513.404C273.566 513.271 273.832 512.873 273.832 512.209C273.832 511.014 273.035 509.685 271.973 509.021L251.389 520.973C252.451 521.505 253.248 522.966 253.248 524.161C253.248 524.825 252.982 525.223 252.717 525.356Z"
        fill="#268287" />
    <path
        d="M216.199 500.788C215.136 500.257 214.34 500.656 214.34 501.851C214.34 503.046 215.136 504.374 216.199 505.038L251.391 525.356C252.453 525.888 253.25 525.489 253.25 524.294C253.25 523.099 252.453 521.771 251.391 521.107L216.199 500.788Z"
        fill="#259789" />
    <path d="M234.791 487.509L231.471 500.39L252.586 512.608L249.266 495.875L234.791 487.509Z" fill="#259789" />
    <path d="M252.586 512.607L258.43 509.155L255.242 492.555L249.266 495.875L252.586 512.607Z" fill="#268287" />
    <path d="M249.266 495.875L255.242 492.555L240.634 484.188L234.791 487.508L249.266 495.875Z" fill="#113A52" />
    <path
        d="M295.083 520.31L300.926 516.857C301.988 516.193 302.652 514.865 302.652 513.006L296.809 516.459C296.809 518.451 296.145 519.779 295.083 520.31Z"
        fill="#76AD7E" />
    <path d="M296.809 507.163L302.785 503.71L193.225 440.497L187.382 443.95L296.809 507.163Z" fill="#113A52" />
    <path d="M296.809 516.592L302.652 513.139L302.785 503.71L296.809 507.163V516.592Z" fill="#76AD7E" />
    <path
        d="M187.381 443.95V453.379C187.381 457.097 190.037 461.745 193.225 463.605L234.791 487.641L249.266 496.008L290.833 519.912C294.153 521.771 296.809 520.31 296.809 516.592V507.163L187.381 443.95Z"
        fill="#259789" />
    <path
        d="M195.086 356.037L189.243 359.489C190.306 358.825 191.766 358.958 193.493 359.888L199.336 356.435C197.742 355.505 196.282 355.505 195.086 356.037Z"
        fill="#96D99D" />
    <path d="M296.809 507.163L302.785 503.71L302.918 423.101L296.942 426.553L296.809 507.163Z" fill="#76AD7E" />
    <path d="M291.098 416.328L296.941 412.876L199.333 356.568L193.49 359.888L291.098 416.328Z" fill="#96D99D" />
    <path
        d="M296.942 426.553L302.785 423.101C302.785 419.382 300.129 414.734 296.942 412.875L291.099 416.328C294.419 418.187 296.942 422.702 296.942 426.553Z"
        fill="#96D99D" />
    <path
        d="M193.49 359.888C190.17 358.028 187.514 359.489 187.514 363.34L187.381 443.95L296.809 507.163L296.941 426.553C296.941 422.835 294.285 418.187 291.098 416.328L193.49 359.888Z"
        fill="#03515E" />
    <path d="M193.755 366.927L290.699 422.968L290.566 495.876L193.622 439.834L193.755 366.927Z" fill="#D4ECFF" />
    <path d="M259.098 425.358L258.965 449.528L237.982 437.443L238.115 413.273L259.098 425.358Z" fill="#D4ECFF" />
    <path d="M279.148 446.075V447.005L263.876 438.24V437.178L279.148 446.075Z" fill="#D4ECFF" />
    <path d="M279.148 443.021V443.95L263.876 435.185V434.256L279.148 443.021Z" fill="#D4ECFF" />
    <path d="M279.148 439.967V440.897L263.876 432.132V431.202L279.148 439.967Z" fill="#D4ECFF" />
    <path d="M279.148 436.912V437.975L263.876 429.077V428.147L279.148 436.912Z" fill="#D4ECFF" />
    <path d="M279.148 452.051V453.113L263.876 444.216V443.286L279.148 452.051Z" fill="#D4ECFF" />
    <path d="M279.148 448.997V450.06L263.876 441.162V440.232L279.148 448.997Z" fill="#D4ECFF" />
    <path d="M275.297 452.848V453.778L263.876 447.27V446.341L275.297 452.848Z" fill="#D4ECFF" />
    <g data-tochange style="transition: 0.2s">
        <path
            d="M241.035 405.173C241.434 405.438 241.699 405.97 241.699 406.368C241.699 406.766 241.434 407.032 241.035 406.766C240.637 406.501 240.238 405.97 240.371 405.571C240.238 405.04 240.637 404.907 241.035 405.173Z"
            fill="#D4ECFF" />
        <path
            d="M234.395 399.994C233.599 399.595 232.935 399.861 232.935 400.791V407.431C232.935 406.634 233.466 406.235 234.263 406.634L282.735 434.522C283.399 434.92 284.062 435.85 284.062 436.779V430.139C284.062 429.21 283.399 428.147 282.735 427.749L234.395 399.994ZM238.114 405.173C237.715 404.907 237.317 404.376 237.45 403.978C237.45 403.447 237.715 403.314 238.247 403.579C238.645 403.845 238.911 404.376 238.911 404.775C238.778 405.173 238.512 405.306 238.114 405.173ZM241.035 406.767C240.637 406.501 240.239 405.97 240.371 405.571C240.371 405.04 240.637 404.907 241.168 405.173C241.567 405.439 241.832 405.97 241.832 406.368C241.699 406.899 241.434 407.032 241.035 406.767ZM235.192 403.447C234.794 403.181 234.528 402.65 234.528 402.251C234.528 401.72 234.794 401.587 235.192 401.853C235.591 402.119 235.856 402.65 235.856 403.048C235.856 403.447 235.591 403.579 235.192 403.447Z"
            fill="#D4ECFF" />
        <path
            d="M234.263 406.633C233.599 406.235 232.935 406.501 232.935 407.43L232.802 439.037C232.802 439.833 233.333 440.896 234.13 441.294L282.602 469.182C283.266 469.581 283.93 469.315 283.93 468.385L284.062 436.779C284.062 435.982 283.531 434.92 282.735 434.521L234.263 406.633ZM258.963 449.528L237.981 437.443L238.114 413.273L259.096 425.358L258.963 449.528ZM279.149 450.059L263.877 441.294V440.365L279.149 449.129V450.059ZM279.149 440.896L263.877 432.131V431.201L279.149 439.966V440.896ZM279.149 443.95L263.877 435.185V434.256L279.149 443.021V443.95ZM279.149 437.974L263.877 429.209V428.28L279.149 437.045V437.974ZM279.149 453.113L263.877 444.349V443.419L279.149 452.184V453.113ZM279.149 447.005L263.877 438.24V437.31L279.149 446.075V447.005ZM275.298 453.777L263.877 447.27V446.341L275.298 452.848V453.777Z"
            fill="#5793CE" />
        <path
            d="M235.191 401.72C235.59 401.986 235.855 402.517 235.855 402.915C235.855 403.314 235.59 403.579 235.191 403.314C234.793 403.048 234.527 402.517 234.527 402.119C234.395 401.72 234.793 401.455 235.191 401.72Z"
            fill="#173D7A" />
        <path
            d="M238.113 403.447C238.512 403.712 238.777 404.244 238.777 404.642C238.777 405.04 238.512 405.306 238.113 405.04C237.715 404.775 237.317 404.244 237.449 403.845C237.317 403.447 237.715 403.181 238.113 403.447Z"
            fill="#96D99D" />
        <path d="M223.297 420.544L223.164 444.713L202.182 432.629L202.314 408.459L223.297 420.544Z" fill="#D4ECFF" />
    </g>
    <g data-tochange style="transition: 0.2s">
        <path d="M243.348 441.261V442.19L228.076 433.426V432.363L243.348 441.261Z" fill="#D4ECFF" />
        <path d="M243.348 438.206V439.136L228.076 430.371V429.441L243.348 438.206Z" fill="#D4ECFF" />
        <path d="M243.348 435.152V436.082L228.076 427.317V426.388L243.348 435.152Z" fill="#D4ECFF" />
        <path d="M243.348 432.098V433.16L228.076 424.263V423.333L243.348 432.098Z" fill="#D4ECFF" />
        <path d="M243.348 447.236V448.299L228.076 439.401V438.472L243.348 447.236Z" fill="#D4ECFF" />
        <path d="M243.348 444.183V445.245L228.076 436.348V435.418L243.348 444.183Z" fill="#D4ECFF" />
        <path d="M239.496 448.034V448.963L228.075 442.456V441.526L239.496 448.034Z" fill="#D4ECFF" />
        <path
            d="M205.234 400.358C205.633 400.624 205.898 401.155 205.898 401.554C205.898 401.952 205.633 402.218 205.234 401.952C204.836 401.686 204.438 401.155 204.57 400.757C204.438 400.226 204.836 400.093 205.234 400.358Z"
            fill="#D4ECFF" />
        <path
            d="M198.595 395.179C197.798 394.781 197.134 395.046 197.134 395.976V402.616C197.134 401.819 197.665 401.421 198.462 401.819L246.934 429.707C247.598 430.106 248.262 431.035 248.262 431.965V425.325C248.262 424.395 247.598 423.333 246.934 422.934L198.595 395.179ZM202.313 400.358C201.915 400.093 201.516 399.562 201.649 399.163C201.649 398.632 201.915 398.499 202.446 398.765C202.844 399.03 203.11 399.562 203.11 399.96C202.977 400.358 202.711 400.491 202.313 400.358ZM205.235 401.952C204.836 401.686 204.438 401.155 204.571 400.757C204.571 400.226 204.836 400.093 205.367 400.358C205.766 400.624 206.031 401.155 206.031 401.554C205.899 402.085 205.633 402.218 205.235 401.952ZM199.391 398.632C198.993 398.366 198.727 397.835 198.727 397.437C198.727 396.906 198.993 396.773 199.391 397.038C199.79 397.304 200.055 397.835 200.055 398.234C200.055 398.632 199.79 398.765 199.391 398.632Z"
            fill="#D4ECFF" />
        <path
            d="M198.462 401.819C197.798 401.421 197.134 401.686 197.134 402.616L197.001 434.222C197.001 435.019 197.532 436.081 198.329 436.48L246.801 464.368C247.465 464.766 248.129 464.501 248.129 463.571L248.262 431.965C248.262 431.168 247.731 430.105 246.934 429.707L198.462 401.819ZM223.163 444.713L202.18 432.629L202.313 408.459L223.295 420.544L223.163 444.713ZM243.348 445.245L228.076 436.48V435.55L243.348 444.315V445.245ZM243.348 436.081L228.076 427.317V426.387L243.348 435.152V436.081ZM243.348 439.136L228.076 430.371V429.441L243.348 438.206V439.136ZM243.348 433.16L228.076 424.395V423.465L243.348 432.23V433.16ZM243.348 448.299L228.076 439.534V438.605L243.348 447.369V448.299ZM243.348 442.19L228.076 433.425V432.496L243.348 441.261V442.19ZM239.497 448.963L228.076 442.456V441.526L239.497 448.033V448.963Z"
            fill="#5793CE" />
        <path
            d="M199.391 396.906C199.789 397.171 200.055 397.703 200.055 398.101C200.055 398.499 199.789 398.765 199.391 398.499C198.992 398.234 198.727 397.703 198.727 397.304C198.594 396.906 198.992 396.64 199.391 396.906Z"
            fill="#173D7A" />
        <path
            d="M202.313 398.632C202.711 398.898 202.977 399.429 202.977 399.828C202.977 400.226 202.711 400.492 202.313 400.226C201.914 399.96 201.516 399.429 201.649 399.031C201.516 398.632 201.914 398.367 202.313 398.632Z"
            fill="#96D99D" />
    </g>
    <path d="M262.945 539.168V542.355L227.222 563.072V560.018L262.945 539.168Z" fill="#03515E" />
    <path d="M227.223 560.017V563.072L148.074 517.388L148.207 514.334L227.223 560.017Z" fill="#03515E" />
    <path d="M262.945 539.168L227.222 560.017L148.206 514.334L183.797 493.484L262.945 539.168Z" fill="#268287" />
    <path d="M188.711 498.797V500.39L183.797 503.179V501.586L188.711 498.797Z" fill="#76AD7E" />
    <path d="M183.797 501.586V503.179L178.883 500.39V498.797L183.797 501.586Z" fill="#259789" />
    <path d="M188.711 498.797L183.797 501.585L178.884 498.797L183.797 496.008L188.711 498.797Z" fill="#96D99D" />
    <path d="M194.949 502.383V503.976L190.036 506.765V505.304L194.949 502.383Z" fill="#76AD7E" />
    <path d="M190.035 505.304V506.765L185.122 503.976V502.383L190.035 505.304Z" fill="#259789" />
    <path d="M194.949 502.383L190.036 505.304L185.122 502.383L190.036 499.594L194.949 502.383Z" fill="#96D99D" />
    <path d="M201.191 505.968V507.561L196.278 510.483V508.889L201.191 505.968Z" fill="#76AD7E" />
    <path d="M196.277 508.889V510.483L191.364 507.561V506.101L196.277 508.889Z" fill="#259789" />
    <path d="M201.191 505.968L196.278 508.889L191.364 506.1L196.278 503.179L201.191 505.968Z" fill="#96D99D" />
    <path d="M207.434 509.554V511.147L202.52 514.069V512.475L207.434 509.554Z" fill="#76AD7E" />
    <path d="M202.52 512.475V514.069L197.606 511.28V509.687L202.52 512.475Z" fill="#259789" />
    <path d="M207.434 509.553L202.52 512.475L197.606 509.686L202.52 506.765L207.434 509.553Z" fill="#96D99D" />
    <path d="M213.676 513.14V514.733L208.762 517.655V516.061L213.676 513.14Z" fill="#76AD7E" />
    <path d="M208.762 516.061V517.655L203.848 514.866V513.272L208.762 516.061Z" fill="#259789" />
    <path d="M213.676 513.139L208.762 516.061L203.849 513.272L208.762 510.351L213.676 513.139Z" fill="#96D99D" />
    <path d="M219.918 516.857V518.318L215.004 521.24V519.646L219.918 516.857Z" fill="#76AD7E" />
    <path d="M215.004 519.646V521.24L210.09 518.451V516.857L215.004 519.646Z" fill="#259789" />
    <path d="M219.918 516.857L215.004 519.646L210.091 516.857L215.004 513.936L219.918 516.857Z" fill="#96D99D" />
    <path d="M226.16 520.443V522.037L221.247 524.826V523.232L226.16 520.443Z" fill="#76AD7E" />
    <path d="M221.246 523.232V524.826L216.332 522.037V520.443L221.246 523.232Z" fill="#259789" />
    <path d="M226.16 520.443L221.247 523.232L216.333 520.443L221.247 517.654L226.16 520.443Z" fill="#96D99D" />
    <path d="M232.402 524.028V525.622L227.489 528.411V526.95L232.402 524.028Z" fill="#76AD7E" />
    <path d="M227.488 526.95V528.411L222.575 525.622V524.028L227.488 526.95Z" fill="#259789" />
    <path d="M232.402 524.028L227.489 526.95L222.575 524.028L227.489 521.239L232.402 524.028Z" fill="#96D99D" />
    <path d="M238.645 527.614V529.208L233.731 532.129V530.536L238.645 527.614Z" fill="#76AD7E" />
    <path d="M233.73 530.536V532.129L228.817 529.208V527.747L233.73 530.536Z" fill="#259789" />
    <path d="M238.645 527.614L233.731 530.536L228.817 527.747L233.731 524.825L238.645 527.614Z" fill="#96D99D" />
    <path d="M244.883 531.2V532.794L239.969 535.715V534.122L244.883 531.2Z" fill="#76AD7E" />
    <path d="M239.969 534.122V535.715L235.055 532.927V531.333L239.969 534.122Z" fill="#259789" />
    <path d="M244.883 531.2L239.969 534.122L235.056 531.333L239.969 528.411L244.883 531.2Z" fill="#96D99D" />
    <path d="M257.367 538.504V539.965L252.454 542.886V541.293L257.367 538.504Z" fill="#76AD7E" />
    <path d="M252.453 541.293V542.887L241.298 536.513V534.919L252.453 541.293Z" fill="#259789" />
    <path d="M257.367 538.504L252.454 541.293L241.298 534.919L246.212 531.997L257.367 538.504Z" fill="#96D99D" />
    <path d="M188.578 506.101V507.561L183.665 510.483V508.889L188.578 506.101Z" fill="#76AD7E" />
    <path d="M183.664 508.89V510.484L172.509 504.109V502.516L183.664 508.89Z" fill="#259789" />
    <path d="M188.578 506.101L183.665 508.89L172.509 502.515L177.556 499.594L188.578 506.101Z" fill="#96D99D" />
    <path d="M194.949 509.687L194.816 511.28L189.903 514.069V512.475L194.949 509.687Z" fill="#76AD7E" />
    <path d="M189.902 512.475V514.069L185.122 511.28V509.687L189.902 512.475Z" fill="#259789" />
    <path d="M194.949 509.686L189.903 512.475L185.122 509.686L190.036 506.897L194.949 509.686Z" fill="#96D99D" />
    <path d="M201.191 513.272L201.059 514.866L196.145 517.655V516.061L201.191 513.272Z" fill="#76AD7E" />
    <path d="M196.145 516.061V517.655L191.364 514.866V513.272L196.145 516.061Z" fill="#259789" />
    <path d="M201.191 513.272L196.145 516.061L191.364 513.272L196.278 510.483L201.191 513.272Z" fill="#96D99D" />
    <path d="M207.434 516.857V518.451L202.387 521.373V519.779L207.434 516.857Z" fill="#76AD7E" />
    <path d="M202.387 519.779V521.373L197.606 518.451V516.857L202.387 519.779Z" fill="#259789" />
    <path d="M207.434 516.857L202.387 519.779L197.606 516.857L202.52 514.068L207.434 516.857Z" fill="#96D99D" />
    <path d="M213.676 520.443V522.037L208.629 524.959V523.365L213.676 520.443Z" fill="#76AD7E" />
    <path d="M208.629 523.365V524.959L203.848 522.037V520.576L208.629 523.365Z" fill="#259789" />
    <path d="M213.676 520.443L208.629 523.365L203.849 520.576L208.762 517.654L213.676 520.443Z" fill="#96D99D" />
    <path d="M219.918 524.028V525.622L214.872 528.544V526.95L219.918 524.028Z" fill="#76AD7E" />
    <path d="M214.871 526.95V528.544L210.09 525.755V524.161L214.871 526.95Z" fill="#259789" />
    <path d="M219.918 524.028L214.872 526.95L210.091 524.161L215.004 521.239L219.918 524.028Z" fill="#96D99D" />
    <path d="M226.16 527.747V529.208L221.114 532.129L221.247 530.536L226.16 527.747Z" fill="#76AD7E" />
    <path d="M221.246 530.536L221.113 532.129L216.332 529.341V527.747L221.246 530.536Z" fill="#259789" />
    <path d="M226.16 527.747L221.247 530.536L216.333 527.747L221.247 524.825L226.16 527.747Z" fill="#96D99D" />
    <path d="M232.402 531.333V532.927L227.356 535.715L227.489 534.122L232.402 531.333Z" fill="#76AD7E" />
    <path d="M227.488 534.122L227.356 535.715L222.575 532.927V531.333L227.488 534.122Z" fill="#259789" />
    <path d="M232.402 531.333L227.489 534.122L222.575 531.333L227.489 528.411L232.402 531.333Z" fill="#96D99D" />
    <path d="M238.645 534.918V536.512L233.598 539.3L233.731 537.707L238.645 534.918Z" fill="#76AD7E" />
    <path d="M233.73 537.707L233.598 539.3L228.817 536.512V534.918L233.73 537.707Z" fill="#259789" />
    <path d="M238.645 534.918L233.731 537.706L228.817 534.918L233.731 532.129L238.645 534.918Z" fill="#96D99D" />
    <path d="M244.883 538.504V540.098L239.969 542.886V541.426L244.883 538.504Z" fill="#76AD7E" />
    <path d="M239.969 541.426V542.886L235.055 540.098V538.504L239.969 541.426Z" fill="#259789" />
    <path d="M244.883 538.504L239.969 541.425L235.056 538.504L239.969 535.715L244.883 538.504Z" fill="#96D99D" />
    <path d="M251.125 542.09V543.683L246.211 546.605V545.011L251.125 542.09Z" fill="#76AD7E" />
    <path d="M246.211 545.011V546.605L241.297 543.683V542.223L246.211 545.011Z" fill="#259789" />
    <path d="M251.125 542.09L246.211 545.011L241.298 542.222L246.211 539.301L251.125 542.09Z" fill="#96D99D" />
    <path d="M182.336 509.686V511.279L177.422 514.201V512.607L182.336 509.686Z" fill="#76AD7E" />
    <path d="M177.422 512.608V514.201L166.267 507.694V506.101L177.422 512.608Z" fill="#259789" />
    <path d="M182.336 509.686L177.422 512.608L166.267 506.1L171.181 503.312L182.336 509.686Z" fill="#96D99D" />
    <path d="M188.578 513.272V514.866L183.665 517.788V516.194L188.578 513.272Z" fill="#76AD7E" />
    <path d="M183.664 516.194V517.788L178.75 514.999V513.405L183.664 516.194Z" fill="#259789" />
    <path d="M188.578 513.272L183.665 516.194L178.751 513.405L183.665 510.483L188.578 513.272Z" fill="#96D99D" />
    <path d="M194.82 516.857V518.451L189.907 521.373V519.779L194.82 516.857Z" fill="#76AD7E" />
    <path d="M189.906 519.779V521.373L184.993 518.584V516.99L189.906 519.779Z" fill="#259789" />
    <path d="M194.82 516.857L189.907 519.779L184.993 516.99L189.907 514.068L194.82 516.857Z" fill="#96D99D" />
    <path d="M201.059 520.576V522.037L196.145 524.959V523.365L201.059 520.576Z" fill="#76AD7E" />
    <path d="M196.145 523.365V524.959L191.231 522.17V520.576L196.145 523.365Z" fill="#259789" />
    <path d="M201.059 520.576L196.145 523.365L191.231 520.576L196.145 517.654L201.059 520.576Z" fill="#96D99D" />
    <path d="M207.301 524.161V525.755L202.387 528.544V526.95L207.301 524.161Z" fill="#76AD7E" />
    <path d="M202.387 526.95V528.544L197.473 525.755V524.161L202.387 526.95Z" fill="#259789" />
    <path d="M207.301 524.161L202.387 526.95L197.474 524.161L202.387 521.372L207.301 524.161Z" fill="#96D99D" />
    <path d="M213.543 527.747V529.341L208.629 532.129V530.669L213.543 527.747Z" fill="#76AD7E" />
    <path d="M208.629 530.669V532.129L203.715 529.341V527.747L208.629 530.669Z" fill="#259789" />
    <path d="M213.543 527.747L208.629 530.668L203.716 527.747L208.629 524.958L213.543 527.747Z" fill="#96D99D" />
    <path d="M219.785 531.333V532.927L214.872 535.848V534.255L219.785 531.333Z" fill="#76AD7E" />
    <path d="M214.871 534.255V535.848L209.958 532.927V531.333L214.871 534.255Z" fill="#259789" />
    <path d="M219.785 531.333L214.872 534.254L209.958 531.333L214.872 528.544L219.785 531.333Z" fill="#96D99D" />
    <path d="M226.027 534.918V536.512L221.114 539.433V537.84L226.027 534.918Z" fill="#76AD7E" />
    <path d="M221.113 537.84V539.433L216.2 536.644V535.051L221.113 537.84Z" fill="#259789" />
    <path d="M226.027 534.918L221.114 537.839L216.2 535.05L221.247 532.129L226.027 534.918Z" fill="#96D99D" />
    <path d="M232.266 538.504V540.098L227.352 543.019V541.426L232.266 538.504Z" fill="#76AD7E" />
    <path d="M227.352 541.426V543.019L222.438 540.23V538.637L227.352 541.426Z" fill="#259789" />
    <path d="M232.266 538.504L227.352 541.425L222.438 538.636L227.485 535.715L232.266 538.504Z" fill="#96D99D" />
    <path d="M244.75 545.808V547.401L239.836 550.19V548.596L244.75 545.808Z" fill="#76AD7E" />
    <path d="M239.836 548.597V550.191L228.681 543.816V542.223L239.836 548.597Z" fill="#259789" />
    <path d="M244.75 545.808L239.836 548.597L228.681 542.222L233.728 539.301L244.75 545.808Z" fill="#96D99D" />
    <path d="M182.336 516.99V518.584L177.29 521.373V519.912L182.336 516.99Z" fill="#76AD7E" />
    <path d="M177.289 519.912V521.373L159.892 511.413V509.819L177.289 519.912Z" fill="#259789" />
    <path d="M182.336 516.99L177.29 519.912L159.893 509.819L164.939 506.897L182.336 516.99Z" fill="#96D99D" />
    <path d="M188.578 520.576V522.17L183.532 525.091V523.498L188.578 520.576Z" fill="#76AD7E" />
    <path d="M183.531 523.498V525.091L178.75 522.17V520.576L183.531 523.498Z" fill="#259789" />
    <path d="M188.578 520.576L183.532 523.498L178.751 520.576L183.665 517.787L188.578 520.576Z" fill="#96D99D" />
    <path d="M194.82 524.161V525.755L189.774 528.676V527.083L194.82 524.161Z" fill="#76AD7E" />
    <path d="M189.773 527.083V528.676L184.993 525.888V524.294L189.773 527.083Z" fill="#259789" />
    <path d="M194.82 524.161L189.774 527.082L184.993 524.294L189.907 521.372L194.82 524.161Z" fill="#96D99D" />
    <path d="M201.059 527.747V529.341L196.012 532.262V530.669L201.059 527.747Z" fill="#76AD7E" />
    <path d="M196.012 530.669V532.262L191.231 529.473V527.88L196.012 530.669Z" fill="#259789" />
    <path d="M201.059 527.747L196.012 530.668L191.231 527.88L196.145 524.958L201.059 527.747Z" fill="#96D99D" />
    <path d="M207.301 531.466V532.927L202.254 535.848V534.255L207.301 531.466Z" fill="#76AD7E" />
    <path d="M202.254 534.255V535.848L197.473 533.059V531.466L202.254 534.255Z" fill="#259789" />
    <path d="M207.301 531.466L202.254 534.254L197.474 531.466L202.387 528.544L207.301 531.466Z" fill="#96D99D" />
    <path d="M213.543 535.052V536.645L208.629 539.434V537.841L213.543 535.052Z" fill="#76AD7E" />
    <path d="M208.629 537.841V539.434L203.715 536.645V535.052L208.629 537.841Z" fill="#259789" />
    <path d="M213.543 535.051L208.629 537.84L203.716 535.051L208.629 532.13L213.543 535.051Z" fill="#96D99D" />
    <path d="M219.785 538.637V540.23L214.872 543.019V541.426L219.785 538.637Z" fill="#76AD7E" />
    <path d="M214.871 541.426V543.019L209.958 540.23V538.637L214.871 541.426Z" fill="#259789" />
    <path d="M219.785 538.636L214.872 541.425L209.958 538.636L214.872 535.848L219.785 538.636Z" fill="#96D99D" />
    <path d="M226.027 542.223V543.816L221.114 546.605V545.144L226.027 542.223Z" fill="#76AD7E" />
    <path d="M221.113 545.144V546.605L216.2 543.816V542.223L221.113 545.144Z" fill="#259789" />
    <path d="M226.027 542.222L221.114 545.144L216.2 542.222L221.114 539.434L226.027 542.222Z" fill="#96D99D" />
    <path d="M238.512 549.394V550.987L233.598 553.909V552.315L238.512 549.394Z" fill="#76AD7E" />
    <path d="M233.598 552.316V553.909L222.442 547.402V545.941L233.598 552.316Z" fill="#259789" />
    <path d="M238.512 549.394L233.598 552.316L222.443 545.941L227.357 543.02L238.512 549.394Z" fill="#96D99D" />
    <path d="M163.477 513.405V514.999L158.563 517.92V516.327L163.477 513.405Z" fill="#76AD7E" />
    <path d="M158.562 516.327V517.92L153.649 514.999V513.538L158.562 516.327Z" fill="#259789" />
    <path d="M163.477 513.405L158.563 516.327L153.649 513.538L158.563 510.616L163.477 513.405Z" fill="#96D99D" />
    <path d="M169.719 516.99V518.584L164.805 521.505V519.912L169.719 516.99Z" fill="#76AD7E" />
    <path d="M164.805 519.912V521.505L159.891 518.717V517.123L164.805 519.912Z" fill="#259789" />
    <path d="M169.719 516.99L164.805 519.912L159.892 517.123L164.805 514.201L169.719 516.99Z" fill="#96D99D" />
    <path d="M175.961 520.576V522.17L171.047 525.091V523.498L175.961 520.576Z" fill="#76AD7E" />
    <path d="M171.047 523.498V525.091L166.133 522.303V520.709L171.047 523.498Z" fill="#259789" />
    <path d="M175.961 520.576L171.047 523.498L166.134 520.709L171.047 517.787L175.961 520.576Z" fill="#96D99D" />
    <path d="M207.168 538.636V540.229L202.254 543.151V541.557L207.168 538.636Z" fill="#76AD7E" />
    <path d="M202.254 541.558V543.152L172.374 525.888V524.294L202.254 541.558Z" fill="#259789" />
    <path d="M207.168 538.636L202.254 541.558L172.374 524.294L177.288 521.372L207.168 538.636Z" fill="#96D99D" />
    <path d="M213.41 542.223V543.816L208.497 546.738V545.144L213.41 542.223Z" fill="#76AD7E" />
    <path d="M208.496 545.144V546.738L203.582 543.949V542.355L208.496 545.144Z" fill="#259789" />
    <path d="M213.41 542.222L208.497 545.144L203.583 542.355L208.629 539.434L213.41 542.222Z" fill="#96D99D" />
    <path d="M219.652 545.941V547.402L214.739 550.324V548.73L219.652 545.941Z" fill="#76AD7E" />
    <path d="M214.738 548.73V550.324L209.825 547.535V545.941L214.738 548.73Z" fill="#259789" />
    <path d="M219.652 545.941L214.739 548.73L209.825 545.941L214.872 543.02L219.652 545.941Z" fill="#96D99D" />
    <path d="M232.133 553.111V554.705L227.219 557.494V556.033L232.133 553.111Z" fill="#76AD7E" />
    <path d="M227.219 556.034V557.494L216.064 551.12V549.526L227.219 556.034Z" fill="#259789" />
    <path d="M232.133 553.112L227.219 556.033L216.064 549.526L221.11 546.737L232.133 553.112Z" fill="#96D99D" />
    <path
        d="M440.231 234.126L447.668 229.744C448.598 229.213 449.129 228.15 449.129 226.557L441.692 230.939C441.692 232.4 441.028 233.595 440.231 234.126Z"
        fill="#76AD7E" />
    <path
        d="M401.055 78.8832L393.618 83.2656C394.548 82.7344 395.743 82.8672 397.204 83.664L404.641 79.2816C403.313 78.4848 401.985 78.352 401.055 78.8832Z"
        fill="#96D99D" />
    <path d="M448.598 226.291L448.863 111.685L442.356 115.403L442.09 230.009L448.598 226.291Z" fill="#76AD7E" />
    <path
        d="M448.465 112.481L442.887 115.801L442.622 229.345L448.199 226.025L448.465 112.481ZM449.395 110.888L449.129 226.556L441.692 230.939L441.958 115.27L449.395 110.888Z"
        fill="#96D99D" />
    <path d="M436.911 106.505L444.348 102.256L404.64 79.2812L397.204 83.6636L436.911 106.505Z" fill="#96D99D" />
    <path
        d="M441.958 115.137L449.395 110.755C449.395 107.568 447.137 103.717 444.348 102.123L436.911 106.505C439.7 108.099 441.958 111.95 441.958 115.137Z"
        fill="#96D99D" />
    <path
        d="M397.203 83.6635C394.415 82.0699 392.157 83.3979 392.157 86.5851L391.891 202.254C391.891 205.441 394.149 209.292 396.938 210.886L436.645 233.728C439.434 235.321 441.691 233.993 441.691 230.806L441.957 115.137C441.957 111.95 439.699 108.099 436.911 106.505L397.203 83.6635Z"
        fill="#259789" />
    <path d="M394.68 97.874L439.434 123.77L439.168 214.871L394.414 188.975L394.68 97.874Z" fill="#D4ECFF" />
    <path
        d="M439.832 216.066L439.965 123.372L393.883 96.8115L393.75 189.506L439.832 216.066ZM438.77 124.168L438.637 213.676L395.211 188.576L395.344 99.0691L438.77 124.168Z"
        fill="#113A52" />
    <path
        d="M413.54 204.512C416.328 206.106 418.586 209.957 418.586 213.144C418.586 216.331 416.328 217.659 413.54 216.066C410.751 214.472 408.493 210.621 408.493 207.434C408.626 204.247 410.884 202.919 413.54 204.512Z"
        fill="#008EA2" />
    <path
        d="M416.195 97.4748C416.727 97.8732 417.258 98.67 417.258 99.334C417.258 99.998 416.727 100.264 416.195 99.998C415.531 99.5996 415.133 98.8028 415.133 98.1388C415.133 97.4748 415.664 97.2092 416.195 97.4748Z"
        fill="#008EA2" />
    <path
        d="M411.813 99.4665L420.711 104.646C421.242 104.911 421.641 105.708 421.641 106.372C421.641 107.036 421.242 107.302 420.711 106.903L411.813 101.724C411.282 101.458 410.884 100.662 410.884 99.9977C410.884 99.4665 411.282 99.2009 411.813 99.4665Z"
        fill="#036F77" />
    <path
        d="M447.004 134.925L445.809 134.261C445.543 134.128 445.277 134.128 444.879 134.394L446.074 135.058C446.473 134.792 446.871 134.792 447.004 134.925Z"
        fill="#008EA2" />
    <path
        d="M443.949 137.448L445.145 138.112C444.879 137.979 444.746 137.714 444.746 137.315C444.746 136.518 445.277 135.456 446.074 135.058L444.879 134.394C444.082 134.792 443.551 135.854 443.551 136.651C443.551 137.05 443.684 137.315 443.949 137.448Z"
        fill="#259789" />
    <path
        d="M446.074 135.058C445.278 135.456 444.746 136.518 444.746 137.315C444.746 138.112 445.41 138.51 446.074 138.112C446.738 137.714 447.402 136.651 447.402 135.854C447.402 135.058 446.871 134.659 446.074 135.058Z"
        fill="#96D99D" />
    <path
        d="M447.137 141.698L445.942 141.034C445.676 140.901 445.41 140.901 445.012 141.166L446.207 141.83C446.473 141.565 446.871 141.565 447.137 141.698Z"
        fill="#008EA2" />
    <path
        d="M443.949 144.22L445.145 144.884C444.879 144.752 444.746 144.486 444.746 144.088C444.746 143.291 445.277 142.228 446.074 141.83L444.879 141.166C444.082 141.564 443.551 142.627 443.551 143.424C443.551 143.822 443.684 144.088 443.949 144.22Z"
        fill="#259789" />
    <path
        d="M446.207 141.831C445.41 142.229 444.879 143.291 444.879 144.088C444.879 144.885 445.543 145.283 446.207 144.885C446.871 144.487 447.535 143.424 447.535 142.627C447.535 141.698 446.871 141.432 446.207 141.831Z"
        fill="#96D99D" />
    <path
        d="M444.348 130.542L445.543 131.206C445.41 131.073 445.277 130.94 445.277 130.675L444.082 130.011C444.082 130.276 444.215 130.409 444.348 130.542Z"
        fill="#008EA2" />
    <path d="M445.277 124.965L444.082 124.301V130.011L445.277 130.675V124.965Z" fill="#259789" />
    <path
        d="M446.605 123.504L445.41 122.84C445.277 122.707 445.012 122.707 444.879 122.84L446.074 123.504C446.34 123.504 446.473 123.504 446.605 123.504Z"
        fill="#008EA2" />
    <path
        d="M446.074 123.637L444.879 122.973C444.481 123.238 444.082 123.902 444.082 124.301L445.277 124.965C445.277 124.433 445.676 123.902 446.074 123.637Z"
        fill="#259789" />
    <path
        d="M446.074 123.637C445.676 123.902 445.277 124.566 445.277 124.965V130.675C445.277 131.206 445.676 131.339 446.074 131.074C446.473 130.808 446.871 130.144 446.871 129.746V124.035C446.871 123.504 446.473 123.371 446.074 123.637Z"
        fill="#96D99D" />
    <path d="M427.082 143.689V158.297L405.436 145.814V131.206L427.082 143.689Z" fill="#5793CE" data-tochange="image"
        style="transition: 0.6s;" />
    <path
        d="M408.36 126.425C409.156 126.824 409.688 127.886 409.688 128.816C409.688 129.745 409.023 130.011 408.227 129.612L404.243 127.355C403.446 126.956 402.915 125.894 402.915 124.964C402.915 124.035 403.579 123.769 404.243 124.168L408.36 126.425Z"
        fill="#5793CE" />
    <path d="M416.457 177.42V178.35L405.302 171.843V170.913L416.457 177.42Z" fill="#5793CE" />
    <path d="M420.309 176.624V177.554L405.302 168.922V167.992L420.309 176.624Z" fill="#5793CE" />
    <path d="M420.309 173.702V174.632L405.302 166V165.07L420.309 173.702Z" fill="#5793CE" />
    <path d="M420.309 170.648V171.577L405.302 162.945V162.016L420.309 170.648Z" fill="#5793CE" />
    <path d="M420.309 167.726V168.655L405.302 160.023L405.435 159.094L420.309 167.726Z" fill="#5793CE" />
    <path d="M420.309 164.805V165.734L405.435 157.102V156.173L420.309 164.805Z" fill="#5793CE" />
    <path d="M420.309 161.75V162.68L405.435 154.048V153.118L420.309 161.75Z" fill="#5793CE" />
    <path
        d="M401.319 148.072L431.066 165.336L431.199 137.979L401.452 120.715L401.319 148.072ZM427.082 158.297L405.436 145.814V131.206L427.082 143.689V158.297ZM402.913 124.832C402.913 123.902 403.577 123.636 404.241 124.035L408.225 126.292C409.022 126.691 409.553 127.753 409.553 128.683C409.553 129.612 408.889 129.878 408.092 129.48L404.108 127.222C403.577 126.824 402.913 125.761 402.913 124.832Z"
        fill="#D4ECFF" />
    <path
        d="M273.569 336.913C267.327 340.499 267.327 346.342 273.436 349.928L320.978 377.55C327.087 381.136 337.18 381.136 343.421 377.55L408.759 339.835C415.001 336.249 415.001 330.406 408.892 326.82L361.349 299.198C355.241 295.612 345.148 295.612 338.906 299.198L273.569 336.913ZM322.306 376.753L274.764 349.131C269.319 345.944 269.319 340.897 274.764 337.71L340.101 299.995C345.546 296.808 354.444 296.808 359.889 299.995L407.431 327.617C412.876 330.804 412.876 335.851 407.298 339.038L341.961 376.753C336.649 379.94 327.751 379.94 322.306 376.753Z"
        fill="#30A842" />
    <defs>
        <linearGradient id="paint0_linear_216_5250" x1="322.442" y1="224.797" x2="322.442" y2="547.136"
            gradientUnits="userSpaceOnUse">
            <stop stop-color="#259789" />
            <stop offset="1" stop-color="white" />
        </linearGradient>
        <linearGradient id="paint1_linear_216_5250" x1="347.871" y1="214.438" x2="347.871" y2="530.27"
            gradientUnits="userSpaceOnUse">
            <stop stop-color="#259789" />
            <stop offset="1" stop-color="white" />
        </linearGradient>
        <linearGradient id="paint2_linear_216_5250" x1="98.6657" y1="430.337" x2="98.6657" y2="481.532"
            gradientUnits="userSpaceOnUse">
            <stop stop-color="#259789" />
            <stop offset="1" stop-color="white" />
        </linearGradient>
        <linearGradient id="paint3_linear_216_5250" x1="341.166" y1="210.354" x2="341.166" y2="230.142"
            gradientUnits="userSpaceOnUse">
            <stop stop-color="#259789" />
            <stop offset="1" stop-color="white" />
        </linearGradient>
    </defs>
</svg>