<svg width="1920" height="947" viewBox="0 0 1920 947" fill="none" xmlns="http://www.w3.org/2000/svg">
<path d="M282.362 996.891C641.26 1165.43 794.498 1463.8 842.718 1775.24" stroke="white" stroke-opacity="0.3"/>
<path d="M326 1006.58C531.69 1112.95 783.154 1326.07 842.715 1775.24" stroke="white" stroke-opacity="0.3"/>
<path d="M364.201 1017.81C565.82 1128.12 800.956 1345.92 842.717 1775.24" stroke="white" stroke-opacity="0.3"/>
<path d="M405.646 1031.94C607.265 1142.25 814.501 1366.63 842.717 1775.24" stroke="white" stroke-opacity="0.3"/>
<path d="M1164.21 -32.2586C1976.78 438.757 1911.09 1445.37 841.528 1775.92" stroke="white" stroke-opacity="0.3"/>
<path d="M1189.91 -34.4173C1973.94 453.075 1911.09 1445.37 841.528 1775.92" stroke="white" stroke-opacity="0.3"/>
<path d="M1214.43 -35.8877C1965.12 459.757 1911.09 1445.37 841.528 1775.92" stroke="white" stroke-opacity="0.3"/>
<path d="M1241.51 -35.668C1947.78 468.179 1911.09 1445.37 841.528 1775.92" stroke="white" stroke-opacity="0.3"/>
<path d="M1266.02 -37.1395C1944.77 479.432 1911.09 1445.37 841.527 1775.92" stroke="white" stroke-opacity="0.3"/>
<path d="M1291.73 -39.2975C1940.56 491.373 1911.09 1445.37 841.527 1775.92" stroke="white" stroke-opacity="0.3"/>
<path d="M1315.56 -41.958C1937.36 499.562 1911.09 1445.37 841.526 1775.92" stroke="white" stroke-opacity="0.3"/>
<path d="M1341.27 -44.1165C1930.6 509.809 1911.09 1445.37 841.527 1775.92" stroke="white" stroke-opacity="0.3"/>
<path d="M1366.47 -44.3982C1920.03 507.984 1911.09 1445.37 841.526 1775.92" stroke="white" stroke-opacity="0.3"/>
<path d="M1392.18 -46.5569C1914.64 520.61 1911.09 1445.37 841.526 1775.92" stroke="white" stroke-opacity="0.3"/>
<path d="M1416.19 -46.153C1910.75 527.609 1911.09 1445.37 841.527 1775.92" stroke="white" stroke-opacity="0.3"/>
<path d="M1442.58 -47.122C1899.77 508.584 1911.09 1445.37 841.527 1775.92" stroke="white" stroke-opacity="0.3"/>
<path d="M1467.79 -47.4045C1892.95 507.763 1911.09 1445.37 841.527 1775.92" stroke="white" stroke-opacity="0.3"/>
<path d="M1492.99 -47.6874C1886.14 506.942 1911.09 1445.37 841.527 1775.92" stroke="white" stroke-opacity="0.3"/>
<path d="M1518.19 -47.9696C1881.51 501.683 1911.09 1445.37 841.526 1775.92" stroke="white" stroke-opacity="0.3"/>
<path d="M1543.4 -48.2515C1876.39 498.301 1911.09 1445.37 841.527 1775.92" stroke="white" stroke-opacity="0.3"/>
<path d="M1568.1 -46.6591C1871.63 501.046 1911.09 1445.37 841.526 1775.92" stroke="white" stroke-opacity="0.3"/>
<path d="M1593.12 -50.0064C1867.33 490.847 1911.09 1445.37 841.527 1775.92" stroke="white" stroke-opacity="0.3"/>
<path d="M1619.01 -49.0997C1863.08 491.718 1911.09 1445.37 841.526 1775.92" stroke="white" stroke-opacity="0.3"/>
<path d="M1645.59 -47.0043C1859.01 495.652 1911.09 1445.37 841.526 1775.92" stroke="white" stroke-opacity="0.3"/>
<path d="M1670.1 -48.4753C1858.51 497.529 1911.09 1445.37 841.527 1775.92" stroke="white" stroke-opacity="0.3"/>
<path d="M1695.31 -48.7584C1857.5 501.279 1911.09 1445.37 841.527 1775.92" stroke="white" stroke-opacity="0.3"/>
<path d="M1720.14 -55.1701C1861.52 486.275 1911.09 1445.37 841.527 1775.92" stroke="white" stroke-opacity="0.3"/>
<path d="M1745.35 -55.4532C1865.54 471.27 1911.09 1445.37 841.527 1775.92" stroke="white" stroke-opacity="0.3"/>
<path d="M1768.49 -59.3028C1874.45 445.514 1911.09 1445.37 841.528 1775.92" stroke="white" stroke-opacity="0.3"/>
<path d="M1794.88 -60.2714C1883.87 417.884 1911.09 1445.37 841.526 1775.92" stroke="white" stroke-opacity="0.3"/>
<path d="M1819.9 -63.6185C1895.52 396.885 1911.09 1445.37 841.527 1775.92" stroke="white" stroke-opacity="0.3"/>
<path d="M1844.92 -66.9661C1909.61 385.581 1911.09 1445.37 841.527 1775.92" stroke="white" stroke-opacity="0.3"/>
<path d="M1869.94 -70.3134C1936.72 355.657 1912.28 1444.68 842.716 1775.24" stroke="white" stroke-opacity="0.3"/>
<path d="M1894.27 -74.8486C1961.06 351.122 1912.28 1444.68 842.715 1775.24" stroke="white" stroke-opacity="0.3"/>
<path d="M1918.61 -79.3851C1985.39 346.586 1912.28 1444.68 842.716 1775.24" stroke="white" stroke-opacity="0.3"/>
<path d="M1942.76 -86.9868C2009.54 338.984 1912.28 1444.68 842.716 1775.24" stroke="white" stroke-opacity="0.3"/>
<path d="M1528.87 283.564C1528.87 283.564 1435.66 462.626 1163.5 611.832C891.335 761.037 362.428 773.099 283.047 998.082" stroke="white" stroke-opacity="0.3"/>
<path d="M1528.87 283.562C1528.87 283.562 1438.22 464.317 1166.06 613.522C893.899 762.727 406.07 782.781 326.689 1007.76" stroke="white" stroke-opacity="0.3"/>
<path d="M1528.87 283.563C1528.87 283.563 1454.36 456.582 1180.7 611.414C907.027 766.245 444.267 794.022 364.886 1019" stroke="white" stroke-opacity="0.3"/>
<path d="M1528.87 283.562C1528.87 283.562 1466.25 449.716 1189.39 612.737C912.519 775.757 486.216 806.267 406.835 1031.25" stroke="white" stroke-opacity="0.3"/>
<path d="M1528.87 283.562C1528.87 283.562 1472.87 444.698 1213.54 605.136C954.202 765.574 528.165 818.512 448.784 1043.49" stroke="white" stroke-opacity="0.3"/>
<path d="M1528.87 283.562C1528.87 283.562 1456.46 482.182 1189.12 628.746C921.773 775.311 576.795 839.583 487.484 1052.86" stroke="white" stroke-opacity="0.3"/>
<path d="M1528.87 283.562C1528.87 283.562 1466.53 485.884 1199.18 632.448C931.838 779.013 615.679 852.012 526.368 1065.29" stroke="white" stroke-opacity="0.3"/>
<path d="M1528.87 283.562C1528.87 283.562 1472.34 490.456 1204.99 637.021C937.648 783.585 660.509 861.009 571.198 1074.29" stroke="white" stroke-opacity="0.3"/>
<path d="M1528.87 283.562C1528.87 283.562 1472.4 490.561 1208.42 642.966C944.453 795.37 705.388 881.075 608.894 1087.4" stroke="white" stroke-opacity="0.3"/>
<path d="M1528.87 283.562C1528.87 283.562 1494.12 473.264 1213.73 649.414C933.347 825.563 751.272 897.39 649.47 1097.27" stroke="white" stroke-opacity="0.3"/>
<path d="M1528.87 283.562C1528.87 283.562 1490.91 489.67 1184.93 681.9C878.945 874.129 802.415 909.084 691.737 1104.57" stroke="white" stroke-opacity="0.3"/>
<path d="M1528.87 283.562C1528.87 283.562 1482.33 502.268 1195.86 689.855C909.395 877.442 801.657 968.182 732.497 1117.51" stroke="white" stroke-opacity="0.3"/>
<path d="M1528.87 283.562C1528.87 283.562 1477.89 500.074 1207.48 699C937.075 897.926 857.74 980.195 772.387 1126.18" stroke="white" stroke-opacity="0.3"/>
<path d="M1528.87 283.562C1528.87 283.562 1473.5 508.949 1222.67 706.085C971.841 903.22 897.127 990.748 811.774 1136.74" stroke="white" stroke-opacity="0.3"/>
<path d="M1528.87 283.562C1528.87 283.562 1469.11 517.825 1240.42 714.862C1011.73 911.899 937.887 1003.68 852.534 1149.67" stroke="white" stroke-opacity="0.3"/>
<path d="M1528.87 283.562C1528.87 283.562 1479.81 511.646 1262.74 717.828C1045.67 924.009 978.463 1013.55 893.11 1159.54" stroke="white" stroke-opacity="0.3"/>
<path d="M1528.87 283.562C1528.87 283.562 1485.62 516.218 1285.25 723.858C1084.88 931.498 1018.03 1027.17 932.681 1173.15" stroke="white" stroke-opacity="0.3"/>
<path d="M1528.87 283.562C1528.87 283.562 1505.15 503.359 1318.09 717.581C1131.03 931.804 1059.11 1035.16 973.759 1181.15" stroke="white" stroke-opacity="0.3"/>
<path d="M1528.87 283.562C1528.87 283.562 1513.29 495.488 1346.86 715.239C1180.43 934.99 1101.06 1047.4 1015.71 1193.39" stroke="white" stroke-opacity="0.3"/>
<path d="M1528.87 283.562C1528.87 283.562 1518.92 496.996 1371.06 718.708C1223.2 940.419 1140.45 1057.96 1055.1 1203.95" stroke="white" stroke-opacity="0.3"/>
<path d="M1528.87 283.562C1528.87 283.562 1527.79 501.385 1398.51 725.057C1269.22 948.73 1182.21 1067.14 1096.86 1213.13" stroke="white" stroke-opacity="0.3"/>
<path d="M1528.87 283.562C1528.87 283.562 1554.68 457.327 1428.6 714.024C1302.53 970.721 1222.97 1080.07 1137.62 1226.06" stroke="white" stroke-opacity="0.3"/>
<path d="M1528.87 283.562C1528.87 283.562 1556.47 476.903 1458.93 717.124C1361.39 957.345 1263.55 1089.94 1178.2 1235.93" stroke="white" stroke-opacity="0.3"/>
<path d="M1528.87 283.562C1528.87 283.562 1564.52 488.108 1482.12 724.344C1399.73 960.581 1303.12 1103.55 1217.77 1249.54" stroke="white" stroke-opacity="0.3"/>
<path d="M1528.87 283.562C1528.87 283.562 1583.41 485.128 1510.76 730.007C1438.11 974.885 1344.38 1114.61 1259.03 1260.6" stroke="white" stroke-opacity="0.3"/>
<path d="M1528.87 283.562C1528.87 283.562 1598.78 495.278 1537.2 740.107C1475.62 984.937 1381.58 1129.6 1296.22 1275.59" stroke="white" stroke-opacity="0.3"/>
<path d="M1528.87 283.562C1528.87 283.562 1610.54 496.418 1565.97 737.765C1521.41 979.113 1417.26 1150.22 1331.91 1296.21" stroke="white" stroke-opacity="0.3"/>
<path d="M1528.87 283.562C1528.87 283.562 1625.18 494.309 1593.24 741.05C1561.3 987.791 1454.27 1162.15 1368.92 1308.14" stroke="white" stroke-opacity="0.3"/>
<path d="M1528.87 283.562C1528.87 283.562 1655.1 521.424 1623.16 768.165C1591.22 1014.91 1496.03 1171.33 1410.68 1317.32" stroke="white" stroke-opacity="0.3"/>
<path d="M1528.87 283.563C1528.87 283.563 1692.02 552.426 1652.31 813.166C1612.6 1073.91 1527.97 1190.94 1442.62 1336.93" stroke="white" stroke-opacity="0.3"/>
<path d="M1528.87 283.562C1528.87 283.562 1712.92 541.944 1685.2 817.958C1657.48 1093.97 1505.6 1330.69 1477.43 1353.29" stroke="white" stroke-opacity="0.3"/>
</svg>
