<svg width="29" height="43" viewBox="0 0 29 43" fill="none" xmlns="http://www.w3.org/2000/svg">
<path d="M28.4037 29.5023L28.3939 34.024C28.393 34.4145 28.1363 34.8042 27.624 35.1017L16.1148 41.7904C15.0831 42.3897 13.4052 42.3901 12.367 41.7904L0.782499 35.1022C0.259902 34.8005 -0.000921554 34.4048 2.44637e-06 34.0091L0.00977028 29.4897C0.00977028 29.884 12.3763 37.2687 12.3763 37.2687C13.4149 37.868 15.0929 37.868 16.1246 37.2682C16.1246 37.2682 28.4027 29.8924 28.4037 29.5023Z" fill="#404041"/>
<path d="M11.3526 37.765L1.76009 32.2264C1.51212 32.0832 1.20215 32.2622 1.20215 32.5485V34.0447C1.20215 34.3105 1.34394 34.5561 1.57411 34.689L11.1667 40.2271C11.4146 40.3703 11.7246 40.1913 11.7246 39.905V38.4092C11.7246 38.1434 11.5828 37.8979 11.3526 37.765Z" fill="#4F4F50"/>
<path d="M27.6215 28.4092C28.6598 29.0087 28.6653 29.9804 27.6337 30.5799L16.1245 37.2684C15.0928 37.8679 13.4149 37.8681 12.3765 37.2686L0.79199 30.5802C-0.246384 29.9807 -0.251558 29.0088 0.780066 28.4093L12.2893 21.7209C13.3209 21.1213 14.9986 21.1213 16.0369 21.7208L27.6215 28.4092Z" fill="#4F4F50"/>
<path d="M23.1199 29.0145C23.5792 29.2797 23.5813 29.7094 23.125 29.9746L15.0643 34.659C14.608 34.9242 13.8661 34.9244 13.4067 34.6592L5.29334 29.9749C4.83403 29.7097 4.83161 29.2798 5.28794 29.0146L13.3486 24.3302C13.8049 24.0651 14.5472 24.065 15.0065 24.3302L23.1199 29.0145Z" fill="#404041"/>
<path d="M10.5275 38.1036L7.45703 36.3308V37.4937L10.5275 39.2664V38.1036Z" fill="#30A842"/>
<path d="M28.4037 22.4119L28.3939 26.9336C28.393 27.3241 28.1363 27.7137 27.624 28.0113L16.1148 34.6999C15.0831 35.2993 13.4052 35.2997 12.367 34.6999L0.782499 28.0118C0.259902 27.71 -0.000921554 27.3144 2.44637e-06 26.9187L0.00977028 22.3993C0.00977028 22.7936 12.3763 30.1782 12.3763 30.1782C13.4149 30.7775 15.0929 30.7775 16.1246 30.1778C16.1246 30.1778 28.4027 22.802 28.4037 22.4119Z" fill="#404041"/>
<path d="M11.3526 30.6746L1.76009 25.136C1.51212 24.9929 1.20215 25.1718 1.20215 25.4581V26.9543C1.20215 27.2201 1.34394 27.4657 1.57411 27.5986L11.1667 33.1367C11.4146 33.2799 11.7246 33.101 11.7246 32.8146V31.3188C11.7246 31.053 11.5828 30.8075 11.3526 30.6746Z" fill="#4F4F50"/>
<path d="M27.6215 21.3188C28.6598 21.9183 28.6653 22.89 27.6337 23.4895L16.1245 30.178C15.0928 30.7775 13.4149 30.7777 12.3765 30.1782L0.79199 23.4898C-0.246384 22.8903 -0.251558 21.9184 0.780066 21.3189L12.2893 14.6304C13.3209 14.0309 14.9986 14.0309 16.0369 14.6304L27.6215 21.3188Z" fill="#4F4F50"/>
<path d="M23.1199 21.9241C23.5792 22.1893 23.5813 22.619 23.125 22.8842L15.0643 27.5686C14.608 27.8338 13.8661 27.8339 13.4067 27.5688L5.29334 22.8845C4.83403 22.6193 4.83161 22.1894 5.28794 21.9242L13.3486 17.2398C13.8049 16.9746 14.5472 16.9746 15.0065 17.2398L23.1199 21.9241Z" fill="#404041"/>
<path d="M10.5275 31.0132L7.45703 29.2404V30.4033L10.5275 32.176V31.0132Z" fill="#30A842"/>
<path d="M28.4037 15.3215L28.3939 19.8432C28.393 20.2337 28.1363 20.6234 27.624 20.9209L16.1148 27.6096C15.0831 28.2089 13.4052 28.2093 12.367 27.6096L0.782499 20.9214C0.259902 20.6196 -0.000921554 20.224 2.44637e-06 19.8283L0.00977028 15.3089C0.00977028 15.7032 12.3763 23.0879 12.3763 23.0879C13.4149 23.6872 15.0929 23.6872 16.1246 23.0874C16.1246 23.0874 28.4027 15.7116 28.4037 15.3215Z" fill="#404041"/>
<path d="M11.3526 23.5842L1.76009 18.0456C1.51212 17.9025 1.20215 18.0814 1.20215 18.3678V19.864C1.20215 20.1297 1.34394 20.3753 1.57411 20.5082L11.1667 26.0464C11.4146 26.1895 11.7246 26.0106 11.7246 25.7242V24.2284C11.7246 23.9627 11.5828 23.7171 11.3526 23.5842Z" fill="#4F4F50"/>
<path d="M27.6215 14.2284C28.6598 14.8279 28.6653 15.7996 27.6337 16.3991L16.1245 23.0876C15.0928 23.6871 13.4149 23.6873 12.3765 23.0878L0.79199 16.3994C-0.246384 15.7999 -0.251558 14.828 0.780066 14.2285L12.2893 7.54005C13.3209 6.94053 14.9986 6.94053 16.0369 7.54003L27.6215 14.2284Z" fill="#4F4F50"/>
<path d="M23.1199 14.8337C23.5792 15.0989 23.5813 15.5286 23.125 15.7938L15.0643 20.4782C14.608 20.7434 13.8661 20.7436 13.4067 20.4784L5.29334 15.7941C4.83403 15.5289 4.83161 15.099 5.28794 14.8338L13.3486 10.1494C13.8049 9.88425 14.5472 9.88424 15.0065 10.1494L23.1199 14.8337Z" fill="#404041"/>
<path d="M10.5275 23.9228L7.45703 22.15V23.3129L10.5275 25.0856V23.9228Z" fill="#30A842"/>
<path d="M28.4037 8.23109L28.3939 12.7528C28.393 13.1433 28.1363 13.5329 27.624 13.8305L16.1148 20.5191C15.0831 21.1185 13.4052 21.1189 12.367 20.5191L0.782499 13.831C0.259902 13.5292 -0.000921554 13.1336 2.44637e-06 12.7379L0.00977028 8.21854C0.00977028 8.6128 12.3763 15.9975 12.3763 15.9975C13.4149 16.5968 15.0929 16.5968 16.1246 15.997C16.1246 15.997 28.4027 8.62117 28.4037 8.23109Z" fill="#404041"/>
<path d="M11.3526 16.4938L1.76009 10.9552C1.51212 10.8121 1.20215 10.991 1.20215 11.2773V12.7736C1.20215 13.0393 1.34394 13.2849 1.57411 13.4178L11.1667 18.956C11.4146 19.0991 11.7246 18.9202 11.7246 18.6338V17.138C11.7246 16.8723 11.5828 16.6267 11.3526 16.4938Z" fill="#4F4F50"/>
<path d="M27.6215 7.13796C28.6598 7.73747 28.6653 8.70923 27.6337 9.30874L16.1245 15.9972C15.0928 16.5967 13.4149 16.5969 12.3765 15.9974L0.79199 9.30903C-0.246384 8.70953 -0.251558 7.73759 0.780066 7.13807L12.2893 0.449644C13.3209 -0.149874 14.9986 -0.149883 16.0369 0.449626L27.6215 7.13796Z" fill="#4F4F50"/>
<path d="M23.1199 7.74331C23.5792 8.0085 23.5813 8.43823 23.125 8.70343L15.0643 13.3878C14.608 13.653 13.8661 13.6531 13.4067 13.388L5.29334 8.70369C4.83403 8.4385 4.83161 8.00857 5.28794 7.74339L13.3486 3.05904C13.8049 2.79385 14.5472 2.79384 15.0065 3.05903L23.1199 7.74331Z" fill="#404041"/>
<path d="M10.5275 16.8324L7.45703 15.0596V16.2225L10.5275 17.9952V16.8324Z" fill="#30A842"/>
</svg>
