<svg width="44" height="44" viewBox="0 0 44 44" fill="none" xmlns="http://www.w3.org/2000/svg">
<path d="M36.2015 30.3823L36.1918 34.904C36.1908 35.2945 35.9342 35.6841 35.4218 35.9817L23.9127 42.6703C22.881 43.2697 21.203 43.2701 20.1648 42.6703L8.58035 35.9822C8.05775 35.6804 7.79693 35.2848 7.79785 34.8891L7.80762 30.3697C7.80762 30.764 20.1741 38.1487 20.1741 38.1487C21.2128 38.748 22.8908 38.748 23.9225 38.1482C23.9225 38.1482 36.2006 30.7724 36.2015 30.3823Z" fill="#6EABDD"/>
<path d="M19.1505 38.645L9.55794 33.1064C9.30997 32.9632 9 33.1422 9 33.4285V34.9247C9 35.1905 9.14179 35.4361 9.37196 35.569L18.9645 41.1071C19.2125 41.2503 19.5224 41.0714 19.5224 40.785V39.2892C19.5224 39.0234 19.3807 38.7779 19.1505 38.645Z" fill="#EFEFEF"/>
<path d="M35.4193 29.2892C36.4577 29.8887 36.4632 30.8604 35.4315 31.4599L23.9223 38.1484C22.8907 38.7479 21.2127 38.7481 20.1744 38.1486L8.58984 31.4602C7.55147 30.8607 7.54629 29.8888 8.57792 29.2893L20.0871 22.6008C21.1188 22.0013 22.7964 22.0013 23.8348 22.6008L35.4193 29.2892Z" fill="#EFEFEF"/>
<path d="M30.9177 29.8945C31.377 30.1597 31.3792 30.5894 30.9228 30.8546L22.8622 35.539C22.4058 35.8042 21.6639 35.8043 21.2046 35.5392L13.0912 30.8549C12.6319 30.5897 12.6295 30.1598 13.0858 29.8946L21.1465 25.2102C21.6028 24.9451 22.345 24.945 22.8043 25.2102L30.9177 29.8945Z" fill="#6EABDD"/>
<path d="M18.3254 38.9836L15.2549 37.2108V38.3737L18.3254 40.1464V38.9836Z" fill="#6EABDD"/>
<path d="M36.2015 23.2919L36.1918 27.8136C36.1908 28.2041 35.9342 28.5937 35.4218 28.8913L23.9127 35.5799C22.881 36.1793 21.203 36.1797 20.1648 35.5799L8.58035 28.8918C8.05775 28.59 7.79693 28.1944 7.79785 27.7987L7.80762 23.2793C7.80762 23.6736 20.1741 31.0582 20.1741 31.0582C21.2128 31.6576 22.8908 31.6576 23.9225 31.0578C23.9225 31.0578 36.2006 23.682 36.2015 23.2919Z" fill="#6EABDD"/>
<path d="M19.1505 31.5546L9.55794 26.016C9.30997 25.8729 9 26.0518 9 26.3381V27.8343C9 28.1001 9.14179 28.3457 9.37196 28.4786L18.9645 34.0167C19.2125 34.1599 19.5224 33.981 19.5224 33.6946V32.1988C19.5224 31.933 19.3807 31.6875 19.1505 31.5546Z" fill="#EFEFEF"/>
<path d="M35.4193 22.1987C36.4577 22.7983 36.4632 23.77 35.4315 24.3695L23.9223 31.058C22.8907 31.6575 21.2127 31.6577 20.1744 31.0582L8.58984 24.3698C7.55147 23.7703 7.54629 22.7984 8.57792 22.1989L20.0871 15.5104C21.1188 14.9109 22.7964 14.9109 23.8348 15.5104L35.4193 22.1987Z" fill="#EFEFEF"/>
<path d="M30.9177 22.8041C31.377 23.0693 31.3792 23.499 30.9228 23.7642L22.8622 28.4486C22.4058 28.7138 21.6639 28.7139 21.2046 28.4488L13.0912 23.7645C12.6319 23.4993 12.6295 23.0694 13.0858 22.8042L21.1465 18.1198C21.6028 17.8546 22.345 17.8546 22.8043 18.1198L30.9177 22.8041Z" fill="#6EABDD"/>
<path d="M18.3254 31.8932L15.2549 30.1204V31.2833L18.3254 33.056V31.8932Z" fill="#6EABDD"/>
<path d="M36.2015 16.2015L36.1918 20.7232C36.1908 21.1137 35.9342 21.5033 35.4218 21.8009L23.9127 28.4896C22.881 29.0889 21.203 29.0893 20.1648 28.4896L8.58035 21.8014C8.05775 21.4996 7.79693 21.104 7.79785 20.7083L7.80762 16.1889C7.80762 16.5832 20.1741 23.9678 20.1741 23.9678C21.2128 24.5672 22.8908 24.5672 23.9225 23.9674C23.9225 23.9674 36.2006 16.5916 36.2015 16.2015Z" fill="#6EABDD"/>
<path d="M19.1505 24.4642L9.55794 18.9256C9.30997 18.7825 9 18.9614 9 19.2477V20.744C9 21.0097 9.14179 21.2553 9.37196 21.3882L18.9645 26.9263C19.2125 27.0695 19.5224 26.8906 19.5224 26.6042V25.1084C19.5224 24.8426 19.3807 24.5971 19.1505 24.4642Z" fill="#EFEFEF"/>
<path d="M35.4193 15.1083C36.4577 15.7079 36.4632 16.6796 35.4315 17.2791L23.9223 23.9676C22.8907 24.5671 21.2127 24.5673 20.1744 23.9678L8.58984 17.2794C7.55147 16.6799 7.54629 15.708 8.57792 15.1085L20.0871 8.42004C21.1188 7.82052 22.7964 7.82052 23.8348 8.42002L35.4193 15.1083Z" fill="#EFEFEF"/>
<path d="M30.9177 15.7137C31.377 15.9789 31.3792 16.4086 30.9228 16.6738L22.8622 21.3582C22.4058 21.6234 21.6639 21.6235 21.2046 21.3584L13.0912 16.6741C12.6319 16.4089 12.6295 15.979 13.0858 15.7138L21.1465 11.0294C21.6028 10.7642 22.345 10.7642 22.8043 11.0294L30.9177 15.7137Z" fill="#6EABDD"/>
<path d="M18.3254 24.8028L15.2549 23.03V24.1929L18.3254 25.9656V24.8028Z" fill="#6EABDD"/>
<path d="M36.2015 9.11108L36.1918 13.6328C36.1908 14.0233 35.9342 14.4129 35.4218 14.7105L23.9127 21.3991C22.881 21.9985 21.203 21.9989 20.1648 21.3991L8.58035 14.711C8.05775 14.4092 7.79693 14.0136 7.79785 13.6179L7.80762 9.09853C7.80762 9.4928 20.1741 16.8775 20.1741 16.8775C21.2128 17.4768 22.8908 17.4768 23.9225 16.877C23.9225 16.877 36.2006 9.50117 36.2015 9.11108Z" fill="#6EABDD"/>
<path d="M19.1505 17.3738L9.55794 11.8352C9.30997 11.6921 9 11.871 9 12.1573V13.6535C9 13.9193 9.14179 14.1649 9.37196 14.2978L18.9645 19.8359C19.2125 19.9791 19.5224 19.8001 19.5224 19.5138V18.018C19.5224 17.7522 19.3807 17.5067 19.1505 17.3738Z" fill="#EFEFEF"/>
<path d="M35.4193 8.01795C36.4577 8.61746 36.4632 9.58922 35.4315 10.1887L23.9223 16.8772C22.8907 17.4767 21.2127 17.4769 20.1744 16.8774L8.58984 10.189C7.55147 9.58952 7.54629 8.61758 8.57792 8.01807L20.0871 1.32964C21.1188 0.730115 22.7964 0.730106 23.8348 1.32962L35.4193 8.01795Z" fill="#EFEFEF"/>
<path d="M30.9177 8.6233C31.377 8.88848 31.3792 9.31822 30.9228 9.58342L22.8622 14.2678C22.4058 14.533 21.6639 14.5331 21.2046 14.268L13.0912 9.58368C12.6319 9.31849 12.6295 8.88856 13.0858 8.62338L21.1465 3.93903C21.6028 3.67384 22.345 3.67383 22.8043 3.93902L30.9177 8.6233Z" fill="#6EABDD"/>
<path d="M18.3254 17.7124L15.2549 15.9396V17.1025L18.3254 18.8752V17.7124Z" fill="#6EABDD"/>
</svg>
