<svg width="29" height="80" viewBox="0 0 29 80" fill="none" xmlns="http://www.w3.org/2000/svg">
<path d="M28.4037 29.5023L28.3939 34.024C28.393 34.4145 28.1363 34.8041 27.624 35.1017L16.1148 41.7904C15.0831 42.3897 13.4052 42.3901 12.367 41.7904L0.782499 35.1022C0.259902 34.8004 -0.000921554 34.4048 2.44637e-06 34.0091L0.00977028 29.4897C0.00977028 29.884 12.3763 37.2687 12.3763 37.2687C13.4149 37.868 15.0929 37.868 16.1246 37.2682C16.1246 37.2682 28.4027 29.8924 28.4037 29.5023Z" fill="#404041"/>
<path d="M11.3526 37.765L1.76009 32.2264C1.51212 32.0833 1.20215 32.2622 1.20215 32.5485V34.0448C1.20215 34.3105 1.34394 34.5561 1.57411 34.689L11.1667 40.2271C11.4146 40.3703 11.7246 40.1914 11.7246 39.905V38.4092C11.7246 38.1434 11.5828 37.8979 11.3526 37.765Z" fill="#4F4F50"/>
<path d="M27.6215 28.4092C28.6598 29.0087 28.6653 29.9804 27.6337 30.5799L16.1245 37.2684C15.0928 37.8679 13.4149 37.8681 12.3765 37.2686L0.79199 30.5802C-0.246384 29.9807 -0.251558 29.0088 0.780066 28.4093L12.2893 21.7209C13.3209 21.1213 14.9986 21.1213 16.0369 21.7208L27.6215 28.4092Z" fill="#4F4F50"/>
<path d="M23.1199 29.0145C23.5792 29.2797 23.5813 29.7094 23.125 29.9746L15.0643 34.659C14.608 34.9242 13.8661 34.9244 13.4067 34.6592L5.29334 29.9749C4.83403 29.7097 4.83161 29.2798 5.28794 29.0146L13.3486 24.3302C13.8049 24.0651 14.5472 24.0651 15.0065 24.3302L23.1199 29.0145Z" fill="#404041"/>
<path d="M10.5275 38.1036L7.45703 36.3308V37.4937L10.5275 39.2664V38.1036Z" fill="#30A842"/>
<path d="M28.4037 22.4119L28.3939 26.9336C28.393 27.3241 28.1363 27.7138 27.624 28.0113L16.1148 34.7C15.0831 35.2993 13.4052 35.2997 12.367 34.7L0.782499 28.0118C0.259902 27.71 -0.000921554 27.3144 2.44637e-06 26.9187L0.00977028 22.3993C0.00977028 22.7936 12.3763 30.1783 12.3763 30.1783C13.4149 30.7776 15.0929 30.7776 16.1246 30.1778C16.1246 30.1778 28.4027 22.802 28.4037 22.4119Z" fill="#404041"/>
<path d="M11.3526 30.6746L1.76009 25.136C1.51212 24.9929 1.20215 25.1718 1.20215 25.4581V26.9544C1.20215 27.2201 1.34394 27.4657 1.57411 27.5986L11.1667 33.1368C11.4146 33.2799 11.7246 33.101 11.7246 32.8146V31.3188C11.7246 31.053 11.5828 30.8075 11.3526 30.6746Z" fill="#4F4F50"/>
<path d="M27.6215 21.3188C28.6598 21.9183 28.6653 22.89 27.6337 23.4895L16.1245 30.178C15.0928 30.7775 13.4149 30.7777 12.3765 30.1782L0.79199 23.4898C-0.246384 22.8903 -0.251558 21.9184 0.780066 21.3189L12.2893 14.6304C13.3209 14.0309 14.9986 14.0309 16.0369 14.6304L27.6215 21.3188Z" fill="#4F4F50"/>
<path d="M23.1199 21.9241C23.5792 22.1893 23.5813 22.619 23.125 22.8842L15.0643 27.5686C14.608 27.8338 13.8661 27.8339 13.4067 27.5688L5.29334 22.8845C4.83403 22.6193 4.83161 22.1894 5.28794 21.9242L13.3486 17.2399C13.8049 16.9747 14.5472 16.9747 15.0065 17.2398L23.1199 21.9241Z" fill="#404041"/>
<path d="M10.5275 31.0133L7.45703 29.2404V30.4033L10.5275 32.176V31.0133Z" fill="#30A842"/>
<path d="M28.4037 15.3215L28.3939 19.8432C28.393 20.2337 28.1363 20.6234 27.624 20.9209L16.1148 27.6096C15.0831 28.2089 13.4052 28.2093 12.367 27.6096L0.782499 20.9214C0.259902 20.6196 -0.000921554 20.224 2.44637e-06 19.8283L0.00977028 15.3089C0.00977028 15.7032 12.3763 23.0879 12.3763 23.0879C13.4149 23.6872 15.0929 23.6872 16.1246 23.0874C16.1246 23.0874 28.4027 15.7116 28.4037 15.3215Z" fill="#404041"/>
<path d="M11.3526 23.5842L1.76009 18.0456C1.51212 17.9025 1.20215 18.0814 1.20215 18.3677V19.864C1.20215 20.1297 1.34394 20.3753 1.57411 20.5082L11.1667 26.0464C11.4146 26.1895 11.7246 26.0106 11.7246 25.7242V24.2284C11.7246 23.9626 11.5828 23.7171 11.3526 23.5842Z" fill="#4F4F50"/>
<path d="M27.6215 14.2284C28.6598 14.8279 28.6653 15.7996 27.6337 16.3991L16.1245 23.0876C15.0928 23.6871 13.4149 23.6873 12.3765 23.0878L0.79199 16.3994C-0.246384 15.7999 -0.251558 14.828 0.780066 14.2285L12.2893 7.54005C13.3209 6.94053 14.9986 6.94052 16.0369 7.54003L27.6215 14.2284Z" fill="#4F4F50"/>
<path d="M23.1199 14.8337C23.5792 15.0989 23.5813 15.5286 23.125 15.7938L15.0643 20.4782C14.608 20.7434 13.8661 20.7436 13.4067 20.4784L5.29334 15.7941C4.83403 15.5289 4.83161 15.099 5.28794 14.8338L13.3486 10.1494C13.8049 9.88426 14.5472 9.88425 15.0065 10.1494L23.1199 14.8337Z" fill="#404041"/>
<path d="M10.5275 23.9229L7.45703 22.15V23.3129L10.5275 25.0856V23.9229Z" fill="#30A842"/>
<path d="M28.4037 8.23109L28.3939 12.7528C28.393 13.1433 28.1363 13.5329 27.624 13.8305L16.1148 20.5192C15.0831 21.1185 13.4052 21.1189 12.367 20.5192L0.782499 13.831C0.259902 13.5292 -0.000921554 13.1336 2.44637e-06 12.7379L0.00977028 8.21854C0.00977028 8.6128 12.3763 15.9975 12.3763 15.9975C13.4149 16.5968 15.0929 16.5968 16.1246 15.997C16.1246 15.997 28.4027 8.62117 28.4037 8.23109Z" fill="#404041"/>
<path d="M11.3526 16.4938L1.76009 10.9552C1.51212 10.8121 1.20215 10.991 1.20215 11.2773V12.7736C1.20215 13.0393 1.34394 13.2849 1.57411 13.4178L11.1667 18.9559C11.4146 19.0991 11.7246 18.9202 11.7246 18.6338V17.138C11.7246 16.8722 11.5828 16.6267 11.3526 16.4938Z" fill="#4F4F50"/>
<path d="M27.6215 7.13796C28.6598 7.73747 28.6653 8.70923 27.6337 9.30874L16.1245 15.9972C15.0928 16.5967 13.4149 16.5969 12.3765 15.9974L0.79199 9.30903C-0.246384 8.70953 -0.251558 7.73759 0.780066 7.13807L12.2893 0.449644C13.3209 -0.149874 14.9986 -0.149883 16.0369 0.449626L27.6215 7.13796Z" fill="#4F4F50"/>
<path d="M23.1199 7.7433C23.5792 8.00849 23.5813 8.43823 23.125 8.70343L15.0643 13.3878C14.608 13.653 13.8661 13.6531 13.4067 13.388L5.29334 8.70368C4.83403 8.4385 4.83161 8.00857 5.28794 7.74338L13.3486 3.05904C13.8049 2.79385 14.5472 2.79384 15.0065 3.05903L23.1199 7.7433Z" fill="#404041"/>
<path d="M10.5275 16.8324L7.45703 15.0596V16.2225L10.5275 17.9952V16.8324Z" fill="#30A842"/>
<path d="M28.4037 48.5023L28.3939 53.024C28.393 53.4145 28.1363 53.8041 27.624 54.1017L16.1148 60.7904C15.0831 61.3897 13.4052 61.3901 12.367 60.7904L0.782499 54.1022C0.259902 53.8004 -0.000921554 53.4048 2.44637e-06 53.0091L0.00977028 48.4897C0.00977028 48.884 12.3763 56.2687 12.3763 56.2687C13.4149 56.868 15.0929 56.868 16.1246 56.2682C16.1246 56.2682 28.4027 48.8924 28.4037 48.5023Z" fill="#404041"/>
<path d="M11.3526 56.765L1.76009 51.2264C1.51212 51.0833 1.20215 51.2622 1.20215 51.5485V53.0447C1.20215 53.3105 1.34394 53.5561 1.57411 53.689L11.1667 59.2271C11.4146 59.3703 11.7246 59.1914 11.7246 58.905V57.4092C11.7246 57.1434 11.5828 56.8979 11.3526 56.765Z" fill="#4F4F50"/>
<path d="M27.6215 47.4092C28.6598 48.0087 28.6653 48.9804 27.6337 49.5799L16.1245 56.2684C15.0928 56.8679 13.4149 56.8681 12.3765 56.2686L0.79199 49.5802C-0.246384 48.9807 -0.251558 48.0088 0.780066 47.4093L12.2893 40.7209C13.3209 40.1213 14.9986 40.1213 16.0369 40.7208L27.6215 47.4092Z" fill="#4F4F50"/>
<path d="M23.1199 48.0145C23.5792 48.2797 23.5813 48.7094 23.125 48.9746L15.0643 53.659C14.608 53.9242 13.8661 53.9244 13.4067 53.6592L5.29334 48.9749C4.83403 48.7097 4.83161 48.2798 5.28794 48.0146L13.3486 43.3302C13.8049 43.0651 14.5472 43.065 15.0065 43.3302L23.1199 48.0145Z" fill="#404041"/>
<path d="M10.5275 57.1036L7.45703 55.3308V56.4937L10.5275 58.2664V57.1036Z" fill="#30A842"/>
<path d="M28.4037 41.4119L28.3939 45.9336C28.393 46.3241 28.1363 46.7138 27.624 47.0113L16.1148 53.7C15.0831 54.2993 13.4052 54.2997 12.367 53.7L0.782499 47.0118C0.259902 46.71 -0.000921554 46.3144 2.44637e-06 45.9187L0.00977028 41.3993C0.00977028 41.7936 12.3763 49.1783 12.3763 49.1783C13.4149 49.7776 15.0929 49.7776 16.1246 49.1778C16.1246 49.1778 28.4027 41.802 28.4037 41.4119Z" fill="#404041"/>
<path d="M11.3526 49.6746L1.76009 44.136C1.51212 43.9929 1.20215 44.1718 1.20215 44.4581V45.9544C1.20215 46.2201 1.34394 46.4657 1.57411 46.5986L11.1667 52.1368C11.4146 52.2799 11.7246 52.101 11.7246 51.8146V50.3188C11.7246 50.053 11.5828 49.8075 11.3526 49.6746Z" fill="#4F4F50"/>
<path d="M27.6215 40.3188C28.6598 40.9183 28.6653 41.89 27.6337 42.4895L16.1245 49.178C15.0928 49.7775 13.4149 49.7777 12.3765 49.1782L0.79199 42.4898C-0.246384 41.8903 -0.251558 40.9184 0.780066 40.3189L12.2893 33.6304C13.3209 33.0309 14.9986 33.0309 16.0369 33.6304L27.6215 40.3188Z" fill="#4F4F50"/>
<path d="M23.1199 40.9241C23.5792 41.1893 23.5813 41.619 23.125 41.8842L15.0643 46.5686C14.608 46.8338 13.8661 46.8339 13.4067 46.5688L5.29334 41.8845C4.83403 41.6193 4.83161 41.1894 5.28794 40.9242L13.3486 36.2399C13.8049 35.9747 14.5472 35.9747 15.0065 36.2398L23.1199 40.9241Z" fill="#404041"/>
<path d="M10.5275 50.0133L7.45703 48.2404V49.4033L10.5275 51.176V50.0133Z" fill="#30A842"/>
<path d="M28.4037 34.3215L28.3939 38.8432C28.393 39.2337 28.1363 39.6234 27.624 39.9209L16.1148 46.6096C15.0831 47.2089 13.4052 47.2093 12.367 46.6096L0.782499 39.9214C0.259902 39.6196 -0.000921554 39.224 2.44637e-06 38.8283L0.00977028 34.3089C0.00977028 34.7032 12.3763 42.0879 12.3763 42.0879C13.4149 42.6872 15.0929 42.6872 16.1246 42.0874C16.1246 42.0874 28.4027 34.7116 28.4037 34.3215Z" fill="#404041"/>
<path d="M11.3526 42.5842L1.76009 37.0456C1.51212 36.9025 1.20215 37.0814 1.20215 37.3677V38.864C1.20215 39.1297 1.34394 39.3753 1.57411 39.5082L11.1667 45.0464C11.4146 45.1895 11.7246 45.0106 11.7246 44.7242V43.2284C11.7246 42.9626 11.5828 42.7171 11.3526 42.5842Z" fill="#4F4F50"/>
<path d="M27.6215 33.2284C28.6598 33.8279 28.6653 34.7996 27.6337 35.3991L16.1245 42.0876C15.0928 42.6871 13.4149 42.6873 12.3765 42.0878L0.79199 35.3994C-0.246384 34.7999 -0.251558 33.828 0.780066 33.2285L12.2893 26.5401C13.3209 25.9405 14.9986 25.9405 16.0369 26.54L27.6215 33.2284Z" fill="#4F4F50"/>
<path d="M23.1199 33.8337C23.5792 34.0989 23.5813 34.5286 23.125 34.7938L15.0643 39.4782C14.608 39.7434 13.8661 39.7436 13.4067 39.4784L5.29334 34.7941C4.83403 34.5289 4.83161 34.099 5.28794 33.8338L13.3486 29.1494C13.8049 28.8843 14.5472 28.8842 15.0065 29.1494L23.1199 33.8337Z" fill="#404041"/>
<path d="M10.5275 42.9229L7.45703 41.15V42.3129L10.5275 44.0856V42.9229Z" fill="#30A842"/>
<path d="M28.4037 27.2311L28.3939 31.7528C28.393 32.1433 28.1363 32.5329 27.624 32.8305L16.1148 39.5192C15.0831 40.1185 13.4052 40.1189 12.367 39.5192L0.782499 32.831C0.259902 32.5292 -0.000921554 32.1336 2.44637e-06 31.7379L0.00977028 27.2185C0.00977028 27.6128 12.3763 34.9975 12.3763 34.9975C13.4149 35.5968 15.0929 35.5968 16.1246 34.997C16.1246 34.997 28.4027 27.6212 28.4037 27.2311Z" fill="#404041"/>
<path d="M11.3526 35.4938L1.76009 29.9552C1.51212 29.8121 1.20215 29.991 1.20215 30.2773V31.7736C1.20215 32.0393 1.34394 32.2849 1.57411 32.4178L11.1667 37.9559C11.4146 38.0991 11.7246 37.9202 11.7246 37.6338V36.138C11.7246 35.8722 11.5828 35.6267 11.3526 35.4938Z" fill="#4F4F50"/>
<path d="M27.6215 26.138C28.6598 26.7375 28.6653 27.7092 27.6337 28.3087L16.1245 34.9972C15.0928 35.5967 13.4149 35.5969 12.3765 34.9974L0.79199 28.309C-0.246384 27.7095 -0.251558 26.7376 0.780066 26.1381L12.2893 19.4496C13.3209 18.8501 14.9986 18.8501 16.0369 19.4496L27.6215 26.138Z" fill="#4F4F50"/>
<path d="M23.1199 26.7433C23.5792 27.0085 23.5813 27.4382 23.125 27.7034L15.0643 32.3878C14.608 32.653 13.8661 32.6531 13.4067 32.388L5.29334 27.7037C4.83403 27.4385 4.83161 27.0086 5.28794 26.7434L13.3486 22.059C13.8049 21.7938 14.5472 21.7938 15.0065 22.059L23.1199 26.7433Z" fill="#404041"/>
<path d="M10.5275 35.8324L7.45703 34.0596V35.2225L10.5275 36.9952V35.8324Z" fill="#30A842"/>
<path d="M28.4037 66.5023L28.3939 71.024C28.393 71.4145 28.1363 71.8041 27.624 72.1017L16.1148 78.7904C15.0831 79.3897 13.4052 79.3901 12.367 78.7904L0.782499 72.1022C0.259902 71.8004 -0.000921554 71.4048 2.44637e-06 71.0091L0.00977028 66.4897C0.00977028 66.884 12.3763 74.2687 12.3763 74.2687C13.4149 74.868 15.0929 74.868 16.1246 74.2682C16.1246 74.2682 28.4027 66.8924 28.4037 66.5023Z" fill="#404041"/>
<path d="M11.3526 74.765L1.76009 69.2264C1.51212 69.0833 1.20215 69.2622 1.20215 69.5485V71.0447C1.20215 71.3105 1.34394 71.5561 1.57411 71.689L11.1667 77.2271C11.4146 77.3703 11.7246 77.1914 11.7246 76.905V75.4092C11.7246 75.1434 11.5828 74.8979 11.3526 74.765Z" fill="#4F4F50"/>
<path d="M27.6215 65.4092C28.6598 66.0087 28.6653 66.9804 27.6337 67.5799L16.1245 74.2684C15.0928 74.8679 13.4149 74.8681 12.3765 74.2686L0.79199 67.5802C-0.246384 66.9807 -0.251558 66.0088 0.780066 65.4093L12.2893 58.7209C13.3209 58.1213 14.9986 58.1213 16.0369 58.7208L27.6215 65.4092Z" fill="#4F4F50"/>
<path d="M23.1199 66.0145C23.5792 66.2797 23.5813 66.7094 23.125 66.9746L15.0643 71.659C14.608 71.9242 13.8661 71.9244 13.4067 71.6592L5.29334 66.9749C4.83403 66.7097 4.83161 66.2798 5.28794 66.0146L13.3486 61.3302C13.8049 61.0651 14.5472 61.065 15.0065 61.3302L23.1199 66.0145Z" fill="#404041"/>
<path d="M10.5275 75.1036L7.45703 73.3308V74.4937L10.5275 76.2664V75.1036Z" fill="#30A842"/>
<path d="M28.4037 59.4119L28.3939 63.9336C28.393 64.3241 28.1363 64.7138 27.624 65.0113L16.1148 71.7C15.0831 72.2993 13.4052 72.2997 12.367 71.7L0.782499 65.0118C0.259902 64.71 -0.000921554 64.3144 2.44637e-06 63.9187L0.00977028 59.3993C0.00977028 59.7936 12.3763 67.1783 12.3763 67.1783C13.4149 67.7776 15.0929 67.7776 16.1246 67.1778C16.1246 67.1778 28.4027 59.802 28.4037 59.4119Z" fill="#404041"/>
<path d="M11.3526 67.6746L1.76009 62.136C1.51212 61.9929 1.20215 62.1718 1.20215 62.4581V63.9544C1.20215 64.2201 1.34394 64.4657 1.57411 64.5986L11.1667 70.1368C11.4146 70.2799 11.7246 70.101 11.7246 69.8146V68.3188C11.7246 68.053 11.5828 67.8075 11.3526 67.6746Z" fill="#4F4F50"/>
<path d="M27.6215 58.3188C28.6598 58.9183 28.6653 59.89 27.6337 60.4895L16.1245 67.178C15.0928 67.7775 13.4149 67.7777 12.3765 67.1782L0.79199 60.4898C-0.246384 59.8903 -0.251558 58.9184 0.780066 58.3189L12.2893 51.6304C13.3209 51.0309 14.9986 51.0309 16.0369 51.6304L27.6215 58.3188Z" fill="#4F4F50"/>
<path d="M23.1199 58.9241C23.5792 59.1893 23.5813 59.619 23.125 59.8842L15.0643 64.5686C14.608 64.8338 13.8661 64.8339 13.4067 64.5688L5.29334 59.8845C4.83403 59.6193 4.83161 59.1894 5.28794 58.9242L13.3486 54.2399C13.8049 53.9747 14.5472 53.9747 15.0065 54.2398L23.1199 58.9241Z" fill="#404041"/>
<path d="M10.5275 68.0133L7.45703 66.2404V67.4033L10.5275 69.176V68.0133Z" fill="#30A842"/>
<path d="M28.4037 52.3215L28.3939 56.8432C28.393 57.2337 28.1363 57.6234 27.624 57.9209L16.1148 64.6096C15.0831 65.2089 13.4052 65.2093 12.367 64.6096L0.782499 57.9214C0.259902 57.6196 -0.000921554 57.224 2.44637e-06 56.8283L0.00977028 52.3089C0.00977028 52.7032 12.3763 60.0879 12.3763 60.0879C13.4149 60.6872 15.0929 60.6872 16.1246 60.0874C16.1246 60.0874 28.4027 52.7116 28.4037 52.3215Z" fill="#404041"/>
<path d="M11.3526 60.5842L1.76009 55.0456C1.51212 54.9025 1.20215 55.0814 1.20215 55.3677V56.864C1.20215 57.1297 1.34394 57.3753 1.57411 57.5082L11.1667 63.0464C11.4146 63.1895 11.7246 63.0106 11.7246 62.7242V61.2284C11.7246 60.9626 11.5828 60.7171 11.3526 60.5842Z" fill="#4F4F50"/>
<path d="M27.6215 51.2284C28.6598 51.8279 28.6653 52.7996 27.6337 53.3991L16.1245 60.0876C15.0928 60.6871 13.4149 60.6873 12.3765 60.0878L0.79199 53.3994C-0.246384 52.7999 -0.251558 51.828 0.780066 51.2285L12.2893 44.54C13.3209 43.9405 14.9986 43.9405 16.0369 44.54L27.6215 51.2284Z" fill="#4F4F50"/>
<path d="M23.1199 51.8337C23.5792 52.0989 23.5813 52.5286 23.125 52.7938L15.0643 57.4782C14.608 57.7434 13.8661 57.7436 13.4067 57.4784L5.29334 52.7941C4.83403 52.5289 4.83161 52.099 5.28794 51.8338L13.3486 47.1494C13.8049 46.8843 14.5472 46.8842 15.0065 47.1494L23.1199 51.8337Z" fill="#404041"/>
<path d="M10.5275 60.9229L7.45703 59.15V60.3129L10.5275 62.0856V60.9229Z" fill="#30A842"/>
<path d="M28.4037 45.2311L28.3939 49.7528C28.393 50.1433 28.1363 50.5329 27.624 50.8305L16.1148 57.5191C15.0831 58.1185 13.4052 58.1189 12.367 57.5191L0.782499 50.831C0.259902 50.5292 -0.000921554 50.1336 2.44637e-06 49.7379L0.00977028 45.2185C0.00977028 45.6128 12.3763 52.9975 12.3763 52.9975C13.4149 53.5968 15.0929 53.5968 16.1246 52.997C16.1246 52.997 28.4027 45.6212 28.4037 45.2311Z" fill="#404041"/>
<path d="M11.3526 53.4938L1.76009 47.9552C1.51212 47.8121 1.20215 47.991 1.20215 48.2773V49.7736C1.20215 50.0393 1.34394 50.2849 1.57411 50.4178L11.1667 55.9559C11.4146 56.0991 11.7246 55.9202 11.7246 55.6338V54.138C11.7246 53.8722 11.5828 53.6267 11.3526 53.4938Z" fill="#4F4F50"/>
<path d="M27.6215 44.138C28.6598 44.7375 28.6653 45.7092 27.6337 46.3087L16.1245 52.9972C15.0928 53.5967 13.4149 53.5969 12.3765 52.9974L0.79199 46.309C-0.246384 45.7095 -0.251558 44.7376 0.780066 44.1381L12.2893 37.4496C13.3209 36.8501 14.9986 36.8501 16.0369 37.4496L27.6215 44.138Z" fill="#4F4F50"/>
<path d="M23.1199 44.7433C23.5792 45.0085 23.5813 45.4382 23.125 45.7034L15.0643 50.3878C14.608 50.653 13.8661 50.6531 13.4067 50.388L5.29334 45.7037C4.83403 45.4385 4.83161 45.0086 5.28794 44.7434L13.3486 40.059C13.8049 39.7938 14.5472 39.7938 15.0065 40.059L23.1199 44.7433Z" fill="#404041"/>
<path d="M10.5275 53.8324L7.45703 52.0596V53.2225L10.5275 54.9952V53.8324Z" fill="#30A842"/>
</svg>
