<svg width="50" height="50" viewBox="0 0 50 50" fill="none" xmlns="http://www.w3.org/2000/svg">
<circle cx="25" cy="25" r="24.25" fill="#30A842" stroke="#30A842" stroke-width="1.5"/>
<path d="M8.62729 23.9181L8.62732 23.9182L8.63813 23.9139C13.9156 21.8158 32.7084 14.2426 37.7876 12.1958L38.0964 12.0714L38.11 12.0665C38.1266 12.0607 38.1533 12.0517 38.1885 12.0406C38.2594 12.0183 38.3628 11.9884 38.4866 11.9601C38.743 11.9016 39.047 11.8594 39.3191 11.8825C39.5923 11.9056 39.746 11.9851 39.831 12.0824C39.9108 12.1735 40.0468 12.4136 39.9917 13.0205L39.9916 13.0205L39.9907 13.0335C39.9294 13.8694 39.552 16.2514 39.0797 19.2324C38.8959 20.392 38.6978 21.6423 38.4984 22.9275C38.4982 22.9285 38.4981 22.9295 38.4979 22.9306L36.2933 36.401L36.2921 36.4086L36.291 36.4161C36.1679 37.2782 35.8932 37.6857 35.6449 37.8815C35.3987 38.0756 35.0506 38.1623 34.5618 38.1084C33.5422 37.996 32.2938 37.3116 31.3767 36.6805C31.2628 36.5998 30.8923 36.3644 30.3938 36.0475C30.3094 35.9939 30.2214 35.9379 30.1303 35.88C29.4581 35.4525 28.573 34.8882 27.6279 34.2733C25.7254 33.0357 23.6235 31.6213 22.5143 30.7084C22.2622 30.4977 22.0934 30.2592 22.0591 30.049C22.0364 29.9103 22.0396 29.5959 22.6101 29.1102L22.6167 29.1046L22.6232 29.0989C25.8053 26.2606 29.6072 22.7341 31.9103 20.4928C32.2261 20.1856 32.5364 19.7837 32.7525 19.3923C32.8604 19.1969 32.9589 18.979 33.0161 18.7579C33.068 18.5573 33.1161 18.2405 32.9824 17.9246C32.8181 17.5363 32.4705 17.3462 32.1278 17.3045C31.8302 17.2682 31.5171 17.3351 31.2237 17.4334C30.6236 17.6343 29.7969 18.0757 28.6812 18.8138C28.6807 18.8141 28.6803 18.8144 28.6798 18.8147L16.2649 26.9533C16.2615 26.9551 16.2572 26.9573 16.2521 26.9599C16.2274 26.9723 16.1825 26.9935 16.1176 27.0191C15.9878 27.0701 15.7779 27.1387 15.4901 27.1884C14.9182 27.2871 14.0192 27.3147 12.8062 26.9606L12.8062 26.9606C11.492 26.577 10.0655 26.1287 8.96542 25.7755C8.41588 25.5991 7.9488 25.4467 7.61924 25.3385C7.45447 25.2844 7.32413 25.2413 7.23508 25.2118L7.203 25.2012C7.17772 25.1811 7.1478 25.1554 7.11778 25.1254C7.02506 25.0325 6.99903 24.967 6.99582 24.9466C6.99581 24.9465 6.99579 24.9464 6.99577 24.9463C6.99545 24.945 6.99416 24.9397 7.00072 24.9219C7.00932 24.8986 7.03885 24.8358 7.13426 24.7393C7.33538 24.5358 7.76674 24.2448 8.62729 23.9181Z" stroke="white" stroke-width="1.5"/>
</svg>
