<svg width="50" height="50" viewBox="0 0 50 50" fill="#30A842" xmlns="http://www.w3.org/2000/svg">
    <path
        d="M37.5864 30.1111C36.9072 29.472 36.3644 28.9516 35.9922 28.4859C35.614 28.0126 35.3634 27.5373 35.35 26.9847C35.337 26.4448 35.5536 25.9225 35.892 25.3598C36.2314 24.7952 36.7372 24.1217 37.3824 23.2748C37.7536 22.7873 38.1761 22.2302 38.6575 21.5865C40.0814 19.6609 40.8195 18.4043 41.1831 17.594C41.3646 17.1893 41.446 16.9106 41.4771 16.726C41.4928 16.633 41.4948 16.5701 41.4928 16.5305C41.4765 16.5243 41.4548 16.5171 41.4266 16.5093C41.277 16.4684 41.0416 16.4429 40.7161 16.4429H34.4353H34.4239V16.4428C34.3632 16.4414 34.3031 16.4543 34.2485 16.4804C34.2437 16.4842 34.235 16.4916 34.2225 16.5043C34.2019 16.5255 34.1787 16.5535 34.1543 16.5872C34.1153 16.6409 34.0826 16.696 34.0604 16.7362C33.9236 17.1084 33.0535 19.3511 31.9395 21.2754L31.9388 21.2766C30.6236 23.5337 29.6993 24.7063 29.0364 25.3178C28.7017 25.6265 28.4184 25.8067 28.1691 25.9057C27.9071 26.0098 27.7133 26.0111 27.6073 26.0111L37.5864 30.1111ZM37.5864 30.1111L37.5903 30.115L37.6149 30.1393C37.6281 30.1524 37.6451 30.1694 37.6657 30.19C37.6789 30.2032 37.6936 30.2179 37.7097 30.234C37.7919 30.3165 37.9106 30.4361 38.0554 30.584C38.3451 30.88 38.7387 31.2885 39.1547 31.7387C40.0044 32.6583 40.8907 33.6926 41.2254 34.3109L41.2349 34.3284L41.241 34.3468L41.2691 34.394C41.5475 34.8602 41.5063 35.0507 41.4807 35.1034C41.4352 35.1889 41.2941 35.3101 41.0462 35.4201C40.8221 35.5194 40.6078 35.5671 40.5223 35.5765H35.2567C34.9794 35.5765 34.3154 35.5054 33.4754 34.9257C32.8261 34.4717 32.1607 33.7073 31.4628 32.8929L31.4619 32.8918L31.4355 32.8611C30.9393 32.2852 30.4462 31.7128 29.9616 31.286C29.4773 30.8594 28.9131 30.4963 28.2749 30.4963M37.5864 30.1111L28.2749 30.4963M28.2749 30.4963C28.2752 30.4963 28.2756 30.4964 28.2759 30.4964L28.2749 30.9963V30.4963ZM27.785 30.5771C26.7876 30.8964 25.9008 32.1694 25.9008 34.8111C25.9008 35.343 25.4867 35.5765 25.3186 35.5765H22.8969C22.1527 35.5765 18.0117 35.3097 14.3297 31.4274L14.3296 31.4273C12.0453 29.0207 9.85636 25.3764 8.22361 22.292C6.72035 19.4522 5.71305 17.1359 5.54405 16.7473C5.53764 16.7326 5.53243 16.7206 5.52846 16.7115C5.4938 16.6257 5.49958 16.5846 5.50133 16.5756C5.50276 16.5683 5.50608 16.5561 5.52767 16.5359C5.58407 16.4831 5.72943 16.417 5.94535 16.417H11.2845C11.5292 16.417 11.6406 16.4859 11.7068 16.5477C11.7915 16.6267 11.8571 16.7453 11.9352 16.9316L11.9358 16.9333C11.9552 16.9791 11.9804 17.04 12.0112 17.1147C12.275 17.7532 12.9543 19.3975 13.9971 21.2192C14.9291 22.8547 15.6977 24.035 16.3611 24.8115C17.0022 25.5617 17.6459 26.057 18.3415 26.0574M27.785 30.5771L27.607 26.0111C27.3716 26.0112 27.141 25.9452 26.9412 25.8208L26.9314 25.8147L26.9315 25.8146C26.2949 25.3974 26.0364 24.7063 25.927 24.0394C25.8205 23.3893 25.8401 22.6602 25.8571 22.0268L25.8583 21.9838C25.8583 21.8628 25.8607 21.7438 25.863 21.6332L25.8631 21.6251C25.8654 21.5138 25.8675 21.4123 25.8675 21.3172C25.8675 20.3353 25.8993 19.5018 25.9289 18.7684C25.9544 18.1257 25.9715 17.6108 25.9658 17.1906C25.96 16.7672 25.9311 16.4707 25.8766 16.2566C25.8246 16.0516 25.7557 15.9477 25.6826 15.881C25.6043 15.8095 25.475 15.7385 25.2301 15.68L25.2236 15.6784L25.2236 15.6784L25.2081 15.6744C24.6818 15.5411 24.3028 15.4452 22.7676 15.4235H21.959C21.231 15.4235 20.517 15.4384 19.8893 15.5015C19.3092 15.5598 18.8447 15.6558 18.5214 15.7943C18.883 15.9667 19.2553 16.2248 19.5363 16.6105C19.9195 17.1357 20.0842 17.8848 20.1626 18.4546C20.2402 19.0185 20.2443 19.5004 20.2445 19.6251C20.2732 20.0833 20.3418 21.3777 20.254 22.6521C20.2097 23.2945 20.1243 23.9555 19.9642 24.5095C19.8137 25.0302 19.5592 25.5954 19.0757 25.8637C18.8521 25.9912 18.5989 26.058 18.3415 26.0574M27.785 30.5771C27.7829 30.5778 27.7808 30.5785 27.7787 30.5792L27.9419 31.0519L27.7912 30.5751C27.7891 30.5758 27.787 30.5764 27.785 30.5771ZM18.3415 26.0574C18.3412 26.0574 18.341 26.0573 18.3407 26.0573L18.3422 25.5574V26.0574C18.342 26.0574 18.3417 26.0574 18.3415 26.0574ZM38.2851 29.3954L38.2763 29.3871C37.5813 28.7333 37.0935 28.2621 36.7735 27.8617C36.4587 27.4677 36.3556 27.2011 36.3498 26.9605C36.3436 26.7072 36.4423 26.385 36.749 25.8751C37.0545 25.367 37.5235 24.7397 38.1779 23.8809L38.178 23.8807C38.5503 23.3917 38.9749 22.8318 39.4589 22.1846L39.4605 22.1824C40.9035 20.2312 41.6895 18.9083 42.0954 18.0033C42.4884 17.1274 42.572 16.5431 42.4267 16.1379C42.2949 15.7653 41.9398 15.613 41.6905 15.5448C41.4141 15.4692 41.0751 15.4429 40.7161 15.4429H34.4404C34.2048 15.4386 33.972 15.4944 33.7639 15.6051L33.7545 15.6101L33.7452 15.6155C33.5612 15.7238 33.4264 15.8875 33.3447 16.0002C33.2562 16.1222 33.1919 16.2387 33.1608 16.2976L33.143 16.3312L33.1305 16.3671C33.0757 16.5251 32.2 18.8292 31.0745 20.7736C29.7758 23.0024 28.9112 24.0728 28.3583 24.5828C28.085 24.8349 27.9037 24.9351 27.8 24.9763C27.7122 25.0112 27.6651 25.0111 27.6123 25.0111L27.607 25.0111H27.6067C27.56 25.0111 27.5141 24.9985 27.4741 24.9745C27.1852 24.7822 27.0042 24.429 26.9139 23.8776C26.8229 23.3228 26.8401 22.6746 26.8581 22.0039L26.8582 22.0039V21.9905C26.8582 21.8789 26.8604 21.7672 26.8628 21.6537L26.863 21.6409C26.8652 21.5333 26.8675 21.4227 26.8675 21.3172C26.8675 20.3567 26.8986 19.5401 26.9281 18.8084L26.9282 18.808C26.9535 18.1686 26.9718 17.6279 26.9657 17.177C26.9596 16.7295 26.9295 16.3396 26.8459 16.0103C26.7599 15.6719 26.6117 15.3752 26.357 15.1426C26.1085 14.9156 25.8006 14.7885 25.4659 14.7081C24.848 14.5517 24.3968 14.4462 22.7781 14.4236V14.4235H22.7711H21.959C21.2236 14.4235 20.4687 14.4383 19.7893 14.5065C19.122 14.5736 18.4765 14.6966 17.9854 14.9407C17.5655 15.1433 17.2492 15.4743 17.091 15.7029L16.6536 16.3355L17.4093 16.4786C17.8244 16.5572 18.407 16.7586 18.728 17.1993L18.7283 17.1997C18.9554 17.5107 19.0968 18.0443 19.1719 18.5908C19.2441 19.1154 19.2445 19.5638 19.2445 19.6411V19.6569L19.2455 19.6726C19.2729 20.1059 19.3405 21.3621 19.2563 22.5833C19.2141 23.1961 19.1351 23.7765 19.0035 24.2319C18.8627 24.7191 18.6991 24.9296 18.5897 24.9897L18.5897 24.9896L18.5816 24.9943C18.5092 25.0358 18.4271 25.0576 18.3437 25.0574H18.3422C18.126 25.0574 17.7432 24.8895 17.1214 24.1618C16.5218 23.4602 15.7911 22.3476 14.8657 20.7237L14.8652 20.7228C13.8565 18.9608 13.2005 17.3738 12.935 16.7317C12.9036 16.6556 12.8776 16.5927 12.8572 16.5445C12.7724 16.3423 12.6401 16.0507 12.3888 15.8164C12.1188 15.5645 11.7556 15.417 11.2845 15.417H5.94535C5.56927 15.417 5.14483 15.5248 4.84464 15.8055C4.68794 15.952 4.56627 16.1465 4.51989 16.3838C4.47385 16.6195 4.50908 16.8605 4.60376 17.0922L4.60847 17.1037L4.61376 17.115C4.61252 17.1124 4.62508 17.1416 4.6636 17.23C4.69805 17.3091 4.7479 17.423 4.81225 17.568C4.94094 17.858 5.1275 18.2724 5.36474 18.7823C5.83909 19.8019 6.51661 21.2047 7.3398 22.7598C8.98013 25.8585 11.221 29.6048 13.6042 32.1156C17.5405 36.266 21.9909 36.5765 22.8969 36.5765H25.3186C26.0421 36.5765 26.9008 35.8923 26.9008 34.8111C26.9008 32.3041 27.7345 31.6418 28.0925 31.5286L28.0926 31.5288L28.105 31.5245C28.1593 31.5057 28.2164 31.4962 28.2738 31.4963H28.2749C28.5339 31.4963 28.8613 31.6494 29.3006 32.0364C29.731 32.4154 30.1843 32.941 30.7039 33.5441C31.3782 34.3311 32.1293 35.2051 32.9039 35.7463L32.9062 35.7479C33.9306 36.4552 34.7979 36.5765 35.2567 36.5765H40.544H40.5618L40.5794 36.5752C40.7921 36.5601 41.1319 36.476 41.4516 36.3342C41.7584 36.1981 42.1646 35.9579 42.3701 35.5606L42.3721 35.5568C42.6367 35.0342 42.4578 34.4467 42.1487 33.9168C42.1329 33.8806 42.1141 33.8457 42.0926 33.8125C41.6801 33.0637 40.712 31.9506 39.8892 31.0601C39.4648 30.6009 39.0643 30.1852 38.77 29.8846C38.6228 29.7341 38.5019 29.6122 38.4177 29.5278C38.3756 29.4856 38.3426 29.4527 38.3201 29.4303L38.2943 29.4047L38.2875 29.398L38.2857 29.3962L38.2853 29.3958L38.2851 29.3956C38.2851 29.3956 38.285 29.3956 37.9337 29.7513L38.2851 29.3954ZM41.5365 16.5514C41.5364 16.5514 41.5349 16.5506 41.5324 16.5485C41.5354 16.5503 41.5366 16.5514 41.5365 16.5514ZM49.5 25C49.5 38.531 38.531 49.5 25 49.5C11.469 49.5 0.5 38.531 0.5 25C0.5 11.469 11.469 0.5 25 0.5C38.531 0.5 49.5 11.469 49.5 25ZM41.4836 16.4707L41.4853 16.4754C41.4848 16.4738 41.4842 16.4723 41.4836 16.4707Z"
        stroke="white" />
</svg>