<svg width="50" height="50" viewBox="0 0 50 50" fill="none" xmlns="http://www.w3.org/2000/svg">
<circle cx="25" cy="25" r="24.25" fill="#30A842" stroke="#30A842" stroke-width="1.5"/>
<path d="M36.6423 11.9082H14.3577C10.3006 11.9082 7 15.2193 7 19.2885V31.7107C7 35.7807 10.3006 39.0911 14.3577 39.0911H36.6423C40.6994 39.0911 44 35.78 44 31.7107V19.2885C44 15.2193 40.6994 11.9082 36.6423 11.9082ZM42.4898 31.7115C42.4898 34.9486 39.8666 37.5816 36.6423 37.5816H14.3577C11.1334 37.5816 8.5102 34.9478 8.5102 31.7115V19.2885C8.5102 16.0522 11.1334 13.4184 14.3577 13.4184H36.6423C39.8666 13.4184 42.4898 16.0522 42.4898 19.2885V31.7115Z" fill="white"/>
<path d="M32.1902 25.2267L21.7283 19.099C21.4957 18.9631 21.2065 18.9608 20.9717 19.0952C20.7368 19.2296 20.5919 19.4796 20.5919 19.7507V32.0052C20.5919 32.2755 20.7368 32.5262 20.9709 32.6606C21.0872 32.7271 21.2171 32.7603 21.347 32.7603C21.4791 32.7603 21.6105 32.7256 21.7283 32.6569L32.1902 26.5307C32.4213 26.3956 32.564 26.1471 32.564 25.8791C32.564 25.611 32.422 25.3618 32.1902 25.2267ZM22.1021 30.6876V21.0676L30.3146 25.8783L22.1021 30.6876Z" fill="white"/>
</svg>
