<svg width="25" height="33" viewBox="0 0 25 33" fill="none" xmlns="http://www.w3.org/2000/svg">
<path d="M2.4375 32C1.644 32 1 31.3541 1 30.5582V14.6977C1 13.9018 1.644 13.2559 2.4375 13.2559H22.5625C23.356 13.2559 24 13.9018 24 14.6977V30.5582C24 31.3541 23.356 32 22.5625 32H2.4375Z" stroke="#30A842" stroke-miterlimit="10" stroke-linecap="round"/>
<path d="M19.6875 13.2558C19.6875 12.5024 19.6875 8.96267 19.6875 8.2093C19.6875 4.2276 16.4697 1 12.5 1C8.53034 1 5.3125 4.2276 5.3125 8.2093C5.3125 8.96267 5.3125 12.5024 5.3125 13.2558" stroke="#30A842" stroke-miterlimit="10" stroke-linecap="round"/>
<path d="M14.6562 21.1862C14.6562 19.9916 13.691 19.0234 12.5 19.0234C11.309 19.0234 10.3438 19.9916 10.3438 21.1862C10.3438 21.8243 10.6248 22.3923 11.0625 22.7881V24.7909C11.0625 25.5868 11.7065 26.2327 12.5 26.2327C13.2935 26.2327 13.9375 25.5868 13.9375 24.7909V22.7881C14.3752 22.3923 14.6562 21.8243 14.6562 21.1862Z" fill="#30A842"/>
</svg>
