<svg width="37" height="37" viewBox="0 0 37 37" fill="none" xmlns="http://www.w3.org/2000/svg">
<g clip-path="url(#clip0_62_1406)">
<path d="M18.5 11.2734C17.0707 11.2734 15.6735 11.6973 14.4851 12.4913C13.2967 13.2854 12.3705 14.414 11.8235 15.7345C11.2766 17.055 11.1335 18.508 11.4123 19.9098C11.6911 21.3116 12.3794 22.5993 13.3901 23.61C14.4007 24.6206 15.6884 25.3089 17.0902 25.5877C18.492 25.8665 19.945 25.7234 21.2655 25.1765C22.586 24.6295 23.7146 23.7033 24.5087 22.5149C25.3027 21.3265 25.7266 19.9293 25.7266 18.5C25.7266 16.5834 24.9652 14.7453 23.61 13.39C22.2547 12.0348 20.4166 11.2734 18.5 11.2734ZM18.5 23.9922C17.4138 23.9922 16.3519 23.6701 15.4487 23.0666C14.5455 22.4631 13.8416 21.6053 13.4259 20.6018C13.0102 19.5982 12.9014 18.4939 13.1133 17.4285C13.3253 16.3631 13.8483 15.3845 14.6164 14.6164C15.3845 13.8483 16.3632 13.3253 17.4285 13.1133C18.4939 12.9014 19.5982 13.0102 20.6018 13.4259C21.6053 13.8416 22.4631 14.5455 23.0666 15.4487C23.6701 16.3519 23.9922 17.4137 23.9922 18.5C23.9922 19.9566 23.4136 21.3536 22.3836 22.3836C21.3536 23.4135 19.9566 23.9922 18.5 23.9922Z" fill="#30A842"/>
<path d="M34.9766 13.875H32.3952C32.3351 13.8746 32.2767 13.8554 32.228 13.8202C32.1793 13.7849 32.1427 13.7354 32.1235 13.6784C31.9555 13.2013 31.7625 12.7333 31.5454 12.2765C31.5183 12.2226 31.5087 12.1615 31.5181 12.1019C31.5274 12.0423 31.5551 11.9871 31.5974 11.9441L33.4214 10.1172C33.6093 9.92929 33.7584 9.70622 33.8601 9.46071C33.9618 9.2152 34.0141 8.95207 34.0141 8.68633C34.0141 8.42059 33.9618 8.15745 33.8601 7.91194C33.7584 7.66644 33.6093 7.44337 33.4214 7.25547L29.7416 3.57859C29.5537 3.39068 29.3307 3.24161 29.0852 3.13991C28.8397 3.03821 28.5765 2.98587 28.3108 2.98587C28.045 2.98587 27.7819 3.03821 27.5364 3.13991C27.2909 3.24161 27.0678 3.39068 26.8799 3.57859L25.0559 5.40258C25.0129 5.44486 24.9577 5.47261 24.8981 5.48194C24.8385 5.49128 24.7774 5.48172 24.7235 5.45461C24.2667 5.23738 23.7987 5.04441 23.3216 4.87648C23.2646 4.85725 23.2151 4.82074 23.1798 4.77204C23.1446 4.72334 23.1254 4.66487 23.125 4.60477V2.02344C23.125 1.48679 22.9118 0.972119 22.5323 0.592651C22.1529 0.213183 21.6382 0 21.1016 0H15.8984C15.3618 0 14.8471 0.213183 14.4677 0.592651C14.0882 0.972119 13.875 1.48679 13.875 2.02344V4.60477C13.8746 4.66487 13.8554 4.72334 13.8202 4.77204C13.7849 4.82074 13.7354 4.85725 13.6784 4.87648C13.2013 5.04448 12.7333 5.23745 12.2765 5.45461C12.2226 5.48172 12.1615 5.49128 12.1019 5.48194C12.0423 5.47261 11.9871 5.44486 11.9441 5.40258L10.1172 3.57859C9.92929 3.39068 9.70622 3.24161 9.46071 3.13991C9.2152 3.03821 8.95207 2.98587 8.68633 2.98587C8.42059 2.98587 8.15745 3.03821 7.91194 3.13991C7.66644 3.24161 7.44337 3.39068 7.25547 3.57859L3.57859 7.25836C3.39068 7.44626 3.24161 7.66933 3.13991 7.91483C3.03821 8.16034 2.98587 8.42348 2.98587 8.68922C2.98587 8.95496 3.03821 9.21809 3.13991 9.4636C3.24161 9.70911 3.39068 9.93218 3.57859 10.1201L5.40258 11.9441C5.44486 11.9871 5.47261 12.0423 5.48194 12.1019C5.49128 12.1615 5.48172 12.2226 5.45461 12.2765C5.23738 12.7333 5.04441 13.2013 4.87648 13.6784C4.85725 13.7354 4.82074 13.7849 4.77204 13.8202C4.72334 13.8554 4.66487 13.8746 4.60477 13.875H2.02344C1.48679 13.875 0.972119 14.0882 0.592651 14.4677C0.213183 14.8471 0 15.3618 0 15.8984L0 21.1016C0 21.6382 0.213183 22.1529 0.592651 22.5323C0.972119 22.9118 1.48679 23.125 2.02344 23.125H4.60477C4.66487 23.1254 4.72334 23.1446 4.77204 23.1798C4.82074 23.2151 4.85725 23.2646 4.87648 23.3216C5.04448 23.7987 5.23745 24.2667 5.45461 24.7235C5.48172 24.7774 5.49128 24.8385 5.48194 24.8981C5.47261 24.9577 5.44486 25.0129 5.40258 25.0559L3.57859 26.8828C3.39068 27.0707 3.24161 27.2938 3.13991 27.5393C3.03821 27.7848 2.98587 28.0479 2.98587 28.3137C2.98587 28.5794 3.03821 28.8425 3.13991 29.0881C3.24161 29.3336 3.39068 29.5566 3.57859 29.7445L7.25836 33.4243C7.44626 33.6122 7.66933 33.7613 7.91483 33.863C8.16034 33.9647 8.42348 34.017 8.68922 34.017C8.95496 34.017 9.21809 33.9647 9.4636 33.863C9.70911 33.7613 9.93218 33.6122 10.1201 33.4243L11.9441 31.6003C11.9871 31.558 12.0423 31.5303 12.1019 31.5209C12.1615 31.5116 12.2226 31.5212 12.2765 31.5483C12.7333 31.7655 13.2013 31.9585 13.6784 32.1264C13.7354 32.1456 13.7849 32.1821 13.8202 32.2308C13.8554 32.2795 13.8746 32.338 13.875 32.3981V34.9766C13.875 35.5132 14.0882 36.0279 14.4677 36.4073C14.8471 36.7868 15.3618 37 15.8984 37H21.1016C21.6382 37 22.1529 36.7868 22.5323 36.4073C22.9118 36.0279 23.125 35.5132 23.125 34.9766V32.3952C23.1254 32.3351 23.1446 32.2767 23.1798 32.228C23.2151 32.1793 23.2646 32.1427 23.3216 32.1235C23.7987 31.9555 24.2667 31.7625 24.7235 31.5454C24.7774 31.5183 24.8385 31.5087 24.8981 31.5181C24.9577 31.5274 25.0129 31.5551 25.0559 31.5974L26.8828 33.4214C27.0707 33.6093 27.2938 33.7584 27.5393 33.8601C27.7848 33.9618 28.0479 34.0141 28.3137 34.0141C28.5794 34.0141 28.8425 33.9618 29.0881 33.8601C29.3336 33.7584 29.5566 33.6093 29.7445 33.4214L33.4243 29.7416C33.6122 29.5537 33.7613 29.3307 33.863 29.0852C33.9647 28.8397 34.017 28.5765 34.017 28.3108C34.017 28.045 33.9647 27.7819 33.863 27.5364C33.7613 27.2909 33.6122 27.0678 33.4243 26.8799L31.6003 25.0559C31.558 25.0129 31.5303 24.9577 31.5209 24.8981C31.5116 24.8385 31.5212 24.7774 31.5483 24.7235C31.7655 24.2667 31.9585 23.7987 32.1264 23.3216C32.1456 23.2646 32.1821 23.2151 32.2308 23.1798C32.2795 23.1446 32.338 23.1254 32.3981 23.125H34.9766C35.5132 23.125 36.0279 22.9118 36.4073 22.5323C36.7868 22.1529 37 21.6382 37 21.1016V15.8984C37 15.3618 36.7868 14.8471 36.4073 14.4677C36.0279 14.0882 35.5132 13.875 34.9766 13.875ZM35.2656 21.1016C35.2656 21.1782 35.2352 21.2518 35.181 21.306C35.1268 21.3602 35.0532 21.3906 34.9766 21.3906H32.3952C31.976 21.3911 31.5672 21.5218 31.2254 21.7647C30.8837 22.0075 30.6258 22.3505 30.4874 22.7463C30.3395 23.1654 30.1697 23.5765 29.9787 23.9777C29.7955 24.356 29.7347 24.7819 29.8046 25.1963C29.8745 25.6107 30.0718 25.993 30.3689 26.2902L32.1929 28.1142C32.2467 28.1684 32.2769 28.2416 32.2769 28.318C32.2769 28.3944 32.2467 28.4676 32.1929 28.5218L28.516 32.1958C28.4619 32.2496 28.3886 32.2798 28.3122 32.2798C28.2359 32.2798 28.1626 32.2496 28.1084 32.1958L26.2845 30.3718C25.9873 30.0747 25.6049 29.8774 25.1905 29.8075C24.7761 29.7376 24.3502 29.7984 23.972 29.9816C23.5697 30.1727 23.1577 30.3425 22.7377 30.4903C22.3424 30.6292 22 30.8872 21.7577 31.229C21.5154 31.5707 21.3851 31.9792 21.3848 32.3981V34.9766C21.3848 35.0532 21.3544 35.1268 21.3002 35.181C21.246 35.2352 21.1724 35.2656 21.0958 35.2656H15.8984C15.8218 35.2656 15.7482 35.2352 15.694 35.181C15.6398 35.1268 15.6094 35.0532 15.6094 34.9766V32.3952C15.6089 31.976 15.4782 31.5672 15.2353 31.2254C14.9925 30.8837 14.6495 30.6258 14.2537 30.4874C13.8346 30.3395 13.4235 30.1697 13.0223 29.9787C12.644 29.7955 12.2181 29.7347 11.8037 29.8046C11.3893 29.8745 11.007 30.0718 10.7098 30.3689L8.88578 32.1929C8.83162 32.2467 8.75836 32.2769 8.68199 32.2769C8.60563 32.2769 8.53236 32.2467 8.4782 32.1929L4.80422 28.516C4.75038 28.4619 4.72016 28.3886 4.72016 28.3122C4.72016 28.2359 4.75038 28.1626 4.80422 28.1084L6.6282 26.2845C6.92534 25.9873 7.12257 25.6049 7.1925 25.1905C7.26243 24.7761 7.2016 24.3502 7.01844 23.972C6.8273 23.5697 6.65749 23.1577 6.50969 22.7377C6.37005 22.344 6.11198 22.0031 5.77091 21.762C5.42985 21.5208 5.02249 21.3911 4.60477 21.3906H2.02344C1.94677 21.3906 1.87325 21.3602 1.81904 21.306C1.76483 21.2518 1.73438 21.1782 1.73438 21.1016V15.8984C1.73438 15.8218 1.76483 15.7482 1.81904 15.694C1.87325 15.6398 1.94677 15.6094 2.02344 15.6094H4.60477C5.02403 15.6089 5.4328 15.4782 5.77457 15.2353C6.11633 14.9925 6.37422 14.6495 6.51258 14.2537C6.66048 13.8346 6.8303 13.4235 7.02133 13.0223C7.20449 12.644 7.26533 12.2181 7.19539 11.8037C7.12546 11.3893 6.92824 11.007 6.63109 10.7098L4.80711 8.88578C4.75327 8.83162 4.72305 8.75836 4.72305 8.68199C4.72305 8.60563 4.75327 8.53236 4.80711 8.4782L8.48398 4.80422C8.53814 4.75038 8.61141 4.72016 8.68777 4.72016C8.76414 4.72016 8.8374 4.75038 8.89156 4.80422L10.7155 6.6282C11.0127 6.92534 11.3951 7.12257 11.8095 7.1925C12.2239 7.26243 12.6498 7.2016 13.028 7.01844C13.4303 6.8273 13.8423 6.65749 14.2623 6.50969C14.656 6.37005 14.9969 6.11198 15.238 5.77091C15.4792 5.42985 15.6089 5.02249 15.6094 4.60477V2.02344C15.6094 1.94677 15.6398 1.87325 15.694 1.81904C15.7482 1.76483 15.8218 1.73438 15.8984 1.73438H21.1016C21.1782 1.73438 21.2518 1.76483 21.306 1.81904C21.3602 1.87325 21.3906 1.94677 21.3906 2.02344V4.60477C21.3911 5.02403 21.5218 5.4328 21.7647 5.77457C22.0075 6.11633 22.3505 6.37422 22.7463 6.51258C23.1654 6.66048 23.5765 6.8303 23.9777 7.02133C24.356 7.20449 24.7819 7.26533 25.1963 7.19539C25.6107 7.12546 25.993 6.92824 26.2902 6.63109L28.1142 4.80711C28.1684 4.75327 28.2416 4.72305 28.318 4.72305C28.3944 4.72305 28.4676 4.75327 28.5218 4.80711L32.2016 8.48688C32.2554 8.54103 32.2856 8.6143 32.2856 8.69066C32.2856 8.76703 32.2554 8.84029 32.2016 8.89445L30.3776 10.7184C30.0804 11.0156 29.8832 11.398 29.8133 11.8124C29.7433 12.2268 29.8042 12.6527 29.9873 13.0309C30.1785 13.4332 30.3483 13.8452 30.4961 14.2652C30.6349 14.6605 30.893 15.0029 31.2348 15.2452C31.5765 15.4875 31.985 15.6178 32.4039 15.618H34.9766C35.0532 15.618 35.1268 15.6485 35.181 15.7027C35.2352 15.7569 35.2656 15.8304 35.2656 15.9071V21.1016Z" fill="#30A842"/>
</g>
<defs>
<clipPath id="clip0_62_1406">
<rect width="37" height="37" fill="white"/>
</clipPath>
</defs>
</svg>
