<svg width="40" height="40" viewBox="0 0 40 40" fill="none" xmlns="http://www.w3.org/2000/svg">
<g clip-path="url(#clip0_62_1398)">
<path d="M9.05469 22.5555C12.5685 21.2754 16.2715 20.6211 20.0021 20.6211C23.7326 20.6211 27.4353 21.2753 30.949 22.5553" stroke="#30A842" stroke-width="1.5" stroke-linecap="round" stroke-linejoin="round"/>
<path d="M5.02344 15.4333C9.78985 13.4973 14.8727 12.5029 20.0022 12.5029C25.1303 12.5029 30.2119 13.4968 34.9773 15.4318" stroke="#30A842" stroke-width="1.5" stroke-linecap="round" stroke-linejoin="round"/>
<path d="M1.01562 8.33886C7.01877 5.72964 13.4758 4.38477 19.9998 4.38477C26.5257 4.38477 32.9844 5.73039 38.9889 8.34098" stroke="#30A842" stroke-width="1.5" stroke-linecap="round" stroke-linejoin="round"/>
<path d="M20.0011 35.6142C22.2389 35.6142 24.053 33.7995 24.053 31.561C24.053 29.3225 22.2389 27.5078 20.0011 27.5078C17.7633 27.5078 15.9492 29.3225 15.9492 31.561C15.9492 33.7995 17.7633 35.6142 20.0011 35.6142Z" stroke="#30A842" stroke-width="1.5" stroke-linecap="round" stroke-linejoin="round"/>
</g>
<defs>
<clipPath id="clip0_62_1398">
<rect width="40" height="40" fill="white"/>
</clipPath>
</defs>
</svg>
