<svg width="44" height="44" viewBox="0 0 44 44" fill="none" xmlns="http://www.w3.org/2000/svg">
<path d="M26.3977 29.1508C26.0711 29.2367 25.7445 29.2711 25.4008 29.2711C23.1664 29.2711 21.3445 27.4492 21.3445 25.2148C21.3445 22.9805 23.1664 21.1586 25.4008 21.1586C25.7617 21.1586 26.0711 21.193 26.3805 21.2789C26.8273 21.3992 27.2914 21.1414 27.4289 20.6945C27.5492 20.2477 27.2914 19.7836 26.8445 19.6461C26.3977 19.5258 25.9336 19.457 25.418 19.457C22.2383 19.457 19.6602 22.0352 19.6602 25.2148C19.6602 28.3945 22.2383 30.9727 25.418 30.9727C25.8992 30.9727 26.3805 30.9039 26.8445 30.7836C27.2914 30.6633 27.5664 30.1992 27.4461 29.7523C27.3086 29.2883 26.8445 29.0305 26.3977 29.1508Z" fill="#30A842"/>
<path d="M32.5508 19.4395C29.3711 19.4395 26.793 22.0176 26.793 25.1973C26.793 28.377 29.3711 30.9551 32.5508 30.9551C35.7305 30.9551 38.3086 28.377 38.3086 25.1973C38.3086 22.0348 35.7305 19.4395 32.5508 19.4395ZM32.5508 29.2707C30.3164 29.2707 28.4945 27.4488 28.4945 25.2145C28.4945 22.9801 30.3164 21.1582 32.5508 21.1582C34.7852 21.1582 36.607 22.9801 36.607 25.2145C36.607 27.4488 34.7852 29.2707 32.5508 29.2707Z" fill="#30A842"/>
<path d="M39.7359 7.92383H4.26094C2.25 7.92383 0.617188 9.55664 0.617188 11.5676V32.4332C0.617188 34.4441 2.25 36.077 4.26094 36.077H39.7359C41.7469 36.077 43.3797 34.4441 43.3797 32.4332V11.5676C43.3797 9.55664 41.7469 7.92383 39.7359 7.92383ZM41.6953 32.4332C41.6953 33.4988 40.8187 34.3754 39.7359 34.3754H4.26094C3.17812 34.3754 2.30156 33.4988 2.30156 32.4332V11.5676C2.30156 10.4848 3.17812 9.62539 4.26094 9.62539H39.7359C40.8187 9.62539 41.6953 10.502 41.6953 11.5676V32.4332Z" fill="#30A842"/>
</svg>
