<svg width="43" height="43" viewBox="0 0 43 43" fill="none" xmlns="http://www.w3.org/2000/svg">
<g clip-path="url(#clip0_62_1405)">
<path d="M37.625 12.0938H14.7812C14.4249 12.0938 14.0831 11.9522 13.8311 11.7002C13.5791 11.4482 13.4375 11.1064 13.4375 10.75C13.4375 10.3936 13.5791 10.0518 13.8311 9.79983C14.0831 9.54782 14.4249 9.40625 14.7812 9.40625H37.625C37.9814 9.40625 38.3232 9.54782 38.5752 9.79983C38.8272 10.0518 38.9688 10.3936 38.9688 10.75C38.9688 11.1064 38.8272 11.4482 38.5752 11.7002C38.3232 11.9522 37.9814 12.0938 37.625 12.0938Z" fill="#30A842"/>
<path d="M9.40625 12.0938H5.375C5.01862 12.0938 4.67683 11.9522 4.42483 11.7002C4.17282 11.4482 4.03125 11.1064 4.03125 10.75C4.03125 10.3936 4.17282 10.0518 4.42483 9.79983C4.67683 9.54782 5.01862 9.40625 5.375 9.40625H9.40625C9.76263 9.40625 10.1044 9.54782 10.3564 9.79983C10.6084 10.0518 10.75 10.3936 10.75 10.75C10.75 11.1064 10.6084 11.4482 10.3564 11.7002C10.1044 11.9522 9.76263 12.0938 9.40625 12.0938Z" fill="#30A842"/>
<path d="M28.2188 22.8438H5.375C5.01862 22.8438 4.67683 22.7022 4.42483 22.4502C4.17282 22.1982 4.03125 21.8564 4.03125 21.5C4.03125 21.1436 4.17282 20.8018 4.42483 20.5498C4.67683 20.2978 5.01862 20.1562 5.375 20.1562H28.2188C28.5751 20.1562 28.9169 20.2978 29.1689 20.5498C29.4209 20.8018 29.5625 21.1436 29.5625 21.5C29.5625 21.8564 29.4209 22.1982 29.1689 22.4502C28.9169 22.7022 28.5751 22.8438 28.2188 22.8438Z" fill="#30A842"/>
<path d="M14.7812 33.5938H5.375C5.01862 33.5938 4.67683 33.4522 4.42483 33.2002C4.17282 32.9482 4.03125 32.6064 4.03125 32.25C4.03125 31.8936 4.17282 31.5518 4.42483 31.2998C4.67683 31.0478 5.01862 30.9062 5.375 30.9062H14.7812C15.1376 30.9062 15.4794 31.0478 15.7314 31.2998C15.9834 31.5518 16.125 31.8936 16.125 32.25C16.125 32.6064 15.9834 32.9482 15.7314 33.2002C15.4794 33.4522 15.1376 33.5938 14.7812 33.5938Z" fill="#30A842"/>
<path d="M12.0938 14.7813C11.2964 14.7813 10.517 14.5448 9.85411 14.1019C9.19117 13.6589 8.67448 13.0293 8.36936 12.2927C8.06425 11.5561 7.98441 10.7455 8.13996 9.96354C8.29551 9.18156 8.67945 8.46326 9.24323 7.89948C9.80701 7.3357 10.5253 6.95176 11.3073 6.79621C12.0893 6.64066 12.8998 6.7205 13.6364 7.02561C14.3731 7.33073 15.0027 7.84742 15.4456 8.51036C15.8886 9.17329 16.125 9.9527 16.125 10.75C16.125 11.8192 15.7003 12.8445 14.9443 13.6005C14.1883 14.3565 13.1629 14.7813 12.0938 14.7813ZM12.0938 9.40625C11.828 9.40625 11.5682 9.48506 11.3472 9.63271C11.1262 9.78037 10.954 9.99023 10.8523 10.2358C10.7506 10.4813 10.724 10.7515 10.7758 11.0122C10.8277 11.2728 10.9557 11.5122 11.1436 11.7002C11.3315 11.8881 11.5709 12.0161 11.8316 12.0679C12.0923 12.1198 12.3624 12.0932 12.608 11.9915C12.8535 11.8898 13.0634 11.7175 13.211 11.4966C13.3587 11.2756 13.4375 11.0158 13.4375 10.75C13.4375 10.3936 13.2959 10.0518 13.0439 9.79983C12.7919 9.54783 12.4501 9.40625 12.0938 9.40625Z" fill="#30A842"/>
<path d="M30.9063 25.5313C30.1089 25.5313 29.3295 25.2948 28.6666 24.8519C28.0037 24.4089 27.487 23.7793 27.1819 23.0427C26.8767 22.3061 26.7969 21.4955 26.9525 20.7135C27.108 19.9316 27.4919 19.2133 28.0557 18.6495C28.6195 18.0857 29.3378 17.7018 30.1198 17.5462C30.9018 17.3907 31.7123 17.4705 32.4489 17.7756C33.1856 18.0807 33.8152 18.5974 34.2581 19.2604C34.7011 19.9233 34.9375 20.7027 34.9375 21.5C34.9375 22.5692 34.5128 23.5945 33.7568 24.3505C33.0008 25.1065 31.9754 25.5313 30.9063 25.5313ZM30.9063 20.1563C30.6405 20.1563 30.3807 20.2351 30.1597 20.3827C29.9387 20.5304 29.7665 20.7402 29.6648 20.9858C29.5631 21.2313 29.5365 21.5015 29.5883 21.7622C29.6402 22.0228 29.7682 22.2623 29.9561 22.4502C30.144 22.6381 30.3834 22.7661 30.6441 22.8179C30.9048 22.8698 31.1749 22.8432 31.4205 22.7415C31.666 22.6398 31.8759 22.4675 32.0235 22.2466C32.1712 22.0256 32.25 21.7658 32.25 21.5C32.25 21.1436 32.1084 20.8018 31.8564 20.5498C31.6044 20.2978 31.2626 20.1563 30.9063 20.1563Z" fill="#30A842"/>
<path d="M17.4688 36.2813C16.6714 36.2813 15.892 36.0448 15.2291 35.6019C14.5662 35.1589 14.0495 34.5293 13.7444 33.7927C13.4392 33.0561 13.3594 32.2455 13.515 31.4635C13.6705 30.6816 14.0544 29.9633 14.6182 29.3995C15.182 28.8357 15.9003 28.4518 16.6823 28.2962C17.4643 28.1407 18.2748 28.2205 19.0114 28.5256C19.7481 28.8307 20.3777 29.3474 20.8206 30.0104C21.2636 30.6733 21.5 31.4527 21.5 32.25C21.5 33.3192 21.0753 34.3445 20.3193 35.1005C19.5633 35.8565 18.5379 36.2813 17.4688 36.2813ZM17.4688 30.9063C17.203 30.9063 16.9432 30.9851 16.7222 31.1327C16.5012 31.2804 16.329 31.4902 16.2273 31.7358C16.1256 31.9813 16.099 32.2515 16.1508 32.5122C16.2027 32.7728 16.3307 33.0123 16.5186 33.2002C16.7065 33.3881 16.9459 33.5161 17.2066 33.5679C17.4673 33.6198 17.7374 33.5932 17.983 33.4915C18.2285 33.3898 18.4384 33.2175 18.586 32.9966C18.7337 32.7756 18.8125 32.5158 18.8125 32.25C18.8125 31.8936 18.6709 31.5518 18.4189 31.2998C18.1669 31.0478 17.8251 30.9063 17.4688 30.9063Z" fill="#30A842"/>
<path d="M37.625 22.8438H33.5938C33.2374 22.8438 32.8956 22.7022 32.6436 22.4502C32.3916 22.1982 32.25 21.8564 32.25 21.5C32.25 21.1436 32.3916 20.8018 32.6436 20.5498C32.8956 20.2978 33.2374 20.1562 33.5938 20.1562H37.625C37.9814 20.1562 38.3232 20.2978 38.5752 20.5498C38.8272 20.8018 38.9688 21.1436 38.9688 21.5C38.9688 21.8564 38.8272 22.1982 38.5752 22.4502C38.3232 22.7022 37.9814 22.8438 37.625 22.8438Z" fill="#30A842"/>
<path d="M37.625 33.5938H20.1562C19.7999 33.5938 19.4581 33.4522 19.2061 33.2002C18.9541 32.9482 18.8125 32.6064 18.8125 32.25C18.8125 31.8936 18.9541 31.5518 19.2061 31.2998C19.4581 31.0478 19.7999 30.9062 20.1562 30.9062H37.625C37.9814 30.9062 38.3232 31.0478 38.5752 31.2998C38.8272 31.5518 38.9688 31.8936 38.9688 32.25C38.9688 32.6064 38.8272 32.9482 38.5752 33.2002C38.3232 33.4522 37.9814 33.5938 37.625 33.5938Z" fill="#30A842"/>
</g>
<defs>
<clipPath id="clip0_62_1405">
<rect width="43" height="43" fill="white"/>
</clipPath>
</defs>
</svg>
