<svg width="44" height="44" viewBox="0 0 44 44" fill="none" xmlns="http://www.w3.org/2000/svg">
<g clip-path="url(#clip0_62_1396)">
<path d="M22.0002 0.601562C21.9943 0.601562 21.9884 0.601562 21.9819 0.601562C21.9794 0.601562 21.9766 0.601562 21.9734 0.601562C21.965 0.601562 21.9567 0.603281 21.9483 0.603281C10.1532 0.630008 0.601562 10.1991 0.601562 22C0.601562 33.7976 10.1532 43.3684 21.9483 43.3967C21.9567 43.3967 21.965 43.3984 21.9734 43.3984C21.9766 43.3984 21.9793 43.3984 21.9819 43.3984C21.9884 43.3984 21.9943 43.3984 22.0002 43.3984C33.8159 43.3984 43.3984 33.8159 43.3984 22C43.3984 10.1824 33.8159 0.601562 22.0002 0.601562ZM22.8557 13.4072C25.1243 13.3453 27.3327 13.0461 29.4574 12.5279C30.0994 15.0506 30.4957 17.9578 30.5591 21.1441H22.8556L22.8557 13.4072ZM22.8557 11.6953V2.44888C25.1644 3.08748 27.5015 6.16352 28.9912 10.8812C27.0151 11.3576 24.9638 11.6352 22.8557 11.6953ZM21.1442 2.42877V11.6953C19.0195 11.6352 16.9514 11.3526 14.9596 10.8678C16.4616 6.12167 18.8213 3.03394 21.1442 2.42877ZM21.1442 13.4055V21.144H13.3881C13.4508 17.9526 13.8495 15.0421 14.4906 12.5177C16.6329 13.041 18.8573 13.3453 21.1442 13.4055ZM11.6653 21.1441H2.33518C2.52407 16.7441 4.16324 12.7118 6.78786 9.51869C8.6937 10.5686 10.7157 11.4279 12.8339 12.0698C12.1426 14.7997 11.728 17.8774 11.6653 21.1441ZM11.6653 22.8559C11.728 26.1209 12.1426 29.1986 12.834 31.9285C10.7166 32.5721 8.69378 33.4314 6.78795 34.4812C4.16333 31.2882 2.52416 27.256 2.33527 22.8559H11.6653ZM13.3881 22.8559H21.1442V30.5845C18.8574 30.6446 16.6322 30.9506 14.4898 31.4755C13.8487 28.9529 13.4508 26.044 13.3881 22.8559ZM21.1442 32.2946V41.5712C18.8197 40.9643 16.4583 37.8733 14.9571 33.1221C16.9497 32.6373 19.0186 32.3549 21.1442 32.2946ZM22.8557 41.5511V32.2946C24.9638 32.3549 27.0151 32.634 28.9928 33.1104C27.5032 37.8315 25.1644 40.9125 22.8557 41.5511ZM22.8557 30.5845V22.8559H30.5592C30.4958 26.0389 30.0994 28.9427 29.4608 31.4638C27.3327 30.9455 25.126 30.6446 22.8557 30.5845ZM32.2811 22.8559H41.6647C41.4759 27.256 39.8375 31.2867 37.2129 34.4797C35.2919 33.4231 33.2524 32.5572 31.1159 31.9119C31.8062 29.1851 32.2192 26.1142 32.2811 22.8559ZM32.2811 21.1441C32.2192 17.8808 31.8046 14.8081 31.1143 12.0798C33.2491 11.4345 35.2888 10.5702 37.2079 9.51371C39.8359 12.7067 41.4759 16.7407 41.6647 21.1441H32.2811ZM36.0293 8.20634C34.3258 9.11238 32.5285 9.86133 30.6512 10.4298C29.6498 7.20998 28.2454 4.58202 26.5837 2.85673C30.2282 3.73115 33.4831 5.61679 36.0293 8.20634ZM17.3485 2.87349C15.696 4.59542 14.2976 7.2117 13.3004 10.4148C11.4413 9.84801 9.6592 9.10577 7.97165 8.20634C10.5009 5.63355 13.7308 3.7528 17.3485 2.87349ZM7.96572 35.787C9.65499 34.8859 11.4379 34.1437 13.2987 33.5769C14.2959 36.7833 15.6943 39.4029 17.3485 41.1265C13.7283 40.2456 10.4967 38.3631 7.96572 35.787ZM26.5837 41.1415C28.2472 39.4163 29.6514 36.7866 30.6529 33.5618C32.5319 34.132 34.3307 34.8792 36.0344 35.7886C33.4881 38.3799 30.2315 40.2689 26.5837 41.1415Z" fill="#30A842"/>
</g>
<defs>
<clipPath id="clip0_62_1396">
<rect width="44" height="44" fill="white"/>
</clipPath>
</defs>
</svg>
