<svg width="45" height="45" viewBox="0 0 45 45" fill="none" xmlns="http://www.w3.org/2000/svg">
<path d="M41.3984 24.4803H34.5044L40.3364 6.97529C40.4116 6.74853 40.3937 6.50119 40.2865 6.28768C40.1793 6.07417 39.9917 5.91198 39.7649 5.83679C39.5382 5.7616 39.2908 5.77957 39.0773 5.88675C38.8638 5.99393 38.7016 6.18153 38.6264 6.40829L32.6144 24.4803H12.3824L6.37044 6.40829C6.29525 6.18153 6.13306 5.99393 5.91955 5.88675C5.81383 5.83368 5.69869 5.80196 5.58071 5.79338C5.46273 5.78481 5.34422 5.79956 5.23194 5.83679C5.00518 5.91198 4.81757 6.07417 4.7104 6.28768C4.65733 6.3934 4.6256 6.50854 4.61703 6.62652C4.60846 6.7445 4.62321 6.86301 4.66044 6.97529L10.4924 24.4803H3.59844C2.88235 24.4803 2.1956 24.7648 1.68925 25.2711C1.1829 25.7775 0.898438 26.4642 0.898438 27.1803V36.5043C0.898438 37.2204 1.1829 37.9071 1.68925 38.4135C2.1956 38.9198 2.88235 39.2043 3.59844 39.2043H41.3984C42.1145 39.2043 42.8013 38.9198 43.3076 38.4135C43.814 37.9071 44.0984 37.2204 44.0984 36.5043V27.1803C44.0984 26.4642 43.814 25.7775 43.3076 25.2711C42.8013 24.7648 42.1145 24.4803 41.3984 24.4803ZM42.2984 36.5043C42.2984 36.743 42.2036 36.9719 42.0348 37.1407C41.866 37.3095 41.6371 37.4043 41.3984 37.4043H3.59844C3.35974 37.4043 3.13082 37.3095 2.96204 37.1407C2.79326 36.9719 2.69844 36.743 2.69844 36.5043V27.1803C2.69844 26.9416 2.79326 26.7127 2.96204 26.5439C3.13082 26.3751 3.35974 26.2803 3.59844 26.2803H41.3984C41.6371 26.2803 41.866 26.3751 42.0348 26.5439C42.2036 26.7127 42.2984 26.9416 42.2984 27.1803V36.5043Z" fill="#30A842"/>
<path d="M29.0624 15.1022C29.2411 15.1032 29.4162 15.051 29.5651 14.9522C29.7141 14.8534 29.8303 14.7124 29.8988 14.5473C29.9674 14.3822 29.9852 14.2005 29.95 14.0252C29.9149 13.8499 29.8283 13.6891 29.7014 13.5632C27.7899 11.6572 25.2007 10.5869 22.5014 10.5869C19.802 10.5869 17.2128 11.6572 15.3014 13.5632C15.217 13.6469 15.1501 13.7464 15.1044 13.8561C15.0587 13.9657 15.0352 14.0834 15.0352 14.2022C15.0352 14.321 15.0587 14.4386 15.1044 14.5483C15.1501 14.658 15.217 14.7575 15.3014 14.8412C15.47 15.0088 15.6981 15.1029 15.9359 15.1029C16.1736 15.1029 16.4017 15.0088 16.5704 14.8412C18.1457 13.2727 20.2783 12.392 22.5014 12.392C24.7245 12.392 26.857 13.2727 28.4324 14.8412C28.6 15.0075 28.8263 15.1012 29.0624 15.1022Z" fill="#30A842"/>
<path d="M12.7728 11.9428C13.0094 11.949 13.239 11.8617 13.4118 11.6998C15.8245 9.29258 19.0935 7.94069 22.5018 7.94069C25.91 7.94069 29.179 9.29258 31.5918 11.6998C31.7604 11.8674 31.9885 11.9615 32.2263 11.9615C32.464 11.9615 32.6921 11.8674 32.8608 11.6998C32.9451 11.6161 33.0121 11.5166 33.0578 11.4069C33.1035 11.2972 33.127 11.1796 33.127 11.0608C33.127 10.942 33.1035 10.8243 33.0578 10.7147C33.0121 10.605 32.9451 10.5054 32.8608 10.4218C30.1127 7.68262 26.3908 6.14453 22.5108 6.14453C18.6307 6.14453 14.9088 7.68262 12.1608 10.4218C12.0344 10.5471 11.948 10.7071 11.9126 10.8816C11.8771 11.056 11.8942 11.237 11.9616 11.4017C12.0291 11.5665 12.1438 11.7075 12.2914 11.807C12.439 11.9065 12.6128 11.96 12.7908 11.9608L12.7728 11.9428Z" fill="#30A842"/>
<path d="M18.899 17.1724C18.8147 17.2561 18.7477 17.3556 18.702 17.4653C18.6563 17.575 18.6328 17.6926 18.6328 17.8114C18.6328 17.9303 18.6563 18.0479 18.702 18.1576C18.7477 18.2672 18.8147 18.3668 18.899 18.4504C19.0677 18.6181 19.2958 18.7122 19.5335 18.7122C19.7713 18.7122 19.9994 18.6181 20.168 18.4504C20.7929 17.8519 21.6248 17.5179 22.49 17.5179C23.3553 17.5179 24.1871 17.8519 24.812 18.4504C24.9797 18.6167 25.2059 18.7104 25.442 18.7114C25.5635 18.7145 25.6843 18.693 25.7972 18.6481C25.9101 18.6033 26.0128 18.536 26.099 18.4504C26.1834 18.3668 26.2503 18.2672 26.296 18.1576C26.3417 18.0479 26.3652 17.9303 26.3652 17.8114C26.3652 17.6926 26.3417 17.575 26.296 17.4653C26.2503 17.3556 26.1834 17.2561 26.099 17.1724C25.6267 16.6989 25.0656 16.3233 24.4478 16.067C23.8301 15.8106 23.1678 15.6787 22.499 15.6787C21.8302 15.6787 21.168 15.8106 20.5502 16.067C19.9325 16.3233 19.3714 16.6989 18.899 17.1724Z" fill="#30A842"/>
<path d="M12.6616 31.5H10.9156C10.6769 31.5 10.448 31.5948 10.2792 31.7636C10.1104 31.9324 10.0156 32.1613 10.0156 32.4C10.0156 32.6387 10.1104 32.8676 10.2792 33.0364C10.448 33.2052 10.6769 33.3 10.9156 33.3H12.6616C12.9003 33.3 13.1292 33.2052 13.298 33.0364C13.4668 32.8676 13.5616 32.6387 13.5616 32.4C13.5616 32.1613 13.4668 31.9324 13.298 31.7636C13.1292 31.5948 12.9003 31.5 12.6616 31.5Z" fill="#30A842"/>
<path d="M19.8011 31.5H18.0641C17.8254 31.5 17.5965 31.5948 17.4277 31.7636C17.2589 31.9324 17.1641 32.1613 17.1641 32.4C17.1641 32.6387 17.2589 32.8676 17.4277 33.0364C17.5965 33.2052 17.8254 33.3 18.0641 33.3H19.8011C20.0398 33.3 20.2687 33.2052 20.4375 33.0364C20.6062 32.8676 20.7011 32.6387 20.7011 32.4C20.7011 32.1613 20.6062 31.9324 20.4375 31.7636C20.2687 31.5948 20.0398 31.5 19.8011 31.5Z" fill="#30A842"/>
<path d="M26.9378 31.5H25.2008C24.9621 31.5 24.7332 31.5948 24.5644 31.7636C24.3956 31.9324 24.3008 32.1613 24.3008 32.4C24.3008 32.6387 24.3956 32.8676 24.5644 33.0364C24.7332 33.2052 24.9621 33.3 25.2008 33.3H26.9378C27.1765 33.3 27.4054 33.2052 27.5742 33.0364C27.743 32.8676 27.8378 32.6387 27.8378 32.4C27.8378 32.1613 27.743 31.9324 27.5742 31.7636C27.4054 31.5948 27.1765 31.5 26.9378 31.5Z" fill="#30A842"/>
<path d="M34.0745 31.5H32.3375C32.0988 31.5 31.8699 31.5948 31.7011 31.7636C31.5323 31.9324 31.4375 32.1613 31.4375 32.4C31.4375 32.6387 31.5323 32.8676 31.7011 33.0364C31.8699 33.2052 32.0988 33.3 32.3375 33.3H34.0745C34.3132 33.3 34.5421 33.2052 34.7109 33.0364C34.8797 32.8676 34.9745 32.6387 34.9745 32.4C34.9745 32.1613 34.8797 31.9324 34.7109 31.7636C34.5421 31.5948 34.3132 31.5 34.0745 31.5Z" fill="#30A842"/>
</svg>
