<svg width="144" height="165" viewBox="0 0 144 165" fill="none" xmlns="http://www.w3.org/2000/svg">
<path opacity="0.5" d="M69.1786 123.586L48.2253 111.414C46.9438 110.642 47.072 109.354 48.6098 108.517L68.8582 96.7962C70.332 95.959 72.5747 95.8302 73.8562 96.603L94.8094 108.774C96.091 109.547 95.9628 110.835 94.425 111.672L74.1766 123.392C72.7028 124.23 70.4601 124.294 69.1786 123.586Z" fill="#6C6C6C"/>
<path d="M101.73 99.4373V90.3572H81.4176L74.3692 86.3002C72.7672 85.3342 69.9478 85.463 68.0896 86.5578L61.5537 90.3572H41.2413V99.6949C41.1772 100.339 41.5616 100.918 42.3306 101.369L68.6022 116.567C70.2041 117.533 73.0235 117.404 74.8818 116.309L100.192 101.627C101.282 100.983 101.794 100.21 101.73 99.4373Z" fill="#929292"/>
<path d="M71.5501 85.5918C70.3968 85.5918 69.1793 85.9138 68.1541 86.4934L61.6182 90.2928H41.3057V99.6305C41.2416 100.274 41.6261 100.854 42.395 101.305L68.6667 116.503C69.4356 116.953 70.5249 117.147 71.6142 117.147V85.5918H71.5501Z" fill="#929292"/>
<path d="M43.548 90.293H41.2413V99.6306C41.1772 100.275 41.5616 100.854 42.3306 101.305L43.548 102.013V90.293Z" fill="#B0B0B0"/>
<path d="M68.9863 116.761C70.396 117.341 72.3824 117.341 73.9843 116.697V106.071H68.9863V116.761Z" fill="#B0B0B0"/>
<path d="M68.6021 107.23L42.3305 92.0322C40.7286 91.0662 40.9208 89.4563 42.779 88.3615L68.0895 73.6789C69.9477 72.5841 72.7671 72.4553 74.3691 73.4213L100.641 88.6191C102.243 89.5851 102.05 91.195 100.192 92.2897L74.8817 106.972C73.0235 108.067 70.2041 108.196 68.6021 107.23Z" fill="#E3E3E3"/>
<path d="M69.0502 104.525L47.0717 91.7742C45.7261 91.0014 45.9183 89.6491 47.4562 88.7475L68.6657 76.4475C70.2036 75.546 72.5744 75.4172 73.9201 76.2544L95.8985 89.0051C97.2441 89.7778 97.0519 91.1302 95.5141 92.0318L74.3045 104.332C72.7667 105.169 70.3958 105.298 69.0502 104.525Z" fill="#B0B0B0"/>
<path d="M92.1181 101.819C92.1181 102.527 91.6695 103.3 91.0288 103.687C90.4521 104.009 89.9395 103.751 89.9395 103.043C89.9395 102.334 90.388 101.562 91.0288 101.175C91.6055 100.853 92.1181 101.175 92.1181 101.819Z" fill="#E3E3E3"/>
<path d="M95.5126 99.8875C95.5126 100.596 95.0641 101.369 94.4233 101.755C93.8466 102.077 93.334 101.819 93.334 101.111C93.334 100.403 93.7825 99.6299 94.4233 99.2435C95.0641 98.9215 95.5126 99.1791 95.5126 99.8875Z" fill="#E3E3E3"/>
<path d="M98.9111 97.8914C98.9111 98.5998 98.4625 99.3725 97.8217 99.7589C97.245 100.081 96.7324 99.8233 96.7324 99.1149C96.7324 98.4066 97.181 97.6338 97.8217 97.2474C98.4625 96.9254 98.9111 97.183 98.9111 97.8914Z" fill="#E3E3E3"/>
<path d="M101.73 84.8826V75.8025H81.4176L74.3692 71.7455C72.7672 70.7795 69.9478 70.9083 68.0896 72.0031L61.5537 75.8025H41.2413V85.1402C41.1772 85.7841 41.5616 86.3637 42.3306 86.8145L68.6022 102.012C70.2041 102.978 73.0235 102.85 74.8818 101.755L100.192 87.0721C101.282 86.4281 101.794 85.6554 101.73 84.8826Z" fill="#929292"/>
<path d="M71.5501 71.1006C70.3968 71.1006 69.1793 71.4226 68.1541 72.0021L61.6182 75.8016H41.3057V85.1392C41.2416 85.7832 41.6261 86.3628 42.395 86.8136L68.6667 102.011C69.4356 102.462 70.5249 102.655 71.6142 102.655V71.1006H71.5501Z" fill="#929292"/>
<path d="M43.548 75.7383H41.2413V85.0759C41.1772 85.7199 41.5616 86.2995 42.3306 86.7503L43.548 87.4586V75.7383Z" fill="#B0B0B0"/>
<path d="M68.9863 102.206C70.396 102.785 72.3824 102.785 73.9843 102.141V91.5156H68.9863V102.206Z" fill="#B0B0B0"/>
<path d="M68.6021 92.7388L42.3305 77.541C40.7286 76.575 40.9208 74.965 42.779 73.8703L68.0895 59.1876C69.9477 58.0929 72.7671 57.9641 74.3691 58.93L100.641 74.1279C102.243 75.0938 102.05 76.7038 100.192 77.7985L74.8817 92.4812C73.0235 93.5115 70.2041 93.6403 68.6021 92.7388Z" fill="#E3E3E3"/>
<path d="M69.0502 89.9702L47.0717 77.2195C45.7261 76.4467 45.9183 75.0944 47.4562 74.1928L68.6657 61.8929C70.2036 60.9913 72.5744 60.8625 73.9201 61.6997L95.8985 74.4504C97.2441 75.2232 97.0519 76.5755 95.5141 77.4771L74.3045 89.777C72.7667 90.6786 70.3958 90.743 69.0502 89.9702Z" fill="#B0B0B0"/>
<path d="M92.1181 87.2651C92.1181 87.9735 91.6695 88.7463 91.0288 89.1327C90.4521 89.4547 89.9395 89.1971 89.9395 88.4887C89.9395 87.7803 90.388 87.0076 91.0288 86.6212C91.6055 86.3636 92.1181 86.6212 92.1181 87.2651Z" fill="#E3E3E3"/>
<path d="M95.5126 85.3328C95.5126 86.0412 95.0641 86.8139 94.4233 87.2003C93.8466 87.5223 93.334 87.2647 93.334 86.5564C93.334 85.848 93.7825 85.0752 94.4233 84.6888C95.0641 84.3668 95.5126 84.6244 95.5126 85.3328Z" fill="#E3E3E3"/>
<path d="M98.9111 83.3367C98.9111 84.0451 98.4625 84.8178 97.8217 85.2042C97.245 85.5262 96.7324 85.2686 96.7324 84.5602C96.7324 83.8519 97.181 83.0791 97.8217 82.6927C98.4625 82.3707 98.9111 82.6283 98.9111 83.3367Z" fill="#E3E3E3"/>
<path d="M101.73 70.3289V61.2488H81.4176L74.3692 57.1918C72.7672 56.2258 69.9478 56.3546 68.0896 57.4494L61.5537 61.2488H41.2413V70.5865C41.1772 71.2304 41.5616 71.81 42.3306 72.2608L68.6022 87.4586C70.2041 88.4246 73.0235 88.2958 74.8818 87.201L100.192 72.5184C101.282 71.8744 101.794 71.1016 101.73 70.3289Z" fill="#929292"/>
<path d="M71.5501 56.5479C70.3968 56.5479 69.1793 56.8698 68.1541 57.4494L61.6182 61.2489H41.3057V70.5865C41.2416 71.2305 41.6261 71.8101 42.395 72.2609L68.6667 87.4587C69.4356 87.9095 70.5249 88.1027 71.6142 88.1027V56.5479H71.5501Z" fill="#929292"/>
<path d="M43.548 61.1836H41.2413V70.5212C41.1772 71.1652 41.5616 71.7448 42.3306 72.1956L43.548 72.9039V61.1836Z" fill="#B0B0B0"/>
<path d="M68.9863 87.7164C70.396 88.2959 72.3824 88.2959 73.9843 87.652V77.0264H68.9863V87.7164Z" fill="#B0B0B0"/>
<path d="M68.6021 78.1851L42.3305 62.9872C40.7286 62.0213 40.9208 60.4113 42.779 59.3166L68.0895 44.6339C69.9477 43.5392 72.7671 43.4104 74.3691 44.3763L100.641 59.5742C102.243 60.5401 102.05 62.1501 100.192 63.2448L74.8817 77.9275C73.0235 78.9578 70.2041 79.0866 68.6021 78.1851Z" fill="#E3E3E3"/>
<path d="M69.0502 75.4165L47.0717 62.6658C45.7261 61.893 45.9183 60.5407 47.4562 59.6391L68.6657 47.3392C70.2036 46.4376 72.5744 46.3088 73.9201 47.146L95.8985 59.8967C97.2441 60.6694 97.0519 62.0218 95.5141 62.9234L74.3686 75.2233C72.7667 76.1249 70.3958 76.1893 69.0502 75.4165Z" fill="#B0B0B0"/>
<path d="M92.1181 72.7762C92.1181 73.4845 91.6695 74.2573 91.0288 74.6437C90.4521 74.9657 89.9395 74.7081 89.9395 73.9997C89.9395 73.2913 90.388 72.5186 91.0288 72.1322C91.6055 71.8102 92.1181 72.0678 92.1181 72.7762Z" fill="#E3E3E3"/>
<path d="M95.5126 70.7801C95.5126 71.4884 95.0641 72.2612 94.4233 72.6476C93.8466 72.9696 93.334 72.712 93.334 72.0036C93.334 71.2952 93.7825 70.5225 94.4233 70.1361C95.0641 69.8141 95.5126 70.0717 95.5126 70.7801Z" fill="#E3E3E3"/>
<path d="M98.9111 68.784C98.9111 69.4923 98.4625 70.2651 97.8217 70.6515C97.245 70.9735 96.7324 70.7159 96.7324 70.0075C96.7324 69.2991 97.181 68.5264 97.8217 68.14C98.4625 67.818 98.9111 68.14 98.9111 68.784Z" fill="#E3E3E3"/>
<path d="M101.73 55.7752V46.6951H81.4176L74.3692 42.6381C72.7672 41.6721 69.9478 41.8009 68.0896 42.8957L61.5537 46.6951H41.2413V56.0328C41.1772 56.6767 41.5616 57.2563 42.3306 57.7071L68.6022 72.9049C70.2041 73.8709 73.0235 73.7421 74.8818 72.6473L100.192 57.9647C101.282 57.3851 101.794 56.5479 101.73 55.7752Z" fill="#929292"/>
<path d="M71.5501 41.9932C70.3968 41.9932 69.1793 42.3152 68.1541 42.8947L61.6182 46.6942H41.3057V56.0318C41.2416 56.6758 41.6261 57.2554 42.395 57.7062L68.6667 72.904C69.4356 73.3548 70.5249 73.548 71.6142 73.548V41.9932H71.5501Z" fill="#929292"/>
<path d="M43.548 46.6953H41.2413V56.033C41.1772 56.6769 41.5616 57.2565 42.3306 57.7073L43.548 58.4157V46.6953Z" fill="#B0B0B0"/>
<path d="M68.9863 73.1627C70.396 73.7422 72.3824 73.7422 73.9843 73.0983V62.4727H68.9863V73.1627Z" fill="#B0B0B0"/>
<path d="M68.6021 63.6314L42.3305 48.4335C40.7286 47.4676 40.9208 45.8576 42.779 44.7629L68.0895 30.0802C69.9477 28.9855 72.7671 28.8567 74.3691 29.8226L100.641 45.0205C102.243 45.9864 102.05 47.5964 100.192 48.6911L74.8817 63.3738C73.0235 64.4685 70.2041 64.5329 68.6021 63.6314Z" fill="#E3E3E3"/>
<path d="M69.0502 60.8628L47.0717 48.1121C45.7261 47.3393 45.9183 45.9869 47.4562 45.0854L68.6657 32.7854C70.2036 31.8839 72.5744 31.7551 73.9201 32.5922L95.8985 45.343C97.2441 46.1157 97.0519 47.4681 95.5141 48.3697L74.3045 60.6696C72.7667 61.5711 70.3958 61.6355 69.0502 60.8628Z" fill="#B0B0B0"/>
<path d="M92.1181 58.2215C92.1181 58.9298 91.6695 59.7026 91.0288 60.089C90.4521 60.411 89.9395 60.1534 89.9395 59.445C89.9395 58.7366 90.388 57.9639 91.0288 57.5775C91.6055 57.2555 92.1181 57.5131 92.1181 58.2215Z" fill="#E3E3E3"/>
<path d="M95.5126 56.2254C95.5126 56.9337 95.0641 57.7065 94.4233 58.0929C93.8466 58.4149 93.334 58.1573 93.334 57.4489C93.334 56.7405 93.7825 55.9678 94.4233 55.5814C95.0641 55.2594 95.5126 55.517 95.5126 56.2254Z" fill="#E3E3E3"/>
<path d="M98.9111 54.2293C98.9111 54.9377 98.4625 55.7104 97.8217 56.0968C97.245 56.4188 96.7324 56.1612 96.7324 55.4528C96.7324 54.7445 97.181 53.9717 97.8217 53.5853C98.4625 53.2633 98.9111 53.5853 98.9111 54.2293Z" fill="#E3E3E3"/>
<path d="M101.73 41.2849V32.2049H81.4176L74.3692 28.1478C72.7672 27.1819 69.9478 27.3107 68.0896 28.4054L61.5537 32.2049H41.2413V41.5425C41.1772 42.1865 41.5616 42.7661 42.3306 43.2169L68.6022 58.4147C70.2041 59.3806 73.0235 59.2519 74.8818 58.1571L100.192 43.4744C101.282 42.8305 101.794 41.9933 101.73 41.2849Z" fill="#929292"/>
<path d="M71.5501 27.4395C70.3968 27.4395 69.1793 27.7614 68.1541 28.341L61.6182 32.1405H41.3057V41.4781C41.2416 42.1221 41.6261 42.7017 42.395 43.1525L68.6667 58.3503C69.4356 58.8011 70.5249 58.9943 71.6142 58.9943V27.4395H71.5501Z" fill="#6C6C6C"/>
<path d="M43.548 32.1406H41.2413V41.4783C41.1772 42.1222 41.5616 42.7018 42.3306 43.1526L43.548 43.861V32.1406Z" fill="#B0B0B0"/>
<path d="M68.9863 58.6089C70.396 59.1885 72.3824 59.1885 73.9843 58.5445V47.9189H68.9863V58.6089Z" fill="#B0B0B0"/>
<path d="M68.6021 49.0776L42.3305 33.8798C40.7286 32.9138 40.9208 31.3039 42.779 30.2092L68.0895 15.5265C69.9477 14.4318 72.7671 14.303 74.3691 15.2689L100.641 30.4667C102.243 31.4327 102.05 33.0426 100.192 34.1374L74.8817 48.82C73.0235 49.9148 70.2041 50.0436 68.6021 49.0776Z" fill="#E3E3E3"/>
<path d="M69.0502 46.3091L47.0717 33.5584C45.7261 32.7856 45.9183 31.4332 47.4562 30.5317L68.6657 18.2317C70.2036 17.3302 72.5744 17.2014 73.9201 18.0385L95.8985 30.7893C97.2441 31.562 97.0519 32.9144 95.5141 33.8159L74.3045 46.1159C72.7667 47.0174 70.3958 47.1462 69.0502 46.3091Z" fill="#B0B0B0"/>
<path d="M91.0518 44.1522L80.5098 50.2725L80.7341 50.6628L91.2762 44.5426L91.0518 44.1522Z" fill="white"/>
<path d="M92.1181 43.6678C92.1181 44.3761 91.6695 45.1489 91.0288 45.5353C90.4521 45.8573 89.9395 45.5997 89.9395 44.8913C89.9395 44.1829 90.388 43.4102 91.0288 43.0238C91.6055 42.7018 92.1181 42.9594 92.1181 43.6678Z" fill="#E3E3E3"/>
<path d="M95.5126 41.6717C95.5126 42.38 95.0641 43.1528 94.4233 43.5392C93.8466 43.8612 93.334 43.6036 93.334 42.8952C93.334 42.1868 93.7825 41.4141 94.4233 41.0277C95.0641 40.7057 95.5126 41.0277 95.5126 41.6717Z" fill="#E3E3E3"/>
<path d="M98.9091 39.6753C98.9091 40.3837 98.4606 41.1564 97.8198 41.5428C97.2431 41.8648 96.7305 41.6072 96.7305 40.8989C96.7305 40.1905 97.179 39.4177 97.8198 39.0313C98.4606 38.7737 98.9091 39.0313 98.9091 39.6753Z" fill="#E3E3E3"/>
<path d="M101.73 26.6033V17.5232H81.4176L74.3692 13.4662C72.7672 12.5002 69.9478 12.629 68.0896 13.7238L61.5537 17.5232H41.2413V26.8609C41.1772 27.5049 41.5616 28.0844 42.3306 28.5352L68.6022 43.733C70.2041 44.699 73.0235 44.5702 74.8818 43.4754L100.192 28.7928C101.282 28.1488 101.794 27.3761 101.73 26.6033Z" fill="#929292"/>
<path d="M71.5501 12.8213C70.3968 12.8213 69.1793 13.1433 68.1541 13.7229L61.6182 17.5223H41.3057V26.86C41.2416 27.5039 41.6261 28.0835 42.395 28.5343L68.6667 43.7321C69.4356 44.1829 70.5249 44.3761 71.6142 44.3761V12.8213H71.5501Z" fill="#6C6C6C"/>
<path d="M43.548 17.459H41.2413V26.7966C41.1772 27.4406 41.5616 28.0202 42.3306 28.471L43.548 29.1793V17.459Z" fill="#B0B0B0"/>
<path d="M68.9863 43.9908C70.396 44.5704 72.3824 44.5704 73.9843 43.9264V33.3008H68.9863V43.9908Z" fill="#B0B0B0"/>
<path d="M68.6021 34.4595L42.3305 19.2617C40.7286 18.2957 40.9208 16.6858 42.779 15.591L68.0895 0.908345C69.9477 -0.186413 72.7671 -0.31521 74.3691 0.650754L100.641 15.8486C102.243 16.8145 102.05 18.4245 100.192 19.5192L74.8817 34.2019C73.0235 35.2323 70.2041 35.361 68.6021 34.4595Z" fill="#E3E3E3"/>
<path d="M100.257 17.6514L74.9467 32.334C73.0884 33.4288 70.269 33.5576 68.6671 32.5916L42.3955 17.3938C42.011 17.2006 41.7547 16.943 41.5625 16.6854C40.9858 17.587 41.2421 18.553 42.3955 19.1969L68.6671 34.3948C70.269 35.3607 73.0884 35.2319 74.9467 34.1372L100.257 19.4545C101.731 18.6174 102.115 17.4582 101.539 16.5566C101.218 16.943 100.834 17.3294 100.257 17.6514Z" fill="white"/>
<path d="M92.12 28.9858C92.12 29.6942 91.6715 30.467 91.0307 30.8534C90.454 31.1754 89.9414 30.9178 89.9414 30.2094C89.9414 29.501 90.3899 28.7283 91.0307 28.3419C91.6074 28.0843 92.12 28.3419 92.12 28.9858Z" fill="#E3E3E3"/>
<path d="M81.6767 34.782C81.6767 35.4904 81.2281 36.2632 80.5874 36.6495C80.0107 36.9715 79.498 36.7139 79.498 36.0056C79.498 35.2972 79.9466 34.5244 80.5874 34.138C81.1641 33.816 81.6767 34.138 81.6767 34.782Z" fill="#E3E3E3"/>
<path d="M81.6767 49.8511C81.6767 50.5595 81.2281 51.3322 80.5874 51.7186C80.0107 52.0406 79.498 51.783 79.498 51.0746C79.498 50.3663 79.9466 49.5935 80.5874 49.2071C81.1641 48.9495 81.6767 49.2071 81.6767 49.8511Z" fill="white"/>
<path d="M95.5185 27.0535C95.5185 27.7619 95.0699 28.5346 94.4292 28.921C93.8525 29.243 93.3398 28.9854 93.3398 28.2771C93.3398 27.5687 93.7884 26.7959 94.4292 26.4095C95.0699 26.0875 95.5185 26.3451 95.5185 27.0535Z" fill="#E3E3E3"/>
<path d="M98.915 25.0574C98.915 25.7658 98.4664 26.5385 97.8256 26.9249C97.249 27.2469 96.7363 26.9893 96.7363 26.281C96.7363 25.5726 97.1849 24.7998 97.8256 24.4134C98.4664 24.0914 98.915 24.349 98.915 25.0574Z" fill="#E3E3E3"/>
<path d="M70.1396 24.9938L57.8368 17.8457C57.0678 17.3949 57.196 16.6222 58.029 16.1714L69.8833 9.28083C70.7803 8.76565 72.0619 8.70126 72.8308 9.15204L85.1336 16.3002C85.9026 16.751 85.7744 17.5237 84.9414 17.9745L73.0871 24.865C72.2541 25.3802 70.9085 25.4446 70.1396 24.9938Z" fill="#6C6C6C"/>
<path d="M71.3568 19.0044L69.6267 18.0384C69.4986 17.9741 69.5626 17.8453 69.6267 17.7809L71.2927 16.8149C71.4209 16.7505 71.6131 16.7505 71.6772 16.8149L73.4073 17.7809C73.5354 17.8453 73.4714 17.9741 73.4073 18.0384L71.7413 19.0044C71.6131 19.0688 71.4209 19.0688 71.3568 19.0044Z" fill="#E3E3E3"/>
<path d="M57.9015 17.8456C57.9656 17.8456 58.0296 17.7812 58.0937 17.7168L69.948 10.8263C70.8451 10.3111 72.1266 10.2467 72.8955 10.6975L85.1343 17.7812C85.8391 17.266 85.8391 16.622 85.1983 16.1713L72.8955 9.02313C72.1266 8.57235 70.8451 8.63675 69.948 9.15193L58.0937 16.0425C57.1966 16.6864 57.1325 17.4592 57.9015 17.8456Z" fill="#929292"/>
<path d="M67.2792 37.3249C67.7082 37.076 67.6975 36.2499 67.2551 35.4799C66.8127 34.7099 66.1063 34.2876 65.6773 34.5365C65.2482 34.7855 65.259 35.6115 65.7014 36.3815C66.1437 37.1515 66.8501 37.5739 67.2792 37.3249Z" fill="#E3E3E3"/>
<path d="M64.1161 34.5894C64.1161 35.2978 63.6035 35.6198 63.0268 35.2334C62.386 34.847 61.9375 34.0098 61.9375 33.3015C61.9375 32.5931 62.4501 32.2711 63.0268 32.6575C63.6035 32.9795 64.1161 33.881 64.1161 34.5894Z" fill="#B0B0B0"/>
<path d="M67.5751 40.772C67.5751 41.4804 67.0625 41.8024 66.4858 41.416C65.845 41.0296 65.3965 40.1924 65.3965 39.4841C65.3965 38.7757 65.9091 38.4537 66.4858 38.8401C67.0625 39.2265 67.5751 40.0637 67.5751 40.772Z" fill="#E3E3E3"/>
<path d="M63.8104 39.5144C64.2395 39.2654 64.2287 38.4394 63.7863 37.6694C63.344 36.8994 62.6376 36.477 62.2085 36.726C61.7795 36.9749 61.7902 37.801 62.2326 38.571C62.675 39.341 63.3814 39.7633 63.8104 39.5144Z" fill="#E3E3E3"/>
<path d="M67.579 51.0103C67.579 51.7187 67.0664 52.0407 66.4897 51.6543C65.8489 51.2679 65.4004 50.4307 65.4004 49.7224C65.4004 49.014 65.913 48.692 66.4897 49.0784C67.0664 49.4648 67.579 50.3019 67.579 51.0103Z" fill="#E3E3E3"/>
<path d="M64.1181 49.0142C64.1181 49.7226 63.6055 50.0446 63.0288 49.6582C62.388 49.2718 61.9395 48.4346 61.9395 47.7263C61.9395 47.0179 62.4521 46.6959 63.0288 47.0823C63.6055 47.4687 64.1181 48.3058 64.1181 49.0142Z" fill="#E3E3E3"/>
<path d="M67.579 55.2603C67.579 55.9687 67.0664 56.2907 66.4897 55.9043C65.8489 55.5179 65.4004 54.6807 65.4004 53.9724C65.4004 53.264 65.913 52.942 66.4897 53.3284C67.0664 53.6504 67.579 54.5519 67.579 55.2603Z" fill="#B0B0B0"/>
<path d="M64.1181 53.2642C64.1181 53.9726 63.6055 54.2946 63.0288 53.9082C62.388 53.5218 61.9395 52.6846 61.9395 51.9763C61.9395 51.2679 62.4521 50.9459 63.0288 51.3323C63.6055 51.6543 64.1181 52.5558 64.1181 53.2642Z" fill="#E3E3E3"/>
<path d="M67.5771 65.4996C67.5771 66.2079 67.0644 66.5299 66.4877 66.1435C65.847 65.7572 65.3984 64.92 65.3984 64.2116C65.3984 63.5032 65.9111 63.1813 66.4877 63.5676C67.0644 63.8896 67.5771 64.7912 67.5771 65.4996Z" fill="#E3E3E3"/>
<path d="M64.1161 63.5035C64.1161 64.2118 63.6035 64.5338 63.0268 64.1474C62.386 63.7611 61.9375 62.9239 61.9375 62.2155C61.9375 61.5071 62.4501 61.1852 63.0268 61.5715C63.6035 61.8935 64.1161 62.7951 64.1161 63.5035Z" fill="#B0B0B0"/>
<path d="M67.5771 69.6861C67.5771 70.3945 67.0644 70.7164 66.4877 70.3301C65.847 69.9437 65.3984 69.1065 65.3984 68.3981C65.3984 67.6898 65.9111 67.3678 66.4877 67.7542C67.0644 68.1405 67.5771 68.9777 67.5771 69.6861Z" fill="#E3E3E3"/>
<path d="M63.8124 68.4275C64.2415 68.1785 64.2307 67.3525 63.7883 66.5825C63.3459 65.8125 62.6395 65.3901 62.2105 65.6391C61.7814 65.888 61.7922 66.7141 62.2346 67.4841C62.6769 68.2541 63.3833 68.6764 63.8124 68.4275Z" fill="#B0B0B0"/>
<path d="M67.5771 80.1177C67.5771 80.8261 67.0644 81.1481 66.4877 80.7617C65.847 80.3753 65.3984 79.5382 65.3984 78.8298C65.3984 78.1214 65.9111 77.7994 66.4877 78.1858C67.0644 78.5078 67.5771 79.4094 67.5771 80.1177Z" fill="#B0B0B0"/>
<path d="M64.1161 78.1216C64.1161 78.83 63.6035 79.152 63.0268 78.7656C62.386 78.3792 61.9375 77.5421 61.9375 76.8337C61.9375 76.1253 62.4501 75.8033 63.0268 76.1897C63.6035 76.5117 64.1161 77.4133 64.1161 78.1216Z" fill="#E3E3E3"/>
<path d="M67.5771 84.3043C67.5771 85.0126 67.0644 85.3346 66.4877 84.9482C65.847 84.5618 65.3984 83.7247 65.3984 83.0163C65.3984 82.3079 65.9111 81.9859 66.4877 82.3723C67.0644 82.7587 67.5771 83.5959 67.5771 84.3043Z" fill="#E3E3E3"/>
<path d="M63.8183 83.0437C64.2473 82.7947 64.2365 81.9687 63.7942 81.1987C63.3518 80.4287 62.6454 80.0063 62.2163 80.2553C61.7873 80.5042 61.7981 81.3303 62.2404 82.1003C62.6828 82.8703 63.3892 83.2926 63.8183 83.0437Z" fill="#B0B0B0"/>
<path d="M67.579 94.606C67.579 95.3144 67.0664 95.6364 66.4897 95.25C65.8489 94.8636 65.4004 94.0264 65.4004 93.3181C65.4004 92.6097 65.913 92.2877 66.4897 92.6741C67.0664 92.9961 67.579 93.8332 67.579 94.606Z" fill="#B0B0B0"/>
<path d="M64.1181 92.5455C64.1181 93.2538 63.6055 93.5758 63.0288 93.1894C62.388 92.8031 61.9395 91.9659 61.9395 91.2575C61.9395 90.5491 62.4521 90.2272 63.0288 90.6135C63.6055 90.9999 64.1181 91.8371 64.1181 92.5455Z" fill="#E3E3E3"/>
<path d="M67.2929 99.5261C67.7219 99.2771 67.7111 98.4511 67.2688 97.6811C66.8264 96.9111 66.12 96.4887 65.6909 96.7377C65.2619 96.9867 65.2727 97.8127 65.715 98.5827C66.1574 99.3527 66.8638 99.7751 67.2929 99.5261Z" fill="#B0B0B0"/>
<path d="M64.1181 96.7955C64.1181 97.5038 63.6055 97.8258 63.0288 97.4394C62.388 97.0531 61.9395 96.2159 61.9395 95.5075C61.9395 94.7991 62.4521 94.4772 63.0288 94.8635C63.6055 95.1855 64.1181 96.0871 64.1181 96.7955Z" fill="#E3E3E3"/>
<path d="M67.287 109.961C67.716 109.712 67.7053 108.886 67.2629 108.116C66.8206 107.346 66.1141 106.923 65.6851 107.172C65.256 107.421 65.2668 108.247 65.7092 109.017C66.1515 109.787 66.8579 110.21 67.287 109.961Z" fill="#E3E3E3"/>
<path d="M64.1161 107.229C64.1161 107.937 63.6035 108.259 63.0268 107.873C62.386 107.487 61.9375 106.649 61.9375 105.941C61.9375 105.233 62.4501 104.911 63.0268 105.297C63.6035 105.619 64.1161 106.521 64.1161 107.229Z" fill="#B0B0B0"/>
<path d="M67.5771 113.412C67.5771 114.12 67.0644 114.442 66.4877 114.056C65.847 113.669 65.3984 112.832 65.3984 112.124C65.3984 111.415 65.9111 111.093 66.4877 111.48C67.0644 111.866 67.5771 112.703 67.5771 113.412Z" fill="#E3E3E3"/>
<path d="M63.8183 112.151C64.2473 111.902 64.2365 111.076 63.7942 110.306C63.3518 109.536 62.6454 109.114 62.2163 109.363C61.7873 109.612 61.7981 110.438 62.2404 111.208C62.6828 111.978 63.3892 112.4 63.8183 112.151Z" fill="#E3E3E3"/>
<path d="M142.996 123.264V114.184H122.683L115.635 110.127C114.033 109.161 111.213 109.29 109.355 110.385L102.819 114.184H82.5069V123.522C82.4428 124.166 82.8273 124.746 83.5962 125.196L109.868 140.394C111.47 141.36 114.289 141.231 116.147 140.137L141.458 125.454C142.547 124.81 143.06 124.037 142.996 123.264Z" fill="#929292"/>
<path d="M112.751 109.482C111.598 109.482 110.38 109.804 109.355 110.384L102.819 114.183H82.5069V123.521C82.4428 124.165 82.8273 124.745 83.5962 125.195L109.868 140.393C110.637 140.844 111.726 141.037 112.815 141.037V109.482H112.751Z" fill="#6C6C6C"/>
<path d="M84.8137 114.119H82.5069V123.521C82.4428 124.165 82.8273 124.745 83.5962 125.196L84.8137 125.904V114.119Z" fill="#B0B0B0"/>
<path d="M110.254 140.652C111.664 141.231 113.65 141.231 115.252 140.588V129.962H110.254V140.652Z" fill="#B0B0B0"/>
<path d="M109.803 131.121L83.5317 115.923C81.9297 114.957 82.122 113.347 83.9802 112.252L109.291 97.5695C111.149 96.4747 113.968 96.3459 115.57 97.3119L141.842 112.51C143.444 113.476 143.252 115.086 141.393 116.18L116.083 130.863C114.225 131.893 111.469 132.022 109.803 131.121Z" fill="#E3E3E3"/>
<path d="M110.316 128.351L88.3374 115.6C86.9917 114.828 87.184 113.475 88.7218 112.574L109.931 100.274C111.469 99.3722 113.84 99.2434 115.186 100.081L137.164 112.831C138.51 113.604 138.318 114.956 136.78 115.858L115.57 128.158C114.032 129.059 111.661 129.124 110.316 128.351Z" fill="#B0B0B0"/>
<path d="M133.321 125.71C133.321 126.418 132.873 127.191 132.232 127.577C131.655 127.899 131.143 127.642 131.143 126.933C131.143 126.225 131.591 125.452 132.232 125.066C132.873 124.744 133.321 125.001 133.321 125.71Z" fill="#E3E3E3"/>
<path d="M136.716 123.714C136.716 124.422 136.267 125.195 135.626 125.581C135.05 125.903 134.537 125.646 134.537 124.937C134.537 124.229 134.986 123.456 135.626 123.07C136.267 122.748 136.716 123.005 136.716 123.714Z" fill="#E3E3E3"/>
<path d="M140.177 121.718C140.177 122.426 139.728 123.199 139.087 123.585C138.511 123.907 137.998 123.649 137.998 122.941C137.998 122.233 138.447 121.46 139.087 121.074C139.664 120.752 140.177 121.074 140.177 121.718Z" fill="#E3E3E3"/>
<path d="M142.996 108.71V99.6297H122.683L115.635 95.5726C114.033 94.6067 111.213 94.7355 109.355 95.8302L102.819 99.6297H82.5069V108.967C82.4428 109.611 82.8273 110.191 83.5962 110.642L109.868 125.839C111.47 126.805 114.289 126.677 116.147 125.582L141.458 110.899C142.547 110.32 143.06 109.483 142.996 108.71Z" fill="#929292"/>
<path d="M112.751 94.9287C111.598 94.9287 110.38 95.2507 109.355 95.8303L102.819 99.6297H82.5069V108.967C82.4428 109.611 82.8273 110.191 83.5962 110.642L109.868 125.84C110.637 126.29 111.726 126.484 112.815 126.484V94.9287H112.751Z" fill="#6C6C6C"/>
<path d="M84.8137 99.6299H82.5069V108.968C82.4428 109.612 82.8273 110.191 83.5962 110.642L84.8137 111.35V99.6299Z" fill="#B0B0B0"/>
<path d="M110.254 126.097C111.664 126.677 113.65 126.677 115.252 126.033V115.407H110.254V126.097Z" fill="#B0B0B0"/>
<path d="M109.803 116.566L83.5317 101.368C81.9297 100.402 82.122 98.7922 83.9802 97.6974L109.291 83.0148C111.149 81.92 113.968 81.7912 115.57 82.7572L141.842 97.955C143.444 98.921 143.252 100.531 141.393 101.626L116.083 116.308C114.225 117.403 111.469 117.467 109.803 116.566Z" fill="#E3E3E3"/>
<path d="M110.316 113.797L88.3374 101.047C86.9917 100.274 87.184 98.9215 88.7218 98.0199L109.931 85.72C111.469 84.8184 113.84 84.6897 115.186 85.5268L137.164 98.2775C138.51 99.0503 138.318 100.403 136.78 101.304L115.57 113.604C114.032 114.506 111.661 114.635 110.316 113.797Z" fill="#B0B0B0"/>
<path d="M133.321 111.158C133.321 111.866 132.873 112.639 132.232 113.026C131.655 113.348 131.143 113.09 131.143 112.382C131.143 111.673 131.591 110.9 132.232 110.514C132.873 110.192 133.321 110.45 133.321 111.158Z" fill="#E3E3E3"/>
<path d="M136.716 109.161C136.716 109.869 136.267 110.642 135.626 111.028C135.05 111.35 134.537 111.093 134.537 110.384C134.537 109.676 134.986 108.903 135.626 108.517C136.267 108.195 136.716 108.453 136.716 109.161Z" fill="#E3E3E3"/>
<path d="M140.177 107.165C140.177 107.873 139.728 108.646 139.087 109.032C138.511 109.354 137.998 109.097 137.998 108.388C137.998 107.68 138.447 106.907 139.087 106.521C139.664 106.199 140.177 106.521 140.177 107.165Z" fill="#E3E3E3"/>
<path d="M142.996 94.2195V85.1394H122.683L115.635 81.0824C114.033 80.1164 111.213 80.2452 109.355 81.34L102.819 85.1394H82.5069V94.4771C82.4428 95.1211 82.8273 95.7006 83.5962 96.1514L109.868 111.349C111.47 112.315 114.289 112.186 116.147 111.092L141.458 96.409C142.547 95.765 143.06 94.9279 142.996 94.2195Z" fill="#929292"/>
<path d="M112.751 80.375C111.598 80.375 110.38 80.697 109.355 81.2766L102.819 85.076H82.5069V94.4137C82.4428 95.0576 82.8273 95.6372 83.5962 96.088L109.868 111.286C110.637 111.737 111.726 111.93 112.815 111.93V80.375H112.751Z" fill="#6C6C6C"/>
<path d="M84.8137 85.0762H82.5069V94.4138C82.4428 95.0578 82.8273 95.6374 83.5962 96.0881L84.8137 96.7965V85.0762Z" fill="#B0B0B0"/>
<path d="M110.254 111.544C111.664 112.123 113.65 112.123 115.252 111.479V100.854H110.254V111.544Z" fill="#B0B0B0"/>
<path d="M109.803 102.012L83.5317 86.8144C81.9297 85.8484 82.122 84.2385 83.9802 83.1437L109.291 68.4611C111.149 67.3663 113.968 67.2375 115.57 68.2035L141.842 83.4013C143.444 84.3673 143.252 85.9772 141.393 87.072L116.083 101.755C114.225 102.849 111.469 102.978 109.803 102.012Z" fill="#E3E3E3"/>
<path d="M110.316 99.2436L88.3374 86.4929C86.9917 85.7202 87.184 84.3678 88.7218 83.4662L109.931 71.1663C111.469 70.2647 113.84 70.1359 115.186 70.9731L137.164 83.7238C138.51 84.4966 138.318 85.8489 136.78 86.7505L115.57 99.0504C114.032 99.952 111.661 100.081 110.316 99.2436Z" fill="#B0B0B0"/>
<path d="M133.321 96.6023C133.321 97.3107 132.873 98.0835 132.232 98.4699C131.655 98.7918 131.143 98.5343 131.143 97.8259C131.143 97.1175 131.591 96.3447 132.232 95.9583C132.873 95.6364 133.321 95.8939 133.321 96.6023Z" fill="#E3E3E3"/>
<path d="M136.716 94.6062C136.716 95.3146 136.267 96.0874 135.626 96.4738C135.05 96.7957 134.537 96.5382 134.537 95.8298C134.537 95.1214 134.986 94.3486 135.626 93.9623C136.267 93.6403 136.716 93.9623 136.716 94.6062Z" fill="#E3E3E3"/>
<path d="M140.177 92.6099C140.177 93.3182 139.728 94.091 139.087 94.4774C138.511 94.7994 137.998 94.5418 137.998 93.8334C137.998 93.125 138.447 92.3523 139.087 91.9659C139.664 91.7083 140.177 91.9659 140.177 92.6099Z" fill="#E3E3E3"/>
<path d="M142.996 79.6658V70.5857H122.683L115.635 66.5287C114.033 65.5627 111.213 65.6915 109.355 66.7863L102.819 70.5857H82.5069V79.9234C82.4428 80.5674 82.8273 81.1469 83.5962 81.5977L109.868 96.7955C111.47 97.7615 114.289 97.6327 116.147 96.538L141.458 81.8553C142.547 81.2113 143.06 80.3742 142.996 79.6658Z" fill="#929292"/>
<path d="M112.751 65.8203C111.598 65.8203 110.38 66.1423 109.355 66.7219L102.819 70.5213H82.5069V79.859C82.4428 80.503 82.8273 81.0825 83.5962 81.5333L109.868 96.7311C110.637 97.1819 111.726 97.3751 112.815 97.3751V65.8203H112.751Z" fill="#6C6C6C"/>
<path d="M84.8137 70.5225H82.5069V79.8601C82.4428 80.5041 82.8273 81.0837 83.5962 81.5344L84.8137 82.2428V70.5225Z" fill="#B0B0B0"/>
<path d="M110.254 96.9898C111.664 97.5694 113.65 97.5694 115.252 96.9254V86.2998H110.254V96.9898Z" fill="#B0B0B0"/>
<path d="M109.803 87.4585L83.5317 72.2607C81.9297 71.2947 82.122 69.6848 83.9802 68.59L109.291 53.9074C111.149 52.8126 113.968 52.6838 115.57 53.6498L141.842 68.8476C143.444 69.8136 143.252 71.4235 141.393 72.5183L116.083 87.2009C114.225 88.2957 111.469 88.4245 109.803 87.4585Z" fill="#E3E3E3"/>
<path d="M110.316 84.7534L88.3374 72.0027C86.9917 71.2299 87.184 69.8776 88.7218 68.976L109.931 56.6761C111.469 55.7745 113.84 55.6457 115.186 56.4829L137.164 69.2336C138.51 70.0064 138.318 71.3587 136.78 72.2603L115.57 84.5602C114.032 85.3974 111.661 85.5262 110.316 84.7534Z" fill="#B0B0B0"/>
<path d="M133.321 82.0476C133.321 82.756 132.873 83.5288 132.232 83.9152C131.655 84.2371 131.143 83.9796 131.143 83.2712C131.143 82.5628 131.591 81.79 132.232 81.4037C132.873 81.0817 133.321 81.4037 133.321 82.0476Z" fill="#E3E3E3"/>
<path d="M136.716 80.0513C136.716 80.7597 136.267 81.5324 135.626 81.9188C135.05 82.2408 134.537 81.9832 134.537 81.2748C134.537 80.5665 134.986 79.7937 135.626 79.4073C136.267 79.1497 136.716 79.4073 136.716 80.0513Z" fill="#E3E3E3"/>
<path d="M140.177 78.1199C140.177 78.8283 139.728 79.601 139.087 79.9874C138.511 80.3094 137.998 80.0518 137.998 79.3435C137.998 78.6351 138.447 77.8623 139.087 77.4759C139.664 77.1539 140.177 77.4115 140.177 78.1199Z" fill="#E3E3E3"/>
<path d="M142.996 65.1111V56.031H122.683L115.635 51.974C114.033 51.008 111.213 51.1368 109.355 52.2316L102.819 56.031H82.5069V65.3687C82.4428 66.0127 82.8273 66.5922 83.5962 67.043L109.868 82.2409C111.47 83.2068 114.289 83.078 116.147 81.9833L141.458 67.3006C142.547 66.6566 143.06 65.8839 142.996 65.1111Z" fill="#929292"/>
<path d="M112.751 51.2656C111.598 51.2656 110.38 51.5876 109.355 52.1672L102.819 55.9666H82.5069V65.3043C82.4428 65.9483 82.8273 66.5278 83.5962 66.9786L109.868 82.1765C110.637 82.6272 111.726 82.8204 112.815 82.8204V51.2656H112.751Z" fill="#6C6C6C"/>
<path d="M84.8137 55.9678H82.5069V65.3054C82.4428 65.9494 82.8273 66.529 83.5962 66.9798L84.8137 67.6881V55.9678Z" fill="#B0B0B0"/>
<path d="M110.254 82.4351C111.664 83.0147 113.65 83.0147 115.252 82.3707V71.7451H110.254V82.4351Z" fill="#B0B0B0"/>
<path d="M109.803 72.9038L83.5317 57.706C81.9297 56.74 82.122 55.1301 83.9802 54.0353L109.291 39.3527C111.149 38.2579 113.968 38.1291 115.57 39.0951L141.842 54.2929C143.444 55.2589 143.252 56.8688 141.393 57.9636L116.083 72.6462C114.225 73.741 111.469 73.8698 109.803 72.9038Z" fill="#E3E3E3"/>
<path d="M110.316 70.1987L88.3374 57.448C86.9917 56.6752 87.184 55.3229 88.7218 54.4213L109.931 42.1214C111.469 41.2198 113.84 41.091 115.186 41.9282L137.164 54.6789C138.51 55.4517 138.318 56.804 136.78 57.7056L115.57 70.0055C114.032 70.8427 111.661 70.9715 110.316 70.1987Z" fill="#B0B0B0"/>
<path d="M132.288 68.0573L121.746 74.1787L121.97 74.569L132.513 68.4476L132.288 68.0573Z" fill="white"/>
<path d="M133.319 67.4939C133.319 68.2023 132.871 68.9751 132.23 69.3615C131.653 69.6834 131.141 69.4258 131.141 68.7175C131.141 68.0091 131.589 67.2363 132.23 66.85C132.871 66.528 133.319 66.85 133.319 67.4939Z" fill="#E3E3E3"/>
<path d="M136.718 65.5623C136.718 66.2707 136.269 67.0434 135.628 67.4298C135.052 67.7518 134.539 67.4942 134.539 66.7858C134.539 66.0775 134.988 65.3047 135.628 64.9183C136.269 64.5963 136.718 64.8539 136.718 65.5623Z" fill="#E3E3E3"/>
<path d="M140.175 63.5662C140.175 64.2746 139.726 65.0473 139.085 65.4337C138.509 65.7557 137.996 65.4981 137.996 64.7898C137.996 64.0814 138.445 63.3086 139.085 62.9222C139.662 62.6002 140.175 62.8578 140.175 63.5662Z" fill="#E3E3E3"/>
<path d="M142.996 50.4939V41.4139H122.683L115.635 37.3568C114.033 36.3908 111.213 36.5196 109.355 37.6144L102.819 41.4139H82.5069V50.7515C82.4428 51.3955 82.8273 51.9751 83.5962 52.4258L109.868 67.6237C111.47 68.5896 114.289 68.4608 116.147 67.3661L141.458 52.6834C142.547 52.0395 143.06 51.2023 142.996 50.4939Z" fill="#929292"/>
<path d="M112.751 36.6494C111.598 36.6494 110.38 36.9714 109.355 37.551L102.819 41.3504H82.5069V50.6881C82.4428 51.3321 82.8273 51.9116 83.5962 52.3624L109.868 67.5602C110.637 68.011 111.726 68.2042 112.815 68.2042V36.6494H112.751Z" fill="#6C6C6C"/>
<path d="M84.8137 41.3506H82.5069V50.6882C82.4428 51.3322 82.8273 51.9118 83.5962 52.3626L84.8137 53.0709V41.3506Z" fill="#B0B0B0"/>
<path d="M110.254 67.8179C111.664 68.3975 113.65 68.3975 115.252 67.7535V57.1279H110.254V67.8179Z" fill="#B0B0B0"/>
<path d="M109.803 58.2866L83.5317 43.0888C81.9297 42.1228 82.122 40.5129 83.9802 39.4181L109.291 24.7355C111.149 23.6407 113.968 23.5119 115.57 24.4779L141.842 39.6757C143.444 40.6417 143.252 42.2516 141.393 43.3464L116.083 58.029C114.225 59.1238 111.469 59.2526 109.803 58.2866Z" fill="#E3E3E3"/>
<path d="M141.456 41.544L116.146 56.2266C114.288 57.3214 111.468 57.4502 109.866 56.4842L83.5947 41.2864C83.2102 41.0932 82.9539 40.8356 82.7617 40.578C82.185 41.4796 82.4413 42.4455 83.5947 43.0895L109.866 58.2873C111.468 59.2533 114.288 59.1245 116.146 58.0298L141.456 43.3471C142.93 42.5099 143.315 41.3508 142.738 40.4492C142.482 40.7712 142.033 41.222 141.456 41.544Z" fill="white"/>
<path d="M133.319 52.8767C133.319 53.5851 132.871 54.3579 132.23 54.7443C131.653 55.0663 131.141 54.8087 131.141 54.1003C131.141 53.3919 131.589 52.6191 132.23 52.2328C132.871 51.9108 133.319 52.1684 133.319 52.8767Z" fill="#E3E3E3"/>
<path d="M122.876 58.6089C122.876 59.3173 122.427 60.09 121.787 60.4764C121.21 60.7984 120.697 60.5408 120.697 59.8325C120.697 59.1241 121.146 58.3513 121.787 57.9649C122.427 57.7073 122.876 57.9649 122.876 58.6089Z" fill="#E3E3E3"/>
<path d="M122.876 73.742C122.876 74.4503 122.427 75.2231 121.787 75.6095C121.21 75.9315 120.697 75.6739 120.697 74.9655C120.697 74.2572 121.146 73.4844 121.787 73.098C122.427 72.776 122.876 73.0336 122.876 73.742Z" fill="white"/>
<path d="M136.718 50.8806C136.718 51.589 136.269 52.3618 135.628 52.7482C135.052 53.0702 134.539 52.8126 134.539 52.1042C134.539 51.3958 134.988 50.6231 135.628 50.2367C136.269 49.9147 136.718 50.2367 136.718 50.8806Z" fill="#E3E3E3"/>
<path d="M140.177 48.8843C140.177 49.5927 139.728 50.3654 139.087 50.7518C138.511 51.0738 137.998 50.8162 137.998 50.1078C137.998 49.3995 138.447 48.6267 139.087 48.2403C139.664 47.9827 140.177 48.2403 140.177 48.8843Z" fill="#E3E3E3"/>
<path d="M111.403 48.8201L99.1004 41.7363C98.3315 41.2856 98.4597 40.5128 99.2927 40.062L111.147 33.1715C112.044 32.6563 113.326 32.5919 114.094 33.0427L126.397 40.1908C127.166 40.6416 127.038 41.4143 126.205 41.8651L114.351 48.7557C113.454 49.2064 112.108 49.2708 111.403 48.8201Z" fill="#6C6C6C"/>
<path d="M112.558 42.895L110.828 41.9291C110.7 41.8647 110.764 41.7359 110.828 41.6715L112.494 40.7055C112.622 40.6411 112.814 40.6411 112.878 40.7055L114.608 41.6715C114.737 41.7359 114.673 41.8647 114.608 41.9291L112.942 42.895C112.814 42.9594 112.686 42.9594 112.558 42.895Z" fill="#E3E3E3"/>
<path d="M99.1004 41.7362C99.1645 41.7362 99.2286 41.6718 99.2927 41.6074L111.147 34.7169C112.044 34.2017 113.326 34.1373 114.094 34.5881L126.333 41.6718C127.038 41.1566 127.038 40.5127 126.397 40.0619L114.094 32.9138C113.326 32.463 112.044 32.5274 111.147 33.0426L99.2927 39.9331C98.4597 40.5127 98.3315 41.2854 99.1004 41.7362Z" fill="#929292"/>
<path d="M108.843 60.4761C108.843 61.1845 108.33 61.5065 107.753 61.1201C107.113 60.7337 106.664 59.8965 106.664 59.1882C106.664 58.4798 107.177 58.1578 107.753 58.5442C108.33 58.8662 108.843 59.7034 108.843 60.4761Z" fill="#E3E3E3"/>
<path d="M105.014 59.1687C105.443 58.9197 105.432 58.0937 104.989 57.3237C104.547 56.5537 103.841 56.1313 103.412 56.3803C102.983 56.6292 102.993 57.4553 103.436 58.2253C103.878 58.9953 104.585 59.4176 105.014 59.1687Z" fill="#B0B0B0"/>
<path d="M108.843 64.6617C108.843 65.37 108.33 65.692 107.753 65.3056C107.113 64.9193 106.664 64.0821 106.664 63.3737C106.664 62.6653 107.177 62.3434 107.753 62.7297C108.33 63.0517 108.843 63.9533 108.843 64.6617Z" fill="#E3E3E3"/>
<path d="M105.039 63.4128C105.468 63.1639 105.457 62.3378 105.015 61.5678C104.573 60.7978 103.866 60.3754 103.437 60.6244C103.008 60.8734 103.019 61.6994 103.461 62.4694C103.903 63.2394 104.61 63.6618 105.039 63.4128Z" fill="#E3E3E3"/>
<path d="M108.843 74.9009C108.843 75.6093 108.33 75.9313 107.753 75.5449C107.113 75.1585 106.664 74.3214 106.664 73.613C106.664 72.9046 107.177 72.5826 107.753 72.969C108.33 73.291 108.843 74.1926 108.843 74.9009Z" fill="#E3E3E3"/>
<path d="M105.319 72.9048C105.319 73.6132 104.807 73.9352 104.23 73.5488C103.589 73.1624 103.141 72.3253 103.141 71.6169C103.141 70.9085 103.653 70.5865 104.23 70.9729C104.871 71.2949 105.319 72.1965 105.319 72.9048Z" fill="#E3E3E3"/>
<path d="M108.843 79.0875C108.843 79.7958 108.33 80.1178 107.753 79.7314C107.113 79.345 106.664 78.5079 106.664 77.7995C106.664 77.0911 107.177 76.7691 107.753 77.1555C108.33 77.4775 108.843 78.3791 108.843 79.0875Z" fill="#B0B0B0"/>
<path d="M105.319 77.0904C105.319 77.7988 104.807 78.1207 104.23 77.7344C103.589 77.348 103.141 76.5108 103.141 75.8024C103.141 75.0941 103.653 74.7721 104.23 75.1585C104.871 75.4804 105.319 76.382 105.319 77.0904Z" fill="#E3E3E3"/>
<path d="M108.845 89.3248C108.845 90.0331 108.332 90.3551 107.755 89.9687C107.115 89.5824 106.666 88.7452 106.666 88.0368C106.666 87.3284 107.179 87.0064 107.755 87.3928C108.332 87.7792 108.845 88.6164 108.845 89.3248Z" fill="#E3E3E3"/>
<path d="M105.016 88.0808C105.445 87.8318 105.434 87.0058 104.991 86.2358C104.549 85.4658 103.843 85.0434 103.414 85.2924C102.985 85.5413 102.995 86.3674 103.438 87.1374C103.88 87.9074 104.586 88.3298 105.016 88.0808Z" fill="#B0B0B0"/>
<path d="M108.845 93.5748C108.845 94.2831 108.332 94.6051 107.755 94.2187C107.115 93.8324 106.666 92.9952 106.666 92.2868C106.666 91.5784 107.179 91.2564 107.755 91.6428C108.332 91.9648 108.845 92.8664 108.845 93.5748Z" fill="#E3E3E3"/>
<path d="M105.319 91.5787C105.319 92.287 104.807 92.609 104.23 92.2226C103.589 91.8363 103.141 90.9991 103.141 90.2907C103.141 89.5823 103.653 89.2604 104.23 89.6467C104.871 89.9687 105.319 90.8703 105.319 91.5787Z" fill="#B0B0B0"/>
<path d="M108.843 103.943C108.843 104.651 108.33 104.973 107.753 104.587C107.113 104.201 106.664 103.363 106.664 102.655C106.664 101.947 107.177 101.625 107.753 102.011C108.33 102.397 108.843 103.235 108.843 103.943Z" fill="#B0B0B0"/>
<path d="M105.019 102.697C105.448 102.448 105.438 101.622 104.995 100.852C104.553 100.082 103.847 99.6596 103.418 99.9086C102.988 100.158 102.999 100.984 103.442 101.754C103.884 102.524 104.59 102.946 105.019 102.697Z" fill="#E3E3E3"/>
<path d="M108.843 108.193C108.843 108.901 108.33 109.223 107.753 108.837C107.113 108.451 106.664 107.613 106.664 106.905C106.664 106.197 107.177 105.875 107.753 106.261C108.33 106.583 108.843 107.42 108.843 108.193Z" fill="#E3E3E3"/>
<path d="M105.317 106.197C105.317 106.905 104.805 107.227 104.228 106.841C103.587 106.454 103.139 105.617 103.139 104.909C103.139 104.201 103.651 103.879 104.228 104.265C104.869 104.587 105.317 105.424 105.317 106.197Z" fill="#B0B0B0"/>
<path d="M108.843 118.432C108.843 119.141 108.33 119.463 107.753 119.076C107.113 118.69 106.664 117.853 106.664 117.144C106.664 116.436 107.177 116.114 107.753 116.5C108.33 116.822 108.843 117.724 108.843 118.432Z" fill="#B0B0B0"/>
<path d="M105.317 116.436C105.317 117.144 104.805 117.466 104.228 117.08C103.587 116.694 103.139 115.857 103.139 115.148C103.139 114.44 103.651 114.118 104.228 114.504C104.869 114.826 105.317 115.728 105.317 116.436Z" fill="#E3E3E3"/>
<path d="M108.843 122.619C108.843 123.327 108.33 123.649 107.753 123.263C107.113 122.876 106.664 122.039 106.664 121.331C106.664 120.622 107.177 120.3 107.753 120.687C108.33 121.009 108.843 121.91 108.843 122.619Z" fill="#B0B0B0"/>
<path d="M105.023 121.371C105.452 121.122 105.442 120.296 104.999 119.526C104.557 118.756 103.85 118.333 103.421 118.582C102.992 118.831 103.003 119.657 103.445 120.427C103.888 121.197 104.594 121.62 105.023 121.371Z" fill="#E3E3E3"/>
<path d="M108.843 133.05C108.843 133.759 108.33 134.081 107.753 133.694C107.113 133.308 106.664 132.471 106.664 131.762C106.664 131.054 107.177 130.732 107.753 131.118C108.33 131.505 108.843 132.342 108.843 133.05Z" fill="#E3E3E3"/>
<path d="M105.019 131.804C105.448 131.555 105.438 130.729 104.995 129.959C104.553 129.189 103.847 128.767 103.418 129.016C102.988 129.265 102.999 130.091 103.442 130.861C103.884 131.631 104.59 132.053 105.019 131.804Z" fill="#B0B0B0"/>
<path d="M108.843 137.3C108.843 138.009 108.33 138.331 107.753 137.944C107.113 137.558 106.664 136.721 106.664 136.012C106.664 135.304 107.177 134.982 107.753 135.368C108.33 135.69 108.843 136.528 108.843 137.3Z" fill="#E3E3E3"/>
<path d="M105.319 135.305C105.319 136.014 104.807 136.336 104.23 135.949C103.589 135.563 103.141 134.726 103.141 134.017C103.141 133.309 103.653 132.987 104.23 133.373C104.871 133.695 105.319 134.532 105.319 135.305Z" fill="#E3E3E3"/>
<path d="M60.5309 123.329V114.249H40.2184L33.1699 110.192C31.568 109.226 28.7486 109.355 26.8904 110.449L20.3545 114.249H0.0420452V123.586C-0.0220319 124.23 0.362429 124.81 1.13135 125.261L27.403 140.459C29.0049 141.425 31.8243 141.296 33.6826 140.201L58.993 125.518C60.0823 124.939 60.595 124.102 60.5309 123.329Z" fill="#929292"/>
<path d="M30.2865 109.547C29.1331 109.547 27.9156 109.869 26.8904 110.448L20.3545 114.248H0.0420452V123.586C-0.0220319 124.23 0.362429 124.809 1.13135 125.26L27.403 140.458C28.1719 140.908 29.1972 141.102 30.3505 141.102V109.547H30.2865Z" fill="#6C6C6C"/>
<path d="M2.34882 114.248H0.0420452V123.586C-0.0220319 124.23 0.362429 124.809 1.13135 125.26L2.34882 125.968V114.248Z" fill="#B0B0B0"/>
<path d="M27.7871 140.716C29.1968 141.296 31.1832 141.296 32.7851 140.652V130.026H27.7871V140.716Z" fill="#B0B0B0"/>
<path d="M27.4029 131.185L1.13128 115.987C-0.470651 115.021 -0.278417 113.411 1.57982 112.317L26.8903 97.6339C28.7485 96.5392 31.5679 96.4104 33.1699 97.3763L59.4415 112.574C61.0434 113.54 60.8512 115.15 58.9929 116.245L33.6825 130.927C31.8242 131.958 29.0048 132.087 27.4029 131.185Z" fill="#E3E3E3"/>
<path d="M27.851 128.416L5.87252 115.666C4.5269 114.893 4.71913 113.541 6.25698 112.639L27.4665 100.339C29.0044 99.4376 31.3752 99.3088 32.7208 100.146L54.6993 112.897C56.0449 113.669 55.8527 115.022 54.3148 115.923L33.1053 128.223C31.5675 129.125 29.1966 129.189 27.851 128.416Z" fill="#B0B0B0"/>
<path d="M50.8544 125.776C50.8544 126.485 50.4059 127.257 49.7651 127.644C49.1884 127.966 48.6758 127.708 48.6758 127C48.6758 126.291 49.1243 125.519 49.7651 125.132C50.4059 124.81 50.8544 125.068 50.8544 125.776Z" fill="#E3E3E3"/>
<path d="M54.3153 123.779C54.3153 124.487 53.8668 125.26 53.226 125.647C52.6493 125.969 52.1367 125.711 52.1367 125.003C52.1367 124.294 52.5853 123.521 53.226 123.135C53.8027 122.813 54.3153 123.071 54.3153 123.779Z" fill="#E3E3E3"/>
<path d="M57.7099 121.783C57.7099 122.491 57.2613 123.264 56.6206 123.651C56.0439 123.973 55.5312 123.715 55.5312 123.007C55.5312 122.298 55.9798 121.525 56.6206 121.139C57.1973 120.817 57.7099 121.139 57.7099 121.783Z" fill="#E3E3E3"/>
<path d="M60.5309 108.839V99.6941H40.2184L33.1699 95.6371C31.568 94.6711 28.7486 94.7999 26.8904 95.8947L20.3545 99.6941H0.0420452V109.032C-0.0220319 109.676 0.362429 110.255 1.13135 110.706L27.403 125.904C29.0049 126.87 31.8243 126.741 33.6826 125.646L58.993 110.964C60.0823 110.384 60.595 109.547 60.5309 108.839Z" fill="#929292"/>
<path d="M30.2865 94.9932C29.1331 94.9932 27.9156 95.3152 26.8904 95.8947L20.3545 99.6942H0.0420452V109.032C-0.0220319 109.676 0.362429 110.255 1.13135 110.706L27.403 125.904C28.1719 126.355 29.1972 126.548 30.3505 126.548V94.9932H30.2865Z" fill="#6C6C6C"/>
<path d="M2.34882 99.6943H0.0420452V109.032C-0.0220319 109.676 0.362429 110.256 1.13135 110.706L2.34882 111.415V99.6943Z" fill="#B0B0B0"/>
<path d="M27.7871 126.162C29.1968 126.741 31.1832 126.741 32.7851 126.097V115.472H27.7871V126.162Z" fill="#B0B0B0"/>
<path d="M27.4029 116.63L1.13128 101.433C-0.470651 100.467 -0.278417 98.8566 1.57982 97.7619L26.8903 83.0792C28.7485 81.9845 31.5679 81.8557 33.1699 82.8217L59.4415 98.0195C61.0434 98.9854 60.8512 100.595 58.9929 101.69L33.6825 116.373C31.8242 117.468 29.0048 117.532 27.4029 116.63Z" fill="#E3E3E3"/>
<path d="M27.851 113.862L5.87252 101.111C4.5269 100.338 4.71913 98.986 6.25698 98.0844L27.4665 85.7845C29.0044 84.8829 31.3752 84.7541 32.7208 85.5913L54.6993 98.342C56.0449 99.1148 55.8527 100.467 54.3148 101.369L33.1053 113.669C31.5675 114.57 29.1966 114.699 27.851 113.862Z" fill="#B0B0B0"/>
<path d="M50.8544 111.221C50.8544 111.93 50.4059 112.703 49.7651 113.089C49.1884 113.411 48.6758 113.153 48.6758 112.445C48.6758 111.737 49.1243 110.964 49.7651 110.577C50.4059 110.256 50.8544 110.513 50.8544 111.221Z" fill="#E3E3E3"/>
<path d="M54.3153 109.225C54.3153 109.934 53.8668 110.707 53.226 111.093C52.6493 111.415 52.1367 111.157 52.1367 110.449C52.1367 109.741 52.5853 108.968 53.226 108.581C53.8027 108.259 54.3153 108.581 54.3153 109.225Z" fill="#E3E3E3"/>
<path d="M57.7099 107.229C57.7099 107.937 57.2613 108.71 56.6206 109.097C56.0439 109.419 55.5312 109.161 55.5312 108.453C55.5312 107.744 55.9798 106.971 56.6206 106.585C57.1973 106.327 57.7099 106.585 57.7099 107.229Z" fill="#E3E3E3"/>
<path d="M60.5309 94.284V85.2039H40.2184L33.1699 81.1468C31.568 80.1809 28.7486 80.3097 26.8904 81.4044L20.3545 85.2039H0.0420452V94.5415C-0.0220319 95.1855 0.362429 95.7651 1.13135 96.2159L27.403 111.414C29.0049 112.38 31.8243 112.251 33.6826 111.156L58.993 96.4735C60.0823 95.8295 60.595 94.9923 60.5309 94.284Z" fill="#929292"/>
<path d="M30.2865 80.4385C29.1331 80.4385 27.9156 80.7605 26.8904 81.34L20.3545 85.1395H0.0420452V94.4771C-0.0220319 95.1211 0.362429 95.7007 1.13135 96.1515L27.403 111.349C28.1719 111.8 29.1972 111.993 30.3505 111.993V80.4385H30.2865Z" fill="#6C6C6C"/>
<path d="M2.34882 85.1396H0.0420452V94.4773C-0.0220319 95.1213 0.362429 95.7009 1.13135 96.1516L2.34882 96.86V85.1396Z" fill="#B0B0B0"/>
<path d="M27.7871 111.608C29.1968 112.188 31.1832 112.188 32.7851 111.544V100.918H27.7871V111.608Z" fill="#B0B0B0"/>
<path d="M27.4029 102.077L1.13128 86.8788C-0.470651 85.9129 -0.278417 84.3029 1.57982 83.2082L26.8903 68.5255C28.7485 67.4308 31.5679 67.302 33.1699 68.2679L59.4415 83.4658C61.0434 84.4317 60.8512 86.0417 58.9929 87.1364L33.6825 101.819C31.8242 102.914 29.0048 103.043 27.4029 102.077Z" fill="#E3E3E3"/>
<path d="M27.851 99.3716L5.87252 86.6208C4.5269 85.8481 4.71913 84.4957 6.25698 83.5942L27.4665 71.2942C29.0044 70.3927 31.3752 70.2639 32.7208 71.101L54.6993 83.8518C56.0449 84.6245 55.8527 85.9769 54.3148 86.8784L33.1053 99.1784C31.5675 100.016 29.1966 100.144 27.851 99.3716Z" fill="#B0B0B0"/>
<path d="M50.8544 96.6668C50.8544 97.3751 50.4059 98.1479 49.7651 98.5343C49.1884 98.8563 48.6758 98.5987 48.6758 97.8903C48.6758 97.182 49.1243 96.4092 49.7651 96.0228C50.4059 95.7008 50.8544 95.9584 50.8544 96.6668Z" fill="#E3E3E3"/>
<path d="M54.3153 94.6707C54.3153 95.3791 53.8668 96.1518 53.226 96.5382C52.6493 96.8602 52.1367 96.6026 52.1367 95.8942C52.1367 95.1859 52.5853 94.4131 53.226 94.0267C53.8027 93.7047 54.3153 94.0267 54.3153 94.6707Z" fill="#E3E3E3"/>
<path d="M57.7099 92.6743C57.7099 93.3827 57.2613 94.1555 56.6206 94.5419C56.0439 94.8638 55.5312 94.6062 55.5312 93.8979C55.5312 93.1895 55.9798 92.4167 56.6206 92.0304C57.1973 91.7728 57.7099 92.0304 57.7099 92.6743Z" fill="#E3E3E3"/>
<path d="M60.5309 79.7302V70.6502H40.2184L33.1699 66.5931C31.568 65.6272 28.7486 65.756 26.8904 66.8507L20.3545 70.6502H0.0420452V79.9878C-0.0220319 80.6318 0.362429 81.2114 1.13135 81.6622L27.403 96.86C29.0049 97.826 31.8243 97.6972 33.6826 96.6024L58.993 81.9198C60.0823 81.2758 60.595 80.4386 60.5309 79.7302Z" fill="#929292"/>
<path d="M30.2865 65.8848C29.1331 65.8848 27.9156 66.2067 26.8904 66.7863L20.3545 70.5858H0.0420452V79.9234C-0.0220319 80.5674 0.362429 81.147 1.13135 81.5978L27.403 96.7956C28.1719 97.2464 29.1972 97.4396 30.3505 97.4396V65.8848H30.2865Z" fill="#6C6C6C"/>
<path d="M2.34882 70.5869H0.0420452V79.9246C-0.0220319 80.5685 0.362429 81.1481 1.13135 81.5989L2.34882 82.3073V70.5869Z" fill="#B0B0B0"/>
<path d="M27.7871 97.0542C29.1968 97.6338 31.1832 97.6338 32.7851 96.9899V86.3643H27.7871V97.0542Z" fill="#B0B0B0"/>
<path d="M27.4029 87.523L1.13128 72.3251C-0.470651 71.3592 -0.278417 69.7492 1.57982 68.6545L26.8903 53.9718C28.7485 52.8771 31.5679 52.7483 33.1699 53.7142L59.4415 68.9121C61.0434 69.878 60.8512 71.488 58.9929 72.5827L33.6825 87.2654C31.8242 88.3601 29.0048 88.4889 27.4029 87.523Z" fill="#E3E3E3"/>
<path d="M27.851 84.8179L5.87252 72.0671C4.5269 71.2944 4.71913 69.942 6.25698 69.0405L27.4665 56.7405C29.0044 55.839 31.3752 55.7102 32.7208 56.5473L54.6993 69.298C56.0449 70.0708 55.8527 71.4232 54.3148 72.3247L33.1053 84.6247C31.5675 85.4618 29.1966 85.5906 27.851 84.8179Z" fill="#B0B0B0"/>
<path d="M50.8544 82.1131C50.8544 82.8214 50.4059 83.5942 49.7651 83.9806C49.1884 84.3026 48.6758 84.045 48.6758 83.3366C48.6758 82.6283 49.1243 81.8555 49.7651 81.4691C50.4059 81.1471 50.8544 81.4691 50.8544 82.1131Z" fill="#E3E3E3"/>
<path d="M54.3153 80.1177C54.3153 80.8261 53.8668 81.5988 53.226 81.9852C52.6493 82.3072 52.1367 82.0496 52.1367 81.3412C52.1367 80.6329 52.5853 79.8601 53.226 79.4737C53.8027 79.2161 54.3153 79.4737 54.3153 80.1177Z" fill="#E3E3E3"/>
<path d="M57.7099 78.1853C57.7099 78.8937 57.2613 79.6665 56.6206 80.0529C56.0439 80.3748 55.5312 80.1173 55.5312 79.4089C55.5312 78.7005 55.9798 77.9277 56.6206 77.5414C57.1973 77.2194 57.7099 77.477 57.7099 78.1853Z" fill="#E3E3E3"/>
<path d="M60.5309 65.1765V56.0965H40.2184L33.1699 52.0394C31.568 51.0735 28.7486 51.2023 26.8904 52.297L20.3545 56.0965H0.0420452V65.4341C-0.0220319 66.0781 0.362429 66.6577 1.13135 67.1085L27.403 82.3063C29.0049 83.2722 31.8243 83.1435 33.6826 82.0487L58.993 67.3661C60.0823 66.7221 60.595 65.9493 60.5309 65.1765Z" fill="#929292"/>
<path d="M30.2865 51.3955C29.1331 51.3955 27.9156 51.7175 26.8904 52.2971L20.3545 56.0965H0.0420452V65.4342C-0.0220319 66.0782 0.362429 66.6577 1.13135 67.1085L27.403 82.3063C28.1719 82.7571 29.1972 82.9503 30.3505 82.9503V51.3955H30.2865Z" fill="#6C6C6C"/>
<path d="M2.34882 56.0332H0.0420452V65.3708C-0.0220319 66.0148 0.362429 66.5944 1.13135 67.0452L2.34882 67.7536V56.0332Z" fill="#B0B0B0"/>
<path d="M27.7871 82.5005C29.1968 83.0801 31.1832 83.0801 32.7851 82.4361V71.8105H27.7871V82.5005Z" fill="#B0B0B0"/>
<path d="M27.4029 72.9692L1.13128 57.7714C-0.470651 56.8055 -0.278417 55.1955 1.57982 54.1008L26.8903 39.4181C28.7485 38.3233 31.5679 38.1946 33.1699 39.1605L59.4415 54.3584C61.0434 55.3243 60.8512 56.9343 58.9929 58.029L33.6825 72.7117C31.8242 73.8064 29.0048 73.9352 27.4029 72.9692Z" fill="#E3E3E3"/>
<path d="M27.851 70.2642L5.87252 57.5134C4.5269 56.7407 4.71913 55.3883 6.25698 54.4867L27.4665 42.1868C29.0044 41.2852 31.3752 41.1564 32.7208 41.9936L54.6993 54.7443C56.0449 55.5171 55.8527 56.8695 54.3148 57.771L33.1053 70.071C31.5675 70.9081 29.1966 71.0369 27.851 70.2642Z" fill="#B0B0B0"/>
<path d="M49.8135 68.1288L39.2715 74.249L39.4958 74.6394L50.0379 68.5191L49.8135 68.1288Z" fill="white"/>
<path d="M50.8564 67.5594C50.8564 68.2677 50.4078 69.0405 49.7671 69.4269C49.1904 69.7489 48.6777 69.4913 48.6777 68.7829C48.6777 68.0745 49.1263 67.3018 49.7671 66.9154C50.4078 66.5934 50.8564 66.9154 50.8564 67.5594Z" fill="#E3E3E3"/>
<path d="M54.3153 65.6277C54.3153 66.3361 53.8668 67.1089 53.226 67.4952C52.6493 67.8172 52.1367 67.5596 52.1367 66.8513C52.1367 66.1429 52.5853 65.3701 53.226 64.9837C53.8027 64.6618 54.3153 64.9193 54.3153 65.6277Z" fill="#E3E3E3"/>
<path d="M57.7099 63.6316C57.7099 64.34 57.2613 65.1128 56.6206 65.4991C56.0439 65.8211 55.5312 65.5635 55.5312 64.8552C55.5312 64.1468 55.9798 63.374 56.6206 62.9876C57.1973 62.6657 57.7099 62.9232 57.7099 63.6316Z" fill="#E3E3E3"/>
<path d="M60.5309 50.5593V41.4793H40.2184L33.1699 37.4222C31.568 36.4563 28.7486 36.5851 26.8904 37.6798L20.3545 41.4793H0.0420452V50.7525C-0.0220319 51.3965 0.362429 51.9761 1.13135 52.4269L27.403 67.6247C29.0049 68.5907 31.8243 68.4619 33.6826 67.3671L58.993 52.6845C60.0823 52.1049 60.595 51.2677 60.5309 50.5593Z" fill="#929292"/>
<path d="M30.2865 36.7139C29.1331 36.7139 27.9156 37.0359 26.8904 37.6154L20.3545 41.4149H0.0420452V50.7525C-0.0220319 51.3965 0.362429 51.9761 1.13135 52.4269L27.403 67.6247C28.1719 68.0755 29.1972 68.2687 30.3505 68.2687V36.7139H30.2865Z" fill="#6C6C6C"/>
<path d="M2.34882 41.415H0.0420452V50.7527C-0.0220319 51.3967 0.362429 51.9762 1.13135 52.427L2.34882 53.1354V41.415Z" fill="#B0B0B0"/>
<path d="M27.7852 67.8824C29.1949 68.462 31.1812 68.462 32.7832 67.818V57.1924H27.7852V67.8824Z" fill="#B0B0B0"/>
<path d="M27.401 58.3511L1.12932 43.1532C-0.472604 42.1873 -0.28037 40.5773 1.57787 39.4826L26.8883 24.7999C28.7466 23.7052 31.566 23.5764 33.1679 24.5424L59.4395 39.7402C61.0415 40.7061 60.8492 42.3161 58.991 43.4108L33.6805 58.0935C31.8223 59.1882 29.0029 59.317 27.401 58.3511Z" fill="#E3E3E3"/>
<path d="M58.9915 41.6084L33.681 56.2911C31.8228 57.3858 29.0034 57.5146 27.4015 56.5487L1.12983 41.3508C0.745369 41.1576 0.489064 40.9001 0.296832 40.6425C-0.279862 41.544 -0.0235564 42.51 1.12983 43.154L27.4015 58.3518C29.0034 59.3178 31.8228 59.189 33.681 58.0942L58.9915 43.4116C60.4653 42.5744 60.8497 41.4152 60.273 40.5137C60.0167 40.8357 59.5682 41.2864 58.9915 41.6084Z" fill="white"/>
<path d="M50.8544 52.9412C50.8544 53.6496 50.4059 54.4223 49.7651 54.8087C49.1884 55.1307 48.6758 54.8731 48.6758 54.1648C48.6758 53.4564 49.1243 52.6836 49.7651 52.2972C50.4059 51.9752 50.8544 52.2328 50.8544 52.9412Z" fill="#E3E3E3"/>
<path d="M40.411 58.6733C40.411 59.3817 39.9625 60.1545 39.3217 60.5409C38.745 60.8629 38.2324 60.6053 38.2324 59.8969C38.2324 59.1885 38.681 58.4158 39.3217 58.0294C39.9625 57.7718 40.411 58.0294 40.411 58.6733Z" fill="#E3E3E3"/>
<path d="M40.411 73.8054C40.411 74.5138 39.9625 75.2866 39.3217 75.673C38.745 75.995 38.2324 75.7374 38.2324 75.029C38.2324 74.3206 38.681 73.5479 39.3217 73.1615C39.9625 72.8395 40.411 73.0971 40.411 73.8054Z" fill="white"/>
<path d="M54.3173 50.9451C54.3173 51.6535 53.8688 52.4262 53.228 52.8126C52.6513 53.1346 52.1387 52.877 52.1387 52.1686C52.1387 51.4603 52.5872 50.6875 53.228 50.3011C53.8047 49.9791 54.3173 50.3011 54.3173 50.9451Z" fill="#E3E3E3"/>
<path d="M57.7118 48.9487C57.7118 49.6571 57.2633 50.4299 56.6225 50.8163C56.0458 51.1383 55.5332 50.8807 55.5332 50.1723C55.5332 49.4639 55.9817 48.6911 56.6225 48.3048C57.1992 48.0472 57.7118 48.3048 57.7118 48.9487Z" fill="#E3E3E3"/>
<path d="M28.9384 48.8845L16.6356 41.7363C15.8667 41.2856 15.9948 40.5128 16.8278 40.062L28.6821 33.1715C29.5792 32.6563 30.8607 32.5919 31.6296 33.0427L43.9325 40.1908C44.7014 40.6416 44.5732 41.4143 43.7402 41.8651L31.886 48.8201C30.9889 49.2708 29.7073 49.3353 28.9384 48.8845Z" fill="#6C6C6C"/>
<path d="M30.0931 42.9595L28.3631 41.9935C28.2349 41.9291 28.299 41.8003 28.3631 41.7359L30.0291 40.77C30.1572 40.7056 30.3494 40.7056 30.4135 40.77L32.1436 41.7359C32.2718 41.8003 32.2077 41.9291 32.1436 41.9935L30.4776 42.9595C30.4135 43.0239 30.2213 43.0239 30.0931 42.9595Z" fill="#E3E3E3"/>
<path d="M16.6356 41.8007C16.6997 41.8007 16.7637 41.7363 16.8278 41.6719L28.6821 34.7813C29.5792 34.2662 30.8607 34.2018 31.6296 34.6525L43.8684 41.7363C44.5732 41.2211 44.5732 40.5771 43.9325 40.1263L31.6296 32.9782C30.8607 32.5274 29.5792 32.5918 28.6821 33.107L16.8278 39.9975C15.9948 40.5771 15.8667 41.3499 16.6356 41.8007Z" fill="#929292"/>
<path d="M26.3778 60.5406C26.3778 61.249 25.8652 61.5709 25.2885 61.1846C24.6478 60.7982 24.1992 59.961 24.1992 59.2526C24.1992 58.5443 24.7118 58.2223 25.2885 58.6087C25.8652 58.9306 26.3778 59.7678 26.3778 60.5406Z" fill="#E3E3E3"/>
<path d="M22.9169 58.5445C22.9169 59.2529 22.4043 59.5748 21.8276 59.1885C21.1868 58.8021 20.7383 57.9649 20.7383 57.2565C20.7383 56.5482 21.2509 56.2262 21.8276 56.6126C22.4043 56.9345 22.9169 57.7717 22.9169 58.5445Z" fill="#B0B0B0"/>
<path d="M26.3778 64.7271C26.3778 65.4355 25.8652 65.7575 25.2885 65.3711C24.6478 64.9847 24.1992 64.1475 24.1992 63.4392C24.1992 62.7308 24.7118 62.4088 25.2885 62.7952C25.8652 63.1172 26.3778 64.0187 26.3778 64.7271Z" fill="#E3E3E3"/>
<path d="M22.9169 62.73C22.9169 63.4384 22.4043 63.7604 21.8276 63.374C21.1868 62.9876 20.7383 62.1505 20.7383 61.4421C20.7383 60.7337 21.2509 60.4117 21.8276 60.7981C22.4043 61.1201 22.9169 62.0217 22.9169 62.73Z" fill="#E3E3E3"/>
<path d="M26.3778 74.9654C26.3778 75.6738 25.8652 75.9957 25.2885 75.6094C24.6478 75.223 24.1992 74.3858 24.1992 73.6774C24.1992 72.9691 24.7118 72.6471 25.2885 73.0335C25.8652 73.3554 26.3778 74.257 26.3778 74.9654Z" fill="#E3E3E3"/>
<path d="M22.9169 72.9693C22.9169 73.6777 22.4043 73.9997 21.8276 73.6133C21.1868 73.2269 20.7383 72.3897 20.7383 71.6813C20.7383 70.973 21.2509 70.651 21.8276 71.0374C22.4043 71.3594 22.9169 72.2609 22.9169 72.9693Z" fill="white"/>
<path d="M26.0214 79.907C26.4504 79.658 26.4396 78.832 25.9973 78.062C25.5549 77.292 24.8485 76.8696 24.4195 77.1186C23.9904 77.3675 24.0012 78.1935 24.4435 78.9635C24.8859 79.7335 25.5923 80.1559 26.0214 79.907Z" fill="#B0B0B0"/>
<path d="M22.9169 77.1548C22.9169 77.8632 22.4043 78.1852 21.8276 77.7988C21.1868 77.4124 20.7383 76.5753 20.7383 75.8669C20.7383 75.1585 21.2509 74.8365 21.8276 75.2229C22.4043 75.5449 22.9169 76.4465 22.9169 77.1548Z" fill="#E3E3E3"/>
<path d="M26.3778 89.3912C26.3778 90.0995 25.8652 90.4215 25.2885 90.0351C24.6478 89.6488 24.1992 88.8116 24.1992 88.1032C24.1992 87.3948 24.7118 87.0729 25.2885 87.4592C25.8652 87.8456 26.3778 88.6828 26.3778 89.3912Z" fill="#E3E3E3"/>
<path d="M22.9169 87.3951C22.9169 88.1034 22.4043 88.4254 21.8276 88.039C21.1868 87.6527 20.7383 86.8155 20.7383 86.1071C20.7383 85.3987 21.2509 85.0768 21.8276 85.4631C22.4043 85.8495 22.9169 86.6867 22.9169 87.3951Z" fill="#B0B0B0"/>
<path d="M26.3778 93.6412C26.3778 94.3495 25.8652 94.6715 25.2885 94.2851C24.6478 93.8988 24.1992 93.0616 24.1992 92.3532C24.1992 91.6448 24.7118 91.3229 25.2885 91.7092C25.8652 92.0312 26.3778 92.9328 26.3778 93.6412Z" fill="white"/>
<path d="M22.9169 91.6451C22.9169 92.3534 22.4043 92.6754 21.8276 92.289C21.1868 91.9027 20.7383 91.0655 20.7383 90.3571C20.7383 89.6487 21.2509 89.3268 21.8276 89.7131C22.4043 90.0351 22.9169 90.9367 22.9169 91.6451Z" fill="#B0B0B0"/>
<path d="M26.3778 104.009C26.3778 104.718 25.8652 105.04 25.2885 104.653C24.6478 104.267 24.1992 103.43 24.1992 102.721C24.1992 102.013 24.7118 101.691 25.2885 102.077C25.8652 102.464 26.3778 103.301 26.3778 104.009Z" fill="#B0B0B0"/>
<path d="M22.9169 102.013C22.9169 102.722 22.4043 103.044 21.8276 102.657C21.1868 102.271 20.7383 101.434 20.7383 100.725C20.7383 100.017 21.2509 99.6949 21.8276 100.081C22.4043 100.468 22.9169 101.305 22.9169 102.013Z" fill="#E3E3E3"/>
<path d="M26.3778 108.259C26.3778 108.968 25.8652 109.29 25.2885 108.903C24.6478 108.517 24.1992 107.68 24.1992 106.971C24.1992 106.263 24.7118 105.941 25.2885 106.327C25.8652 106.649 26.3778 107.487 26.3778 108.259Z" fill="#E3E3E3"/>
<path d="M22.9169 106.263C22.9169 106.972 22.4043 107.294 21.8276 106.907C21.1868 106.521 20.7383 105.684 20.7383 104.975C20.7383 104.267 21.2509 103.945 21.8276 104.331C22.4043 104.653 22.9169 105.49 22.9169 106.263Z" fill="#B0B0B0"/>
<path d="M26.0272 119.253C26.4563 119.004 26.4455 118.178 26.0031 117.408C25.5608 116.638 24.8544 116.215 24.4253 116.464C23.9963 116.713 24.007 117.539 24.4494 118.309C24.8918 119.079 25.5982 119.502 26.0272 119.253Z" fill="white"/>
<path d="M22.9169 116.503C22.9169 117.212 22.4043 117.534 21.8276 117.147C21.1868 116.761 20.7383 115.924 20.7383 115.216C20.7383 114.507 21.2509 114.185 21.8276 114.572C22.4043 114.894 22.9169 115.795 22.9169 116.503Z" fill="white"/>
<path d="M26.0194 123.441C26.4485 123.192 26.4377 122.366 25.9953 121.596C25.553 120.826 24.8466 120.404 24.4175 120.653C23.9884 120.902 23.9992 121.728 24.4416 122.498C24.8839 123.268 25.5904 123.69 26.0194 123.441Z" fill="white"/>
<path d="M22.9169 120.689C22.9169 121.397 22.4043 121.719 21.8276 121.333C21.1868 120.947 20.7383 120.109 20.7383 119.401C20.7383 118.693 21.2509 118.371 21.8276 118.757C22.4043 119.143 22.9169 119.981 22.9169 120.689Z" fill="#E3E3E3"/>
<path d="M26.3778 133.118C26.3778 133.826 25.8652 134.148 25.2885 133.762C24.6478 133.375 24.1992 132.538 24.1992 131.83C24.1992 131.121 24.7118 130.799 25.2885 131.186C25.8652 131.572 26.3778 132.409 26.3778 133.118Z" fill="#E3E3E3"/>
<path d="M22.9169 131.122C22.9169 131.83 22.4043 132.152 21.8276 131.766C21.1868 131.379 20.7383 130.542 20.7383 129.834C20.7383 129.125 21.2509 128.803 21.8276 129.19C22.4043 129.576 22.9169 130.413 22.9169 131.122Z" fill="#B0B0B0"/>
<path d="M26.3778 137.368C26.3778 138.076 25.8652 138.398 25.2885 138.012C24.6478 137.625 24.1992 136.788 24.1992 136.08C24.1992 135.371 24.7118 135.049 25.2885 135.436C25.8652 135.758 26.3778 136.595 26.3778 137.368Z" fill="#E3E3E3"/>
<path d="M22.9169 135.372C22.9169 136.08 22.4043 136.402 21.8276 136.016C21.1868 135.629 20.7383 134.792 20.7383 134.084C20.7383 133.375 21.2509 133.053 21.8276 133.44C22.4043 133.762 22.9169 134.599 22.9169 135.372Z" fill="#E3E3E3"/>
<path d="M101.73 147.219V138.138H81.4176L74.3692 134.081C72.7672 133.115 69.9478 133.244 68.0896 134.339L61.5537 138.138H41.2413V147.476C41.1772 148.12 41.5616 148.7 42.3306 149.15L68.6022 164.348C70.2041 165.314 73.0235 165.185 74.8818 164.091L100.192 149.408C101.282 148.764 101.794 147.927 101.73 147.219Z" fill="#396CAA"/>
<path d="M71.4857 133.373C70.3323 133.373 69.1148 133.695 68.0896 134.275L61.5537 138.074H41.2413V147.412C41.1772 148.056 41.5616 148.635 42.3306 149.086L68.6022 164.284C69.3711 164.735 70.4604 164.928 71.5498 164.928V133.373H71.4857Z" fill="#396CAA"/>
<path d="M43.548 138.075H41.2413V147.413C41.1772 148.057 41.5616 148.636 42.3306 149.087L43.548 149.796V138.075Z" fill="#72ADDE"/>
<path d="M68.9863 164.543C70.396 165.122 72.3824 165.122 73.9843 164.478V153.853H68.9863V164.543Z" fill="#72ADDE"/>
<path d="M68.6021 155.011L42.3305 139.813C40.7286 138.847 40.9208 137.238 42.779 136.143L68.0895 121.46C69.9477 120.365 72.7671 120.237 74.3691 121.203L100.641 136.4C102.243 137.366 102.05 138.976 100.192 140.071L74.8817 154.754C73.0235 155.848 70.2041 155.977 68.6021 155.011Z" fill="#87C5F1"/>
<path d="M69.0502 152.306L47.0717 139.555C45.7261 138.783 45.9183 137.43 47.4562 136.529L68.6657 124.229C70.2036 123.327 72.5744 123.198 73.9201 124.036L95.8985 136.786C97.2441 137.559 97.0519 138.911 95.5141 139.813L74.3045 152.113C72.7667 152.95 70.3958 153.079 69.0502 152.306Z" fill="#72ADDE"/>
<path d="M92.1181 149.602C92.1181 150.311 91.6695 151.083 91.0288 151.47C90.4521 151.792 89.9395 151.534 89.9395 150.826C89.9395 150.117 90.388 149.345 91.0288 148.958C91.6055 148.636 92.1181 148.894 92.1181 149.602Z" fill="#87C5F1"/>
<path d="M95.5126 147.605C95.5126 148.314 95.0641 149.086 94.4233 149.473C93.8466 149.795 93.334 149.537 93.334 148.829C93.334 148.12 93.7825 147.348 94.4233 146.961C95.0641 146.639 95.5126 146.961 95.5126 147.605Z" fill="#87C5F1"/>
<path d="M98.9111 145.674C98.9111 146.382 98.4625 147.155 97.8217 147.541C97.245 147.863 96.7324 147.606 96.7324 146.897C96.7324 146.189 97.181 145.416 97.8217 145.03C98.4625 144.708 98.9111 144.965 98.9111 145.674Z" fill="#87C5F1"/>
<path d="M101.73 132.665V123.585H81.4176L74.3692 119.528C72.7672 118.562 69.9478 118.691 68.0896 119.785L61.5537 123.585H41.2413V132.922C41.1772 133.566 41.5616 134.146 42.3306 134.597L68.6022 149.795C70.2041 150.761 73.0235 150.632 74.8818 149.537L100.192 134.854C101.282 134.21 101.794 133.438 101.73 132.665Z" fill="#396CAA"/>
<path d="M71.4857 118.819C70.3323 118.819 69.1148 119.141 68.0896 119.721L61.5537 123.52H41.2413V132.858C41.1772 133.502 41.5616 134.082 42.3306 134.532L68.6022 149.73C69.3711 150.181 70.4604 150.374 71.5498 150.374V118.819H71.4857Z" fill="#396CAA"/>
<path d="M43.548 123.521H41.2413V132.859C41.1772 133.503 41.5616 134.083 42.3306 134.533L43.548 135.242V123.521Z" fill="#72ADDE"/>
<path d="M68.9863 149.989C70.396 150.568 72.3824 150.568 73.9843 149.924V139.299H68.9863V149.989Z" fill="#72ADDE"/>
<path d="M68.6021 140.458L42.3305 125.26C40.7286 124.294 40.9208 122.684 42.779 121.589L68.0895 106.906C69.9477 105.812 72.7671 105.683 74.3691 106.649L100.641 121.847C102.243 122.813 102.05 124.423 100.192 125.517L74.8817 140.2C73.0235 141.295 70.2041 141.423 68.6021 140.458Z" fill="#87C5F1"/>
<path d="M69.0502 137.752L47.0717 125.002C45.7261 124.229 45.9183 122.877 47.4562 121.975L68.6657 109.675C70.2036 108.774 72.5744 108.645 73.9201 109.482L95.8985 122.233C97.2441 123.005 97.0519 124.358 95.5141 125.259L74.3045 137.559C72.7667 138.396 70.3958 138.525 69.0502 137.752Z" fill="#72ADDE"/>
<path d="M92.1181 135.047C92.1181 135.755 91.6695 136.528 91.0288 136.914C90.4521 137.236 89.9395 136.979 89.9395 136.27C89.9395 135.562 90.388 134.789 91.0288 134.403C91.6055 134.081 92.1181 134.403 92.1181 135.047Z" fill="#87C5F1"/>
<path d="M95.5126 133.05C95.5126 133.759 95.0641 134.531 94.4233 134.918C93.8466 135.24 93.334 134.982 93.334 134.274C93.334 133.565 93.7825 132.793 94.4233 132.406C95.0641 132.149 95.5126 132.406 95.5126 133.05Z" fill="#87C5F1"/>
<path d="M98.9111 131.119C98.9111 131.827 98.4625 132.6 97.8217 132.986C97.245 133.308 96.7324 133.051 96.7324 132.342C96.7324 131.634 97.181 130.861 97.8217 130.475C98.4625 130.153 98.9111 130.411 98.9111 131.119Z" fill="#87C5F1"/>
<path d="M101.73 118.111V109.031H81.4176L74.3692 104.974C72.7672 104.008 69.9478 104.137 68.0896 105.232L61.5537 109.031H41.2413V118.369C41.1772 119.013 41.5616 119.592 42.3306 120.043L68.6022 135.241C70.2041 136.207 73.0235 136.078 74.8818 134.983L100.192 120.301C101.282 119.657 101.794 118.884 101.73 118.111Z" fill="#396CAA"/>
<path d="M71.4857 104.331C70.3323 104.331 69.1148 104.653 68.0896 105.233L61.5537 109.032H41.2413V118.37C41.1772 119.014 41.5616 119.593 42.3306 120.044L68.6022 135.242C69.3711 135.693 70.4604 135.886 71.5498 135.886V104.331H71.4857Z" fill="#396CAA"/>
<path d="M43.548 108.968H41.2413V118.37C41.1772 119.014 41.5616 119.593 42.3306 120.044L43.548 120.753V108.968Z" fill="#72ADDE"/>
<path d="M68.9863 135.435C70.396 136.015 72.3824 136.015 73.9843 135.371V124.745H68.9863V135.435Z" fill="#72ADDE"/>
<path d="M68.6021 125.904L42.3305 110.706C40.7286 109.74 40.9208 108.13 42.779 107.035L68.0895 92.3527C69.9477 91.2579 72.7671 91.1291 74.3691 92.0951L100.641 107.293C102.243 108.259 102.05 109.869 100.192 110.964L74.8817 125.646C73.0235 126.741 70.2041 126.87 68.6021 125.904Z" fill="#87C5F1"/>
<path d="M69.0502 123.199L47.0717 110.448C45.7261 109.675 45.9183 108.323 47.4562 107.421L68.6657 95.1214C70.2036 94.2198 72.5744 94.091 73.9201 94.9282L95.8985 107.679C97.2441 108.452 97.0519 109.804 95.5141 110.706L74.3045 123.006C72.7667 123.907 70.3958 123.971 69.0502 123.199Z" fill="#72ADDE"/>
<path d="M92.1181 120.494C92.1181 121.202 91.6695 121.975 91.0288 122.361C90.4521 122.683 89.9395 122.426 89.9395 121.717C89.9395 121.009 90.388 120.236 91.0288 119.85C91.6055 119.528 92.1181 119.85 92.1181 120.494Z" fill="#87C5F1"/>
<path d="M95.2028 119.624C95.6097 118.915 95.5918 118.139 95.1628 117.89C94.7337 117.641 94.056 118.014 93.649 118.722C93.242 119.431 93.2599 120.207 93.689 120.456C94.118 120.705 94.7958 120.332 95.2028 119.624Z" fill="#87C5F1"/>
<path d="M98.9111 116.566C98.9111 117.275 98.4625 118.047 97.8217 118.434C97.245 118.756 96.7324 118.498 96.7324 117.79C96.7324 117.081 97.181 116.309 97.8217 115.922C98.4625 115.6 98.9111 115.858 98.9111 116.566Z" fill="#87C5F1"/>
<path d="M101.73 103.558V94.4783H81.4176L74.3692 90.4213C72.7672 89.4553 69.9478 89.5841 68.0896 90.6789L61.5537 94.4783H41.2413V103.816C41.1772 104.46 41.5616 105.04 42.3306 105.49L68.6022 120.688C70.2041 121.654 73.0235 121.525 74.8818 120.431L100.192 105.748C101.282 105.104 101.794 104.331 101.73 103.558Z" fill="#396CAA"/>
<path d="M71.4857 89.7764C70.3323 89.7764 69.1148 90.0984 68.0896 90.6779L61.5537 94.4774H41.2413V103.815C41.1772 104.459 41.5616 105.039 42.3306 105.489L68.6022 120.687C69.3711 121.138 70.4604 121.331 71.5498 121.331V89.7764H71.4857Z" fill="#396CAA"/>
<path d="M43.548 94.4131H41.2413V103.751C41.1772 104.395 41.5616 104.974 42.3306 105.425L43.548 106.133V94.4131Z" fill="#72ADDE"/>
<path d="M68.9863 120.946C70.396 121.525 72.3824 121.525 73.9843 120.881V110.256H68.9863V120.946Z" fill="#72ADDE"/>
<path d="M68.6021 111.415L42.3305 96.2167C40.7286 95.2508 40.9208 93.6408 42.779 92.5461L68.0895 77.8634C69.9477 76.7687 72.7671 76.6399 74.3691 77.6058L100.641 92.8037C102.243 93.7696 102.05 95.3796 100.192 96.4743L74.8817 111.157C73.0235 112.187 70.2041 112.316 68.6021 111.415Z" fill="#87C5F1"/>
<path d="M69.0502 108.646L47.0717 95.8953C45.7261 95.1225 45.9183 93.7701 47.4562 92.8686L68.6657 80.5686C70.2036 79.6671 72.5744 79.5383 73.9201 80.3755L95.8985 93.1262C97.2441 93.8989 97.0519 95.2513 95.5141 96.1529L74.3045 108.453C72.7667 109.354 70.3958 109.419 69.0502 108.646Z" fill="#72ADDE"/>
<path d="M92.1181 105.939C92.1181 106.647 91.6695 107.42 91.0288 107.807C90.4521 108.128 89.9395 107.871 89.9395 107.163C89.9395 106.454 90.388 105.681 91.0288 105.295C91.6055 105.037 92.1181 105.295 92.1181 105.939Z" fill="#87C5F1"/>
<path d="M95.5126 104.008C95.5126 104.716 95.0641 105.489 94.4233 105.875C93.8466 106.197 93.334 105.94 93.334 105.231C93.334 104.523 93.7825 103.75 94.4233 103.364C95.0641 103.042 95.5126 103.299 95.5126 104.008Z" fill="#87C5F1"/>
<path d="M98.9111 102.012C98.9111 102.72 98.4625 103.493 97.8217 103.879C97.245 104.201 96.7324 103.943 96.7324 103.235C96.7324 102.527 97.181 101.754 97.8217 101.368C98.4625 101.046 98.9111 101.303 98.9111 102.012Z" fill="#87C5F1"/>
<path d="M101.73 89.0047V79.9246H81.4176L74.3692 75.8676C72.7672 74.9016 69.9478 75.0304 68.0896 76.1251L61.5537 79.9246H41.2413V89.2622C41.1772 89.9062 41.5616 90.4858 42.3306 90.9366L68.6022 106.134C70.2041 107.1 73.0235 106.972 74.8818 105.877L100.192 91.1942C101.282 90.6146 101.794 89.7774 101.73 89.0047Z" fill="#396CAA"/>
<path d="M71.4857 75.2236C70.3323 75.2236 69.1148 75.5456 68.0896 76.1252L61.5537 79.9247H41.2413V89.2623C41.1772 89.9063 41.5616 90.4859 42.3306 90.9366L68.6022 106.134C69.3711 106.585 70.4604 106.778 71.5498 106.778V75.2236H71.4857Z" fill="#396CAA"/>
<path d="M43.548 79.9248H41.2413V89.2625C41.1772 89.9064 41.5616 90.486 42.3306 90.9368L43.548 91.6452V79.9248Z" fill="#72ADDE"/>
<path d="M68.9863 106.392C70.396 106.972 72.3824 106.972 73.9843 106.328V95.7021H68.9863V106.392Z" fill="#72ADDE"/>
<path d="M68.6021 96.8608L42.3305 81.663C40.7286 80.6971 40.9208 79.0871 42.779 77.9924L68.0895 63.3097C69.9477 62.215 72.7671 62.0862 74.3691 63.0521L100.641 78.2499C102.243 79.2159 102.05 80.8258 100.192 81.9206L74.8817 96.6032C73.0235 97.6336 70.2041 97.7624 68.6021 96.8608Z" fill="#87C5F1"/>
<path d="M69.0502 94.0923L47.0717 81.3416C45.7261 80.5688 45.9183 79.2164 47.4562 78.3149L68.6657 66.0149C70.2036 65.1134 72.5744 64.9846 73.9201 65.8217L95.8985 78.5725C97.2441 79.3452 97.0519 80.6976 95.5141 81.5991L74.3686 93.8991C72.7667 94.8006 70.3958 94.865 69.0502 94.0923Z" fill="#72ADDE"/>
<path d="M91.0674 91.942L80.5254 98.0635L80.7498 98.4538L91.2918 92.3324L91.0674 91.942Z" fill="white"/>
<path d="M92.1161 91.4519C92.1161 92.1603 91.6676 92.9331 91.0268 93.3195C90.4501 93.6415 89.9375 93.3839 89.9375 92.6755C89.9375 91.9671 90.386 91.1943 91.0268 90.808C91.6035 90.486 92.1161 90.7436 92.1161 91.4519Z" fill="#87C5F1"/>
<path d="M95.5126 89.4558C95.5126 90.1642 95.0641 90.937 94.4233 91.3234C93.8466 91.6454 93.334 91.3878 93.334 90.6794C93.334 89.971 93.7825 89.1982 94.4233 88.8119C95.0641 88.4899 95.5126 88.7475 95.5126 89.4558Z" fill="#87C5F1"/>
<path d="M98.9091 87.4588C98.9091 88.1671 98.4606 88.9399 97.8198 89.3263C97.2431 89.6483 96.7305 89.3907 96.7305 88.6823C96.7305 87.9739 97.179 87.2012 97.8198 86.8148C98.4606 86.4928 98.9091 86.8148 98.9091 87.4588Z" fill="#87C5F1"/>
<path d="M67.5771 84.3668C67.5771 85.0751 67.0644 85.3971 66.4877 85.0107C65.847 84.6243 65.3984 83.7872 65.3984 83.0788C65.3984 82.3704 65.9111 82.0484 66.4877 82.4348C67.0644 82.7568 67.5771 83.6584 67.5771 84.3668Z" fill="#87C5F1"/>
<path d="M63.8261 83.1033C64.2551 82.8543 64.2443 82.0283 63.802 81.2583C63.3596 80.4883 62.6532 80.0659 62.2241 80.3148C61.7951 80.5638 61.8059 81.3898 62.2482 82.1598C62.6906 82.9298 63.397 83.3522 63.8261 83.1033Z" fill="#72ADDE"/>
<path d="M67.5771 88.5533C67.5771 89.2616 67.0644 89.5836 66.4877 89.1973C65.847 88.8109 65.3984 87.9737 65.3984 87.2653C65.3984 86.557 65.9111 86.235 66.4877 86.6213C67.0644 87.0077 67.5771 87.8449 67.5771 88.5533Z" fill="white"/>
<path d="M64.1161 86.5562C64.1161 87.2646 63.6035 87.5866 63.0268 87.2002C62.386 86.8138 61.9375 85.9766 61.9375 85.2683C61.9375 84.5599 62.4501 84.2379 63.0268 84.6243C63.6035 85.0107 64.1161 85.8478 64.1161 86.5562Z" fill="#87C5F1"/>
<path d="M67.2753 99.531C67.7043 99.282 67.6936 98.456 67.2512 97.686C66.8088 96.916 66.1024 96.4936 65.6734 96.7426C65.2443 96.9915 65.2551 97.8176 65.6974 98.5876C66.1398 99.3576 66.8462 99.78 67.2753 99.531Z" fill="#87C5F1"/>
<path d="M64.1181 96.7964C64.1181 97.5048 63.6055 97.8268 63.0288 97.4404C62.388 97.054 61.9395 96.2169 61.9395 95.5085C61.9395 94.8001 62.4521 94.4781 63.0288 94.8645C63.6055 95.2509 64.1181 96.0881 64.1181 96.7964Z" fill="#87C5F1"/>
<path d="M67.5751 102.979C67.5751 103.687 67.0625 104.009 66.4858 103.623C65.845 103.237 65.3965 102.399 65.3965 101.691C65.3965 100.983 65.9091 100.661 66.4858 101.047C67.0625 101.434 67.5751 102.271 67.5751 102.979Z" fill="#72ADDE"/>
<path d="M63.8065 101.719C64.2356 101.471 64.2248 100.644 63.7824 99.8745C63.3401 99.1045 62.6337 98.6821 62.2046 98.9311C61.7756 99.18 61.7863 100.006 62.2287 100.776C62.6711 101.546 63.3775 101.968 63.8065 101.719Z" fill="#87C5F1"/>
<path d="M67.579 113.282C67.579 113.99 67.0664 114.312 66.4897 113.926C65.8489 113.539 65.4004 112.702 65.4004 111.994C65.4004 111.285 65.913 110.963 66.4897 111.35C67.0664 111.672 67.579 112.573 67.579 113.282Z" fill="#87C5F1"/>
<path d="M64.1181 111.286C64.1181 111.994 63.6055 112.316 63.0288 111.93C62.388 111.543 61.9395 110.706 61.9395 109.998C61.9395 109.289 62.4521 108.967 63.0288 109.354C63.6055 109.676 64.1181 110.577 64.1181 111.286Z" fill="#72ADDE"/>
<path d="M67.2792 118.204C67.7082 117.955 67.6975 117.129 67.2551 116.359C66.8127 115.589 66.1063 115.166 65.6773 115.415C65.2482 115.664 65.259 116.49 65.7014 117.26C66.1437 118.03 66.8501 118.453 67.2792 118.204Z" fill="#87C5F1"/>
<path d="M64.1181 115.471C64.1181 116.18 63.6055 116.502 63.0288 116.115C62.388 115.729 61.9395 114.892 61.9395 114.183C61.9395 113.475 62.4521 113.153 63.0288 113.539C63.6055 113.861 64.1181 114.763 64.1181 115.471Z" fill="white"/>
<path d="M67.579 127.9C67.579 128.608 67.0664 128.93 66.4897 128.544C65.8489 128.158 65.4004 127.32 65.4004 126.612C65.4004 125.904 65.913 125.582 66.4897 125.968C67.0664 126.29 67.579 127.192 67.579 127.9Z" fill="white"/>
<path d="M64.1181 125.904C64.1181 126.612 63.6055 126.934 63.0288 126.548C62.388 126.161 61.9395 125.324 61.9395 124.616C61.9395 123.908 62.4521 123.586 63.0288 123.972C63.6055 124.294 64.1181 125.195 64.1181 125.904Z" fill="#87C5F1"/>
<path d="M67.287 132.82C67.7161 132.571 67.7053 131.745 67.2629 130.975C66.8206 130.205 66.1141 129.783 65.6851 130.032C65.256 130.281 65.2668 131.107 65.7092 131.877C66.1515 132.647 66.8579 133.069 67.287 132.82Z" fill="white"/>
<path d="M64.1181 130.089C64.1181 130.798 63.6055 131.12 63.0288 130.733C62.388 130.347 61.9395 129.51 61.9395 128.801C61.9395 128.093 62.4521 127.771 63.0288 128.157C63.6055 128.479 64.1181 129.381 64.1181 130.089Z" fill="#72ADDE"/>
<path d="M67.2753 143.062C67.7043 142.813 67.6936 141.987 67.2512 141.217C66.8088 140.447 66.1024 140.025 65.6734 140.274C65.2443 140.523 65.2551 141.349 65.6974 142.119C66.1398 142.889 66.8462 143.311 67.2753 143.062Z" fill="white"/>
<path d="M64.1181 140.329C64.1181 141.037 63.6055 141.359 63.0288 140.973C62.388 140.586 61.9395 139.749 61.9395 139.041C61.9395 138.332 62.4521 138.01 63.0288 138.397C63.6055 138.783 64.1181 139.62 64.1181 140.329Z" fill="#87C5F1"/>
<path d="M67.5771 146.575C67.5771 147.283 67.0644 147.605 66.4877 147.219C65.847 146.832 65.3984 145.995 65.3984 145.287C65.3984 144.578 65.9111 144.256 66.4877 144.643C67.0644 144.965 67.5771 145.802 67.5771 146.575Z" fill="#72ADDE"/>
<path d="M63.8065 145.252C64.2356 145.003 64.2248 144.177 63.7824 143.407C63.3401 142.637 62.6337 142.214 62.2046 142.463C61.7756 142.712 61.7863 143.538 62.2287 144.308C62.6711 145.078 63.3775 145.501 63.8065 145.252Z" fill="white"/>
<path d="M67.579 157.007C67.579 157.716 67.0664 158.038 66.4897 157.651C65.8489 157.265 65.4004 156.428 65.4004 155.719C65.4004 155.011 65.913 154.689 66.4897 155.075C67.0664 155.397 67.579 156.299 67.579 157.007Z" fill="#87C5F1"/>
<path d="M64.1181 155.011C64.1181 155.72 63.6055 156.042 63.0288 155.655C62.388 155.269 61.9395 154.432 61.9395 153.723C61.9395 153.015 62.4521 152.693 63.0288 153.079C63.6055 153.401 64.1181 154.303 64.1181 155.011Z" fill="#72ADDE"/>
<path d="M67.285 161.927C67.7141 161.679 67.7033 160.852 67.261 160.082C66.8186 159.312 66.1122 158.89 65.6831 159.139C65.2541 159.388 65.2649 160.214 65.7072 160.984C66.1496 161.754 66.856 162.176 67.285 161.927Z" fill="#87C5F1"/>
<path d="M64.1181 159.197C64.1181 159.905 63.6055 160.227 63.0288 159.841C62.388 159.454 61.9395 158.617 61.9395 157.909C61.9395 157.201 62.4521 156.879 63.0288 157.265C63.6055 157.587 64.1181 158.488 64.1181 159.197Z" fill="white"/>
<path d="M101.541 74.3211V65.241H81.2282L74.1797 61.184C72.5778 60.218 69.7584 60.3468 67.9001 61.4415L61.3643 65.241H41.0518V74.5143C40.9877 75.1582 41.3722 75.7378 42.1411 76.1886L68.4128 91.3864C70.0147 92.3524 72.8341 92.2236 74.6923 91.1288L100.003 76.4462C101.092 75.8666 101.605 75.0294 101.541 74.3211Z" fill="#396CAA"/>
<path d="M71.2962 60.4766C70.1428 60.4766 68.9254 60.7986 67.9001 61.3781L61.3643 65.1776H41.0518V74.5152C40.9877 75.1592 41.3722 75.7388 42.1411 76.1896L68.4128 91.3874C69.1817 91.8382 70.2069 92.0314 71.3603 92.0314V60.4766H71.2962Z" fill="#396CAA"/>
<path d="M43.3586 65.1777H41.0518V74.5154C40.9877 75.1594 41.3722 75.7389 42.1411 76.1897L43.3586 76.8981V65.1777Z" fill="#72ADDE"/>
<path d="M68.7949 91.6441C70.2046 92.2237 72.191 92.2237 73.7929 91.5797V80.9541H68.7949V91.6441Z" fill="#72ADDE"/>
<path d="M68.4107 82.1138L42.1391 66.9159C40.5372 65.95 40.7294 64.34 42.5876 63.2453L67.8981 48.5626C69.7563 47.4679 72.5757 47.3391 74.1777 48.3051L100.449 63.5029C102.051 64.4688 101.859 66.0788 100.001 67.1735L74.6903 81.8562C72.832 82.9509 70.0127 83.0797 68.4107 82.1138Z" fill="#87C5F1"/>
<path d="M100.001 65.3701L74.6908 80.0528C72.8326 81.1476 70.0132 81.2763 68.4112 80.3104L42.1396 65.1126C41.7551 64.9194 41.4988 64.6618 41.3066 64.4042C40.7299 65.3057 40.9862 66.2717 42.1396 66.9157L68.4112 82.1135C70.0132 83.0795 72.8326 82.9507 74.6908 81.8559L100.001 67.1733C101.475 66.3361 101.86 65.177 101.283 64.2754C101.027 64.5974 100.578 65.0482 100.001 65.3701Z" fill="white"/>
<path d="M91.8622 76.7049C91.8622 77.4132 91.4137 78.186 90.7729 78.5724C90.1962 78.8944 89.6836 78.6368 89.6836 77.9284C89.6836 77.22 90.1321 76.4473 90.7729 76.0609C91.4137 75.7389 91.8622 75.9965 91.8622 76.7049Z" fill="#87C5F1"/>
<path d="M81.4189 82.437C81.4189 83.1454 80.9703 83.9182 80.3295 84.3045C79.7529 84.6265 79.2402 84.3689 79.2402 83.6606C79.2402 82.9522 79.6888 82.1794 80.3295 81.793C80.9703 81.5355 81.4189 81.793 81.4189 82.437Z" fill="#87C5F1"/>
<path d="M81.4189 97.5701C81.4189 98.2785 80.9703 99.0512 80.3295 99.4376C79.7529 99.7596 79.2402 99.502 79.2402 98.7936C79.2402 98.0853 79.6888 97.3125 80.3295 96.9261C80.9703 96.6041 81.4189 96.8617 81.4189 97.5701Z" fill="white"/>
<path d="M95.3232 74.7088C95.3232 75.4171 94.8746 76.1899 94.2338 76.5763C93.6571 76.8983 93.1445 76.6407 93.1445 75.9323C93.1445 75.2239 93.5931 74.4512 94.2338 74.0648C94.8105 73.7428 95.3232 74.0648 95.3232 74.7088Z" fill="#87C5F1"/>
<path d="M98.7196 72.7124C98.7196 73.4208 98.2711 74.1936 97.6303 74.5799C97.0536 74.9019 96.541 74.6443 96.541 73.936C96.541 73.2276 96.9896 72.4548 97.6303 72.0684C98.207 71.8108 98.7196 72.0684 98.7196 72.7124Z" fill="#87C5F1"/>
<path d="M69.9462 72.6462L57.6434 65.4981C56.8745 65.0473 57.0026 64.2745 57.8356 63.8237L69.6899 56.9332C70.587 56.418 71.8685 56.3536 72.6375 56.8044L84.9403 63.9525C85.7092 64.4033 85.581 65.1761 84.748 65.6268L72.8938 72.5818C71.9967 73.0326 70.7151 73.097 69.9462 72.6462Z" fill="#396CAA"/>
<path d="M71.101 66.7212L69.3709 65.7552C69.2427 65.6908 69.3068 65.5621 69.3709 65.4977L71.0369 64.5317C71.165 64.4673 71.3573 64.4673 71.4213 64.5317L73.1514 65.4977C73.2796 65.5621 73.2155 65.6908 73.1514 65.7552L71.4854 66.7212C71.4213 66.7856 71.2291 66.7856 71.101 66.7212Z" fill="#87C5F1"/>
<path d="M57.6434 65.5624C57.7075 65.5624 57.7716 65.498 57.8356 65.4336L69.6899 58.5431C70.587 58.0279 71.8685 57.9635 72.6375 58.4143L84.8762 65.498C85.581 64.9828 85.581 64.3388 84.9403 63.8881L72.6375 56.7399C71.8685 56.2891 70.587 56.3535 69.6899 56.8687L57.8356 63.7593C57.0026 64.3388 56.8745 65.1116 57.6434 65.5624Z" fill="#396CAA"/>
</svg>
