<svg width="328" height="246" viewBox="0 0 328 246" fill="none" xmlns="http://www.w3.org/2000/svg">
<path d="M212.161 193.192C211.669 193.192 211.232 193.082 210.795 192.809L189.803 180.673L189.967 180.345L210.959 192.481C211.669 192.918 212.599 192.918 213.309 192.481L219.432 188.928L253.763 169.138C253.927 169.029 254.036 168.865 254.036 168.701C254.036 168.537 253.927 168.373 253.763 168.264L218.175 147.709L218.339 147.381L253.927 167.936C254.2 168.1 254.364 168.373 254.364 168.701C254.364 169.029 254.2 169.302 253.927 169.466L219.596 189.256L213.473 192.809C213.091 193.082 212.653 193.192 212.161 193.192Z" fill="#76AD7E"/>
<path d="M78.0097 142.242L77.8457 141.914L102.719 127.537C103.594 127.045 104.687 127.045 105.562 127.537L117.206 134.261L117.042 134.589L105.398 127.865C104.632 127.428 103.703 127.428 102.938 127.865L78.0097 142.242Z" fill="#76AD7E"/>
<path d="M253.653 142.242L228.78 127.865C228.014 127.428 227.085 127.428 226.32 127.865L214.676 134.589L214.512 134.261L226.156 127.537C227.03 127.045 228.124 127.045 228.998 127.537L253.872 141.914L253.653 142.242Z" fill="#76AD7E"/>
<path opacity="0.6" d="M245.837 123L229.492 113.543L207.57 126.171L223.916 135.628L245.837 123Z" fill="url(#paint0_linear_239_4893)"/>
<path opacity="0.6" d="M185.648 113.543L169.303 122.946L191.224 135.628L207.569 126.171L185.648 113.543Z" fill="url(#paint1_linear_239_4893)"/>
<path opacity="0.6" d="M169.303 148.256L185.648 157.713L207.569 145.085L191.224 135.628L169.303 148.256Z" fill="url(#paint2_linear_239_4893)"/>
<path opacity="0.6" d="M229.492 157.713L245.837 148.256L223.916 135.628L207.57 145.085L229.492 157.713Z" fill="url(#paint3_linear_239_4893)"/>
<path opacity="0.6" d="M161.485 123L145.14 113.543L123.219 126.171L139.619 135.628L161.485 123Z" fill="url(#paint4_linear_239_4893)"/>
<path opacity="0.6" d="M101.351 113.543L84.9512 122.946L106.873 135.628L123.218 126.171L101.351 113.543Z" fill="url(#paint5_linear_239_4893)"/>
<path opacity="0.6" d="M84.9512 148.256L101.351 157.713L123.218 145.085L106.873 135.628L84.9512 148.256Z" fill="url(#paint6_linear_239_4893)"/>
<path opacity="0.6" d="M145.14 157.713L161.485 148.256L139.619 135.628L123.219 145.085L145.14 157.713Z" fill="url(#paint7_linear_239_4893)"/>
<path d="M123.328 153.559C123 153.559 122.672 153.504 122.453 153.34L102.664 141.915C102.391 141.751 102.281 141.532 102.281 141.313C102.281 141.04 102.5 140.767 102.828 140.603L122.344 129.341C122.945 129.013 123.82 128.959 124.367 129.287L144.156 140.712C144.429 140.876 144.539 141.095 144.539 141.313C144.539 141.587 144.32 141.86 143.992 142.024L124.476 153.285C124.148 153.504 123.765 153.559 123.328 153.559ZM122.617 153.121C123.055 153.34 123.82 153.34 124.312 153.067L143.828 141.805C144.047 141.696 144.211 141.477 144.211 141.313C144.211 141.149 144.101 141.04 143.992 140.985L124.203 129.56C123.765 129.341 123 129.341 122.508 129.615L102.992 140.876C102.773 140.985 102.609 141.204 102.609 141.368C102.609 141.532 102.719 141.641 102.828 141.696L122.617 153.121Z" fill="#76AD7E"/>
<path d="M144.375 132.949V135.409L123.383 147.545L102.336 135.409V132.949H144.375Z" fill="url(#paint8_linear_239_4893)"/>
<path d="M123.383 145.085L102.336 132.949L123.328 120.868L144.375 132.949L123.383 145.085Z" fill="#96D99D"/>
<path d="M123.383 144.812L102.609 132.84L102.336 132.949L123.383 145.085L144.375 132.949L144.101 132.84L123.383 144.812Z" fill="white"/>
<path d="M123.383 142.298L107.201 132.95L123.328 123.656L139.509 132.95L123.383 142.298Z" fill="#173D7A"/>
<path opacity="0.5" d="M123.383 142.298L107.201 132.95L123.328 123.656L139.509 132.95L123.383 142.298Z" fill="url(#paint9_linear_239_4893)"/>
<path opacity="0.5" d="M123.328 121.306L139.509 130.599V132.95L123.328 123.656V121.306Z" fill="url(#paint10_linear_239_4893)"/>
<path opacity="0.5" d="M123.382 123.656L107.201 132.95V130.599L123.328 121.306L123.382 123.656Z" fill="url(#paint11_linear_239_4893)"/>
<path opacity="0.5" d="M123.383 139.947L107.201 130.599L123.328 121.306L139.509 130.599L123.383 139.947Z" fill="url(#paint12_linear_239_4893)"/>
<path opacity="0.5" d="M123.382 134.371L116.877 130.599L123.382 126.882L129.833 130.599L123.382 134.371Z" fill="#42E8E0"/>
<path opacity="0.5" d="M123.382 127.21L129.505 130.818L129.833 130.599L123.382 126.882L116.877 130.599L117.205 130.818L123.382 127.21Z" fill="#42E8E0"/>
<path opacity="0.5" d="M123.383 139.947V142.297L139.509 132.949V130.599L123.383 139.947Z" fill="url(#paint13_linear_239_4893)"/>
<path opacity="0.5" d="M107.201 130.599V132.949L123.382 142.297V139.947L107.201 130.599Z" fill="url(#paint14_linear_239_4893)"/>
<path opacity="0.8" d="M123.383 139.673L107.42 130.489L107.201 130.599L123.383 139.947L139.509 130.599L139.291 130.489L123.383 139.673Z" fill="#42E8E0"/>
<path d="M207.57 153.559C207.242 153.559 206.914 153.504 206.695 153.34L186.906 141.915C186.633 141.751 186.523 141.532 186.523 141.313C186.523 141.04 186.742 140.767 187.07 140.603L206.586 129.341C207.187 129.013 208.062 128.959 208.609 129.287L228.398 140.712C228.671 140.876 228.781 141.095 228.781 141.313C228.781 141.587 228.562 141.86 228.234 142.024L208.718 153.285C208.335 153.504 207.953 153.559 207.57 153.559ZM206.805 153.121C207.242 153.34 208.007 153.34 208.499 153.067L228.015 141.805C228.234 141.696 228.398 141.477 228.398 141.313C228.398 141.149 228.289 141.04 228.179 140.985L208.39 129.56C207.953 129.341 207.187 129.341 206.695 129.615L187.179 140.876C186.961 140.985 186.797 141.204 186.797 141.368C186.797 141.532 186.906 141.641 187.015 141.696L206.805 153.121Z" fill="#76AD7E"/>
<path d="M228.562 132.949V135.409L207.57 147.545L186.578 135.409V132.949H228.562Z" fill="url(#paint15_linear_239_4893)"/>
<path d="M207.57 145.085L186.578 132.949L207.57 120.868L228.562 132.949L207.57 145.085Z" fill="#96D99D"/>
<path d="M207.57 144.812L186.797 132.84L186.578 132.949L207.57 145.085L228.562 132.949L228.343 132.84L207.57 144.812Z" fill="white"/>
<path d="M207.57 142.298L191.389 132.95L207.57 123.656L223.697 132.95L207.57 142.298Z" fill="#173D7A"/>
<path opacity="0.5" d="M207.57 142.298L191.389 132.95L207.57 123.656L223.697 132.95L207.57 142.298Z" fill="url(#paint16_linear_239_4893)"/>
<path opacity="0.5" d="M207.57 121.306L223.697 130.599V132.95L207.57 123.656V121.306Z" fill="url(#paint17_linear_239_4893)"/>
<path opacity="0.5" d="M207.57 123.656L191.389 132.95V130.599L207.57 121.306V123.656Z" fill="url(#paint18_linear_239_4893)"/>
<path opacity="0.5" d="M207.57 139.947L191.389 130.599L207.57 121.306L223.697 130.599L207.57 139.947Z" fill="url(#paint19_linear_239_4893)"/>
<path opacity="0.5" d="M207.57 134.371L201.119 130.599L207.57 126.882L214.02 130.599L207.57 134.371Z" fill="#42E8E0"/>
<path opacity="0.5" d="M207.57 127.21L213.692 130.818L214.02 130.599L207.57 126.882L201.119 130.599L201.392 130.818L207.57 127.21Z" fill="#42E8E0"/>
<path opacity="0.5" d="M207.57 139.947V142.297L223.697 132.949V130.599L207.57 139.947Z" fill="url(#paint20_linear_239_4893)"/>
<path opacity="0.5" d="M191.389 130.599V132.949L207.57 142.297V139.947L191.389 130.599Z" fill="url(#paint21_linear_239_4893)"/>
<path opacity="0.8" d="M207.57 139.673L191.607 130.489L191.389 130.599L207.57 139.947L223.697 130.599L223.478 130.489L207.57 139.673Z" fill="#42E8E0"/>
<path d="M165.531 105.452L128.193 83.859L165.531 62.3203L202.868 83.859L165.531 105.452Z" fill="#96D99D"/>
<path opacity="0.7" d="M165.53 103.484L131.527 83.8588L165.53 64.2881L199.478 83.8588L165.53 103.484Z" fill="#003D42"/>
<path d="M165.531 194.34C164.929 194.34 164.383 194.176 163.891 193.903L118.135 167.499C117.807 167.335 117.643 167.007 117.643 166.624C117.643 166.296 117.807 165.968 118.135 165.749L165.531 138.361L214.403 166.569L167.225 193.793C166.679 194.176 166.077 194.34 165.531 194.34ZM164 193.575C164.929 194.121 166.077 194.121 166.952 193.575L213.637 166.624L165.531 138.853L118.299 166.132C118.08 166.241 117.971 166.46 117.971 166.679C117.971 166.897 118.08 167.116 118.299 167.225L164 193.575Z" fill="#76AD7E"/>
<path d="M165.531 188.162L128.193 166.624L165.531 145.085L202.868 166.624L165.531 188.162Z" fill="white"/>
<path d="M202.869 83.8584V166.624L165.531 188.162V105.452L202.869 83.8584Z" fill="url(#paint22_linear_239_4893)"/>
<path d="M128.193 83.8584V166.624L165.531 188.162V105.452L128.193 83.8584Z" fill="#21555F"/>
<g opacity="0.51">
<path d="M130.707 89.3799V163.727L162.96 182.368V108.021L130.707 89.3799Z" fill="#003D42"/>
</g>
<path d="M197.238 103.867V106.054L171.107 121.142V118.955L197.238 103.867Z" fill="#003D42"/>
<path d="M197.238 113.105V115.292L171.107 130.38V128.193L197.238 113.105Z" fill="#003D42"/>
<path d="M197.238 122.344V124.53L171.107 139.618V137.432L197.238 122.344Z" fill="#003D42"/>
<path d="M197.238 131.638V133.824L171.107 148.912V146.726L197.238 131.638Z" fill="#003D42"/>
<path d="M197.238 140.876V143.063L171.107 158.151V155.964L197.238 140.876Z" fill="#003D42"/>
<path d="M197.238 150.114V152.301L171.107 167.389V165.202L197.238 150.114Z" fill="#003D42"/>
<path d="M165.531 104.741L128.795 83.5303L128.193 83.8583L165.531 105.452L202.868 83.8583L202.212 83.5303L165.531 104.741Z" fill="white"/>
<g opacity="0.51">
<path d="M128.193 153.558L165.531 130.981V105.452L128.193 83.8584V153.558Z" fill="#003D42"/>
</g>
<path d="M134.59 115.729L139.237 118.408V117.588L134.59 114.909V115.729Z" fill="#42E8E0"/>
<path d="M139.947 118.845L142.517 120.267V119.501L139.947 118.025V118.845Z" fill="#42E8E0"/>
<path d="M146.453 122.562L148.257 123.601V122.781L146.453 121.742V122.562Z" fill="#42E8E0"/>
<path d="M145.086 121.798L145.742 122.126V121.36L145.086 120.978V121.798Z" fill="#42E8E0"/>
<path d="M143.227 120.704L144.375 121.36V120.594L143.227 119.938V120.704Z" fill="#42E8E0"/>
<path d="M138.854 121.852L140.712 122.946V122.126L138.854 121.087V121.852Z" fill="#42E8E0"/>
<path d="M134.59 119.392L138.143 121.47V120.65L134.59 118.572V119.392Z" fill="#42E8E0"/>
<path d="M141.26 132.458L144.868 134.535V133.715L141.26 131.638V132.458Z" fill="#42E8E0"/>
<path d="M139.4 131.419L140.548 132.075V131.255L139.4 130.599V131.419Z" fill="#42E8E0"/>
<path d="M141.26 128.795L144.813 130.872V130.052L141.26 127.975V128.795Z" fill="#42E8E0"/>
<path d="M139.4 127.701L140.548 128.357V127.537L139.4 126.881V127.701Z" fill="#42E8E0"/>
<path d="M141.259 148.365L134.535 144.483V145.303L141.259 149.185V148.365Z" fill="#42E8E0"/>
<path d="M143.665 149.732L141.971 148.803V149.623L143.665 150.552V149.732Z" fill="#42E8E0"/>
<path d="M154.597 150.552L147.873 146.616V147.436L154.597 151.318V150.552Z" fill="#42E8E0"/>
<path d="M157.003 151.919L155.309 150.935V151.755L157.003 152.739V151.919Z" fill="#42E8E0"/>
<path d="M136.339 143.718L134.535 142.625V143.445L136.339 144.484V143.718Z" fill="#42E8E0"/>
<path d="M146.89 146.069L145.031 145.03V145.85L146.89 146.889V146.069Z" fill="#42E8E0"/>
<path d="M140.659 146.179L137.051 144.102V144.922L140.659 146.999V146.179Z" fill="#42E8E0"/>
<path d="M142.517 147.218L141.369 146.562V147.382L142.517 148.038V147.218Z" fill="#42E8E0"/>
<path d="M146.835 149.732L143.227 147.654V148.474L146.835 150.552V149.732Z" fill="#42E8E0"/>
<path d="M148.693 150.825L147.545 150.169V150.934L148.693 151.59V150.825Z" fill="#42E8E0"/>
<path d="M146.89 147.928L145.031 146.89V147.655L146.89 148.748V147.928Z" fill="#42E8E0"/>
<path d="M151.153 150.388L147.6 148.311V149.131L151.153 151.208V150.388Z" fill="#42E8E0"/>
<path d="M153.013 151.481L151.865 150.825V151.645L153.013 152.301V151.481Z" fill="#42E8E0"/>
<path d="M138.252 142.953L134.535 140.767V141.587L138.252 143.773V142.953Z" fill="#42E8E0"/>
<path d="M141.696 144.921L138.963 143.391V144.156L141.696 145.741V144.921Z" fill="#42E8E0"/>
<path d="M144.21 146.397L142.406 145.358V146.124L144.21 147.217V146.397Z" fill="#42E8E0"/>
<path d="M156.621 130.27L160.393 132.457V131.637L156.621 129.45V130.27Z" fill="#42E8E0"/>
<path d="M153.176 128.302L155.909 129.888V129.068L153.176 127.482V128.302Z" fill="#42E8E0"/>
<path d="M150.662 126.827L152.466 127.92V127.1L150.662 126.007V126.827Z" fill="#42E8E0"/>
<path d="M155.09 127.537L158.807 129.669V128.903L155.09 126.717V127.537Z" fill="#42E8E0"/>
<path d="M151.646 125.569L154.38 127.1V126.334L151.646 124.749V125.569Z" fill="#42E8E0"/>
<path d="M149.131 124.093L150.935 125.132V124.367L149.131 123.273V124.093Z" fill="#42E8E0"/>
<path d="M141.807 130.926L143.064 131.692V130.872L141.807 130.106V130.926Z" fill="#42E8E0"/>
<path d="M139.4 129.56L141.095 130.544V129.724L139.4 128.74V129.56Z" fill="#42E8E0"/>
<path d="M138.307 141.15L134.535 138.963V139.783L138.307 141.915V141.15Z" fill="#42E8E0"/>
<path d="M141.696 143.118L139.018 141.532V142.352L141.696 143.883V143.118Z" fill="#42E8E0"/>
<path d="M144.265 144.593L142.406 143.5V144.32L144.265 145.359V144.593Z" fill="#42E8E0"/>
<path d="M135.792 137.869L134.535 137.104V137.924L135.792 138.634V137.869Z" fill="#42E8E0"/>
<path d="M138.199 139.236L136.504 138.252V139.072L138.199 140.056V139.236Z" fill="#42E8E0"/>
<path d="M141.587 141.203L138.908 139.618V140.438L141.587 142.023V141.203Z" fill="#42E8E0"/>
<path d="M142.57 125.842L143.828 126.608V125.788L142.57 125.077V125.842Z" fill="#42E8E0"/>
<path d="M140.221 124.476L141.861 125.46V124.64L140.221 123.656V124.476Z" fill="#42E8E0"/>
<path d="M136.777 122.508L139.511 124.093V123.273L136.777 121.688V122.508Z" fill="#42E8E0"/>
<path d="M144.812 128.849L147.491 130.38V129.615L144.812 128.029V128.849Z" fill="#42E8E0"/>
<path d="M140.439 126.444L144.047 128.521V127.756L140.439 125.624V126.444Z" fill="#42E8E0"/>
<path d="M138.58 125.405L139.728 126.061V125.241L138.58 124.585V125.405Z" fill="#42E8E0"/>
<path d="M136.777 124.367L137.925 125.023V124.203L136.777 123.547V124.367Z" fill="#42E8E0"/>
<path d="M138.635 134.753L142.188 136.83V136.01L138.635 133.987V134.753Z" fill="#42E8E0"/>
<path d="M136.777 133.715L137.925 134.371V133.551L136.777 132.895V133.715Z" fill="#42E8E0"/>
<path d="M139.182 136.94L140.439 137.651V136.831L139.182 136.12V136.94Z" fill="#42E8E0"/>
<path d="M143.008 135.464L144.265 136.174V135.354L143.008 134.644V135.464Z" fill="#42E8E0"/>
<path d="M144.812 136.503L147.874 138.252V137.432L144.812 135.683V136.503Z" fill="#42E8E0"/>
<path d="M148.42 138.58L150.224 139.618V138.798L148.42 137.76V138.58Z" fill="#42E8E0"/>
<path d="M136.777 135.573L138.472 136.502V135.737L136.777 134.753V135.573Z" fill="#42E8E0"/>
<path d="M136.941 137.431L138.199 138.197V137.377L136.941 136.666V137.431Z" fill="#42E8E0"/>
<path d="M134.535 136.065L136.23 137.049V136.229L134.535 135.245V136.065Z" fill="#42E8E0"/>
<path d="M141.205 134.371L142.298 135.027V134.261L141.205 133.605V134.371Z" fill="#42E8E0"/>
<path d="M139.4 133.386L140.548 134.042V133.222L139.4 132.566V133.386Z" fill="#42E8E0"/>
<path d="M145.961 124.093L149.842 126.335V125.569L145.961 123.328V124.093Z" fill="#42E8E0"/>
<path d="M141.588 121.633L145.251 123.711V122.891L141.588 120.813V121.633Z" fill="#42E8E0"/>
<path d="M139.783 120.54L140.877 121.196V120.376L139.783 119.72V120.54Z" fill="#42E8E0"/>
<path d="M137.979 119.502L139.127 120.158V119.392L137.979 118.736V119.502Z" fill="#42E8E0"/>
<path d="M136.995 118.954L134.59 117.533V116.713L136.995 118.134V118.954Z" fill="#42E8E0"/>
<path d="M165.531 89.3254L128.193 67.7867L165.531 46.248L202.868 67.7867L165.531 89.3254Z" fill="#96D99D"/>
<path d="M165.531 83.4763L138.361 67.787L165.531 52.0977L192.645 67.787L165.531 83.4763Z" fill="#003D42"/>
<path d="M165.531 53.191L191.716 68.3337L192.645 67.787L165.531 52.0977L138.361 67.787L139.291 68.3337L165.531 53.191Z" fill="white"/>
<path d="M202.869 67.7871V79.9778L165.531 101.571V89.3258L202.869 67.7871Z" fill="url(#paint23_linear_239_4893)"/>
<path d="M128.193 67.7871V79.9778L165.531 101.571V89.3258L128.193 67.7871Z" fill="#21555F"/>
<g opacity="0.51">
<path d="M130.709 73.2529V77.1343L162.962 95.7756V91.8943L130.709 73.2529Z" fill="#003D42"/>
</g>
<path d="M165.531 88.615L128.795 67.4043L128.193 67.787L165.531 89.3256L202.868 67.787L202.212 67.4043L165.531 88.615Z" fill="white"/>
<path d="M197.238 76.3691V78.5558L171.107 93.6438V91.4571L197.238 76.3691Z" fill="#003D42"/>
<path opacity="0.51" d="M128.193 67.7871V79.9778L165.531 101.571V89.3258L128.193 67.7871Z" fill="#003D42"/>
<path d="M154.597 88.6694L147.873 84.7881V85.6081L154.597 89.4894V88.6694Z" fill="#42E8E0"/>
<path d="M146.89 84.2418L145.031 83.1484V83.9684L146.89 85.0618V84.2418Z" fill="#42E8E0"/>
<path d="M138.307 79.2668L134.535 77.1348V77.9001L138.307 80.0868V79.2668Z" fill="#42E8E0"/>
<path d="M141.696 81.2348L139.018 79.7041V80.4694L141.696 82.0548V81.2348Z" fill="#42E8E0"/>
<path d="M144.265 82.7105L142.406 81.6719V82.4919L144.265 83.5305V82.7105Z" fill="#42E8E0"/>
<path d="M165.531 57.5092L164.383 56.7986L165.531 56.1426L166.733 56.7986L165.531 57.5092Z" fill="#42E8E0"/>
<path opacity="0.1" d="M167.937 58.8755L166.734 58.1648L167.937 57.5088L169.085 58.1648L167.937 58.8755Z" fill="#42E8E0"/>
<path opacity="0.4" d="M170.287 60.2426L169.084 59.532L170.287 58.876L171.489 59.532L170.287 60.2426Z" fill="#42E8E0"/>
<path d="M172.638 61.6089L171.49 60.8982L172.638 60.2422L173.841 60.8982L172.638 61.6089Z" fill="#42E8E0"/>
<path opacity="0.4" d="M175.043 62.976L173.84 62.2654L175.043 61.6094L176.191 62.2654L175.043 62.976Z" fill="#42E8E0"/>
<path d="M177.394 64.3423L176.191 63.6316L177.394 62.9756L178.597 63.6316L177.394 64.3423Z" fill="#42E8E0"/>
<path d="M179.798 65.7094L178.596 64.9988L179.798 64.3428L180.946 64.9988L179.798 65.7094Z" fill="#42E8E0"/>
<path d="M182.15 67.0757L180.947 66.365L182.15 65.709L183.353 66.365L182.15 67.0757Z" fill="#42E8E0"/>
<path opacity="0.1" d="M184.5 68.4428L183.352 67.7322L184.5 67.0762L185.702 67.7322L184.5 68.4428Z" fill="#42E8E0"/>
<path d="M163.181 58.8755L161.979 58.1648L163.181 57.5088L164.329 58.1648L163.181 58.8755Z" fill="#42E8E0"/>
<path d="M165.533 60.2417L164.33 59.531L165.533 58.875L166.735 59.531L165.533 60.2417Z" fill="#42E8E0"/>
<path d="M167.882 61.6089L166.734 60.8982L167.882 60.2422L169.085 60.8982L167.882 61.6089Z" fill="#42E8E0"/>
<path d="M170.289 62.9751L169.086 62.2644L170.289 61.6084L171.491 62.2644L170.289 62.9751Z" fill="#42E8E0"/>
<path d="M172.638 64.3423L171.49 63.6316L172.638 62.9756L173.841 63.6316L172.638 64.3423Z" fill="#42E8E0"/>
<path d="M175.044 65.7085L173.842 65.0525L175.044 64.3418L176.192 65.0525L175.044 65.7085Z" fill="#42E8E0"/>
<path d="M177.394 67.0757L176.191 66.4197L177.394 65.709L178.597 66.4197L177.394 67.0757Z" fill="#42E8E0"/>
<path d="M179.746 68.4419L178.598 67.7859L179.746 67.0752L180.948 67.7859L179.746 68.4419Z" fill="#42E8E0"/>
<path d="M182.15 69.809L180.947 69.1531L182.15 68.4424L183.298 69.1531L182.15 69.809Z" fill="#42E8E0"/>
<path d="M160.775 60.2426L159.627 59.532L160.775 58.876L161.978 59.532L160.775 60.2426Z" fill="#42E8E0"/>
<path d="M163.181 61.6089L161.979 60.8982L163.181 60.2422L164.329 60.8982L163.181 61.6089Z" fill="#42E8E0"/>
<path d="M165.531 62.976L164.328 62.32L165.531 61.6094L166.733 62.32L165.531 62.976Z" fill="#42E8E0"/>
<path opacity="0.1" d="M167.882 64.3423L166.734 63.6863L167.882 62.9756L169.085 63.6863L167.882 64.3423Z" fill="#42E8E0"/>
<path opacity="0.4" d="M170.287 65.7094L169.084 65.0534L170.287 64.3428L171.435 65.0534L170.287 65.7094Z" fill="#42E8E0"/>
<path opacity="0.4" d="M172.638 67.0757L171.436 66.4197L172.638 65.709L173.841 66.4197L172.638 67.0757Z" fill="#42E8E0"/>
<path d="M174.988 68.4428L173.84 67.7868L174.988 67.0762L176.191 67.7868L174.988 68.4428Z" fill="#42E8E0"/>
<path d="M177.394 69.809L176.191 69.1531L177.394 68.4424L178.542 69.1531L177.394 69.809Z" fill="#42E8E0"/>
<path d="M179.744 71.1762L178.541 70.5202L179.744 69.8096L180.946 70.5202L179.744 71.1762Z" fill="#42E8E0"/>
<path opacity="0.4" d="M158.425 61.6089L157.223 60.9529L158.425 60.2422L159.573 60.9529L158.425 61.6089Z" fill="#42E8E0"/>
<path opacity="0.4" d="M160.777 62.9751L159.574 62.3191L160.777 61.6084L161.98 62.3191L160.777 62.9751Z" fill="#42E8E0"/>
<path opacity="0.1" d="M163.127 64.3423L161.979 63.6863L163.127 62.9756L164.329 63.6863L163.127 64.3423Z" fill="#42E8E0"/>
<path d="M165.533 65.7085L164.33 65.0525L165.533 64.3418L166.681 65.0525L165.533 65.7085Z" fill="#42E8E0"/>
<path d="M167.882 67.0757L166.68 66.4197L167.882 65.709L169.085 66.4197L167.882 67.0757Z" fill="#42E8E0"/>
<path d="M170.289 68.4419L169.086 67.7859L170.289 67.0752L171.437 67.7859L170.289 68.4419Z" fill="#42E8E0"/>
<path opacity="0.4" d="M172.638 69.809L171.436 69.1531L172.638 68.4424L173.841 69.1531L172.638 69.809Z" fill="#42E8E0"/>
<path d="M174.99 71.1753L173.842 70.5193L174.99 69.8086L176.192 70.5193L174.99 71.1753Z" fill="#42E8E0"/>
<path d="M177.394 72.5424L176.191 71.8864L177.394 71.1758L178.542 71.8864L177.394 72.5424Z" fill="#42E8E0"/>
<path d="M156.019 62.976L154.816 62.32L156.019 61.6094L157.222 62.32L156.019 62.976Z" fill="#42E8E0"/>
<path d="M158.371 64.3423L157.223 63.6863L158.371 62.9756L159.573 63.6863L158.371 64.3423Z" fill="#42E8E0"/>
<path d="M160.775 65.7094L159.572 65.0534L160.775 64.3428L161.978 65.0534L160.775 65.7094Z" fill="#42E8E0"/>
<path d="M163.127 67.0757L161.979 66.4197L163.127 65.709L164.329 66.4197L163.127 67.0757Z" fill="#42E8E0"/>
<path d="M165.531 68.4428L164.328 67.7868L165.531 67.0762L166.679 67.7868L165.531 68.4428Z" fill="#42E8E0"/>
<path d="M167.882 69.809L166.68 69.1531L167.882 68.4424L169.085 69.1531L167.882 69.809Z" fill="#42E8E0"/>
<path d="M170.232 71.1762L169.084 70.5202L170.232 69.8096L171.435 70.5202L170.232 71.1762Z" fill="#42E8E0"/>
<path d="M172.638 72.5971L171.436 71.8864L172.638 71.1758L173.786 71.8864L172.638 72.5971Z" fill="#42E8E0"/>
<path d="M174.988 73.9643L173.785 73.2537L174.988 72.5977L176.19 73.2537L174.988 73.9643Z" fill="#42E8E0"/>
<path d="M153.669 64.3423L152.467 63.6863L153.669 62.9756L154.817 63.6863L153.669 64.3423Z" fill="#42E8E0"/>
<path d="M156.021 65.7085L154.818 65.0525L156.021 64.3418L157.224 65.0525L156.021 65.7085Z" fill="#42E8E0"/>
<path opacity="0.4" d="M158.371 67.0757L157.223 66.4197L158.371 65.709L159.573 66.4197L158.371 67.0757Z" fill="#42E8E0"/>
<path d="M160.777 68.4965L159.574 67.7859L160.777 67.0752L161.925 67.7859L160.777 68.4965Z" fill="#42E8E0"/>
<path opacity="0.1" d="M163.126 69.8637L161.924 69.1531L163.126 68.4971L164.329 69.1531L163.126 69.8637Z" fill="#42E8E0"/>
<path d="M165.478 71.2299L164.33 70.5193L165.478 69.8633L166.681 70.5193L165.478 71.2299Z" fill="#42E8E0"/>
<path d="M167.882 72.5971L166.68 71.8865L167.882 71.2305L169.03 71.8865L167.882 72.5971Z" fill="#42E8E0"/>
<path d="M170.234 73.9633L169.031 73.2527L170.234 72.5967L171.437 73.2527L170.234 73.9633Z" fill="#42E8E0"/>
<path d="M172.638 75.3305L171.436 74.6199L172.638 73.9639L173.786 74.6199L172.638 75.3305Z" fill="#42E8E0"/>
<path d="M151.263 65.7641L150.061 65.0534L151.263 64.3428L152.466 65.0534L151.263 65.7641Z" fill="#42E8E0"/>
<path d="M153.615 67.1303L152.467 66.4197L153.615 65.7637L154.817 66.4197L153.615 67.1303Z" fill="#42E8E0"/>
<path opacity="0.4" d="M156.019 68.4975L154.816 67.7869L156.019 67.1309L157.167 67.7869L156.019 68.4975Z" fill="#42E8E0"/>
<path d="M158.371 69.8637L157.168 69.1531L158.371 68.4971L159.573 69.1531L158.371 69.8637Z" fill="#42E8E0"/>
<path d="M160.72 71.2309L159.572 70.5203L160.72 69.8643L161.923 70.5203L160.72 71.2309Z" fill="#42E8E0"/>
<path opacity="0.1" d="M163.126 72.5971L161.924 71.8865L163.126 71.2305L164.329 71.8865L163.126 72.5971Z" fill="#42E8E0"/>
<path opacity="0.4" d="M165.476 73.9643L164.328 73.2537L165.476 72.5977L166.679 73.2537L165.476 73.9643Z" fill="#42E8E0"/>
<path d="M167.882 75.3305L166.68 74.6199L167.882 73.9639L169.03 74.6199L167.882 75.3305Z" fill="#42E8E0"/>
<path opacity="0.1" d="M170.232 76.6977L169.029 75.9871L170.232 75.3311L171.435 75.9871L170.232 76.6977Z" fill="#42E8E0"/>
<path d="M148.859 67.1303L147.711 66.4197L148.859 65.7637L150.062 66.4197L148.859 67.1303Z" fill="#42E8E0"/>
<path opacity="0.4" d="M151.265 68.4965L150.062 67.7859L151.265 67.1299L152.468 67.7859L151.265 68.4965Z" fill="#42E8E0"/>
<path d="M153.615 69.8637L152.467 69.1531L153.615 68.4971L154.817 69.1531L153.615 69.8637Z" fill="#42E8E0"/>
<path d="M156.021 71.2299L154.818 70.5193L156.021 69.8633L157.169 70.5193L156.021 71.2299Z" fill="#42E8E0"/>
<path d="M158.371 72.5971L157.168 71.8865L158.371 71.2305L159.573 71.8865L158.371 72.5971Z" fill="#42E8E0"/>
<path d="M160.722 73.9633L159.574 73.2527L160.722 72.5967L161.925 73.2527L160.722 73.9633Z" fill="#42E8E0"/>
<path d="M163.126 75.3305L161.924 74.6199L163.126 73.9639L164.274 74.6199L163.126 75.3305Z" fill="#42E8E0"/>
<path opacity="0.4" d="M165.478 76.6967L164.275 75.9861L165.478 75.3301L166.681 75.9861L165.478 76.6967Z" fill="#42E8E0"/>
<path d="M167.828 78.0639L166.68 77.3533L167.828 76.6973L169.03 77.3533L167.828 78.0639Z" fill="#42E8E0"/>
<path d="M146.507 68.4975L145.305 67.7869L146.507 67.1309L147.71 67.7869L146.507 68.4975Z" fill="#42E8E0"/>
<path opacity="0.1" d="M148.859 69.8637L147.711 69.1531L148.859 68.4971L150.062 69.1531L148.859 69.8637Z" fill="#42E8E0"/>
<path d="M151.263 71.2309L150.061 70.5203L151.263 69.8643L152.411 70.5203L151.263 71.2309Z" fill="#42E8E0"/>
<path d="M153.615 72.5971L152.412 71.8865L153.615 71.2305L154.817 71.8865L153.615 72.5971Z" fill="#42E8E0"/>
<path d="M155.964 73.9643L154.816 73.2537L155.964 72.5977L157.167 73.2537L155.964 73.9643Z" fill="#42E8E0"/>
<path d="M158.371 75.3305L157.168 74.6745L158.371 73.9639L159.519 74.6745L158.371 75.3305Z" fill="#42E8E0"/>
<path opacity="0.4" d="M160.72 76.6977L159.518 76.0417L160.72 75.3311L161.923 76.0417L160.72 76.6977Z" fill="#42E8E0"/>
<path d="M163.126 78.0639L161.924 77.4079L163.126 76.6973L164.274 77.4079L163.126 78.0639Z" fill="#42E8E0"/>
<path d="M165.476 79.4311L164.273 78.7751L165.476 78.0645L166.679 78.7751L165.476 79.4311Z" fill="#42E8E0"/>
<path d="M58.6014 169.411C58.0547 169.411 57.4534 169.247 56.9614 168.974L38.2108 158.15C37.9374 157.986 37.7188 157.658 37.7188 157.33C37.7188 157.002 37.8828 156.674 38.2108 156.51L72.2681 136.83L72.5414 136.994L92.7134 148.638C92.9868 148.802 93.2054 149.13 93.2054 149.458C93.2054 149.786 93.0414 150.114 92.7134 150.278L60.2961 169.029C59.6948 169.247 59.1481 169.411 58.6014 169.411ZM72.2681 137.267L38.3747 156.838C38.2107 156.947 38.1014 157.111 38.1014 157.33C38.1014 157.549 38.2107 157.713 38.3747 157.822L57.1254 168.646C58.0001 169.138 59.1481 169.138 60.0228 168.646L92.4401 149.895C92.6041 149.786 92.7134 149.622 92.7134 149.403C92.7134 149.185 92.6041 149.021 92.4401 148.911L72.2681 137.267Z" fill="#76AD7E"/>
<path d="M72.2685 129.341L67.7311 102.554L68.1138 102.39L67.5671 102.062C67.4578 102.008 67.2938 102.008 67.1298 102.117L30.9951 122.945C30.7218 123.109 30.4485 123.546 30.5031 123.874L35.0405 150.88C35.0405 151.044 35.1498 151.098 35.2045 151.153L35.7511 151.481L35.8605 150.989H35.8058L71.7218 130.27C72.1045 130.106 72.3231 129.669 72.2685 129.341Z" fill="url(#paint24_linear_239_4893)"/>
<path d="M31.2685 123.71L30.6672 123.437C30.6125 123.601 30.5578 123.765 30.6125 123.874L35.1498 150.879C35.1498 151.043 35.2592 151.098 35.3138 151.153L35.8605 151.481L35.9698 150.989H35.9152L37.7192 149.95L31.2685 123.71Z" fill="url(#paint25_linear_239_4893)"/>
<path d="M72.3774 130.599L36.2974 151.427C36.0241 151.591 35.8054 151.481 35.7508 151.208L31.1588 124.203C31.1041 123.875 31.3228 123.437 31.6508 123.273L67.7854 102.445C68.0588 102.281 68.2774 102.391 68.3321 102.664L72.8694 129.669C72.9241 129.997 72.7054 130.435 72.3774 130.599Z" fill="#21555F"/>
<g opacity="0.51">
<path d="M67.2387 104.14L32.4707 124.257L36.7894 149.677L71.5574 129.614L67.2387 104.14Z" fill="#003D42"/>
</g>
<path d="M95.0635 143.39L93.0955 144.429L73.3608 133.004C73.0328 132.84 72.4315 132.84 72.0488 133.058L37.9915 152.738C37.6635 152.574 36.1875 151.864 36.1875 151.864L36.8982 153.722C36.9528 153.832 37.0075 153.886 37.1168 153.941L57.9448 165.968C58.2728 166.132 58.8742 166.132 59.2568 165.913L94.1342 145.796C94.2982 145.686 94.4075 145.577 94.4075 145.468L95.0635 143.39Z" fill="url(#paint26_linear_239_4893)"/>
<path d="M94.7908 143.718L59.0388 164.328C58.6561 164.546 58.0548 164.601 57.7268 164.382L36.4068 152.082C36.0788 151.864 36.1334 151.536 36.5161 151.317L72.2681 130.708C72.6508 130.489 73.2521 130.434 73.5801 130.653L94.9001 142.953C95.2281 143.117 95.1734 143.5 94.7908 143.718Z" fill="url(#paint27_linear_239_4893)"/>
<path d="M94.7904 143.5L59.0384 164.109C58.6557 164.328 58.0544 164.383 57.7264 164.164L36.4064 151.864C36.297 151.809 36.2424 151.7 36.1877 151.645C36.133 151.809 36.1877 151.973 36.4064 152.083L57.7264 164.383C58.0544 164.601 58.6557 164.547 59.0384 164.328L94.7904 143.719C95.0637 143.555 95.173 143.336 95.1184 143.172C95.0637 143.281 94.9543 143.391 94.7904 143.5Z" fill="white"/>
<path d="M48.2695 159.845V159.462C48.2695 159.407 48.2695 159.407 48.3242 159.407L49.6909 160.227C49.7455 160.227 49.7455 160.282 49.7455 160.337V160.719C49.7455 160.774 49.7455 160.774 49.6909 160.774L48.3242 159.954C48.2695 159.954 48.2695 159.899 48.2695 159.845Z" fill="#D4ECFF"/>
<path d="M50.3457 161.048V160.665C50.3457 160.61 50.3457 160.61 50.4004 160.61L51.767 161.43C51.8217 161.43 51.8217 161.485 51.8217 161.54V161.922C51.8217 161.977 51.8217 161.977 51.767 161.977L50.4004 161.157C50.3457 161.157 50.3457 161.102 50.3457 161.048Z" fill="#D4ECFF"/>
<path d="M41.9277 150.934L71.6117 133.769C71.8304 133.659 72.049 133.659 72.2677 133.769L82.8184 139.891C82.9824 140.001 82.9824 140.219 82.8184 140.274L53.189 157.439C52.9704 157.549 52.7517 157.549 52.533 157.439L41.9277 151.317C41.8184 151.207 41.8184 150.989 41.9277 150.934Z" fill="#76AD7E"/>
<path d="M41.9278 151.317L42.0371 151.371L71.6118 134.261C71.8304 134.151 72.0491 134.151 72.2678 134.261L82.7638 140.329L82.8731 140.274C83.0371 140.165 83.0371 139.946 82.8731 139.891L72.3224 133.769C72.1038 133.659 71.8851 133.659 71.6664 133.769L41.9824 150.934C41.8184 150.989 41.8184 151.207 41.9278 151.317Z" fill="#76AD7E"/>
<path d="M73.0874 135.3L47.2847 150.224L46.1367 149.568L71.9394 134.644L73.0874 135.3Z" fill="#21555F"/>
<path d="M75.8771 136.939L51.7144 150.934L50.5664 150.278L74.7291 136.283L75.8771 136.939Z" fill="#21555F"/>
<path d="M77.7348 138.033L49.2535 154.433L48.1055 153.777L76.5868 137.322L77.7348 138.033Z" fill="#21555F"/>
<path d="M79.5395 139.072L51.0582 155.527L49.9102 154.871L78.3915 138.416L79.5395 139.072Z" fill="#21555F"/>
<path d="M81.3969 140.11L52.9156 156.565L51.7676 155.909L80.2489 139.454L81.3969 140.11Z" fill="#21555F"/>
<path d="M45.7003 151.098L44.5523 151.809L43.459 151.098L44.5523 150.442L45.7003 151.098Z" fill="#21555F"/>
<path d="M49.7448 152.027L47.3941 153.394L46.2461 152.738L48.5968 151.371L49.7448 152.027Z" fill="#21555F"/>
<path d="M72.8138 155.089L80.7951 150.442C81.1231 150.278 81.1231 149.95 80.7951 149.786L75.3285 146.615C75.0005 146.451 74.5085 146.451 74.1805 146.615L66.1991 151.262C65.8711 151.426 65.8711 151.754 66.1991 151.918L71.6658 155.089C71.9938 155.253 72.4858 155.253 72.8138 155.089Z" fill="url(#paint28_linear_239_4893)"/>
<path d="M66.1993 151.535L74.1807 146.889C74.5087 146.725 75.0007 146.725 75.3287 146.889L80.7953 150.059C80.9047 150.114 80.9593 150.169 81.014 150.278C81.1233 150.114 81.014 149.95 80.7953 149.841L75.3287 146.67C75.0007 146.506 74.5087 146.506 74.1807 146.67L66.1993 151.317C65.9807 151.426 65.926 151.645 65.9807 151.754C66.0353 151.645 66.09 151.59 66.1993 151.535Z" fill="#76AD7E"/>
<g opacity="0.11">
<mask id="mask0_239_4893" style="mask-type:luminance" maskUnits="userSpaceOnUse" x="32" y="104" width="40" height="46">
<path d="M67.2387 104.14L32.4707 124.257L36.7894 149.677L71.5574 129.614L67.2387 104.14Z" fill="white"/>
</mask>
<g mask="url(#mask0_239_4893)">
<path d="M72.2673 130.653L36.5153 151.262C36.1327 151.481 35.5313 151.535 35.2033 151.317L13.8833 139.017C13.5553 138.798 13.61 138.47 13.9927 138.251L49.7447 117.642C50.1273 117.423 50.7287 117.369 51.0567 117.587L72.3767 129.887C72.7047 130.051 72.65 130.434 72.2673 130.653Z" fill="url(#paint29_linear_239_4893)"/>
<path d="M36.4056 134.315L44.3869 129.668C44.7149 129.504 44.7149 129.176 44.3869 129.012L38.9203 125.842C38.5923 125.678 38.1003 125.678 37.7723 125.842L29.7909 130.488C29.4629 130.652 29.4629 130.98 29.7909 131.144L35.2576 134.315C35.5856 134.534 36.0776 134.534 36.4056 134.315Z" fill="url(#paint30_linear_239_4893)"/>
<path d="M29.7911 130.762L37.7725 126.115C38.1005 125.951 38.5925 125.951 38.9205 126.115L44.3871 129.286C44.4964 129.34 44.5511 129.395 44.6058 129.504C44.7151 129.34 44.6058 129.176 44.3871 129.067L38.9205 125.896C38.5925 125.732 38.1005 125.732 37.7725 125.896L29.7911 130.543C29.5725 130.652 29.5178 130.871 29.5725 130.98C29.6271 130.926 29.6818 130.816 29.7911 130.762Z" fill="#76AD7E"/>
<path d="M26.293 141.586L55.977 124.421C56.1956 124.312 56.4143 124.312 56.633 124.421L67.1836 130.544C67.3476 130.653 67.3476 130.872 67.1836 130.926L37.4996 148.092C37.281 148.201 37.0623 148.201 36.8436 148.092L26.2383 141.969C26.129 141.86 26.129 141.641 26.293 141.586Z" fill="#76AD7E"/>
<path d="M26.2929 141.969L26.4023 142.024L55.9769 124.913C56.1956 124.804 56.4143 124.804 56.6329 124.913L67.1289 130.981L67.2383 130.926C67.4023 130.817 67.4023 130.598 67.2383 130.544L56.6876 124.421C56.4689 124.312 56.2503 124.312 56.0316 124.421L26.2929 141.586C26.1289 141.641 26.1289 141.86 26.2929 141.969Z" fill="#76AD7E"/>
<path d="M64.4511 130.106L38.5391 145.03L39.5777 145.632L65.4351 130.708L64.4511 130.106Z" fill="#21555F"/>
<path d="M61.7172 128.521L37.1172 142.735L38.1559 143.336L62.7012 129.123L61.7172 128.521Z" fill="#21555F"/>
<path d="M35.2589 143.773L32.9629 145.14L34.0016 145.741L36.2976 144.375L35.2589 143.773Z" fill="#21555F"/>
<path d="M37.2806 145.796L35.6953 146.725L36.734 147.272L38.3193 146.343L37.2806 145.796Z" fill="#21555F"/>
<path d="M59.9676 127.537L31.2676 144.156L32.3062 144.757L61.0062 128.138L59.9676 127.537Z" fill="#21555F"/>
<path d="M58.2742 126.554L29.5742 143.172L30.5582 143.774L59.3129 127.155L58.2742 126.554Z" fill="#21555F"/>
<path d="M56.5789 125.569L27.8242 142.188L28.8629 142.735L57.6176 126.171L56.5789 125.569Z" fill="#21555F"/>
</g>
</g>
<path d="M45.5352 140L48.3778 138.36L48.4325 138.852L45.6445 140.492L45.5352 140Z" fill="#42E8E0"/>
<path d="M48.8164 138.088L50.3471 137.213L50.4564 137.705L48.9257 138.58L48.8164 138.088Z" fill="#42E8E0"/>
<path d="M52.752 135.846L53.8453 135.19L53.9546 135.682L52.8066 136.338L52.752 135.846Z" fill="#42E8E0"/>
<path d="M51.9316 136.283L52.3143 136.064L52.4236 136.556L52.041 136.775L51.9316 136.283Z" fill="#42E8E0"/>
<path d="M50.8379 136.939L51.4939 136.557L51.6032 137.049L50.8926 137.431L50.8379 136.939Z" fill="#42E8E0"/>
<path d="M47.7773 136.228L48.8707 135.627L48.98 136.119L47.8867 136.72L47.7773 136.228Z" fill="#42E8E0"/>
<path d="M45.207 137.759L47.339 136.502L47.4484 136.994L45.2617 138.251L45.207 137.759Z" fill="#42E8E0"/>
<path d="M48.3242 129.833L50.4562 128.575L50.5656 129.067L48.3789 130.325L48.3242 129.833Z" fill="#42E8E0"/>
<path d="M47.1758 130.488L47.8864 130.105L47.9411 130.597L47.2851 130.98L47.1758 130.488Z" fill="#42E8E0"/>
<path d="M48.6523 132.074L50.839 130.816L50.9483 131.308L48.7617 132.566L48.6523 132.074Z" fill="#42E8E0"/>
<path d="M47.5586 132.73L48.2146 132.293L48.3239 132.785L47.6133 133.222L47.5586 132.73Z" fill="#42E8E0"/>
<path d="M46.684 120.157L42.584 122.562L42.5293 122.07L46.6293 119.665L46.684 120.157Z" fill="#42E8E0"/>
<path d="M48.1597 119.337L47.1211 119.938L47.0664 119.446L48.0504 118.845L48.1597 119.337Z" fill="#42E8E0"/>
<path d="M55.3207 118.845L51.2207 121.25L51.166 120.758L55.266 118.407L55.3207 118.845Z" fill="#42E8E0"/>
<path d="M56.7965 118.025L55.7578 118.627L55.7031 118.135L56.6871 117.533L56.7965 118.025Z" fill="#42E8E0"/>
<path d="M43.896 123L42.8027 123.656L42.6934 123.164L43.7867 122.508L43.896 123Z" fill="#42E8E0"/>
<path d="M50.6753 121.578L49.5273 122.234L49.4727 121.742L50.566 121.086L50.6753 121.578Z" fill="#42E8E0"/>
<path d="M46.5206 121.523L44.3339 122.781L44.2246 122.289L46.4113 121.031L46.5206 121.523Z" fill="#42E8E0"/>
<path d="M47.613 120.867L46.957 121.25L46.8477 120.758L47.5583 120.375L47.613 120.867Z" fill="#42E8E0"/>
<path d="M50.2374 119.337L48.0508 120.594L47.9961 120.102L50.1828 118.845L50.2374 119.337Z" fill="#42E8E0"/>
<path d="M51.3845 118.735L50.6738 119.118L50.6191 118.626L51.2751 118.243L51.3845 118.735Z" fill="#42E8E0"/>
<path d="M50.4566 120.43L49.3632 121.086L49.2539 120.595L50.4019 119.993L50.4566 120.43Z" fill="#42E8E0"/>
<path d="M53.0792 118.954L50.8925 120.211L50.7832 119.719L52.9699 118.462L53.0792 118.954Z" fill="#42E8E0"/>
<path d="M54.1735 118.298L53.5175 118.68L53.4082 118.188L54.1189 117.806L54.1735 118.298Z" fill="#42E8E0"/>
<path d="M45.2628 123.491L42.9668 124.803L42.9121 124.311L45.1534 122.999L45.2628 123.491Z" fill="#42E8E0"/>
<path d="M47.3392 122.289L45.6992 123.218L45.5898 122.726L47.2298 121.797L47.3392 122.289Z" fill="#42E8E0"/>
<path d="M48.8706 121.359L47.7226 122.015L47.668 121.523L48.7613 120.867L48.8706 121.359Z" fill="#42E8E0"/>
<path d="M59.6397 116.385L57.3437 117.697L57.2891 117.205L59.5304 115.893L59.6397 116.385Z" fill="#42E8E0"/>
<path d="M61.7181 115.182L60.0781 116.166L59.9688 115.674L61.6088 114.69L61.7181 115.182Z" fill="#42E8E0"/>
<path d="M63.2476 114.307L62.1543 114.963L62.0449 114.471L63.1383 113.815L63.2476 114.307Z" fill="#42E8E0"/>
<path d="M58.7656 131.145L61.007 129.833L61.1163 130.325L58.8203 131.637L58.7656 131.145Z" fill="#42E8E0"/>
<path d="M56.6875 132.347L58.3275 131.418L58.3822 131.91L56.7422 132.839L56.6875 132.347Z" fill="#42E8E0"/>
<path d="M55.1035 133.222L56.2515 132.621L56.3062 133.113L55.2128 133.714L55.1035 133.222Z" fill="#42E8E0"/>
<path d="M58 132.839L60.2413 131.527L60.3507 132.019L58.0547 133.331L58 132.839Z" fill="#42E8E0"/>
<path d="M55.9219 134.042L57.5619 133.058L57.6165 133.55L55.9765 134.534L55.9219 134.042Z" fill="#42E8E0"/>
<path d="M54.3926 134.917L55.4859 134.261L55.5406 134.753L54.4472 135.409L54.3926 134.917Z" fill="#42E8E0"/>
<path d="M48.8164 130.763L49.5817 130.325L49.6364 130.817L48.8711 131.255L48.8164 130.763Z" fill="#42E8E0"/>
<path d="M47.3945 131.582L48.3785 130.98L48.4879 131.472L47.4492 132.074L47.3945 131.582Z" fill="#42E8E0"/>
<path d="M45.4268 124.585L43.1855 125.897L43.0762 125.405L45.3722 124.093L45.4268 124.585Z" fill="#42E8E0"/>
<path d="M47.5033 123.382L45.8633 124.311L45.8086 123.819L47.4486 122.89L47.5033 123.382Z" fill="#42E8E0"/>
<path d="M49.0894 122.508L47.9414 123.109L47.8867 122.617L48.9801 122.016L49.0894 122.508Z" fill="#42E8E0"/>
<path d="M44.1149 126.553L43.3496 126.99L43.2949 126.498L44.0603 126.061L44.1149 126.553Z" fill="#42E8E0"/>
<path d="M45.5914 125.733L44.5527 126.335L44.498 125.843L45.482 125.241L45.5914 125.733Z" fill="#42E8E0"/>
<path d="M47.6673 124.53L46.0273 125.459L45.918 124.967L47.558 124.038L47.6673 124.53Z" fill="#42E8E0"/>
<path d="M49.8555 133.823L50.6208 133.386L50.7301 133.878L49.9648 134.315L49.8555 133.823Z" fill="#42E8E0"/>
<path d="M48.4336 134.698L49.4176 134.097L49.5269 134.589L48.4883 135.135L48.4336 134.698Z" fill="#42E8E0"/>
<path d="M46.3555 135.846L47.9955 134.917L48.0501 135.409L46.4101 136.338L46.3555 135.846Z" fill="#42E8E0"/>
<path d="M51.002 132.019L52.642 131.09L52.7513 131.582L51.1113 132.511L51.002 132.019Z" fill="#42E8E0"/>
<path d="M48.3789 133.496L50.5656 132.184L50.6202 132.676L48.4336 133.988L48.3789 133.496Z" fill="#42E8E0"/>
<path d="M47.2305 134.151L47.9411 133.714L47.9958 134.206L47.3398 134.589L47.2305 134.151Z" fill="#42E8E0"/>
<path d="M46.1367 134.753L46.8474 134.37L46.9567 134.862L46.2461 135.245L46.1367 134.753Z" fill="#42E8E0"/>
<path d="M46.3008 128.411L48.4874 127.153L48.5421 127.645L46.4101 128.903L46.3008 128.411Z" fill="#42E8E0"/>
<path d="M45.209 129.067L45.865 128.685L45.9743 129.177L45.2637 129.559L45.209 129.067Z" fill="#42E8E0"/>
<path d="M46.4648 127.099L47.2302 126.662L47.2848 127.154L46.5195 127.591L46.4648 127.099Z" fill="#42E8E0"/>
<path d="M49.1445 128.028L49.9099 127.591L50.0192 128.083L49.2539 128.52L49.1445 128.028Z" fill="#42E8E0"/>
<path d="M50.2383 127.373L52.0969 126.334L52.2063 126.826L50.3476 127.865L50.2383 127.373Z" fill="#42E8E0"/>
<path d="M52.4238 126.115L53.5172 125.514L53.6265 126.006L52.5332 126.607L52.4238 126.115Z" fill="#42E8E0"/>
<path d="M44.9902 127.973L46.0289 127.372L46.0836 127.864L45.0996 128.465L44.9902 127.973Z" fill="#42E8E0"/>
<path d="M44.9355 126.826L45.7009 126.389L45.7555 126.881L44.9902 127.318L44.9355 126.826Z" fill="#42E8E0"/>
<path d="M43.459 127.646L44.4977 127.045L44.5523 127.537L43.5683 128.138L43.459 127.646Z" fill="#42E8E0"/>
<path d="M48.0508 128.684L48.7614 128.247L48.8161 128.739L48.1601 129.122L48.0508 128.684Z" fill="#42E8E0"/>
<path d="M46.957 129.286L47.6677 128.903L47.777 129.395L47.0664 129.778L46.957 129.286Z" fill="#42E8E0"/>
<path d="M52.2598 134.916L54.6104 133.55L54.7198 134.042L52.3691 135.408L52.2598 134.916Z" fill="#42E8E0"/>
<path d="M49.6367 136.393L51.8234 135.136L51.9327 135.628L49.7461 136.885L49.6367 136.393Z" fill="#42E8E0"/>
<path d="M48.543 137.049L49.199 136.666L49.3083 137.158L48.5976 137.541L48.543 137.049Z" fill="#42E8E0"/>
<path d="M47.4492 137.705L48.1599 137.268L48.2145 137.76L47.5039 138.197L47.4492 137.705Z" fill="#42E8E0"/>
<path d="M46.8471 138.033L45.3711 138.908L45.4804 139.345L46.9564 138.525L46.8471 138.033Z" fill="#42E8E0"/>
<path d="M270.655 169.411C270.108 169.411 269.507 169.247 269.015 168.974L236.597 150.223C236.324 150.059 236.105 149.731 236.105 149.403C236.105 149.075 236.269 148.747 236.597 148.583L256.988 136.83L257.097 136.885L291.045 156.51C291.319 156.674 291.537 157.002 291.537 157.33C291.537 157.658 291.373 157.986 291.045 158.15L272.295 168.974C271.803 169.247 271.256 169.411 270.655 169.411ZM269.233 168.701C270.108 169.193 271.256 169.193 272.131 168.701L290.881 157.877C291.045 157.767 291.155 157.603 291.155 157.385C291.155 157.166 291.045 157.002 290.881 156.893L256.988 137.322L256.933 137.377L236.761 149.021C236.597 149.13 236.488 149.294 236.488 149.513C236.488 149.731 236.597 149.895 236.761 150.005L269.233 168.701Z" fill="#76AD7E"/>
<path d="M256.987 129.341L261.524 102.554L261.142 102.39L261.688 102.062C261.798 102.008 261.962 102.008 262.126 102.117L298.26 122.945C298.534 123.109 298.807 123.546 298.752 123.874L294.106 150.88C294.106 151.044 293.996 151.098 293.942 151.153L293.395 151.481L293.286 150.989H293.34L257.424 130.27C257.151 130.106 256.932 129.669 256.987 129.341Z" fill="url(#paint31_linear_239_4893)"/>
<path d="M297.986 123.71L298.587 123.437C298.642 123.601 298.696 123.765 298.642 123.874L294.104 150.879C294.104 151.043 293.995 151.098 293.941 151.153L293.394 151.481L293.284 150.989H293.339L291.535 149.95L297.986 123.71Z" fill="url(#paint32_linear_239_4893)"/>
<path d="M256.877 130.599L293.012 151.427C293.285 151.591 293.504 151.481 293.559 151.208L298.096 124.203C298.151 123.875 297.932 123.437 297.604 123.273L261.469 102.445C261.196 102.281 260.977 102.391 260.923 102.664L256.385 129.669C256.331 129.997 256.549 130.435 256.877 130.599Z" fill="#21555F"/>
<g opacity="0.51">
<path d="M262.016 104.14L296.784 124.257L292.465 149.677L257.697 129.614L262.016 104.14Z" fill="#003D42"/>
</g>
<path d="M234.191 143.39L236.159 144.429L255.894 133.004C256.222 132.84 256.823 132.84 257.206 133.058L291.263 152.738C291.591 152.574 293.067 151.864 293.067 151.864L292.357 153.722C292.302 153.832 292.247 153.886 292.138 153.941L271.31 165.968C270.982 166.132 270.381 166.132 269.998 165.913L235.121 145.796C234.957 145.686 234.847 145.577 234.847 145.468L234.191 143.39Z" fill="url(#paint33_linear_239_4893)"/>
<path d="M234.464 143.718L270.216 164.328C270.599 164.546 271.2 164.601 271.528 164.382L292.848 152.082C293.176 151.864 293.122 151.536 292.739 151.317L257.042 130.653C256.659 130.434 256.058 130.38 255.73 130.598L234.41 142.898C234.027 143.117 234.082 143.5 234.464 143.718Z" fill="url(#paint34_linear_239_4893)"/>
<path d="M234.465 143.5L270.217 164.109C270.599 164.328 271.201 164.383 271.529 164.164L292.849 151.864C292.958 151.809 293.013 151.7 293.067 151.645C293.122 151.809 293.067 151.973 292.849 152.083L271.529 164.383C271.201 164.601 270.599 164.547 270.217 164.328L234.465 143.719C234.191 143.555 234.082 143.336 234.137 143.172C234.191 143.281 234.301 143.391 234.465 143.5Z" fill="white"/>
<path d="M280.986 159.845V159.462C280.986 159.407 280.986 159.407 280.931 159.407L279.564 160.227C279.51 160.227 279.51 160.282 279.51 160.337V160.719C279.51 160.774 279.51 160.774 279.564 160.774L280.931 159.954C280.986 159.954 280.986 159.899 280.986 159.845Z" fill="#D4ECFF"/>
<path d="M278.91 161.048V160.665C278.91 160.61 278.91 160.61 278.855 160.61L277.488 161.43C277.434 161.43 277.434 161.485 277.434 161.54V161.922C277.434 161.977 277.434 161.977 277.488 161.977L278.855 161.157C278.91 161.157 278.91 161.102 278.91 161.048Z" fill="#D4ECFF"/>
<path d="M287.328 150.934L257.644 133.769C257.425 133.659 257.207 133.659 256.988 133.769L246.437 139.891C246.273 140.001 246.273 140.219 246.437 140.274L276.067 157.439C276.285 157.549 276.504 157.549 276.723 157.439L287.328 151.317C287.437 151.207 287.437 150.989 287.328 150.934Z" fill="#76AD7E"/>
<path d="M287.328 151.317L287.219 151.371L257.644 134.261C257.425 134.151 257.207 134.151 256.988 134.261L246.492 140.329L246.383 140.274C246.219 140.165 246.219 139.946 246.383 139.891L256.933 133.769C257.152 133.659 257.371 133.659 257.589 133.769L287.273 150.934C287.437 150.989 287.437 151.207 287.328 151.317Z" fill="#76AD7E"/>
<path d="M256.166 135.3L281.969 150.224L283.117 149.568L257.314 134.644L256.166 135.3Z" fill="#21555F"/>
<path d="M253.379 136.939L277.542 150.934L278.69 150.278L254.527 136.283L253.379 136.939Z" fill="#21555F"/>
<path d="M251.52 138.033L280.001 154.433L281.149 153.777L252.668 137.322L251.52 138.033Z" fill="#21555F"/>
<path d="M249.717 139.072L278.198 155.527L279.346 154.871L250.865 138.416L249.717 139.072Z" fill="#21555F"/>
<path d="M247.857 140.11L276.339 156.565L277.487 155.909L249.005 139.454L247.857 140.11Z" fill="#21555F"/>
<path d="M283.5 151.098L284.648 151.809L285.796 151.098L284.648 150.442L283.5 151.098Z" fill="#21555F"/>
<path d="M279.455 152.027L281.86 153.394L283.008 152.738L280.603 151.371L279.455 152.027Z" fill="#21555F"/>
<path d="M256.44 155.089L248.459 150.442C248.131 150.278 248.131 149.95 248.459 149.786L253.926 146.615C254.254 146.451 254.746 146.451 255.074 146.615L263.055 151.262C263.383 151.426 263.383 151.754 263.055 151.918L257.588 155.089C257.26 155.253 256.768 155.253 256.44 155.089Z" fill="url(#paint35_linear_239_4893)"/>
<path d="M263.055 151.535L255.073 146.889C254.745 146.725 254.253 146.725 253.925 146.889L248.459 150.059C248.349 150.114 248.295 150.169 248.24 150.278C248.131 150.114 248.24 149.95 248.459 149.841L253.925 146.67C254.253 146.506 254.745 146.506 255.073 146.67L263.055 151.317C263.273 151.426 263.328 151.645 263.273 151.754C263.219 151.645 263.164 151.59 263.055 151.535Z" fill="#76AD7E"/>
<g opacity="0.11">
<mask id="mask1_239_4893" style="mask-type:luminance" maskUnits="userSpaceOnUse" x="257" y="104" width="40" height="46">
<path d="M262.016 104.14L296.784 124.257L292.465 149.677L257.697 129.614L262.016 104.14Z" fill="white"/>
</mask>
<g mask="url(#mask1_239_4893)">
<path d="M256.987 130.653L292.739 151.262C293.121 151.481 293.723 151.535 294.051 151.317L315.371 139.017C315.699 138.798 315.644 138.47 315.261 138.251L279.509 117.642C279.127 117.423 278.525 117.369 278.197 117.587L256.877 129.887C256.549 130.051 256.604 130.434 256.987 130.653Z" fill="url(#paint36_linear_239_4893)"/>
<path d="M292.848 134.315L284.867 129.668C284.539 129.504 284.539 129.176 284.867 129.012L290.334 125.842C290.662 125.678 291.154 125.678 291.482 125.842L299.463 130.488C299.791 130.652 299.791 130.98 299.463 131.144L293.996 134.315C293.668 134.534 293.176 134.534 292.848 134.315Z" fill="url(#paint37_linear_239_4893)"/>
<path d="M299.463 130.762L291.482 126.115C291.154 125.951 290.662 125.951 290.334 126.115L284.867 129.286C284.758 129.34 284.703 129.395 284.648 129.504C284.539 129.34 284.648 129.176 284.867 129.067L290.334 125.896C290.662 125.732 291.154 125.732 291.482 125.896L299.463 130.543C299.682 130.652 299.736 130.871 299.682 130.98C299.627 130.926 299.572 130.816 299.463 130.762Z" fill="#76AD7E"/>
<path d="M302.961 141.586L273.277 124.421C273.058 124.312 272.84 124.312 272.621 124.421L262.07 130.544C261.906 130.653 261.906 130.872 262.07 130.926L291.754 148.092C291.973 148.201 292.192 148.201 292.41 148.092L303.016 141.969C303.125 141.86 303.125 141.641 302.961 141.586Z" fill="#76AD7E"/>
<path d="M302.961 141.969L302.852 142.024L273.277 124.913C273.058 124.804 272.84 124.804 272.621 124.913L262.125 130.981L262.016 130.926C261.852 130.817 261.852 130.598 262.016 130.544L272.566 124.421C272.785 124.312 273.004 124.312 273.222 124.421L302.906 141.586C303.125 141.641 303.125 141.86 302.961 141.969Z" fill="#76AD7E"/>
<path d="M264.804 130.106L290.716 145.03L289.678 145.632L263.82 130.708L264.804 130.106Z" fill="#21555F"/>
<path d="M267.537 128.521L292.137 142.735L291.098 143.336L266.498 129.123L267.537 128.521Z" fill="#21555F"/>
<path d="M293.996 143.773L296.292 145.14L295.253 145.741L292.957 144.375L293.996 143.773Z" fill="#21555F"/>
<path d="M291.974 145.796L293.56 146.725L292.521 147.272L290.936 146.343L291.974 145.796Z" fill="#21555F"/>
<path d="M269.232 127.537L297.987 144.156L296.948 144.757L268.248 128.138L269.232 127.537Z" fill="#21555F"/>
<path d="M270.982 126.554L299.682 143.172L298.643 143.774L269.943 127.155L270.982 126.554Z" fill="#21555F"/>
<path d="M272.675 125.569L301.375 142.188L300.391 142.735L271.637 126.171L272.675 125.569Z" fill="#21555F"/>
</g>
</g>
<path d="M269.67 113.706L272.458 115.346L272.567 114.854L269.725 113.214L269.67 113.706Z" fill="#42E8E0"/>
<path d="M272.896 115.619L274.482 116.494L274.536 116.002L273.006 115.127L272.896 115.619Z" fill="#42E8E0"/>
<path d="M276.832 117.86L277.98 118.516L278.035 118.024L276.941 117.368L276.832 117.86Z" fill="#42E8E0"/>
<path d="M276.012 117.369L276.394 117.642L276.504 117.15L276.121 116.932L276.012 117.369Z" fill="#42E8E0"/>
<path d="M274.918 116.767L275.629 117.15L275.683 116.658L274.973 116.275L274.918 116.767Z" fill="#42E8E0"/>
<path d="M271.857 117.478L273.005 118.08L273.06 117.588L271.967 116.986L271.857 117.478Z" fill="#42E8E0"/>
<path d="M269.287 115.947L271.474 117.204L271.528 116.712L269.342 115.455L269.287 115.947Z" fill="#42E8E0"/>
<path d="M272.404 123.874L274.591 125.131L274.646 124.639L272.459 123.382L272.404 123.874Z" fill="#42E8E0"/>
<path d="M271.256 123.218L271.967 123.6L272.021 123.108L271.365 122.726L271.256 123.218Z" fill="#42E8E0"/>
<path d="M272.732 121.633L274.919 122.89L275.028 122.398L272.842 121.141L272.732 121.633Z" fill="#42E8E0"/>
<path d="M271.639 120.976L272.349 121.359L272.404 120.922L271.748 120.484L271.639 120.976Z" fill="#42E8E0"/>
<path d="M270.764 133.55L266.719 131.145L266.609 131.637L270.709 133.987L270.764 133.55Z" fill="#42E8E0"/>
<path d="M272.24 134.37L271.201 133.769L271.146 134.261L272.13 134.862L272.24 134.37Z" fill="#42E8E0"/>
<path d="M279.455 134.807L275.355 132.456L275.246 132.948L279.346 135.299L279.455 134.807Z" fill="#42E8E0"/>
<path d="M280.877 135.681L279.838 135.08L279.783 135.572L280.822 136.173L280.877 135.681Z" fill="#42E8E0"/>
<path d="M267.976 130.707L266.883 130.051L266.773 130.543L267.921 131.144L267.976 130.707Z" fill="#42E8E0"/>
<path d="M274.755 132.129L273.662 131.473L273.553 131.965L274.646 132.621L274.755 132.129Z" fill="#42E8E0"/>
<path d="M270.601 132.183L268.414 130.926L268.359 131.418L270.491 132.675L270.601 132.183Z" fill="#42E8E0"/>
<path d="M271.693 132.839L271.037 132.456L270.928 132.948L271.638 133.331L271.693 132.839Z" fill="#42E8E0"/>
<path d="M274.317 134.37L272.185 133.112L272.076 133.604L274.263 134.862L274.317 134.37Z" fill="#42E8E0"/>
<path d="M275.465 134.972L274.754 134.589L274.699 135.081L275.355 135.464L275.465 134.972Z" fill="#42E8E0"/>
<path d="M274.537 133.221L273.443 132.62L273.389 133.112L274.482 133.713L274.537 133.221Z" fill="#42E8E0"/>
<path d="M277.159 134.752L274.973 133.495L274.918 133.987L277.105 135.244L277.159 134.752Z" fill="#42E8E0"/>
<path d="M278.308 135.408L277.598 135.025L277.488 135.463L278.199 135.9L278.308 135.408Z" fill="#42E8E0"/>
<path d="M269.343 130.215L267.047 128.903L266.992 129.395L269.234 130.707L269.343 130.215Z" fill="#42E8E0"/>
<path d="M271.419 131.418L269.779 130.488L269.67 130.98L271.31 131.91L271.419 131.418Z" fill="#42E8E0"/>
<path d="M272.951 132.347L271.857 131.691L271.748 132.183L272.896 132.785L272.951 132.347Z" fill="#42E8E0"/>
<path d="M283.72 137.322L281.424 136.01L281.369 136.502L283.61 137.814L283.72 137.322Z" fill="#42E8E0"/>
<path d="M285.798 138.525L284.158 137.541L284.049 138.033L285.689 139.017L285.798 138.525Z" fill="#42E8E0"/>
<path d="M287.328 139.399L286.234 138.743L286.125 139.235L287.273 139.891L287.328 139.399Z" fill="#42E8E0"/>
<path d="M282.846 122.562L285.087 123.874L285.196 123.382L282.9 122.07L282.846 122.562Z" fill="#42E8E0"/>
<path d="M280.768 121.359L282.408 122.289L282.462 121.797L280.822 120.867L280.768 121.359Z" fill="#42E8E0"/>
<path d="M279.238 120.484L280.332 121.086L280.441 120.594L279.293 119.992L279.238 120.484Z" fill="#42E8E0"/>
<path d="M282.08 120.867L284.376 122.179L284.431 121.687L282.189 120.375L282.08 120.867Z" fill="#42E8E0"/>
<path d="M280.002 119.665L281.642 120.649L281.751 120.157L280.111 119.173L280.002 119.665Z" fill="#42E8E0"/>
<path d="M278.473 118.79L279.566 119.446L279.675 118.954L278.527 118.298L278.473 118.79Z" fill="#42E8E0"/>
<path d="M272.896 122.944L273.662 123.381L273.771 122.889L273.006 122.452L272.896 122.944Z" fill="#42E8E0"/>
<path d="M271.475 122.125L272.459 122.671L272.568 122.234L271.529 121.633L271.475 122.125Z" fill="#42E8E0"/>
<path d="M269.562 129.122L267.266 127.81L267.211 128.302L269.452 129.614L269.562 129.122Z" fill="#42E8E0"/>
<path d="M271.638 130.325L269.998 129.396L269.889 129.888L271.529 130.817L271.638 130.325Z" fill="#42E8E0"/>
<path d="M273.169 131.199L272.021 130.598L271.967 131.035L273.06 131.691L273.169 131.199Z" fill="#42E8E0"/>
<path d="M268.25 127.154L267.484 126.717L267.375 127.209L268.14 127.646L268.25 127.154Z" fill="#42E8E0"/>
<path d="M269.671 127.973L268.633 127.372L268.578 127.864L269.617 128.465L269.671 127.973Z" fill="#42E8E0"/>
<path d="M271.747 129.176L270.107 128.247L269.998 128.684L271.638 129.668L271.747 129.176Z" fill="#42E8E0"/>
<path d="M273.936 119.884L274.701 120.321L274.81 119.829L274.045 119.392L273.936 119.884Z" fill="#42E8E0"/>
<path d="M272.514 119.009L273.498 119.61L273.607 119.118L272.568 118.517L272.514 119.009Z" fill="#42E8E0"/>
<path d="M270.436 117.86L272.076 118.79L272.185 118.297L270.545 117.368L270.436 117.86Z" fill="#42E8E0"/>
<path d="M275.137 121.687L276.777 122.617L276.831 122.125L275.191 121.195L275.137 121.687Z" fill="#42E8E0"/>
<path d="M272.459 120.211L274.646 121.523L274.755 121.031L272.514 119.719L272.459 120.211Z" fill="#42E8E0"/>
<path d="M271.311 119.555L272.021 119.993L272.076 119.501L271.42 119.063L271.311 119.555Z" fill="#42E8E0"/>
<path d="M270.271 118.954L270.927 119.337L271.037 118.845L270.326 118.462L270.271 118.954Z" fill="#42E8E0"/>
<path d="M270.381 125.241L272.568 126.498L272.677 126.061L270.49 124.804L270.381 125.241Z" fill="#42E8E0"/>
<path d="M269.289 124.639L270 125.022L270.054 124.53L269.344 124.147L269.289 124.639Z" fill="#42E8E0"/>
<path d="M270.545 126.607L271.31 127.045L271.42 126.553L270.654 126.115L270.545 126.607Z" fill="#42E8E0"/>
<path d="M273.279 125.679L274.045 126.116L274.099 125.624L273.334 125.187L273.279 125.679Z" fill="#42E8E0"/>
<path d="M274.373 126.334L276.177 127.372L276.286 126.88L274.428 125.842L274.373 126.334Z" fill="#42E8E0"/>
<path d="M276.504 127.592L277.597 128.193L277.707 127.701L276.613 127.1L276.504 127.592Z" fill="#42E8E0"/>
<path d="M269.125 125.732L270.109 126.334L270.218 125.842L269.18 125.24L269.125 125.732Z" fill="#42E8E0"/>
<path d="M269.016 126.881L269.781 127.318L269.89 126.826L269.07 126.389L269.016 126.881Z" fill="#42E8E0"/>
<path d="M267.594 126.06L268.578 126.662L268.687 126.17L267.648 125.568L267.594 126.06Z" fill="#42E8E0"/>
<path d="M272.131 125.022L272.842 125.46L272.896 124.968L272.24 124.53L272.131 125.022Z" fill="#42E8E0"/>
<path d="M271.092 124.421L271.748 124.803L271.857 124.311L271.146 123.929L271.092 124.421Z" fill="#42E8E0"/>
<path d="M276.34 118.79L278.691 120.157L278.8 119.665L276.449 118.298L276.34 118.79Z" fill="#42E8E0"/>
<path d="M273.717 117.314L275.958 118.572L276.013 118.08L273.826 116.822L273.717 117.314Z" fill="#42E8E0"/>
<path d="M272.623 116.658L273.279 117.041L273.388 116.549L272.678 116.166L272.623 116.658Z" fill="#42E8E0"/>
<path d="M271.529 116.002L272.24 116.439L272.295 115.947L271.639 115.51L271.529 116.002Z" fill="#42E8E0"/>
<path d="M270.927 115.674L269.451 114.8L269.561 114.308L271.037 115.182L270.927 115.674Z" fill="#42E8E0"/>
<path d="M118.9 193.192C118.408 193.192 117.971 193.082 117.533 192.809L77.0252 169.466C76.7519 169.302 76.5879 169.029 76.5879 168.701C76.5879 168.373 76.7519 168.1 77.0252 167.936L112.613 147.381L112.777 147.709L77.1892 168.264C77.0252 168.373 76.9159 168.537 76.9159 168.701C76.9159 168.865 77.0252 169.029 77.1892 169.138L117.697 192.536C118.408 192.973 119.337 192.973 120.048 192.536L141.04 180.4L141.204 180.728L120.267 192.864C119.829 193.082 119.392 193.192 118.9 193.192Z" fill="#76AD7E"/>
<defs>
<linearGradient id="paint0_linear_239_4893" x1="215.741" y1="130.898" x2="226.695" y2="111.927" gradientUnits="userSpaceOnUse">
<stop stop-color="#42E8E0"/>
<stop offset="0.0185132" stop-color="#40DEDA"/>
<stop offset="0.1149" stop-color="#37ADBC"/>
<stop offset="0.2166" stop-color="#2E82A2"/>
<stop offset="0.3219" stop-color="#246659"/>
<stop offset="0.4319" stop-color="#24635A"/>
<stop offset="0.5479" stop-color="#24635A"/>
<stop offset="0.6729" stop-color="#24635A"/>
<stop offset="0.813" stop-color="#003D42"/>
<stop offset="1" stop-color="#003D42"/>
</linearGradient>
<linearGradient id="paint1_linear_239_4893" x1="199.378" y1="130.898" x2="188.424" y2="111.925" gradientUnits="userSpaceOnUse">
<stop stop-color="#42E8E0"/>
<stop offset="0.0185132" stop-color="#40DEDA"/>
<stop offset="0.1149" stop-color="#37ADBC"/>
<stop offset="0.2166" stop-color="#2E82A2"/>
<stop offset="0.3219" stop-color="#285E8C"/>
<stop offset="0.4319" stop-color="#22417A"/>
<stop offset="0.5479" stop-color="#1E2A6C"/>
<stop offset="0.6729" stop-color="#1A1A63"/>
<stop offset="0.813" stop-color="#19105D"/>
<stop offset="1" stop-color="#003D42"/>
</linearGradient>
<linearGradient id="paint2_linear_239_4893" x1="199.378" y1="140.343" x2="188.425" y2="159.314" gradientUnits="userSpaceOnUse">
<stop stop-color="#42E8E0"/>
<stop offset="0.0185132" stop-color="#40DEDA"/>
<stop offset="0.1149" stop-color="#37ADBC"/>
<stop offset="0.2166" stop-color="#2E82A2"/>
<stop offset="0.3219" stop-color="#285E8C"/>
<stop offset="0.4319" stop-color="#22417A"/>
<stop offset="0.5479" stop-color="#1E2A6C"/>
<stop offset="0.6729" stop-color="#21555F"/>
<stop offset="0.813" stop-color="#21555F"/>
<stop offset="1" stop-color="#21555F"/>
</linearGradient>
<linearGradient id="paint3_linear_239_4893" x1="215.741" y1="140.343" x2="226.695" y2="159.315" gradientUnits="userSpaceOnUse">
<stop stop-color="#42E8E0"/>
<stop offset="0.0185132" stop-color="#40DEDA"/>
<stop offset="0.1149" stop-color="#37ADBC"/>
<stop offset="0.2166" stop-color="#2E82A2"/>
<stop offset="0.3219" stop-color="#24635A"/>
<stop offset="0.4319" stop-color="#24635A"/>
<stop offset="0.5479" stop-color="#003D42"/>
<stop offset="0.6729" stop-color="#003D42"/>
<stop offset="0.813" stop-color="#003D42"/>
<stop offset="1" stop-color="#003D42"/>
</linearGradient>
<linearGradient id="paint4_linear_239_4893" x1="131.422" y1="130.898" x2="142.375" y2="111.927" gradientUnits="userSpaceOnUse">
<stop stop-color="#42E8E0"/>
<stop offset="0.0185132" stop-color="#40DEDA"/>
<stop offset="0.1149" stop-color="#37ADBC"/>
<stop offset="0.2166" stop-color="#2E82A2"/>
<stop offset="0.3219" stop-color="#285E8C"/>
<stop offset="0.4319" stop-color="#22417A"/>
<stop offset="0.5479" stop-color="#1E2A6C"/>
<stop offset="0.6729" stop-color="#1A1A63"/>
<stop offset="0.813" stop-color="#19105D"/>
<stop offset="1" stop-color="#003D42"/>
</linearGradient>
<linearGradient id="paint5_linear_239_4893" x1="115.059" y1="130.898" x2="104.104" y2="111.925" gradientUnits="userSpaceOnUse">
<stop stop-color="#42E8E0"/>
<stop offset="0.0185132" stop-color="#40DEDA"/>
<stop offset="0.1149" stop-color="#37ADBC"/>
<stop offset="0.2166" stop-color="#2E82A2"/>
<stop offset="0.3219" stop-color="#285E8C"/>
<stop offset="0.4319" stop-color="#24635A"/>
<stop offset="0.5479" stop-color="#24635A"/>
<stop offset="0.6729" stop-color="#24635A"/>
<stop offset="0.813" stop-color="#003D42"/>
<stop offset="1" stop-color="#003D42"/>
</linearGradient>
<linearGradient id="paint6_linear_239_4893" x1="115.058" y1="140.343" x2="104.105" y2="159.314" gradientUnits="userSpaceOnUse">
<stop stop-color="#42E8E0"/>
<stop offset="0.0185132" stop-color="#40DEDA"/>
<stop offset="0.1149" stop-color="#37ADBC"/>
<stop offset="0.2166" stop-color="#2E82A2"/>
<stop offset="0.3219" stop-color="#285E8C"/>
<stop offset="0.4319" stop-color="#24635A"/>
<stop offset="0.5479" stop-color="#24635A"/>
<stop offset="0.6729" stop-color="#24635A"/>
<stop offset="0.813" stop-color="#003D42"/>
<stop offset="1" stop-color="#003D42"/>
</linearGradient>
<linearGradient id="paint7_linear_239_4893" x1="131.421" y1="140.343" x2="142.376" y2="159.315" gradientUnits="userSpaceOnUse">
<stop stop-color="#42E8E0"/>
<stop offset="0.0185132" stop-color="#40DEDA"/>
<stop offset="0.1149" stop-color="#37ADBC"/>
<stop offset="0.2166" stop-color="#2E82A2"/>
<stop offset="0.3219" stop-color="#285E8C"/>
<stop offset="0.4319" stop-color="#22417A"/>
<stop offset="0.5479" stop-color="#1E2A6C"/>
<stop offset="0.6729" stop-color="#1A1A63"/>
<stop offset="0.813" stop-color="#19105D"/>
<stop offset="1" stop-color="#095729"/>
</linearGradient>
<linearGradient id="paint8_linear_239_4893" x1="91.9614" y1="140.247" x2="145.8" y2="140.247" gradientUnits="userSpaceOnUse">
<stop stop-color="#03515E"/>
<stop offset="0.1645" stop-color="#036F77"/>
<stop offset="0.4051" stop-color="#2F98A3"/>
<stop offset="0.6924" stop-color="#40ADBF"/>
<stop offset="1" stop-color="#D4ECFF"/>
</linearGradient>
<linearGradient id="paint9_linear_239_4893" x1="107.198" y1="132.973" x2="139.513" y2="132.973" gradientUnits="userSpaceOnUse">
<stop stop-color="#42E8E0"/>
<stop offset="0.1507" stop-color="#43E3E0"/>
<stop offset="0.3285" stop-color="#45D5DF"/>
<stop offset="0.5199" stop-color="#49BDDD"/>
<stop offset="0.7209" stop-color="#4E9CDB"/>
<stop offset="0.9274" stop-color="#5472D8"/>
<stop offset="1" stop-color="#5761D7"/>
</linearGradient>
<linearGradient id="paint10_linear_239_4893" x1="123.355" y1="127.132" x2="139.513" y2="127.132" gradientUnits="userSpaceOnUse">
<stop stop-color="#42E8E0"/>
<stop offset="0.1507" stop-color="#43E3E0"/>
<stop offset="0.3285" stop-color="#45D5DF"/>
<stop offset="0.5199" stop-color="#49BDDD"/>
<stop offset="0.7209" stop-color="#4E9CDB"/>
<stop offset="0.9274" stop-color="#5472D8"/>
<stop offset="1" stop-color="#5761D7"/>
</linearGradient>
<linearGradient id="paint11_linear_239_4893" x1="107.198" y1="127.132" x2="123.356" y2="127.132" gradientUnits="userSpaceOnUse">
<stop stop-color="#42E8E0"/>
<stop offset="0.1507" stop-color="#43E3E0"/>
<stop offset="0.3285" stop-color="#45D5DF"/>
<stop offset="0.5199" stop-color="#49BDDD"/>
<stop offset="0.7209" stop-color="#4E9CDB"/>
<stop offset="0.9274" stop-color="#5472D8"/>
<stop offset="1" stop-color="#5761D7"/>
</linearGradient>
<linearGradient id="paint12_linear_239_4893" x1="107.198" y1="130.62" x2="139.513" y2="130.62" gradientUnits="userSpaceOnUse">
<stop stop-color="#42E8E0"/>
<stop offset="0.1507" stop-color="#43E3E0"/>
<stop offset="0.3285" stop-color="#45D5DF"/>
<stop offset="0.5199" stop-color="#49BDDD"/>
<stop offset="0.7209" stop-color="#4E9CDB"/>
<stop offset="0.9274" stop-color="#5472D8"/>
<stop offset="1" stop-color="#5761D7"/>
</linearGradient>
<linearGradient id="paint13_linear_239_4893" x1="123.356" y1="136.46" x2="139.513" y2="136.46" gradientUnits="userSpaceOnUse">
<stop stop-color="#42E8E0"/>
<stop offset="0.1507" stop-color="#43E3E0"/>
<stop offset="0.3285" stop-color="#45D5DF"/>
<stop offset="0.5199" stop-color="#49BDDD"/>
<stop offset="0.7209" stop-color="#4E9CDB"/>
<stop offset="0.9274" stop-color="#5472D8"/>
<stop offset="1" stop-color="#5761D7"/>
</linearGradient>
<linearGradient id="paint14_linear_239_4893" x1="107.198" y1="136.46" x2="123.356" y2="136.46" gradientUnits="userSpaceOnUse">
<stop stop-color="#42E8E0"/>
<stop offset="0.1507" stop-color="#43E3E0"/>
<stop offset="0.3285" stop-color="#45D5DF"/>
<stop offset="0.5199" stop-color="#49BDDD"/>
<stop offset="0.7209" stop-color="#4E9CDB"/>
<stop offset="0.9274" stop-color="#5472D8"/>
<stop offset="1" stop-color="#5761D7"/>
</linearGradient>
<linearGradient id="paint15_linear_239_4893" x1="176.166" y1="140.247" x2="230.005" y2="140.247" gradientUnits="userSpaceOnUse">
<stop stop-color="#03515E"/>
<stop offset="0.1645" stop-color="#259789"/>
<stop offset="0.4051" stop-color="#259789"/>
<stop offset="0.6924" stop-color="#40ADBF"/>
<stop offset="1" stop-color="#D4ECFF"/>
</linearGradient>
<linearGradient id="paint16_linear_239_4893" x1="191.402" y1="132.973" x2="223.718" y2="132.973" gradientUnits="userSpaceOnUse">
<stop stop-color="#42E8E0"/>
<stop offset="0.1507" stop-color="#43E3E0"/>
<stop offset="0.3285" stop-color="#45D5DF"/>
<stop offset="0.5199" stop-color="#49BDDD"/>
<stop offset="0.7209" stop-color="#4E9CDB"/>
<stop offset="0.9274" stop-color="#5472D8"/>
<stop offset="1" stop-color="#5761D7"/>
</linearGradient>
<linearGradient id="paint17_linear_239_4893" x1="207.56" y1="127.132" x2="223.718" y2="127.132" gradientUnits="userSpaceOnUse">
<stop stop-color="#42E8E0"/>
<stop offset="0.1507" stop-color="#43E3E0"/>
<stop offset="0.3285" stop-color="#45D5DF"/>
<stop offset="0.5199" stop-color="#49BDDD"/>
<stop offset="0.7209" stop-color="#4E9CDB"/>
<stop offset="0.9274" stop-color="#5472D8"/>
<stop offset="1" stop-color="#5761D7"/>
</linearGradient>
<linearGradient id="paint18_linear_239_4893" x1="191.402" y1="127.132" x2="207.56" y2="127.132" gradientUnits="userSpaceOnUse">
<stop stop-color="#42E8E0"/>
<stop offset="0.1507" stop-color="#43E3E0"/>
<stop offset="0.3285" stop-color="#45D5DF"/>
<stop offset="0.5199" stop-color="#49BDDD"/>
<stop offset="0.7209" stop-color="#4E9CDB"/>
<stop offset="0.9274" stop-color="#5472D8"/>
<stop offset="1" stop-color="#5761D7"/>
</linearGradient>
<linearGradient id="paint19_linear_239_4893" x1="191.402" y1="130.62" x2="223.718" y2="130.62" gradientUnits="userSpaceOnUse">
<stop stop-color="#42E8E0"/>
<stop offset="0.1507" stop-color="#43E3E0"/>
<stop offset="0.3285" stop-color="#45D5DF"/>
<stop offset="0.5199" stop-color="#49BDDD"/>
<stop offset="0.7209" stop-color="#4E9CDB"/>
<stop offset="0.9274" stop-color="#5472D8"/>
<stop offset="1" stop-color="#5761D7"/>
</linearGradient>
<linearGradient id="paint20_linear_239_4893" x1="207.56" y1="136.46" x2="223.718" y2="136.46" gradientUnits="userSpaceOnUse">
<stop stop-color="#42E8E0"/>
<stop offset="0.1507" stop-color="#43E3E0"/>
<stop offset="0.3285" stop-color="#45D5DF"/>
<stop offset="0.5199" stop-color="#49BDDD"/>
<stop offset="0.7209" stop-color="#4E9CDB"/>
<stop offset="0.9274" stop-color="#5472D8"/>
<stop offset="1" stop-color="#5761D7"/>
</linearGradient>
<linearGradient id="paint21_linear_239_4893" x1="191.402" y1="136.46" x2="207.56" y2="136.46" gradientUnits="userSpaceOnUse">
<stop stop-color="#42E8E0"/>
<stop offset="0.1507" stop-color="#43E3E0"/>
<stop offset="0.3285" stop-color="#45D5DF"/>
<stop offset="0.5199" stop-color="#49BDDD"/>
<stop offset="0.7209" stop-color="#4E9CDB"/>
<stop offset="0.9274" stop-color="#5472D8"/>
<stop offset="1" stop-color="#5761D7"/>
</linearGradient>
<linearGradient id="paint22_linear_239_4893" x1="184.177" y1="164.885" x2="184.177" y2="86.0972" gradientUnits="userSpaceOnUse">
<stop stop-color="#76AD7E"/>
<stop offset="0.2938" stop-color="#96D99D"/>
<stop offset="0.6399" stop-color="#96D99D"/>
<stop offset="1" stop-color="#BEECD0"/>
</linearGradient>
<linearGradient id="paint23_linear_239_4893" x1="184.177" y1="94.011" x2="184.177" y2="68.4979" gradientUnits="userSpaceOnUse">
<stop stop-color="#76AD7E"/>
<stop offset="0.2938" stop-color="#96D99D"/>
<stop offset="0.64" stop-color="#96D99D"/>
<stop offset="1" stop-color="#E9E9FD"/>
<stop offset="1" stop-color="#BEECD0"/>
</linearGradient>
<linearGradient id="paint24_linear_239_4893" x1="30.5803" y1="126.748" x2="72.2926" y2="126.748" gradientUnits="userSpaceOnUse">
<stop stop-color="#76AD7E"/>
<stop offset="0.2938" stop-color="#96D99D"/>
<stop offset="0.6399" stop-color="#96D99D"/>
<stop offset="1" stop-color="#BEECD0"/>
</linearGradient>
<linearGradient id="paint25_linear_239_4893" x1="30.5806" y1="137.445" x2="37.743" y2="137.445" gradientUnits="userSpaceOnUse">
<stop stop-color="#03515E"/>
<stop offset="0.1779" stop-color="#036F77"/>
<stop offset="0.3876" stop-color="#40ADBF"/>
<stop offset="0.6134" stop-color="#40ADBF"/>
<stop offset="0.849" stop-color="#87C5F1"/>
<stop offset="1" stop-color="#D4ECFF"/>
</linearGradient>
<linearGradient id="paint26_linear_239_4893" x1="36.1679" y1="149.471" x2="95.0792" y2="149.471" gradientUnits="userSpaceOnUse">
<stop stop-color="#21555F"/>
<stop offset="0.1779" stop-color="#03515E"/>
<stop offset="0.3876" stop-color="#2496A3"/>
<stop offset="0.6134" stop-color="#3AA5B4"/>
<stop offset="0.849" stop-color="#40ADBF"/>
<stop offset="1" stop-color="#D4ECFF"/>
</linearGradient>
<linearGradient id="paint27_linear_239_4893" x1="55.9628" y1="147.506" x2="114.906" y2="147.506" gradientUnits="userSpaceOnUse">
<stop stop-color="#76AD7E"/>
<stop offset="0.2938" stop-color="#96D99D"/>
<stop offset="0.6399" stop-color="#96D99D"/>
<stop offset="1" stop-color="#BEECD0"/>
</linearGradient>
<linearGradient id="paint28_linear_239_4893" x1="65.9437" y1="150.852" x2="81.0316" y2="150.852" gradientUnits="userSpaceOnUse">
<stop stop-color="#76AD7E"/>
<stop offset="0.2938" stop-color="#96D99D"/>
<stop offset="0.6399" stop-color="#96D99D"/>
<stop offset="1" stop-color="#BEECD0"/>
</linearGradient>
<linearGradient id="paint29_linear_239_4893" x1="33.4426" y1="134.442" x2="92.3854" y2="134.442" gradientUnits="userSpaceOnUse">
<stop stop-color="#76AD7E"/>
<stop offset="0.2938" stop-color="#96D99D"/>
<stop offset="0.6399" stop-color="#96D99D"/>
<stop offset="1" stop-color="#BEECD0"/>
</linearGradient>
<linearGradient id="paint30_linear_239_4893" x1="29.5629" y1="130.115" x2="44.6505" y2="130.115" gradientUnits="userSpaceOnUse">
<stop stop-color="#76AD7E"/>
<stop offset="0.2938" stop-color="#96D99D"/>
<stop offset="0.6399" stop-color="#96D99D"/>
<stop offset="1" stop-color="#BEECD0"/>
</linearGradient>
<linearGradient id="paint31_linear_239_4893" x1="298.67" y1="126.748" x2="256.957" y2="126.748" gradientUnits="userSpaceOnUse">
<stop stop-color="#76AD7E"/>
<stop offset="0.2938" stop-color="#96D99D"/>
<stop offset="0.6399" stop-color="#96D99D"/>
<stop offset="1" stop-color="#BEECD0"/>
</linearGradient>
<linearGradient id="paint32_linear_239_4893" x1="298.668" y1="137.445" x2="291.506" y2="137.445" gradientUnits="userSpaceOnUse">
<stop stop-color="#003D42"/>
<stop offset="0.1779" stop-color="#21555F"/>
<stop offset="0.3876" stop-color="#036F77"/>
<stop offset="0.6134" stop-color="#2F98A3"/>
<stop offset="0.849" stop-color="#32A2B5"/>
<stop offset="1" stop-color="#D4ECFF"/>
</linearGradient>
<linearGradient id="paint33_linear_239_4893" x1="293.082" y1="149.471" x2="234.17" y2="149.471" gradientUnits="userSpaceOnUse">
<stop stop-color="#21555F"/>
<stop offset="0.1779" stop-color="#036F77"/>
<stop offset="0.3876" stop-color="#036F77"/>
<stop offset="0.6134" stop-color="#2F98A3"/>
<stop offset="0.849" stop-color="#3FABBD"/>
<stop offset="1" stop-color="#D4ECFF"/>
</linearGradient>
<linearGradient id="paint34_linear_239_4893" x1="273.287" y1="147.506" x2="214.344" y2="147.506" gradientUnits="userSpaceOnUse">
<stop stop-color="#76AD7E"/>
<stop offset="0.2938" stop-color="#96D99D"/>
<stop offset="0.6399" stop-color="#96D99D"/>
<stop offset="1" stop-color="#BEECD0"/>
</linearGradient>
<linearGradient id="paint35_linear_239_4893" x1="263.305" y1="150.852" x2="248.217" y2="150.852" gradientUnits="userSpaceOnUse">
<stop stop-color="#76AD7E"/>
<stop offset="0.2938" stop-color="#96D99D"/>
<stop offset="0.6399" stop-color="#96D99D"/>
<stop offset="1" stop-color="#BEECD0"/>
</linearGradient>
<linearGradient id="paint36_linear_239_4893" x1="295.806" y1="134.442" x2="236.863" y2="134.442" gradientUnits="userSpaceOnUse">
<stop stop-color="#76AD7E"/>
<stop offset="0.2938" stop-color="#96D99D"/>
<stop offset="0.6399" stop-color="#96D99D"/>
<stop offset="1" stop-color="#BEECD0"/>
</linearGradient>
<linearGradient id="paint37_linear_239_4893" x1="299.686" y1="130.115" x2="284.598" y2="130.115" gradientUnits="userSpaceOnUse">
<stop stop-color="#76AD7E"/>
<stop offset="0.2938" stop-color="#96D99D"/>
<stop offset="0.6399" stop-color="#96D99D"/>
<stop offset="1" stop-color="#BEECD0"/>
</linearGradient>
</defs>
</svg>
