<svg width="384" height="236" viewBox="0 0 384 236" fill="none" xmlns="http://www.w3.org/2000/svg">
<g opacity="0.3">
<path d="M322.724 150.332C322.669 150.332 322.614 150.332 322.559 150.273L255.524 108.619C254.262 107.852 253.604 106.79 253.604 105.669C253.604 104.548 254.262 103.486 255.524 102.719L299.19 75.5792C300.178 74.9302 300.781 74.1632 300.781 73.2782C300.781 72.4522 300.232 71.6262 299.19 70.9772L225.188 25.1932C222.939 23.8362 219.318 23.8362 217.124 25.1932L192.328 40.5922C191.341 41.2412 190.738 42.0082 190.738 42.8932C190.738 43.7782 191.286 44.5452 192.328 45.1942L229.192 68.0862C230.454 68.8532 231.112 69.9152 231.112 71.0362C231.112 72.1572 230.454 73.2192 229.192 73.9862L174.061 108.206C171.647 109.681 167.698 109.681 165.284 108.206L128.694 85.4912C128.53 85.3732 128.475 85.1372 128.584 84.9602C128.694 84.7832 128.914 84.7242 129.078 84.8422L165.668 107.557C167.917 108.914 171.538 108.914 173.732 107.557L228.863 73.3372C229.851 72.6882 230.454 71.9212 230.454 71.0362C230.454 70.2102 229.906 69.3842 228.863 68.7352L191.999 45.7842C190.738 45.0172 190.079 43.9552 190.079 42.8342C190.079 41.7132 190.738 40.6512 191.999 39.8842L216.795 24.4852C219.208 23.0102 223.158 23.0102 225.572 24.4852L299.519 70.4462C300.781 71.2132 301.439 72.2752 301.439 73.3962C301.439 74.5172 300.781 75.5792 299.519 76.3462L255.853 103.486C254.866 104.135 254.262 104.902 254.262 105.787C254.262 106.613 254.811 107.439 255.853 108.088L322.888 149.742C323.053 149.86 323.108 150.096 322.998 150.273C322.943 150.273 322.834 150.332 322.724 150.332Z" fill="#1F9941"/>
<path d="M306.706 119.121C306.596 119.121 306.486 119.062 306.432 118.944C306.322 118.767 306.377 118.531 306.541 118.413L371.657 77.9985C373.028 77.1135 373.851 75.9925 373.851 74.8125C373.851 73.6325 373.083 72.5115 371.657 71.6265L309.229 32.8635C306.212 30.9755 301.275 30.9755 298.258 32.8635L284.324 41.5365C284.16 41.6545 283.94 41.5955 283.831 41.4185C283.721 41.2415 283.776 41.0055 283.94 40.8875L297.874 32.2145C301.056 30.2085 306.322 30.2085 309.504 32.2145L371.931 70.9775C373.577 71.9805 374.454 73.3375 374.454 74.8125C374.454 76.2875 373.577 77.6445 371.931 78.6475L306.816 119.062C306.871 119.121 306.816 119.121 306.706 119.121Z" fill="#1F9941"/>
<path d="M151.735 230.985C149.924 230.985 148.169 230.572 146.798 229.746L57.5999 174.345C56.2285 173.46 55.4605 172.339 55.4605 171.041C55.4605 169.802 56.2285 168.622 57.5999 167.737L88.0456 148.857C90.7885 147.146 95.1771 147.146 97.9199 148.857L154.148 183.844C156.672 185.437 160.786 185.437 163.31 183.844L239.232 136.703C240.384 135.995 241.042 135.051 241.042 134.048C241.042 133.045 240.384 132.101 239.232 131.393L216.795 117.469C214.272 115.876 210.158 115.876 207.634 117.469L163.694 144.786C160.951 146.497 156.562 146.497 153.819 144.786L92.4342 106.672C89.9108 105.079 85.7965 105.079 83.2731 106.672L17.7188 147.382C17.5542 147.5 17.225 147.264 17.225 147.264C17.1153 147.087 17.1702 146.851 17.3348 146.733L82.8891 106.023C85.6319 104.312 90.0205 104.312 92.7633 106.023L92.9157 106.118L154.148 144.137C156.672 145.73 160.786 145.73 163.31 144.137L207.25 116.82C209.993 115.109 214.382 115.109 217.124 116.82L239.561 130.744C240.932 131.629 241.7 132.75 241.7 134.048C241.7 135.287 240.932 136.467 239.561 137.352L163.639 184.493C160.896 186.204 156.507 186.204 153.764 184.493L97.4811 149.565C94.9576 147.972 90.8433 147.972 88.3199 149.565L57.8742 168.445C56.7222 169.153 56.0639 170.097 56.0639 171.1C56.0639 172.103 56.7222 173.047 57.8742 173.755L147.072 229.156C149.595 230.749 153.71 230.749 156.233 229.156L271.652 157.471C271.817 157.353 272.036 157.412 272.146 157.589C272.256 157.766 272.201 158.002 272.036 158.12L156.672 229.687C155.3 230.572 153.49 230.985 151.735 230.985Z" fill="#1F9941"/>
<path d="M237.037 203.55C236.982 203.55 236.928 203.55 236.873 203.491L217.673 191.573C217.508 191.455 217.453 191.219 217.563 191.042C217.673 190.865 217.892 190.806 218.057 190.924L237.257 202.842C237.421 202.96 237.476 203.196 237.366 203.373C237.312 203.491 237.202 203.55 237.037 203.55Z" fill="#1F9941"/>
<path d="M184.65 72.5698C184.54 72.5698 184.43 72.5108 184.375 72.3928C184.266 72.2158 184.321 71.9798 184.485 71.8618L209.719 56.1678C209.884 56.0498 210.103 56.1088 210.213 56.2858C210.323 56.4628 210.268 56.6988 210.103 56.8168L184.869 72.5108C184.759 72.5108 184.705 72.5698 184.65 72.5698Z" fill="#1F9941"/>
<path d="M373.522 118.826C373.467 118.826 373.412 118.826 373.357 118.767L340.223 98.1762C340.059 98.0582 340.004 97.8222 340.114 97.6452C340.223 97.4682 340.443 97.4092 340.607 97.5272L373.741 118.118C373.906 118.236 373.961 118.472 373.851 118.649C373.741 118.708 373.631 118.826 373.522 118.826Z" fill="#1F9941"/>
<path d="M184.868 79.4735H173.513C173.348 79.4735 173.184 79.2966 173.184 79.1196V72.0395C173.184 71.9215 173.238 71.8625 173.293 71.8035C173.348 71.7445 173.458 71.6855 173.513 71.6855H184.868C185.033 71.6855 185.197 71.8625 185.197 72.0395V79.1196C185.197 79.2376 185.142 79.2965 185.088 79.3555C185.033 79.4145 184.978 79.4735 184.868 79.4735ZM173.842 78.7065H184.539V72.3935H173.842V78.7065Z" fill="#1F9941"/>
<path d="M320.858 63.956H309.503C309.338 63.956 309.174 63.779 309.174 63.602V56.522C309.174 56.345 309.338 56.168 309.503 56.168H320.858C321.023 56.168 321.188 56.345 321.188 56.522V63.602C321.188 63.838 321.023 63.956 320.858 63.956ZM309.832 63.248H320.529V56.935H309.832V63.248Z" fill="#1F9941"/>
<path d="M154.423 214.583C152.229 214.583 150.035 214.052 148.334 213.049C146.634 211.987 145.701 210.571 145.701 209.037C145.701 207.503 146.634 206.087 148.334 205.025C151.681 202.96 157.166 202.96 160.513 205.025C162.213 206.087 163.146 207.503 163.146 209.037C163.146 210.571 162.213 211.987 160.513 213.049C158.867 214.052 156.673 214.583 154.423 214.583ZM154.423 204.199C152.339 204.199 150.254 204.671 148.663 205.674C147.182 206.559 146.359 207.798 146.359 209.037C146.359 210.276 147.182 211.456 148.663 212.4C151.845 214.347 157.002 214.347 160.129 212.4C161.61 211.515 162.433 210.276 162.433 209.037C162.433 207.798 161.61 206.618 160.129 205.674C158.593 204.671 156.508 204.199 154.423 204.199Z" fill="#1F9941"/>
<path d="M133.193 201.367C130.999 201.367 128.804 200.836 127.104 199.833C125.403 198.771 124.471 197.355 124.471 195.821C124.471 194.287 125.403 192.871 127.104 191.809C130.45 189.744 135.936 189.744 139.282 191.809C140.983 192.871 141.915 194.287 141.915 195.821C141.915 197.355 140.983 198.771 139.282 199.833C137.582 200.836 135.387 201.367 133.193 201.367ZM133.193 190.983C131.108 190.983 129.024 191.455 127.433 192.458C125.952 193.343 125.129 194.582 125.129 195.821C125.129 197.06 125.952 198.24 127.433 199.184C130.615 201.131 135.771 201.131 138.898 199.184C140.379 198.299 141.202 197.06 141.202 195.821C141.202 194.582 140.379 193.402 138.898 192.458C137.362 191.514 135.278 190.983 133.193 190.983Z" fill="#1F9941"/>
<path d="M111.963 188.21C109.768 188.21 107.574 187.679 105.873 186.676C104.173 185.614 103.24 184.198 103.24 182.664C103.24 181.13 104.173 179.714 105.873 178.652C109.22 176.587 114.705 176.587 118.052 178.652C119.752 179.714 120.685 181.13 120.685 182.664C120.685 184.198 119.752 185.614 118.052 186.676C116.351 187.679 114.157 188.21 111.963 188.21ZM111.963 177.826C109.878 177.826 107.793 178.298 106.203 179.301C104.721 180.186 103.899 181.425 103.899 182.664C103.899 183.903 104.721 185.083 106.203 186.027C109.384 187.974 114.541 187.974 117.668 186.027C119.149 185.142 119.972 183.903 119.972 182.664C119.972 181.425 119.149 180.245 117.668 179.301C116.077 178.298 113.992 177.826 111.963 177.826Z" fill="#1F9941"/>
<path d="M90.6793 174.994C88.485 174.994 86.2907 174.463 84.5902 173.46C82.8896 172.398 81.957 170.982 81.957 169.448C81.957 167.914 82.8896 166.498 84.5902 165.436C87.9365 163.371 93.4222 163.371 96.7685 165.436C98.469 166.498 99.4016 167.914 99.4016 169.448C99.4016 170.982 98.469 172.398 96.7685 173.46C95.0679 174.463 92.8736 174.994 90.6793 174.994ZM90.6793 164.61C88.5948 164.61 86.5102 165.082 84.9193 166.085C83.4382 166.97 82.6153 168.209 82.6153 169.448C82.6153 170.687 83.4382 171.867 84.9193 172.811C88.101 174.758 93.2576 174.758 96.3845 172.811C97.8656 171.926 98.6885 170.687 98.6885 169.448C98.6885 168.209 97.8656 167.029 96.3845 166.085C94.8485 165.082 92.7639 164.61 90.6793 164.61Z" fill="#1F9941"/>
<path d="M96.6029 166.144C96.4931 166.144 96.3834 166.085 96.3286 165.967C96.2189 165.79 96.2737 165.554 96.4383 165.436L110.317 156.822C110.482 156.704 110.701 156.763 110.811 156.94C110.921 157.117 110.866 157.353 110.701 157.471L96.8223 166.085C96.7126 166.085 96.6577 166.144 96.6029 166.144Z" fill="#1F9941"/>
<path d="M172.801 219.657C172.746 219.657 172.691 219.657 172.636 219.598L161.116 212.341C160.951 212.223 160.897 211.987 161.006 211.81C161.116 211.633 161.335 211.574 161.5 211.692L173.02 218.949C173.185 219.067 173.239 219.303 173.13 219.48C173.02 219.539 172.91 219.657 172.801 219.657Z" fill="#1F9941"/>
<path d="M248.448 210.571H237.093C236.928 210.571 236.764 210.394 236.764 210.217V203.137C236.764 203.019 236.819 202.96 236.873 202.901C236.928 202.842 237.038 202.783 237.093 202.783H248.448C248.613 202.783 248.777 202.96 248.777 203.137V210.217C248.777 210.335 248.723 210.394 248.668 210.453C248.613 210.571 248.503 210.571 248.448 210.571ZM237.422 209.863H248.119V203.55H237.422V209.863Z" fill="#1F9941"/>
</g>
<path opacity="0.5" d="M344.504 44.6632L321.573 30.4442C321.08 30.1492 321.135 29.6182 321.738 29.2642L328.485 25.0752L353.226 40.4152L346.479 44.6042C345.875 44.9582 344.997 45.0172 344.504 44.6632Z" fill="#095729"/>
<path d="M377.088 25.3118V20.4148H369.628L353.116 10.1488C352.732 9.91276 352.019 9.91276 351.525 10.2078L335.068 20.4148H327.662V25.3708C327.662 25.5478 327.772 25.6658 327.936 25.7838L351.635 40.4748C352.019 40.7108 352.732 40.7108 353.226 40.4158L376.704 25.8428C376.979 25.6658 377.088 25.4888 377.088 25.3118Z" fill="url(#paint0_linear_61_7173)"/>
<path d="M351.689 35.5773L327.991 20.8863C327.607 20.6503 327.662 20.1783 328.101 19.8833L351.58 5.3103C352.073 5.0153 352.732 5.0153 353.171 5.2513L376.869 19.9423C377.253 20.1783 377.198 20.6503 376.759 20.9453L353.28 35.4593C352.787 35.7543 352.073 35.8133 351.689 35.5773Z" fill="url(#paint1_linear_61_7173)"/>
<path d="M351.744 33.8077L330.733 20.7687C330.349 20.5327 330.404 20.1787 330.843 19.8837L351.634 7.02174C352.073 6.78574 352.676 6.72674 353.06 6.96274L374.071 20.0017C374.455 20.2377 374.4 20.5917 373.961 20.8867L353.17 33.8077C352.731 34.0437 352.128 34.0437 351.744 33.8077Z" fill="#095729"/>
<path d="M351.799 32.7456L332.49 20.7686C332.16 20.5916 332.215 20.1786 332.599 19.9426L351.69 8.08361C352.074 7.84761 352.622 7.84761 352.951 8.02461L372.261 20.0016C372.59 20.1786 372.535 20.5916 372.151 20.8276L353.061 32.6866C352.732 32.9226 352.128 32.9226 351.799 32.7456Z" fill="#76AD7E"/>
<path d="M351.964 19.5883L349.715 18.1723L350.922 17.4053L353.171 18.8213L351.964 19.5883Z" fill="#96D99D"/>
<path d="M356.134 19.4115L353.885 20.8275L352.678 20.0605L354.927 18.6445L356.134 19.4115Z" fill="#96D99D"/>
<path d="M351.471 19.9418L350.209 20.7088L349.002 19.9418L350.209 19.1748L351.471 19.9418Z" fill="#96D99D"/>
<path d="M355.694 22.5385L354.488 23.3055L350.922 21.1225L352.184 20.3555L355.694 22.5385Z" fill="#96D99D"/>
<path opacity="0.5" d="M82.3397 188.505L59.4094 174.286C58.9157 173.991 58.9706 173.46 59.574 173.106L66.3214 168.917L91.062 184.257L84.3146 188.446C83.7111 188.8 82.8334 188.8 82.3397 188.505Z" fill="#095729"/>
<path d="M114.924 169.094V164.197H107.464L90.9518 153.931C90.5678 153.695 89.8546 153.695 89.3609 153.99L72.9038 164.197H65.498V169.153C65.498 169.33 65.6078 169.448 65.7723 169.566L89.4706 184.257C89.8546 184.493 90.5678 184.493 91.0615 184.198L114.54 169.625C114.815 169.507 114.924 169.271 114.924 169.094Z" fill="url(#paint2_linear_61_7173)"/>
<path d="M89.5254 179.36L65.8271 164.669C65.4431 164.433 65.498 163.961 65.9368 163.666L89.4157 149.093C89.9094 148.798 90.5677 148.798 91.0065 149.034L114.705 163.725C115.089 163.961 115.034 164.433 114.595 164.728L91.1163 179.301C90.6225 179.596 89.9094 179.596 89.5254 179.36Z" fill="url(#paint3_linear_61_7173)"/>
<path d="M89.5796 177.649L68.5693 164.61C68.1853 164.374 68.2401 164.02 68.679 163.725L89.4699 150.804C89.9087 150.568 90.5122 150.509 90.8962 150.745L111.906 163.784C112.29 164.02 112.236 164.374 111.797 164.669L91.0059 177.59C90.567 177.826 89.9636 177.885 89.5796 177.649Z" fill="#095729"/>
<path d="M89.6352 176.528L70.3255 164.551C69.9964 164.374 70.0512 163.961 70.4352 163.725L89.5255 151.866C89.9095 151.63 90.4581 151.63 90.7872 151.807L110.097 163.784C110.426 163.961 110.371 164.374 109.987 164.61L90.8969 176.469C90.5678 176.705 89.9644 176.764 89.6352 176.528Z" fill="#76AD7E"/>
<path d="M89.7999 163.429L87.5508 162.013L88.7576 161.246L91.0616 162.662L89.7999 163.429Z" fill="#96D99D"/>
<path d="M94.0245 163.193L91.7205 164.609L90.5137 163.842L92.7628 162.426L94.0245 163.193Z" fill="#96D99D"/>
<path d="M89.3065 163.724L88.0447 164.491L86.8379 163.724L88.0447 162.957L89.3065 163.724Z" fill="#96D99D"/>
<path d="M93.5304 166.379L92.3235 167.146L88.7578 164.963L90.0195 164.196L93.5304 166.379Z" fill="#96D99D"/>
<path opacity="0.5" d="M350.043 132.455L327.113 118.236C326.619 117.941 326.674 117.41 327.277 117.056L334.025 112.867L358.765 128.207L352.018 132.396C351.414 132.75 350.537 132.75 350.043 132.455Z" fill="#095729"/>
<path d="M382.682 113.044V108.147H375.222L358.71 97.8812C358.326 97.6452 357.612 97.6452 357.119 97.9402L340.662 108.147H333.256V113.103C333.256 113.28 333.366 113.398 333.53 113.516L357.228 128.207C357.612 128.443 358.326 128.443 358.819 128.148L382.298 113.575C382.518 113.457 382.682 113.221 382.682 113.044Z" fill="url(#paint4_linear_61_7173)"/>
<path d="M357.229 123.31L333.53 108.619C333.146 108.383 333.201 107.911 333.64 107.616L357.119 93.0427C357.613 92.7477 358.271 92.7477 358.71 92.9837L382.408 107.675C382.792 107.911 382.737 108.383 382.298 108.678L358.819 123.251C358.326 123.546 357.667 123.546 357.229 123.31Z" fill="url(#paint5_linear_61_7173)"/>
<path d="M357.337 121.599L336.327 108.56C335.943 108.324 335.998 107.97 336.437 107.675L357.228 94.7542C357.667 94.5182 358.27 94.4592 358.654 94.6952L379.664 107.734C380.048 107.97 379.993 108.324 379.555 108.619L358.709 121.54C358.325 121.776 357.667 121.835 357.337 121.599Z" fill="#095729"/>
<path d="M357.393 120.478L338.083 108.501C337.754 108.324 337.809 107.911 338.193 107.675L357.283 95.816C357.667 95.58 358.216 95.58 358.545 95.757L377.855 107.734C378.184 107.911 378.129 108.324 377.745 108.56L358.655 120.419C358.271 120.655 357.722 120.714 357.393 120.478Z" fill="#76AD7E"/>
<path d="M357.503 107.379L355.254 105.963L356.516 105.196L358.765 106.612L357.503 107.379Z" fill="#96D99D"/>
<path d="M361.728 107.143L359.479 108.559L358.217 107.792L360.466 106.376L361.728 107.143Z" fill="#96D99D"/>
<path d="M357.01 107.674L355.803 108.441L354.541 107.674L355.803 106.907L357.01 107.674Z" fill="#96D99D"/>
<path d="M361.288 110.329L360.027 111.096L356.461 108.913L357.723 108.146L361.288 110.329Z" fill="#96D99D"/>
<path opacity="0.5" d="M242.578 162.546L201.819 136.881C201.38 136.645 201.435 136.173 201.929 135.878L234.13 115.936C234.624 115.641 235.392 115.582 235.776 115.877L276.589 141.542C277.028 141.778 276.973 142.25 276.48 142.545L244.278 162.487C243.785 162.782 243.017 162.782 242.578 162.546Z" fill="#095729"/>
<path d="M251.081 64.0156H255.744C255.031 62.3636 254.647 61.3016 254.647 61.3016L208.348 41.8906V124.963V125.022C208.348 125.199 208.457 125.317 208.622 125.435L250.807 151.631C250.862 151.69 250.972 151.69 251.081 151.749V64.0156Z" fill="#095729"/>
<path d="M278.235 52.0977L251.629 68.4407V118.414V151.808C251.903 151.808 252.232 151.69 252.507 151.572L277.851 135.819C278.125 135.642 278.235 135.465 278.235 135.229V52.0977Z" fill="url(#paint6_linear_61_7173)"/>
<path d="M249.709 43.4834V117.292V138.827V150.981L250.806 151.689C251.026 151.807 251.3 151.866 251.574 151.866C251.903 151.866 251.903 151.689 252.123 151.512L252.342 151.394L252.123 138.65V118.649L252.671 43.4834H249.709Z" fill="#095729"/>
<path d="M252.726 138.768V119.121V67.791L251.629 68.44V118.413V151.807C251.684 151.807 251.739 151.807 251.793 151.807C251.793 151.807 251.793 151.807 251.848 151.807C252.013 151.807 252.123 151.748 252.232 151.689C252.287 151.63 252.342 151.63 252.452 151.571L252.671 151.453V138.768H252.726Z" fill="#BEECD0"/>
<path opacity="0.51" d="M210.432 46.4336L247.625 69.5026V147.265L210.432 124.196V46.4336Z" fill="#76AD7E"/>
<path opacity="0.51" d="M208.348 112.986L249.71 83.1906V67.8506L208.348 41.8906V112.986Z" fill="#76AD7E"/>
<path d="M250.807 68.5585L208.622 42.3625C208.183 42.1265 208.238 41.6545 208.732 41.3595L234.076 25.6065C234.569 25.3115 235.337 25.2525 235.721 25.5475L277.906 51.7435C278.345 51.9795 278.29 52.4515 277.797 52.7465L252.507 68.4405C252.014 68.7355 251.246 68.7945 250.807 68.5585Z" fill="#96D99D"/>
<path opacity="0.78" d="M235.337 26.6689H232.32L208.732 41.3009C208.238 41.5959 208.183 42.0679 208.622 42.3039L209.774 43.0119L246.418 65.7859L251.246 65.7269L235.337 26.6689Z" fill="url(#paint7_linear_61_7173)"/>
<path d="M235.336 28.2617L215.094 40.8877L213.119 40.4747V42.0677L251.245 65.7267L270.555 51.6257L235.336 28.2617Z" fill="url(#paint8_linear_61_7173)"/>
<path d="M273.463 50.3271V51.9201L251.246 65.7261V64.1331L273.463 50.3271Z" fill="url(#paint9_linear_61_7173)"/>
<path d="M251.245 64.1339L213.119 40.4749L235.336 26.6689L273.462 50.3279L251.245 64.1339Z" fill="url(#paint10_linear_61_7173)"/>
<path d="M227.383 38.7636L226.779 38.3506V38.0556L232.43 34.5156L233.198 34.9286L233.088 35.2236L227.383 38.7636Z" fill="#96D99D"/>
<path d="M232.484 34.8109L233.087 35.2239L233.471 34.9879L232.484 34.3389L226.34 38.1149L226.779 38.3509L232.484 34.8109Z" fill="url(#paint11_linear_61_7173)"/>
<path d="M229.193 39.8853L228.59 39.5313L228.645 39.1773L234.295 35.6963L235.063 36.1093L234.898 36.3453L229.193 39.8853Z" fill="#96D99D"/>
<path d="M234.294 35.991L234.898 36.345L235.282 36.109L234.294 35.46L228.205 39.295L228.589 39.531L234.294 35.991Z" fill="url(#paint12_linear_61_7173)"/>
<path d="M231.059 41.0054L230.455 40.6514L230.51 40.3564L236.105 36.8164L236.873 37.2294L236.764 37.4654L231.059 41.0054Z" fill="#96D99D"/>
<path d="M236.159 37.1117L236.763 37.4656L237.147 37.2296L236.159 36.6396L230.07 40.4156L230.454 40.6517L236.159 37.1117Z" fill="url(#paint13_linear_61_7173)"/>
<path d="M232.869 42.1855L232.266 41.7725L232.32 41.4775L237.971 37.9375L238.739 38.3505L238.574 38.6455L232.869 42.1855Z" fill="#96D99D"/>
<path d="M237.97 38.2327L238.573 38.6457L239.012 38.4097L237.97 37.7607L231.881 41.5367L232.265 41.7727L237.97 38.2327Z" fill="url(#paint14_linear_61_7173)"/>
<path d="M238.299 45.5488L237.641 45.1358L237.695 44.8408L243.346 41.3008L244.114 41.7138L244.004 42.0088L238.299 45.5488Z" fill="#96D99D"/>
<path d="M243.4 41.596L244.003 42.009L244.387 41.773L243.4 41.124L237.256 44.9L237.695 45.136L243.4 41.596Z" fill="url(#paint15_linear_61_7173)"/>
<path d="M240.109 46.6704L239.506 46.3164L239.561 46.0214L245.211 42.4814L245.979 42.8944L245.814 43.1304L240.109 46.6704Z" fill="#96D99D"/>
<path d="M245.21 42.7761L245.814 43.1301L246.198 42.8941L245.21 42.2451L239.121 46.0801L239.505 46.3161L245.21 42.7761Z" fill="url(#paint16_linear_61_7173)"/>
<path d="M241.975 47.7906L241.371 47.4366L241.426 47.1416L247.021 43.6016L247.789 44.0146L247.68 44.2506L241.975 47.7906Z" fill="#96D99D"/>
<path d="M247.075 43.8968L247.679 44.2508L248.063 44.0148L247.075 43.4248L240.986 47.2008L241.37 47.4368L247.075 43.8968Z" fill="url(#paint17_linear_61_7173)"/>
<path d="M243.785 48.9707L243.182 48.5577L243.237 48.2627L248.887 44.7227L249.655 45.1357L249.49 45.4307L243.785 48.9707Z" fill="#96D99D"/>
<path d="M248.886 45.0179L249.489 45.4309L249.928 45.1949L248.886 44.5459L242.797 48.3219L243.181 48.5579L248.886 45.0179Z" fill="url(#paint18_linear_61_7173)"/>
<path d="M249.217 52.3345L248.559 51.9215L248.613 51.6265L254.264 48.1455L255.032 48.4995L254.922 48.7945L249.217 52.3345Z" fill="#96D99D"/>
<path d="M254.318 48.3812L254.921 48.7942L255.305 48.5582L254.318 47.9092L248.174 51.6852L248.558 51.9212L254.318 48.3812Z" fill="url(#paint19_linear_61_7173)"/>
<path d="M251.027 53.4556L250.424 53.1016L250.479 52.8066L256.129 49.2666L256.897 49.6796L256.732 49.9156L251.027 53.4556Z" fill="#96D99D"/>
<path d="M256.128 49.5613L256.732 49.9153L257.116 49.6793L256.128 49.0303L250.039 52.8653L250.423 53.1013L256.128 49.5613Z" fill="url(#paint20_linear_61_7173)"/>
<path d="M252.892 54.6347L252.289 54.2217L252.344 53.9267L257.939 50.3867L258.707 50.7997L258.598 51.0357L252.892 54.6347Z" fill="#96D99D"/>
<path d="M257.993 50.682L258.597 51.036L258.981 50.8L257.993 50.21L251.904 53.986L252.288 54.222L257.993 50.682Z" fill="url(#paint21_linear_61_7173)"/>
<path d="M254.703 55.7564L254.1 55.3434L254.154 55.0484L259.805 51.5674L260.573 51.9214L260.408 52.2164L254.703 55.7564Z" fill="#96D99D"/>
<path d="M259.804 51.8031L260.407 52.2161L260.846 51.9801L259.804 51.3311L253.715 55.1071L254.099 55.3431L259.804 51.8031Z" fill="url(#paint22_linear_61_7173)"/>
<path d="M274.284 108.207L255.578 119.83V92.3359L274.284 80.7129V108.207Z" fill="#96D99D"/>
<path d="M273.242 81.3619V107.735L255.578 118.709V119.83L274.284 108.207V80.7129L273.242 81.3619Z" fill="url(#paint23_linear_61_7173)"/>
<path d="M285.587 115.345L284.599 115.935L274.56 109.681C274.396 109.563 274.122 109.563 273.902 109.681L256.567 120.478C256.403 120.36 255.635 120.006 255.635 120.006L256.019 121.009C256.019 121.068 256.074 121.068 256.128 121.127L266.716 127.735C266.88 127.853 267.155 127.853 267.374 127.735L285.148 116.702C285.203 116.643 285.258 116.584 285.312 116.525L285.587 115.345Z" fill="url(#paint24_linear_61_7173)"/>
<path d="M285.422 115.522L267.21 126.85C266.99 126.968 266.716 126.968 266.551 126.909L255.69 120.183C255.525 120.065 255.525 119.888 255.744 119.77L273.957 108.442C274.176 108.324 274.451 108.324 274.615 108.383L285.477 115.109C285.642 115.168 285.587 115.404 285.422 115.522Z" fill="url(#paint25_linear_61_7173)"/>
<path d="M261.725 124.373V124.137L262.438 124.55V124.609V124.845L261.725 124.373Z" fill="#095729"/>
<path d="M262.766 125.021V124.785L263.479 125.198V125.257V125.493L262.766 125.021Z" fill="#095729"/>
<path d="M258.486 119.475L273.627 110.094C273.737 110.035 273.846 110.035 273.956 110.094L279.332 113.457C279.387 113.516 279.387 113.634 279.332 113.693L264.192 123.074C264.082 123.133 263.972 123.133 263.862 123.074L258.486 119.711C258.432 119.652 258.432 119.534 258.486 119.475Z" fill="#96D99D"/>
<path d="M258.486 119.653L273.627 110.331C273.737 110.272 273.846 110.272 273.956 110.331L279.277 113.635L279.332 113.576C279.387 113.517 279.387 113.399 279.332 113.34L273.956 109.977C273.846 109.918 273.737 109.918 273.627 109.977L258.486 119.358C258.432 119.535 258.432 119.653 258.486 119.653Z" fill="#96D99D"/>
<path d="M274.341 110.92L261.23 119.062L260.627 118.708L273.793 110.566L274.341 110.92Z" fill="#095729"/>
<path d="M275.823 111.805L263.48 119.475L262.877 119.121L275.22 111.451L275.823 111.805Z" fill="#095729"/>
<path d="M276.756 112.395L262.219 121.422L261.615 121.009L276.152 112.041L276.756 112.395Z" fill="#095729"/>
<path d="M277.687 112.985L263.15 121.953L262.547 121.599L277.084 112.631L277.687 112.985Z" fill="#095729"/>
<path d="M278.621 113.575L264.084 122.543L263.48 122.189L278.018 113.162L278.621 113.575Z" fill="#095729"/>
<path d="M260.463 119.594L259.859 119.948L259.256 119.594L259.859 119.181L260.463 119.594Z" fill="#095729"/>
<path d="M262.492 120.065L261.285 120.832L260.682 120.478L261.888 119.711L262.492 120.065Z" fill="#095729"/>
<path d="M274.232 121.718L278.291 119.181C278.456 119.063 278.456 118.945 278.291 118.827L275.493 117.116C275.329 116.998 275.054 116.998 274.89 117.116L270.83 119.653C270.666 119.771 270.666 119.889 270.83 120.007L273.628 121.718C273.793 121.836 274.067 121.836 274.232 121.718Z" fill="url(#paint26_linear_61_7173)"/>
<path d="M270.83 119.771L274.89 117.234C275.054 117.116 275.329 117.116 275.493 117.234L278.291 118.945C278.346 119.004 278.346 119.004 278.401 119.063C278.456 119.004 278.401 118.886 278.291 118.827L275.493 117.116C275.329 116.998 275.054 116.998 274.89 117.116L270.83 119.653C270.721 119.712 270.666 119.83 270.721 119.889C270.776 119.83 270.776 119.83 270.83 119.771Z" fill="#96D99D"/>
<path d="M273.242 81.3613L255.578 92.3353V118.708L273.242 107.734V81.3613Z" fill="#095729"/>
<path d="M273.242 81.3613L255.578 92.3353V118.708L273.242 107.734V81.3613Z" fill="#095729"/>
<g opacity="0.11">
<path opacity="0.51" d="M272.255 108.324V83.1904L255.578 93.5154V118.708L272.255 108.324Z" fill="#76AD7E"/>
<mask id="mask0_61_7173" style="mask-type:luminance" maskUnits="userSpaceOnUse" x="255" y="83" width="18" height="36">
<path d="M272.255 108.324V83.1904L255.578 93.5154V118.708L272.255 108.324Z" fill="white"/>
</mask>
<g mask="url(#mask0_61_7173)">
<path d="M273.955 108.324L255.852 119.593C255.633 119.711 255.358 119.711 255.194 119.652L244.387 112.926C244.222 112.808 244.222 112.631 244.442 112.513L262.545 101.244C262.764 101.126 263.038 101.126 263.203 101.185L274.01 107.911C274.174 108.029 274.174 108.206 273.955 108.324Z" fill="url(#paint27_linear_61_7173)"/>
<path d="M255.798 110.33L259.857 107.793C260.022 107.675 260.022 107.557 259.857 107.439L257.06 105.728C256.895 105.61 256.621 105.61 256.511 105.728L252.452 108.265C252.287 108.383 252.287 108.501 252.452 108.619L255.249 110.33C255.414 110.448 255.633 110.448 255.798 110.33Z" fill="url(#paint28_linear_61_7173)"/>
<path d="M252.452 108.442L256.511 105.905C256.676 105.787 256.95 105.787 257.06 105.905L259.857 107.616C259.912 107.675 259.912 107.675 259.967 107.734C260.022 107.675 259.967 107.557 259.857 107.498L257.06 105.787C256.895 105.669 256.621 105.669 256.511 105.787L252.452 108.324C252.342 108.383 252.287 108.501 252.342 108.56C252.397 108.501 252.397 108.442 252.452 108.442Z" fill="#96D99D"/>
<path d="M250.696 114.283L265.726 104.961C265.836 104.902 265.946 104.902 266.056 104.961L271.432 108.324C271.486 108.383 271.486 108.501 271.432 108.56L256.401 117.882C256.291 117.941 256.181 117.941 256.072 117.882L250.696 114.578C250.586 114.46 250.586 114.342 250.696 114.283Z" fill="#96D99D"/>
<path d="M250.696 114.52L265.726 105.257C265.836 105.198 265.946 105.198 266.056 105.257L271.377 108.561L271.432 108.502C271.486 108.443 271.486 108.325 271.432 108.266L266.056 104.903C265.946 104.844 265.836 104.844 265.726 104.903L250.696 114.284C250.586 114.343 250.586 114.461 250.696 114.52Z" fill="#96D99D"/>
<path d="M270.005 108.029L256.895 116.171L257.388 116.525L270.499 108.383L270.005 108.029Z" fill="#095729"/>
<path d="M268.634 107.203L256.182 114.932L256.675 115.286L269.128 107.498L268.634 107.203Z" fill="#095729"/>
<path d="M255.248 115.522L254.041 116.23L254.59 116.584L255.742 115.817L255.248 115.522Z" fill="#095729"/>
<path d="M256.235 116.584L255.467 117.115L255.961 117.41L256.783 116.938L256.235 116.584Z" fill="#095729"/>
<path d="M267.756 106.672L253.219 115.699L253.712 115.994L268.25 106.967L267.756 106.672Z" fill="#095729"/>
<path d="M266.879 106.142L252.342 115.169L252.836 115.464L267.428 106.437L266.879 106.142Z" fill="#095729"/>
<path d="M266 105.61L251.463 114.637L252.011 114.932L266.549 105.905L266 105.61Z" fill="#095729"/>
</g>
</g>
<path d="M260.406 95.5805L259.309 96.2295V95.5215L260.406 94.8135V95.5805Z" fill="#96D99D"/>
<path d="M260.406 100.772L259.309 101.421V96.9371L260.406 96.2881V100.772Z" fill="#96D99D"/>
<path d="M260.406 103.191L259.309 103.899V102.129L260.406 101.421V103.191Z" fill="#96D99D"/>
<path d="M260.406 105.788L259.309 106.437V104.667L260.406 104.018V105.788Z" fill="#96D99D"/>
<path d="M261.943 97.0552L260.9 97.7632V95.9932L261.943 95.2852V97.0552Z" fill="#96D99D"/>
<path d="M261.943 100.477L260.9 101.126V98.5299L261.943 97.8809V100.477Z" fill="#96D99D"/>
<path d="M261.943 103.604L260.9 104.253V102.011L261.943 101.362V103.604Z" fill="#96D99D"/>
<path d="M260.406 108.324L259.309 108.973V107.203L260.406 106.554V108.324Z" fill="#96D99D"/>
<path d="M261.943 94.6361L260.9 95.2851V94.5181L261.943 93.8691V94.6361Z" fill="#96D99D"/>
<path d="M261.174 110.33L259.309 111.451V110.743L261.174 109.563V110.33Z" fill="#96D99D"/>
<path d="M248.611 69.7979C248.611 69.2669 248.282 68.6769 247.843 68.3819C247.624 68.2639 247.459 68.2639 247.295 68.3229L246.746 68.6769H247.075C247.075 68.7359 247.075 68.7949 247.075 68.8539C247.075 69.3849 247.404 69.9749 247.843 70.2699C247.898 70.3289 247.953 70.3289 248.008 70.3289L247.843 70.6239L248.392 70.2699C248.556 70.2699 248.611 70.0929 248.611 69.7979Z" fill="url(#paint29_linear_61_7173)"/>
<path d="M248.118 70.1524C248.118 70.6834 247.789 70.8603 247.35 70.6243C246.911 70.3883 246.582 69.7394 246.582 69.2084C246.582 68.6774 246.911 68.5004 247.35 68.7364C247.789 69.0314 248.118 69.6214 248.118 70.1524Z" fill="url(#paint30_linear_61_7173)"/>
<path d="M247.79 69.9747C247.79 70.2697 247.57 70.3877 247.351 70.2697C247.132 70.0927 246.912 69.7387 246.912 69.4437C246.912 69.1487 247.132 69.0307 247.351 69.1487C247.57 69.2667 247.79 69.6797 247.79 69.9747Z" fill="#96D99D"/>
<path d="M211.473 46.8468C211.473 46.3158 211.143 45.7258 210.705 45.4308C210.485 45.3128 210.321 45.3128 210.156 45.3718L209.607 45.7258H209.937C209.937 45.7848 209.937 45.8438 209.937 45.9028C209.937 46.4338 210.266 47.0238 210.705 47.3188C210.759 47.3778 210.814 47.3778 210.869 47.3778L210.705 47.6728L211.253 47.3188C211.363 47.3188 211.473 47.1418 211.473 46.8468Z" fill="url(#paint31_linear_61_7173)"/>
<path d="M210.925 47.2012C210.925 47.7322 210.596 47.9092 210.157 47.6732C209.718 47.4372 209.389 46.7882 209.389 46.2572C209.389 45.7262 209.718 45.5492 210.157 45.7852C210.596 46.0802 210.925 46.6702 210.925 47.2012Z" fill="url(#paint32_linear_61_7173)"/>
<path d="M210.596 47.0236C210.596 47.3186 210.377 47.4366 210.158 47.3186C209.938 47.1416 209.719 46.7876 209.719 46.4926C209.719 46.1976 209.938 46.0796 210.158 46.1976C210.432 46.3746 210.596 46.7286 210.596 47.0236Z" fill="#96D99D"/>
<path d="M248.611 147.56C248.611 147.029 248.282 146.439 247.843 146.144C247.624 146.026 247.459 146.026 247.295 146.085L246.746 146.439C246.856 146.38 247.075 146.38 247.295 146.498C247.734 146.734 248.063 147.383 248.063 147.914C248.063 148.15 248.008 148.327 247.843 148.445L248.392 148.091C248.556 147.973 248.611 147.796 248.611 147.56Z" fill="url(#paint33_linear_61_7173)"/>
<path d="M247.899 147.973C247.844 147.914 247.789 147.914 247.734 147.855C247.679 147.973 247.515 148.032 247.35 147.914C247.131 147.737 246.911 147.383 246.911 147.088C246.911 146.852 247.021 146.734 247.131 146.734C247.131 146.675 247.131 146.616 247.131 146.557C247.131 146.498 247.131 146.439 247.131 146.38H246.801C246.692 146.439 246.582 146.616 246.582 146.911C246.582 147.442 246.911 148.032 247.35 148.327C247.569 148.445 247.734 148.445 247.899 148.386L248.063 148.091C248.008 148.032 247.953 148.032 247.899 147.973Z" fill="url(#paint34_linear_61_7173)"/>
<path d="M248.117 147.855C248.117 147.324 247.788 146.734 247.349 146.439C247.13 146.321 246.965 146.321 246.801 146.38H247.13C247.13 146.439 247.13 146.498 247.13 146.557C247.13 146.616 247.13 146.675 247.13 146.734C247.185 146.734 247.24 146.734 247.349 146.793C247.569 146.97 247.788 147.324 247.788 147.619C247.788 147.678 247.788 147.796 247.733 147.855C247.788 147.914 247.843 147.914 247.898 147.973C247.953 148.032 248.008 148.032 248.063 148.032L247.898 148.327C248.008 148.268 248.117 148.091 248.117 147.855Z" fill="url(#paint35_linear_61_7173)"/>
<path d="M248.117 147.855C248.117 147.324 247.788 146.734 247.349 146.439C247.13 146.321 246.965 146.321 246.801 146.38H247.13C247.13 146.439 247.13 146.498 247.13 146.557C247.13 146.616 247.13 146.675 247.13 146.734C247.185 146.734 247.24 146.734 247.349 146.793C247.569 146.97 247.788 147.324 247.788 147.619C247.788 147.678 247.788 147.796 247.733 147.855C247.788 147.914 247.843 147.914 247.898 147.973C247.953 148.032 248.008 148.032 248.063 148.032L247.898 148.327C248.008 148.268 248.117 148.091 248.117 147.855Z" fill="url(#paint36_linear_61_7173)"/>
<path d="M246.91 147.147C246.91 147.442 247.13 147.796 247.349 147.973C247.514 148.091 247.678 148.032 247.733 147.914C247.459 147.678 247.239 147.206 247.13 146.852C247.02 146.793 246.91 146.911 246.91 147.147Z" fill="#96D99D"/>
<path d="M247.734 147.854C247.789 147.795 247.789 147.736 247.789 147.618C247.789 147.323 247.57 146.969 247.35 146.792C247.295 146.733 247.186 146.733 247.131 146.733C247.186 147.205 247.46 147.618 247.734 147.854Z" fill="#96D99D"/>
<path d="M210.705 123.192C210.485 123.074 210.321 123.074 210.156 123.133L209.607 123.487C209.717 123.428 209.937 123.428 210.156 123.546C210.595 123.782 210.924 124.431 210.924 124.962C210.924 125.198 210.869 125.375 210.705 125.493L211.253 125.139C211.418 125.08 211.473 124.903 211.473 124.608C211.473 124.077 211.143 123.428 210.705 123.192Z" fill="url(#paint37_linear_61_7173)"/>
<path d="M210.705 125.022C210.65 124.963 210.596 124.963 210.541 124.904C210.486 125.022 210.321 125.081 210.157 124.963C209.937 124.786 209.718 124.432 209.718 124.137C209.718 123.901 209.828 123.783 209.937 123.783C209.937 123.724 209.937 123.665 209.937 123.606C209.937 123.547 209.937 123.488 209.937 123.429H209.608C209.498 123.488 209.389 123.665 209.389 123.96C209.389 124.491 209.718 125.081 210.157 125.376C210.376 125.494 210.541 125.494 210.705 125.435L210.87 125.14C210.815 125.081 210.76 125.081 210.705 125.022Z" fill="url(#paint38_linear_61_7173)"/>
<path d="M210.924 124.903C210.924 124.372 210.595 123.782 210.156 123.487C209.937 123.369 209.772 123.369 209.607 123.428H209.937C209.937 123.487 209.937 123.546 209.937 123.605C209.937 123.664 209.937 123.723 209.937 123.782C209.991 123.782 210.046 123.782 210.156 123.841C210.375 124.018 210.595 124.372 210.595 124.667C210.595 124.726 210.595 124.844 210.54 124.903C210.595 124.962 210.65 124.962 210.705 125.021C210.759 125.08 210.814 125.08 210.869 125.08L210.705 125.375C210.869 125.316 210.924 125.139 210.924 124.903Z" fill="url(#paint39_linear_61_7173)"/>
<path d="M210.924 124.903C210.924 124.372 210.595 123.782 210.156 123.487C209.937 123.369 209.772 123.369 209.607 123.428H209.937C209.937 123.487 209.937 123.546 209.937 123.605C209.937 123.664 209.937 123.723 209.937 123.782C209.991 123.782 210.046 123.782 210.156 123.841C210.375 124.018 210.595 124.372 210.595 124.667C210.595 124.726 210.595 124.844 210.54 124.903C210.595 124.962 210.65 124.962 210.705 125.021C210.759 125.08 210.814 125.08 210.869 125.08L210.705 125.375C210.869 125.316 210.924 125.139 210.924 124.903Z" fill="url(#paint40_linear_61_7173)"/>
<path d="M209.773 124.196C209.773 124.491 209.993 124.845 210.212 125.022C210.377 125.14 210.541 125.081 210.596 124.963C210.322 124.727 210.103 124.255 209.993 123.901C209.828 123.842 209.773 123.96 209.773 124.196Z" fill="#96D99D"/>
<path d="M210.541 124.963C210.596 124.904 210.596 124.845 210.596 124.727C210.596 124.432 210.376 124.078 210.157 123.901C210.102 123.842 209.992 123.842 209.938 123.842C210.047 124.255 210.267 124.668 210.541 124.963Z" fill="#96D99D"/>
<path opacity="0.5" d="M150.693 222.312L109.276 196.234C108.892 195.998 108.892 195.526 109.385 195.231L201.271 138.709C201.765 138.414 202.478 138.355 202.862 138.65L244.279 164.728C244.663 164.964 244.663 165.436 244.169 165.731L152.284 222.253C151.845 222.548 151.132 222.548 150.693 222.312Z" fill="#095729"/>
<path d="M218.716 93.043H223.379C222.666 91.391 222.282 90.329 222.282 90.329L176.037 70.918V153.99V154.049C176.037 154.226 176.147 154.344 176.311 154.462L218.497 180.658C218.551 180.717 218.661 180.717 218.771 180.776V93.043H218.716Z" fill="#095729"/>
<path d="M245.871 81.125L219.266 97.468V147.441V180.835C219.54 180.835 219.869 180.717 220.143 180.599L245.487 164.846C245.762 164.669 245.871 164.492 245.871 164.256V81.125Z" fill="url(#paint41_linear_61_7173)"/>
<path d="M217.344 72.4521V146.261V167.796V179.95L218.441 180.658C218.66 180.776 218.935 180.835 219.209 180.835C219.538 180.835 219.538 180.658 219.757 180.481L219.977 180.363L219.757 167.619V147.618L220.306 72.4521H217.344Z" fill="#095729"/>
<path d="M220.363 167.795V148.148V96.8184L219.266 97.4674V147.44V180.834C219.32 180.834 219.375 180.834 219.43 180.834C219.43 180.834 219.43 180.834 219.485 180.834C219.65 180.834 219.759 180.775 219.869 180.716C219.924 180.657 219.979 180.657 220.088 180.598L220.308 180.48V167.795H220.363Z" fill="#BEECD0"/>
<path opacity="0.51" d="M178.066 75.4609L215.26 98.5299V176.292L178.066 153.223V75.4609Z" fill="#76AD7E"/>
<path opacity="0.51" d="M175.982 142.013L217.345 112.218V96.878L175.982 70.918V142.013Z" fill="#76AD7E"/>
<path d="M218.442 97.5268L176.257 71.3898C175.818 71.1538 175.873 70.6818 176.366 70.3868L201.71 54.6338C202.204 54.3388 202.972 54.2798 203.356 54.5748L245.541 80.7708C245.98 81.0068 245.925 81.4788 245.431 81.7738L220.087 97.5268C219.649 97.7628 218.881 97.8218 218.442 97.5268Z" fill="#96D99D"/>
<path opacity="0.78" d="M202.972 55.6963H199.955L176.366 70.3283C175.873 70.6233 175.818 71.0953 176.257 71.3313L177.409 72.0393L214.053 94.8133L218.881 94.7543L202.972 55.6963Z" fill="url(#paint42_linear_61_7173)"/>
<path d="M202.973 57.2891L182.731 69.8561L180.756 69.5021V71.0951L218.882 94.7541L238.136 80.6531L202.973 57.2891Z" fill="url(#paint43_linear_61_7173)"/>
<path d="M241.098 79.3545V80.9475L218.881 94.7535V93.1605L241.098 79.3545Z" fill="url(#paint44_linear_61_7173)"/>
<path d="M218.882 93.1613L180.756 69.5023L202.973 55.6963L241.099 79.3553L218.882 93.1613Z" fill="url(#paint45_linear_61_7173)"/>
<path d="M195.018 67.791L194.359 67.378L194.414 67.083L200.065 63.543L200.833 63.956L200.723 64.192L195.018 67.791Z" fill="#96D99D"/>
<path d="M200.119 63.8382L200.722 64.1922L201.106 63.9562L200.119 63.3662L193.975 67.1422L194.359 67.3782L200.119 63.8382Z" fill="url(#paint46_linear_61_7173)"/>
<path d="M196.828 68.9126L196.225 68.5586L196.279 68.2046L201.93 64.7236L202.698 65.0776L202.533 65.3726L196.828 68.9126Z" fill="#96D99D"/>
<path d="M201.929 64.9593L202.532 65.3723L202.916 65.1363L201.929 64.4873L195.84 68.2633L196.224 68.5583L201.929 64.9593Z" fill="url(#paint47_linear_61_7173)"/>
<path d="M198.693 70.0327L198.09 69.6788L198.145 69.3838L203.74 65.8438L204.508 66.2568L204.398 66.4927L198.693 70.0327Z" fill="#96D99D"/>
<path d="M203.794 66.139L204.398 66.493L204.782 66.257L203.794 65.667L197.705 69.443L198.089 69.679L203.794 66.139Z" fill="url(#paint48_linear_61_7173)"/>
<path d="M200.504 71.2128L199.9 70.7998L199.955 70.5048L205.606 66.9648L206.374 67.3778L206.209 67.6138L200.504 71.2128Z" fill="#96D99D"/>
<path d="M205.605 67.2601L206.208 67.6141L206.592 67.3781L205.605 66.7881L199.516 70.5641L199.9 70.8001L205.605 67.2601Z" fill="url(#paint49_linear_61_7173)"/>
<path d="M205.879 74.5761L205.275 74.1631L205.33 73.8681L210.981 70.3281L211.749 70.7411L211.639 71.0361L205.879 74.5761Z" fill="#96D99D"/>
<path d="M211.035 70.6234L211.638 71.0364L212.022 70.7414L211.035 70.1514L204.891 73.9274L205.275 74.1634L211.035 70.6234Z" fill="url(#paint50_linear_61_7173)"/>
<path d="M207.744 75.6978L207.141 75.3438L207.195 74.9898L212.846 71.5088L213.614 71.8628L213.449 72.1578L207.744 75.6978Z" fill="#96D99D"/>
<path d="M212.845 71.7445L213.448 72.1575L213.832 71.9215L212.845 71.2725L206.756 75.0485L207.14 75.3435L212.845 71.7445Z" fill="url(#paint51_linear_61_7173)"/>
<path d="M209.609 76.8179L209.006 76.4639L209.061 76.1689L214.656 72.6289L215.424 73.0419L215.314 73.2779L209.609 76.8179Z" fill="#96D99D"/>
<path d="M214.71 72.9241L215.314 73.2781L215.698 73.0421L214.71 72.4521L208.566 76.2281L209.005 76.4642L214.71 72.9241Z" fill="url(#paint52_linear_61_7173)"/>
<path d="M211.42 77.998L210.816 77.585L210.871 77.29L216.522 73.75L217.29 74.163L217.125 74.458L211.42 77.998Z" fill="#96D99D"/>
<path d="M216.521 74.0452L217.124 74.4582L217.508 74.1632L216.521 73.5732L210.432 77.3492L210.816 77.5852L216.521 74.0452Z" fill="url(#paint53_linear_61_7173)"/>
<path d="M216.797 81.3613L216.193 80.9483L216.248 80.6533L221.898 77.1133L222.666 77.5263L222.557 77.8213L216.797 81.3613Z" fill="#96D99D"/>
<path d="M221.953 77.4085L222.556 77.8215L222.94 77.5265L221.953 76.9365L215.809 80.7125L216.193 80.9485L221.953 77.4085Z" fill="url(#paint54_linear_61_7173)"/>
<path d="M218.662 82.4829L218.059 82.1289L218.113 81.775L223.764 78.2939L224.532 78.7069L224.367 78.9429L218.662 82.4829Z" fill="#96D99D"/>
<path d="M223.763 78.5886L224.366 78.9426L224.75 78.7066L223.763 78.0576L217.674 81.8926L218.058 82.1286L223.763 78.5886Z" fill="url(#paint55_linear_61_7173)"/>
<path d="M220.527 83.6031L219.924 83.2491L219.979 82.9541L225.574 79.4141L226.342 79.8271L226.232 80.0631L220.527 83.6031Z" fill="#96D99D"/>
<path d="M225.628 79.7093L226.232 80.0633L226.616 79.8273L225.628 79.2373L219.484 83.0133L219.923 83.2493L225.628 79.7093Z" fill="url(#paint56_linear_61_7173)"/>
<path d="M222.338 84.7832L221.734 84.3702L221.789 84.0752L227.44 80.5352L228.208 80.9482L228.043 81.2432L222.338 84.7832Z" fill="#96D99D"/>
<path d="M227.439 80.8304L228.042 81.2434L228.426 80.9484L227.439 80.3584L221.35 84.1344L221.734 84.3704L227.439 80.8304Z" fill="url(#paint57_linear_61_7173)"/>
<path opacity="0.51" d="M224.311 148.267C224.201 148.267 224.091 148.208 223.981 148.149C223.762 148.031 223.652 147.736 223.652 147.5V121.717C223.652 121.127 223.927 120.596 224.42 120.301L241.7 109.563C241.92 109.445 242.194 109.445 242.413 109.563C242.633 109.681 242.743 109.976 242.743 110.212V135.995C242.743 136.585 242.468 137.116 241.975 137.411L224.695 148.149C224.585 148.208 224.42 148.267 224.311 148.267ZM242.029 109.917C241.975 109.917 241.92 109.917 241.865 109.976L224.585 120.714C224.256 120.95 224.036 121.304 224.036 121.776V147.5C224.036 147.618 224.091 147.736 224.201 147.795C224.311 147.854 224.42 147.854 224.53 147.795L241.81 137.057C242.139 136.821 242.359 136.467 242.359 135.995V110.212C242.359 110.094 242.304 109.976 242.194 109.917C242.139 109.917 242.084 109.917 242.029 109.917Z" fill="#76AD7E"/>
<path d="M216.246 98.8243C216.246 98.2933 215.917 97.7033 215.478 97.4083C215.259 97.2903 215.094 97.2903 214.929 97.3493L214.381 97.7033H214.71C214.71 97.7623 214.71 97.8213 214.71 97.8803C214.71 98.4113 215.039 99.0013 215.478 99.2963C215.533 99.3553 215.588 99.3553 215.643 99.3553L215.478 99.6503L215.972 99.2963C216.191 99.2963 216.246 99.0603 216.246 98.8243Z" fill="url(#paint58_linear_61_7173)"/>
<path d="M215.753 99.1787C215.753 99.7097 215.424 99.8867 214.985 99.6507C214.546 99.4147 214.217 98.7657 214.217 98.2347C214.217 97.7037 214.546 97.5267 214.985 97.7627C215.369 97.9987 215.753 98.6477 215.753 99.1787Z" fill="url(#paint59_linear_61_7173)"/>
<path d="M215.425 98.9425C215.425 99.2375 215.205 99.3555 214.986 99.2375C214.766 99.0605 214.547 98.7065 214.547 98.4115C214.547 98.1165 214.766 97.9985 214.986 98.1165C215.205 98.2345 215.425 98.6475 215.425 98.9425Z" fill="#96D99D"/>
<path d="M179.107 75.8741C179.107 75.3431 178.778 74.7531 178.339 74.4581C178.12 74.3401 177.955 74.3401 177.791 74.3991L177.242 74.7531H177.571C177.571 74.8121 177.571 74.8711 177.571 74.9301C177.571 75.4611 177.9 76.0511 178.339 76.3461C178.394 76.4051 178.449 76.4051 178.504 76.4051L178.339 76.7001L178.833 76.3461C178.998 76.3461 179.107 76.1691 179.107 75.8741Z" fill="url(#paint60_linear_61_7173)"/>
<path d="M178.559 76.2285C178.559 76.7595 178.23 76.9365 177.791 76.7005C177.353 76.4645 177.023 75.8155 177.023 75.2845C177.023 74.7535 177.353 74.5765 177.791 74.8125C178.23 75.0485 178.559 75.6975 178.559 76.2285Z" fill="url(#paint61_linear_61_7173)"/>
<path d="M178.231 75.9923C178.231 76.2873 178.012 76.4053 177.792 76.2873C177.573 76.1693 177.354 75.7563 177.354 75.4613C177.354 75.1663 177.573 75.0483 177.792 75.1663C178.067 75.3433 178.231 75.6973 178.231 75.9923Z" fill="#96D99D"/>
<path d="M216.246 176.527C216.246 175.996 215.917 175.406 215.478 175.111C215.259 174.993 215.094 174.993 214.929 175.052L214.381 175.406C214.491 175.347 214.71 175.347 214.929 175.465C215.368 175.701 215.697 176.35 215.697 176.881C215.697 177.117 215.643 177.294 215.478 177.412L215.972 177.058C216.191 176.999 216.246 176.822 216.246 176.527Z" fill="url(#paint62_linear_61_7173)"/>
<path d="M215.533 177C215.479 176.941 215.424 176.941 215.369 176.882C215.314 177 215.149 177.059 214.985 176.941C214.765 176.764 214.546 176.41 214.546 176.115C214.546 175.879 214.656 175.761 214.765 175.761C214.765 175.702 214.765 175.643 214.765 175.584C214.765 175.525 214.765 175.466 214.765 175.407H214.436C214.327 175.466 214.217 175.643 214.217 175.938C214.217 176.469 214.546 177.059 214.985 177.354C215.204 177.472 215.369 177.472 215.533 177.413L215.698 177.118C215.643 177.059 215.588 177.059 215.533 177Z" fill="url(#paint63_linear_61_7173)"/>
<path d="M215.752 176.882C215.752 176.351 215.423 175.761 214.984 175.466C214.765 175.348 214.6 175.348 214.436 175.407H214.765C214.765 175.466 214.765 175.525 214.765 175.584C214.765 175.643 214.765 175.702 214.765 175.761C214.82 175.761 214.874 175.761 214.984 175.82C215.204 175.997 215.423 176.351 215.423 176.646C215.423 176.705 215.423 176.823 215.368 176.882C215.423 176.941 215.478 176.941 215.533 177C215.588 177.059 215.642 177.059 215.697 177.059L215.533 177.354C215.642 177.295 215.752 177.118 215.752 176.882Z" fill="url(#paint64_linear_61_7173)"/>
<path d="M215.752 176.882C215.752 176.351 215.423 175.761 214.984 175.466C214.765 175.348 214.6 175.348 214.436 175.407H214.765C214.765 175.466 214.765 175.525 214.765 175.584C214.765 175.643 214.765 175.702 214.765 175.761C214.82 175.761 214.874 175.761 214.984 175.82C215.204 175.997 215.423 176.351 215.423 176.646C215.423 176.705 215.423 176.823 215.368 176.882C215.423 176.941 215.478 176.941 215.533 177C215.588 177.059 215.642 177.059 215.697 177.059L215.533 177.354C215.642 177.295 215.752 177.118 215.752 176.882Z" fill="url(#paint65_linear_61_7173)"/>
<path d="M214.545 176.174C214.545 176.469 214.764 176.823 214.984 177C215.148 177.118 215.313 177.059 215.368 176.941C215.093 176.705 214.874 176.233 214.764 175.879C214.655 175.82 214.545 175.938 214.545 176.174Z" fill="#96D99D"/>
<path d="M215.369 176.882C215.424 176.823 215.424 176.764 215.424 176.646C215.424 176.351 215.204 175.997 214.985 175.82C214.93 175.761 214.82 175.761 214.766 175.761C214.82 176.233 215.095 176.646 215.369 176.882Z" fill="#96D99D"/>
<path d="M178.339 152.22C178.12 152.102 177.955 152.102 177.791 152.161L177.242 152.515C177.352 152.456 177.571 152.456 177.791 152.574C178.23 152.81 178.559 153.459 178.559 153.99C178.559 154.226 178.504 154.403 178.339 154.521L178.833 154.167C178.998 154.108 179.052 153.931 179.052 153.636C179.107 153.105 178.778 152.456 178.339 152.22Z" fill="url(#paint66_linear_61_7173)"/>
<path d="M178.34 154.049C178.285 153.99 178.23 153.99 178.175 153.931C178.121 154.049 177.956 154.108 177.791 153.99C177.572 153.813 177.353 153.459 177.353 153.164C177.353 152.928 177.462 152.81 177.572 152.81C177.572 152.751 177.572 152.692 177.572 152.633C177.572 152.574 177.572 152.515 177.572 152.456H177.243C177.133 152.515 177.023 152.692 177.023 152.987C177.023 153.518 177.353 154.108 177.791 154.403C178.011 154.521 178.175 154.521 178.34 154.462L178.505 154.167C178.45 154.108 178.395 154.108 178.34 154.049Z" fill="url(#paint67_linear_61_7173)"/>
<path d="M178.559 153.931C178.559 153.4 178.23 152.81 177.791 152.515C177.571 152.397 177.407 152.397 177.242 152.456H177.571C177.571 152.515 177.571 152.574 177.571 152.633C177.571 152.692 177.571 152.751 177.571 152.81C177.626 152.81 177.681 152.81 177.791 152.869C178.01 153.046 178.23 153.4 178.23 153.695C178.23 153.754 178.23 153.872 178.175 153.931C178.23 153.99 178.284 153.99 178.339 154.049C178.394 154.108 178.449 154.108 178.504 154.108L178.339 154.403C178.504 154.344 178.559 154.167 178.559 153.931Z" fill="url(#paint68_linear_61_7173)"/>
<path d="M178.559 153.931C178.559 153.4 178.23 152.81 177.791 152.515C177.571 152.397 177.407 152.397 177.242 152.456H177.571C177.571 152.515 177.571 152.574 177.571 152.633C177.571 152.692 177.571 152.751 177.571 152.81C177.626 152.81 177.681 152.81 177.791 152.869C178.01 153.046 178.23 153.4 178.23 153.695C178.23 153.754 178.23 153.872 178.175 153.931C178.23 153.99 178.284 153.99 178.339 154.049C178.394 154.108 178.449 154.108 178.504 154.108L178.339 154.403C178.504 154.344 178.559 154.167 178.559 153.931Z" fill="url(#paint69_linear_61_7173)"/>
<path d="M177.354 153.223C177.354 153.518 177.573 153.872 177.792 154.049C177.957 154.167 178.122 154.108 178.176 153.99C177.902 153.754 177.683 153.282 177.573 152.928C177.463 152.869 177.354 152.987 177.354 153.223Z" fill="#96D99D"/>
<path d="M178.176 153.931C178.231 153.872 178.231 153.813 178.231 153.695C178.231 153.4 178.011 153.046 177.792 152.869C177.737 152.81 177.627 152.81 177.572 152.81C177.682 153.282 177.901 153.695 178.176 153.931Z" fill="#96D99D"/>
<path d="M192.494 108.973L187.338 105.787V104.548L192.494 107.793V108.973Z" fill="#96D99D"/>
<path d="M195.127 110.625L193.316 109.445V108.265L195.127 109.386V110.625Z" fill="#96D99D"/>
<path d="M197.213 111.864L195.951 111.097V109.917L197.213 110.684V111.864Z" fill="#96D99D"/>
<path d="M190.19 110.33L187.338 108.56V107.321L190.19 109.091V110.33Z" fill="#96D99D"/>
<path d="M194.415 112.925L190.959 110.802V109.562L194.415 111.687V112.925Z" fill="#96D99D"/>
<path d="M196.443 114.224L195.182 113.398V112.218L196.443 112.985V114.224Z" fill="#96D99D"/>
<path d="M198.363 115.403L197.102 114.636V113.397L198.363 114.164V115.403Z" fill="#96D99D"/>
<path d="M189.368 112.631L187.338 111.333V110.153L189.368 111.392V112.631Z" fill="#96D99D"/>
<path d="M190.85 113.516L190.191 113.103V111.864L190.85 112.277V113.516Z" fill="#96D99D"/>
<path d="M192.934 114.814L191.672 113.988V112.808L192.934 113.575V114.814Z" fill="#96D99D"/>
<path d="M194.853 118.767L187.338 114.106V112.926L194.853 117.528V118.767Z" fill="#96D99D"/>
<path d="M197.486 120.419L195.621 119.239V118.059L197.486 119.18V120.419Z" fill="#96D99D"/>
<path d="M189.368 118.177L187.338 116.879V115.699L189.368 116.938V118.177Z" fill="#96D99D"/>
<path d="M194.141 121.127L190.191 118.649V117.41L194.141 119.888V121.127Z" fill="#96D99D"/>
<path d="M196.225 122.365L194.963 121.598V120.359L196.225 121.185V122.365Z" fill="#96D99D"/>
<path d="M191.507 122.248L187.338 119.652V118.472L191.507 121.009V122.248Z" fill="#96D99D"/>
<path d="M195.293 124.608L192.275 122.72V121.54L195.293 123.369V124.608Z" fill="#96D99D"/>
<path d="M198.145 126.377L196.115 125.079V123.899L198.145 125.138V126.377Z" fill="#96D99D"/>
<path d="M188.764 123.31L187.338 122.425V121.245L188.764 122.13V123.31Z" fill="#96D99D"/>
<path d="M191.396 124.962L189.531 123.782V122.602L191.396 123.723V124.962Z" fill="#96D99D"/>
<path d="M195.183 127.322L192.166 125.434V124.254L195.183 126.083V127.322Z" fill="#96D99D"/>
<path d="M191.672 127.912L187.338 125.257V124.018L191.672 126.673V127.912Z" fill="#96D99D"/>
<path d="M196.444 130.862L192.439 128.384V127.145L196.444 129.682V130.862Z" fill="#96D99D"/>
<path d="M198.529 132.16L197.268 131.393V130.154L198.529 130.921V132.16Z" fill="#96D99D"/>
<path d="M200.504 133.399L199.242 132.573V131.393L200.504 132.16V133.399Z" fill="#96D99D"/>
<path d="M189.916 129.623L187.338 128.03V126.791L189.916 128.384V129.623Z" fill="#96D99D"/>
<path d="M200.723 114.047L204.288 116.289V115.05L200.723 112.867V114.047Z" fill="#96D99D"/>
<path d="M201.49 117.292L204.288 119.062V117.823L201.49 116.112V117.292Z" fill="#96D99D"/>
<path d="M202.26 120.595L204.289 121.834V120.595L202.26 119.356V120.595Z" fill="#96D99D"/>
<path d="M201.326 122.779L204.288 124.608V123.428L201.326 121.54V122.779Z" fill="#96D99D"/>
<path d="M202.26 126.142L204.289 127.381V126.201L202.26 124.903V126.142Z" fill="#96D99D"/>
<path d="M201.711 128.561L204.289 130.154V128.974L201.711 127.381V128.561Z" fill="#96D99D"/>
<path d="M202.863 132.101L204.29 132.927V131.747L202.863 130.862V132.101Z" fill="#96D99D"/>
<path d="M201.545 134.048L204.288 135.7V134.52L201.545 132.809V134.048Z" fill="#96D99D"/>
<path d="M201.711 136.88L204.289 138.532V137.293L201.711 135.7V136.88Z" fill="#96D99D"/>
<path d="M191.835 130.743L190.738 130.094V128.855L191.835 129.563V130.743Z" fill="#96D99D"/>
<path d="M195.072 132.809L192.604 131.275V130.036L195.072 131.57V132.809Z" fill="#96D99D"/>
<path d="M197.103 142.13L192.934 139.534V138.354L197.103 140.891V142.13Z" fill="#96D99D"/>
<path d="M199.956 143.901L198.311 142.898V141.659L199.956 142.662V143.901Z" fill="#96D99D"/>
<defs>
<linearGradient id="paint0_linear_61_7173" x1="366.554" y1="10.7641" x2="325.9" y2="41.0746" gradientUnits="userSpaceOnUse">
<stop stop-color="#BCD5FF"/>
<stop offset="0.151" stop-color="#A3BEFF"/>
<stop offset="0.3866" stop-color="#82A0FF"/>
<stop offset="0.6124" stop-color="#6A8AFF"/>
<stop offset="0.8221" stop-color="#5C7DFF"/>
<stop offset="1" stop-color="#5778FF"/>
</linearGradient>
<linearGradient id="paint1_linear_61_7173" x1="373.829" y1="20.8926" x2="319.628" y2="5.15261" gradientUnits="userSpaceOnUse">
<stop stop-color="#C0D6FF"/>
<stop offset="0.2978" stop-color="#C5DBFF"/>
<stop offset="0.6488" stop-color="#D3E9FF"/>
<stop offset="1" stop-color="#E9FFFF"/>
</linearGradient>
<linearGradient id="paint2_linear_61_7173" x1="104.392" y1="154.578" x2="63.7388" y2="184.888" gradientUnits="userSpaceOnUse">
<stop stop-color="#BCD5FF"/>
<stop offset="0.151" stop-color="#A3BEFF"/>
<stop offset="0.3866" stop-color="#82A0FF"/>
<stop offset="0.6124" stop-color="#6A8AFF"/>
<stop offset="0.8221" stop-color="#5C7DFF"/>
<stop offset="1" stop-color="#5778FF"/>
</linearGradient>
<linearGradient id="paint3_linear_61_7173" x1="111.668" y1="164.706" x2="57.4665" y2="148.966" gradientUnits="userSpaceOnUse">
<stop stop-color="#C0D6FF"/>
<stop offset="0.2978" stop-color="#C5DBFF"/>
<stop offset="0.6488" stop-color="#D3E9FF"/>
<stop offset="1" stop-color="#E9FFFF"/>
</linearGradient>
<linearGradient id="paint4_linear_61_7173" x1="372.114" y1="98.5299" x2="331.46" y2="128.84" gradientUnits="userSpaceOnUse">
<stop stop-color="#BCD5FF"/>
<stop offset="0.151" stop-color="#A3BEFF"/>
<stop offset="0.3866" stop-color="#82A0FF"/>
<stop offset="0.6124" stop-color="#6A8AFF"/>
<stop offset="0.8221" stop-color="#5C7DFF"/>
<stop offset="1" stop-color="#5778FF"/>
</linearGradient>
<linearGradient id="paint5_linear_61_7173" x1="379.39" y1="108.658" x2="325.188" y2="92.9184" gradientUnits="userSpaceOnUse">
<stop stop-color="#C0D6FF"/>
<stop offset="0.2978" stop-color="#C5DBFF"/>
<stop offset="0.6488" stop-color="#D3E9FF"/>
<stop offset="1" stop-color="#E9FFFF"/>
</linearGradient>
<linearGradient id="paint6_linear_61_7173" x1="264.923" y1="151.823" x2="264.923" y2="52.1212" gradientUnits="userSpaceOnUse">
<stop stop-color="#C0D6FF"/>
<stop offset="0.2978" stop-color="#C5DBFF"/>
<stop offset="0.6488" stop-color="#D3E9FF"/>
<stop offset="1" stop-color="#E9FFFF"/>
</linearGradient>
<linearGradient id="paint7_linear_61_7173" x1="215.029" y1="46.238" x2="257.905" y2="46.238" gradientUnits="userSpaceOnUse">
<stop stop-color="#E9FFFF"/>
<stop offset="0.0373936" stop-color="#D3EBFF"/>
<stop offset="0.1056" stop-color="#B2CCFF"/>
<stop offset="0.1817" stop-color="#96B2FF"/>
<stop offset="0.2663" stop-color="#7F9DFF"/>
<stop offset="0.3632" stop-color="#6D8CFF"/>
<stop offset="0.4798" stop-color="#6081FF"/>
<stop offset="0.6363" stop-color="#597AFF"/>
<stop offset="1" stop-color="#5778FF"/>
</linearGradient>
<linearGradient id="paint8_linear_61_7173" x1="213.136" y1="47.0155" x2="270.53" y2="47.0155" gradientUnits="userSpaceOnUse">
<stop stop-color="#5778FF"/>
<stop offset="0.1779" stop-color="#5C7DFF"/>
<stop offset="0.3876" stop-color="#6A8AFF"/>
<stop offset="0.6134" stop-color="#82A0FF"/>
<stop offset="0.849" stop-color="#A3BEFF"/>
<stop offset="1" stop-color="#BCD5FF"/>
</linearGradient>
<linearGradient id="paint9_linear_61_7173" x1="251.24" y1="58.038" x2="273.465" y2="58.038" gradientUnits="userSpaceOnUse">
<stop stop-color="#C0D6FF"/>
<stop offset="0.2978" stop-color="#C5DBFF"/>
<stop offset="0.6488" stop-color="#D3E9FF"/>
<stop offset="1" stop-color="#E9FFFF"/>
</linearGradient>
<linearGradient id="paint10_linear_61_7173" x1="213.136" y1="45.4025" x2="273.464" y2="45.4025" gradientUnits="userSpaceOnUse">
<stop stop-color="#C0D6FF"/>
<stop offset="0.2978" stop-color="#C5DBFF"/>
<stop offset="0.6488" stop-color="#D3E9FF"/>
<stop offset="1" stop-color="#E9FFFF"/>
</linearGradient>
<linearGradient id="paint11_linear_61_7173" x1="226.361" y1="36.3563" x2="233.46" y2="36.3563" gradientUnits="userSpaceOnUse">
<stop stop-color="#5778FF"/>
<stop offset="0.1779" stop-color="#5C7DFF"/>
<stop offset="0.3876" stop-color="#6A8AFF"/>
<stop offset="0.6134" stop-color="#82A0FF"/>
<stop offset="0.849" stop-color="#A3BEFF"/>
<stop offset="1" stop-color="#BCD5FF"/>
</linearGradient>
<linearGradient id="paint12_linear_61_7173" x1="228.204" y1="37.4969" x2="235.302" y2="37.4969" gradientUnits="userSpaceOnUse">
<stop stop-color="#5778FF"/>
<stop offset="0.1779" stop-color="#5C7DFF"/>
<stop offset="0.3876" stop-color="#6A8AFF"/>
<stop offset="0.6134" stop-color="#82A0FF"/>
<stop offset="0.849" stop-color="#A3BEFF"/>
<stop offset="1" stop-color="#BCD5FF"/>
</linearGradient>
<linearGradient id="paint13_linear_61_7173" x1="230.047" y1="38.6371" x2="237.145" y2="38.6371" gradientUnits="userSpaceOnUse">
<stop stop-color="#5778FF"/>
<stop offset="0.1779" stop-color="#5C7DFF"/>
<stop offset="0.3876" stop-color="#6A8AFF"/>
<stop offset="0.6134" stop-color="#82A0FF"/>
<stop offset="0.849" stop-color="#A3BEFF"/>
<stop offset="1" stop-color="#BCD5FF"/>
</linearGradient>
<linearGradient id="paint14_linear_61_7173" x1="231.889" y1="39.7778" x2="238.988" y2="39.7778" gradientUnits="userSpaceOnUse">
<stop stop-color="#5778FF"/>
<stop offset="0.1779" stop-color="#5C7DFF"/>
<stop offset="0.3876" stop-color="#6A8AFF"/>
<stop offset="0.6134" stop-color="#82A0FF"/>
<stop offset="0.849" stop-color="#A3BEFF"/>
<stop offset="1" stop-color="#BCD5FF"/>
</linearGradient>
<linearGradient id="paint15_linear_61_7173" x1="237.277" y1="43.1451" x2="244.375" y2="43.1451" gradientUnits="userSpaceOnUse">
<stop stop-color="#5778FF"/>
<stop offset="0.1779" stop-color="#5C7DFF"/>
<stop offset="0.3876" stop-color="#6A8AFF"/>
<stop offset="0.6134" stop-color="#82A0FF"/>
<stop offset="0.849" stop-color="#A3BEFF"/>
<stop offset="1" stop-color="#BCD5FF"/>
</linearGradient>
<linearGradient id="paint16_linear_61_7173" x1="239.119" y1="44.2857" x2="246.217" y2="44.2857" gradientUnits="userSpaceOnUse">
<stop stop-color="#5778FF"/>
<stop offset="0.1779" stop-color="#5C7DFF"/>
<stop offset="0.3876" stop-color="#6A8AFF"/>
<stop offset="0.6134" stop-color="#82A0FF"/>
<stop offset="0.849" stop-color="#A3BEFF"/>
<stop offset="1" stop-color="#BCD5FF"/>
</linearGradient>
<linearGradient id="paint17_linear_61_7173" x1="240.962" y1="45.426" x2="248.06" y2="45.426" gradientUnits="userSpaceOnUse">
<stop stop-color="#5778FF"/>
<stop offset="0.1779" stop-color="#5C7DFF"/>
<stop offset="0.3876" stop-color="#6A8AFF"/>
<stop offset="0.6134" stop-color="#82A0FF"/>
<stop offset="0.849" stop-color="#A3BEFF"/>
<stop offset="1" stop-color="#BCD5FF"/>
</linearGradient>
<linearGradient id="paint18_linear_61_7173" x1="242.805" y1="46.5666" x2="249.903" y2="46.5666" gradientUnits="userSpaceOnUse">
<stop stop-color="#5778FF"/>
<stop offset="0.1779" stop-color="#5C7DFF"/>
<stop offset="0.3876" stop-color="#6A8AFF"/>
<stop offset="0.6134" stop-color="#82A0FF"/>
<stop offset="0.849" stop-color="#A3BEFF"/>
<stop offset="1" stop-color="#BCD5FF"/>
</linearGradient>
<linearGradient id="paint19_linear_61_7173" x1="248.194" y1="49.9339" x2="255.292" y2="49.9339" gradientUnits="userSpaceOnUse">
<stop stop-color="#5778FF"/>
<stop offset="0.1779" stop-color="#5C7DFF"/>
<stop offset="0.3876" stop-color="#6A8AFF"/>
<stop offset="0.6134" stop-color="#82A0FF"/>
<stop offset="0.849" stop-color="#A3BEFF"/>
<stop offset="1" stop-color="#BCD5FF"/>
</linearGradient>
<linearGradient id="paint20_linear_61_7173" x1="250.036" y1="51.0745" x2="257.135" y2="51.0745" gradientUnits="userSpaceOnUse">
<stop stop-color="#5778FF"/>
<stop offset="0.1779" stop-color="#5C7DFF"/>
<stop offset="0.3876" stop-color="#6A8AFF"/>
<stop offset="0.6134" stop-color="#82A0FF"/>
<stop offset="0.849" stop-color="#A3BEFF"/>
<stop offset="1" stop-color="#BCD5FF"/>
</linearGradient>
<linearGradient id="paint21_linear_61_7173" x1="251.879" y1="52.2147" x2="258.977" y2="52.2147" gradientUnits="userSpaceOnUse">
<stop stop-color="#5778FF"/>
<stop offset="0.1779" stop-color="#5C7DFF"/>
<stop offset="0.3876" stop-color="#6A8AFF"/>
<stop offset="0.6134" stop-color="#82A0FF"/>
<stop offset="0.849" stop-color="#A3BEFF"/>
<stop offset="1" stop-color="#BCD5FF"/>
</linearGradient>
<linearGradient id="paint22_linear_61_7173" x1="253.722" y1="53.3554" x2="260.82" y2="53.3554" gradientUnits="userSpaceOnUse">
<stop stop-color="#5778FF"/>
<stop offset="0.1779" stop-color="#5C7DFF"/>
<stop offset="0.3876" stop-color="#6A8AFF"/>
<stop offset="0.6134" stop-color="#82A0FF"/>
<stop offset="0.849" stop-color="#A3BEFF"/>
<stop offset="1" stop-color="#BCD5FF"/>
</linearGradient>
<linearGradient id="paint23_linear_61_7173" x1="273.959" y1="107.497" x2="258.167" y2="96.5903" gradientUnits="userSpaceOnUse">
<stop stop-color="#5778FF"/>
<stop offset="0.1779" stop-color="#5C7DFF"/>
<stop offset="0.3876" stop-color="#6A8AFF"/>
<stop offset="0.6134" stop-color="#82A0FF"/>
<stop offset="0.849" stop-color="#A3BEFF"/>
<stop offset="1" stop-color="#BCD5FF"/>
</linearGradient>
<linearGradient id="paint24_linear_61_7173" x1="255.568" y1="118.667" x2="285.567" y2="118.667" gradientUnits="userSpaceOnUse">
<stop stop-color="#5778FF"/>
<stop offset="0.1779" stop-color="#5C7DFF"/>
<stop offset="0.3876" stop-color="#6A8AFF"/>
<stop offset="0.6134" stop-color="#82A0FF"/>
<stop offset="0.849" stop-color="#A3BEFF"/>
<stop offset="1" stop-color="#BCD5FF"/>
</linearGradient>
<linearGradient id="paint25_linear_61_7173" x1="265.648" y1="117.591" x2="295.662" y2="117.591" gradientUnits="userSpaceOnUse">
<stop stop-color="#C0D6FF"/>
<stop offset="0.2978" stop-color="#C5DBFF"/>
<stop offset="0.6488" stop-color="#D3E9FF"/>
<stop offset="1" stop-color="#E9FFFF"/>
</linearGradient>
<linearGradient id="paint26_linear_61_7173" x1="270.731" y1="119.424" x2="278.414" y2="119.424" gradientUnits="userSpaceOnUse">
<stop stop-color="#C0D6FF"/>
<stop offset="0.2978" stop-color="#C5DBFF"/>
<stop offset="0.6488" stop-color="#D3E9FF"/>
<stop offset="1" stop-color="#E9FFFF"/>
</linearGradient>
<linearGradient id="paint27_linear_61_7173" x1="254.301" y1="110.414" x2="284.173" y2="110.414" gradientUnits="userSpaceOnUse">
<stop stop-color="#C0D6FF"/>
<stop offset="0.2978" stop-color="#C5DBFF"/>
<stop offset="0.6488" stop-color="#D3E9FF"/>
<stop offset="1" stop-color="#E9FFFF"/>
</linearGradient>
<linearGradient id="paint28_linear_61_7173" x1="252.335" y1="108.055" x2="259.982" y2="108.055" gradientUnits="userSpaceOnUse">
<stop stop-color="#C0D6FF"/>
<stop offset="0.2978" stop-color="#C5DBFF"/>
<stop offset="0.6488" stop-color="#D3E9FF"/>
<stop offset="1" stop-color="#E9FFFF"/>
</linearGradient>
<linearGradient id="paint29_linear_61_7173" x1="246.816" y1="69.4842" x2="248.634" y2="69.4842" gradientUnits="userSpaceOnUse">
<stop stop-color="#C0D6FF"/>
<stop offset="0.2978" stop-color="#C5DBFF"/>
<stop offset="0.6488" stop-color="#D3E9FF"/>
<stop offset="1" stop-color="#E9FFFF"/>
</linearGradient>
<linearGradient id="paint30_linear_61_7173" x1="246.595" y1="69.6838" x2="248.098" y2="69.6838" gradientUnits="userSpaceOnUse">
<stop stop-color="#5778FF"/>
<stop offset="0.1779" stop-color="#5C7DFF"/>
<stop offset="0.3876" stop-color="#6A8AFF"/>
<stop offset="0.6134" stop-color="#82A0FF"/>
<stop offset="0.849" stop-color="#A3BEFF"/>
<stop offset="1" stop-color="#BCD5FF"/>
</linearGradient>
<linearGradient id="paint31_linear_61_7173" x1="209.648" y1="46.5358" x2="211.466" y2="46.5358" gradientUnits="userSpaceOnUse">
<stop stop-color="#C0D6FF"/>
<stop offset="0.2978" stop-color="#C5DBFF"/>
<stop offset="0.6488" stop-color="#D3E9FF"/>
<stop offset="1" stop-color="#E9FFFF"/>
</linearGradient>
<linearGradient id="paint32_linear_61_7173" x1="209.428" y1="46.7353" x2="210.931" y2="46.7353" gradientUnits="userSpaceOnUse">
<stop stop-color="#5778FF"/>
<stop offset="0.1779" stop-color="#5C7DFF"/>
<stop offset="0.3876" stop-color="#6A8AFF"/>
<stop offset="0.6134" stop-color="#82A0FF"/>
<stop offset="0.849" stop-color="#A3BEFF"/>
<stop offset="1" stop-color="#BCD5FF"/>
</linearGradient>
<linearGradient id="paint33_linear_61_7173" x1="246.816" y1="147.202" x2="248.634" y2="147.202" gradientUnits="userSpaceOnUse">
<stop stop-color="#C0D6FF"/>
<stop offset="0.2978" stop-color="#C5DBFF"/>
<stop offset="0.6488" stop-color="#D3E9FF"/>
<stop offset="1" stop-color="#E9FFFF"/>
</linearGradient>
<linearGradient id="paint34_linear_61_7173" x1="246.595" y1="147.428" x2="248.098" y2="147.428" gradientUnits="userSpaceOnUse">
<stop stop-color="#5778FF"/>
<stop offset="0.1779" stop-color="#5C7DFF"/>
<stop offset="0.3876" stop-color="#6A8AFF"/>
<stop offset="0.6134" stop-color="#82A0FF"/>
<stop offset="0.849" stop-color="#A3BEFF"/>
<stop offset="1" stop-color="#BCD5FF"/>
</linearGradient>
<linearGradient id="paint35_linear_61_7173" x1="246.816" y1="147.368" x2="248.634" y2="147.368" gradientUnits="userSpaceOnUse">
<stop stop-color="#C0D6FF"/>
<stop offset="0.2978" stop-color="#C5DBFF"/>
<stop offset="0.6488" stop-color="#D3E9FF"/>
<stop offset="1" stop-color="#E9FFFF"/>
</linearGradient>
<linearGradient id="paint36_linear_61_7173" x1="246.594" y1="147.368" x2="248.098" y2="147.368" gradientUnits="userSpaceOnUse">
<stop stop-color="#5778FF"/>
<stop offset="0.1779" stop-color="#5C7DFF"/>
<stop offset="0.3876" stop-color="#6A8AFF"/>
<stop offset="0.6134" stop-color="#82A0FF"/>
<stop offset="0.849" stop-color="#A3BEFF"/>
<stop offset="1" stop-color="#BCD5FF"/>
</linearGradient>
<linearGradient id="paint37_linear_61_7173" x1="209.648" y1="124.254" x2="211.466" y2="124.254" gradientUnits="userSpaceOnUse">
<stop stop-color="#C0D6FF"/>
<stop offset="0.2978" stop-color="#C5DBFF"/>
<stop offset="0.6488" stop-color="#D3E9FF"/>
<stop offset="1" stop-color="#E9FFFF"/>
</linearGradient>
<linearGradient id="paint38_linear_61_7173" x1="209.428" y1="124.479" x2="210.931" y2="124.479" gradientUnits="userSpaceOnUse">
<stop stop-color="#5778FF"/>
<stop offset="0.1779" stop-color="#5C7DFF"/>
<stop offset="0.3876" stop-color="#6A8AFF"/>
<stop offset="0.6134" stop-color="#82A0FF"/>
<stop offset="0.849" stop-color="#A3BEFF"/>
<stop offset="1" stop-color="#BCD5FF"/>
</linearGradient>
<linearGradient id="paint39_linear_61_7173" x1="209.649" y1="124.42" x2="211.466" y2="124.42" gradientUnits="userSpaceOnUse">
<stop stop-color="#C0D6FF"/>
<stop offset="0.2978" stop-color="#C5DBFF"/>
<stop offset="0.6488" stop-color="#D3E9FF"/>
<stop offset="1" stop-color="#E9FFFF"/>
</linearGradient>
<linearGradient id="paint40_linear_61_7173" x1="209.427" y1="124.42" x2="210.93" y2="124.42" gradientUnits="userSpaceOnUse">
<stop stop-color="#5778FF"/>
<stop offset="0.1779" stop-color="#5C7DFF"/>
<stop offset="0.3876" stop-color="#6A8AFF"/>
<stop offset="0.6134" stop-color="#82A0FF"/>
<stop offset="0.849" stop-color="#A3BEFF"/>
<stop offset="1" stop-color="#BCD5FF"/>
</linearGradient>
<linearGradient id="paint41_linear_61_7173" x1="232.556" y1="180.841" x2="232.556" y2="81.1392" gradientUnits="userSpaceOnUse">
<stop stop-color="#C0D6FF"/>
<stop offset="0.2978" stop-color="#C5DBFF"/>
<stop offset="0.6488" stop-color="#D3E9FF"/>
<stop offset="1" stop-color="#E9FFFF"/>
</linearGradient>
<linearGradient id="paint42_linear_61_7173" x1="182.661" y1="75.256" x2="225.537" y2="75.256" gradientUnits="userSpaceOnUse">
<stop stop-color="#E9FFFF"/>
<stop offset="0.0373936" stop-color="#D3EBFF"/>
<stop offset="0.1056" stop-color="#B2CCFF"/>
<stop offset="0.1817" stop-color="#96B2FF"/>
<stop offset="0.2663" stop-color="#7F9DFF"/>
<stop offset="0.3632" stop-color="#6D8CFF"/>
<stop offset="0.4798" stop-color="#6081FF"/>
<stop offset="0.6363" stop-color="#597AFF"/>
<stop offset="1" stop-color="#5778FF"/>
</linearGradient>
<linearGradient id="paint43_linear_61_7173" x1="180.77" y1="76.0333" x2="238.164" y2="76.0333" gradientUnits="userSpaceOnUse">
<stop stop-color="#5778FF"/>
<stop offset="0.1779" stop-color="#5C7DFF"/>
<stop offset="0.3876" stop-color="#6A8AFF"/>
<stop offset="0.6134" stop-color="#82A0FF"/>
<stop offset="0.849" stop-color="#A3BEFF"/>
<stop offset="1" stop-color="#BCD5FF"/>
</linearGradient>
<linearGradient id="paint44_linear_61_7173" x1="218.871" y1="87.0559" x2="241.096" y2="87.0559" gradientUnits="userSpaceOnUse">
<stop stop-color="#C0D6FF"/>
<stop offset="0.2978" stop-color="#C5DBFF"/>
<stop offset="0.6488" stop-color="#D3E9FF"/>
<stop offset="1" stop-color="#E9FFFF"/>
</linearGradient>
<linearGradient id="paint45_linear_61_7173" x1="180.77" y1="74.4204" x2="241.097" y2="74.4204" gradientUnits="userSpaceOnUse">
<stop stop-color="#C0D6FF"/>
<stop offset="0.2978" stop-color="#C5DBFF"/>
<stop offset="0.6488" stop-color="#D3E9FF"/>
<stop offset="1" stop-color="#E9FFFF"/>
</linearGradient>
<linearGradient id="paint46_linear_61_7173" x1="193.993" y1="65.3742" x2="201.091" y2="65.3742" gradientUnits="userSpaceOnUse">
<stop stop-color="#5778FF"/>
<stop offset="0.1779" stop-color="#5C7DFF"/>
<stop offset="0.3876" stop-color="#6A8AFF"/>
<stop offset="0.6134" stop-color="#82A0FF"/>
<stop offset="0.849" stop-color="#A3BEFF"/>
<stop offset="1" stop-color="#BCD5FF"/>
</linearGradient>
<linearGradient id="paint47_linear_61_7173" x1="195.835" y1="66.5148" x2="202.934" y2="66.5148" gradientUnits="userSpaceOnUse">
<stop stop-color="#5778FF"/>
<stop offset="0.1779" stop-color="#5C7DFF"/>
<stop offset="0.3876" stop-color="#6A8AFF"/>
<stop offset="0.6134" stop-color="#82A0FF"/>
<stop offset="0.849" stop-color="#A3BEFF"/>
<stop offset="1" stop-color="#BCD5FF"/>
</linearGradient>
<linearGradient id="paint48_linear_61_7173" x1="197.678" y1="67.6551" x2="204.776" y2="67.6551" gradientUnits="userSpaceOnUse">
<stop stop-color="#5778FF"/>
<stop offset="0.1779" stop-color="#5C7DFF"/>
<stop offset="0.3876" stop-color="#6A8AFF"/>
<stop offset="0.6134" stop-color="#82A0FF"/>
<stop offset="0.849" stop-color="#A3BEFF"/>
<stop offset="1" stop-color="#BCD5FF"/>
</linearGradient>
<linearGradient id="paint49_linear_61_7173" x1="199.521" y1="68.7957" x2="206.619" y2="68.7957" gradientUnits="userSpaceOnUse">
<stop stop-color="#5778FF"/>
<stop offset="0.1779" stop-color="#5C7DFF"/>
<stop offset="0.3876" stop-color="#6A8AFF"/>
<stop offset="0.6134" stop-color="#82A0FF"/>
<stop offset="0.849" stop-color="#A3BEFF"/>
<stop offset="1" stop-color="#BCD5FF"/>
</linearGradient>
<linearGradient id="paint50_linear_61_7173" x1="204.908" y1="72.163" x2="212.006" y2="72.163" gradientUnits="userSpaceOnUse">
<stop stop-color="#5778FF"/>
<stop offset="0.1779" stop-color="#5C7DFF"/>
<stop offset="0.3876" stop-color="#6A8AFF"/>
<stop offset="0.6134" stop-color="#82A0FF"/>
<stop offset="0.849" stop-color="#A3BEFF"/>
<stop offset="1" stop-color="#BCD5FF"/>
</linearGradient>
<linearGradient id="paint51_linear_61_7173" x1="206.751" y1="73.3037" x2="213.849" y2="73.3037" gradientUnits="userSpaceOnUse">
<stop stop-color="#5778FF"/>
<stop offset="0.1779" stop-color="#5C7DFF"/>
<stop offset="0.3876" stop-color="#6A8AFF"/>
<stop offset="0.6134" stop-color="#82A0FF"/>
<stop offset="0.849" stop-color="#A3BEFF"/>
<stop offset="1" stop-color="#BCD5FF"/>
</linearGradient>
<linearGradient id="paint52_linear_61_7173" x1="208.593" y1="74.4439" x2="215.692" y2="74.4439" gradientUnits="userSpaceOnUse">
<stop stop-color="#5778FF"/>
<stop offset="0.1779" stop-color="#5C7DFF"/>
<stop offset="0.3876" stop-color="#6A8AFF"/>
<stop offset="0.6134" stop-color="#82A0FF"/>
<stop offset="0.849" stop-color="#A3BEFF"/>
<stop offset="1" stop-color="#BCD5FF"/>
</linearGradient>
<linearGradient id="paint53_linear_61_7173" x1="210.436" y1="75.5845" x2="217.534" y2="75.5845" gradientUnits="userSpaceOnUse">
<stop stop-color="#5778FF"/>
<stop offset="0.1779" stop-color="#5C7DFF"/>
<stop offset="0.3876" stop-color="#6A8AFF"/>
<stop offset="0.6134" stop-color="#82A0FF"/>
<stop offset="0.849" stop-color="#A3BEFF"/>
<stop offset="1" stop-color="#BCD5FF"/>
</linearGradient>
<linearGradient id="paint54_linear_61_7173" x1="215.825" y1="78.9518" x2="222.923" y2="78.9518" gradientUnits="userSpaceOnUse">
<stop stop-color="#5778FF"/>
<stop offset="0.1779" stop-color="#5C7DFF"/>
<stop offset="0.3876" stop-color="#6A8AFF"/>
<stop offset="0.6134" stop-color="#82A0FF"/>
<stop offset="0.849" stop-color="#A3BEFF"/>
<stop offset="1" stop-color="#BCD5FF"/>
</linearGradient>
<linearGradient id="paint55_linear_61_7173" x1="217.668" y1="80.0925" x2="224.766" y2="80.0925" gradientUnits="userSpaceOnUse">
<stop stop-color="#5778FF"/>
<stop offset="0.1779" stop-color="#5C7DFF"/>
<stop offset="0.3876" stop-color="#6A8AFF"/>
<stop offset="0.6134" stop-color="#82A0FF"/>
<stop offset="0.849" stop-color="#A3BEFF"/>
<stop offset="1" stop-color="#BCD5FF"/>
</linearGradient>
<linearGradient id="paint56_linear_61_7173" x1="219.511" y1="81.2327" x2="226.609" y2="81.2327" gradientUnits="userSpaceOnUse">
<stop stop-color="#5778FF"/>
<stop offset="0.1779" stop-color="#5C7DFF"/>
<stop offset="0.3876" stop-color="#6A8AFF"/>
<stop offset="0.6134" stop-color="#82A0FF"/>
<stop offset="0.849" stop-color="#A3BEFF"/>
<stop offset="1" stop-color="#BCD5FF"/>
</linearGradient>
<linearGradient id="paint57_linear_61_7173" x1="221.353" y1="82.3733" x2="228.451" y2="82.3733" gradientUnits="userSpaceOnUse">
<stop stop-color="#5778FF"/>
<stop offset="0.1779" stop-color="#5C7DFF"/>
<stop offset="0.3876" stop-color="#6A8AFF"/>
<stop offset="0.6134" stop-color="#82A0FF"/>
<stop offset="0.849" stop-color="#A3BEFF"/>
<stop offset="1" stop-color="#BCD5FF"/>
</linearGradient>
<linearGradient id="paint58_linear_61_7173" x1="214.447" y1="98.5011" x2="216.265" y2="98.5011" gradientUnits="userSpaceOnUse">
<stop stop-color="#C0D6FF"/>
<stop offset="0.2978" stop-color="#C5DBFF"/>
<stop offset="0.6488" stop-color="#D3E9FF"/>
<stop offset="1" stop-color="#E9FFFF"/>
</linearGradient>
<linearGradient id="paint59_linear_61_7173" x1="214.227" y1="98.7007" x2="215.73" y2="98.7007" gradientUnits="userSpaceOnUse">
<stop stop-color="#5778FF"/>
<stop offset="0.1779" stop-color="#5C7DFF"/>
<stop offset="0.3876" stop-color="#6A8AFF"/>
<stop offset="0.6134" stop-color="#82A0FF"/>
<stop offset="0.849" stop-color="#A3BEFF"/>
<stop offset="1" stop-color="#BCD5FF"/>
</linearGradient>
<linearGradient id="paint60_linear_61_7173" x1="177.28" y1="75.5537" x2="179.097" y2="75.5537" gradientUnits="userSpaceOnUse">
<stop stop-color="#C0D6FF"/>
<stop offset="0.2978" stop-color="#C5DBFF"/>
<stop offset="0.6488" stop-color="#D3E9FF"/>
<stop offset="1" stop-color="#E9FFFF"/>
</linearGradient>
<linearGradient id="paint61_linear_61_7173" x1="177.059" y1="75.7533" x2="178.562" y2="75.7533" gradientUnits="userSpaceOnUse">
<stop stop-color="#5778FF"/>
<stop offset="0.1779" stop-color="#5C7DFF"/>
<stop offset="0.3876" stop-color="#6A8AFF"/>
<stop offset="0.6134" stop-color="#82A0FF"/>
<stop offset="0.849" stop-color="#A3BEFF"/>
<stop offset="1" stop-color="#BCD5FF"/>
</linearGradient>
<linearGradient id="paint62_linear_61_7173" x1="214.447" y1="176.22" x2="216.265" y2="176.22" gradientUnits="userSpaceOnUse">
<stop stop-color="#C0D6FF"/>
<stop offset="0.2978" stop-color="#C5DBFF"/>
<stop offset="0.6488" stop-color="#D3E9FF"/>
<stop offset="1" stop-color="#E9FFFF"/>
</linearGradient>
<linearGradient id="paint63_linear_61_7173" x1="214.227" y1="176.446" x2="215.73" y2="176.446" gradientUnits="userSpaceOnUse">
<stop stop-color="#5778FF"/>
<stop offset="0.1779" stop-color="#5C7DFF"/>
<stop offset="0.3876" stop-color="#6A8AFF"/>
<stop offset="0.6134" stop-color="#82A0FF"/>
<stop offset="0.849" stop-color="#A3BEFF"/>
<stop offset="1" stop-color="#BCD5FF"/>
</linearGradient>
<linearGradient id="paint64_linear_61_7173" x1="214.448" y1="176.386" x2="216.265" y2="176.386" gradientUnits="userSpaceOnUse">
<stop stop-color="#C0D6FF"/>
<stop offset="0.2978" stop-color="#C5DBFF"/>
<stop offset="0.6488" stop-color="#D3E9FF"/>
<stop offset="1" stop-color="#E9FFFF"/>
</linearGradient>
<linearGradient id="paint65_linear_61_7173" x1="214.226" y1="176.386" x2="215.729" y2="176.386" gradientUnits="userSpaceOnUse">
<stop stop-color="#5778FF"/>
<stop offset="0.1779" stop-color="#5C7DFF"/>
<stop offset="0.3876" stop-color="#6A8AFF"/>
<stop offset="0.6134" stop-color="#82A0FF"/>
<stop offset="0.849" stop-color="#A3BEFF"/>
<stop offset="1" stop-color="#BCD5FF"/>
</linearGradient>
<linearGradient id="paint66_linear_61_7173" x1="177.28" y1="153.272" x2="179.097" y2="153.272" gradientUnits="userSpaceOnUse">
<stop stop-color="#C0D6FF"/>
<stop offset="0.2978" stop-color="#C5DBFF"/>
<stop offset="0.6488" stop-color="#D3E9FF"/>
<stop offset="1" stop-color="#E9FFFF"/>
</linearGradient>
<linearGradient id="paint67_linear_61_7173" x1="177.059" y1="153.497" x2="178.562" y2="153.497" gradientUnits="userSpaceOnUse">
<stop stop-color="#5778FF"/>
<stop offset="0.1779" stop-color="#5C7DFF"/>
<stop offset="0.3876" stop-color="#6A8AFF"/>
<stop offset="0.6134" stop-color="#82A0FF"/>
<stop offset="0.849" stop-color="#A3BEFF"/>
<stop offset="1" stop-color="#BCD5FF"/>
</linearGradient>
<linearGradient id="paint68_linear_61_7173" x1="177.28" y1="153.438" x2="179.098" y2="153.438" gradientUnits="userSpaceOnUse">
<stop stop-color="#C0D6FF"/>
<stop offset="0.2978" stop-color="#C5DBFF"/>
<stop offset="0.6488" stop-color="#D3E9FF"/>
<stop offset="1" stop-color="#E9FFFF"/>
</linearGradient>
<linearGradient id="paint69_linear_61_7173" x1="177.058" y1="153.438" x2="178.562" y2="153.438" gradientUnits="userSpaceOnUse">
<stop stop-color="#5778FF"/>
<stop offset="0.1779" stop-color="#5C7DFF"/>
<stop offset="0.3876" stop-color="#6A8AFF"/>
<stop offset="0.6134" stop-color="#82A0FF"/>
<stop offset="0.849" stop-color="#A3BEFF"/>
<stop offset="1" stop-color="#BCD5FF"/>
</linearGradient>
</defs>
</svg>
