<svg width="177" height="224" viewBox="0 0 177 224" fill="none" xmlns="http://www.w3.org/2000/svg">
<path d="M160.908 147.03C160.407 147.03 159.906 146.904 159.468 146.653L150.953 141.555L151.454 140.674L159.969 145.771C160.533 146.086 161.221 146.086 161.785 145.771L175.622 137.653C175.872 137.527 175.997 137.275 175.997 137.024C175.997 136.772 175.872 136.52 175.622 136.394L157.152 126.45L157.652 125.569L176.123 135.513C176.686 135.828 176.999 136.331 176.999 136.961C176.999 137.59 176.686 138.156 176.185 138.471L162.348 146.59C161.91 146.904 161.409 147.03 160.908 147.03Z" fill="#B2D3EA"/>
<path d="M126.536 224C125.91 224 125.346 223.874 124.783 223.56L90.8481 204.553C90.3472 204.302 90.0341 203.735 90.0341 203.169C90.0341 202.602 90.3472 202.099 90.8481 201.784L106.188 193.099C106.438 192.973 106.438 192.722 106.438 192.659C106.438 192.596 106.438 192.344 106.188 192.218L89.1576 182.337C88.6567 182.085 88.4062 181.582 88.4062 181.016C88.4062 180.449 88.6567 179.946 89.095 179.694L96.0447 175.226L96.6082 176.044L89.6585 180.512C89.408 180.638 89.408 180.89 89.408 180.953C89.408 181.016 89.4706 181.267 89.6585 181.393L106.751 191.274C107.252 191.526 107.502 192.029 107.502 192.596C107.502 193.162 107.189 193.666 106.751 193.917L91.4116 202.602C91.1611 202.728 91.0985 202.98 91.0985 203.106C91.0985 203.232 91.0985 203.42 91.4116 203.609L125.346 222.616C126.16 223.056 127.162 223.056 127.913 222.553L140.811 214.56C140.936 214.497 140.936 214.371 140.936 214.371C140.936 214.308 140.936 214.245 140.811 214.182L131.482 208.455L131.983 207.574L141.312 213.301C141.688 213.553 141.938 213.931 141.938 214.371C141.938 214.812 141.688 215.189 141.375 215.441L128.477 223.434C127.851 223.811 127.162 224 126.536 224Z" fill="#B2D3EA"/>
<path d="M141.187 147.534L124.845 138.031C123.844 137.465 123.969 136.458 125.096 135.766L140.874 126.577C142.063 125.885 143.816 125.822 144.818 126.388L161.159 135.891C162.161 136.458 162.036 137.465 160.909 138.157L145.131 147.346C143.941 148.038 142.188 148.164 141.187 147.534Z" fill="#B2D3EA"/>
<path d="M166.607 128.716V121.605H150.766L145.319 118.395C144.067 117.64 141.876 117.766 140.436 118.584L135.301 121.542H119.461V128.842C119.398 129.346 119.711 129.786 120.275 130.164L140.749 142.059C142.001 142.814 144.192 142.688 145.632 141.87L165.417 130.416C166.231 129.912 166.669 129.283 166.607 128.716Z" fill="#396CAA"/>
<path d="M143.003 117.955C142.064 117.955 141.124 118.207 140.373 118.647L135.239 121.605H119.399V128.906C119.336 129.409 119.649 129.85 120.212 130.227L140.686 142.122C141.312 142.5 142.126 142.626 142.94 142.626V117.955H143.003Z" fill="#396CAA"/>
<path d="M121.214 121.605H119.399V128.906C119.336 129.409 119.649 129.85 120.212 130.228L121.152 130.794V121.605H121.214Z" fill="#5793CE"/>
<path d="M141.062 142.248C142.127 142.689 143.692 142.689 145.007 142.185V133.878H141.062V142.248Z" fill="#5793CE"/>
<path d="M140.749 134.821L120.276 122.927C119.023 122.172 119.149 120.913 120.651 120.095L140.436 108.64C141.876 107.822 144.068 107.696 145.32 108.452L165.794 120.346C167.046 121.102 166.92 122.36 165.418 123.178L145.633 134.633C144.193 135.451 142.001 135.577 140.749 134.821Z" fill="#D4ECFF"/>
<path d="M141.125 132.681L123.97 122.737C122.906 122.108 123.031 121.038 124.283 120.346L140.875 110.717C142.064 110.024 143.943 109.961 145.007 110.528L162.162 120.472C163.227 121.101 163.102 122.171 161.849 122.863L145.258 132.492C144.005 133.184 142.19 133.31 141.125 132.681Z" fill="#5793CE"/>
<path d="M159.093 130.605C159.093 131.109 158.717 131.801 158.279 132.053C157.841 132.304 157.465 132.116 157.465 131.549C157.465 131.046 157.841 130.353 158.279 130.102C158.717 129.85 159.093 130.039 159.093 130.605Z" fill="#D4ECFF"/>
<path d="M161.722 129.031C161.722 129.534 161.346 130.227 160.908 130.478C160.469 130.73 160.094 130.541 160.094 129.975C160.094 129.471 160.469 128.779 160.908 128.527C161.346 128.276 161.722 128.527 161.722 129.031Z" fill="#D4ECFF"/>
<path d="M164.415 127.521C164.415 128.025 164.039 128.717 163.601 128.969C163.163 129.22 162.787 129.032 162.787 128.465C162.787 127.962 163.163 127.269 163.601 127.018C164.039 126.766 164.415 126.955 164.415 127.521Z" fill="#D4ECFF"/>
<path d="M166.607 117.387V110.276H150.766L145.319 107.066C144.067 106.311 141.876 106.437 140.436 107.255L135.301 110.213H119.461V117.513C119.398 118.017 119.711 118.457 120.275 118.835L140.749 130.73C142.001 131.485 144.192 131.359 145.632 130.541L165.417 119.087C166.231 118.583 166.669 117.954 166.607 117.387Z" fill="#396CAA"/>
<path d="M143.003 106.562C142.064 106.562 141.124 106.814 140.373 107.255L135.239 110.213H119.399V117.513C119.336 118.017 119.649 118.457 120.212 118.835L140.686 130.73C141.312 131.107 142.126 131.233 142.94 131.233V106.562H143.003Z" fill="#396CAA"/>
<path d="M121.214 110.214H119.399V117.514C119.336 118.018 119.649 118.458 120.212 118.836L121.152 119.402V110.214H121.214Z" fill="#5793CE"/>
<path d="M141.062 130.919C142.127 131.36 143.692 131.36 145.007 130.856V122.549H141.062V130.919Z" fill="#5793CE"/>
<path d="M140.749 123.492L120.276 111.598C119.023 110.842 119.149 109.584 120.651 108.766L140.436 97.3114C141.876 96.4932 144.068 96.3674 145.32 97.1226L165.794 109.017C167.046 109.773 166.92 111.031 165.418 111.849L145.633 123.304C144.193 124.122 142.001 124.185 140.749 123.492Z" fill="#D4ECFF"/>
<path d="M141.125 121.352L123.97 111.408C122.906 110.779 123.031 109.709 124.283 109.017L140.875 99.3875C142.064 98.6953 143.943 98.6323 145.007 99.1987L162.162 109.142C163.227 109.772 163.102 110.842 161.849 111.534L145.258 121.163C144.005 121.855 142.19 121.918 141.125 121.352Z" fill="#5793CE"/>
<path d="M159.093 119.213C159.093 119.716 158.717 120.408 158.279 120.66C157.841 120.912 157.465 120.723 157.465 120.157C157.465 119.653 157.841 118.961 158.279 118.709C158.717 118.457 159.093 118.709 159.093 119.213Z" fill="#D4ECFF"/>
<path d="M161.722 117.702C161.722 118.205 161.346 118.898 160.908 119.149C160.469 119.401 160.094 119.212 160.094 118.646C160.094 118.142 160.469 117.45 160.908 117.198C161.346 116.947 161.722 117.135 161.722 117.702Z" fill="#D4ECFF"/>
<path d="M164.415 116.129C164.415 116.632 164.039 117.324 163.601 117.576C163.163 117.828 162.787 117.639 162.787 117.073C162.787 116.569 163.163 115.877 163.601 115.625C164.039 115.373 164.415 115.625 164.415 116.129Z" fill="#D4ECFF"/>
<path d="M166.607 105.997V98.885H150.766L145.319 95.6753C144.067 94.9201 141.876 95.046 140.436 95.8641L135.301 98.8221H119.461V106.185C119.398 106.689 119.711 107.129 120.275 107.507L140.749 119.402C142.001 120.157 144.192 120.031 145.632 119.213L165.417 107.759C166.231 107.192 166.669 106.563 166.607 105.997Z" fill="#396CAA"/>
<path d="M143.003 95.2344C142.064 95.2344 141.124 95.4861 140.373 95.9267L135.239 98.8846H119.399V106.185C119.336 106.689 119.649 107.129 120.212 107.507L140.686 119.401C141.312 119.779 142.126 119.905 142.94 119.905V95.2344H143.003Z" fill="#396CAA"/>
<path d="M121.214 98.8848H119.399V106.185C119.336 106.689 119.649 107.129 120.212 107.507L121.152 108.073V98.8848H121.214Z" fill="#5793CE"/>
<path d="M141.062 119.527C142.127 119.968 143.692 119.968 145.007 119.464V111.22H141.062V119.527Z" fill="#5793CE"/>
<path d="M140.749 112.101L120.276 100.206C119.023 99.4508 119.149 98.1921 120.651 97.374L140.436 85.9198C141.876 85.1016 144.068 84.9758 145.32 85.731L165.794 97.6257C167.046 98.3809 166.92 99.6396 165.418 100.458L145.633 111.912C144.193 112.73 142.001 112.856 140.749 112.101Z" fill="#D4ECFF"/>
<path d="M165.418 99.01L145.633 110.464C144.193 111.282 142.001 111.408 140.749 110.653L120.275 98.7583C120.025 98.5695 119.775 98.3807 119.649 98.1918C119.211 98.8841 119.399 99.6393 120.275 100.143L140.749 112.038C142.001 112.793 144.193 112.667 145.633 111.849L165.418 100.395C166.545 99.7652 166.858 98.8212 166.419 98.1289C166.232 98.4436 165.856 98.7583 165.418 99.01Z" fill="white"/>
<path d="M159.093 107.884C159.093 108.388 158.717 109.08 158.279 109.332C157.841 109.584 157.465 109.395 157.465 108.828C157.465 108.325 157.841 107.633 158.279 107.381C158.717 107.129 159.093 107.381 159.093 107.884Z" fill="#D4ECFF"/>
<path d="M161.722 106.311C161.722 106.814 161.346 107.506 160.908 107.758C160.469 108.01 160.094 107.821 160.094 107.255C160.094 106.751 160.469 106.059 160.908 105.807C161.346 105.618 161.722 105.807 161.722 106.311Z" fill="#D4ECFF"/>
<path d="M164.415 104.8C164.415 105.304 164.039 105.996 163.601 106.248C163.163 106.5 162.787 106.311 162.787 105.744C162.787 105.241 163.163 104.549 163.601 104.297C164.039 104.045 164.415 104.234 164.415 104.8Z" fill="#D4ECFF"/>
<path d="M141.938 104.737L132.359 99.1987C131.795 98.884 131.858 98.2546 132.547 97.877L141.813 92.5275C142.502 92.1499 143.504 92.087 144.13 92.4017L153.709 97.94C154.273 98.2546 154.21 98.884 153.521 99.2616L144.255 104.611C143.566 105.052 142.564 105.052 141.938 104.737Z" fill="#5793CE"/>
<path d="M142.877 100.079L141.563 99.3242C141.5 99.2613 141.5 99.1984 141.563 99.1354L142.815 98.3802C142.94 98.3173 143.065 98.3173 143.128 98.3802L144.443 99.1354C144.505 99.1984 144.505 99.2613 144.443 99.3242L143.19 100.079C143.065 100.142 142.94 100.142 142.877 100.079Z" fill="#D4ECFF"/>
<path d="M132.359 99.1989C132.421 99.1989 132.484 99.136 132.547 99.136L141.813 93.7865C142.502 93.4089 143.504 93.346 144.13 93.6606L153.709 99.1989C154.273 98.8213 154.273 98.2549 153.709 97.9402L144.13 92.4019C143.566 92.0873 142.502 92.0873 141.813 92.5278L132.547 97.8773C131.858 98.2549 131.795 98.8213 132.359 99.1989Z" fill="#396CAA"/>
<path d="M104.371 181.645L68.9964 161.38C67.6816 160.625 67.8695 159.303 69.3721 158.422L89.7205 146.591C91.2232 145.709 93.4772 145.647 94.792 146.402L130.167 166.667C131.482 167.422 131.294 168.744 129.791 169.625L109.443 181.457C107.878 182.275 105.624 182.338 104.371 181.645Z" fill="#B2D3EA"/>
<path d="M133.234 159.869V76.8579L100.426 68.2358L94.3531 64.7115C92.9757 63.8933 90.5339 64.0192 88.9686 64.9632L83.3337 68.2358H65.8027L70.9994 148.352C70.9368 148.919 71.2498 149.422 71.9386 149.8L104.684 174.659C106.061 175.477 108.503 175.351 110.068 174.407L131.919 161.757C132.859 161.191 133.297 160.499 133.234 159.869Z" fill="#396CAA"/>
<path d="M91.9112 64.209C90.9095 64.209 89.8451 64.4607 89.0311 64.9642L83.3962 68.2368H65.8652V151.437C65.8026 152.003 66.1157 152.507 66.8044 152.884L104.746 174.597C105.435 174.975 106.312 175.163 107.251 175.163L107.626 91.4599L91.9112 64.209Z" fill="#D4ECFF"/>
<path d="M105.061 174.785C106.25 175.289 108.003 175.289 109.381 174.722V90.4521H105.061V174.785Z" fill="#5793CE"/>
<path d="M104.684 91.459L66.7422 69.6834C65.3648 68.8653 65.5526 67.4807 67.1178 66.5367L88.9689 53.8867C90.5968 52.9427 92.976 52.8798 94.3534 53.635L132.295 75.3476C133.673 76.1657 133.485 77.5503 131.92 78.4943L110.069 91.1443C108.503 92.1512 106.062 92.2771 104.684 91.459Z" fill="#D4ECFF"/>
<path d="M131.92 77.0467L110.069 89.6967C108.441 90.6407 106.062 90.7036 104.684 89.9484L66.7423 68.2358C66.4293 68.047 66.1788 67.8582 66.0536 67.6064C65.5527 68.3617 65.8032 69.2428 66.7423 69.7462L104.684 91.4588C106.062 92.277 108.504 92.1511 110.069 91.2071L131.92 78.5572C133.172 77.8649 133.548 76.795 132.984 76.0397C132.796 76.4174 132.421 76.732 131.92 77.0467Z" fill="#FAFDFF"/>
<path d="M105.749 82.6476L80.5167 67.9208C79.8906 67.5432 79.9532 66.9138 80.7046 66.4733L90.9101 60.5574C91.6614 60.1169 92.7884 60.0539 93.4145 60.4315L118.647 75.1583C119.273 75.5359 119.21 76.1653 118.459 76.6058L108.253 82.5217C107.564 82.9623 106.437 83.0252 105.749 82.6476Z" fill="#173D7A"/>
<path d="M92.1628 68.6135L90.7227 67.7954C90.6601 67.7324 90.6601 67.6695 90.7227 67.6066L92.1628 66.7884C92.288 66.7255 92.4132 66.7255 92.5384 66.7884L93.9785 67.6066C94.0411 67.6695 94.0411 67.7324 93.9785 67.7954L92.5384 68.6135C92.4132 68.6135 92.2254 68.6135 92.1628 68.6135Z" fill="#D4ECFF"/>
<path d="M97.0456 71.4456L95.6056 70.6274C95.5429 70.5645 95.5429 70.5015 95.6056 70.4386L97.0456 69.6204C97.1708 69.5575 97.2961 69.5575 97.4213 69.6204L98.8613 70.4386C98.9239 70.5015 98.9239 70.5645 98.8613 70.6274L97.4213 71.4456C97.2961 71.4456 97.1082 71.4456 97.0456 71.4456Z" fill="#D4ECFF"/>
<path d="M101.93 74.2141L100.49 73.396C100.428 73.333 100.428 73.2701 100.49 73.2072L101.93 72.389C102.056 72.3261 102.181 72.3261 102.306 72.389L103.746 73.2072C103.809 73.2701 103.809 73.333 103.746 73.396L102.306 74.2141C102.181 74.277 101.993 74.277 101.93 74.2141Z" fill="#D4ECFF"/>
<path d="M106.813 77.0461L105.373 76.228C105.311 76.165 105.311 76.1021 105.373 76.0392L106.813 75.221C106.938 75.1581 107.064 75.1581 107.189 75.221L108.629 76.0392C108.691 76.1021 108.691 76.165 108.629 76.228L107.189 77.0461C107.064 77.1091 106.876 77.1091 106.813 77.0461Z" fill="#D4ECFF"/>
<path d="M80.5167 67.9208C80.5793 67.9208 80.642 67.8579 80.7046 67.8579L90.9101 61.942C91.6614 61.5014 92.7884 61.4385 93.4145 61.8161L118.647 76.5429C119.273 76.1024 119.273 75.5359 118.647 75.1583L93.4145 60.4315C92.7884 60.0539 91.6614 60.1169 90.9101 60.5574L80.7046 66.4733C79.9532 66.9138 79.8906 67.5432 80.5167 67.9208Z" fill="#5793CE"/>
<path d="M114.389 107.886L128.727 99.6414C129.541 99.2008 130.167 97.9421 130.167 96.8093V91.6486C130.167 90.5787 129.541 90.0753 128.727 90.5158L114.389 98.7603C113.575 99.2008 112.949 100.46 112.949 101.592V106.753C112.887 107.886 113.575 108.389 114.389 107.886Z" fill="#173D7A"/>
<path d="M129.415 90.3896C129.666 90.5785 129.791 90.9561 129.791 91.4596V96.6202C129.791 97.6901 129.165 98.9488 128.351 99.4523L114.013 107.697C113.762 107.823 113.512 107.886 113.324 107.823C113.575 108.074 113.95 108.137 114.451 107.886L128.789 99.6411C129.603 99.2006 130.229 97.9419 130.229 96.809V91.6483C130.166 90.8931 129.916 90.4526 129.415 90.3896Z" fill="white"/>
<path d="M118.71 102.285L120.024 101.53C120.212 101.404 120.337 101.152 120.337 100.9V99.5156C120.337 99.2639 120.212 99.201 120.024 99.2639L118.71 100.019C118.522 100.145 118.396 100.397 118.396 100.648V102.033C118.396 102.285 118.522 102.411 118.71 102.285Z" fill="#396CAA"/>
<path d="M123.092 99.7037L124.407 98.9485C124.595 98.8227 124.72 98.5709 124.72 98.3192V96.9346C124.72 96.6829 124.595 96.6199 124.407 96.6829L123.092 97.4381C122.905 97.564 122.779 97.8157 122.779 98.0674V99.452C122.779 99.7037 122.905 99.8296 123.092 99.7037Z" fill="white"/>
<path d="M114.389 145.206L128.727 136.962C129.541 136.521 130.167 135.262 130.167 134.13V128.969C130.167 127.899 129.541 127.396 128.727 127.836L114.389 136.081C113.575 136.521 112.949 137.78 112.949 138.913V144.073C112.887 145.143 113.575 145.647 114.389 145.206Z" fill="#173D7A"/>
<path d="M129.415 127.71C129.666 127.899 129.791 128.276 129.791 128.78V133.941C129.791 135.01 129.165 136.269 128.351 136.773L114.013 145.017C113.762 145.143 113.512 145.206 113.324 145.143C113.575 145.395 113.95 145.458 114.451 145.206L128.789 136.961C129.603 136.521 130.229 135.262 130.229 134.129V128.969C130.166 128.213 129.916 127.773 129.415 127.71Z" fill="white"/>
<path d="M118.71 139.604L120.024 138.849C120.212 138.723 120.337 138.471 120.337 138.22V136.835C120.337 136.583 120.212 136.52 120.024 136.583L118.71 137.338C118.522 137.464 118.396 137.716 118.396 137.968V139.352C118.396 139.604 118.522 139.667 118.71 139.604Z" fill="#396CAA"/>
<path d="M123.092 137.024L124.407 136.269C124.595 136.143 124.72 135.891 124.72 135.639V134.255C124.72 134.003 124.595 133.94 124.407 134.003L123.092 134.758C122.905 134.884 122.779 135.136 122.779 135.388V136.772C122.779 137.024 122.905 137.15 123.092 137.024Z" fill="#396CAA"/>
<path d="M114.389 163.834L128.727 155.59C129.541 155.149 130.167 153.89 130.167 152.758V147.597C130.167 146.527 129.541 146.024 128.727 146.464L114.389 154.709C113.575 155.149 112.949 156.408 112.949 157.541V162.701C112.887 163.834 113.575 164.275 114.389 163.834Z" fill="#173D7A"/>
<path d="M129.415 146.338C129.666 146.527 129.791 146.904 129.791 147.408V152.568C129.791 153.638 129.165 154.897 128.351 155.401L114.013 163.645C113.762 163.771 113.512 163.834 113.324 163.771C113.575 164.023 113.95 164.086 114.451 163.834L128.789 155.589C129.603 155.149 130.229 153.89 130.229 152.757V147.597C130.166 146.841 129.916 146.401 129.415 146.338Z" fill="white"/>
<path d="M118.71 158.232L120.024 157.477C120.212 157.351 120.337 157.099 120.337 156.847V155.463C120.337 155.211 120.212 155.148 120.024 155.211L118.71 155.966C118.522 156.092 118.396 156.344 118.396 156.596V157.98C118.396 158.232 118.522 158.358 118.71 158.232Z" fill="white"/>
<path d="M123.092 155.652L124.407 154.897C124.595 154.771 124.72 154.519 124.72 154.267V152.883C124.72 152.631 124.595 152.568 124.407 152.631L123.092 153.386C122.905 153.512 122.779 153.764 122.779 154.016V155.4C122.779 155.652 122.905 155.778 123.092 155.652Z" fill="#396CAA"/>
<path d="M114.389 126.514L128.727 118.269C129.541 117.829 130.167 116.57 130.167 115.437V110.277C130.167 109.207 129.541 108.703 128.727 109.144L114.389 117.388C113.575 117.829 112.949 119.087 112.949 120.22V125.381C112.887 126.514 113.575 127.017 114.389 126.514Z" fill="#173D7A"/>
<path d="M129.415 109.018C129.666 109.206 129.791 109.584 129.791 110.087V115.248C129.791 116.318 129.165 117.577 128.351 118.08L114.013 126.325C113.762 126.451 113.512 126.514 113.324 126.451C113.575 126.702 113.95 126.765 114.451 126.514L128.789 118.269C129.603 117.828 130.229 116.57 130.229 115.437V110.276C130.166 109.584 129.916 109.143 129.415 109.018Z" fill="white"/>
<path d="M118.71 120.912L120.024 120.157C120.212 120.031 120.337 119.779 120.337 119.527V118.143C120.337 117.891 120.212 117.828 120.024 117.891L118.71 118.646C118.522 118.772 118.396 119.024 118.396 119.275V120.66C118.396 120.912 118.522 121.038 118.71 120.912Z" fill="white"/>
<path d="M123.092 118.395L124.407 117.64C124.595 117.514 124.72 117.262 124.72 117.011V115.626C124.72 115.374 124.595 115.311 124.407 115.374L123.092 116.129C122.905 116.255 122.779 116.507 122.779 116.759V118.143C122.779 118.395 122.905 118.458 123.092 118.395Z" fill="white"/>
<path d="M101.93 102.598L68.809 83.4033C68.0576 82.9627 67.4941 81.8299 67.4941 80.8229V74.4665C67.4941 73.4595 68.1202 73.019 68.809 73.4595L101.93 92.6547C102.681 93.0953 103.245 94.2281 103.245 95.2351V101.592C103.307 102.598 102.681 103.039 101.93 102.598Z" fill="#5793CE"/>
<path opacity="0.4" d="M100.99 100.396L69.7473 82.2704C69.3717 82.0816 69.0586 81.4523 69.0586 80.9488V76.1657C69.0586 75.6622 69.3717 75.4105 69.7473 75.6622L100.99 93.7875C101.366 93.9763 101.679 94.6057 101.679 95.1092V99.8922C101.679 100.396 101.366 100.585 100.99 100.396Z" fill="#D4ECFF"/>
<path d="M76.2594 83.6545L71.6262 80.9483C71.2506 80.7594 70.9375 80.193 70.9375 79.6895C70.9375 79.1861 71.2506 78.9973 71.6262 79.1861L76.2594 81.8923C76.6351 82.0811 76.9481 82.6475 76.9481 83.151C76.9481 83.5915 76.6351 83.8433 76.2594 83.6545Z" fill="#D4ECFF"/>
<path d="M80.2663 85.0401C80.2663 85.5436 79.9533 85.7324 79.515 85.4806C79.0767 85.2289 78.7637 84.6625 78.7637 84.159C78.7637 83.6555 79.0767 83.4667 79.515 83.7184C79.8907 83.9702 80.2663 84.5366 80.2663 85.0401Z" fill="#173D7A"/>
<path d="M82.9597 86.6123C82.9597 87.1158 82.6466 87.3046 82.2083 87.0529C81.7701 86.8012 81.457 86.2347 81.457 85.7313C81.457 85.2278 81.7701 85.039 82.2083 85.2907C82.584 85.5424 82.9597 86.1089 82.9597 86.6123Z" fill="#173D7A"/>
<path d="M85.6511 88.1866C85.6511 88.69 85.338 88.8789 84.8998 88.6271C84.4615 88.3754 84.1484 87.809 84.1484 87.3055C84.1484 86.802 84.4615 86.6132 84.8998 86.8649C85.2754 87.1167 85.6511 87.6831 85.6511 88.1866Z" fill="#D4ECFF"/>
<path d="M88.3425 89.7588C88.3425 90.2623 88.0295 90.4511 87.5912 90.1994C87.1529 89.9476 86.8398 89.3812 86.8398 88.8777C86.8398 88.3743 87.1529 88.1855 87.5912 88.4372C87.9668 88.626 88.3425 89.2553 88.3425 89.7588Z" fill="#173D7A"/>
<path d="M99.6754 97.7526L98.1101 96.8715C97.8597 96.7457 97.6719 96.368 97.6719 96.0534V94.3541C97.6719 94.0394 97.8597 93.9136 98.1101 94.0394L99.6754 94.9205C99.9258 95.0464 100.114 95.424 100.114 95.7387V97.4379C100.114 97.6897 99.9258 97.8785 99.6754 97.7526Z" fill="#173D7A"/>
<path d="M101.93 113.801L68.809 94.6054C68.0576 94.1649 67.4941 93.0321 67.4941 92.0251V85.6687C67.4941 84.6617 68.1202 84.2211 68.809 84.6617L101.93 103.857C102.681 104.297 103.245 105.43 103.245 106.437V112.794C103.307 113.801 102.681 114.241 101.93 113.801Z" fill="#5793CE"/>
<path opacity="0.4" d="M100.99 111.598L69.7473 93.4726C69.3717 93.2838 69.0586 92.6544 69.0586 92.1509V87.3679C69.0586 86.8644 69.3717 86.6126 69.7473 86.8644L100.99 104.99C101.366 105.178 101.679 105.808 101.679 106.311V111.094C101.679 111.535 101.366 111.787 100.99 111.598Z" fill="#D4ECFF"/>
<path d="M76.2594 94.7941L71.6262 92.0879C71.2506 91.8991 70.9375 91.3327 70.9375 90.8292C70.9375 90.3257 71.2506 90.1369 71.6262 90.3257L76.2594 93.0319C76.6351 93.2207 76.9481 93.7872 76.9481 94.2906C76.9481 94.7941 76.6351 95.0458 76.2594 94.7941Z" fill="#D4ECFF"/>
<path d="M80.2663 96.2422C80.2663 96.7457 79.9533 96.9345 79.515 96.6828C79.0767 96.431 78.7637 95.8646 78.7637 95.3611C78.7637 94.8577 79.0767 94.6689 79.515 94.9206C79.8907 95.1723 80.2663 95.7387 80.2663 96.2422Z" fill="white"/>
<path d="M82.9597 97.8145C82.9597 98.318 82.6466 98.5068 82.2083 98.255C81.7701 98.0033 81.457 97.4369 81.457 96.9334C81.457 96.4299 81.7701 96.2411 82.2083 96.4929C82.584 96.7446 82.9597 97.311 82.9597 97.8145Z" fill="#173D7A"/>
<path d="M85.6511 99.3887C85.6511 99.8922 85.338 100.081 84.8998 99.8292C84.4615 99.5775 84.1484 99.0111 84.1484 98.5076C84.1484 98.0041 84.4615 97.8153 84.8998 98.0671C85.2754 98.2559 85.6511 98.8852 85.6511 99.3887Z" fill="#D4ECFF"/>
<path d="M88.3425 100.962C88.3425 101.465 88.0295 101.654 87.5912 101.402C87.1529 101.151 86.8398 100.584 86.8398 100.081C86.8398 99.5774 87.1529 99.3886 87.5912 99.6403C87.9668 99.8291 88.3425 100.458 88.3425 100.962Z" fill="#173D7A"/>
<path d="M99.6754 108.892L98.1101 108.011C97.8597 107.885 97.6719 107.507 97.6719 107.193V105.556C97.6719 105.242 97.8597 105.116 98.1101 105.242L99.6754 106.123C99.9258 106.249 100.114 106.626 100.114 106.941V108.64C100.114 108.892 99.9258 109.081 99.6754 108.892Z" fill="#173D7A"/>
<path d="M101.93 125.005L68.809 105.81C68.0576 105.369 67.4941 104.236 67.4941 103.229V96.8728C67.4941 95.8658 68.1202 95.4253 68.809 95.8658L101.93 115.061C102.681 115.502 103.245 116.634 103.245 117.641V123.998C103.307 125.005 102.681 125.445 101.93 125.005Z" fill="#5793CE"/>
<path opacity="0.4" d="M100.99 122.802L69.7473 104.677C69.3717 104.488 69.0586 103.859 69.0586 103.355V98.572C69.0586 98.0685 69.3717 97.8167 69.7473 98.0685L100.99 116.194C101.366 116.383 101.679 117.012 101.679 117.515V122.298C101.679 122.739 101.366 122.991 100.99 122.802Z" fill="#D4ECFF"/>
<path d="M76.2594 105.998L71.6262 103.292C71.2506 103.103 70.9375 102.537 70.9375 102.033C70.9375 101.53 71.2506 101.341 71.6262 101.53L76.2594 104.236C76.6351 104.425 76.9481 104.991 76.9481 105.495C76.9481 105.998 76.6351 106.25 76.2594 105.998Z" fill="#D4ECFF"/>
<path d="M80.2663 107.446C80.2663 107.95 79.9533 108.139 79.515 107.887C79.0767 107.635 78.7637 107.069 78.7637 106.565C78.7637 106.062 79.0767 105.873 79.515 106.125C79.8907 106.376 80.2663 106.943 80.2663 107.446Z" fill="white"/>
<path d="M82.9597 109.019C82.9597 109.522 82.6466 109.711 82.2083 109.459C81.7701 109.207 81.457 108.641 81.457 108.138C81.457 107.634 81.7701 107.445 82.2083 107.697C82.584 107.886 82.9597 108.515 82.9597 109.019Z" fill="#173D7A"/>
<path d="M85.6511 110.593C85.6511 111.096 85.338 111.285 84.8998 111.033C84.4615 110.782 84.1484 110.215 84.1484 109.712C84.1484 109.208 84.4615 109.019 84.8998 109.271C85.2754 109.46 85.6511 110.089 85.6511 110.593Z" fill="#D4ECFF"/>
<path d="M88.3425 112.103C88.3425 112.606 88.0295 112.795 87.5912 112.543C87.1529 112.291 86.8398 111.725 86.8398 111.221C86.8398 110.718 87.1529 110.529 87.5912 110.781C87.9668 111.033 88.3425 111.662 88.3425 112.103Z" fill="#173D7A"/>
<path d="M99.6754 120.096L98.1101 119.215C97.8597 119.089 97.6719 118.712 97.6719 118.397V116.698C97.6719 116.383 97.8597 116.257 98.1101 116.383L99.6754 117.264C99.9258 117.39 100.114 117.768 100.114 118.082V119.782C100.114 120.096 99.9258 120.285 99.6754 120.096Z" fill="#173D7A"/>
<path d="M101.93 136.207L68.809 117.012C68.0576 116.571 67.4941 115.438 67.4941 114.431V108.075C67.4941 107.068 68.1202 106.627 68.809 107.068L101.93 126.263C102.681 126.704 103.245 127.837 103.245 128.843V135.2C103.307 136.144 102.681 136.647 101.93 136.207Z" fill="#5793CE"/>
<path opacity="0.4" d="M100.99 134.004L69.7473 115.879C69.3717 115.69 69.0586 115.061 69.0586 114.557V109.774C69.0586 109.271 69.3717 109.019 69.7473 109.271L100.99 127.396C101.366 127.585 101.679 128.214 101.679 128.718V133.501C101.679 133.941 101.366 134.193 100.99 134.004Z" fill="#D4ECFF"/>
<path d="M76.2594 117.2L71.6262 114.494C71.2506 114.305 70.9375 113.739 70.9375 113.235C70.9375 112.732 71.2506 112.543 71.6262 112.732L76.2594 115.438C76.6351 115.627 76.9481 116.193 76.9481 116.697C76.9481 117.2 76.6351 117.452 76.2594 117.2Z" fill="#D4ECFF"/>
<path d="M80.2663 118.648C80.2663 119.152 79.9533 119.341 79.515 119.089C79.0767 118.837 78.7637 118.271 78.7637 117.767C78.7637 117.264 79.0767 117.075 79.515 117.327C79.8907 117.579 80.2663 118.145 80.2663 118.648Z" fill="#173D7A"/>
<path d="M82.9597 120.221C82.9597 120.724 82.6466 120.913 82.2083 120.661C81.7701 120.41 81.457 119.843 81.457 119.34C81.457 118.836 81.7701 118.647 82.2083 118.899C82.584 119.088 82.9597 119.717 82.9597 120.221Z" fill="#173D7A"/>
<path d="M85.6511 121.732C85.6511 122.236 85.338 122.425 84.8998 122.173C84.4615 121.921 84.1484 121.355 84.1484 120.851C84.1484 120.348 84.4615 120.159 84.8998 120.411C85.2754 120.663 85.6511 121.292 85.6511 121.732Z" fill="#D4ECFF"/>
<path d="M88.3425 123.305C88.3425 123.808 88.0295 123.997 87.5912 123.745C87.1529 123.494 86.8398 122.927 86.8398 122.424C86.8398 121.92 87.1529 121.731 87.5912 121.983C87.9668 122.235 88.3425 122.864 88.3425 123.305Z" fill="#173D7A"/>
<path d="M99.6754 131.299L98.1101 130.417C97.8597 130.292 97.6719 129.914 97.6719 129.599V127.9C97.6719 127.585 97.8597 127.459 98.1101 127.585L99.6754 128.466C99.9258 128.592 100.114 128.97 100.114 129.285V130.984C100.114 131.299 99.9258 131.424 99.6754 131.299Z" fill="#D4ECFF"/>
<path d="M101.93 147.408L68.809 128.213C68.0576 127.772 67.4941 126.639 67.4941 125.633V119.276C67.4941 118.269 68.1202 117.829 68.809 118.269L101.93 137.464C102.681 137.905 103.245 139.038 103.245 140.045V146.401C103.307 147.345 102.681 147.849 101.93 147.408Z" fill="#5793CE"/>
<path opacity="0.4" d="M100.99 145.142L69.7473 127.017C69.3717 126.828 69.0586 126.198 69.0586 125.695V120.912C69.0586 120.408 69.3717 120.157 69.7473 120.408L100.99 138.534C101.366 138.722 101.679 139.352 101.679 139.855V144.638C101.679 145.142 101.366 145.394 100.99 145.142Z" fill="#D4ECFF"/>
<path d="M76.2594 128.402L71.6262 125.695C71.2506 125.507 70.9375 124.94 70.9375 124.437C70.9375 123.933 71.2506 123.744 71.6262 123.933L76.2594 126.639C76.6351 126.828 76.9481 127.395 76.9481 127.898C76.9481 128.402 76.6351 128.653 76.2594 128.402Z" fill="#D4ECFF"/>
<path d="M80.2663 129.85C80.2663 130.353 79.9533 130.542 79.515 130.29C79.0767 130.038 78.7637 129.472 78.7637 128.969C78.7637 128.465 79.0767 128.276 79.515 128.528C79.8907 128.717 80.2663 129.346 80.2663 129.85Z" fill="#173D7A"/>
<path d="M82.9597 131.422C82.9597 131.925 82.6466 132.114 82.2083 131.862C81.7701 131.611 81.457 131.044 81.457 130.541C81.457 130.037 81.7701 129.849 82.2083 130.1C82.584 130.289 82.9597 130.918 82.9597 131.422Z" fill="white"/>
<path d="M85.6511 132.934C85.6511 133.437 85.338 133.626 84.8998 133.374C84.4615 133.122 84.1484 132.556 84.1484 132.053C84.1484 131.549 84.4615 131.36 84.8998 131.612C85.2754 131.864 85.6511 132.493 85.6511 132.934Z" fill="#D4ECFF"/>
<path d="M88.3425 134.506C88.3425 135.009 88.0295 135.198 87.5912 134.946C87.1529 134.695 86.8398 134.128 86.8398 133.625C86.8398 133.121 87.1529 132.933 87.5912 133.184C87.9668 133.436 88.3425 134.002 88.3425 134.506Z" fill="white"/>
<path d="M99.6754 142.5L98.1101 141.619C97.8597 141.493 97.6719 141.115 97.6719 140.8V139.101C97.6719 138.787 97.8597 138.661 98.1101 138.787L99.6754 139.668C99.9258 139.793 100.114 140.171 100.114 140.486V142.185C100.114 142.5 99.9258 142.626 99.6754 142.5Z" fill="#D4ECFF"/>
<path d="M101.93 158.61L68.809 139.415C68.0576 138.974 67.4941 137.842 67.4941 136.835V130.478C67.4941 129.471 68.1202 129.031 68.809 129.471L101.93 148.666C102.681 149.107 103.245 150.24 103.245 151.247V157.603C103.307 158.547 102.681 159.051 101.93 158.61Z" fill="#5793CE"/>
<path opacity="0.4" d="M100.99 156.344L69.7473 138.219C69.3717 138.03 69.0586 137.401 69.0586 136.897V132.114C69.0586 131.61 69.3717 131.359 69.7473 131.61L100.99 149.736C101.366 149.925 101.679 150.554 101.679 151.057V155.84C101.679 156.344 101.366 156.596 100.99 156.344Z" fill="#D4ECFF"/>
<path d="M76.2594 139.604L71.6262 136.897C71.2506 136.709 70.9375 136.142 70.9375 135.639C70.9375 135.135 71.2506 134.946 71.6262 135.135L76.2594 137.842C76.6351 138.03 76.9481 138.597 76.9481 139.1C76.9481 139.604 76.6351 139.792 76.2594 139.604Z" fill="#D4ECFF"/>
<path d="M80.2663 141.052C80.2663 141.555 79.9533 141.744 79.515 141.492C79.0767 141.241 78.7637 140.674 78.7637 140.171C78.7637 139.667 79.0767 139.478 79.515 139.73C79.8907 139.919 80.2663 140.548 80.2663 141.052Z" fill="#173D7A"/>
<path d="M82.9597 142.562C82.9597 143.065 82.6466 143.254 82.2083 143.002C81.7701 142.75 81.457 142.184 81.457 141.68C81.457 141.177 81.7701 140.988 82.2083 141.24C82.584 141.492 82.9597 142.121 82.9597 142.562Z" fill="#173D7A"/>
<path d="M85.6511 144.136C85.6511 144.639 85.338 144.828 84.8998 144.576C84.4615 144.325 84.1484 143.758 84.1484 143.255C84.1484 142.751 84.4615 142.562 84.8998 142.814C85.2754 143.066 85.6511 143.632 85.6511 144.136Z" fill="#D4ECFF"/>
<path d="M88.3425 145.708C88.3425 146.212 88.0295 146.4 87.5912 146.149C87.1529 145.897 86.8398 145.33 86.8398 144.827C86.8398 144.323 87.1529 144.135 87.5912 144.386C87.9668 144.638 88.3425 145.205 88.3425 145.708Z" fill="#173D7A"/>
<path d="M99.6754 153.702L98.1101 152.821C97.8597 152.695 97.6719 152.317 97.6719 152.003V150.303C97.6719 149.989 97.8597 149.863 98.1101 149.989L99.6754 150.87C99.9258 150.996 100.114 151.373 100.114 151.688V153.387C100.114 153.702 99.9258 153.828 99.6754 153.702Z" fill="#173D7A"/>
<path d="M101.93 169.813L68.809 150.618C68.0576 150.178 67.4941 149.045 67.4941 148.038V141.681C67.4941 140.674 68.1202 140.234 68.809 140.674L101.93 159.87C102.681 160.31 103.245 161.443 103.245 162.45V168.806C103.307 169.75 102.681 170.191 101.93 169.813Z" fill="#5793CE"/>
<path opacity="0.4" d="M100.99 167.547L69.7473 149.422C69.3717 149.233 69.0586 148.604 69.0586 148.1V143.317C69.0586 142.814 69.3717 142.562 69.7473 142.814L100.99 160.939C101.366 161.128 101.679 161.757 101.679 162.261V167.044C101.679 167.547 101.366 167.799 100.99 167.547Z" fill="#D4ECFF"/>
<path d="M76.2594 150.807L71.6262 148.101C71.2506 147.912 70.9375 147.345 70.9375 146.842C70.9375 146.338 71.2506 146.15 71.6262 146.338L76.2594 149.045C76.6351 149.233 76.9481 149.8 76.9481 150.303C76.9481 150.807 76.6351 150.996 76.2594 150.807Z" fill="#D4ECFF"/>
<path d="M80.2663 152.191C80.2663 152.695 79.9533 152.884 79.515 152.632C79.0767 152.38 78.7637 151.814 78.7637 151.31C78.7637 150.807 79.0767 150.618 79.515 150.87C79.8907 151.122 80.2663 151.751 80.2663 152.191Z" fill="white"/>
<path d="M82.9597 153.765C82.9597 154.268 82.6466 154.457 82.2083 154.205C81.7701 153.953 81.457 153.387 81.457 152.884C81.457 152.38 81.7701 152.191 82.2083 152.443C82.584 152.695 82.9597 153.324 82.9597 153.765Z" fill="#173D7A"/>
<path d="M85.6511 155.338C85.6511 155.841 85.338 156.03 84.8998 155.778C84.4615 155.527 84.1484 154.96 84.1484 154.457C84.1484 153.953 84.4615 153.765 84.8998 154.016C85.2754 154.268 85.6511 154.834 85.6511 155.338Z" fill="#D4ECFF"/>
<path d="M88.3425 156.911C88.3425 157.415 88.0295 157.603 87.5912 157.352C87.1529 157.1 86.8398 156.534 86.8398 156.03C86.8398 155.527 87.1529 155.338 87.5912 155.59C87.9668 155.841 88.3425 156.408 88.3425 156.911Z" fill="#173D7A"/>
<path d="M99.6754 164.904L98.1101 164.023C97.8597 163.897 97.6719 163.519 97.6719 163.205V161.505C97.6719 161.191 97.8597 161.065 98.1101 161.191L99.6754 162.072C99.9258 162.198 100.114 162.575 100.114 162.89V164.589C100.114 164.904 99.9258 165.03 99.6754 164.904Z" fill="#D4ECFF"/>
<path d="M92.288 67.7956C92.0375 67.7956 91.7871 67.5439 91.7871 67.2921V46.5865C91.7871 46.3347 92.0375 46.083 92.288 46.083C92.5384 46.083 92.7889 46.3347 92.7889 46.5865V67.2921C92.7889 67.6068 92.601 67.7956 92.288 67.7956Z" fill="#5793CE"/>
<path d="M94.1039 45.3281H90.5352V53.0691H94.1039V45.3281Z" fill="#5793CE"/>
<path d="M93.5405 53.8245C92.8518 54.2021 91.7248 54.2021 91.0361 53.8245C90.3474 53.4469 90.3474 52.7546 91.0361 52.377C91.7248 51.9993 92.8518 51.9993 93.5405 52.377C94.2918 52.7546 94.2918 53.3839 93.5405 53.8245Z" fill="#5793CE"/>
<path d="M95.231 34.5029H89.4082V46.6494H95.231V34.5029Z" fill="#5793CE"/>
<path d="M90.5352 46.5866V49.2299C91.5995 49.7333 93.0396 49.7333 94.1039 49.2299V46.5866C93.0396 46.0831 91.5369 46.0831 90.5352 46.5866Z" fill="#396CAA"/>
<path d="M94.3544 47.845C93.2274 48.4743 91.4117 48.4743 90.2847 47.845C89.1577 47.2156 89.1577 46.1457 90.2847 45.4535C91.4117 44.8241 93.2274 44.8241 94.3544 45.4535C95.4814 46.0828 95.4814 47.2156 94.3544 47.845Z" fill="#5793CE"/>
<path d="M97.1708 70.7526C96.9204 70.7526 96.6699 70.5009 96.6699 70.2492V49.5435C96.6699 49.2918 96.9204 49.04 97.1708 49.04C97.4212 49.04 97.6717 49.2918 97.6717 49.5435V70.2492C97.6717 70.5009 97.4839 70.7526 97.1708 70.7526Z" fill="#5793CE"/>
<path d="M98.9868 48.2227H95.418V55.9637H98.9868V48.2227Z" fill="#5793CE"/>
<path d="M98.4233 56.719C97.7346 57.0966 96.6076 57.0966 95.9189 56.719C95.2302 56.3414 95.2302 55.6491 95.9189 55.2715C96.6076 54.8939 97.7346 54.8939 98.4233 55.2715C99.1746 55.6491 99.1746 56.3414 98.4233 56.719Z" fill="#5793CE"/>
<path d="M100.114 37.3965H94.291V49.543H100.114V37.3965Z" fill="#5793CE"/>
<path d="M95.418 49.4808V52.1241C96.4823 52.6276 97.9224 52.6276 98.9868 52.1241V49.4808C97.9224 49.0403 96.4197 49.0403 95.418 49.4808Z" fill="#396CAA"/>
<path d="M99.2372 50.801C98.1102 51.4304 96.2945 51.4304 95.1675 50.801C94.0405 50.1717 94.0405 49.1018 95.1675 48.4095C96.2945 47.7802 98.1102 47.7802 99.2372 48.4095C100.364 49.0389 100.364 50.1088 99.2372 50.801Z" fill="#5793CE"/>
<path d="M102.056 73.6472C101.805 73.6472 101.555 73.3954 101.555 73.1437V52.438C101.555 52.1863 101.805 51.9346 102.056 51.9346C102.306 51.9346 102.556 52.1863 102.556 52.438V73.1437C102.556 73.4584 102.369 73.6472 102.056 73.6472Z" fill="#5793CE"/>
<path d="M103.872 51.1797H100.303V58.9207H103.872V51.1797Z" fill="#5793CE"/>
<path d="M103.371 59.676C102.682 60.0536 101.555 60.0536 100.866 59.676C100.177 59.2984 100.177 58.6061 100.866 58.2285C101.555 57.8509 102.682 57.8509 103.371 58.2285C104.059 58.6061 104.059 59.2355 103.371 59.676Z" fill="#5793CE"/>
<path d="M104.999 40.3535H99.1758V52.5H104.999V40.3535Z" fill="#5793CE"/>
<path d="M100.303 52.4372V55.0805C101.367 55.5839 102.807 55.5839 103.872 55.0805V52.4372C102.807 51.9337 101.367 51.9337 100.303 52.4372Z" fill="#396CAA"/>
<path d="M104.122 53.6966C102.995 54.3259 101.179 54.3259 100.052 53.6966C98.9253 53.0672 98.9253 51.9973 100.052 51.305C101.179 50.6757 102.995 50.6757 104.122 51.305C105.249 51.9973 105.249 53.0672 104.122 53.6966Z" fill="#5793CE"/>
<path d="M106.938 76.6052C106.688 76.6052 106.438 76.3534 106.438 76.1017V55.3961C106.438 55.1443 106.688 54.8926 106.938 54.8926C107.189 54.8926 107.439 55.1443 107.439 55.3961V76.1017C107.439 76.3534 107.251 76.6052 106.938 76.6052Z" fill="#5793CE"/>
<path d="M108.754 54.0742H105.186V61.8152H108.754V54.0742Z" fill="#5793CE"/>
<path d="M108.253 62.5706C107.565 62.9482 106.438 62.9482 105.749 62.5706C105.06 62.1929 105.06 61.5007 105.749 61.1231C106.438 60.7454 107.565 60.7454 108.253 61.1231C108.942 61.5636 108.942 62.1929 108.253 62.5706Z" fill="#5793CE"/>
<path d="M109.881 43.3115H104.059V55.458H109.881V43.3115Z" fill="#5793CE"/>
<path d="M105.186 55.3952V58.0385C106.25 58.5419 107.69 58.5419 108.754 58.0385V55.3952C107.69 54.8917 106.25 54.8917 105.186 55.3952Z" fill="#396CAA"/>
<path d="M109.005 56.6546C107.878 57.2839 106.062 57.2839 104.935 56.6546C103.808 56.0252 103.808 54.9553 104.935 54.263C106.062 53.6337 107.878 53.6337 109.005 54.263C110.132 54.8924 110.132 55.9623 109.005 56.6546Z" fill="#5793CE"/>
<path d="M129.667 65.5297L137.431 60.9355L130.042 51.6211L128.102 54.8308L129.667 65.5297Z" fill="#5793CE"/>
<path d="M73.2539 14.5525L85.6508 7.37793L85.2125 14.5525L78.0749 16.8182L73.2539 14.5525Z" fill="#5793CE"/>
<path d="M131.857 42.1806C130.918 41.6142 130.041 41.2995 129.165 41.1737C127.912 34.5655 123.342 27.5797 117.895 24.37C116.267 23.426 114.702 22.9225 113.262 22.7966C112.51 14.8039 107 5.6783 100.239 1.77633C96.7323 -0.237595 93.5392 -0.489336 91.16 0.769365L91.0348 0.8323C90.9722 0.895236 90.9096 0.895235 90.847 0.95817L83.5215 5.30069L85.9633 7.25168C83.772 8.1957 82.3945 10.6502 82.3945 14.3004C82.3945 21.0345 87.0903 29.1531 92.8505 32.4886L131.794 60.4318C136.114 62.9492 139.621 60.9353 139.621 55.9005C139.683 50.8027 136.177 44.698 131.857 42.1806Z" fill="#5793CE"/>
<path d="M82.834 11.3425L99.6136 1.4617C96.3579 -0.237546 93.4152 -0.363416 91.2238 0.769414L91.0986 0.83235C91.036 0.895285 90.9733 0.895284 90.9107 0.958219L83.5853 5.30074L86.0271 7.25172C84.5245 7.88107 83.3975 9.26565 82.834 11.3425Z" fill="#5793CE"/>
<path d="M113.825 40.3556L126.097 33.1181C123.968 29.4679 121.088 26.2582 117.895 24.4331C117.457 24.1813 117.081 23.9925 116.643 23.8037L101.053 32.9293L113.825 40.3556Z" fill="#5793CE"/>
<path d="M87.0273 6.11869L92.4744 9.26544L102.492 3.34955C101.741 2.78313 100.989 2.27965 100.238 1.83911C99.0486 1.14682 97.859 0.643342 96.732 0.391602L87.0273 6.11869Z" fill="#D4ECFF"/>
<path d="M124.72 30.9775L114.953 36.7676L118.334 40.6066L127.225 35.3201C126.536 33.8096 125.66 32.3621 124.72 30.9775Z" fill="#D4ECFF"/>
<path d="M124.156 46.7115C123.217 46.1451 122.34 45.8304 121.464 45.7046C120.212 39.0964 115.641 32.1106 110.194 28.9009C108.566 27.9569 107.001 27.4534 105.561 27.3275C104.81 19.3348 99.2998 10.2092 92.5378 6.30722C85.275 2.09057 79.4522 5.48906 79.4522 13.9224C79.4522 14.237 79.4522 14.4888 79.4522 14.8034C74.193 12.349 69.998 15.1181 69.998 21.4116C69.998 28.1457 74.6938 36.2643 80.454 39.5999L124.094 64.8998C128.414 67.4172 131.92 65.4032 131.92 60.3684C132.045 55.3966 128.476 49.2289 124.156 46.7115Z" fill="#D4ECFF"/>
<path d="M79.5143 14.8028C79.5143 14.4881 79.5143 14.2364 79.5143 13.9217C79.5143 13.9217 79.5143 13.9217 79.5143 13.8588C76.5716 12.726 74.0672 13.2294 72.502 15.0546C74.1924 13.67 76.6969 13.4812 79.5143 14.8028Z" fill="white"/>
<path d="M124.782 46.0821C123.843 45.5156 122.966 45.201 122.09 45.0751C120.838 38.4669 116.267 31.4811 110.82 28.2714C109.192 27.3274 107.627 26.8239 106.187 26.6981C105.435 18.7053 99.9256 9.57972 93.1636 5.67775C88.6557 3.03448 84.7112 3.41209 82.332 6.05536C84.7112 3.97851 88.4052 3.91557 92.5375 6.3071C99.2369 10.2091 104.809 19.3347 105.561 27.3274C107.001 27.4533 108.566 27.9568 110.194 28.9008C115.641 32.0475 120.211 39.0963 121.464 45.7044C122.278 45.8303 123.217 46.145 124.156 46.7114C128.476 49.2288 131.982 55.3335 131.982 60.3683C131.982 62.1934 131.544 63.578 130.73 64.585C131.92 63.7039 132.608 62.0046 132.608 59.739C132.671 54.7671 129.165 48.5995 124.782 46.0821Z" fill="white"/>
<path d="M78.5756 16.8179L81.8314 18.3283L81.6435 14.6781C81.6435 14.4263 81.6435 14.1746 81.6435 13.9228C81.6435 10.7132 82.6453 8.32162 84.3984 7.31466C86.1515 6.3077 88.6559 6.62238 91.4734 8.25869C97.484 11.7201 102.743 20.2163 103.369 27.5798L103.557 29.4049L105.373 29.5307C106.5 29.5937 107.752 30.0342 109.067 30.7894C113.825 33.5586 118.145 39.978 119.272 46.0827L119.586 47.5931L121.088 47.8448C121.714 47.9707 122.34 48.1595 123.029 48.6001C126.723 50.7398 129.791 56.0893 129.791 60.3689C129.791 61.9423 129.353 63.1381 128.601 63.5786C127.85 64.0191 126.598 63.8303 125.22 63.0122L81.6435 37.7123C76.5721 34.7543 72.252 27.328 72.252 21.4121C72.252 19.0835 72.9407 17.3213 74.1303 16.5661C74.6312 16.2514 75.1946 16.1256 75.8834 16.1256C76.6973 16.1256 77.5739 16.3773 78.5756 16.8179Z" fill="#396CAA"/>
<path d="M119.712 156.722H119.023V119.213L123.406 116.695V98.1924H124.095V117.073L119.712 119.59V156.722Z" fill="white"/>
<path d="M13.8369 164.841C13.4613 164.841 13.0856 164.716 12.7099 164.527L0.563491 157.604C0.187828 157.415 0 157.037 0 156.597C0 156.156 0.187828 155.779 0.563491 155.59L30.9296 137.968C32.6827 136.961 34.8114 136.961 36.5645 137.968L71.2508 158.107L70.7499 158.988L36.0637 138.849C34.6236 138.031 32.8705 138.031 31.4305 138.849L1.06437 156.471C1.00176 156.534 1.00177 156.597 1.00177 156.597C1.00177 156.66 1.00176 156.723 1.06437 156.723L13.2108 163.646C13.6491 163.897 14.15 163.897 14.5256 163.583L19.6597 160.247L20.2232 161.065L15.0891 164.401C14.6509 164.716 14.2126 164.841 13.8369 164.841Z" fill="#B2D3EA"/>
<path d="M29.6769 167.485L13.3355 157.981C12.3338 157.415 12.459 156.408 13.586 155.716L29.3638 146.527C30.5534 145.835 32.3065 145.772 33.3083 146.338L49.6496 155.842C50.6514 156.408 50.5262 157.415 49.3992 158.107L33.6213 167.296C32.4317 167.988 30.6786 168.051 29.6769 167.485Z" fill="#B2D3EA"/>
<path d="M55.097 148.668V141.556H39.2565L33.8094 138.346C32.5572 137.591 30.3658 137.717 28.9258 138.535L23.7917 141.493H7.95126V148.793C7.88865 149.297 8.20171 149.737 8.76521 150.115L29.2388 162.01C30.491 162.765 32.6824 162.639 34.1225 161.821L53.9074 150.367C54.7213 149.863 55.097 149.234 55.097 148.668Z" fill="#396CAA"/>
<path d="M31.4929 137.843C30.5538 137.843 29.6146 138.095 28.8633 138.535L23.7292 141.493H7.88876V148.793C7.82615 149.297 8.13919 149.737 8.70269 150.115L29.1763 162.01C29.8024 162.387 30.6164 162.513 31.4303 162.513V137.843H31.4929Z" fill="#396CAA"/>
<path d="M9.64196 141.492H7.82626V148.793C7.76365 149.296 8.07669 149.737 8.64019 150.114L9.57935 150.681V141.492H9.64196Z" fill="#5793CE"/>
<path d="M29.4902 162.198C30.5546 162.639 32.1199 162.639 33.4347 162.136V153.828H29.4902V162.198Z" fill="#5793CE"/>
<path d="M29.177 154.772L8.70339 142.877C7.45118 142.122 7.5764 140.863 9.07905 140.045L28.864 128.591C30.304 127.773 32.4954 127.647 33.7476 128.402L54.2212 140.297C55.4734 141.052 55.3482 142.311 53.8456 143.129L34.0606 154.583C32.6206 155.401 30.4292 155.464 29.177 154.772Z" fill="#D4ECFF"/>
<path d="M29.553 152.632L12.3977 142.688C11.3333 142.059 11.4585 140.989 12.7107 140.297L29.3025 130.668C30.4921 129.976 32.3705 129.913 33.4348 130.479L50.5901 140.423C51.6545 141.052 51.5293 142.122 50.2771 142.814L33.6853 152.443C32.4331 153.136 30.6174 153.199 29.553 152.632Z" fill="#5793CE"/>
<path d="M47.5205 150.556C47.5205 151.06 47.1448 151.752 46.7065 152.004C46.2683 152.255 45.8926 152.067 45.8926 151.5C45.8926 150.997 46.2683 150.305 46.7065 150.053C47.1448 149.801 47.5205 149.99 47.5205 150.556Z" fill="#D4ECFF"/>
<path d="M50.2118 148.982C50.2118 149.486 49.8362 150.178 49.3979 150.43C48.9596 150.681 48.584 150.493 48.584 149.926C48.584 149.423 48.9596 148.73 49.3979 148.479C49.8362 148.227 50.2118 148.479 50.2118 148.982Z" fill="#D4ECFF"/>
<path d="M52.8427 147.409C52.8427 147.913 52.4671 148.605 52.0288 148.857C51.5905 149.109 51.2148 148.92 51.2148 148.353C51.2148 147.85 51.5905 147.158 52.0288 146.906C52.4671 146.717 52.8427 146.906 52.8427 147.409Z" fill="#D4ECFF"/>
<path d="M55.097 137.275V130.163H39.2565L33.8094 126.954C32.5572 126.198 30.3658 126.324 28.9258 127.142L23.7917 130.1H7.95126V137.401C7.88865 137.904 8.20171 138.345 8.76521 138.722L29.2388 150.617C30.491 151.372 32.6824 151.247 34.1225 150.428L53.9074 138.974C54.7213 138.534 55.097 137.904 55.097 137.275Z" fill="#396CAA"/>
<path d="M31.4929 126.514C30.5538 126.514 29.6146 126.765 28.8633 127.206L23.7292 130.164H7.88876V137.464C7.82615 137.968 8.13919 138.408 8.70269 138.786L29.1763 150.681C29.8024 151.058 30.6164 151.184 31.4303 151.184V126.514H31.4929Z" fill="#396CAA"/>
<path d="M9.64196 130.164H7.82626V137.465C7.76365 137.968 8.07669 138.409 8.64019 138.786L9.57935 139.353V130.164H9.64196Z" fill="#5793CE"/>
<path d="M29.4902 150.869C30.5546 151.31 32.1199 151.31 33.4347 150.806V142.499H29.4902V150.869Z" fill="#5793CE"/>
<path d="M29.177 143.38L8.70339 131.485C7.45118 130.73 7.5764 129.471 9.07905 128.653L28.864 117.199C30.304 116.381 32.4954 116.255 33.7476 117.01L54.2212 128.905C55.4734 129.66 55.3482 130.919 53.8456 131.737L34.0606 143.191C32.6206 144.072 30.4292 144.135 29.177 143.38Z" fill="#D4ECFF"/>
<path d="M29.553 141.24L12.3977 131.296C11.3333 130.666 11.4585 129.597 12.7107 128.904L29.3025 119.275C30.4921 118.583 32.3705 118.52 33.4348 119.086L50.5901 129.03C51.6545 129.66 51.5293 130.729 50.2771 131.422L33.6853 141.051C32.4331 141.806 30.6174 141.869 29.553 141.24Z" fill="#5793CE"/>
<path d="M47.5205 139.164C47.5205 139.667 47.1448 140.36 46.7065 140.611C46.2683 140.863 45.8926 140.674 45.8926 140.108C45.8926 139.604 46.2683 138.912 46.7065 138.66C47.1448 138.409 47.5205 138.66 47.5205 139.164Z" fill="#D4ECFF"/>
<path d="M50.2118 137.654C50.2118 138.157 49.8362 138.85 49.3979 139.101C48.9596 139.353 48.584 139.164 48.584 138.598C48.584 138.094 48.9596 137.402 49.3979 137.15C49.8362 136.899 50.2118 137.087 50.2118 137.654Z" fill="#D4ECFF"/>
<path d="M52.8427 136.08C52.8427 136.583 52.4671 137.276 52.0288 137.527C51.5905 137.779 51.2148 137.59 51.2148 137.024C51.2148 136.52 51.5905 135.828 52.0288 135.576C52.4671 135.325 52.8427 135.576 52.8427 136.08Z" fill="#D4ECFF"/>
<path d="M55.097 125.947V118.835H39.2565L33.8094 115.626C32.5572 114.87 30.3658 114.996 28.9258 115.814L23.7917 118.772H7.95126V126.073C7.88865 126.576 8.20171 127.017 8.76521 127.394L29.2388 139.289C30.491 140.044 32.6824 139.918 34.1225 139.1L53.9074 127.646C54.7213 127.143 55.097 126.513 55.097 125.947Z" fill="#396CAA"/>
<path d="M31.4929 115.186C30.5538 115.186 29.6146 115.437 28.8633 115.878L23.7292 118.836H7.88876V126.136C7.82615 126.64 8.13919 127.08 8.70269 127.458L29.1763 139.353C29.8024 139.73 30.6164 139.856 31.4303 139.856V115.186H31.4929Z" fill="#396CAA"/>
<path d="M9.64196 118.836H7.82626V126.136C7.76365 126.64 8.07669 127.08 8.64019 127.458L9.57935 128.024V118.836H9.64196Z" fill="#5793CE"/>
<path d="M29.4902 139.479C30.5546 139.919 32.1199 139.919 33.4347 139.416V131.108H29.4902V139.479Z" fill="#5793CE"/>
<path d="M29.177 132.052L8.70339 120.157C7.45118 119.402 7.5764 118.143 9.07905 117.325L28.864 105.871C30.304 105.053 32.4954 104.927 33.7476 105.682L54.2212 117.577C55.4734 118.332 55.3482 119.591 53.8456 120.409L34.0606 131.863C32.6206 132.681 30.4292 132.807 29.177 132.052Z" fill="#D4ECFF"/>
<path d="M53.908 118.962L34.1231 130.416C32.683 131.234 30.4916 131.36 29.2394 130.605L8.70319 118.773C8.45275 118.584 8.20231 118.395 8.07709 118.206C7.63881 118.899 7.82664 119.654 8.70319 120.157L29.1768 132.052C30.429 132.807 32.6204 132.682 34.0605 131.863L53.8454 120.409C54.9724 119.78 55.2854 118.836 54.8472 118.144C54.6593 118.395 54.3463 118.71 53.908 118.962Z" fill="white"/>
<path d="M47.5205 127.837C47.5205 128.34 47.1448 129.032 46.7065 129.284C46.2683 129.536 45.8926 129.347 45.8926 128.781C45.8926 128.277 46.2683 127.585 46.7065 127.333C47.1448 127.081 47.5205 127.27 47.5205 127.837Z" fill="#D4ECFF"/>
<path d="M50.2118 126.262C50.2118 126.766 49.8362 127.458 49.3979 127.71C48.9596 127.962 48.584 127.773 48.584 127.206C48.584 126.703 48.9596 126.011 49.3979 125.759C49.8362 125.507 50.2118 125.759 50.2118 126.262Z" fill="#D4ECFF"/>
<path d="M52.8427 124.753C52.8427 125.256 52.4671 125.948 52.0288 126.2C51.5905 126.452 51.2148 126.263 51.2148 125.697C51.2148 125.193 51.5905 124.501 52.0288 124.249C52.4671 123.997 52.8427 124.186 52.8427 124.753Z" fill="#D4ECFF"/>
<path d="M30.4285 124.688L20.8491 119.15C20.2856 118.835 20.3482 118.206 21.0369 117.828L30.3033 112.479C30.992 112.101 31.9938 112.038 32.6199 112.353L42.1993 117.891C42.7628 118.206 42.7002 118.835 42.0115 119.213L32.7451 124.562C31.9938 125.003 30.992 125.003 30.4285 124.688Z" fill="#5793CE"/>
<path d="M31.3051 120.032L29.9903 119.276C29.9277 119.213 29.9277 119.151 29.9903 119.088L31.2425 118.332C31.3677 118.269 31.493 118.269 31.5556 118.332L32.8704 119.088C32.933 119.151 32.933 119.213 32.8704 119.276L31.6182 120.032C31.5556 120.032 31.4304 120.095 31.3051 120.032Z" fill="#D4ECFF"/>
<path d="M20.8488 119.088C20.9114 119.088 20.974 119.025 21.0366 119.025L30.303 113.675C30.9917 113.298 31.9934 113.235 32.6195 113.549L42.1989 119.088C42.7624 118.71 42.7624 118.144 42.1989 117.829L32.6195 112.291C32.0561 111.976 30.9917 111.976 30.303 112.416L21.0366 117.766C20.2853 118.207 20.2227 118.773 20.8488 119.088Z" fill="#396CAA"/>
<path d="M27.8614 134.128C27.8614 134.506 27.6109 134.632 27.2979 134.443C26.9848 134.254 26.7344 133.814 26.7344 133.499C26.7344 133.121 26.9848 132.996 27.2979 133.184C27.6109 133.31 27.8614 133.751 27.8614 134.128Z" fill="#D4ECFF"/>
<path d="M26.1719 133.122C26.1719 133.499 25.9215 133.625 25.6084 133.436C25.2954 133.247 25.0449 132.807 25.0449 132.492C25.0449 132.115 25.2954 131.989 25.6084 132.178C25.9215 132.366 26.1719 132.744 26.1719 133.122Z" fill="#D4ECFF"/>
<path d="M27.8614 136.206C27.8614 136.583 27.6109 136.709 27.2979 136.521C26.9848 136.332 26.7344 135.891 26.7344 135.577C26.7344 135.262 26.9848 135.073 27.2979 135.262C27.6109 135.451 27.8614 135.891 27.8614 136.206Z" fill="#D4ECFF"/>
<path d="M26.1719 135.199C26.1719 135.576 25.9215 135.702 25.6084 135.513C25.2954 135.325 25.0449 134.884 25.0449 134.569C25.0449 134.192 25.2954 134.066 25.6084 134.255C25.9215 134.444 26.1719 134.884 26.1719 135.199Z" fill="#D4ECFF"/>
<path d="M27.8614 145.394C27.8614 145.772 27.6109 145.898 27.2979 145.709C26.9848 145.52 26.7344 145.079 26.7344 144.765C26.7344 144.387 26.9848 144.261 27.2979 144.45C27.6109 144.639 27.8614 145.079 27.8614 145.394Z" fill="#D4ECFF"/>
<path d="M26.1719 144.45C26.1719 144.827 25.9215 144.953 25.6084 144.764C25.2954 144.576 25.0449 144.135 25.0449 143.82C25.0449 143.443 25.2954 143.317 25.6084 143.506C25.9215 143.632 26.1719 144.072 26.1719 144.45Z" fill="#D4ECFF"/>
<path d="M27.8614 147.534C27.8614 147.912 27.6109 148.037 27.2979 147.849C26.9848 147.66 26.7344 147.219 26.7344 146.905C26.7344 146.59 26.9848 146.401 27.2979 146.59C27.6109 146.716 27.8614 147.156 27.8614 147.534Z" fill="#D4ECFF"/>
<path d="M26.1719 146.527C26.1719 146.904 25.9215 147.03 25.6084 146.842C25.2954 146.653 25.0449 146.212 25.0449 145.898C25.0449 145.52 25.2954 145.394 25.6084 145.583C25.9215 145.709 26.1719 146.149 26.1719 146.527Z" fill="#D4ECFF"/>
<path d="M27.8614 156.722C27.8614 157.1 27.6109 157.226 27.2979 157.037C26.9848 156.848 26.7344 156.407 26.7344 156.093C26.7344 155.715 26.9848 155.589 27.2979 155.778C27.6109 155.904 27.8614 156.345 27.8614 156.722Z" fill="#D4ECFF"/>
<path d="M26.1719 155.715C26.1719 156.093 25.9215 156.219 25.6084 156.03C25.2954 155.841 25.0449 155.401 25.0449 155.086C25.0449 154.708 25.2954 154.583 25.6084 154.771C25.9215 154.96 26.1719 155.338 26.1719 155.715Z" fill="#D4ECFF"/>
<path d="M27.8614 158.799C27.8614 159.177 27.6109 159.303 27.2979 159.114C26.9848 158.925 26.7344 158.485 26.7344 158.17C26.7344 157.792 26.9848 157.666 27.2979 157.855C27.6109 158.044 27.8614 158.485 27.8614 158.799Z" fill="#D4ECFF"/>
<path d="M26.1719 157.792C26.1719 158.17 25.9215 158.296 25.6084 158.107C25.2954 157.918 25.0449 157.478 25.0449 157.163C25.0449 156.786 25.2954 156.66 25.6084 156.848C25.9215 157.037 26.1719 157.478 26.1719 157.792Z" fill="#D4ECFF"/>
<path d="M31.7429 175.917C31.1794 175.917 30.5533 175.791 30.0524 175.477L19.7217 169.435C19.346 169.246 19.1582 168.869 19.1582 168.428C19.1582 167.988 19.346 167.673 19.7217 167.421L26.4836 163.456L26.9845 164.337L20.2226 168.302C20.16 168.302 20.16 168.365 20.16 168.428C20.16 168.491 20.16 168.491 20.2226 168.554L30.5533 174.596C31.3046 175.036 32.1812 175.036 32.9325 174.596L53.1557 163.016C54.2201 162.449 55.4723 162.449 56.5367 163.016L73.5041 172.834C74.2554 173.274 75.132 173.274 75.8833 172.834L84.0227 168.113L84.5236 168.994L76.3842 173.715C75.3198 174.344 74.0676 174.344 73.0032 173.715L56.0984 163.897C55.3471 163.456 54.4705 163.456 53.7192 163.897L33.4334 175.477C32.8699 175.791 32.3064 175.917 31.7429 175.917Z" fill="#B2D3EA"/>
<path d="M121.401 214.245L105.06 204.742C104.058 204.176 104.184 203.169 105.311 202.476L121.088 193.288C122.278 192.596 124.031 192.533 125.033 193.099L141.374 202.602C142.376 203.169 142.251 204.176 141.124 204.868L125.346 214.056C124.156 214.749 122.403 214.812 121.401 214.245Z" fill="#B2D3EA"/>
<path d="M146.822 195.427V188.316H130.981L125.534 185.106C124.282 184.351 122.09 184.477 120.65 185.295L115.516 188.253H99.6759V195.553C99.6133 196.057 99.9263 196.497 100.49 196.875L120.963 208.77C122.216 209.525 124.407 209.399 125.847 208.581L145.632 197.127C146.446 196.623 146.884 195.994 146.822 195.427Z" fill="#396CAA"/>
<path d="M123.218 184.602C122.278 184.602 121.339 184.853 120.588 185.294L115.454 188.252H99.6134V195.552C99.5508 196.056 99.8638 196.496 100.427 196.874L120.901 208.769C121.527 209.146 122.341 209.272 123.155 209.272V184.602H123.218Z" fill="#396CAA"/>
<path d="M101.429 188.252H99.6134V195.552C99.5508 196.056 99.8638 196.496 100.427 196.874L101.366 197.44V188.252H101.429Z" fill="#5793CE"/>
<path d="M121.277 208.958C122.342 209.399 123.907 209.399 125.222 208.895V200.588H121.277V208.958Z" fill="#5793CE"/>
<path d="M120.964 201.531L100.49 189.637C99.2383 188.881 99.3635 187.623 100.866 186.805L120.651 175.35C122.091 174.532 124.282 174.406 125.535 175.162L146.008 187.056C147.261 187.812 147.135 189.07 145.633 189.888L125.848 201.343C124.408 202.161 122.216 202.224 120.964 201.531Z" fill="#D4ECFF"/>
<path d="M121.34 199.391L104.185 189.385C103.12 188.755 103.246 187.685 104.498 186.993L121.09 177.364C122.279 176.672 124.158 176.609 125.222 177.175L142.377 187.119C143.442 187.748 143.316 188.818 142.064 189.511L125.472 199.14C124.22 199.895 122.404 199.958 121.34 199.391Z" fill="#5793CE"/>
<path d="M139.308 197.315C139.308 197.819 138.932 198.511 138.494 198.763C138.055 199.014 137.68 198.825 137.68 198.259C137.68 197.756 138.055 197.063 138.494 196.812C138.932 196.56 139.308 196.749 139.308 197.315Z" fill="#D4ECFF"/>
<path d="M141.936 195.741C141.936 196.244 141.561 196.937 141.123 197.188C140.684 197.44 140.309 197.251 140.309 196.685C140.309 196.181 140.684 195.489 141.123 195.237C141.561 194.986 141.936 195.237 141.936 195.741Z" fill="#D4ECFF"/>
<path d="M144.63 194.168C144.63 194.672 144.254 195.364 143.816 195.616C143.378 195.867 143.002 195.679 143.002 195.112C143.002 194.609 143.378 193.916 143.816 193.665C144.254 193.476 144.63 193.665 144.63 194.168Z" fill="#D4ECFF"/>
<path d="M146.822 184.037V176.925H130.981L125.534 173.715C124.282 172.96 122.09 173.086 120.65 173.904L115.516 176.862H99.6759V184.226C99.6133 184.729 99.9263 185.17 100.49 185.547L120.963 197.442C122.216 198.197 124.407 198.071 125.847 197.253L145.632 185.799C146.446 185.295 146.884 184.666 146.822 184.037Z" fill="#396CAA"/>
<path d="M123.218 173.274C122.278 173.274 121.339 173.526 120.588 173.967L115.454 176.925H99.6134V184.225C99.5508 184.729 99.8638 185.169 100.427 185.547L120.901 197.441C121.527 197.819 122.341 197.945 123.155 197.945V173.274H123.218Z" fill="#396CAA"/>
<path d="M101.429 176.925H99.6134V184.225C99.5508 184.729 99.8638 185.169 100.427 185.547L101.366 186.113V176.925H101.429Z" fill="#5793CE"/>
<path d="M121.277 197.63C122.342 198.071 123.907 198.071 125.222 197.567V189.26H121.277V197.63Z" fill="#5793CE"/>
<path d="M120.964 190.141L100.49 178.246C99.2383 177.491 99.3635 176.232 100.866 175.414L120.651 163.96C122.091 163.142 124.282 163.016 125.535 163.771L146.008 175.666C147.261 176.421 147.135 177.68 145.633 178.498L125.848 189.952C124.408 190.833 122.216 190.896 120.964 190.141Z" fill="#D4ECFF"/>
<path d="M121.34 188L104.185 178.057C103.12 177.427 103.246 176.357 104.498 175.665L121.09 166.036C122.279 165.344 124.158 165.281 125.222 165.847L142.377 175.791C143.442 176.42 143.316 177.49 142.064 178.182L125.472 187.812C124.22 188.567 122.404 188.63 121.34 188Z" fill="#5793CE"/>
<path d="M139.308 185.925C139.308 186.428 138.932 187.12 138.494 187.372C138.055 187.624 137.68 187.435 137.68 186.869C137.68 186.365 138.055 185.673 138.494 185.421C138.932 185.169 139.308 185.421 139.308 185.925Z" fill="#D4ECFF"/>
<path d="M141.936 184.414C141.936 184.917 141.561 185.609 141.123 185.861C140.684 186.113 140.309 185.924 140.309 185.358C140.309 184.854 140.684 184.162 141.123 183.91C141.561 183.658 141.936 183.847 141.936 184.414Z" fill="#D4ECFF"/>
<path d="M144.63 182.841C144.63 183.344 144.254 184.036 143.816 184.288C143.378 184.54 143.002 184.351 143.002 183.785C143.002 183.281 143.378 182.589 143.816 182.337C144.254 182.085 144.63 182.337 144.63 182.841Z" fill="#D4ECFF"/>
<path d="M146.822 172.709V165.597H130.981L125.534 162.387C124.282 161.632 122.09 161.758 120.65 162.576L115.516 165.534H99.6759V172.897C99.6133 173.401 99.9263 173.841 100.49 174.219L120.963 186.114C122.216 186.869 124.407 186.743 125.847 185.925L145.632 174.471C146.446 173.904 146.884 173.275 146.822 172.709Z" fill="#396CAA"/>
<path d="M123.218 161.946C122.278 161.946 121.339 162.198 120.588 162.639L115.454 165.597H99.6134V172.897C99.5508 173.4 99.8638 173.841 100.427 174.219L120.901 186.113C121.527 186.491 122.341 186.617 123.155 186.617V161.946H123.218Z" fill="#396CAA"/>
<path d="M101.429 165.597H99.6134V172.897C99.5508 173.401 99.8638 173.841 100.427 174.219L101.366 174.785V165.597H101.429Z" fill="#5793CE"/>
<path d="M121.277 186.239C122.342 186.68 123.907 186.68 125.222 186.176V177.932H121.277V186.239Z" fill="#5793CE"/>
<path d="M120.964 178.813L100.49 166.918C99.2383 166.163 99.3635 164.904 100.866 164.086L120.651 152.632C122.091 151.814 124.282 151.688 125.535 152.443L146.008 164.338C147.261 165.093 147.135 166.352 145.633 167.17L125.848 178.624C124.408 179.442 122.216 179.568 120.964 178.813Z" fill="#D4ECFF"/>
<path d="M145.632 165.722L125.848 177.176C124.408 177.994 122.216 178.12 120.964 177.365L100.49 165.47C100.24 165.281 99.9894 165.093 99.8642 164.904C99.4259 165.596 99.6138 166.351 100.49 166.855L120.964 178.749C122.216 179.505 124.408 179.379 125.848 178.561L145.632 167.106C146.759 166.477 147.073 165.533 146.634 164.841C146.446 165.155 146.071 165.47 145.632 165.722Z" fill="white"/>
<path d="M139.308 174.596C139.308 175.1 138.932 175.792 138.494 176.044C138.055 176.296 137.68 176.107 137.68 175.54C137.68 174.974 138.055 174.345 138.494 174.093C138.932 173.841 139.308 174.03 139.308 174.596Z" fill="#D4ECFF"/>
<path d="M141.936 173.022C141.936 173.526 141.561 174.218 141.123 174.47C140.684 174.721 140.309 174.533 140.309 173.966C140.309 173.463 140.684 172.77 141.123 172.519C141.561 172.267 141.936 172.519 141.936 173.022Z" fill="#D4ECFF"/>
<path d="M144.63 171.512C144.63 172.016 144.254 172.708 143.816 172.96C143.378 173.212 143.002 173.023 143.002 172.456C143.002 171.953 143.378 171.261 143.816 171.009C144.254 170.757 144.63 170.946 144.63 171.512Z" fill="#D4ECFF"/>
<path d="M122.153 171.45L112.574 165.912C112.01 165.597 112.073 164.968 112.762 164.59L122.028 159.24C122.717 158.863 123.718 158.8 124.345 159.115L133.924 164.653C134.487 164.968 134.425 165.597 133.736 165.974L124.47 171.324C123.781 171.765 122.779 171.765 122.153 171.45Z" fill="#5793CE"/>
<path d="M123.092 166.792L121.777 166.037C121.715 165.974 121.715 165.911 121.777 165.848L123.03 165.093C123.155 165.03 123.28 165.03 123.343 165.093L124.658 165.848C124.72 165.911 124.72 165.974 124.658 166.037L123.405 166.792C123.28 166.792 123.155 166.855 123.092 166.792Z" fill="#D4ECFF"/>
<path d="M112.574 165.848C112.636 165.848 112.699 165.785 112.762 165.785L122.028 160.436C122.717 160.058 123.718 159.995 124.345 160.31L133.924 165.848C134.487 165.471 134.487 164.904 133.924 164.59L124.345 159.051C123.781 158.737 122.717 158.737 122.028 159.177L112.762 164.527C112.073 164.967 112.01 165.534 112.574 165.848Z" fill="#396CAA"/>
<path d="M91.7247 51.6834C91.7247 52.061 91.4742 52.1869 91.1612 51.9981C90.8481 51.8093 90.5977 51.3687 90.5977 51.0541C90.5977 50.7394 90.8481 50.5506 91.1612 50.7394C91.4742 50.9282 91.7247 51.3687 91.7247 51.6834Z" fill="#D4ECFF"/>
<path d="M96.67 54.7049C96.67 55.0825 96.4195 55.2084 96.1065 55.0196C95.7934 54.8308 95.543 54.3902 95.543 54.0756C95.543 53.7609 95.7934 53.5721 96.1065 53.7609C96.4195 53.8867 96.67 54.3273 96.67 54.7049Z" fill="#D4ECFF"/>
<path d="M101.555 57.6629C101.555 58.0405 101.304 58.1664 100.991 57.9776C100.678 57.7888 100.428 57.3482 100.428 57.0336C100.428 56.7189 100.678 56.5301 100.991 56.7189C101.304 56.9077 101.555 57.3482 101.555 57.6629Z" fill="#D4ECFF"/>
<path d="M106.438 60.6834C106.438 61.061 106.187 61.1869 105.874 60.9981C105.561 60.8093 105.311 60.3687 105.311 60.0541C105.311 59.7394 105.561 59.5506 105.874 59.7394C106.187 59.8653 106.438 60.3058 106.438 60.6834Z" fill="#D4ECFF"/>
</svg>
