<svg width="282" height="282" viewBox="0 0 282 282" fill="none" xmlns="http://www.w3.org/2000/svg">
<path d="M191.252 195.37L191.083 195.313L185.048 198.754L185.217 198.867L191.252 195.37Z" fill="#015C6B"/>
<path d="M240.771 166.775L240.602 166.719L234.567 170.159L234.737 170.272L240.771 166.775Z" fill="#015C6B"/>
<path d="M185.555 192.099L185.385 191.986L179.351 195.483L179.52 195.596L185.555 192.099Z" fill="#015C6B"/>
<path d="M140.999 232.368C141.789 232.368 142.635 232.142 143.312 231.747L261.188 163.56C262.654 162.714 263.5 161.191 263.5 159.499C263.5 157.807 262.654 156.284 261.188 155.438L159.216 96.1616C157.75 95.3156 155.945 95.3156 154.535 96.1616L135.19 107.498C133.893 108.231 132.314 108.231 131.016 107.498L111.671 96.1052C110.205 95.2592 108.4 95.2592 106.99 96.1052L12.6892 150.7C11.2228 151.546 10.3768 153.069 10.3768 154.761C10.3768 156.453 11.2228 157.976 12.6892 158.822L138.687 231.747C139.364 232.198 140.21 232.368 140.999 232.368ZM158.934 96.7256L260.906 156.002C262.203 156.735 262.936 158.089 262.936 159.555C262.936 161.022 262.146 162.375 260.906 163.108L143.086 231.296C141.845 232.029 140.266 232.029 138.969 231.296L12.9712 158.371C11.674 157.638 10.9408 156.284 10.9408 154.818C10.9408 153.351 11.7304 151.998 12.9712 151.264L107.272 96.6692C108.569 95.936 110.148 95.936 111.389 96.6692L130.734 108.062C132.201 108.908 134.006 108.908 135.472 108.062L154.817 96.7256C156.058 95.9924 157.637 95.9924 158.934 96.7256Z" fill="#259789"/>
<path d="M151.716 225.206C152.505 225.206 153.295 224.98 154.028 224.585L269.535 157.751C270.945 156.905 271.848 155.439 271.848 153.803C271.848 152.168 271.002 150.645 269.592 149.855L169.594 91.7632C168.184 90.9172 166.38 90.9172 164.97 91.7632L146.019 102.874C144.778 103.607 143.199 103.607 141.958 102.874L123.008 91.7068C121.598 90.8608 119.793 90.8608 118.383 91.7068L25.9437 145.23C24.5337 146.076 23.6313 147.543 23.6313 149.178C23.6313 150.814 24.4773 152.337 25.9437 153.126L149.46 224.585C150.136 225.036 150.926 225.206 151.716 225.206ZM169.256 92.2144L269.253 150.306C270.494 151.04 271.227 152.337 271.227 153.803C271.227 155.27 270.494 156.567 269.197 157.3L153.69 224.134C152.449 224.867 150.926 224.867 149.685 224.134L26.1693 152.675C24.9285 151.942 24.1389 150.645 24.1389 149.178C24.1389 147.712 24.8721 146.415 26.1693 145.682L118.609 92.158C119.85 91.4248 121.429 91.4248 122.67 92.158L141.62 103.325C143.03 104.171 144.835 104.171 146.245 103.325L165.252 92.2144C166.492 91.4812 168.015 91.4812 169.256 92.2144Z" fill="#259789"/>
<path d="M188.545 213.643C189.673 213.643 190.801 213.361 191.816 212.797L257.635 175.122C258.256 174.784 258.65 174.107 258.65 173.374C258.65 172.641 258.256 171.964 257.635 171.625L239.813 161.304C237.5 159.951 234.568 159.951 232.255 161.304L167.395 198.754C166.718 199.149 166.324 199.825 166.324 200.559C166.324 201.348 166.718 202.025 167.395 202.363L185.274 212.685C186.233 213.361 187.417 213.643 188.545 213.643ZM257.353 172.077C257.804 172.359 258.086 172.81 258.086 173.317C258.086 173.825 257.804 174.333 257.353 174.558L191.534 212.233C189.673 213.305 187.361 213.305 185.5 212.233L167.621 201.912C167.113 201.63 166.831 201.123 166.831 200.559C166.831 199.995 167.113 199.487 167.621 199.205L232.481 161.755C234.624 160.515 237.331 160.515 239.474 161.755L257.353 172.077Z" fill="#259789"/>
<path d="M193.17 208.342C194.241 208.342 195.313 208.06 196.272 207.552L248.385 177.717C249.006 177.378 249.4 176.702 249.4 175.968C249.4 175.235 249.006 174.615 248.385 174.22L234.285 166.098C232.537 165.083 230.337 165.083 228.532 166.098L176.08 196.385C175.516 196.724 175.178 197.288 175.178 197.908C175.178 198.528 175.516 199.149 176.08 199.431L190.068 207.552C191.026 208.06 192.098 208.342 193.17 208.342ZM231.465 165.929C232.368 165.929 233.27 166.155 234.06 166.606L248.16 174.728C248.611 175.01 248.893 175.461 248.893 175.968C248.893 176.476 248.611 176.927 248.16 177.209L196.046 207.045C194.298 208.06 192.154 208.06 190.406 207.045L176.475 198.98C176.08 198.754 175.855 198.359 175.855 197.908C175.855 197.457 176.08 197.062 176.475 196.836L228.927 166.55C229.66 166.155 230.563 165.929 231.465 165.929Z" fill="#259789"/>
<path d="M188.432 104.002C189.504 104.002 190.632 103.72 191.591 103.156L202.363 97.008C202.927 96.6696 203.266 96.1056 203.266 95.4852C203.266 94.8648 202.927 94.3008 202.42 93.9624L175.912 78.678C173.938 77.55 171.512 77.55 169.538 78.678L158.935 84.8256C158.371 85.164 158.089 85.728 158.089 86.3484C158.089 86.9688 158.428 87.5328 158.935 87.8712L185.274 103.212C186.176 103.72 187.304 104.002 188.432 104.002ZM172.697 78.396C173.712 78.396 174.727 78.678 175.573 79.1856L202.081 94.47C202.476 94.6956 202.702 95.0904 202.645 95.4852C202.645 95.9364 202.42 96.2748 202.025 96.5004L191.252 102.648C189.448 103.663 187.248 103.663 185.443 102.648L159.104 87.3072C158.71 87.0816 158.54 86.6868 158.54 86.292C158.54 85.8408 158.766 85.5024 159.104 85.2768L169.764 79.1292C170.666 78.6216 171.682 78.396 172.697 78.396Z" fill="#259789"/>
<path d="M187.925 106.878C188.94 106.878 190.012 106.596 190.914 106.089L201.066 100.28C201.574 99.9976 201.912 99.4336 201.912 98.8132C201.912 98.1928 201.63 97.6852 201.066 97.3468L176.137 82.9648C174.276 81.8932 171.964 81.8932 170.103 82.9648L160.12 88.7176C159.612 88.9996 159.274 89.5636 159.274 90.1276C159.274 90.748 159.556 91.2556 160.12 91.5376L184.936 106.032C185.838 106.596 186.91 106.878 187.925 106.878ZM173.148 82.7956C174.107 82.7956 175.009 83.0212 175.855 83.5288L200.784 97.8544C201.123 98.08 201.348 98.4184 201.348 98.8132C201.348 99.208 201.123 99.5464 200.784 99.772L190.632 105.581C188.94 106.54 186.853 106.54 185.161 105.581L160.402 91.1428C160.063 90.9172 159.838 90.5788 159.838 90.184C159.838 89.7892 160.063 89.4508 160.402 89.2252L170.441 83.4724C171.287 83.0212 172.189 82.7956 173.148 82.7956Z" fill="#259789"/>
<path d="M187.474 109.36C188.433 109.36 189.391 109.134 190.294 108.627L199.769 103.212C200.277 102.93 200.559 102.423 200.559 101.859C200.559 101.295 200.277 100.787 199.769 100.505L176.532 87.0817C174.784 86.0665 172.641 86.0665 170.892 87.0817L161.586 92.4397C161.079 92.7217 160.797 93.2293 160.797 93.7933C160.797 94.3573 161.079 94.8649 161.586 95.1469L184.71 108.627C185.5 109.078 186.459 109.36 187.474 109.36ZM173.656 86.8561C174.558 86.8561 175.404 87.0817 176.194 87.5329L199.431 100.956C199.769 101.125 199.938 101.464 199.938 101.802C199.938 102.141 199.769 102.479 199.431 102.648L189.955 108.063C188.376 108.965 186.459 108.965 184.879 108.063L161.755 94.5829C161.417 94.4137 161.248 94.0753 161.248 93.7369C161.248 93.3985 161.417 93.0601 161.755 92.8909L171.061 87.5329C171.907 87.0817 172.753 86.8561 173.656 86.8561Z" fill="#259789"/>
<path d="M45.9652 204.506C47.0932 204.506 48.2212 204.224 49.18 203.66L59.2192 197.851C59.8396 197.456 60.2344 196.836 60.2344 196.046C60.2344 195.313 59.8396 194.636 59.2192 194.242L40.8328 183.638C38.746 182.454 36.208 182.454 34.1776 183.751L24.5332 189.673C23.9128 190.068 23.518 190.745 23.5744 191.478C23.5744 192.211 23.9692 192.888 24.5896 193.226L42.6376 203.66C43.7092 204.224 44.8372 204.506 45.9652 204.506ZM58.9936 194.749C59.4448 195.031 59.7268 195.482 59.7268 196.046C59.7268 196.61 59.4448 197.062 58.9936 197.344L48.9544 203.153C47.1496 204.224 44.8372 204.224 43.0324 203.153L24.9844 192.719C24.5332 192.437 24.2512 191.986 24.2512 191.422C24.2512 190.914 24.5332 190.406 24.9844 190.124L34.6288 184.202C36.49 183.074 38.8024 183.018 40.6636 184.146L58.9936 194.749Z" fill="#259789"/>
<path d="M109.528 225.769C110.656 225.769 111.784 225.487 112.742 224.923L122.782 219.114C123.402 218.719 123.797 218.099 123.797 217.309C123.797 216.576 123.402 215.899 122.782 215.504L104.395 204.901C102.308 203.717 99.7705 203.717 97.7401 205.014L88.0957 210.936C87.4753 211.331 87.0805 212.007 87.1369 212.741C87.1369 213.474 87.5317 214.151 88.1521 214.489L106.2 224.923C107.328 225.487 108.456 225.769 109.528 225.769ZM122.556 216.012C123.007 216.294 123.289 216.745 123.289 217.309C123.289 217.873 123.007 218.324 122.556 218.606L112.517 224.415C110.712 225.487 108.4 225.487 106.595 224.415L88.5469 213.981C88.0957 213.699 87.8137 213.248 87.8137 212.684C87.8137 212.177 88.0957 211.669 88.5469 211.387L98.1349 205.465C99.9961 204.337 102.308 204.281 104.17 205.409L122.556 216.012Z" fill="#259789"/>
<path d="M63.9007 139.139C65.0287 139.139 66.1567 138.857 67.1155 138.293L77.1547 132.484C77.7751 132.089 78.1699 131.469 78.1699 130.679C78.1699 129.946 77.7751 129.269 77.1547 128.874L58.7683 118.271C56.6815 117.087 54.1435 117.087 52.1131 118.384L42.4687 124.306C41.8483 124.701 41.4535 125.378 41.5099 126.111C41.5099 126.844 41.9047 127.521 42.5251 127.859L60.5731 138.293C61.6447 138.857 62.7727 139.139 63.9007 139.139ZM76.9291 129.382C77.3803 129.664 77.6623 130.115 77.6623 130.679C77.6623 131.243 77.3803 131.694 76.9291 131.976L66.8899 137.786C65.0851 138.857 62.7727 138.857 60.9679 137.786L42.9199 127.352C42.4687 127.07 42.1867 126.618 42.1867 126.054C42.1867 125.547 42.4687 125.039 42.9199 124.757L52.5643 118.835C54.4255 117.707 56.7379 117.651 58.5991 118.779L76.9291 129.382Z" fill="#259789"/>
<path d="M71.4022 146.583C73.0942 146.583 74.7862 146.132 76.309 145.286L91.819 136.318C92.7778 135.754 93.3418 134.796 93.3418 133.668C93.3418 132.596 92.7778 131.581 91.819 131.017L63.5062 114.661C60.3478 112.856 56.5126 112.912 53.4106 114.774L38.5774 123.91C37.675 124.474 37.111 125.433 37.111 126.561C37.111 127.633 37.675 128.592 38.6338 129.156L66.4954 145.23C68.0182 146.132 69.7102 146.583 71.4022 146.583ZM91.5934 131.524C92.383 131.976 92.8342 132.765 92.8342 133.668C92.8342 134.57 92.383 135.36 91.5934 135.811L76.0834 144.778C73.207 146.414 69.6538 146.414 66.8338 144.778L38.9722 128.704C38.239 128.253 37.7314 127.464 37.7314 126.618C37.7314 125.715 38.1826 124.926 38.9158 124.474L53.749 115.338C56.6254 113.533 60.2914 113.476 63.2242 115.225L91.5934 131.524Z" fill="#259789"/>
<path d="M242.069 161.304C243.592 161.304 245.115 160.909 246.412 160.119L260.117 152.223C260.963 151.716 261.471 150.87 261.471 149.855C261.471 148.839 260.963 147.993 260.117 147.486L235.076 132.991C232.312 131.412 228.872 131.412 226.108 133.104L212.967 141.169C212.121 141.677 211.67 142.579 211.67 143.538C211.67 144.497 212.177 145.343 213.023 145.85L237.67 160.063C239.08 160.909 240.603 161.304 242.069 161.304ZM230.733 132.427C232.143 132.427 233.553 132.765 234.794 133.499L259.835 147.993C260.512 148.388 260.907 149.065 260.907 149.855C260.907 150.644 260.512 151.321 259.835 151.716L246.13 159.612C243.592 161.078 240.49 161.078 237.952 159.612L213.305 145.399C212.628 145.004 212.234 144.327 212.234 143.538C212.234 142.748 212.628 142.071 213.249 141.677L226.446 133.668C227.8 132.822 229.266 132.427 230.733 132.427Z" fill="#259789"/>
<path d="M101.406 245.622C102.534 245.622 103.719 245.34 104.734 244.776L123.459 234.173C123.966 233.891 124.305 233.327 124.305 232.763C124.305 232.143 124.023 231.635 123.515 231.353L81.1023 206.819C79.0155 205.635 76.4775 205.635 74.3907 206.819L55.8915 217.535C55.3839 217.817 55.1019 218.381 55.1019 218.945C55.1019 219.509 55.3839 220.073 55.9479 220.355L98.1915 244.72C99.0939 245.34 100.222 245.622 101.406 245.622ZM77.6619 206.481C78.7335 206.481 79.8051 206.763 80.7075 207.327L123.12 231.804C123.459 231.973 123.684 232.368 123.628 232.763C123.628 233.158 123.402 233.496 123.064 233.665L104.339 244.269C102.478 245.34 100.109 245.34 98.2479 244.269L56.0043 219.904C55.6659 219.735 55.4403 219.34 55.4403 219.001C55.4403 218.607 55.6659 218.268 55.9479 218.099L74.4471 207.383C75.5187 206.763 76.5903 206.481 77.6619 206.481Z" fill="#259789"/>
<path d="M104.226 250.303C105.636 250.303 107.046 249.965 108.287 249.232L131.467 236.091C132.088 235.752 132.482 235.132 132.482 234.399C132.482 233.665 132.144 233.045 131.524 232.707L78.9588 202.363C76.4208 200.897 73.2624 200.897 70.7244 202.363L47.7696 215.617C47.1492 215.956 46.8108 216.633 46.8108 217.309C46.8108 218.043 47.2056 218.663 47.7696 219.001L100.109 249.175C101.35 249.909 102.76 250.303 104.226 250.303ZM74.7852 201.799C76.1388 201.799 77.436 202.138 78.6204 202.815L131.185 233.158C131.636 233.383 131.862 233.891 131.862 234.399C131.862 234.906 131.58 235.357 131.129 235.583L107.948 248.724C105.58 250.078 102.647 250.021 100.334 248.724L47.9952 218.55C47.544 218.325 47.3184 217.873 47.3184 217.366C47.3184 216.858 47.6004 216.407 47.9952 216.181L70.95 202.927C72.1344 202.138 73.4316 201.799 74.7852 201.799Z" fill="#259789"/>
<path d="M144.892 96.2182C146.02 96.2182 147.091 95.9926 147.937 95.485C148.84 94.9774 149.291 94.3006 149.291 93.5674C149.291 92.8342 148.84 92.1574 147.937 91.6498C146.245 90.691 143.538 90.691 141.846 91.6498C141 92.1574 140.493 92.8342 140.493 93.5674C140.493 94.3006 140.944 94.9774 141.846 95.485C142.636 95.9362 143.764 96.2182 144.892 96.2182ZM144.892 91.4242C145.907 91.4242 146.922 91.6498 147.655 92.101C148.332 92.4958 148.727 93.0034 148.727 93.511C148.727 94.0186 148.332 94.5826 147.655 94.9774C146.133 95.8798 143.651 95.8798 142.128 94.9774C141.451 94.5826 141.057 94.075 141.057 93.5674C141.057 93.0598 141.451 92.4958 142.128 92.101C142.861 91.6498 143.877 91.4242 144.892 91.4242Z" fill="#259789"/>
<path d="M69.9925 184.992C70.6693 184.992 71.4025 184.823 71.9101 184.541C72.4741 184.203 72.8125 183.752 72.8125 183.244C72.8125 182.736 72.4741 182.285 71.9101 181.947C70.8385 181.326 69.1465 181.326 68.0749 181.947C67.5109 182.285 67.1725 182.736 67.1725 183.244C67.1725 183.752 67.4545 184.203 68.0749 184.541C68.5825 184.823 69.2593 184.992 69.9925 184.992ZM69.9925 182.003C70.6129 182.003 71.1769 182.116 71.6281 182.398C72.0229 182.624 72.2485 182.906 72.2485 183.188C72.2485 183.47 72.0229 183.752 71.6281 183.977C70.7257 184.485 69.2593 184.485 68.3569 183.977C67.9621 183.752 67.7365 183.47 67.7365 183.188C67.7365 182.906 67.9621 182.624 68.3569 182.398C68.8081 182.172 69.3721 182.003 69.9925 182.003Z" fill="#259789"/>
<path d="M61.8149 181.834C62.8865 181.834 63.9581 181.609 64.7477 181.157C65.5937 180.65 66.0449 180.029 66.0449 179.296C66.0449 178.563 65.5937 177.943 64.7477 177.435C63.1121 176.476 60.5177 176.476 58.8821 177.435C58.0361 177.943 57.5849 178.563 57.5849 179.296C57.5849 180.029 58.0361 180.65 58.8821 181.157C59.7281 181.609 60.7433 181.834 61.8149 181.834ZM61.8713 177.266C62.8301 177.266 63.7889 177.491 64.5221 177.886C65.1989 178.281 65.5373 178.732 65.5373 179.24C65.5373 179.747 65.1989 180.255 64.5221 180.593C63.0557 181.439 60.6869 181.439 59.2205 180.593C58.5437 180.199 58.2053 179.747 58.2053 179.24C58.2053 178.732 58.5437 178.225 59.2205 177.886C59.9537 177.491 60.9125 177.266 61.8713 177.266Z" fill="#259789"/>
<path d="M61.8133 180.592C62.3209 180.592 62.7721 180.48 63.1669 180.254C63.5617 180.028 63.8438 179.69 63.8438 179.295C63.8438 178.9 63.6181 178.562 63.2233 178.336C62.4901 177.885 61.2493 177.885 60.5161 178.336C60.1213 178.562 59.8393 178.9 59.8393 179.295C59.8393 179.69 60.0649 180.028 60.4597 180.254C60.8545 180.48 61.3621 180.592 61.8133 180.592ZM61.8698 178.562C62.2645 178.562 62.6593 178.618 62.9413 178.788C63.1669 178.9 63.2797 179.07 63.2797 179.239C63.2797 179.408 63.1669 179.577 62.8849 179.69C62.3209 180.028 61.3057 180.028 60.7418 179.69C60.5161 179.577 60.4033 179.408 60.4033 179.239C60.4033 179.07 60.5161 178.9 60.7981 178.788C61.0801 178.675 61.475 178.562 61.8698 178.562Z" fill="#259789"/>
<path d="M150.248 234.736C150.925 234.736 151.658 234.567 152.166 234.285C152.73 233.947 153.068 233.496 153.068 232.988C153.068 232.48 152.73 232.029 152.166 231.691C151.094 231.07 149.402 231.07 148.331 231.691C147.767 232.029 147.428 232.48 147.428 232.988C147.428 233.496 147.71 233.947 148.331 234.285C148.838 234.624 149.515 234.736 150.248 234.736ZM150.248 231.804C150.869 231.804 151.433 231.916 151.884 232.198C152.279 232.424 152.504 232.706 152.504 232.988C152.504 233.27 152.279 233.552 151.884 233.778C150.982 234.285 149.515 234.285 148.613 233.778C148.218 233.552 147.992 233.27 147.992 232.988C147.992 232.706 148.218 232.424 148.613 232.198C149.064 231.973 149.628 231.804 150.248 231.804Z" fill="#259789"/>
<path d="M159.387 229.887C160.064 229.887 160.797 229.718 161.305 229.436C161.869 229.097 162.207 228.646 162.207 228.138C162.207 227.631 161.869 227.18 161.305 226.841C160.233 226.221 158.541 226.221 157.469 226.841C156.905 227.18 156.567 227.631 156.567 228.138C156.567 228.646 156.849 229.097 157.469 229.436C157.977 229.718 158.654 229.887 159.387 229.887ZM159.387 226.898C160.007 226.898 160.571 227.01 161.023 227.292C161.417 227.518 161.643 227.8 161.643 228.082C161.643 228.364 161.417 228.646 161.023 228.872C160.12 229.379 158.654 229.379 157.751 228.872C157.357 228.646 157.131 228.364 157.131 228.082C157.131 227.8 157.357 227.518 157.751 227.292C158.203 227.067 158.767 226.898 159.387 226.898Z" fill="#259789"/>
<path d="M144.835 97.7415C146.64 97.7415 148.388 97.3467 149.798 96.5571C151.152 95.7675 151.941 94.6959 151.941 93.5115C151.941 92.3835 151.208 91.3119 149.855 90.5223C147.147 88.9431 142.692 88.9431 139.985 90.5223C138.631 91.3119 137.841 92.3835 137.841 93.5679C137.841 94.6959 138.575 95.7675 139.928 96.5571C141.282 97.3467 143.087 97.7415 144.835 97.7415ZM144.891 89.9019C146.583 89.9019 148.275 90.2967 149.516 91.0299C150.701 91.7067 151.377 92.6091 151.377 93.5679C151.377 94.5267 150.701 95.4291 149.516 96.1059C146.922 97.5723 142.748 97.5723 140.21 96.1059C139.026 95.4291 138.405 94.5267 138.405 93.5679C138.405 92.6091 139.082 91.7067 140.267 91.0299C141.507 90.2403 143.199 89.9019 144.891 89.9019Z" fill="#259789"/>
<path d="M179.182 116.861C180.197 116.861 181.269 116.635 182.058 116.184C182.904 115.733 183.355 115.056 183.355 114.379C183.355 113.702 182.904 113.025 182.115 112.574C180.535 111.672 177.997 111.672 176.418 112.574C175.572 113.025 175.121 113.702 175.121 114.379C175.121 115.056 175.572 115.733 176.362 116.184C177.151 116.635 178.167 116.861 179.182 116.861ZM179.238 112.405C180.197 112.405 181.099 112.631 181.833 113.025C182.453 113.364 182.791 113.871 182.791 114.323C182.791 114.83 182.453 115.281 181.776 115.676C180.366 116.522 178.054 116.522 176.644 115.676C176.023 115.338 175.685 114.83 175.685 114.379C175.685 113.871 176.023 113.42 176.7 113.025C177.377 112.631 178.279 112.405 179.238 112.405Z" fill="#259789"/>
<path d="M219.058 127.802C219.848 127.802 220.581 127.633 221.201 127.294C221.822 126.956 222.16 126.448 222.16 125.884C222.16 125.32 221.822 124.869 221.201 124.474C220.017 123.798 218.156 123.798 216.971 124.474C216.351 124.813 216.013 125.32 216.013 125.884C216.013 126.448 216.351 126.9 216.971 127.294C217.535 127.633 218.269 127.802 219.058 127.802ZM219.058 124.587C219.735 124.587 220.412 124.756 220.919 125.038C221.371 125.264 221.596 125.602 221.596 125.941C221.596 126.279 221.371 126.618 220.919 126.843C219.904 127.407 218.269 127.407 217.253 126.843C216.802 126.618 216.577 126.279 216.577 125.941C216.577 125.602 216.802 125.264 217.253 125.038C217.761 124.7 218.438 124.587 219.058 124.587Z" fill="#259789"/>
<path d="M212.966 123.46C213.361 123.46 213.812 123.347 214.094 123.178C214.433 122.952 214.658 122.67 214.658 122.332C214.658 121.993 214.489 121.711 214.094 121.486C213.474 121.091 212.459 121.091 211.838 121.486C211.5 121.711 211.274 121.993 211.274 122.332C211.274 122.67 211.5 122.952 211.838 123.178C212.12 123.347 212.571 123.46 212.966 123.46ZM212.966 121.824C213.305 121.824 213.587 121.88 213.812 122.05C213.981 122.162 214.094 122.275 214.094 122.388C214.094 122.501 213.981 122.614 213.812 122.726C213.361 123.008 212.571 123.008 212.12 122.726C211.951 122.614 211.838 122.501 211.838 122.388C211.838 122.275 211.951 122.162 212.12 122.05C212.346 121.88 212.684 121.824 212.966 121.824Z" fill="#259789"/>
<path d="M208.849 120.921C209.244 120.921 209.695 120.809 209.977 120.639C210.315 120.414 210.541 120.132 210.541 119.793C210.541 119.455 210.372 119.173 209.977 118.947C209.357 118.553 208.341 118.553 207.721 118.947C207.383 119.173 207.157 119.455 207.157 119.793C207.157 120.132 207.326 120.414 207.721 120.639C208.059 120.809 208.454 120.921 208.849 120.921ZM208.849 119.286C209.187 119.286 209.469 119.342 209.695 119.511C209.864 119.624 209.977 119.737 209.977 119.85C209.977 119.963 209.864 120.075 209.695 120.188C209.244 120.47 208.454 120.47 208.003 120.188C207.834 120.075 207.721 119.963 207.721 119.85C207.721 119.737 207.834 119.624 208.003 119.511C208.229 119.342 208.567 119.286 208.849 119.286Z" fill="#259789"/>
<path d="M171.625 183.639V195.257L176.645 198.133V186.515L171.625 183.639Z" fill="#259789"/>
<path d="M171.624 183.638L176.644 186.515L179.182 185.105L174.162 182.172L171.624 183.638Z" fill="#259789"/>
<path d="M173.936 176.25V177.773L179.182 180.706V179.296L173.936 176.25Z" fill="#76AD7E"/>
<path d="M173.936 173.374V174.897L179.182 177.83V176.363L173.936 173.374Z" fill="#76AD7E"/>
<path d="M173.936 170.441V171.964L179.182 174.953V173.487L173.936 170.441Z" fill="#76AD7E"/>
<path d="M173.936 167.564V169.087L179.182 172.02V170.554L173.936 167.564Z" fill="#76AD7E"/>
<path d="M173.936 164.632V166.155L179.182 169.144V167.677L173.936 164.632Z" fill="#76AD7E"/>
<path d="M173.938 176.25L179.183 179.239V180.706L173.938 177.773V176.25ZM173.938 174.897V173.374L179.183 176.363V177.829L173.938 174.897ZM173.938 171.964V170.441L179.183 173.487V174.953L173.938 171.964ZM173.938 169.087V167.565L179.183 170.554V172.02L173.938 169.087ZM173.938 166.155V164.632L179.183 167.677V169.144L173.938 166.155ZM173.938 163.278V161.755L179.183 164.745V166.211L173.938 163.278ZM171.625 195.257V206.875L174.163 208.342V199.656L179.183 202.533V211.218L181.721 212.685V163.335L171.682 157.525V183.639L174.22 182.172L179.239 185.049V196.667L176.701 198.133L171.625 195.257Z" fill="#259789"/>
<path d="M173.936 161.756V163.279L179.182 166.211V164.801L173.936 161.756Z" fill="#76AD7E"/>
<path d="M174.162 208.285L179.182 211.218V202.476L174.162 199.6V208.285Z" fill="#76AD7E"/>
<path d="M176.644 186.515V198.134L179.182 196.724V185.105L176.644 186.515Z" fill="#259789"/>
<path d="M181.664 163.335V212.629L247.031 174.954V125.604L181.664 163.335ZM184.202 208.286V164.745L244.493 129.946V173.487L184.202 208.286Z" fill="#76AD7E"/>
<path d="M184.201 164.801V208.286L244.492 173.487V129.946L184.201 164.801Z" fill="#008EA2"/>
<path d="M239.644 140.324L240.32 139.985V161.756L239.644 162.094V140.324Z" fill="#036F77"/>
<path d="M238.009 141.283L238.629 140.944V162.715L238.009 163.053V141.283Z" fill="#036F77"/>
<path d="M236.315 142.241L236.936 141.847V163.617L236.315 164.012V142.241Z" fill="#036F77"/>
<path d="M234.624 143.2L235.244 142.806V164.576L234.624 164.914V143.2Z" fill="#036F77"/>
<path d="M232.933 144.102L233.609 143.764V165.534L232.933 165.872V144.102Z" fill="#036F77"/>
<path d="M231.296 145.061L231.916 144.723V166.437L231.296 166.831V145.061Z" fill="#036F77"/>
<path d="M229.604 146.02L230.225 145.625V167.395L229.604 167.79V146.02Z" fill="#036F77"/>
<path d="M227.913 146.979L228.533 146.584V168.354L227.913 168.693V146.979Z" fill="#036F77"/>
<path d="M226.22 147.881L226.896 147.543V169.313L226.22 169.652V147.881Z" fill="#036F77"/>
<path d="M224.585 148.84L225.205 148.502V170.272L224.585 170.611V148.84Z" fill="#036F77"/>
<path d="M222.893 149.799L223.514 149.404V171.175L222.893 171.57V149.799Z" fill="#036F77"/>
<path d="M191.759 145.907L236.992 119.794L242.012 122.727L247.031 125.603L181.664 163.335L171.624 157.526L191.759 145.907Z" fill="#96D99D"/>
<path d="M177.546 184.823L179.182 185.782V182.962L177.546 182.003V184.823Z" fill="#173D7A"/>
<path d="M177.546 190.407L179.182 191.366V188.546L177.546 187.587V190.407Z" fill="#D4ECFF"/>
<path d="M39.8181 71.9658V118.383L59.8965 130.001V83.5842L39.8181 71.9658Z" fill="#259789"/>
<path d="M39.818 71.9664L59.8964 83.5848L69.9355 77.7756L49.8571 66.1572L39.818 71.9664Z" fill="#96D99D"/>
<path d="M43.2575 99.7148V102.253L56.4551 109.867V107.329L43.2575 99.7148Z" fill="#76AD7E"/>
<path d="M43.2575 94.6387V97.1767L56.4551 104.791V102.253L43.2575 94.6387Z" fill="#76AD7E"/>
<path d="M44.1038 106.201V114.492L55.6094 121.147V112.856L44.1038 106.201Z" fill="#036F77"/>
<path d="M49.857 66.1571L69.9354 77.7755L74.955 74.8427L69.9354 71.9663L72.4734 70.4999L77.493 73.3763L80.031 71.9663L75.0114 69.0335L77.493 67.6235L82.5126 70.4999L85.0506 69.0335L80.031 66.1571L82.5126 64.6907L87.5322 67.6235L90.0702 66.1571L85.0506 63.2243L87.5322 61.8143L92.5518 64.6907L95.0898 63.2243L90.0702 60.3479L92.6082 58.8815L97.6278 61.8143L100.109 60.3479L80.031 48.7295L49.857 66.1571Z" fill="#259789"/>
<path d="M43.2574 89.5625V92.1005L45.457 93.3413V90.8033L43.2574 89.5625Z" fill="#036F77"/>
<path d="M43.2574 84.4873V87.0253L45.457 88.2661V85.7281L43.2574 84.4873Z" fill="#036F77"/>
<path d="M43.2574 79.3545V81.8925L45.457 83.1897V80.6517L43.2574 79.3545Z" fill="#036F77"/>
<path d="M46.9235 91.6494V94.1874L49.123 95.4846V92.9466L46.9235 91.6494Z" fill="#036F77"/>
<path d="M46.9235 86.5732V89.1112L49.123 90.4084V87.8704L46.9235 86.5732Z" fill="#036F77"/>
<path d="M46.9235 81.498V84.036L49.123 85.3332V82.7952L46.9235 81.498Z" fill="#036F77"/>
<path d="M50.5895 93.793V96.331L52.7891 97.5718V95.0338L50.5895 93.793Z" fill="#036F77"/>
<path d="M50.5895 88.7168V91.2548L52.7891 92.4956V89.9576L50.5895 88.7168Z" fill="#036F77"/>
<path d="M50.5895 83.6406V86.1786L52.7891 87.4194V84.8814L50.5895 83.6406Z" fill="#036F77"/>
<path d="M54.2555 95.8799V98.4179L56.4551 99.7151V97.1771L54.2555 95.8799Z" fill="#036F77"/>
<path d="M54.2555 90.8037V93.3417L56.4551 94.6389V92.1009L54.2555 90.8037Z" fill="#036F77"/>
<path d="M54.2555 85.7275V88.2655L56.4551 89.5627V87.0247L54.2555 85.7275Z" fill="#036F77"/>
<path d="M55.6091 112.856V121.147L44.0471 114.492V106.257L55.6091 112.856ZM56.4551 122.557V112.405L43.2575 104.791V114.943L56.4551 122.557Z" fill="#76AD7E"/>
<path d="M69.9346 71.9664L74.9542 74.8428L77.4922 73.3764L72.4726 70.5L69.9346 71.9664Z" fill="#96D99D"/>
<path d="M75.0105 69.033L80.0301 71.9658L82.5117 70.4994L77.4921 67.623L75.0105 69.033Z" fill="#96D99D"/>
<path d="M80.03 66.1568L85.0496 69.0332L87.5312 67.6232L82.5116 64.6904L80.03 66.1568Z" fill="#96D99D"/>
<path d="M85.0515 63.2245L90.0711 66.1573L92.5527 64.6909L87.5331 61.8145L85.0515 63.2245Z" fill="#96D99D"/>
<path d="M90.0694 60.3482L95.089 63.2246L97.627 61.8146L92.6074 58.8818L90.0694 60.3482Z" fill="#96D99D"/>
<path d="M59.8962 83.5845V130.002L69.9354 124.192L100.109 106.765V60.3477L59.8962 83.5845Z" fill="#76AD7E"/>
<path d="M52.7333 100.73V102.084L53.8613 102.761V101.407L52.7333 100.73Z" fill="#D4ECFF"/>
<path d="M54.6515 101.858V103.212L55.8359 103.889V102.535L54.6515 101.858Z" fill="#D4ECFF"/>
<path d="M78.1133 113.647L77.4929 114.041V92.271L78.1133 91.9326V113.647Z" fill="#036F77"/>
<path d="M79.8047 112.744L79.1843 113.082V91.312L79.8047 90.9736V112.744Z" fill="#036F77"/>
<path d="M81.4961 111.785L80.8757 112.123V90.4094L81.4961 90.0146V111.785Z" fill="#036F77"/>
<path d="M83.1895 110.826L82.5126 111.221V89.4505L83.1895 89.0557V110.826Z" fill="#036F77"/>
<path d="M84.8242 109.867L84.2038 110.262V88.4917L84.8242 88.1533V109.867Z" fill="#036F77"/>
<path d="M86.5156 108.965L85.8952 109.303V87.5327L86.5156 87.1943V108.965Z" fill="#036F77"/>
<path d="M88.209 108.006L87.5886 108.344V86.6302L88.209 86.2354V108.006Z" fill="#036F77"/>
<path d="M89.9004 107.048L89.2236 107.443V85.6721L89.9004 85.2773V107.048Z" fill="#036F77"/>
<path d="M91.5352 106.089L90.9148 106.484V84.7134L91.5352 84.375V106.089Z" fill="#036F77"/>
<path d="M93.2285 105.186L92.6081 105.525V83.7544L93.2285 83.416V105.186Z" fill="#036F77"/>
<path d="M94.9199 104.227L94.2995 104.566V82.8518L94.9199 82.457V104.227Z" fill="#036F77"/>
<path d="M99.9965 207.495L91.2545 212.571C91.3673 212.515 91.5929 212.515 91.8185 212.627L100.561 207.551C100.335 207.439 100.109 207.439 99.9965 207.495Z" fill="#268287"/>
<path d="M106.766 221.313L115.508 216.237L100.562 207.552L91.8198 212.684L106.766 221.313Z" fill="#96D99D"/>
<path d="M107.329 223.118L116.071 218.042C116.184 217.985 116.297 217.816 116.297 217.534C116.297 217.027 115.958 216.463 115.507 216.181L106.765 221.257C107.216 221.482 107.555 222.103 107.555 222.61C107.555 222.892 107.442 223.061 107.329 223.118Z" fill="#268287"/>
<path d="M91.8191 212.684C91.3679 212.458 91.0295 212.628 91.0295 213.135C91.0295 213.643 91.3679 214.207 91.8191 214.489L106.765 223.118C107.216 223.344 107.555 223.174 107.555 222.667C107.555 222.159 107.216 221.595 106.765 221.313L91.8191 212.684Z" fill="#259789"/>
<path d="M99.7158 207.044L98.3058 212.515L107.273 217.704L105.863 210.597L99.7158 207.044Z" fill="#259789"/>
<path d="M107.272 217.704L109.754 216.238L108.4 209.188L105.862 210.598L107.272 217.704Z" fill="#268287"/>
<path d="M105.862 210.597L108.4 209.187L102.196 205.634L99.7148 207.044L105.862 210.597Z" fill="#113A52"/>
<path d="M125.32 220.975L127.802 219.509C128.253 219.227 128.535 218.663 128.535 217.873L126.054 219.339C126.054 220.185 125.772 220.749 125.32 220.975Z" fill="#76AD7E"/>
<path d="M126.054 215.391L128.592 213.925L82.0618 187.078L79.5802 188.545L126.054 215.391Z" fill="#113A52"/>
<path d="M126.054 219.396L128.535 217.929L128.592 213.925L126.054 215.391V219.396Z" fill="#76AD7E"/>
<path d="M79.5811 188.545V192.549C79.5811 194.129 80.7091 196.103 82.0627 196.892L99.7159 207.101L105.863 210.654L123.517 220.806C124.927 221.595 126.055 220.975 126.055 219.396V215.391L79.5811 188.545Z" fill="#259789"/>
<path d="M82.8514 151.208L80.3698 152.675C80.821 152.393 81.4415 152.449 82.1747 152.844L84.6562 151.377C83.9794 150.982 83.359 150.982 82.8514 151.208Z" fill="#96D99D"/>
<path d="M126.054 215.392L128.592 213.925L128.648 179.69L126.11 181.157L126.054 215.392Z" fill="#76AD7E"/>
<path d="M123.628 176.814L126.109 175.347L84.6554 151.434L82.1738 152.844L123.628 176.814Z" fill="#96D99D"/>
<path d="M126.11 181.157L128.592 179.69C128.592 178.111 127.464 176.137 126.11 175.348L123.629 176.814C125.039 177.604 126.11 179.521 126.11 181.157Z" fill="#96D99D"/>
<path d="M82.1738 152.844C80.7638 152.054 79.6358 152.675 79.6358 154.31L79.5794 188.545L126.053 215.391L126.109 181.157C126.109 179.577 124.981 177.603 123.628 176.814L82.1738 152.844Z" fill="#03515E"/>
<path d="M82.287 155.833L123.459 179.634L123.403 210.597L82.2306 186.797L82.287 155.833Z" fill="#D4ECFF"/>
<path d="M110.037 180.649L109.981 190.914L101.07 185.781L101.126 175.517L110.037 180.649Z" fill="#D4ECFF"/>
<path d="M118.553 189.448V189.843L112.067 186.12V185.669L118.553 189.448Z" fill="#D4ECFF"/>
<path d="M118.553 188.151V188.546L112.067 184.824V184.429L118.553 188.151Z" fill="#D4ECFF"/>
<path d="M118.553 186.853V187.248L112.067 183.526V183.131L118.553 186.853Z" fill="#D4ECFF"/>
<path d="M118.553 185.556V186.008L112.067 182.229V181.834L118.553 185.556Z" fill="#D4ECFF"/>
<path d="M118.553 191.986V192.437L112.067 188.658V188.264L118.553 191.986Z" fill="#D4ECFF"/>
<path d="M118.553 190.688V191.139L112.067 187.361V186.966L118.553 190.688Z" fill="#D4ECFF"/>
<path d="M116.918 192.324V192.719L112.068 189.955V189.561L116.918 192.324Z" fill="#D4ECFF"/>
<path d="M102.366 172.077C102.536 172.19 102.648 172.415 102.648 172.585C102.648 172.754 102.536 172.866 102.366 172.754C102.197 172.641 102.028 172.415 102.084 172.246C102.028 172.021 102.197 171.964 102.366 172.077Z" fill="#D4ECFF"/>
<path d="M99.547 169.877C99.2086 169.708 98.9266 169.821 98.9266 170.215V173.035C98.9266 172.697 99.1522 172.528 99.4906 172.697L120.077 184.541C120.359 184.71 120.641 185.105 120.641 185.5V182.68C120.641 182.285 120.359 181.834 120.077 181.665L99.547 169.877ZM101.126 172.077C100.957 171.964 100.788 171.738 100.844 171.569C100.844 171.343 100.957 171.287 101.183 171.4C101.352 171.513 101.465 171.738 101.465 171.907C101.408 172.077 101.295 172.133 101.126 172.077ZM102.367 172.753C102.198 172.641 102.029 172.415 102.085 172.246C102.085 172.02 102.198 171.964 102.423 172.077C102.593 172.189 102.705 172.415 102.705 172.584C102.649 172.81 102.536 172.866 102.367 172.753ZM99.8854 171.343C99.7162 171.231 99.6034 171.005 99.6034 170.836C99.6034 170.61 99.7162 170.554 99.8854 170.667C100.055 170.779 100.167 171.005 100.167 171.174C100.167 171.343 100.055 171.4 99.8854 171.343Z" fill="#D4ECFF"/>
<path d="M99.4906 172.697C99.2086 172.528 98.9266 172.641 98.9266 173.036L98.8702 186.459C98.8702 186.797 99.0958 187.248 99.4342 187.418L120.02 199.262C120.302 199.431 120.584 199.318 120.584 198.923L120.641 185.5C120.641 185.162 120.415 184.71 120.077 184.541L99.4906 172.697ZM109.981 190.914L101.07 185.782L101.126 175.517L110.037 180.65L109.981 190.914ZM118.554 191.14L112.068 187.418V187.023L118.554 190.745V191.14ZM118.554 187.248L112.068 183.526V183.131L118.554 186.854V187.248ZM118.554 188.546L112.068 184.823V184.428L118.554 188.151V188.546ZM118.554 186.008L112.068 182.285V181.89L118.554 185.613V186.008ZM118.554 192.437L112.068 188.715V188.32L118.554 192.042V192.437ZM118.554 189.843L112.068 186.12V185.726L118.554 189.448V189.843ZM116.918 192.719L112.068 189.956V189.561L116.918 192.324V192.719Z" fill="#5793CE"/>
<path d="M99.886 170.61C100.055 170.723 100.168 170.948 100.168 171.117C100.168 171.287 100.055 171.399 99.886 171.287C99.7168 171.174 99.604 170.948 99.604 170.779C99.5476 170.61 99.7168 170.497 99.886 170.61Z" fill="#173D7A"/>
<path d="M101.126 171.343C101.295 171.456 101.408 171.682 101.408 171.851C101.408 172.02 101.295 172.133 101.126 172.02C100.957 171.907 100.788 171.682 100.844 171.512C100.788 171.343 100.957 171.23 101.126 171.343Z" fill="#96D99D"/>
<path d="M111.672 228.983V230.337L96.5003 239.135V237.838L111.672 228.983Z" fill="#03515E"/>
<path d="M96.5 237.838V239.135L62.8856 219.734L62.942 218.437L96.5 237.838Z" fill="#03515E"/>
<path d="M111.672 228.984L96.5003 237.838L62.9423 218.437L78.0575 209.582L111.672 228.984Z" fill="#268287"/>
<path d="M80.1445 211.838V212.515L78.0577 213.699V213.022L80.1445 211.838Z" fill="#76AD7E"/>
<path d="M78.0566 213.022V213.699L75.9699 212.515V211.838L78.0566 213.022Z" fill="#259789"/>
<path d="M80.1445 211.838L78.0577 213.022L75.9709 211.838L78.0577 210.653L80.1445 211.838Z" fill="#96D99D"/>
<path d="M82.7949 213.36V214.037L80.7081 215.222V214.601L82.7949 213.36Z" fill="#76AD7E"/>
<path d="M80.707 214.601V215.222L78.6202 214.037V213.36L80.707 214.601Z" fill="#259789"/>
<path d="M82.7949 213.36L80.7081 214.601L78.6213 213.36L80.7081 212.176L82.7949 213.36Z" fill="#96D99D"/>
<path d="M85.4453 214.884V215.561L83.3585 216.801V216.125L85.4453 214.884Z" fill="#76AD7E"/>
<path d="M83.3574 216.125V216.802L81.2706 215.561V214.94L83.3574 216.125Z" fill="#259789"/>
<path d="M85.4453 214.884L83.3585 216.124L81.2717 214.94L83.3585 213.699L85.4453 214.884Z" fill="#96D99D"/>
<path d="M88.0957 216.406V217.083L86.0089 218.324V217.647L88.0957 216.406Z" fill="#76AD7E"/>
<path d="M86.0078 217.647V218.324L83.921 217.14V216.463L86.0078 217.647Z" fill="#259789"/>
<path d="M88.0957 216.406L86.0089 217.647L83.9221 216.462L86.0089 215.222L88.0957 216.406Z" fill="#96D99D"/>
<path d="M90.748 217.929V218.606L88.6613 219.846V219.17L90.748 217.929Z" fill="#76AD7E"/>
<path d="M88.6602 219.17V219.847L86.5733 218.662V217.985L88.6602 219.17Z" fill="#259789"/>
<path d="M90.748 217.929L88.6613 219.169L86.5745 217.985L88.6613 216.744L90.748 217.929Z" fill="#96D99D"/>
<path d="M93.3984 219.509V220.129L91.3116 221.37V220.693L93.3984 219.509Z" fill="#76AD7E"/>
<path d="M91.3105 220.693V221.37L89.2238 220.186V219.509L91.3105 220.693Z" fill="#259789"/>
<path d="M93.3984 219.508L91.3116 220.693L89.2248 219.508L91.3116 218.268L93.3984 219.508Z" fill="#96D99D"/>
<path d="M96.0488 221.031V221.708L93.962 222.892V222.216L96.0488 221.031Z" fill="#76AD7E"/>
<path d="M93.9609 222.216V222.892L91.8741 221.708V221.031L93.9609 222.216Z" fill="#259789"/>
<path d="M96.0488 221.031L93.962 222.215L91.8752 221.031L93.962 219.847L96.0488 221.031Z" fill="#96D99D"/>
<path d="M98.6992 222.554V223.231L96.6124 224.415V223.795L98.6992 222.554Z" fill="#76AD7E"/>
<path d="M96.6113 223.795V224.415L94.5245 223.231V222.554L96.6113 223.795Z" fill="#259789"/>
<path d="M98.6992 222.554L96.6124 223.794L94.5256 222.554L96.6124 221.369L98.6992 222.554Z" fill="#96D99D"/>
<path d="M101.352 224.076V224.753L99.2648 225.994V225.317L101.352 224.076Z" fill="#76AD7E"/>
<path d="M99.2637 225.317V225.994L97.1769 224.753V224.133L99.2637 225.317Z" fill="#259789"/>
<path d="M101.352 224.076L99.2648 225.317L97.1779 224.132L99.2648 222.892L101.352 224.076Z" fill="#96D99D"/>
<path d="M104.002 225.6V226.276L101.915 227.517V226.84L104.002 225.6Z" fill="#76AD7E"/>
<path d="M101.914 226.841V227.517L99.8273 226.333V225.656L101.914 226.841Z" fill="#259789"/>
<path d="M104.002 225.599L101.915 226.84L99.8284 225.656L101.915 224.415L104.002 225.599Z" fill="#96D99D"/>
<path d="M109.303 228.701V229.322L107.216 230.562V229.886L109.303 228.701Z" fill="#76AD7E"/>
<path d="M107.215 229.886V230.563L102.477 227.856V227.179L107.215 229.886Z" fill="#259789"/>
<path d="M109.303 228.701L107.216 229.885L102.478 227.178L104.565 225.938L109.303 228.701Z" fill="#96D99D"/>
<path d="M80.0879 214.939V215.56L78.0011 216.801V216.124L80.0879 214.939Z" fill="#76AD7E"/>
<path d="M78 216.124V216.801L73.2624 214.094V213.417L78 216.124Z" fill="#259789"/>
<path d="M80.0879 214.939L78.0011 216.124L73.2635 213.417L75.4067 212.176L80.0879 214.939Z" fill="#96D99D"/>
<path d="M82.7949 216.463L82.7385 217.14L80.6517 218.324V217.647L82.7949 216.463Z" fill="#76AD7E"/>
<path d="M80.6523 217.647V218.324L78.6219 217.14V216.463L80.6523 217.647Z" fill="#259789"/>
<path d="M82.7949 216.463L80.6517 217.647L78.6213 216.463L80.7081 215.278L82.7949 216.463Z" fill="#96D99D"/>
<path d="M85.4453 217.985L85.3889 218.662L83.3021 219.847V219.17L85.4453 217.985Z" fill="#76AD7E"/>
<path d="M83.3027 219.17V219.847L81.2723 218.662V217.985L83.3027 219.17Z" fill="#259789"/>
<path d="M85.4453 217.985L83.3021 219.17L81.2717 217.985L83.3585 216.801L85.4453 217.985Z" fill="#96D99D"/>
<path d="M88.0957 219.509V220.186L85.9525 221.426V220.75L88.0957 219.509Z" fill="#76AD7E"/>
<path d="M85.9531 220.75V221.426L83.9227 220.186V219.509L85.9531 220.75Z" fill="#259789"/>
<path d="M88.0957 219.509L85.9525 220.749L83.9221 219.509L86.0089 218.324L88.0957 219.509Z" fill="#96D99D"/>
<path d="M90.748 221.031V221.708L88.6049 222.949V222.272L90.748 221.031Z" fill="#76AD7E"/>
<path d="M88.6055 222.272V222.949L86.5751 221.708V221.088L88.6055 222.272Z" fill="#259789"/>
<path d="M90.748 221.031L88.6049 222.272L86.5745 221.087L88.6613 219.847L90.748 221.031Z" fill="#96D99D"/>
<path d="M93.3984 222.554V223.231L91.2552 224.471V223.795L93.3984 222.554Z" fill="#76AD7E"/>
<path d="M91.2559 223.795V224.472L89.2255 223.287V222.61L91.2559 223.795Z" fill="#259789"/>
<path d="M93.3984 222.554L91.2552 223.794L89.2248 222.61L91.3116 221.369L93.3984 222.554Z" fill="#96D99D"/>
<path d="M96.0488 224.133V224.753L93.9056 225.994L93.962 225.317L96.0488 224.133Z" fill="#76AD7E"/>
<path d="M93.9609 225.317L93.9045 225.994L91.8741 224.81V224.133L93.9609 225.317Z" fill="#259789"/>
<path d="M96.0488 224.132L93.962 225.317L91.8752 224.132L93.962 222.892L96.0488 224.132Z" fill="#96D99D"/>
<path d="M98.6992 225.656V226.333L96.556 227.517L96.6124 226.841L98.6992 225.656Z" fill="#76AD7E"/>
<path d="M96.6113 226.841L96.5549 227.517L94.5245 226.333V225.656L96.6113 226.841Z" fill="#259789"/>
<path d="M98.6992 225.656L96.6124 226.84L94.5256 225.656L96.6124 224.415L98.6992 225.656Z" fill="#96D99D"/>
<path d="M101.352 227.179V227.856L99.2084 229.04L99.2648 228.363L101.352 227.179Z" fill="#76AD7E"/>
<path d="M99.2637 228.363L99.2073 229.04L97.1769 227.856V227.179L99.2637 228.363Z" fill="#259789"/>
<path d="M101.352 227.179L99.2648 228.363L97.1779 227.179L99.2648 225.994L101.352 227.179Z" fill="#96D99D"/>
<path d="M104.002 228.701V229.378L101.915 230.562V229.942L104.002 228.701Z" fill="#76AD7E"/>
<path d="M101.914 229.942V230.562L99.8273 229.378V228.701L101.914 229.942Z" fill="#259789"/>
<path d="M104.002 228.701L101.915 229.942L99.8284 228.701L101.915 227.517L104.002 228.701Z" fill="#96D99D"/>
<path d="M106.652 230.225V230.901L104.566 232.142V231.465L106.652 230.225Z" fill="#76AD7E"/>
<path d="M104.564 231.466V232.142L102.478 230.902V230.281L104.564 231.466Z" fill="#259789"/>
<path d="M106.652 230.224L104.566 231.465L102.479 230.281L104.566 229.04L106.652 230.224Z" fill="#96D99D"/>
<path d="M77.4375 216.462V217.139L75.3507 218.38V217.703L77.4375 216.462Z" fill="#76AD7E"/>
<path d="M75.3496 217.703V218.38L70.612 215.616V214.939L75.3496 217.703Z" fill="#259789"/>
<path d="M77.4375 216.462L75.3507 217.703L70.6131 214.939L72.6999 213.755L77.4375 216.462Z" fill="#96D99D"/>
<path d="M80.0879 217.985V218.662L78.0011 219.903V219.226L80.0879 217.985Z" fill="#76AD7E"/>
<path d="M78 219.226V219.903L75.9132 218.719V218.042L78 219.226Z" fill="#259789"/>
<path d="M80.0879 217.985L78.0011 219.226L75.9143 218.042L78.0011 216.801L80.0879 217.985Z" fill="#96D99D"/>
<path d="M82.7383 219.509V220.186L80.6515 221.426V220.75L82.7383 219.509Z" fill="#76AD7E"/>
<path d="M80.6504 220.75V221.427L78.5636 220.242V219.565L80.6504 220.75Z" fill="#259789"/>
<path d="M82.7383 219.509L80.6515 220.749L78.5647 219.565L80.6515 218.324L82.7383 219.509Z" fill="#96D99D"/>
<path d="M85.3887 221.088V221.708L83.3019 222.949V222.272L85.3887 221.088Z" fill="#76AD7E"/>
<path d="M83.3008 222.272V222.949L81.214 221.765V221.088L83.3008 222.272Z" fill="#259789"/>
<path d="M85.3887 221.087L83.3019 222.272L81.2151 221.087L83.3019 219.847L85.3887 221.087Z" fill="#96D99D"/>
<path d="M88.0391 222.61V223.287L85.9523 224.472V223.795L88.0391 222.61Z" fill="#76AD7E"/>
<path d="M85.9512 223.795V224.472L83.8644 223.287V222.61L85.9512 223.795Z" fill="#259789"/>
<path d="M88.0391 222.61L85.9523 223.795L83.8655 222.61L85.9523 221.426L88.0391 222.61Z" fill="#96D99D"/>
<path d="M90.6914 224.133V224.81L88.6046 225.994V225.374L90.6914 224.133Z" fill="#76AD7E"/>
<path d="M88.6035 225.374V225.994L86.5167 224.81V224.133L88.6035 225.374Z" fill="#259789"/>
<path d="M90.6914 224.133L88.6046 225.373L86.5178 224.133L88.6046 222.948L90.6914 224.133Z" fill="#96D99D"/>
<path d="M93.3418 225.656V226.333L91.255 227.574V226.897L93.3418 225.656Z" fill="#76AD7E"/>
<path d="M91.2539 226.897V227.574L89.1671 226.333V225.656L91.2539 226.897Z" fill="#259789"/>
<path d="M93.3418 225.656L91.255 226.897L89.1682 225.656L91.255 224.472L93.3418 225.656Z" fill="#96D99D"/>
<path d="M95.9922 227.179V227.856L93.9054 229.096V228.42L95.9922 227.179Z" fill="#76AD7E"/>
<path d="M93.9043 228.42V229.097L91.8175 227.912V227.235L93.9043 228.42Z" fill="#259789"/>
<path d="M95.9922 227.179L93.9054 228.419L91.8186 227.235L93.9618 225.994L95.9922 227.179Z" fill="#96D99D"/>
<path d="M98.6426 228.701V229.378L96.5558 230.619V229.942L98.6426 228.701Z" fill="#76AD7E"/>
<path d="M96.5547 229.942V230.619L94.4679 229.435V228.758L96.5547 229.942Z" fill="#259789"/>
<path d="M98.6426 228.701L96.5558 229.942L94.469 228.757L96.6122 227.517L98.6426 228.701Z" fill="#96D99D"/>
<path d="M103.945 231.804V232.481L101.859 233.665V232.988L103.945 231.804Z" fill="#76AD7E"/>
<path d="M101.857 232.988V233.665L97.1198 230.958V230.281L101.857 232.988Z" fill="#259789"/>
<path d="M103.945 231.804L101.859 232.988L97.1209 230.281L99.2641 229.04L103.945 231.804Z" fill="#96D99D"/>
<path d="M77.4375 219.564V220.241L75.2943 221.426V220.805L77.4375 219.564Z" fill="#76AD7E"/>
<path d="M75.2949 220.806V221.426L67.9065 217.196V216.52L75.2949 220.806Z" fill="#259789"/>
<path d="M77.4375 219.565L75.2943 220.806L67.9059 216.519L70.0491 215.278L77.4375 219.565Z" fill="#96D99D"/>
<path d="M80.0879 221.088V221.765L77.9447 223.005V222.329L80.0879 221.088Z" fill="#76AD7E"/>
<path d="M77.9453 222.329V223.005L75.9149 221.765V221.088L77.9453 222.329Z" fill="#259789"/>
<path d="M80.0879 221.088L77.9447 222.329L75.9143 221.088L78.0011 219.903L80.0879 221.088Z" fill="#96D99D"/>
<path d="M82.7383 222.61V223.287L80.5951 224.528V223.851L82.7383 222.61Z" fill="#76AD7E"/>
<path d="M80.5957 223.851V224.528L78.5653 223.344V222.667L80.5957 223.851Z" fill="#259789"/>
<path d="M82.7383 222.61L80.5951 223.851L78.5647 222.667L80.6515 221.426L82.7383 222.61Z" fill="#96D99D"/>
<path d="M85.3887 224.133V224.81L83.2455 226.05V225.374L85.3887 224.133Z" fill="#76AD7E"/>
<path d="M83.2461 225.374V226.051L81.2157 224.866V224.189L83.2461 225.374Z" fill="#259789"/>
<path d="M85.3887 224.133L83.2455 225.373L81.2151 224.189L83.3019 222.948L85.3887 224.133Z" fill="#96D99D"/>
<path d="M88.0391 225.713V226.333L85.8959 227.574V226.897L88.0391 225.713Z" fill="#76AD7E"/>
<path d="M85.8965 226.897V227.574L83.8661 226.39V225.713L85.8965 226.897Z" fill="#259789"/>
<path d="M88.0391 225.712L85.8959 226.897L83.8655 225.712L85.9523 224.472L88.0391 225.712Z" fill="#96D99D"/>
<path d="M90.6914 227.235V227.912L88.6046 229.097V228.42L90.6914 227.235Z" fill="#76AD7E"/>
<path d="M88.6035 228.42V229.097L86.5167 227.912V227.235L88.6035 228.42Z" fill="#259789"/>
<path d="M90.6914 227.235L88.6046 228.419L86.5178 227.235L88.6046 225.994L90.6914 227.235Z" fill="#96D99D"/>
<path d="M93.3418 228.758V229.435L91.255 230.619V229.942L93.3418 228.758Z" fill="#76AD7E"/>
<path d="M91.2539 229.942V230.619L89.1671 229.435V228.758L91.2539 229.942Z" fill="#259789"/>
<path d="M93.3418 228.758L91.255 229.942L89.1682 228.758L91.255 227.573L93.3418 228.758Z" fill="#96D99D"/>
<path d="M95.9922 230.28V230.957L93.9054 232.141V231.521L95.9922 230.28Z" fill="#76AD7E"/>
<path d="M93.9043 231.521V232.141L91.8175 230.957V230.28L93.9043 231.521Z" fill="#259789"/>
<path d="M95.9922 230.28L93.9054 231.521L91.8186 230.28L93.9054 229.096L95.9922 230.28Z" fill="#96D99D"/>
<path d="M101.295 233.326V234.003L99.2081 235.244V234.567L101.295 233.326Z" fill="#76AD7E"/>
<path d="M99.207 234.568V235.244L94.4694 232.481V231.86L99.207 234.568Z" fill="#259789"/>
<path d="M101.295 233.326L99.2081 234.567L94.4705 231.86L96.5573 230.619L101.295 233.326Z" fill="#96D99D"/>
<path d="M69.4277 218.042V218.719L67.3409 219.96V219.283L69.4277 218.042Z" fill="#76AD7E"/>
<path d="M67.3398 219.283V219.96L65.2531 218.719V218.099L67.3398 219.283Z" fill="#259789"/>
<path d="M69.4277 218.042L67.3409 219.283L65.2541 218.098L67.3409 216.857L69.4277 218.042Z" fill="#96D99D"/>
<path d="M72.0781 219.564V220.241L69.9913 221.482V220.805L72.0781 219.564Z" fill="#76AD7E"/>
<path d="M69.9902 220.805V221.482L67.9034 220.298V219.621L69.9902 220.805Z" fill="#259789"/>
<path d="M72.0781 219.564L69.9913 220.805L67.9045 219.621L69.9913 218.38L72.0781 219.564Z" fill="#96D99D"/>
<path d="M74.7285 221.088V221.765L72.6417 223.005V222.329L74.7285 221.088Z" fill="#76AD7E"/>
<path d="M72.6406 222.329V223.006L70.5538 221.821V221.145L72.6406 222.329Z" fill="#259789"/>
<path d="M74.7285 221.088L72.6417 222.329L70.5549 221.144L72.6417 219.903L74.7285 221.088Z" fill="#96D99D"/>
<path d="M87.9844 228.758V229.435L85.8976 230.675V229.999L87.9844 228.758Z" fill="#76AD7E"/>
<path d="M85.8965 229.999V230.676L73.2065 223.344V222.667L85.8965 229.999Z" fill="#259789"/>
<path d="M87.9844 228.758L85.8976 229.999L73.2076 222.667L75.2944 221.426L87.9844 228.758Z" fill="#96D99D"/>
<path d="M90.6348 230.28V230.957L88.548 232.198V231.521L90.6348 230.28Z" fill="#76AD7E"/>
<path d="M88.5469 231.521V232.198L86.4601 231.014V230.337L88.5469 231.521Z" fill="#259789"/>
<path d="M90.6348 230.28L88.548 231.521L86.4612 230.336L88.6044 229.096L90.6348 230.28Z" fill="#96D99D"/>
<path d="M93.2852 231.86V232.481L91.1984 233.722V233.045L93.2852 231.86Z" fill="#76AD7E"/>
<path d="M91.1973 233.045V233.722L89.1105 232.537V231.86L91.1973 233.045Z" fill="#259789"/>
<path d="M93.2852 231.86L91.1984 233.044L89.1116 231.86L91.2548 230.619L93.2852 231.86Z" fill="#96D99D"/>
<path d="M98.5859 234.905V235.582L96.4991 236.766V236.146L98.5859 234.905Z" fill="#76AD7E"/>
<path d="M96.498 236.146V236.767L91.7604 234.06V233.383L96.498 236.146Z" fill="#259789"/>
<path d="M98.5859 234.905L96.4991 236.146L91.7616 233.383L93.9047 232.198L98.5859 234.905Z" fill="#96D99D"/>
<path d="M186.965 99.4335L190.124 97.5723C190.519 97.3467 190.744 96.8956 190.744 96.2188L187.586 98.0799C187.586 98.7003 187.304 99.2079 186.965 99.4335Z" fill="#76AD7E"/>
<path d="M170.329 33.5016L167.17 35.3628C167.565 35.1372 168.073 35.1936 168.693 35.532L171.852 33.6708C171.288 33.3324 170.724 33.276 170.329 33.5016Z" fill="#96D99D"/>
<path d="M190.52 96.1048L190.633 47.4316L187.869 49.0108L187.756 97.684L190.52 96.1048Z" fill="#76AD7E"/>
<path d="M190.463 47.7705L188.094 49.1805L187.981 97.4025L190.35 95.9925L190.463 47.7705ZM190.857 47.0938L190.745 96.2182L187.586 98.0793L187.699 48.955L190.857 47.0938Z" fill="#96D99D"/>
<path d="M185.556 45.2329L188.715 43.4281L171.851 33.6709L168.693 35.5321L185.556 45.2329Z" fill="#96D99D"/>
<path d="M187.699 48.8983L190.857 47.0371C190.857 45.6835 189.899 44.0479 188.714 43.3711L185.556 45.2323C186.74 45.9091 187.699 47.5447 187.699 48.8983Z" fill="#96D99D"/>
<path d="M168.692 35.5319C167.508 34.8551 166.549 35.4191 166.549 36.7727L166.436 85.8971C166.436 87.2507 167.395 88.8863 168.58 89.5631L185.443 99.2639C186.628 99.9407 187.586 99.3767 187.586 98.0231L187.699 48.8987C187.699 47.5451 186.74 45.9095 185.556 45.2327L168.692 35.5319Z" fill="#259789"/>
<path d="M167.622 41.5664L186.629 52.5644L186.516 91.2548L167.509 80.2568L167.622 41.5664Z" fill="#D4ECFF"/>
<path d="M186.797 91.7624L186.854 52.3952L167.283 41.1152L167.226 80.4824L186.797 91.7624ZM186.346 52.7336L186.29 90.7472L167.847 80.0876L167.903 42.074L186.346 52.7336Z" fill="#113A52"/>
<path d="M175.628 86.8561C176.813 87.5329 177.771 89.1685 177.771 90.5221C177.771 91.8757 176.813 92.4397 175.628 91.7629C174.444 91.0861 173.485 89.4505 173.485 88.0969C173.541 86.7433 174.5 86.1793 175.628 86.8561Z" fill="#008EA2"/>
<path d="M176.758 41.3977C176.983 41.5669 177.209 41.9053 177.209 42.1873C177.209 42.4693 176.983 42.5821 176.758 42.4693C176.476 42.3001 176.307 41.9617 176.307 41.6797C176.307 41.3977 176.532 41.2849 176.758 41.3977Z" fill="#008EA2"/>
<path d="M174.897 42.2435L178.676 44.4431C178.901 44.5559 179.07 44.8943 179.07 45.1763C179.07 45.4583 178.901 45.5711 178.676 45.4019L174.897 43.2023C174.671 43.0895 174.502 42.7511 174.502 42.4691C174.502 42.2435 174.671 42.1307 174.897 42.2435Z" fill="#036F77"/>
<path d="M189.842 57.3024L189.334 57.0204C189.221 56.964 189.109 56.964 188.939 57.0768L189.447 57.3588C189.616 57.246 189.785 57.246 189.842 57.3024Z" fill="#008EA2"/>
<path d="M188.545 58.3744L189.052 58.6564C188.94 58.6 188.883 58.4872 188.883 58.318C188.883 57.9796 189.109 57.5283 189.447 57.3591L188.94 57.0771C188.601 57.2463 188.376 57.6976 188.376 58.036C188.376 58.2052 188.432 58.318 188.545 58.3744Z" fill="#259789"/>
<path d="M189.448 57.3584C189.109 57.5276 188.884 57.9788 188.884 58.3172C188.884 58.6556 189.166 58.8248 189.448 58.6556C189.73 58.4864 190.012 58.0352 190.012 57.6968C190.012 57.3584 189.786 57.1892 189.448 57.3584Z" fill="#96D99D"/>
<path d="M189.898 60.1794L189.391 59.8974C189.278 59.841 189.165 59.841 188.996 59.9538L189.504 60.2358C189.616 60.123 189.786 60.123 189.898 60.1794Z" fill="#008EA2"/>
<path d="M188.547 61.2513L189.054 61.5333C188.942 61.4769 188.885 61.3641 188.885 61.1949C188.885 60.8565 189.111 60.4053 189.449 60.2361L188.942 59.9541C188.603 60.1233 188.378 60.5745 188.378 60.9129C188.378 61.0821 188.434 61.1949 188.547 61.2513Z" fill="#259789"/>
<path d="M189.504 60.2353C189.166 60.4045 188.94 60.8557 188.94 61.1941C188.94 61.5325 189.222 61.7017 189.504 61.5325C189.786 61.3633 190.068 60.9121 190.068 60.5737C190.068 60.1789 189.786 60.0661 189.504 60.2353Z" fill="#96D99D"/>
<path d="M188.715 55.4414L189.223 55.7234C189.166 55.667 189.11 55.6106 189.11 55.4978L188.602 55.2158C188.602 55.3286 188.659 55.385 188.715 55.4414Z" fill="#008EA2"/>
<path d="M189.111 53.073L188.604 52.791V55.2162L189.111 55.4982V53.073Z" fill="#259789"/>
<path d="M189.674 52.4522L189.166 52.1702C189.11 52.1138 188.997 52.1138 188.941 52.1702L189.448 52.4522C189.561 52.4522 189.617 52.4522 189.674 52.4522Z" fill="#008EA2"/>
<path d="M189.449 52.5086L188.942 52.2266C188.772 52.3394 188.603 52.6214 188.603 52.7906L189.111 53.0726C189.111 52.847 189.28 52.6214 189.449 52.5086Z" fill="#259789"/>
<path d="M189.449 52.5085C189.28 52.6213 189.11 52.9033 189.11 53.0725V55.4977C189.11 55.7233 189.28 55.7797 189.449 55.6669C189.618 55.5541 189.787 55.2721 189.787 55.1029V52.6777C189.787 52.4521 189.618 52.3957 189.449 52.5085Z" fill="#96D99D"/>
<path d="M181.383 61.0252V67.2292L172.19 61.9276V55.7236L181.383 61.0252Z" fill="#5793CE"/>
<path d="M173.43 53.6931C173.769 53.8623 173.994 54.3135 173.994 54.7083C173.994 55.1031 173.712 55.2159 173.374 55.0467L171.682 54.0879C171.343 53.9187 171.118 53.4675 171.118 53.0727C171.118 52.6779 171.4 52.5651 171.682 52.7343L173.43 53.6931Z" fill="#5793CE"/>
<path d="M176.869 75.3505V75.7453L172.132 72.9817V72.5869L176.869 75.3505Z" fill="#5793CE"/>
<path d="M178.506 75.0117V75.4065L172.133 71.7405V71.3457L178.506 75.0117Z" fill="#5793CE"/>
<path d="M178.506 73.7715V74.1663L172.133 70.5003V70.1055L178.506 73.7715Z" fill="#5793CE"/>
<path d="M178.506 72.4736V72.8684L172.133 69.2024V68.8076L178.506 72.4736Z" fill="#5793CE"/>
<path d="M178.506 71.2334V71.6282L172.133 67.9622L172.189 67.5674L178.506 71.2334Z" fill="#5793CE"/>
<path d="M178.506 69.9922V70.387L172.189 66.721V66.3262L178.506 69.9922Z" fill="#5793CE"/>
<path d="M178.506 68.6953V69.0901L172.189 65.4241V65.0293L178.506 68.6953Z" fill="#5793CE"/>
<path d="M170.441 62.886L183.074 70.218L183.131 58.5996L170.497 51.2676L170.441 62.886ZM181.382 67.2288L172.189 61.9272V55.7232L181.382 61.0248V67.2288ZM171.118 53.016C171.118 52.6212 171.4 52.5084 171.682 52.6776L173.374 53.6364C173.712 53.8056 173.938 54.2568 173.938 54.6516C173.938 55.0464 173.656 55.1592 173.317 54.99L171.625 54.0312C171.4 53.862 171.118 53.4108 171.118 53.016Z" fill="#D4ECFF"/>
<path d="M116.183 143.086C113.533 144.609 113.533 147.091 116.127 148.614L136.318 160.345C138.913 161.868 143.199 161.868 145.85 160.345L173.599 144.327C176.249 142.804 176.249 140.323 173.655 138.8L153.464 127.069C150.869 125.546 146.583 125.546 143.932 127.069L116.183 143.086ZM136.882 160.006L116.691 148.275C114.379 146.922 114.379 144.778 116.691 143.425L144.44 127.407C146.752 126.054 150.531 126.054 152.843 127.407L173.035 139.138C175.347 140.492 175.347 142.635 172.978 143.989L145.229 160.006C142.973 161.36 139.195 161.36 136.882 160.006Z" fill="#30A842"/>
<path d="M135.19 149.46C133.611 150.362 133.611 151.885 135.19 152.787L135.36 152.9C136.939 153.802 139.533 153.802 141.112 152.9L160.796 141.564C162.375 140.661 162.375 139.138 160.796 138.236L160.627 138.123C159.386 137.39 157.412 137.221 155.833 137.728L155.325 137.446C153.746 136.544 151.152 136.544 149.572 137.446L148.614 138.01L148.557 137.954C146.978 137.052 144.384 137.052 142.804 137.954L140.323 139.364C138.744 140.266 138.744 141.789 140.323 142.692L140.379 142.748L135.078 145.794C133.498 146.696 133.498 148.219 135.078 149.121L135.472 149.347L135.19 149.46ZM135.867 152.562L135.698 152.449C134.401 151.716 134.457 150.475 135.698 149.742L136.6 149.234L136.262 149.065C136.206 149.008 136.149 149.008 136.093 148.952L135.585 148.67C134.288 147.937 134.344 146.696 135.585 145.963L141.451 142.579L140.83 142.24C139.533 141.507 139.533 140.266 140.83 139.533L143.312 138.123C144.609 137.39 146.696 137.39 147.937 138.123L148.557 138.518L150.08 137.616C151.377 136.882 153.464 136.882 154.705 137.616L155.212 137.898C155.269 137.954 155.382 138.01 155.438 138.01L155.664 138.18L155.946 138.067C157.243 137.559 158.991 137.672 160.063 138.292L160.232 138.405C161.529 139.138 161.529 140.379 160.232 141.112L140.548 152.505C139.251 153.351 137.164 153.351 135.867 152.562Z" fill="#30A842"/>
</svg>
